M48
; DRILL file {KiCad (6.0.9)} date Wed Dec 21 13:42:32 2022
; FORMAT={-:-/ absolute / metric / decimal}
; #@! TF.CreationDate,2022-12-21T13:42:32-08:00
; #@! TF.GenerationSoftware,Kicad,Pcbnew,(6.0.9)
; #@! TF.FileFunction,Plated,1,2,PTH
FMAT,2
METRIC
; #@! TA.AperFunction,Plated,PTH,ComponentDrill
T1C0.200
; #@! TA.AperFunction,Plated,PTH,ViaDrill
T2C0.300
; #@! TA.AperFunction,Plated,PTH,ComponentDrill
T3C0.400
; #@! TA.AperFunction,Plated,PTH,ComponentDrill
T4C0.500
; #@! TA.AperFunction,Plated,PTH,ComponentDrill
T5C0.750
; #@! TA.AperFunction,Plated,PTH,ComponentDrill
T6C0.813
; #@! TA.AperFunction,Plated,PTH,ComponentDrill
T7C1.000
; #@! TA.AperFunction,Plated,PTH,ComponentDrill
T8C1.500
; #@! TA.AperFunction,Plated,PTH,ComponentDrill
T9C2.200
%
G90
G05
T1
X81.614Y-115.18
X81.614Y-118.88
X83.564Y-115.805
X83.564Y-117.03
X83.564Y-118.255
T2
X75.904Y-149.22
X78.435Y-147.582
X79.47Y-147.751
X81.538Y-60.208
X81.754Y-65.67
X82.079Y-60.77
X82.304Y-102.57
X82.602Y-60.269
X82.754Y-97.87
X82.977Y-122.133
X83.094Y-103.603
X83.471Y-60.264
X84.029Y-106.095
X84.198Y-143.014
X85.154Y-140.77
X86.234Y-59.8
X86.91Y-61.311
X86.981Y-120.408
X87.054Y-146.37
X87.057Y-68.973
X87.065Y-68.22
X87.179Y-142.745
X87.364Y-57.774
X87.454Y-53.17
X87.489Y-67.755
X87.504Y-66.02
X87.89Y-56.249
X88.379Y-74.845
X88.454Y-114.87
X89.252Y-122.012
X89.949Y-121.996
X90.404Y-124.62
X90.679Y-96.42
X91.954Y-134.47
X92.154Y-124.62
X95.388Y-133.822
X95.553Y-132.915
X96.665Y-133.273
X96.735Y-98.986
X96.754Y-135.27
X96.758Y-98.357
X96.854Y-96.42
X98.054Y-145.27
X98.804Y-96.42
X99.929Y-96.42
X100.588Y-99.58
X101.329Y-96.42
X102.496Y-59.476
X103.054Y-129.612
X103.26Y-64.541
X103.265Y-69.625
X103.28Y-72.18
X103.288Y-67.108
X103.288Y-74.729
X103.294Y-82.355
X103.303Y-77.284
X103.331Y-79.851
X103.929Y-96.42
X104.154Y-131.045
X106.263Y-60.808
X106.387Y-66.19
X108.195Y-74.58
X108.654Y-57.47
X108.754Y-54.57
X109.051Y-76.309
X109.112Y-83.501
X109.673Y-85.551
X113.354Y-79.37
X113.604Y-133.92
X113.895Y-78.2
X114.172Y-112.17
X114.422Y-88.127
X115.234Y-97.33
X115.354Y-79.37
X115.654Y-74.82
X116.32Y-122.979
X117.154Y-120.87
X117.208Y-123.556
X117.354Y-95.545
X117.396Y-61.611
X117.462Y-99.755
X117.47Y-80.664
X118.022Y-62.444
X118.022Y-64.194
X118.075Y-100.622
X118.083Y-81.546
X119.022Y-83.32
X119.023Y-102.393
X123.82Y-98.844
X123.822Y-79.771
X124.423Y-121.623
X124.76Y-100.618
X124.764Y-81.544
X124.812Y-62.449
X124.954Y-79.17
X124.954Y-98.17
X124.954Y-59.77
X125.029Y-113.495
X125.484Y-94.98
X126.054Y-75.07
X128.429Y-107.32
X128.624Y-95.8
X129.454Y-72.67
X131.279Y-72.944
X131.288Y-73.997
X132.194Y-108.38
X132.224Y-103.08
X132.354Y-72.27
X132.354Y-74.945
X132.354Y-78.07
X132.884Y-96.203
X132.889Y-73.451
X132.889Y-95.446
X132.889Y-100.238
X133.354Y-134.97
X133.454Y-123.57
X133.942Y-94.418
X134.454Y-76.57
X134.764Y-97.97
X135.154Y-90.995
X135.329Y-100.245
X135.654Y-114.87
X135.754Y-60.87
X135.844Y-59.217
X136.354Y-73.17
X136.434Y-58.639
X136.446Y-96.798
X136.457Y-77.667
X136.529Y-94.895
X137.061Y-59.466
X137.069Y-97.621
X137.073Y-78.544
X137.329Y-92.995
X137.354Y-101.845
X138.354Y-120.62
X138.801Y-119.573
X139.403Y-118.694
X140.017Y-119.572
X140.407Y-109.065
X141.554Y-91.97
X142.244Y-72.59
X142.812Y-101.218
X143.764Y-97.622
X143.767Y-78.551
X143.774Y-59.481
X143.954Y-61.47
X144.204Y-101.595
X144.219Y-105.46
X145.549Y-105.46
X146.654Y-123.57
X146.707Y-119.569
X146.804Y-95.395
X147.754Y-118.02
X147.754Y-119.595
X148.354Y-103.145
X148.742Y-112.896
X148.954Y-131.82
X149.004Y-82.695
X150.254Y-100.744
X150.304Y-60.316
X150.304Y-55.295
X150.654Y-112.97
X151.064Y-92.67
X151.304Y-130.67
X151.354Y-124.17
X151.354Y-103.67
X151.394Y-82.71
X151.454Y-60.57
X151.454Y-99.5
X151.554Y-112.958
X151.584Y-69.66
X151.939Y-85.98
X151.953Y-66.833
X152.654Y-110.67
X153.529Y-119.754
X153.554Y-67.57
X153.579Y-82.02
X154.184Y-70.64
X154.552Y-119.372
X155.429Y-83.62
X155.454Y-64.47
X155.479Y-49.596
X155.504Y-68.662
X155.508Y-87.743
X155.589Y-118.941
X156.09Y-50.457
X156.12Y-69.548
X156.123Y-88.616
X156.829Y-118.488
X157.047Y-52.439
X157.066Y-71.32
X157.071Y-90.393
X161.864Y-67.771
X161.864Y-86.844
X162.154Y-66.47
X162.254Y-85.67
X162.454Y-73.87
X162.454Y-92.87
X162.454Y-54.87
X162.806Y-69.547
X162.809Y-88.616
X162.847Y-50.492
X163.004Y-52.645
X163.48Y-49.588
X165.237Y-105.672
X165.479Y-52.22
X166.465Y-56.095
X169.129Y-96.845
X169.307Y-56.835
X169.634Y-114.027
X170.965Y-90.22
X171.864Y-111.04
X171.916Y-71.733
X173.529Y-70.145
X173.534Y-96.12
X173.854Y-77.77
X173.854Y-80.07
X174.879Y-94.02
X175.005Y-97.93
X175.617Y-98.727
X176.343Y-78.886
X176.404Y-74.57
X176.96Y-79.704
X177.611Y-59.849
X178.238Y-60.649
X178.554Y-58.645
X178.554Y-112.37
X178.954Y-62.97
X179.254Y-95.97
X179.854Y-74.37
X180.654Y-93.27
X180.854Y-76.97
X181.954Y-74.37
X182.317Y-99.209
X183.621Y-80.169
X185.048Y-61.1
X185.382Y-106.136
X185.754Y-59.17
X186.654Y-115.97
X186.706Y-87.078
X187.691Y-113.864
X188.05Y-68.08
X188.23Y-114.325
X188.354Y-117.37
X188.954Y-124.27
X190.817Y-97.75
X190.878Y-80.706
X191.454Y-113.57
X191.579Y-77.295
X192.698Y-111.924
X193.438Y-111.767
X193.854Y-109.97
X194.052Y-112.43
X194.054Y-125.37
X196.354Y-96.17
X196.782Y-92.98
X197.325Y-95.495
X197.399Y-93.675
X197.779Y-56.63
X199.554Y-77.37
X199.654Y-116.77
X199.917Y-111.688
X200.101Y-74.194
X200.633Y-76.684
X200.692Y-113.633
X200.711Y-74.896
X201.154Y-87.77
X202.875Y-120.776
X202.954Y-98.97
X203.054Y-107.6
X203.208Y-92.897
X203.254Y-89.97
X203.996Y-94.845
X204.044Y-129.03
X205.229Y-56.97
X205.779Y-122.545
X207.029Y-101.67
X207.294Y-117.511
X207.311Y-76.056
X207.654Y-122.495
X207.654Y-106.87
X212.014Y-103.79
X212.507Y-107.851
X213.071Y-109.984
X213.099Y-125.42
X213.354Y-105.195
X213.689Y-110.834
X213.754Y-113.27
X213.954Y-107.27
X214.754Y-91.77
X216.403Y-91.36
X217.013Y-92.059
X217.554Y-94.67
X217.554Y-104.37
X219.254Y-115.82
X219.454Y-100.77
X220.292Y-112.006
X220.389Y-102.0
X223.613Y-93.233
T3
X87.425Y-138.846
X89.829Y-141.25
X99.534Y-103.33
X102.934Y-103.33
X107.026Y-126.798
X108.726Y-129.742
X115.454Y-114.66
X115.654Y-76.47
X115.654Y-95.57
X118.854Y-114.66
X119.054Y-76.47
X119.054Y-95.57
X129.017Y-119.949
X129.897Y-123.233
X134.654Y-73.47
X135.651Y-92.567
X138.054Y-73.47
X139.051Y-92.567
X148.554Y-97.87
X148.554Y-101.27
X151.958Y-118.975
X151.958Y-122.375
X153.654Y-102.67
X153.733Y-83.555
X153.754Y-64.47
X157.054Y-102.67
X157.133Y-83.555
X157.154Y-64.47
X173.254Y-112.57
X173.262Y-93.533
X174.654Y-74.47
X176.646Y-112.807
X176.654Y-93.77
X178.046Y-74.707
X188.98Y-125.775
X192.306Y-107.08
X192.328Y-126.365
X195.606Y-88.28
X195.654Y-107.67
X198.954Y-88.87
X217.206Y-125.58
X220.554Y-106.97
X220.554Y-126.17
X223.902Y-107.561
T4
X153.864Y-112.66
X167.064Y-112.66
T5
X82.704Y-99.17
X82.704Y-101.17
T6
X89.134Y-53.21
X89.134Y-55.75
X89.134Y-58.29
X89.134Y-60.83
X89.134Y-63.37
X89.134Y-65.91
X89.134Y-68.45
X89.134Y-70.99
X89.134Y-73.53
X89.134Y-76.07
X89.134Y-78.61
X89.134Y-81.15
X90.433Y-54.406
X90.433Y-56.946
X90.433Y-59.486
X90.433Y-62.026
X90.433Y-64.566
X90.433Y-67.106
X90.433Y-69.646
X90.433Y-72.186
X90.433Y-74.726
X90.433Y-77.266
X90.433Y-79.806
X90.433Y-82.346
X104.374Y-53.21
X104.374Y-55.75
X104.374Y-58.29
X104.374Y-60.83
X104.374Y-63.37
X104.374Y-65.91
X104.374Y-68.45
X104.374Y-70.99
X104.374Y-73.53
X104.374Y-76.07
X104.374Y-78.61
X104.374Y-81.15
X105.673Y-54.406
X105.673Y-56.946
X105.673Y-59.486
X105.673Y-62.026
X105.673Y-64.566
X105.673Y-67.106
X105.673Y-69.646
X105.673Y-72.186
X105.673Y-74.726
X105.673Y-77.266
X105.673Y-79.806
X105.673Y-82.346
T7
X82.854Y-107.77
X82.854Y-111.37
X88.444Y-107.82
X88.444Y-110.32
X88.444Y-112.82
X92.983Y-94.825
X95.523Y-94.825
X98.063Y-94.825
X100.603Y-94.825
X102.944Y-107.82
X102.944Y-112.82
X195.274Y-52.02
X197.814Y-52.02
X200.354Y-52.02
X202.894Y-52.02
X205.434Y-52.02
T8
X85.938Y-155.699
X87.954Y-155.168
X91.63Y-151.491
X92.161Y-149.476
X101.141Y-142.472
X103.224Y-142.482
X107.728Y-139.882
X108.762Y-138.072
X117.022Y-91.745
X117.022Y-72.673
X117.022Y-110.818
X118.822Y-92.795
X118.822Y-73.723
X118.822Y-111.868
X119.217Y-133.628
X121.228Y-134.176
X124.022Y-92.795
X124.022Y-73.723
X124.022Y-111.868
X125.822Y-91.745
X125.822Y-72.673
X125.822Y-110.818
X126.251Y-132.83
X127.718Y-131.35
X136.015Y-107.818
X136.015Y-69.673
X136.015Y-88.745
X137.815Y-108.868
X137.815Y-70.723
X137.815Y-89.795
X138.965Y-129.768
X140.765Y-130.818
X143.015Y-108.868
X143.015Y-70.723
X143.015Y-89.795
X144.815Y-107.818
X144.815Y-69.673
X144.815Y-88.745
X145.965Y-130.818
X147.765Y-129.768
X155.065Y-60.673
X155.065Y-79.745
X155.065Y-98.818
X156.865Y-61.723
X156.865Y-80.795
X156.865Y-99.868
X162.065Y-61.723
X162.065Y-80.795
X162.065Y-99.868
X163.865Y-60.673
X163.865Y-79.745
X163.865Y-98.818
X173.859Y-108.831
X175.189Y-89.805
X175.581Y-110.004
X176.52Y-70.779
X176.912Y-90.978
X178.242Y-71.952
X180.769Y-110.367
X182.099Y-91.341
X182.638Y-109.445
X183.43Y-72.314
X183.968Y-90.419
X185.298Y-71.393
X191.285Y-122.325
X192.875Y-123.672
X194.597Y-103.542
X196.187Y-104.889
X197.909Y-84.759
X197.996Y-124.575
X199.499Y-86.106
X199.951Y-123.853
X201.308Y-105.792
X203.263Y-105.07
X204.62Y-87.009
X206.575Y-86.288
X210.887Y-120.704
X212.477Y-122.051
X214.199Y-101.922
X215.789Y-103.268
X217.598Y-122.954
X219.553Y-122.232
X220.91Y-104.171
X222.865Y-103.45
T9
X130.903Y-92.77
X149.953Y-73.72
X169.003Y-92.77
T7
X84.304Y-121.645G85X84.804Y-121.645
G05
X84.304Y-127.595G85X84.804Y-127.595
G05
X87.304Y-121.645G85X87.804Y-121.645
G05
X87.304Y-127.595G85X87.804Y-127.595
G05
X91.304Y-121.645G85X91.804Y-121.645
G05
X91.304Y-127.595G85X91.804Y-127.595
G05
X92.804Y-123.395G85X93.304Y-123.395
G05
X92.804Y-125.845G85X93.304Y-125.845
G05
T8
X95.294Y-104.72G85X96.594Y-104.72
G05
X95.294Y-115.92G85X96.594Y-115.92
G05
T0
M30
