G04 #@! TF.GenerationSoftware,KiCad,Pcbnew,(6.0.8)*
G04 #@! TF.CreationDate,2022-11-27T04:27:55-08:00*
G04 #@! TF.ProjectId,klor1_3,6b6c6f72-315f-4332-9e6b-696361645f70,v1.3.0*
G04 #@! TF.SameCoordinates,Original*
G04 #@! TF.FileFunction,Paste,Bot*
G04 #@! TF.FilePolarity,Positive*
%FSLAX46Y46*%
G04 Gerber Fmt 4.6, Leading zero omitted, Abs format (unit mm)*
G04 Created by KiCad (PCBNEW (6.0.8)) date 2022-11-27 04:27:55*
%MOMM*%
%LPD*%
G01*
G04 APERTURE LIST*
G04 Aperture macros list*
%AMRotRect*
0 Rectangle, with rotation*
0 The origin of the aperture is its center*
0 $1 length*
0 $2 width*
0 $3 Rotation angle, in degrees counterclockwise*
0 Add horizontal line*
21,1,$1,$2,0,0,$3*%
G04 Aperture macros list end*
%ADD10R,1.600000X1.000000*%
%ADD11RotRect,1.600000X1.000000X195.000000*%
%ADD12RotRect,1.600000X1.000000X210.000000*%
%ADD13RotRect,1.600000X1.000000X225.000000*%
%ADD14RotRect,1.600000X1.000000X170.000000*%
%ADD15RotRect,1.600000X1.000000X176.000000*%
%ADD16R,2.800000X1.000000*%
%ADD17R,1.000000X0.700000*%
%ADD18R,1.143000X0.635000*%
%ADD19RotRect,0.635000X1.143000X210.000000*%
G04 APERTURE END LIST*
D10*
X140965363Y-120443038D03*
X140965363Y-118693038D03*
X145765363Y-118693038D03*
X145765363Y-120443038D03*
D11*
X118735858Y-124102880D03*
X118282925Y-122412510D03*
X122919369Y-121170178D03*
X123372302Y-122860548D03*
D12*
X98210158Y-133396550D03*
X97335158Y-131881005D03*
X101492080Y-129481005D03*
X102367080Y-130996550D03*
D13*
X80758694Y-147690698D03*
X79521257Y-146453262D03*
X82915370Y-143059149D03*
X84152806Y-144296586D03*
D14*
X214475929Y-111868356D03*
X214779814Y-110144942D03*
X219506891Y-110978453D03*
X219203006Y-112701867D03*
X194873691Y-113489087D03*
X195177576Y-111765673D03*
X199904653Y-112599184D03*
X199600768Y-114322598D03*
D15*
X176504589Y-99668186D03*
X176626663Y-97922449D03*
X181414970Y-98257280D03*
X181292896Y-100003017D03*
D10*
X157065363Y-89493038D03*
X157065363Y-87743038D03*
X161865363Y-87743038D03*
X161865363Y-89493038D03*
X138015363Y-98493038D03*
X138015363Y-96743038D03*
X142815363Y-96743038D03*
X142815363Y-98493038D03*
X119021934Y-101493038D03*
X119021934Y-99743038D03*
X123821934Y-99743038D03*
X123821934Y-101493038D03*
D14*
X217787850Y-93085515D03*
X218091735Y-91362101D03*
X222818812Y-92195612D03*
X222514927Y-93919026D03*
X198185613Y-94706244D03*
X198489498Y-92982830D03*
X203216575Y-93816341D03*
X202912690Y-95539755D03*
D15*
X177835026Y-80642048D03*
X177957100Y-78896311D03*
X182745407Y-79231142D03*
X182623333Y-80976879D03*
D10*
X157065363Y-70420441D03*
X157065363Y-68670441D03*
X161865363Y-68670441D03*
X161865363Y-70420441D03*
X138015364Y-79420441D03*
X138015364Y-77670441D03*
X142815364Y-77670441D03*
X142815364Y-79420441D03*
X119021933Y-82420441D03*
X119021933Y-80670441D03*
X123821933Y-80670441D03*
X123821933Y-82420441D03*
D14*
X201497535Y-75923404D03*
X201801420Y-74199990D03*
X206528497Y-75033501D03*
X206224612Y-76756915D03*
D15*
X179165462Y-61615913D03*
X179287536Y-59870176D03*
X184075843Y-60205007D03*
X183953769Y-61950744D03*
D10*
X157065363Y-51347845D03*
X157065363Y-49597845D03*
X161865363Y-49597845D03*
X161865363Y-51347845D03*
X138015364Y-60347845D03*
X138015364Y-58597845D03*
X142815364Y-58597845D03*
X142815364Y-60347845D03*
X119021934Y-63347844D03*
X119021934Y-61597844D03*
X123821934Y-61597844D03*
X123821934Y-63347844D03*
D16*
X82555193Y-56446409D03*
X82555193Y-64396409D03*
D17*
X84455193Y-58046409D03*
X84455193Y-59546409D03*
X84455193Y-62546409D03*
D18*
X92983414Y-98672561D03*
X92983414Y-97671801D03*
X100567415Y-98672561D03*
X100567415Y-97671801D03*
X195278964Y-54219801D03*
X195278964Y-55220561D03*
X98022415Y-98672561D03*
X98022415Y-97671801D03*
X82253965Y-105370560D03*
X82253965Y-104369800D03*
D19*
X90937622Y-133229371D03*
X91804306Y-132728991D03*
D18*
X95519965Y-98672561D03*
X95519965Y-97671801D03*
X84028965Y-105370561D03*
X84028965Y-104369801D03*
X197778964Y-54219801D03*
X197778964Y-55220561D03*
X205453965Y-54219801D03*
X205453965Y-55220561D03*
M02*
