G04 #@! TF.GenerationSoftware,KiCad,Pcbnew,(6.0.9)*
G04 #@! TF.CreationDate,2022-12-21T13:42:31-08:00*
G04 #@! TF.ProjectId,klor1_3,6b6c6f72-315f-4332-9e6b-696361645f70,v1.3.0*
G04 #@! TF.SameCoordinates,Original*
G04 #@! TF.FileFunction,Legend,Top*
G04 #@! TF.FilePolarity,Positive*
%FSLAX46Y46*%
G04 Gerber Fmt 4.6, Leading zero omitted, Abs format (unit mm)*
G04 Created by KiCad (PCBNEW (6.0.9)) date 2022-12-21 13:42:31*
%MOMM*%
%LPD*%
G01*
G04 APERTURE LIST*
%ADD10C,0.150000*%
%ADD11C,0.000000*%
%ADD12C,0.569974*%
%ADD13C,0.127000*%
%ADD14C,0.100000*%
%ADD15C,0.300000*%
%ADD16C,0.120000*%
%ADD17C,0.200000*%
%ADD18C,1.200000*%
%ADD19O,2.500000X1.700000*%
%ADD20C,1.524000*%
G04 APERTURE END LIST*
D10*
X207728964Y-69120181D02*
X192953965Y-69120181D01*
X192953965Y-57345181D01*
X207728964Y-57345181D01*
X207728964Y-69120181D01*
D11*
G36*
X196543502Y-60135206D02*
G01*
X196543502Y-88544278D01*
X184474061Y-88544278D01*
X197072876Y-113600736D01*
X195449494Y-113600736D01*
X182850693Y-88544279D01*
X170569497Y-88544279D01*
X170569497Y-113600737D01*
X169122575Y-113600736D01*
X169122575Y-61582129D01*
X170569489Y-61582129D01*
X170569490Y-87062070D01*
X195096588Y-87062069D01*
X195096588Y-61582127D01*
X170569489Y-61582129D01*
X169122575Y-61582129D01*
X169122575Y-60135207D01*
X196543502Y-60135206D01*
G37*
D10*
X84913964Y-111370181D02*
X84328964Y-111370180D01*
D11*
G36*
X105702215Y-97641503D02*
G01*
X105872598Y-96307042D01*
X106108189Y-94993601D01*
X106407287Y-93702881D01*
X106768194Y-92436580D01*
X107189209Y-91196398D01*
X107668635Y-89984035D01*
X108204770Y-88801189D01*
X108795915Y-87649562D01*
X109440372Y-86530852D01*
X110136439Y-85446757D01*
X110882420Y-84398979D01*
X111676612Y-83389217D01*
X112517316Y-82419170D01*
X113402836Y-81490536D01*
X114331470Y-80605017D01*
X115301519Y-79764312D01*
X116311279Y-78970120D01*
X117359058Y-78224140D01*
X118443151Y-77528072D01*
X119561863Y-76883616D01*
X120713490Y-76292471D01*
X121896335Y-75756336D01*
X123108699Y-75276911D01*
X124348881Y-74855895D01*
X125615182Y-74494987D01*
X126905903Y-74195890D01*
X128219344Y-73960299D01*
X129553805Y-73789918D01*
X130907588Y-73686440D01*
X132278991Y-73651571D01*
X132278992Y-73651577D01*
X133650397Y-73686447D01*
X135004180Y-73789924D01*
X136338642Y-73960307D01*
X137652084Y-74195897D01*
X138942806Y-74494996D01*
X140209108Y-74855902D01*
X141449290Y-75276918D01*
X142661653Y-75756343D01*
X143844500Y-76292478D01*
X144996128Y-76883624D01*
X146114838Y-77528080D01*
X147198933Y-78224148D01*
X148246711Y-78970127D01*
X149256473Y-79764320D01*
X150226521Y-80605026D01*
X151155154Y-81490545D01*
X152040673Y-82419177D01*
X152881378Y-83389225D01*
X153675570Y-84398986D01*
X154421550Y-85446765D01*
X155117617Y-86530859D01*
X155762074Y-87649570D01*
X156353220Y-88801196D01*
X156889354Y-89984043D01*
X157368778Y-91196407D01*
X157789794Y-92436587D01*
X158150701Y-93702888D01*
X158449800Y-94993608D01*
X158685390Y-96307049D01*
X158855772Y-97641511D01*
X158959250Y-98995293D01*
X158994118Y-100366697D01*
X158959248Y-101738102D01*
X158855772Y-103091885D01*
X158685390Y-104426348D01*
X158449799Y-105739790D01*
X158150701Y-107030511D01*
X157789794Y-108296813D01*
X157368778Y-109536996D01*
X156889354Y-110749360D01*
X156353220Y-111932205D01*
X155762073Y-113083834D01*
X155117618Y-114202545D01*
X154421550Y-115286640D01*
X153675570Y-116334418D01*
X152881377Y-117344180D01*
X152040673Y-118314228D01*
X151155153Y-119242862D01*
X150226520Y-120128381D01*
X149256473Y-120969087D01*
X148246711Y-121763280D01*
X147198932Y-122509260D01*
X146114838Y-123205328D01*
X144996127Y-123849784D01*
X143844499Y-124440930D01*
X142661654Y-124977065D01*
X141449289Y-125456490D01*
X140209108Y-125877505D01*
X138942805Y-126238413D01*
X137652084Y-126537510D01*
X136338643Y-126773102D01*
X135004180Y-126943485D01*
X133650397Y-127046961D01*
X132278992Y-127081830D01*
X130907588Y-127046960D01*
X129553805Y-126943483D01*
X128219343Y-126773101D01*
X126905901Y-126537512D01*
X125615180Y-126238412D01*
X124348880Y-125877505D01*
X123108698Y-125456489D01*
X121896333Y-124977063D01*
X120713489Y-124440926D01*
X119561860Y-123849780D01*
X118443150Y-123205323D01*
X117359056Y-122509255D01*
X116311278Y-121763275D01*
X115301515Y-120969080D01*
X114331469Y-120128374D01*
X113402836Y-119242855D01*
X112517316Y-118314223D01*
X111676611Y-117344173D01*
X110882418Y-116334410D01*
X110136438Y-115286631D01*
X109440370Y-114202535D01*
X108795914Y-113083826D01*
X108204770Y-111932196D01*
X107668634Y-110749349D01*
X107189209Y-109536985D01*
X106768194Y-108296804D01*
X106407286Y-107030502D01*
X106108188Y-105739780D01*
X105872598Y-104426338D01*
X105702216Y-103091877D01*
X105598740Y-101738093D01*
X105563869Y-100366689D01*
X105564768Y-100331396D01*
X105564768Y-100331395D01*
X107010792Y-100331395D01*
X107043714Y-101630339D01*
X107141417Y-102912388D01*
X107302306Y-104175939D01*
X107524783Y-105419401D01*
X107807253Y-106641177D01*
X108148118Y-107839672D01*
X108545784Y-109013288D01*
X108998656Y-110160429D01*
X109505134Y-111279499D01*
X110063626Y-112368902D01*
X110672533Y-113427043D01*
X111330261Y-114452324D01*
X112035211Y-115443151D01*
X112785790Y-116397927D01*
X113580400Y-117315055D01*
X114417446Y-118192940D01*
X115295331Y-119029985D01*
X116212460Y-119824596D01*
X117167234Y-120575174D01*
X118158061Y-121280125D01*
X119183343Y-121937851D01*
X120241485Y-122546758D01*
X121330888Y-123105251D01*
X122449958Y-123611728D01*
X123597100Y-124064598D01*
X124770714Y-124462264D01*
X125969208Y-124803132D01*
X127190985Y-125085601D01*
X128434448Y-125308079D01*
X129698001Y-125468965D01*
X130980048Y-125566668D01*
X132278991Y-125599592D01*
X133574834Y-125566669D01*
X134854168Y-125468967D01*
X136115386Y-125308078D01*
X137356867Y-125085601D01*
X138577000Y-124803132D01*
X139774166Y-124462264D01*
X140946752Y-124064599D01*
X142093139Y-123611727D01*
X143211716Y-123105250D01*
X144300864Y-122546758D01*
X145358971Y-121937851D01*
X146384417Y-121280125D01*
X147375590Y-120575174D01*
X148330874Y-119824596D01*
X149248650Y-119029986D01*
X150127308Y-118192940D01*
X150965230Y-117315055D01*
X151760801Y-116397927D01*
X152512403Y-115443151D01*
X153218422Y-114452324D01*
X153877244Y-113427043D01*
X154487255Y-112368902D01*
X155046834Y-111279499D01*
X155554369Y-110160429D01*
X156008245Y-109013288D01*
X156406844Y-107839671D01*
X156748555Y-106641179D01*
X157031758Y-105419402D01*
X157254838Y-104175940D01*
X157416182Y-102912386D01*
X157514172Y-101630340D01*
X157547195Y-100331396D01*
X157514273Y-99032450D01*
X157416570Y-97750405D01*
X157255681Y-96486852D01*
X157033205Y-95243390D01*
X156750735Y-94021614D01*
X156409868Y-92823121D01*
X156012202Y-91649507D01*
X155559332Y-90502366D01*
X155052853Y-89383295D01*
X154494360Y-88293892D01*
X153885454Y-87235752D01*
X153227726Y-86210470D01*
X152522776Y-85219643D01*
X151772196Y-84264867D01*
X150977586Y-83347739D01*
X150140540Y-82469854D01*
X149262654Y-81632808D01*
X148345527Y-80838198D01*
X147390751Y-80087619D01*
X146399923Y-79382668D01*
X145374642Y-78724940D01*
X144316500Y-78116034D01*
X143227097Y-77557543D01*
X142108027Y-77051064D01*
X140960885Y-76598193D01*
X139787270Y-76200526D01*
X138588776Y-75859660D01*
X137366999Y-75577191D01*
X136123537Y-75354714D01*
X134859983Y-75193826D01*
X133577936Y-75096121D01*
X132278991Y-75063199D01*
X130980048Y-75096122D01*
X129698000Y-75193825D01*
X128434448Y-75354714D01*
X127190986Y-75577191D01*
X125969210Y-75859660D01*
X124770715Y-76200526D01*
X123597100Y-76598193D01*
X122449958Y-77051064D01*
X121330888Y-77557543D01*
X120241484Y-78116034D01*
X119183343Y-78724941D01*
X118158061Y-79382668D01*
X117167235Y-80087619D01*
X116212459Y-80838198D01*
X115295330Y-81632808D01*
X114417446Y-82469854D01*
X113580399Y-83347739D01*
X112785789Y-84264867D01*
X112035210Y-85219643D01*
X111330261Y-86210470D01*
X110672532Y-87235751D01*
X110063625Y-88293891D01*
X109505135Y-89383296D01*
X108998655Y-90502365D01*
X108545785Y-91649507D01*
X108148118Y-92823121D01*
X107807252Y-94021614D01*
X107524782Y-95243392D01*
X107302306Y-96486852D01*
X107141417Y-97750405D01*
X107043714Y-99032451D01*
X107010792Y-100331395D01*
X105564768Y-100331395D01*
X105598740Y-98995285D01*
X105702215Y-97641503D01*
G37*
D10*
X84612965Y-107453681D02*
X84612965Y-108038681D01*
D12*
X82813952Y-65670181D02*
G75*
G03*
X82813952Y-65670181I-284987J0D01*
G01*
D10*
X84903964Y-107745181D02*
X84318964Y-107745180D01*
X90890964Y-98368181D02*
X89821964Y-98368180D01*
D13*
X143396964Y-115367181D02*
X143396964Y-112810181D01*
D10*
X83023939Y-55170180D02*
G75*
G03*
X83023939Y-55170180I-494975J0D01*
G01*
X90855964Y-101722181D02*
X89786966Y-101722181D01*
X90344965Y-97817181D02*
X90344964Y-98886181D01*
D14*
X85746250Y-64491323D02*
X85946250Y-64491323D01*
X86031965Y-64805609D02*
X85746250Y-64805609D01*
X85746250Y-64205609D01*
X86031965Y-64205609D01*
X86289107Y-64805609D02*
X86289107Y-64205609D01*
X86631965Y-64805609D01*
X86631965Y-64205609D01*
X87260536Y-64748466D02*
X87231965Y-64777038D01*
X87146250Y-64805609D01*
X87089107Y-64805609D01*
X87003393Y-64777038D01*
X86946250Y-64719895D01*
X86917679Y-64662752D01*
X86889107Y-64548466D01*
X86889107Y-64462752D01*
X86917679Y-64348466D01*
X86946250Y-64291323D01*
X87003393Y-64234181D01*
X87089107Y-64205609D01*
X87146250Y-64205609D01*
X87231965Y-64234181D01*
X87260536Y-64262752D01*
X87946250Y-64634181D02*
X88231965Y-64634181D01*
X87889107Y-64805609D02*
X88089107Y-64205609D01*
X88289107Y-64805609D01*
X88489107Y-64577038D02*
X88946250Y-64577038D01*
X89231965Y-64577038D02*
X89689107Y-64577038D01*
D13*
X137323307Y-112557608D02*
X137432164Y-112593894D01*
X137613593Y-112593894D01*
X137686164Y-112557608D01*
X137722450Y-112521322D01*
X137758735Y-112448751D01*
X137758735Y-112376180D01*
X137722450Y-112303608D01*
X137686164Y-112267322D01*
X137613593Y-112231037D01*
X137468450Y-112194751D01*
X137395878Y-112158465D01*
X137359593Y-112122180D01*
X137323307Y-112049608D01*
X137323307Y-111977037D01*
X137359593Y-111904465D01*
X137395878Y-111868180D01*
X137468450Y-111831894D01*
X137649878Y-111831894D01*
X137758735Y-111868180D01*
X138085307Y-112593894D02*
X138085307Y-111831894D01*
X138266735Y-111831894D01*
X138375593Y-111868180D01*
X138448164Y-111940751D01*
X138484450Y-112013322D01*
X138520735Y-112158465D01*
X138520735Y-112267322D01*
X138484450Y-112412465D01*
X138448164Y-112485037D01*
X138375593Y-112557608D01*
X138266735Y-112593894D01*
X138085307Y-112593894D01*
X138811021Y-112376180D02*
X139173878Y-112376180D01*
X138738450Y-112593894D02*
X138992450Y-111831894D01*
X139246450Y-112593894D01*
D14*
X106404822Y-82347038D02*
X106861965Y-82347038D01*
X107147679Y-82347038D02*
X107604822Y-82347038D01*
X107861965Y-82404181D02*
X108147679Y-82404181D01*
X107804822Y-82575609D02*
X108004822Y-81975609D01*
X108204822Y-82575609D01*
X108404822Y-81975609D02*
X108404822Y-82461323D01*
X108433393Y-82518466D01*
X108461965Y-82547038D01*
X108519107Y-82575609D01*
X108633393Y-82575609D01*
X108690536Y-82547038D01*
X108719107Y-82518466D01*
X108747679Y-82461323D01*
X108747679Y-81975609D01*
X109033393Y-82575609D02*
X109033393Y-81975609D01*
X109176250Y-81975609D01*
X109261965Y-82004181D01*
X109319107Y-82061323D01*
X109347679Y-82118466D01*
X109376250Y-82232752D01*
X109376250Y-82318466D01*
X109347679Y-82432752D01*
X109319107Y-82489895D01*
X109261965Y-82547038D01*
X109176250Y-82575609D01*
X109033393Y-82575609D01*
X109633393Y-82575609D02*
X109633393Y-81975609D01*
X110033393Y-81975609D02*
X110147679Y-81975609D01*
X110204822Y-82004181D01*
X110261965Y-82061323D01*
X110290536Y-82175609D01*
X110290536Y-82375609D01*
X110261965Y-82489895D01*
X110204822Y-82547038D01*
X110147679Y-82575609D01*
X110033393Y-82575609D01*
X109976250Y-82547038D01*
X109919107Y-82489895D01*
X109890536Y-82375609D01*
X109890536Y-82175609D01*
X109919107Y-82061323D01*
X109976250Y-82004181D01*
X110033393Y-81975609D01*
X106404822Y-77267038D02*
X106861965Y-77267038D01*
X107147679Y-77267038D02*
X107604822Y-77267038D01*
X108233393Y-77495609D02*
X108033393Y-77209895D01*
X107890536Y-77495609D02*
X107890536Y-76895609D01*
X108119107Y-76895609D01*
X108176250Y-76924181D01*
X108204822Y-76952752D01*
X108233393Y-77009895D01*
X108233393Y-77095609D01*
X108204822Y-77152752D01*
X108176250Y-77181323D01*
X108119107Y-77209895D01*
X107890536Y-77209895D01*
X108604822Y-76895609D02*
X108719107Y-76895609D01*
X108776250Y-76924181D01*
X108833393Y-76981323D01*
X108861965Y-77095609D01*
X108861965Y-77295609D01*
X108833393Y-77409895D01*
X108776250Y-77467038D01*
X108719107Y-77495609D01*
X108604822Y-77495609D01*
X108547679Y-77467038D01*
X108490536Y-77409895D01*
X108461965Y-77295609D01*
X108461965Y-77095609D01*
X108490536Y-76981323D01*
X108547679Y-76924181D01*
X108604822Y-76895609D01*
X109061965Y-76895609D02*
X109204822Y-77495609D01*
X109319107Y-77067038D01*
X109433393Y-77495609D01*
X109576250Y-76895609D01*
X109776250Y-76952752D02*
X109804822Y-76924181D01*
X109861965Y-76895609D01*
X110004822Y-76895609D01*
X110061965Y-76924181D01*
X110090536Y-76952752D01*
X110119107Y-77009895D01*
X110119107Y-77067038D01*
X110090536Y-77152752D01*
X109747679Y-77495609D01*
X110119107Y-77495609D01*
D13*
X99972680Y-99605181D02*
X99900109Y-99568895D01*
X99791252Y-99568895D01*
X99682394Y-99605181D01*
X99609823Y-99677752D01*
X99573537Y-99750323D01*
X99537252Y-99895466D01*
X99537252Y-100004323D01*
X99573537Y-100149466D01*
X99609823Y-100222038D01*
X99682394Y-100294609D01*
X99791252Y-100330895D01*
X99863823Y-100330895D01*
X99972680Y-100294609D01*
X100008966Y-100258323D01*
X100008966Y-100004323D01*
X99863823Y-100004323D01*
X100335537Y-100330895D02*
X100335537Y-99568895D01*
X100770966Y-100330895D01*
X100770966Y-99568895D01*
X101133823Y-100330895D02*
X101133823Y-99568895D01*
X101315252Y-99568895D01*
X101424109Y-99605181D01*
X101496680Y-99677752D01*
X101532966Y-99750323D01*
X101569252Y-99895466D01*
X101569252Y-100004323D01*
X101532966Y-100149466D01*
X101496680Y-100222038D01*
X101424109Y-100294609D01*
X101315252Y-100330895D01*
X101133823Y-100330895D01*
D10*
X107942060Y-96832085D02*
X108094441Y-96832085D01*
X108170631Y-96870181D01*
X108246822Y-96946371D01*
X108284917Y-97098752D01*
X108284917Y-97365419D01*
X108246822Y-97517800D01*
X108170631Y-97593990D01*
X108094441Y-97632085D01*
X107942060Y-97632085D01*
X107865869Y-97593990D01*
X107789679Y-97517800D01*
X107751584Y-97365419D01*
X107751584Y-97098752D01*
X107789679Y-96946371D01*
X107865869Y-96870181D01*
X107942060Y-96832085D01*
X109008726Y-97632085D02*
X108627774Y-97632085D01*
X108627774Y-96832085D01*
X109275393Y-97213038D02*
X109542060Y-97213038D01*
X109656345Y-97632085D02*
X109275393Y-97632085D01*
X109275393Y-96832085D01*
X109656345Y-96832085D01*
X109999203Y-97632085D02*
X109999203Y-96832085D01*
X110189679Y-96832085D01*
X110303965Y-96870181D01*
X110380155Y-96946371D01*
X110418250Y-97022561D01*
X110456345Y-97174942D01*
X110456345Y-97289228D01*
X110418250Y-97441609D01*
X110380155Y-97517800D01*
X110303965Y-97593990D01*
X110189679Y-97632085D01*
X109999203Y-97632085D01*
D13*
X142287304Y-111831894D02*
X142541304Y-112593894D01*
X142795304Y-111831894D01*
X143484732Y-112521322D02*
X143448446Y-112557608D01*
X143339589Y-112593894D01*
X143267018Y-112593894D01*
X143158161Y-112557608D01*
X143085589Y-112485037D01*
X143049304Y-112412465D01*
X143013018Y-112267322D01*
X143013018Y-112158465D01*
X143049304Y-112013322D01*
X143085589Y-111940751D01*
X143158161Y-111868180D01*
X143267018Y-111831894D01*
X143339589Y-111831894D01*
X143448446Y-111868180D01*
X143484732Y-111904465D01*
X144246732Y-112521322D02*
X144210446Y-112557608D01*
X144101589Y-112593894D01*
X144029018Y-112593894D01*
X143920161Y-112557608D01*
X143847589Y-112485037D01*
X143811304Y-112412465D01*
X143775018Y-112267322D01*
X143775018Y-112158465D01*
X143811304Y-112013322D01*
X143847589Y-111940751D01*
X143920161Y-111868180D01*
X144029018Y-111831894D01*
X144101589Y-111831894D01*
X144210446Y-111868180D01*
X144246732Y-111904465D01*
D10*
X87033726Y-103838037D02*
X87148012Y-103876132D01*
X87186107Y-103914227D01*
X87224203Y-103990418D01*
X87224203Y-104104703D01*
X87186107Y-104180894D01*
X87148012Y-104218989D01*
X87071822Y-104257084D01*
X86767060Y-104257084D01*
X86767060Y-103457084D01*
X87033726Y-103457084D01*
X87109917Y-103495180D01*
X87148012Y-103533275D01*
X87186107Y-103609465D01*
X87186107Y-103685656D01*
X87148012Y-103761846D01*
X87109917Y-103799941D01*
X87033726Y-103838037D01*
X86767060Y-103838037D01*
X87528965Y-104028513D02*
X87909917Y-104028513D01*
X87452774Y-104257084D02*
X87719441Y-103457084D01*
X87986107Y-104257084D01*
X88138488Y-103457084D02*
X88595631Y-103457084D01*
X88367060Y-104257084D02*
X88367060Y-103457084D01*
X88748012Y-103457084D02*
X89205155Y-103457084D01*
X88976584Y-104257084D02*
X88976584Y-103457084D01*
D13*
X199460536Y-50728609D02*
X199569393Y-50764895D01*
X199750821Y-50764895D01*
X199823393Y-50728609D01*
X199859679Y-50692323D01*
X199895964Y-50619752D01*
X199895964Y-50547181D01*
X199859679Y-50474609D01*
X199823393Y-50438323D01*
X199750821Y-50402038D01*
X199605679Y-50365752D01*
X199533107Y-50329466D01*
X199496821Y-50293181D01*
X199460536Y-50220609D01*
X199460536Y-50148038D01*
X199496821Y-50075466D01*
X199533107Y-50039181D01*
X199605679Y-50002895D01*
X199787107Y-50002895D01*
X199895964Y-50039181D01*
X200657964Y-50692323D02*
X200621679Y-50728609D01*
X200512821Y-50764895D01*
X200440250Y-50764895D01*
X200331393Y-50728609D01*
X200258821Y-50656038D01*
X200222536Y-50583466D01*
X200186250Y-50438323D01*
X200186250Y-50329466D01*
X200222536Y-50184323D01*
X200258821Y-50111752D01*
X200331393Y-50039181D01*
X200440250Y-50002895D01*
X200512821Y-50002895D01*
X200621679Y-50039181D01*
X200657964Y-50075466D01*
X201347393Y-50764895D02*
X200984536Y-50764895D01*
X200984536Y-50002895D01*
D14*
X86689106Y-61665610D02*
X86889106Y-62265610D01*
X87089106Y-61665610D01*
X87631964Y-62208467D02*
X87603392Y-62237039D01*
X87517678Y-62265610D01*
X87460535Y-62265610D01*
X87374821Y-62237039D01*
X87317678Y-62179896D01*
X87289106Y-62122753D01*
X87260535Y-62008467D01*
X87260535Y-61922753D01*
X87289106Y-61808467D01*
X87317678Y-61751324D01*
X87374821Y-61694182D01*
X87460535Y-61665610D01*
X87517678Y-61665610D01*
X87603392Y-61694182D01*
X87631964Y-61722753D01*
X88231964Y-62208467D02*
X88203392Y-62237039D01*
X88117678Y-62265610D01*
X88060535Y-62265610D01*
X87974821Y-62237039D01*
X87917678Y-62179896D01*
X87889106Y-62122753D01*
X87860535Y-62008467D01*
X87860535Y-61922753D01*
X87889106Y-61808467D01*
X87917678Y-61751324D01*
X87974821Y-61694182D01*
X88060535Y-61665610D01*
X88117678Y-61665610D01*
X88203392Y-61694182D01*
X88231964Y-61722753D01*
X88489106Y-62037039D02*
X88946249Y-62037039D01*
X89231964Y-62037039D02*
X89689106Y-62037039D01*
D10*
X90019322Y-102727323D02*
X90105036Y-102755895D01*
X90133607Y-102784466D01*
X90162179Y-102841609D01*
X90162179Y-102927323D01*
X90133607Y-102984466D01*
X90105036Y-103013038D01*
X90047893Y-103041609D01*
X89819322Y-103041609D01*
X89819322Y-102441609D01*
X90019322Y-102441609D01*
X90076465Y-102470181D01*
X90105036Y-102498752D01*
X90133607Y-102555895D01*
X90133607Y-102613038D01*
X90105036Y-102670181D01*
X90076465Y-102698752D01*
X90019322Y-102727323D01*
X89819322Y-102727323D01*
X90705036Y-103041609D02*
X90419322Y-103041609D01*
X90419322Y-102441609D01*
X90905036Y-103041609D02*
X90905036Y-102441609D01*
X91247893Y-103041609D02*
X90990750Y-102698752D01*
X91247893Y-102441609D02*
X90905036Y-102784466D01*
D14*
X106404822Y-54407038D02*
X106861965Y-54407038D01*
X107147679Y-54407038D02*
X107604822Y-54407038D01*
X108176250Y-54635609D02*
X107890536Y-54635609D01*
X107890536Y-54035609D01*
X108376250Y-54321323D02*
X108576250Y-54321323D01*
X108661965Y-54635609D02*
X108376250Y-54635609D01*
X108376250Y-54035609D01*
X108661965Y-54035609D01*
X108919107Y-54635609D02*
X108919107Y-54035609D01*
X109061965Y-54035609D01*
X109147679Y-54064181D01*
X109204822Y-54121323D01*
X109233393Y-54178466D01*
X109261965Y-54292752D01*
X109261965Y-54378466D01*
X109233393Y-54492752D01*
X109204822Y-54549895D01*
X109147679Y-54607038D01*
X109061965Y-54635609D01*
X108919107Y-54635609D01*
D13*
X194773392Y-50039180D02*
X194700821Y-50002894D01*
X194591964Y-50002894D01*
X194483106Y-50039180D01*
X194410535Y-50111751D01*
X194374249Y-50184322D01*
X194337964Y-50329465D01*
X194337964Y-50438322D01*
X194374249Y-50583465D01*
X194410535Y-50656037D01*
X194483106Y-50728608D01*
X194591964Y-50764894D01*
X194664535Y-50764894D01*
X194773392Y-50728608D01*
X194809678Y-50692322D01*
X194809678Y-50438322D01*
X194664535Y-50438322D01*
X195136249Y-50764894D02*
X195136249Y-50002894D01*
X195571678Y-50764894D01*
X195571678Y-50002894D01*
X195934535Y-50764894D02*
X195934535Y-50002894D01*
X196115964Y-50002894D01*
X196224821Y-50039180D01*
X196297392Y-50111751D01*
X196333678Y-50184322D01*
X196369964Y-50329465D01*
X196369964Y-50438322D01*
X196333678Y-50583465D01*
X196297392Y-50656037D01*
X196224821Y-50728608D01*
X196115964Y-50764894D01*
X195934535Y-50764894D01*
D14*
X86546248Y-82528466D02*
X86517677Y-82557038D01*
X86431963Y-82585609D01*
X86374820Y-82585609D01*
X86289105Y-82557038D01*
X86231963Y-82499895D01*
X86203391Y-82442752D01*
X86174820Y-82328466D01*
X86174820Y-82242752D01*
X86203391Y-82128466D01*
X86231963Y-82071323D01*
X86289105Y-82014181D01*
X86374820Y-81985609D01*
X86431963Y-81985609D01*
X86517677Y-82014181D01*
X86546248Y-82042752D01*
X86917677Y-81985609D02*
X87031963Y-81985609D01*
X87089105Y-82014181D01*
X87146248Y-82071323D01*
X87174820Y-82185609D01*
X87174820Y-82385609D01*
X87146248Y-82499895D01*
X87089105Y-82557038D01*
X87031963Y-82585609D01*
X86917677Y-82585609D01*
X86860534Y-82557038D01*
X86803391Y-82499895D01*
X86774820Y-82385609D01*
X86774820Y-82185609D01*
X86803391Y-82071323D01*
X86860534Y-82014181D01*
X86917677Y-81985609D01*
X87717677Y-82585609D02*
X87431963Y-82585609D01*
X87431963Y-81985609D01*
X88203391Y-81985609D02*
X87917677Y-81985609D01*
X87889105Y-82271323D01*
X87917677Y-82242752D01*
X87974820Y-82214181D01*
X88117677Y-82214181D01*
X88174820Y-82242752D01*
X88203391Y-82271323D01*
X88231963Y-82328466D01*
X88231963Y-82471323D01*
X88203391Y-82528466D01*
X88174820Y-82557038D01*
X88117677Y-82585609D01*
X87974820Y-82585609D01*
X87917677Y-82557038D01*
X87889105Y-82528466D01*
X88489105Y-82357038D02*
X88946248Y-82357038D01*
X89231963Y-82357038D02*
X89689105Y-82357038D01*
D10*
X97096869Y-74682203D02*
X96296869Y-74682203D01*
X96868298Y-74415537D01*
X96296869Y-74148870D01*
X97096869Y-74148870D01*
X96296869Y-73615537D02*
X96296869Y-73463156D01*
X96334965Y-73386965D01*
X96411155Y-73310775D01*
X96563536Y-73272680D01*
X96830203Y-73272680D01*
X96982584Y-73310775D01*
X97058774Y-73386965D01*
X97096869Y-73463156D01*
X97096869Y-73615537D01*
X97058774Y-73691727D01*
X96982584Y-73767918D01*
X96830203Y-73806013D01*
X96563536Y-73806013D01*
X96411155Y-73767918D01*
X96334965Y-73691727D01*
X96296869Y-73615537D01*
X96296869Y-72929822D02*
X96944488Y-72929822D01*
X97020679Y-72891727D01*
X97058774Y-72853632D01*
X97096869Y-72777441D01*
X97096869Y-72625060D01*
X97058774Y-72548870D01*
X97020679Y-72510775D01*
X96944488Y-72472680D01*
X96296869Y-72472680D01*
X97096869Y-72091727D02*
X96296869Y-72091727D01*
X97096869Y-71634584D01*
X96296869Y-71634584D01*
X96296869Y-71367918D02*
X96296869Y-70910775D01*
X97096869Y-71139346D02*
X96296869Y-71139346D01*
X97096869Y-70034584D02*
X96296869Y-70034584D01*
X96868298Y-69767918D01*
X96296869Y-69501251D01*
X97096869Y-69501251D01*
X97020679Y-68663156D02*
X97058774Y-68701251D01*
X97096869Y-68815537D01*
X97096869Y-68891727D01*
X97058774Y-69006013D01*
X96982584Y-69082203D01*
X96906393Y-69120299D01*
X96754012Y-69158394D01*
X96639726Y-69158394D01*
X96487345Y-69120299D01*
X96411155Y-69082203D01*
X96334965Y-69006013D01*
X96296869Y-68891727D01*
X96296869Y-68815537D01*
X96334965Y-68701251D01*
X96373060Y-68663156D01*
X96296869Y-68320299D02*
X96944488Y-68320299D01*
X97020679Y-68282203D01*
X97058774Y-68244108D01*
X97096869Y-68167918D01*
X97096869Y-68015537D01*
X97058774Y-67939346D01*
X97020679Y-67901251D01*
X96944488Y-67863156D01*
X96296869Y-67863156D01*
X96296869Y-66720299D02*
X96296869Y-66567918D01*
X96334965Y-66491727D01*
X96411155Y-66415537D01*
X96563536Y-66377441D01*
X96830203Y-66377441D01*
X96982584Y-66415537D01*
X97058774Y-66491727D01*
X97096869Y-66567918D01*
X97096869Y-66720299D01*
X97058774Y-66796489D01*
X96982584Y-66872680D01*
X96830203Y-66910775D01*
X96563536Y-66910775D01*
X96411155Y-66872680D01*
X96334965Y-66796489D01*
X96296869Y-66720299D01*
X97096869Y-66034584D02*
X96296869Y-66034584D01*
X97096869Y-65577441D01*
X96296869Y-65577441D01*
X96677822Y-64320299D02*
X96715917Y-64206013D01*
X96754012Y-64167918D01*
X96830203Y-64129822D01*
X96944488Y-64129822D01*
X97020679Y-64167918D01*
X97058774Y-64206013D01*
X97096869Y-64282203D01*
X97096869Y-64586965D01*
X96296869Y-64586965D01*
X96296869Y-64320299D01*
X96334965Y-64244108D01*
X96373060Y-64206013D01*
X96449250Y-64167918D01*
X96525441Y-64167918D01*
X96601631Y-64206013D01*
X96639726Y-64244108D01*
X96677822Y-64320299D01*
X96677822Y-64586965D01*
X96296869Y-63634584D02*
X96296869Y-63482203D01*
X96334965Y-63406013D01*
X96411155Y-63329822D01*
X96563536Y-63291727D01*
X96830203Y-63291727D01*
X96982584Y-63329822D01*
X97058774Y-63406013D01*
X97096869Y-63482203D01*
X97096869Y-63634584D01*
X97058774Y-63710775D01*
X96982584Y-63786965D01*
X96830203Y-63825060D01*
X96563536Y-63825060D01*
X96411155Y-63786965D01*
X96334965Y-63710775D01*
X96296869Y-63634584D01*
X96296869Y-63063156D02*
X96296869Y-62606013D01*
X97096869Y-62834584D02*
X96296869Y-62834584D01*
X96296869Y-62453632D02*
X96296869Y-61996489D01*
X97096869Y-62225060D02*
X96296869Y-62225060D01*
X96296869Y-61577441D02*
X96296869Y-61425060D01*
X96334965Y-61348870D01*
X96411155Y-61272680D01*
X96563536Y-61234584D01*
X96830203Y-61234584D01*
X96982584Y-61272680D01*
X97058774Y-61348870D01*
X97096869Y-61425060D01*
X97096869Y-61577441D01*
X97058774Y-61653632D01*
X96982584Y-61729822D01*
X96830203Y-61767918D01*
X96563536Y-61767918D01*
X96411155Y-61729822D01*
X96334965Y-61653632D01*
X96296869Y-61577441D01*
X97096869Y-60891727D02*
X96296869Y-60891727D01*
X96868298Y-60625060D01*
X96296869Y-60358394D01*
X97096869Y-60358394D01*
X98308679Y-74225060D02*
X98346774Y-74263156D01*
X98384869Y-74377441D01*
X98384869Y-74453632D01*
X98346774Y-74567918D01*
X98270584Y-74644108D01*
X98194393Y-74682203D01*
X98042012Y-74720299D01*
X97927726Y-74720299D01*
X97775345Y-74682203D01*
X97699155Y-74644108D01*
X97622965Y-74567918D01*
X97584869Y-74453632D01*
X97584869Y-74377441D01*
X97622965Y-74263156D01*
X97661060Y-74225060D01*
X97584869Y-73729822D02*
X97584869Y-73577441D01*
X97622965Y-73501251D01*
X97699155Y-73425060D01*
X97851536Y-73386965D01*
X98118203Y-73386965D01*
X98270584Y-73425060D01*
X98346774Y-73501251D01*
X98384869Y-73577441D01*
X98384869Y-73729822D01*
X98346774Y-73806013D01*
X98270584Y-73882203D01*
X98118203Y-73920299D01*
X97851536Y-73920299D01*
X97699155Y-73882203D01*
X97622965Y-73806013D01*
X97584869Y-73729822D01*
X98384869Y-73044108D02*
X97584869Y-73044108D01*
X98156298Y-72777441D01*
X97584869Y-72510775D01*
X98384869Y-72510775D01*
X98384869Y-72129822D02*
X97584869Y-72129822D01*
X97584869Y-71825060D01*
X97622965Y-71748870D01*
X97661060Y-71710775D01*
X97737250Y-71672680D01*
X97851536Y-71672680D01*
X97927726Y-71710775D01*
X97965822Y-71748870D01*
X98003917Y-71825060D01*
X98003917Y-72129822D01*
X97584869Y-71177441D02*
X97584869Y-71025060D01*
X97622965Y-70948870D01*
X97699155Y-70872680D01*
X97851536Y-70834584D01*
X98118203Y-70834584D01*
X98270584Y-70872680D01*
X98346774Y-70948870D01*
X98384869Y-71025060D01*
X98384869Y-71177441D01*
X98346774Y-71253632D01*
X98270584Y-71329822D01*
X98118203Y-71367918D01*
X97851536Y-71367918D01*
X97699155Y-71329822D01*
X97622965Y-71253632D01*
X97584869Y-71177441D01*
X98384869Y-70491727D02*
X97584869Y-70491727D01*
X98384869Y-70034584D01*
X97584869Y-70034584D01*
X97965822Y-69653632D02*
X97965822Y-69386965D01*
X98384869Y-69272680D02*
X98384869Y-69653632D01*
X97584869Y-69653632D01*
X97584869Y-69272680D01*
X98384869Y-68929822D02*
X97584869Y-68929822D01*
X98384869Y-68472680D01*
X97584869Y-68472680D01*
X97584869Y-68206013D02*
X97584869Y-67748870D01*
X98384869Y-67977441D02*
X97584869Y-67977441D01*
X98346774Y-67520299D02*
X98384869Y-67406013D01*
X98384869Y-67215537D01*
X98346774Y-67139346D01*
X98308679Y-67101251D01*
X98232488Y-67063156D01*
X98156298Y-67063156D01*
X98080107Y-67101251D01*
X98042012Y-67139346D01*
X98003917Y-67215537D01*
X97965822Y-67367918D01*
X97927726Y-67444108D01*
X97889631Y-67482203D01*
X97813441Y-67520299D01*
X97737250Y-67520299D01*
X97661060Y-67482203D01*
X97622965Y-67444108D01*
X97584869Y-67367918D01*
X97584869Y-67177441D01*
X97622965Y-67063156D01*
X97965822Y-65844108D02*
X97965822Y-66110775D01*
X98384869Y-66110775D02*
X97584869Y-66110775D01*
X97584869Y-65729822D01*
X98156298Y-65463156D02*
X98156298Y-65082203D01*
X98384869Y-65539346D02*
X97584869Y-65272680D01*
X98384869Y-65006013D01*
X98308679Y-64282203D02*
X98346774Y-64320299D01*
X98384869Y-64434584D01*
X98384869Y-64510775D01*
X98346774Y-64625060D01*
X98270584Y-64701251D01*
X98194393Y-64739346D01*
X98042012Y-64777441D01*
X97927726Y-64777441D01*
X97775345Y-64739346D01*
X97699155Y-64701251D01*
X97622965Y-64625060D01*
X97584869Y-64510775D01*
X97584869Y-64434584D01*
X97622965Y-64320299D01*
X97661060Y-64282203D01*
X98384869Y-63939346D02*
X97584869Y-63939346D01*
X98384869Y-63558394D02*
X97584869Y-63558394D01*
X98384869Y-63101251D01*
X97584869Y-63101251D01*
X97622965Y-62301251D02*
X97584869Y-62377441D01*
X97584869Y-62491727D01*
X97622965Y-62606013D01*
X97699155Y-62682203D01*
X97775345Y-62720299D01*
X97927726Y-62758394D01*
X98042012Y-62758394D01*
X98194393Y-62720299D01*
X98270584Y-62682203D01*
X98346774Y-62606013D01*
X98384869Y-62491727D01*
X98384869Y-62415537D01*
X98346774Y-62301251D01*
X98308679Y-62263156D01*
X98042012Y-62263156D01*
X98042012Y-62415537D01*
X98384869Y-61310775D02*
X97584869Y-61310775D01*
X97584869Y-61006013D01*
X97622965Y-60929822D01*
X97661060Y-60891727D01*
X97737250Y-60853632D01*
X97851536Y-60853632D01*
X97927726Y-60891727D01*
X97965822Y-60929822D01*
X98003917Y-61006013D01*
X98003917Y-61310775D01*
X98308679Y-60053632D02*
X98346774Y-60091727D01*
X98384869Y-60206013D01*
X98384869Y-60282203D01*
X98346774Y-60396489D01*
X98270584Y-60472680D01*
X98194393Y-60510775D01*
X98042012Y-60548870D01*
X97927726Y-60548870D01*
X97775345Y-60510775D01*
X97699155Y-60472680D01*
X97622965Y-60396489D01*
X97584869Y-60282203D01*
X97584869Y-60206013D01*
X97622965Y-60091727D01*
X97661060Y-60053632D01*
X97965822Y-59444108D02*
X98003917Y-59329822D01*
X98042012Y-59291727D01*
X98118203Y-59253632D01*
X98232488Y-59253632D01*
X98308679Y-59291727D01*
X98346774Y-59329822D01*
X98384869Y-59406013D01*
X98384869Y-59710775D01*
X97584869Y-59710775D01*
X97584869Y-59444108D01*
X97622965Y-59367918D01*
X97661060Y-59329822D01*
X97737250Y-59291727D01*
X97813441Y-59291727D01*
X97889631Y-59329822D01*
X97927726Y-59367918D01*
X97965822Y-59444108D01*
X97965822Y-59710775D01*
D14*
X87203392Y-59725608D02*
X87003392Y-59439894D01*
X86860535Y-59725608D02*
X86860535Y-59125608D01*
X87089106Y-59125608D01*
X87146249Y-59154180D01*
X87174821Y-59182751D01*
X87203392Y-59239894D01*
X87203392Y-59325608D01*
X87174821Y-59382751D01*
X87146249Y-59411322D01*
X87089106Y-59439894D01*
X86860535Y-59439894D01*
X87431964Y-59697037D02*
X87517678Y-59725608D01*
X87660535Y-59725608D01*
X87717678Y-59697037D01*
X87746249Y-59668465D01*
X87774821Y-59611322D01*
X87774821Y-59554180D01*
X87746249Y-59497037D01*
X87717678Y-59468465D01*
X87660535Y-59439894D01*
X87546249Y-59411322D01*
X87489106Y-59382751D01*
X87460535Y-59354180D01*
X87431964Y-59297037D01*
X87431964Y-59239894D01*
X87460535Y-59182751D01*
X87489106Y-59154180D01*
X87546249Y-59125608D01*
X87689106Y-59125608D01*
X87774821Y-59154180D01*
X87946249Y-59125608D02*
X88289106Y-59125608D01*
X88117678Y-59725608D02*
X88117678Y-59125608D01*
X88489106Y-59497037D02*
X88946249Y-59497037D01*
X89231964Y-59497037D02*
X89689106Y-59497037D01*
X106404822Y-59487038D02*
X106861965Y-59487038D01*
X107147679Y-59487038D02*
X107604822Y-59487038D01*
X108204822Y-59144181D02*
X108147679Y-59115609D01*
X108061965Y-59115609D01*
X107976250Y-59144181D01*
X107919107Y-59201323D01*
X107890536Y-59258466D01*
X107861965Y-59372752D01*
X107861965Y-59458466D01*
X107890536Y-59572752D01*
X107919107Y-59629895D01*
X107976250Y-59687038D01*
X108061965Y-59715609D01*
X108119107Y-59715609D01*
X108204822Y-59687038D01*
X108233393Y-59658466D01*
X108233393Y-59458466D01*
X108119107Y-59458466D01*
X108490536Y-59715609D02*
X108490536Y-59115609D01*
X108833393Y-59715609D01*
X108833393Y-59115609D01*
X109119107Y-59715609D02*
X109119107Y-59115609D01*
X109261965Y-59115609D01*
X109347679Y-59144181D01*
X109404822Y-59201323D01*
X109433393Y-59258466D01*
X109461965Y-59372752D01*
X109461965Y-59458466D01*
X109433393Y-59572752D01*
X109404822Y-59629895D01*
X109347679Y-59687038D01*
X109261965Y-59715609D01*
X109119107Y-59715609D01*
X106404822Y-56947038D02*
X106861965Y-56947038D01*
X107147679Y-56947038D02*
X107604822Y-56947038D01*
X107804822Y-56575609D02*
X108147679Y-56575609D01*
X107976250Y-57175609D02*
X107976250Y-56575609D01*
X108290536Y-56575609D02*
X108690536Y-57175609D01*
X108690536Y-56575609D02*
X108290536Y-57175609D01*
D13*
X145368019Y-111868182D02*
X145295448Y-111831896D01*
X145186591Y-111831896D01*
X145077733Y-111868182D01*
X145005162Y-111940753D01*
X144968876Y-112013324D01*
X144932591Y-112158467D01*
X144932591Y-112267324D01*
X144968876Y-112412467D01*
X145005162Y-112485039D01*
X145077733Y-112557610D01*
X145186591Y-112593896D01*
X145259162Y-112593896D01*
X145368019Y-112557610D01*
X145404305Y-112521324D01*
X145404305Y-112267324D01*
X145259162Y-112267324D01*
X145730876Y-112593896D02*
X145730876Y-111831896D01*
X146166305Y-112593896D01*
X146166305Y-111831896D01*
X146529162Y-112593896D02*
X146529162Y-111831896D01*
X146710591Y-111831896D01*
X146819448Y-111868182D01*
X146892019Y-111940753D01*
X146928305Y-112013324D01*
X146964591Y-112158467D01*
X146964591Y-112267324D01*
X146928305Y-112412467D01*
X146892019Y-112485039D01*
X146819448Y-112557610D01*
X146710591Y-112593896D01*
X146529162Y-112593896D01*
D14*
X86974822Y-56614181D02*
X86917679Y-56585609D01*
X86831965Y-56585609D01*
X86746250Y-56614181D01*
X86689107Y-56671323D01*
X86660536Y-56728466D01*
X86631965Y-56842752D01*
X86631965Y-56928466D01*
X86660536Y-57042752D01*
X86689107Y-57099895D01*
X86746250Y-57157038D01*
X86831965Y-57185609D01*
X86889107Y-57185609D01*
X86974822Y-57157038D01*
X87003393Y-57128466D01*
X87003393Y-56928466D01*
X86889107Y-56928466D01*
X87260536Y-57185609D02*
X87260536Y-56585609D01*
X87603393Y-57185609D01*
X87603393Y-56585609D01*
X87889107Y-57185609D02*
X87889107Y-56585609D01*
X88031965Y-56585609D01*
X88117679Y-56614181D01*
X88174822Y-56671323D01*
X88203393Y-56728466D01*
X88231965Y-56842752D01*
X88231965Y-56928466D01*
X88203393Y-57042752D01*
X88174822Y-57099895D01*
X88117679Y-57157038D01*
X88031965Y-57185609D01*
X87889107Y-57185609D01*
X88489107Y-56957038D02*
X88946250Y-56957038D01*
X89231965Y-56957038D02*
X89689107Y-56957038D01*
D10*
X85365869Y-119557085D02*
X85099203Y-119176133D01*
X84908726Y-119557085D02*
X84908726Y-118757085D01*
X85213488Y-118757085D01*
X85289679Y-118795181D01*
X85327774Y-118833276D01*
X85365869Y-118909466D01*
X85365869Y-119023752D01*
X85327774Y-119099942D01*
X85289679Y-119138038D01*
X85213488Y-119176133D01*
X84908726Y-119176133D01*
X85670631Y-119518990D02*
X85784917Y-119557085D01*
X85975393Y-119557085D01*
X86051584Y-119518990D01*
X86089679Y-119480895D01*
X86127774Y-119404704D01*
X86127774Y-119328514D01*
X86089679Y-119252323D01*
X86051584Y-119214228D01*
X85975393Y-119176133D01*
X85823012Y-119138038D01*
X85746822Y-119099942D01*
X85708726Y-119061847D01*
X85670631Y-118985657D01*
X85670631Y-118909466D01*
X85708726Y-118833276D01*
X85746822Y-118795181D01*
X85823012Y-118757085D01*
X86013488Y-118757085D01*
X86127774Y-118795181D01*
X86356345Y-118757085D02*
X86813488Y-118757085D01*
X86584917Y-119557085D02*
X86584917Y-118757085D01*
X90162179Y-99741609D02*
X89962179Y-99455895D01*
X89819322Y-99741609D02*
X89819322Y-99141609D01*
X90047893Y-99141609D01*
X90105036Y-99170181D01*
X90133607Y-99198752D01*
X90162179Y-99255895D01*
X90162179Y-99341609D01*
X90133607Y-99398752D01*
X90105036Y-99427323D01*
X90047893Y-99455895D01*
X89819322Y-99455895D01*
X90419322Y-99427323D02*
X90619322Y-99427323D01*
X90705036Y-99741609D02*
X90419322Y-99741609D01*
X90419322Y-99141609D01*
X90705036Y-99141609D01*
X90962179Y-99741609D02*
X90962179Y-99141609D01*
X91105036Y-99141609D01*
X91190750Y-99170181D01*
X91247893Y-99227323D01*
X91276465Y-99284466D01*
X91305036Y-99398752D01*
X91305036Y-99484466D01*
X91276465Y-99598752D01*
X91247893Y-99655895D01*
X91190750Y-99713038D01*
X91105036Y-99741609D01*
X90962179Y-99741609D01*
D14*
X106404821Y-69647038D02*
X106861964Y-69647038D01*
X107147678Y-69647038D02*
X107604821Y-69647038D01*
X108233392Y-69875609D02*
X108033392Y-69589895D01*
X107890535Y-69875609D02*
X107890535Y-69275609D01*
X108119106Y-69275609D01*
X108176249Y-69304181D01*
X108204821Y-69332752D01*
X108233392Y-69389895D01*
X108233392Y-69475609D01*
X108204821Y-69532752D01*
X108176249Y-69561323D01*
X108119106Y-69589895D01*
X107890535Y-69589895D01*
X108433392Y-69275609D02*
X108833392Y-69875609D01*
X108833392Y-69275609D02*
X108433392Y-69875609D01*
X86546250Y-79988466D02*
X86517679Y-80017038D01*
X86431965Y-80045609D01*
X86374822Y-80045609D01*
X86289107Y-80017038D01*
X86231965Y-79959895D01*
X86203393Y-79902752D01*
X86174822Y-79788466D01*
X86174822Y-79702752D01*
X86203393Y-79588466D01*
X86231965Y-79531323D01*
X86289107Y-79474181D01*
X86374822Y-79445609D01*
X86431965Y-79445609D01*
X86517679Y-79474181D01*
X86546250Y-79502752D01*
X86917679Y-79445609D02*
X87031965Y-79445609D01*
X87089107Y-79474181D01*
X87146250Y-79531323D01*
X87174822Y-79645609D01*
X87174822Y-79845609D01*
X87146250Y-79959895D01*
X87089107Y-80017038D01*
X87031965Y-80045609D01*
X86917679Y-80045609D01*
X86860536Y-80017038D01*
X86803393Y-79959895D01*
X86774822Y-79845609D01*
X86774822Y-79645609D01*
X86803393Y-79531323D01*
X86860536Y-79474181D01*
X86917679Y-79445609D01*
X87717679Y-80045609D02*
X87431965Y-80045609D01*
X87431965Y-79445609D01*
X88174822Y-79645609D02*
X88174822Y-80045609D01*
X88031965Y-79417038D02*
X87889107Y-79845609D01*
X88260536Y-79845609D01*
X88489107Y-79817038D02*
X88946250Y-79817038D01*
X89231965Y-79817038D02*
X89689107Y-79817038D01*
X106404821Y-74727038D02*
X106861964Y-74727038D01*
X107147678Y-74727038D02*
X107604821Y-74727038D01*
X108233392Y-74955609D02*
X108033392Y-74669895D01*
X107890535Y-74955609D02*
X107890535Y-74355609D01*
X108119106Y-74355609D01*
X108176249Y-74384181D01*
X108204821Y-74412752D01*
X108233392Y-74469895D01*
X108233392Y-74555609D01*
X108204821Y-74612752D01*
X108176249Y-74641323D01*
X108119106Y-74669895D01*
X107890535Y-74669895D01*
X108604821Y-74355609D02*
X108719106Y-74355609D01*
X108776249Y-74384181D01*
X108833392Y-74441323D01*
X108861964Y-74555609D01*
X108861964Y-74755609D01*
X108833392Y-74869895D01*
X108776249Y-74927038D01*
X108719106Y-74955609D01*
X108604821Y-74955609D01*
X108547678Y-74927038D01*
X108490535Y-74869895D01*
X108461964Y-74755609D01*
X108461964Y-74555609D01*
X108490535Y-74441323D01*
X108547678Y-74384181D01*
X108604821Y-74355609D01*
X109061964Y-74355609D02*
X109204821Y-74955609D01*
X109319106Y-74527038D01*
X109433392Y-74955609D01*
X109576249Y-74355609D01*
X110119106Y-74955609D02*
X109776249Y-74955609D01*
X109947678Y-74955609D02*
X109947678Y-74355609D01*
X109890535Y-74441323D01*
X109833392Y-74498466D01*
X109776249Y-74527038D01*
D10*
X81958726Y-109513038D02*
X82073012Y-109551133D01*
X82111107Y-109589228D01*
X82149203Y-109665419D01*
X82149203Y-109779704D01*
X82111107Y-109855895D01*
X82073012Y-109893990D01*
X81996822Y-109932085D01*
X81692060Y-109932085D01*
X81692060Y-109132085D01*
X81958726Y-109132085D01*
X82034917Y-109170181D01*
X82073012Y-109208276D01*
X82111107Y-109284466D01*
X82111107Y-109360657D01*
X82073012Y-109436847D01*
X82034917Y-109474942D01*
X81958726Y-109513038D01*
X81692060Y-109513038D01*
X82453965Y-109703514D02*
X82834917Y-109703514D01*
X82377774Y-109932085D02*
X82644441Y-109132085D01*
X82911107Y-109932085D01*
X83063488Y-109132085D02*
X83520631Y-109132085D01*
X83292060Y-109932085D02*
X83292060Y-109132085D01*
X83673012Y-109132085D02*
X84130155Y-109132085D01*
X83901584Y-109932085D02*
X83901584Y-109132085D01*
X100063486Y-116963037D02*
X100330153Y-116963037D01*
X100444439Y-117382084D02*
X100063486Y-117382084D01*
X100063486Y-116582084D01*
X100444439Y-116582084D01*
X100787296Y-117382084D02*
X100787296Y-116582084D01*
X101244439Y-117382084D01*
X101244439Y-116582084D01*
X102082534Y-117305894D02*
X102044439Y-117343989D01*
X101930153Y-117382084D01*
X101853963Y-117382084D01*
X101739677Y-117343989D01*
X101663486Y-117267799D01*
X101625391Y-117191608D01*
X101587296Y-117039227D01*
X101587296Y-116924941D01*
X101625391Y-116772560D01*
X101663486Y-116696370D01*
X101739677Y-116620180D01*
X101853963Y-116582084D01*
X101930153Y-116582084D01*
X102044439Y-116620180D01*
X102082534Y-116658275D01*
D13*
X136367272Y-118331485D02*
X136802700Y-118331485D01*
X136584986Y-119093485D02*
X136584986Y-118331485D01*
X137492129Y-119093485D02*
X137238129Y-118730628D01*
X137056700Y-119093485D02*
X137056700Y-118331485D01*
X137346986Y-118331485D01*
X137419557Y-118367771D01*
X137455843Y-118404056D01*
X137492129Y-118476628D01*
X137492129Y-118585485D01*
X137455843Y-118658056D01*
X137419557Y-118694342D01*
X137346986Y-118730628D01*
X137056700Y-118730628D01*
X137782415Y-118875771D02*
X138145272Y-118875771D01*
X137709843Y-119093485D02*
X137963843Y-118331485D01*
X138217843Y-119093485D01*
X138907272Y-119020913D02*
X138870986Y-119057199D01*
X138762129Y-119093485D01*
X138689557Y-119093485D01*
X138580700Y-119057199D01*
X138508129Y-118984628D01*
X138471843Y-118912056D01*
X138435557Y-118766913D01*
X138435557Y-118658056D01*
X138471843Y-118512913D01*
X138508129Y-118440342D01*
X138580700Y-118367771D01*
X138689557Y-118331485D01*
X138762129Y-118331485D01*
X138870986Y-118367771D01*
X138907272Y-118404056D01*
X139233843Y-119093485D02*
X139233843Y-118331485D01*
X139669272Y-119093485D02*
X139342700Y-118658056D01*
X139669272Y-118331485D02*
X139233843Y-118766913D01*
X137600986Y-119921162D02*
X137709843Y-119957448D01*
X137746129Y-119993733D01*
X137782415Y-120066305D01*
X137782415Y-120175162D01*
X137746129Y-120247733D01*
X137709843Y-120284019D01*
X137637272Y-120320305D01*
X137346986Y-120320305D01*
X137346986Y-119558305D01*
X137600986Y-119558305D01*
X137673557Y-119594591D01*
X137709843Y-119630876D01*
X137746129Y-119703448D01*
X137746129Y-119776019D01*
X137709843Y-119848591D01*
X137673557Y-119884876D01*
X137600986Y-119921162D01*
X137346986Y-119921162D01*
X138072700Y-120102591D02*
X138435557Y-120102591D01*
X138000129Y-120320305D02*
X138254129Y-119558305D01*
X138508129Y-120320305D01*
X139124986Y-120320305D02*
X138762129Y-120320305D01*
X138762129Y-119558305D01*
X139741843Y-120320305D02*
X139378986Y-120320305D01*
X139378986Y-119558305D01*
D14*
X86546250Y-69828466D02*
X86517679Y-69857038D01*
X86431965Y-69885609D01*
X86374822Y-69885609D01*
X86289107Y-69857038D01*
X86231965Y-69799895D01*
X86203393Y-69742752D01*
X86174822Y-69628466D01*
X86174822Y-69542752D01*
X86203393Y-69428466D01*
X86231965Y-69371323D01*
X86289107Y-69314181D01*
X86374822Y-69285609D01*
X86431965Y-69285609D01*
X86517679Y-69314181D01*
X86546250Y-69342752D01*
X86917679Y-69285609D02*
X87031965Y-69285609D01*
X87089107Y-69314181D01*
X87146250Y-69371323D01*
X87174822Y-69485609D01*
X87174822Y-69685609D01*
X87146250Y-69799895D01*
X87089107Y-69857038D01*
X87031965Y-69885609D01*
X86917679Y-69885609D01*
X86860536Y-69857038D01*
X86803393Y-69799895D01*
X86774822Y-69685609D01*
X86774822Y-69485609D01*
X86803393Y-69371323D01*
X86860536Y-69314181D01*
X86917679Y-69285609D01*
X87717679Y-69885609D02*
X87431965Y-69885609D01*
X87431965Y-69285609D01*
X88031965Y-69285609D02*
X88089107Y-69285609D01*
X88146250Y-69314181D01*
X88174822Y-69342752D01*
X88203393Y-69399895D01*
X88231965Y-69514181D01*
X88231965Y-69657038D01*
X88203393Y-69771323D01*
X88174822Y-69828466D01*
X88146250Y-69857038D01*
X88089107Y-69885609D01*
X88031965Y-69885609D01*
X87974822Y-69857038D01*
X87946250Y-69828466D01*
X87917679Y-69771323D01*
X87889107Y-69657038D01*
X87889107Y-69514181D01*
X87917679Y-69399895D01*
X87946250Y-69342752D01*
X87974822Y-69314181D01*
X88031965Y-69285609D01*
X88489107Y-69657038D02*
X88946250Y-69657038D01*
X89231965Y-69657038D02*
X89689107Y-69657038D01*
D10*
X155158607Y-117988038D02*
X155272893Y-118026133D01*
X155310988Y-118064228D01*
X155349084Y-118140419D01*
X155349084Y-118254704D01*
X155310988Y-118330895D01*
X155272893Y-118368990D01*
X155196703Y-118407085D01*
X154891941Y-118407085D01*
X154891941Y-117607085D01*
X155158607Y-117607085D01*
X155234798Y-117645181D01*
X155272893Y-117683276D01*
X155310988Y-117759466D01*
X155310988Y-117835657D01*
X155272893Y-117911847D01*
X155234798Y-117949942D01*
X155158607Y-117988038D01*
X154891941Y-117988038D01*
X155691941Y-117607085D02*
X155691941Y-118254704D01*
X155730036Y-118330895D01*
X155768131Y-118368990D01*
X155844322Y-118407085D01*
X155996703Y-118407085D01*
X156072893Y-118368990D01*
X156110988Y-118330895D01*
X156149084Y-118254704D01*
X156149084Y-117607085D01*
X156453845Y-117607085D02*
X156987179Y-117607085D01*
X156453845Y-118407085D01*
X156987179Y-118407085D01*
X157215750Y-117607085D02*
X157749084Y-117607085D01*
X157215750Y-118407085D01*
X157749084Y-118407085D01*
X158053845Y-117988038D02*
X158320512Y-117988038D01*
X158434798Y-118407085D02*
X158053845Y-118407085D01*
X158053845Y-117607085D01*
X158434798Y-117607085D01*
X159234798Y-118407085D02*
X158968131Y-118026133D01*
X158777655Y-118407085D02*
X158777655Y-117607085D01*
X159082417Y-117607085D01*
X159158607Y-117645181D01*
X159196703Y-117683276D01*
X159234798Y-117759466D01*
X159234798Y-117873752D01*
X159196703Y-117949942D01*
X159158607Y-117988038D01*
X159082417Y-118026133D01*
X158777655Y-118026133D01*
D13*
X204437966Y-50002895D02*
X204691966Y-50764895D01*
X204945966Y-50002895D01*
X205635394Y-50692323D02*
X205599108Y-50728609D01*
X205490251Y-50764895D01*
X205417680Y-50764895D01*
X205308823Y-50728609D01*
X205236251Y-50656038D01*
X205199966Y-50583466D01*
X205163680Y-50438323D01*
X205163680Y-50329466D01*
X205199966Y-50184323D01*
X205236251Y-50111752D01*
X205308823Y-50039181D01*
X205417680Y-50002895D01*
X205490251Y-50002895D01*
X205599108Y-50039181D01*
X205635394Y-50075466D01*
X206397394Y-50692323D02*
X206361108Y-50728609D01*
X206252251Y-50764895D01*
X206179680Y-50764895D01*
X206070823Y-50728609D01*
X205998251Y-50656038D01*
X205961966Y-50583466D01*
X205925680Y-50438323D01*
X205925680Y-50329466D01*
X205961966Y-50184323D01*
X205998251Y-50111752D01*
X206070823Y-50039181D01*
X206179680Y-50002895D01*
X206252251Y-50002895D01*
X206361108Y-50039181D01*
X206397394Y-50075466D01*
D14*
X86546250Y-77448465D02*
X86517679Y-77477037D01*
X86431965Y-77505608D01*
X86374822Y-77505608D01*
X86289107Y-77477037D01*
X86231965Y-77419894D01*
X86203393Y-77362751D01*
X86174822Y-77248465D01*
X86174822Y-77162751D01*
X86203393Y-77048465D01*
X86231965Y-76991322D01*
X86289107Y-76934180D01*
X86374822Y-76905608D01*
X86431965Y-76905608D01*
X86517679Y-76934180D01*
X86546250Y-76962751D01*
X86917679Y-76905608D02*
X87031965Y-76905608D01*
X87089107Y-76934180D01*
X87146250Y-76991322D01*
X87174822Y-77105608D01*
X87174822Y-77305608D01*
X87146250Y-77419894D01*
X87089107Y-77477037D01*
X87031965Y-77505608D01*
X86917679Y-77505608D01*
X86860536Y-77477037D01*
X86803393Y-77419894D01*
X86774822Y-77305608D01*
X86774822Y-77105608D01*
X86803393Y-76991322D01*
X86860536Y-76934180D01*
X86917679Y-76905608D01*
X87717679Y-77505608D02*
X87431965Y-77505608D01*
X87431965Y-76905608D01*
X87860536Y-76905608D02*
X88231965Y-76905608D01*
X88031965Y-77134180D01*
X88117679Y-77134180D01*
X88174822Y-77162751D01*
X88203393Y-77191322D01*
X88231965Y-77248465D01*
X88231965Y-77391322D01*
X88203393Y-77448465D01*
X88174822Y-77477037D01*
X88117679Y-77505608D01*
X87946250Y-77505608D01*
X87889107Y-77477037D01*
X87860536Y-77448465D01*
X88489107Y-77277037D02*
X88946250Y-77277037D01*
X89231965Y-77277037D02*
X89689107Y-77277037D01*
X85660536Y-67031322D02*
X85860536Y-67031322D01*
X85946250Y-67345608D02*
X85660536Y-67345608D01*
X85660536Y-66745608D01*
X85946250Y-66745608D01*
X86203393Y-67345608D02*
X86203393Y-66745608D01*
X86546250Y-67345608D01*
X86546250Y-66745608D01*
X87174822Y-67288465D02*
X87146250Y-67317037D01*
X87060536Y-67345608D01*
X87003393Y-67345608D01*
X86917679Y-67317037D01*
X86860536Y-67259894D01*
X86831965Y-67202751D01*
X86803393Y-67088465D01*
X86803393Y-67002751D01*
X86831965Y-66888465D01*
X86860536Y-66831322D01*
X86917679Y-66774180D01*
X87003393Y-66745608D01*
X87060536Y-66745608D01*
X87146250Y-66774180D01*
X87174822Y-66802751D01*
X88089107Y-67031322D02*
X88174822Y-67059894D01*
X88203393Y-67088465D01*
X88231965Y-67145608D01*
X88231965Y-67231322D01*
X88203393Y-67288465D01*
X88174822Y-67317037D01*
X88117679Y-67345608D01*
X87889107Y-67345608D01*
X87889107Y-66745608D01*
X88089107Y-66745608D01*
X88146250Y-66774180D01*
X88174822Y-66802751D01*
X88203393Y-66859894D01*
X88203393Y-66917037D01*
X88174822Y-66974180D01*
X88146250Y-67002751D01*
X88089107Y-67031322D01*
X87889107Y-67031322D01*
X88489107Y-67117037D02*
X88946250Y-67117037D01*
X89231965Y-67117037D02*
X89689107Y-67117037D01*
X106404822Y-72187037D02*
X106861965Y-72187037D01*
X107147679Y-72187037D02*
X107604822Y-72187037D01*
X108233393Y-72415608D02*
X108033393Y-72129894D01*
X107890536Y-72415608D02*
X107890536Y-71815608D01*
X108119107Y-71815608D01*
X108176250Y-71844180D01*
X108204822Y-71872751D01*
X108233393Y-71929894D01*
X108233393Y-72015608D01*
X108204822Y-72072751D01*
X108176250Y-72101322D01*
X108119107Y-72129894D01*
X107890536Y-72129894D01*
X108604822Y-71815608D02*
X108719107Y-71815608D01*
X108776250Y-71844180D01*
X108833393Y-71901322D01*
X108861965Y-72015608D01*
X108861965Y-72215608D01*
X108833393Y-72329894D01*
X108776250Y-72387037D01*
X108719107Y-72415608D01*
X108604822Y-72415608D01*
X108547679Y-72387037D01*
X108490536Y-72329894D01*
X108461965Y-72215608D01*
X108461965Y-72015608D01*
X108490536Y-71901322D01*
X108547679Y-71844180D01*
X108604822Y-71815608D01*
X109061965Y-71815608D02*
X109204822Y-72415608D01*
X109319107Y-71987037D01*
X109433393Y-72415608D01*
X109576250Y-71815608D01*
X109919107Y-71815608D02*
X109976250Y-71815608D01*
X110033393Y-71844180D01*
X110061965Y-71872751D01*
X110090536Y-71929894D01*
X110119107Y-72044180D01*
X110119107Y-72187037D01*
X110090536Y-72301322D01*
X110061965Y-72358465D01*
X110033393Y-72387037D01*
X109976250Y-72415608D01*
X109919107Y-72415608D01*
X109861965Y-72387037D01*
X109833393Y-72358465D01*
X109804822Y-72301322D01*
X109776250Y-72187037D01*
X109776250Y-72044180D01*
X109804822Y-71929894D01*
X109833393Y-71872751D01*
X109861965Y-71844180D01*
X109919107Y-71815608D01*
D10*
X200001584Y-70482084D02*
X200001584Y-69682084D01*
X200001584Y-70063037D02*
X200458726Y-70063037D01*
X200458726Y-70482084D02*
X200458726Y-69682084D01*
X200801584Y-70253513D02*
X201182536Y-70253513D01*
X200725393Y-70482084D02*
X200992060Y-69682084D01*
X201258726Y-70482084D01*
X201525393Y-70482084D02*
X201525393Y-69682084D01*
X201830155Y-69682084D01*
X201906345Y-69720180D01*
X201944441Y-69758275D01*
X201982536Y-69834465D01*
X201982536Y-69948751D01*
X201944441Y-70024941D01*
X201906345Y-70063037D01*
X201830155Y-70101132D01*
X201525393Y-70101132D01*
X202211107Y-69682084D02*
X202668250Y-69682084D01*
X202439679Y-70482084D02*
X202439679Y-69682084D01*
X202934917Y-70482084D02*
X202934917Y-69682084D01*
X203773012Y-70405894D02*
X203734917Y-70443989D01*
X203620631Y-70482084D01*
X203544441Y-70482084D01*
X203430155Y-70443989D01*
X203353965Y-70367799D01*
X203315869Y-70291608D01*
X203277774Y-70139227D01*
X203277774Y-70024941D01*
X203315869Y-69872560D01*
X203353965Y-69796370D01*
X203430155Y-69720180D01*
X203544441Y-69682084D01*
X203620631Y-69682084D01*
X203734917Y-69720180D01*
X203773012Y-69758275D01*
X204992060Y-70063037D02*
X205106345Y-70101132D01*
X205144441Y-70139227D01*
X205182536Y-70215418D01*
X205182536Y-70329703D01*
X205144441Y-70405894D01*
X205106345Y-70443989D01*
X205030155Y-70482084D01*
X204725393Y-70482084D01*
X204725393Y-69682084D01*
X204992060Y-69682084D01*
X205068250Y-69720180D01*
X205106345Y-69758275D01*
X205144441Y-69834465D01*
X205144441Y-69910656D01*
X205106345Y-69986846D01*
X205068250Y-70024941D01*
X204992060Y-70063037D01*
X204725393Y-70063037D01*
X205525393Y-69682084D02*
X205525393Y-70329703D01*
X205563488Y-70405894D01*
X205601584Y-70443989D01*
X205677774Y-70482084D01*
X205830155Y-70482084D01*
X205906345Y-70443989D01*
X205944441Y-70405894D01*
X205982536Y-70329703D01*
X205982536Y-69682084D01*
X206287298Y-69682084D02*
X206820631Y-69682084D01*
X206287298Y-70482084D01*
X206820631Y-70482084D01*
X207049203Y-69682084D02*
X207582536Y-69682084D01*
X207049203Y-70482084D01*
X207582536Y-70482084D01*
X142657654Y-74038085D02*
X143114797Y-74038085D01*
X142886225Y-74838085D02*
X142886225Y-74038085D01*
X143381464Y-74419038D02*
X143648130Y-74419038D01*
X143762416Y-74838085D02*
X143381464Y-74838085D01*
X143381464Y-74038085D01*
X143762416Y-74038085D01*
X144105273Y-74838085D02*
X144105273Y-74038085D01*
X144562416Y-74838085D01*
X144562416Y-74038085D01*
X144829083Y-74038085D02*
X145286225Y-74038085D01*
X145057654Y-74838085D02*
X145057654Y-74038085D01*
X145552892Y-74838085D02*
X145552892Y-74038085D01*
X145933844Y-74838085D02*
X145933844Y-74038085D01*
X146390987Y-74838085D01*
X146390987Y-74038085D01*
X147190987Y-74076181D02*
X147114797Y-74038085D01*
X147000511Y-74038085D01*
X146886225Y-74076181D01*
X146810035Y-74152371D01*
X146771940Y-74228561D01*
X146733844Y-74380942D01*
X146733844Y-74495228D01*
X146771940Y-74647609D01*
X146810035Y-74723800D01*
X146886225Y-74799990D01*
X147000511Y-74838085D01*
X147076702Y-74838085D01*
X147190987Y-74799990D01*
X147229083Y-74761895D01*
X147229083Y-74495228D01*
X147076702Y-74495228D01*
X144333844Y-76126085D02*
X144333844Y-75326085D01*
X144638606Y-75326085D01*
X144714797Y-75364181D01*
X144752892Y-75402276D01*
X144790987Y-75478466D01*
X144790987Y-75592752D01*
X144752892Y-75668942D01*
X144714797Y-75707038D01*
X144638606Y-75745133D01*
X144333844Y-75745133D01*
X145133844Y-75326085D02*
X145133844Y-75973704D01*
X145171940Y-76049895D01*
X145210035Y-76087990D01*
X145286225Y-76126085D01*
X145438606Y-76126085D01*
X145514797Y-76087990D01*
X145552892Y-76049895D01*
X145590987Y-75973704D01*
X145590987Y-75326085D01*
X146429083Y-76049895D02*
X146390987Y-76087990D01*
X146276702Y-76126085D01*
X146200511Y-76126085D01*
X146086225Y-76087990D01*
X146010035Y-76011800D01*
X145971940Y-75935609D01*
X145933844Y-75783228D01*
X145933844Y-75668942D01*
X145971940Y-75516561D01*
X146010035Y-75440371D01*
X146086225Y-75364181D01*
X146200511Y-75326085D01*
X146276702Y-75326085D01*
X146390987Y-75364181D01*
X146429083Y-75402276D01*
X146771940Y-76126085D02*
X146771940Y-75326085D01*
X147229083Y-76126085D02*
X146886225Y-75668942D01*
X147229083Y-75326085D02*
X146771940Y-75783228D01*
D14*
X86546250Y-74908466D02*
X86517679Y-74937038D01*
X86431965Y-74965609D01*
X86374822Y-74965609D01*
X86289107Y-74937038D01*
X86231965Y-74879895D01*
X86203393Y-74822752D01*
X86174822Y-74708466D01*
X86174822Y-74622752D01*
X86203393Y-74508466D01*
X86231965Y-74451323D01*
X86289107Y-74394181D01*
X86374822Y-74365609D01*
X86431965Y-74365609D01*
X86517679Y-74394181D01*
X86546250Y-74422752D01*
X86917679Y-74365609D02*
X87031965Y-74365609D01*
X87089107Y-74394181D01*
X87146250Y-74451323D01*
X87174822Y-74565609D01*
X87174822Y-74765609D01*
X87146250Y-74879895D01*
X87089107Y-74937038D01*
X87031965Y-74965609D01*
X86917679Y-74965609D01*
X86860536Y-74937038D01*
X86803393Y-74879895D01*
X86774822Y-74765609D01*
X86774822Y-74565609D01*
X86803393Y-74451323D01*
X86860536Y-74394181D01*
X86917679Y-74365609D01*
X87717679Y-74965609D02*
X87431965Y-74965609D01*
X87431965Y-74365609D01*
X87889107Y-74422752D02*
X87917679Y-74394181D01*
X87974822Y-74365609D01*
X88117679Y-74365609D01*
X88174822Y-74394181D01*
X88203393Y-74422752D01*
X88231965Y-74479895D01*
X88231965Y-74537038D01*
X88203393Y-74622752D01*
X87860536Y-74965609D01*
X88231965Y-74965609D01*
X88489107Y-74737038D02*
X88946250Y-74737038D01*
X89231965Y-74737038D02*
X89689107Y-74737038D01*
D13*
X201931107Y-50728609D02*
X202039964Y-50764895D01*
X202221393Y-50764895D01*
X202293964Y-50728609D01*
X202330250Y-50692323D01*
X202366535Y-50619752D01*
X202366535Y-50547181D01*
X202330250Y-50474609D01*
X202293964Y-50438323D01*
X202221393Y-50402038D01*
X202076250Y-50365752D01*
X202003678Y-50329466D01*
X201967393Y-50293181D01*
X201931107Y-50220609D01*
X201931107Y-50148038D01*
X201967393Y-50075466D01*
X202003678Y-50039181D01*
X202076250Y-50002895D01*
X202257678Y-50002895D01*
X202366535Y-50039181D01*
X202693107Y-50764895D02*
X202693107Y-50002895D01*
X202874535Y-50002895D01*
X202983393Y-50039181D01*
X203055964Y-50111752D01*
X203092250Y-50184323D01*
X203128535Y-50329466D01*
X203128535Y-50438323D01*
X203092250Y-50583466D01*
X203055964Y-50656038D01*
X202983393Y-50728609D01*
X202874535Y-50764895D01*
X202693107Y-50764895D01*
X203418821Y-50547181D02*
X203781678Y-50547181D01*
X203346250Y-50764895D02*
X203600250Y-50002895D01*
X203854250Y-50764895D01*
X96891964Y-99568895D02*
X97145964Y-100330895D01*
X97399964Y-99568895D01*
X98089392Y-100258323D02*
X98053106Y-100294609D01*
X97944249Y-100330895D01*
X97871678Y-100330895D01*
X97762821Y-100294609D01*
X97690249Y-100222038D01*
X97653964Y-100149466D01*
X97617678Y-100004323D01*
X97617678Y-99895466D01*
X97653964Y-99750323D01*
X97690249Y-99677752D01*
X97762821Y-99605181D01*
X97871678Y-99568895D01*
X97944249Y-99568895D01*
X98053106Y-99605181D01*
X98089392Y-99641466D01*
X98851392Y-100258323D02*
X98815106Y-100294609D01*
X98706249Y-100330895D01*
X98633678Y-100330895D01*
X98524821Y-100294609D01*
X98452249Y-100222038D01*
X98415964Y-100149466D01*
X98379678Y-100004323D01*
X98379678Y-99895466D01*
X98415964Y-99750323D01*
X98452249Y-99677752D01*
X98524821Y-99605181D01*
X98633678Y-99568895D01*
X98706249Y-99568895D01*
X98815106Y-99605181D01*
X98851392Y-99641466D01*
X94511481Y-100294609D02*
X94620338Y-100330895D01*
X94801766Y-100330895D01*
X94874338Y-100294609D01*
X94910624Y-100258323D01*
X94946909Y-100185752D01*
X94946909Y-100113181D01*
X94910624Y-100040609D01*
X94874338Y-100004323D01*
X94801766Y-99968038D01*
X94656624Y-99931752D01*
X94584052Y-99895466D01*
X94547766Y-99859181D01*
X94511481Y-99786609D01*
X94511481Y-99714038D01*
X94547766Y-99641466D01*
X94584052Y-99605181D01*
X94656624Y-99568895D01*
X94838052Y-99568895D01*
X94946909Y-99605181D01*
X95708909Y-100258323D02*
X95672624Y-100294609D01*
X95563766Y-100330895D01*
X95491195Y-100330895D01*
X95382338Y-100294609D01*
X95309766Y-100222038D01*
X95273481Y-100149466D01*
X95237195Y-100004323D01*
X95237195Y-99895466D01*
X95273481Y-99750323D01*
X95309766Y-99677752D01*
X95382338Y-99605181D01*
X95491195Y-99568895D01*
X95563766Y-99568895D01*
X95672624Y-99605181D01*
X95708909Y-99641466D01*
X96398338Y-100330895D02*
X96035481Y-100330895D01*
X96035481Y-99568895D01*
X139906822Y-112557609D02*
X140015679Y-112593895D01*
X140197107Y-112593895D01*
X140269679Y-112557609D01*
X140305965Y-112521323D01*
X140342250Y-112448752D01*
X140342250Y-112376181D01*
X140305965Y-112303609D01*
X140269679Y-112267323D01*
X140197107Y-112231038D01*
X140051965Y-112194752D01*
X139979393Y-112158466D01*
X139943107Y-112122181D01*
X139906822Y-112049609D01*
X139906822Y-111977038D01*
X139943107Y-111904466D01*
X139979393Y-111868181D01*
X140051965Y-111831895D01*
X140233393Y-111831895D01*
X140342250Y-111868181D01*
X141104250Y-112521323D02*
X141067965Y-112557609D01*
X140959107Y-112593895D01*
X140886536Y-112593895D01*
X140777679Y-112557609D01*
X140705107Y-112485038D01*
X140668822Y-112412466D01*
X140632536Y-112267323D01*
X140632536Y-112158466D01*
X140668822Y-112013323D01*
X140705107Y-111940752D01*
X140777679Y-111868181D01*
X140886536Y-111831895D01*
X140959107Y-111831895D01*
X141067965Y-111868181D01*
X141104250Y-111904466D01*
X141793679Y-112593895D02*
X141430822Y-112593895D01*
X141430822Y-111831895D01*
D14*
X85917679Y-54331322D02*
X86003393Y-54359894D01*
X86031965Y-54388465D01*
X86060536Y-54445608D01*
X86060536Y-54531322D01*
X86031965Y-54588465D01*
X86003393Y-54617037D01*
X85946250Y-54645608D01*
X85717679Y-54645608D01*
X85717679Y-54045608D01*
X85917679Y-54045608D01*
X85974822Y-54074180D01*
X86003393Y-54102751D01*
X86031965Y-54159894D01*
X86031965Y-54217037D01*
X86003393Y-54274180D01*
X85974822Y-54302751D01*
X85917679Y-54331322D01*
X85717679Y-54331322D01*
X86289107Y-54474180D02*
X86574822Y-54474180D01*
X86231965Y-54645608D02*
X86431965Y-54045608D01*
X86631965Y-54645608D01*
X86746250Y-54045608D02*
X87089107Y-54045608D01*
X86917679Y-54645608D02*
X86917679Y-54045608D01*
X87203393Y-54045608D02*
X87546250Y-54045608D01*
X87374822Y-54645608D02*
X87374822Y-54045608D01*
X87746250Y-54417037D02*
X88203393Y-54417037D01*
X87974822Y-54645608D02*
X87974822Y-54188465D01*
X88489107Y-54417037D02*
X88946250Y-54417037D01*
X89231965Y-54417037D02*
X89689107Y-54417037D01*
D13*
X92028679Y-100278609D02*
X92137536Y-100314895D01*
X92318965Y-100314895D01*
X92391536Y-100278609D01*
X92427822Y-100242323D01*
X92464107Y-100169752D01*
X92464107Y-100097181D01*
X92427822Y-100024609D01*
X92391536Y-99988323D01*
X92318965Y-99952038D01*
X92173822Y-99915752D01*
X92101250Y-99879466D01*
X92064965Y-99843181D01*
X92028679Y-99770609D01*
X92028679Y-99698038D01*
X92064965Y-99625466D01*
X92101250Y-99589181D01*
X92173822Y-99552895D01*
X92355250Y-99552895D01*
X92464107Y-99589181D01*
X92790679Y-100314895D02*
X92790679Y-99552895D01*
X92972107Y-99552895D01*
X93080965Y-99589181D01*
X93153536Y-99661752D01*
X93189822Y-99734323D01*
X93226107Y-99879466D01*
X93226107Y-99988323D01*
X93189822Y-100133466D01*
X93153536Y-100206038D01*
X93080965Y-100278609D01*
X92972107Y-100314895D01*
X92790679Y-100314895D01*
X93516393Y-100097181D02*
X93879250Y-100097181D01*
X93443822Y-100314895D02*
X93697822Y-99552895D01*
X93951822Y-100314895D01*
D14*
X106404822Y-64567038D02*
X106861965Y-64567038D01*
X107147679Y-64567038D02*
X107604822Y-64567038D01*
X107861965Y-64767038D02*
X107947679Y-64795609D01*
X108090536Y-64795609D01*
X108147679Y-64767038D01*
X108176250Y-64738466D01*
X108204822Y-64681323D01*
X108204822Y-64624181D01*
X108176250Y-64567038D01*
X108147679Y-64538466D01*
X108090536Y-64509895D01*
X107976250Y-64481323D01*
X107919107Y-64452752D01*
X107890536Y-64424181D01*
X107861965Y-64367038D01*
X107861965Y-64309895D01*
X107890536Y-64252752D01*
X107919107Y-64224181D01*
X107976250Y-64195609D01*
X108119107Y-64195609D01*
X108204822Y-64224181D01*
X108461965Y-64795609D02*
X108461965Y-64195609D01*
X108604822Y-64195609D01*
X108690536Y-64224181D01*
X108747679Y-64281323D01*
X108776250Y-64338466D01*
X108804822Y-64452752D01*
X108804822Y-64538466D01*
X108776250Y-64652752D01*
X108747679Y-64709895D01*
X108690536Y-64767038D01*
X108604822Y-64795609D01*
X108461965Y-64795609D01*
X109033393Y-64624181D02*
X109319107Y-64624181D01*
X108976250Y-64795609D02*
X109176250Y-64195609D01*
X109376250Y-64795609D01*
X106404822Y-79807038D02*
X106861965Y-79807038D01*
X107147679Y-79807038D02*
X107604822Y-79807038D01*
X108233393Y-80035609D02*
X108033393Y-79749895D01*
X107890536Y-80035609D02*
X107890536Y-79435609D01*
X108119107Y-79435609D01*
X108176250Y-79464181D01*
X108204822Y-79492752D01*
X108233393Y-79549895D01*
X108233393Y-79635609D01*
X108204822Y-79692752D01*
X108176250Y-79721323D01*
X108119107Y-79749895D01*
X107890536Y-79749895D01*
X108604822Y-79435609D02*
X108719107Y-79435609D01*
X108776250Y-79464181D01*
X108833393Y-79521323D01*
X108861965Y-79635609D01*
X108861965Y-79835609D01*
X108833393Y-79949895D01*
X108776250Y-80007038D01*
X108719107Y-80035609D01*
X108604822Y-80035609D01*
X108547679Y-80007038D01*
X108490536Y-79949895D01*
X108461965Y-79835609D01*
X108461965Y-79635609D01*
X108490536Y-79521323D01*
X108547679Y-79464181D01*
X108604822Y-79435609D01*
X109061965Y-79435609D02*
X109204822Y-80035609D01*
X109319107Y-79607038D01*
X109433393Y-80035609D01*
X109576250Y-79435609D01*
X109747679Y-79435609D02*
X110119107Y-79435609D01*
X109919107Y-79664181D01*
X110004822Y-79664181D01*
X110061965Y-79692752D01*
X110090536Y-79721323D01*
X110119107Y-79778466D01*
X110119107Y-79921323D01*
X110090536Y-79978466D01*
X110061965Y-80007038D01*
X110004822Y-80035609D01*
X109833393Y-80035609D01*
X109776250Y-80007038D01*
X109747679Y-79978466D01*
X86541250Y-72368465D02*
X86512679Y-72397037D01*
X86426965Y-72425608D01*
X86369822Y-72425608D01*
X86284107Y-72397037D01*
X86226965Y-72339894D01*
X86198393Y-72282751D01*
X86169822Y-72168465D01*
X86169822Y-72082751D01*
X86198393Y-71968465D01*
X86226965Y-71911322D01*
X86284107Y-71854180D01*
X86369822Y-71825608D01*
X86426965Y-71825608D01*
X86512679Y-71854180D01*
X86541250Y-71882751D01*
X86912679Y-71825608D02*
X87026965Y-71825608D01*
X87084107Y-71854180D01*
X87141250Y-71911322D01*
X87169822Y-72025608D01*
X87169822Y-72225608D01*
X87141250Y-72339894D01*
X87084107Y-72397037D01*
X87026965Y-72425608D01*
X86912679Y-72425608D01*
X86855536Y-72397037D01*
X86798393Y-72339894D01*
X86769822Y-72225608D01*
X86769822Y-72025608D01*
X86798393Y-71911322D01*
X86855536Y-71854180D01*
X86912679Y-71825608D01*
X87712679Y-72425608D02*
X87426965Y-72425608D01*
X87426965Y-71825608D01*
X88226965Y-72425608D02*
X87884107Y-72425608D01*
X88055536Y-72425608D02*
X88055536Y-71825608D01*
X87998393Y-71911322D01*
X87941250Y-71968465D01*
X87884107Y-71997037D01*
X88484107Y-72197037D02*
X88941250Y-72197037D01*
X89226965Y-72197037D02*
X89684107Y-72197037D01*
X106404822Y-62027039D02*
X106861965Y-62027039D01*
X107147679Y-62027039D02*
X107604822Y-62027039D01*
X108204822Y-61684182D02*
X108147679Y-61655610D01*
X108061965Y-61655610D01*
X107976250Y-61684182D01*
X107919107Y-61741324D01*
X107890536Y-61798467D01*
X107861965Y-61912753D01*
X107861965Y-61998467D01*
X107890536Y-62112753D01*
X107919107Y-62169896D01*
X107976250Y-62227039D01*
X108061965Y-62255610D01*
X108119107Y-62255610D01*
X108204822Y-62227039D01*
X108233393Y-62198467D01*
X108233393Y-61998467D01*
X108119107Y-61998467D01*
X108490536Y-62255610D02*
X108490536Y-61655610D01*
X108833393Y-62255610D01*
X108833393Y-61655610D01*
X109119107Y-62255610D02*
X109119107Y-61655610D01*
X109261965Y-61655610D01*
X109347679Y-61684182D01*
X109404822Y-61741324D01*
X109433393Y-61798467D01*
X109461965Y-61912753D01*
X109461965Y-61998467D01*
X109433393Y-62112753D01*
X109404822Y-62169896D01*
X109347679Y-62227039D01*
X109261965Y-62255610D01*
X109119107Y-62255610D01*
X106404821Y-67107037D02*
X106861964Y-67107037D01*
X107147678Y-67107037D02*
X107604821Y-67107037D01*
X107861964Y-67307037D02*
X107947678Y-67335608D01*
X108090535Y-67335608D01*
X108147678Y-67307037D01*
X108176249Y-67278465D01*
X108204821Y-67221322D01*
X108204821Y-67164180D01*
X108176249Y-67107037D01*
X108147678Y-67078465D01*
X108090535Y-67049894D01*
X107976249Y-67021322D01*
X107919106Y-66992751D01*
X107890535Y-66964180D01*
X107861964Y-66907037D01*
X107861964Y-66849894D01*
X107890535Y-66792751D01*
X107919106Y-66764180D01*
X107976249Y-66735608D01*
X108119106Y-66735608D01*
X108204821Y-66764180D01*
X108804821Y-67278465D02*
X108776249Y-67307037D01*
X108690535Y-67335608D01*
X108633392Y-67335608D01*
X108547678Y-67307037D01*
X108490535Y-67249894D01*
X108461964Y-67192751D01*
X108433392Y-67078465D01*
X108433392Y-66992751D01*
X108461964Y-66878465D01*
X108490535Y-66821322D01*
X108547678Y-66764180D01*
X108633392Y-66735608D01*
X108690535Y-66735608D01*
X108776249Y-66764180D01*
X108804821Y-66792751D01*
X109347678Y-67335608D02*
X109061964Y-67335608D01*
X109061964Y-66735608D01*
D10*
X78793105Y-144748629D02*
X78927792Y-144681285D01*
X79096151Y-144512927D01*
X79129822Y-144411911D01*
X79129822Y-144344568D01*
X79096151Y-144243553D01*
X79028807Y-144176209D01*
X78927792Y-144142537D01*
X78860448Y-144142537D01*
X78759433Y-144176209D01*
X78591074Y-144277224D01*
X78490059Y-144310896D01*
X78422716Y-144310896D01*
X78321700Y-144277224D01*
X78254357Y-144209881D01*
X78220685Y-144108866D01*
X78220685Y-144041522D01*
X78254357Y-143940507D01*
X78422716Y-143772148D01*
X78557403Y-143704805D01*
X78759433Y-143435431D02*
X79634899Y-143974179D01*
X79264509Y-143334415D01*
X79904273Y-143704805D01*
X79365525Y-142829339D01*
X80712395Y-142896683D02*
X80308334Y-143300744D01*
X80510364Y-143098713D02*
X79803257Y-142391606D01*
X79836929Y-142559965D01*
X79836929Y-142694652D01*
X79803257Y-142795667D01*
X81049112Y-142559965D02*
X81183799Y-142425278D01*
X81217471Y-142324263D01*
X81217471Y-142256919D01*
X81183799Y-142088561D01*
X81082784Y-141920202D01*
X80813410Y-141650828D01*
X80712395Y-141617156D01*
X80645051Y-141617156D01*
X80544036Y-141650828D01*
X80409349Y-141785515D01*
X80375677Y-141886530D01*
X80375677Y-141953874D01*
X80409349Y-142054889D01*
X80577708Y-142223248D01*
X80678723Y-142256919D01*
X80746066Y-142256919D01*
X80847082Y-142223248D01*
X80981769Y-142088561D01*
X81015440Y-141987545D01*
X81015440Y-141920202D01*
X80981769Y-141819187D01*
X141655839Y-116972799D02*
X141798696Y-117020418D01*
X142036791Y-117020418D01*
X142132029Y-116972799D01*
X142179648Y-116925180D01*
X142227267Y-116829942D01*
X142227267Y-116734704D01*
X142179648Y-116639466D01*
X142132029Y-116591847D01*
X142036791Y-116544228D01*
X141846315Y-116496609D01*
X141751077Y-116448990D01*
X141703458Y-116401371D01*
X141655839Y-116306133D01*
X141655839Y-116210895D01*
X141703458Y-116115657D01*
X141751077Y-116068038D01*
X141846315Y-116020418D01*
X142084410Y-116020418D01*
X142227267Y-116068038D01*
X142560601Y-116020418D02*
X142798696Y-117020418D01*
X142989172Y-116306133D01*
X143179648Y-117020418D01*
X143417743Y-116020418D01*
X143751077Y-116115657D02*
X143798696Y-116068038D01*
X143893934Y-116020418D01*
X144132029Y-116020418D01*
X144227267Y-116068038D01*
X144274886Y-116115657D01*
X144322505Y-116210895D01*
X144322505Y-116306133D01*
X144274886Y-116448990D01*
X143703458Y-117020418D01*
X144322505Y-117020418D01*
X144703458Y-116115657D02*
X144751077Y-116068038D01*
X144846315Y-116020418D01*
X145084410Y-116020418D01*
X145179648Y-116068038D01*
X145227267Y-116115657D01*
X145274886Y-116210895D01*
X145274886Y-116306133D01*
X145227267Y-116448990D01*
X144655839Y-117020418D01*
X145274886Y-117020418D01*
X180571357Y-58235510D02*
X180710545Y-58292978D01*
X180948060Y-58309587D01*
X181046388Y-58268727D01*
X181097213Y-58224546D01*
X181151359Y-58132861D01*
X181158003Y-58037855D01*
X181117143Y-57939528D01*
X181072962Y-57888703D01*
X180981277Y-57834556D01*
X180794587Y-57773766D01*
X180702903Y-57719620D01*
X180658721Y-57668795D01*
X180617862Y-57570467D01*
X180624505Y-57475461D01*
X180678652Y-57383777D01*
X180729476Y-57339595D01*
X180827804Y-57298736D01*
X181065320Y-57315344D01*
X181204507Y-57372813D01*
X181540350Y-57348562D02*
X181708109Y-58362735D01*
X181947947Y-57663476D01*
X182088133Y-58389308D01*
X182395405Y-57408353D01*
X183179705Y-57797344D02*
X183133200Y-58462387D01*
X182968763Y-57400711D02*
X182681422Y-58096648D01*
X183298962Y-58139830D01*
X118504643Y-120572179D02*
X118654957Y-120581201D01*
X118884939Y-120519577D01*
X118964607Y-120448932D01*
X118998279Y-120390610D01*
X119019626Y-120286293D01*
X118994977Y-120194300D01*
X118924331Y-120114632D01*
X118866010Y-120080960D01*
X118761692Y-120059613D01*
X118565382Y-120062915D01*
X118461064Y-120041568D01*
X118402743Y-120007896D01*
X118332097Y-119928228D01*
X118307447Y-119836235D01*
X118328794Y-119731918D01*
X118362466Y-119673596D01*
X118442134Y-119602950D01*
X118672117Y-119541327D01*
X118822431Y-119550349D01*
X119132081Y-119418080D02*
X119620883Y-120322382D01*
X119619998Y-119583136D01*
X119988854Y-120223784D01*
X119960018Y-119196235D01*
X120306643Y-119201955D02*
X120340314Y-119143634D01*
X120419982Y-119072988D01*
X120649965Y-119011364D01*
X120754282Y-119032711D01*
X120812604Y-119066383D01*
X120883250Y-119146051D01*
X120907899Y-119238044D01*
X120898877Y-119388358D01*
X120494816Y-120088212D01*
X121092770Y-119927991D01*
X122012699Y-119681497D02*
X121460741Y-119829393D01*
X121736720Y-119755445D02*
X121477901Y-118789519D01*
X121422882Y-118952158D01*
X121355539Y-119068800D01*
X121275871Y-119139446D01*
X158232029Y-66950202D02*
X158374886Y-66997821D01*
X158612982Y-66997821D01*
X158708220Y-66950202D01*
X158755839Y-66902583D01*
X158803458Y-66807345D01*
X158803458Y-66712107D01*
X158755839Y-66616869D01*
X158708220Y-66569250D01*
X158612982Y-66521631D01*
X158422505Y-66474012D01*
X158327267Y-66426393D01*
X158279648Y-66378774D01*
X158232029Y-66283536D01*
X158232029Y-66188298D01*
X158279648Y-66093060D01*
X158327267Y-66045441D01*
X158422505Y-65997821D01*
X158660601Y-65997821D01*
X158803458Y-66045441D01*
X159136791Y-65997821D02*
X159374886Y-66997821D01*
X159565363Y-66283536D01*
X159755839Y-66997821D01*
X159993934Y-65997821D01*
X160517743Y-66426393D02*
X160422505Y-66378774D01*
X160374886Y-66331155D01*
X160327267Y-66235917D01*
X160327267Y-66188298D01*
X160374886Y-66093060D01*
X160422505Y-66045441D01*
X160517743Y-65997821D01*
X160708220Y-65997821D01*
X160803458Y-66045441D01*
X160851077Y-66093060D01*
X160898696Y-66188298D01*
X160898696Y-66235917D01*
X160851077Y-66331155D01*
X160803458Y-66378774D01*
X160708220Y-66426393D01*
X160517743Y-66426393D01*
X160422505Y-66474012D01*
X160374886Y-66521631D01*
X160327267Y-66616869D01*
X160327267Y-66807345D01*
X160374886Y-66902583D01*
X160422505Y-66950202D01*
X160517743Y-66997821D01*
X160708220Y-66997821D01*
X160803458Y-66950202D01*
X160851077Y-66902583D01*
X160898696Y-66807345D01*
X160898696Y-66616869D01*
X160851077Y-66521631D01*
X160803458Y-66474012D01*
X160708220Y-66426393D01*
X219070436Y-89787897D02*
X219202854Y-89859599D01*
X219437332Y-89900944D01*
X219539392Y-89870586D01*
X219594557Y-89831960D01*
X219657990Y-89746437D01*
X219674528Y-89652646D01*
X219644171Y-89550586D01*
X219605544Y-89495421D01*
X219520022Y-89431988D01*
X219340708Y-89352016D01*
X219255186Y-89288583D01*
X219216559Y-89233418D01*
X219186202Y-89131358D01*
X219202740Y-89037567D01*
X219266173Y-88952045D01*
X219321338Y-88913418D01*
X219423398Y-88883060D01*
X219657876Y-88924405D01*
X219790294Y-88996108D01*
X220126832Y-89007095D02*
X220187662Y-90033247D01*
X220499279Y-89362889D01*
X220562827Y-90099399D01*
X220970953Y-89155936D01*
X221688321Y-90297854D02*
X221125574Y-90198627D01*
X221406948Y-90248240D02*
X221580596Y-89263433D01*
X221461998Y-89387581D01*
X221351669Y-89464835D01*
X221249608Y-89495192D01*
X222626233Y-90463233D02*
X222063486Y-90364006D01*
X222344860Y-90413620D02*
X222518508Y-89428812D01*
X222399910Y-89552961D01*
X222289581Y-89630214D01*
X222187521Y-89660572D01*
X177435454Y-96254565D02*
X177574641Y-96312034D01*
X177812156Y-96328642D01*
X177910484Y-96287783D01*
X177961309Y-96243601D01*
X178015456Y-96151917D01*
X178022099Y-96056911D01*
X177981240Y-95958583D01*
X177937058Y-95907758D01*
X177845374Y-95853612D01*
X177658683Y-95792822D01*
X177566999Y-95738675D01*
X177522818Y-95687851D01*
X177481958Y-95589523D01*
X177488602Y-95494517D01*
X177542748Y-95402832D01*
X177593573Y-95358651D01*
X177691901Y-95317791D01*
X177929416Y-95334400D01*
X178068603Y-95391868D01*
X178404447Y-95367617D02*
X178572205Y-96381790D01*
X178812044Y-95682531D01*
X178952230Y-96408364D01*
X179259501Y-95427409D01*
X180092303Y-96488086D02*
X179522266Y-96448225D01*
X179807285Y-96468155D02*
X179877041Y-95470591D01*
X179772070Y-95606457D01*
X179670420Y-95694820D01*
X179572092Y-95735679D01*
X181064617Y-95553635D02*
X180589587Y-95520417D01*
X180508866Y-95992126D01*
X180559691Y-95947945D01*
X180658019Y-95907085D01*
X180895534Y-95923694D01*
X180987219Y-95977840D01*
X181031400Y-96028665D01*
X181072260Y-96126993D01*
X181055651Y-96364508D01*
X181001504Y-96456193D01*
X180950680Y-96500374D01*
X180852352Y-96541234D01*
X180614836Y-96524625D01*
X180523152Y-96470478D01*
X180478971Y-96419654D01*
X120188599Y-78950202D02*
X120331456Y-78997821D01*
X120569552Y-78997821D01*
X120664790Y-78950202D01*
X120712409Y-78902583D01*
X120760028Y-78807345D01*
X120760028Y-78712107D01*
X120712409Y-78616869D01*
X120664790Y-78569250D01*
X120569552Y-78521631D01*
X120379075Y-78474012D01*
X120283837Y-78426393D01*
X120236218Y-78378774D01*
X120188599Y-78283536D01*
X120188599Y-78188298D01*
X120236218Y-78093060D01*
X120283837Y-78045441D01*
X120379075Y-77997821D01*
X120617171Y-77997821D01*
X120760028Y-78045441D01*
X121093361Y-77997821D02*
X121331456Y-78997821D01*
X121521933Y-78283536D01*
X121712409Y-78997821D01*
X121950504Y-77997821D01*
X122760028Y-77997821D02*
X122569552Y-77997821D01*
X122474313Y-78045441D01*
X122426694Y-78093060D01*
X122331456Y-78235917D01*
X122283837Y-78426393D01*
X122283837Y-78807345D01*
X122331456Y-78902583D01*
X122379075Y-78950202D01*
X122474313Y-78997821D01*
X122664790Y-78997821D01*
X122760028Y-78950202D01*
X122807647Y-78902583D01*
X122855266Y-78807345D01*
X122855266Y-78569250D01*
X122807647Y-78474012D01*
X122760028Y-78426393D01*
X122664790Y-78378774D01*
X122474313Y-78378774D01*
X122379075Y-78426393D01*
X122331456Y-78474012D01*
X122283837Y-78569250D01*
X90659441Y-119385084D02*
X91116584Y-119385084D01*
X90888012Y-120185084D02*
X90888012Y-119385084D01*
X91840393Y-120185084D02*
X91573726Y-119804132D01*
X91383250Y-120185084D02*
X91383250Y-119385084D01*
X91688012Y-119385084D01*
X91764203Y-119423180D01*
X91802298Y-119461275D01*
X91840393Y-119537465D01*
X91840393Y-119651751D01*
X91802298Y-119727941D01*
X91764203Y-119766037D01*
X91688012Y-119804132D01*
X91383250Y-119804132D01*
X92640393Y-120185084D02*
X92373726Y-119804132D01*
X92183250Y-120185084D02*
X92183250Y-119385084D01*
X92488012Y-119385084D01*
X92564203Y-119423180D01*
X92602298Y-119461275D01*
X92640393Y-119537465D01*
X92640393Y-119651751D01*
X92602298Y-119727941D01*
X92564203Y-119766037D01*
X92488012Y-119804132D01*
X92183250Y-119804132D01*
X92945155Y-120146989D02*
X93059441Y-120185084D01*
X93249917Y-120185084D01*
X93326107Y-120146989D01*
X93364203Y-120108894D01*
X93402298Y-120032703D01*
X93402298Y-119956513D01*
X93364203Y-119880322D01*
X93326107Y-119842227D01*
X93249917Y-119804132D01*
X93097536Y-119766037D01*
X93021345Y-119727941D01*
X92983250Y-119689846D01*
X92945155Y-119613656D01*
X92945155Y-119537465D01*
X92983250Y-119461275D01*
X93021345Y-119423180D01*
X93097536Y-119385084D01*
X93288012Y-119385084D01*
X93402298Y-119423180D01*
X215758515Y-108570738D02*
X215890933Y-108642440D01*
X216125411Y-108683785D01*
X216227471Y-108653427D01*
X216282636Y-108614801D01*
X216346069Y-108529278D01*
X216362607Y-108435487D01*
X216332250Y-108333427D01*
X216293623Y-108278262D01*
X216208101Y-108214829D01*
X216028787Y-108134857D01*
X215943265Y-108071424D01*
X215904638Y-108016259D01*
X215874281Y-107914199D01*
X215890819Y-107820408D01*
X215954252Y-107734886D01*
X216009417Y-107696259D01*
X216111477Y-107665901D01*
X216345955Y-107707246D01*
X216478373Y-107778949D01*
X216814911Y-107789936D02*
X216875741Y-108816088D01*
X217187358Y-108145730D01*
X217250906Y-108882240D01*
X217659032Y-107938777D01*
X218376400Y-109080695D02*
X217813653Y-108981468D01*
X218095027Y-109031081D02*
X218268675Y-108046274D01*
X218150077Y-108170422D01*
X218039748Y-108247676D01*
X217937687Y-108278033D01*
X218878318Y-108153770D02*
X219534856Y-108269535D01*
X218939148Y-109179923D01*
X119712410Y-98022799D02*
X119855267Y-98070418D01*
X120093362Y-98070418D01*
X120188600Y-98022799D01*
X120236219Y-97975180D01*
X120283838Y-97879942D01*
X120283838Y-97784704D01*
X120236219Y-97689466D01*
X120188600Y-97641847D01*
X120093362Y-97594228D01*
X119902886Y-97546609D01*
X119807648Y-97498990D01*
X119760029Y-97451371D01*
X119712410Y-97356133D01*
X119712410Y-97260895D01*
X119760029Y-97165657D01*
X119807648Y-97118038D01*
X119902886Y-97070418D01*
X120140981Y-97070418D01*
X120283838Y-97118038D01*
X120617172Y-97070418D02*
X120855267Y-98070418D01*
X121045743Y-97356133D01*
X121236219Y-98070418D01*
X121474314Y-97070418D01*
X122379076Y-98070418D02*
X121807648Y-98070418D01*
X122093362Y-98070418D02*
X122093362Y-97070418D01*
X121998124Y-97213276D01*
X121902886Y-97308514D01*
X121807648Y-97356133D01*
X122760029Y-97165657D02*
X122807648Y-97118038D01*
X122902886Y-97070418D01*
X123140981Y-97070418D01*
X123236219Y-97118038D01*
X123283838Y-97165657D01*
X123331457Y-97260895D01*
X123331457Y-97356133D01*
X123283838Y-97498990D01*
X122712410Y-98070418D01*
X123331457Y-98070418D01*
X120188600Y-59877605D02*
X120331457Y-59925224D01*
X120569553Y-59925224D01*
X120664791Y-59877605D01*
X120712410Y-59829986D01*
X120760029Y-59734748D01*
X120760029Y-59639510D01*
X120712410Y-59544272D01*
X120664791Y-59496653D01*
X120569553Y-59449034D01*
X120379076Y-59401415D01*
X120283838Y-59353796D01*
X120236219Y-59306177D01*
X120188600Y-59210939D01*
X120188600Y-59115701D01*
X120236219Y-59020463D01*
X120283838Y-58972844D01*
X120379076Y-58925224D01*
X120617172Y-58925224D01*
X120760029Y-58972844D01*
X121093362Y-58925224D02*
X121331457Y-59925224D01*
X121521934Y-59210939D01*
X121712410Y-59925224D01*
X121950505Y-58925224D01*
X122855267Y-59925224D02*
X122283838Y-59925224D01*
X122569553Y-59925224D02*
X122569553Y-58925224D01*
X122474314Y-59068082D01*
X122379076Y-59163320D01*
X122283838Y-59210939D01*
X179240921Y-77261645D02*
X179380109Y-77319113D01*
X179617624Y-77335722D01*
X179715952Y-77294862D01*
X179766777Y-77250681D01*
X179820923Y-77158996D01*
X179827567Y-77063990D01*
X179786707Y-76965663D01*
X179742526Y-76914838D01*
X179650841Y-76860691D01*
X179464151Y-76799901D01*
X179372467Y-76745755D01*
X179328285Y-76694930D01*
X179287426Y-76596602D01*
X179294069Y-76501596D01*
X179348216Y-76409912D01*
X179399040Y-76365730D01*
X179497368Y-76324871D01*
X179734884Y-76341479D01*
X179874071Y-76398948D01*
X180209914Y-76374697D02*
X180377673Y-77388870D01*
X180617511Y-76689611D01*
X180757697Y-77415443D01*
X181064969Y-76434488D01*
X181422740Y-77461948D02*
X181612752Y-77475235D01*
X181711080Y-77434375D01*
X181761905Y-77390194D01*
X181866876Y-77254328D01*
X181927666Y-77067638D01*
X181954240Y-76687613D01*
X181913380Y-76589285D01*
X181869199Y-76538461D01*
X181777515Y-76484314D01*
X181587502Y-76471027D01*
X181489175Y-76511887D01*
X181438350Y-76556068D01*
X181384203Y-76647752D01*
X181367595Y-76885268D01*
X181408454Y-76983596D01*
X181452636Y-77034420D01*
X181544320Y-77088567D01*
X181734332Y-77101854D01*
X181832660Y-77060994D01*
X181883485Y-77016813D01*
X181937631Y-76925129D01*
X158232029Y-47877606D02*
X158374886Y-47925225D01*
X158612982Y-47925225D01*
X158708220Y-47877606D01*
X158755839Y-47829987D01*
X158803458Y-47734749D01*
X158803458Y-47639511D01*
X158755839Y-47544273D01*
X158708220Y-47496654D01*
X158612982Y-47449035D01*
X158422505Y-47401416D01*
X158327267Y-47353797D01*
X158279648Y-47306178D01*
X158232029Y-47210940D01*
X158232029Y-47115702D01*
X158279648Y-47020464D01*
X158327267Y-46972845D01*
X158422505Y-46925225D01*
X158660601Y-46925225D01*
X158803458Y-46972845D01*
X159136791Y-46925225D02*
X159374886Y-47925225D01*
X159565363Y-47210940D01*
X159755839Y-47925225D01*
X159993934Y-46925225D01*
X160279648Y-46925225D02*
X160898696Y-46925225D01*
X160565363Y-47306178D01*
X160708220Y-47306178D01*
X160803458Y-47353797D01*
X160851077Y-47401416D01*
X160898696Y-47496654D01*
X160898696Y-47734749D01*
X160851077Y-47829987D01*
X160803458Y-47877606D01*
X160708220Y-47925225D01*
X160422505Y-47925225D01*
X160327267Y-47877606D01*
X160279648Y-47829987D01*
X97073009Y-130045996D02*
X97220536Y-130015807D01*
X97426733Y-129896760D01*
X97485402Y-129807901D01*
X97502832Y-129742852D01*
X97496452Y-129636564D01*
X97448833Y-129554086D01*
X97359975Y-129495417D01*
X97294926Y-129477987D01*
X97188638Y-129484367D01*
X96999871Y-129538365D01*
X96893583Y-129544745D01*
X96828534Y-129527315D01*
X96739676Y-129468646D01*
X96692056Y-129386168D01*
X96685677Y-129279879D01*
X96703107Y-129214831D01*
X96761776Y-129125972D01*
X96967972Y-129006925D01*
X97115500Y-128976735D01*
X97380365Y-128768829D02*
X98086562Y-129515807D01*
X97894376Y-128801980D01*
X98416476Y-129325331D01*
X98122673Y-128340258D01*
X98458967Y-128256070D02*
X98476397Y-128191021D01*
X98535066Y-128102163D01*
X98741262Y-127983115D01*
X98847550Y-127976735D01*
X98912599Y-127994165D01*
X99001458Y-128052834D01*
X99049077Y-128135313D01*
X99079266Y-128282840D01*
X98870109Y-129063426D01*
X99406219Y-128753902D01*
X99442330Y-127578353D02*
X99524809Y-127530734D01*
X99631097Y-127524354D01*
X99696146Y-127541784D01*
X99785004Y-127600453D01*
X99921482Y-127741601D01*
X100040529Y-127947798D01*
X100094528Y-128136564D01*
X100100908Y-128242852D01*
X100083478Y-128307901D01*
X100024809Y-128396760D01*
X99942330Y-128444379D01*
X99836042Y-128450758D01*
X99770993Y-128433329D01*
X99682135Y-128374660D01*
X99545658Y-128233512D01*
X99426610Y-128027315D01*
X99372611Y-127838549D01*
X99366232Y-127732260D01*
X99383661Y-127667212D01*
X99442330Y-127578353D01*
X196156277Y-110191469D02*
X196288695Y-110263171D01*
X196523173Y-110304516D01*
X196625233Y-110274158D01*
X196680398Y-110235532D01*
X196743831Y-110150009D01*
X196760369Y-110056218D01*
X196730012Y-109954158D01*
X196691385Y-109898993D01*
X196605863Y-109835560D01*
X196426549Y-109755588D01*
X196341027Y-109692155D01*
X196302400Y-109636990D01*
X196272043Y-109534930D01*
X196288581Y-109441139D01*
X196352014Y-109355617D01*
X196407179Y-109316990D01*
X196509239Y-109286632D01*
X196743717Y-109327977D01*
X196876135Y-109399680D01*
X197212673Y-109410667D02*
X197273503Y-110436819D01*
X197585120Y-109766461D01*
X197648668Y-110502971D01*
X198056794Y-109559508D01*
X198774162Y-110701426D02*
X198211415Y-110602199D01*
X198492789Y-110651812D02*
X198666437Y-109667005D01*
X198547839Y-109791153D01*
X198437510Y-109868407D01*
X198335449Y-109898764D01*
X199791931Y-109865460D02*
X199604349Y-109832384D01*
X199502289Y-109862741D01*
X199447124Y-109901368D01*
X199328526Y-110025517D01*
X199248555Y-110204830D01*
X199182403Y-110579995D01*
X199212761Y-110682055D01*
X199251387Y-110737220D01*
X199336910Y-110800654D01*
X199524492Y-110833729D01*
X199626552Y-110803372D01*
X199681717Y-110764745D01*
X199745150Y-110679223D01*
X199786495Y-110444745D01*
X199756137Y-110342685D01*
X199717511Y-110287520D01*
X199631989Y-110224087D01*
X199444406Y-110191011D01*
X199342346Y-110221368D01*
X199287181Y-110259995D01*
X199223748Y-110345517D01*
X138705839Y-95022799D02*
X138848696Y-95070418D01*
X139086791Y-95070418D01*
X139182029Y-95022799D01*
X139229648Y-94975180D01*
X139277267Y-94879942D01*
X139277267Y-94784704D01*
X139229648Y-94689466D01*
X139182029Y-94641847D01*
X139086791Y-94594228D01*
X138896315Y-94546609D01*
X138801077Y-94498990D01*
X138753458Y-94451371D01*
X138705839Y-94356133D01*
X138705839Y-94260895D01*
X138753458Y-94165657D01*
X138801077Y-94118038D01*
X138896315Y-94070418D01*
X139134410Y-94070418D01*
X139277267Y-94118038D01*
X139610601Y-94070418D02*
X139848696Y-95070418D01*
X140039172Y-94356133D01*
X140229648Y-95070418D01*
X140467743Y-94070418D01*
X141372505Y-95070418D02*
X140801077Y-95070418D01*
X141086791Y-95070418D02*
X141086791Y-94070418D01*
X140991553Y-94213276D01*
X140896315Y-94308514D01*
X140801077Y-94356133D01*
X141705839Y-94070418D02*
X142324886Y-94070418D01*
X141991553Y-94451371D01*
X142134410Y-94451371D01*
X142229648Y-94498990D01*
X142277267Y-94546609D01*
X142324886Y-94641847D01*
X142324886Y-94879942D01*
X142277267Y-94975180D01*
X142229648Y-95022799D01*
X142134410Y-95070418D01*
X141848696Y-95070418D01*
X141753458Y-95022799D01*
X141705839Y-94975180D01*
X139182030Y-75950202D02*
X139324887Y-75997821D01*
X139562983Y-75997821D01*
X139658221Y-75950202D01*
X139705840Y-75902583D01*
X139753459Y-75807345D01*
X139753459Y-75712107D01*
X139705840Y-75616869D01*
X139658221Y-75569250D01*
X139562983Y-75521631D01*
X139372506Y-75474012D01*
X139277268Y-75426393D01*
X139229649Y-75378774D01*
X139182030Y-75283536D01*
X139182030Y-75188298D01*
X139229649Y-75093060D01*
X139277268Y-75045441D01*
X139372506Y-74997821D01*
X139610602Y-74997821D01*
X139753459Y-75045441D01*
X140086792Y-74997821D02*
X140324887Y-75997821D01*
X140515364Y-75283536D01*
X140705840Y-75997821D01*
X140943935Y-74997821D01*
X141229649Y-74997821D02*
X141896316Y-74997821D01*
X141467744Y-75997821D01*
X203249077Y-72708475D02*
X203381495Y-72780178D01*
X203615973Y-72821523D01*
X203718033Y-72791165D01*
X203773198Y-72752538D01*
X203836631Y-72667016D01*
X203853169Y-72573225D01*
X203822812Y-72471165D01*
X203784185Y-72416000D01*
X203698663Y-72352566D01*
X203519349Y-72272595D01*
X203433827Y-72209161D01*
X203395200Y-72153997D01*
X203364843Y-72051937D01*
X203381381Y-71958146D01*
X203444814Y-71872623D01*
X203499979Y-71833997D01*
X203602039Y-71803639D01*
X203836517Y-71844984D01*
X203968935Y-71916686D01*
X204305473Y-71927673D02*
X204366303Y-72953826D01*
X204677920Y-72283468D01*
X204741468Y-73019978D01*
X205149594Y-72076515D01*
X205993715Y-72225356D02*
X205524759Y-72142666D01*
X205395174Y-72603353D01*
X205450338Y-72564727D01*
X205552398Y-72534369D01*
X205786876Y-72575714D01*
X205872399Y-72639147D01*
X205911025Y-72694312D01*
X205941383Y-72796372D01*
X205900038Y-73030850D01*
X205836605Y-73116372D01*
X205781440Y-73154999D01*
X205679380Y-73185357D01*
X205444902Y-73144012D01*
X205359380Y-73080578D01*
X205320753Y-73025414D01*
X157755839Y-86022799D02*
X157898696Y-86070418D01*
X158136791Y-86070418D01*
X158232029Y-86022799D01*
X158279648Y-85975180D01*
X158327267Y-85879942D01*
X158327267Y-85784704D01*
X158279648Y-85689466D01*
X158232029Y-85641847D01*
X158136791Y-85594228D01*
X157946315Y-85546609D01*
X157851077Y-85498990D01*
X157803458Y-85451371D01*
X157755839Y-85356133D01*
X157755839Y-85260895D01*
X157803458Y-85165657D01*
X157851077Y-85118038D01*
X157946315Y-85070418D01*
X158184410Y-85070418D01*
X158327267Y-85118038D01*
X158660601Y-85070418D02*
X158898696Y-86070418D01*
X159089172Y-85356133D01*
X159279648Y-86070418D01*
X159517743Y-85070418D01*
X160422505Y-86070418D02*
X159851077Y-86070418D01*
X160136791Y-86070418D02*
X160136791Y-85070418D01*
X160041553Y-85213276D01*
X159946315Y-85308514D01*
X159851077Y-85356133D01*
X161279648Y-85403752D02*
X161279648Y-86070418D01*
X161041553Y-85022799D02*
X160803458Y-85737085D01*
X161422505Y-85737085D01*
X199468199Y-91408626D02*
X199600617Y-91480328D01*
X199835095Y-91521673D01*
X199937155Y-91491315D01*
X199992320Y-91452689D01*
X200055753Y-91367166D01*
X200072291Y-91273375D01*
X200041934Y-91171315D01*
X200003307Y-91116150D01*
X199917785Y-91052717D01*
X199738471Y-90972745D01*
X199652949Y-90909312D01*
X199614322Y-90854147D01*
X199583965Y-90752087D01*
X199600503Y-90658296D01*
X199663936Y-90572774D01*
X199719101Y-90534147D01*
X199821161Y-90503789D01*
X200055639Y-90545134D01*
X200188057Y-90616837D01*
X200524595Y-90627824D02*
X200585425Y-91653976D01*
X200897042Y-90983618D01*
X200960590Y-91720128D01*
X201368716Y-90776665D01*
X202086084Y-91918583D02*
X201523337Y-91819356D01*
X201804711Y-91868969D02*
X201978359Y-90884162D01*
X201859761Y-91008310D01*
X201749432Y-91085564D01*
X201647371Y-91115921D01*
X202869375Y-91041272D02*
X202963167Y-91057810D01*
X203048689Y-91121243D01*
X203087315Y-91176408D01*
X203117673Y-91278468D01*
X203131493Y-91474319D01*
X203090148Y-91708797D01*
X203010177Y-91888111D01*
X202946743Y-91973633D01*
X202891579Y-92012260D01*
X202789518Y-92042617D01*
X202695727Y-92026080D01*
X202610205Y-91962646D01*
X202571578Y-91907481D01*
X202541221Y-91805421D01*
X202527401Y-91609570D01*
X202568746Y-91375092D01*
X202648717Y-91195778D01*
X202712151Y-91110256D01*
X202767315Y-91071629D01*
X202869375Y-91041272D01*
X139182030Y-56877606D02*
X139324887Y-56925225D01*
X139562983Y-56925225D01*
X139658221Y-56877606D01*
X139705840Y-56829987D01*
X139753459Y-56734749D01*
X139753459Y-56639511D01*
X139705840Y-56544273D01*
X139658221Y-56496654D01*
X139562983Y-56449035D01*
X139372506Y-56401416D01*
X139277268Y-56353797D01*
X139229649Y-56306178D01*
X139182030Y-56210940D01*
X139182030Y-56115702D01*
X139229649Y-56020464D01*
X139277268Y-55972845D01*
X139372506Y-55925225D01*
X139610602Y-55925225D01*
X139753459Y-55972845D01*
X140086792Y-55925225D02*
X140324887Y-56925225D01*
X140515364Y-56210940D01*
X140705840Y-56925225D01*
X140943935Y-55925225D01*
X141277268Y-56020464D02*
X141324887Y-55972845D01*
X141420125Y-55925225D01*
X141658221Y-55925225D01*
X141753459Y-55972845D01*
X141801078Y-56020464D01*
X141848697Y-56115702D01*
X141848697Y-56210940D01*
X141801078Y-56353797D01*
X141229649Y-56925225D01*
X141848697Y-56925225D01*
X83142963Y-103726801D02*
X83142963Y-106012801D01*
X83142963Y-106012801D02*
X81364963Y-106012801D01*
X81364963Y-103726801D02*
X83142963Y-103726801D01*
X81364963Y-106012801D02*
X81364963Y-103726801D01*
D15*
X83106430Y-141806863D02*
X84131735Y-142832168D01*
X84131735Y-142832168D02*
X82682166Y-144281737D01*
X81656861Y-143256432D02*
X83106430Y-141806863D01*
X82682166Y-144281737D02*
X81656861Y-143256432D01*
X146785963Y-119392638D02*
X144735963Y-119392638D01*
X144735963Y-117942638D02*
X146785963Y-117942638D01*
X144735963Y-119392638D02*
X144735963Y-117942638D01*
X146785963Y-117942638D02*
X146785963Y-119392638D01*
X185045155Y-60974096D02*
X183000149Y-60831095D01*
X183000149Y-60831095D02*
X183101296Y-59384627D01*
X185146302Y-59527628D02*
X185045155Y-60974096D01*
X183101296Y-59384627D02*
X185146302Y-59527628D01*
D10*
X194495268Y-106755074D02*
X194252160Y-108133805D01*
X193608941Y-106598790D02*
X193365833Y-107977521D01*
X194252160Y-108133805D02*
X193487387Y-107288156D01*
X193487387Y-107288156D02*
X194495268Y-106755074D01*
X137750964Y-91867180D02*
X137750964Y-93267180D01*
X136850964Y-91867180D02*
X136850964Y-93267180D01*
X136850964Y-92567180D02*
X137750964Y-91867180D01*
X137750964Y-93267180D02*
X136850964Y-92567180D01*
X175397677Y-112018375D02*
X175300018Y-113414964D01*
X174451040Y-112653889D02*
X175397677Y-112018375D01*
X175300018Y-113414964D02*
X174451040Y-112653889D01*
X174499870Y-111955594D02*
X174402210Y-113352184D01*
X92085964Y-97029181D02*
X93863964Y-97029181D01*
X93863964Y-99315181D02*
X92085964Y-99315181D01*
X92085964Y-99315181D02*
X92085964Y-97029181D01*
X93863964Y-97029181D02*
X93863964Y-99315181D01*
D15*
X122106114Y-122112368D02*
X121730827Y-120711776D01*
X123710975Y-120181197D02*
X124086262Y-121581789D01*
X124086262Y-121581789D02*
X122106114Y-122112368D01*
X121730827Y-120711776D02*
X123710975Y-120181197D01*
X160835963Y-69370041D02*
X160835963Y-67920041D01*
X162885963Y-69370041D02*
X160835963Y-69370041D01*
X162885963Y-67920041D02*
X162885963Y-69370041D01*
X160835963Y-67920041D02*
X162885963Y-67920041D01*
X221683566Y-92705830D02*
X221935356Y-91277859D01*
X223954212Y-91633838D02*
X223702422Y-93061809D01*
X223702422Y-93061809D02*
X221683566Y-92705830D01*
X221935356Y-91277859D02*
X223954212Y-91633838D01*
D10*
X129327554Y-121108218D02*
X130236640Y-121796378D01*
X128884344Y-122158725D02*
X129327554Y-121108218D01*
X130003703Y-120927045D02*
X128651406Y-121289391D01*
X130236640Y-121796378D02*
X128884344Y-122158725D01*
D16*
X154863964Y-108060181D02*
X166063964Y-108060181D01*
X166063964Y-117260181D02*
X154863964Y-117260181D01*
X154863964Y-117260181D02*
X154863964Y-114010181D01*
X154863964Y-111310181D02*
X154863964Y-108060181D01*
X166063964Y-108060181D02*
X166063964Y-111310181D01*
X166063964Y-114010181D02*
X166063964Y-117260181D01*
D15*
X182384282Y-99026369D02*
X180339276Y-98883368D01*
X180440423Y-97436900D02*
X182485429Y-97579901D01*
X182485429Y-97579901D02*
X182384282Y-99026369D01*
X180339276Y-98883368D02*
X180440423Y-97436900D01*
X124842533Y-79920041D02*
X124842533Y-81370041D01*
X122792533Y-81370041D02*
X122792533Y-79920041D01*
X124842533Y-81370041D02*
X122792533Y-81370041D01*
X122792533Y-79920041D02*
X124842533Y-79920041D01*
D10*
X155753965Y-101970181D02*
X155753965Y-103370181D01*
X154853965Y-102670181D02*
X155753965Y-101970181D01*
X154853965Y-101970181D02*
X154853965Y-103370181D01*
X155753965Y-103370181D02*
X154853965Y-102670181D01*
D16*
X93943966Y-116220181D02*
X89843966Y-116220181D01*
X102043966Y-109020181D02*
X102043966Y-111620181D01*
X89843966Y-104420181D02*
X89843966Y-116220181D01*
X95443966Y-110320181D02*
X96443966Y-110320181D01*
X95943966Y-109820181D02*
X95943966Y-110820181D01*
X102043966Y-104420181D02*
X102043966Y-106820181D01*
X93943966Y-104420181D02*
X89843966Y-104420181D01*
X102043966Y-116220181D02*
X97943966Y-116220181D01*
X102043966Y-113820181D02*
X102043966Y-116220181D01*
X97943966Y-104420181D02*
X102043966Y-104420181D01*
X98943966Y-110320181D02*
G75*
G03*
X98943966Y-110320181I-3000000J0D01*
G01*
X83583075Y-93225182D02*
X109983075Y-93225182D01*
X109983075Y-93225182D02*
X109983075Y-76625182D01*
X109983075Y-76625182D02*
X83583075Y-76625182D01*
X83583075Y-76625182D02*
X83583075Y-93225182D01*
X83033075Y-96525182D02*
X110433075Y-96525182D01*
X110433075Y-96525182D02*
X110433075Y-69225182D01*
X110433075Y-69225182D02*
X83033075Y-69225182D01*
X83033075Y-69225182D02*
X83033075Y-96525182D01*
X91733075Y-96025182D02*
X101733075Y-96025182D01*
X101733075Y-96025182D02*
X101733075Y-93625182D01*
X101733075Y-93625182D02*
X91733075Y-93625182D01*
X91733075Y-93625182D02*
X91733075Y-96025182D01*
D10*
X81253965Y-126745180D02*
X81253965Y-120745180D01*
X93253965Y-126745180D02*
X81253965Y-126745180D01*
X81253965Y-120745180D02*
X93253965Y-120745180D01*
X93253965Y-120745180D02*
X93253965Y-126745180D01*
D15*
X218623435Y-110060700D02*
X220642291Y-110416679D01*
X220390501Y-111844650D02*
X218371645Y-111488671D01*
X218371645Y-111488671D02*
X218623435Y-110060700D01*
X220642291Y-110416679D02*
X220390501Y-111844650D01*
D10*
X116853965Y-94870180D02*
X116853965Y-96270180D01*
X117753965Y-96270180D02*
X116853965Y-95570180D01*
X116853965Y-95570180D02*
X117753965Y-94870180D01*
X117753965Y-94870180D02*
X117753965Y-96270180D01*
X97124964Y-97029181D02*
X98902964Y-97029181D01*
X97124964Y-99315181D02*
X97124964Y-97029181D01*
X98902964Y-97029181D02*
X98902964Y-99315181D01*
X98902964Y-99315181D02*
X97124964Y-99315181D01*
D15*
X122792534Y-100442638D02*
X122792534Y-98992638D01*
X124842534Y-98992638D02*
X124842534Y-100442638D01*
X124842534Y-100442638D02*
X122792534Y-100442638D01*
X122792534Y-98992638D02*
X124842534Y-98992638D01*
D10*
X96408965Y-97029181D02*
X96408965Y-99315181D01*
X96408965Y-99315181D02*
X94630965Y-99315181D01*
X94630965Y-99315181D02*
X94630965Y-97029181D01*
X94630965Y-97029181D02*
X96408965Y-97029181D01*
X197795268Y-87955074D02*
X197552160Y-89333805D01*
X197552160Y-89333805D02*
X196787387Y-88488156D01*
X196787387Y-88488156D02*
X197795268Y-87955074D01*
X196908941Y-87798790D02*
X196665833Y-89177521D01*
X108682182Y-128266348D02*
X107469746Y-128966348D01*
X107469746Y-128966348D02*
X107625964Y-127836925D01*
X107625964Y-127836925D02*
X108682182Y-128266348D01*
X108232182Y-127486925D02*
X107019746Y-128186925D01*
D15*
X122792534Y-60847444D02*
X124842534Y-60847444D01*
X124842534Y-60847444D02*
X124842534Y-62297444D01*
X124842534Y-62297444D02*
X122792534Y-62297444D01*
X122792534Y-62297444D02*
X122792534Y-60847444D01*
D16*
X82843964Y-102030181D02*
X81628964Y-102030181D01*
X86803964Y-97870181D02*
X86803964Y-98870181D01*
X81243964Y-103230181D02*
X89063964Y-103230181D01*
X81243964Y-98030181D02*
X82843964Y-98030181D01*
X86803964Y-101970181D02*
X89063964Y-101970181D01*
X89063964Y-100670181D02*
X84703964Y-100670181D01*
X82843964Y-97110181D02*
X82843964Y-98030181D01*
X86803964Y-102470181D02*
X86803964Y-101470181D01*
X84703964Y-99670181D02*
X89063964Y-99670181D01*
X82843964Y-103230181D02*
X82843964Y-102310181D01*
X82843964Y-102310181D02*
X81243964Y-102310181D01*
X85203964Y-101470181D02*
X85203964Y-102470181D01*
X86803964Y-98870181D02*
X85203964Y-98870181D01*
X86803964Y-101470181D02*
X85203964Y-101470181D01*
X82843964Y-98030181D02*
X82843964Y-98310181D01*
X85203964Y-102470181D02*
X86803964Y-102470181D01*
X81243964Y-102310181D02*
X81243964Y-103230181D01*
X89063964Y-97110181D02*
X81243964Y-97110181D01*
X85203964Y-97870181D02*
X86803964Y-97870181D01*
X81243964Y-97110181D02*
X81243964Y-98030181D01*
X86803964Y-101470181D02*
X89063964Y-101470181D01*
X85203964Y-98870181D02*
X85203964Y-97870181D01*
X89063964Y-103230181D02*
X89063964Y-97110181D01*
X84703964Y-100670181D02*
X84703964Y-99670181D01*
X82843964Y-102030181D02*
X82843964Y-102310181D01*
D10*
X203767964Y-55863180D02*
X201989964Y-55863180D01*
X203767964Y-53577180D02*
X203767964Y-55863180D01*
X201989964Y-55863180D02*
X201989964Y-53577180D01*
X201989964Y-53577180D02*
X203767964Y-53577180D01*
D15*
X183815866Y-78553763D02*
X183714719Y-80000231D01*
X181770860Y-78410762D02*
X183815866Y-78553763D01*
X181669713Y-79857230D02*
X181770860Y-78410762D01*
X183714719Y-80000231D02*
X181669713Y-79857230D01*
D16*
X81363960Y-116030188D02*
X81363960Y-118030188D01*
X84163960Y-118830188D02*
X84163960Y-119430188D01*
X84163960Y-115230188D02*
X84163960Y-114630188D01*
X84163960Y-119430188D02*
X83163960Y-119430188D01*
X84163960Y-114630188D02*
X83163960Y-114630188D01*
D10*
X196167964Y-53577181D02*
X196167964Y-55863181D01*
X194389964Y-53577181D02*
X196167964Y-53577181D01*
X194389964Y-55863181D02*
X194389964Y-53577181D01*
X196167964Y-55863181D02*
X194389964Y-55863181D01*
X221857288Y-106489193D02*
X221614180Y-107867924D01*
X222743615Y-106645477D02*
X222500507Y-108024208D01*
X222500507Y-108024208D02*
X221735734Y-107178559D01*
X221735734Y-107178559D02*
X222743615Y-106645477D01*
X136753964Y-74170181D02*
X135853964Y-73470181D01*
X135853964Y-73470181D02*
X136753964Y-72770181D01*
X136753964Y-72770181D02*
X136753964Y-74170181D01*
X135853964Y-72770181D02*
X135853964Y-74170181D01*
X155853965Y-63770180D02*
X155853965Y-65170180D01*
X155853965Y-65170180D02*
X154953965Y-64470180D01*
X154953965Y-63770180D02*
X154953965Y-65170180D01*
X154953965Y-64470180D02*
X155853965Y-63770180D01*
X154932965Y-83555181D02*
X155832965Y-82855181D01*
X155832965Y-82855181D02*
X155832965Y-84255181D01*
X155832965Y-84255181D02*
X154932965Y-83555181D01*
X154932965Y-82855181D02*
X154932965Y-84255181D01*
X190283115Y-125293991D02*
X190040007Y-126672722D01*
X190161561Y-125983357D02*
X191169442Y-125450275D01*
X190926334Y-126829006D02*
X190161561Y-125983357D01*
X191169442Y-125450275D02*
X190926334Y-126829006D01*
X101633965Y-102630180D02*
X101633965Y-104030180D01*
X100733965Y-103330180D02*
X101633965Y-102630180D01*
X101633965Y-104030180D02*
X100733965Y-103330180D01*
X100733965Y-102630180D02*
X100733965Y-104030180D01*
D15*
X162885963Y-48847445D02*
X162885963Y-50297445D01*
X160835963Y-50297445D02*
X160835963Y-48847445D01*
X162885963Y-50297445D02*
X160835963Y-50297445D01*
X160835963Y-48847445D02*
X162885963Y-48847445D01*
D17*
X156961014Y-73484047D02*
G75*
G03*
X152810466Y-72450181I-7008044J-19286117D01*
G01*
X147095466Y-72450181D02*
G75*
G03*
X142944919Y-73484047I2857490J-20319953D01*
G01*
X129632966Y-95627681D02*
G75*
G03*
X130666832Y-99778228I20320000J2857500D01*
G01*
X170272966Y-89912681D02*
G75*
G03*
X169239100Y-85762133I-20319983J-2857496D01*
G01*
X169239100Y-99778228D02*
G75*
G03*
X170272966Y-95627681I-19286134J7008047D01*
G01*
X130666831Y-85762135D02*
G75*
G03*
X129632966Y-89912681I19286135J-7008046D01*
G01*
D15*
X102000745Y-128320840D02*
X102725745Y-129576576D01*
X100225393Y-129345840D02*
X102000745Y-128320840D01*
X100950393Y-130601576D02*
X100225393Y-129345840D01*
X102725745Y-129576576D02*
X100950393Y-130601576D01*
D10*
X101447965Y-99315181D02*
X99669965Y-99315181D01*
X101447965Y-97029181D02*
X101447965Y-99315181D01*
X99669965Y-99315181D02*
X99669965Y-97029181D01*
X99669965Y-97029181D02*
X101447965Y-97029181D01*
D15*
X198769407Y-113109402D02*
X199021197Y-111681431D01*
X201040053Y-112037410D02*
X200788263Y-113465381D01*
X199021197Y-111681431D02*
X201040053Y-112037410D01*
X200788263Y-113465381D02*
X198769407Y-113109402D01*
D10*
X175308302Y-94377792D02*
X174459324Y-93616717D01*
X174508154Y-92918422D02*
X174410494Y-94315012D01*
X175405961Y-92981203D02*
X175308302Y-94377792D01*
X174459324Y-93616717D02*
X175405961Y-92981203D01*
D15*
X143835963Y-97442638D02*
X141785963Y-97442638D01*
X143835963Y-95992638D02*
X143835963Y-97442638D01*
X141785963Y-97442638D02*
X141785963Y-95992638D01*
X141785963Y-95992638D02*
X143835963Y-95992638D01*
X141785964Y-78370041D02*
X141785964Y-76920041D01*
X141785964Y-76920041D02*
X143835964Y-76920041D01*
X143835964Y-76920041D02*
X143835964Y-78370041D01*
X143835964Y-78370041D02*
X141785964Y-78370041D01*
D10*
X176797678Y-73918375D02*
X176700019Y-75314964D01*
X175899871Y-73855594D02*
X175802211Y-75252184D01*
X176700019Y-75314964D02*
X175851041Y-74553889D01*
X175851041Y-74553889D02*
X176797678Y-73918375D01*
X89404700Y-139835967D02*
X88414751Y-140825916D01*
X88768304Y-139199571D02*
X87778355Y-140189520D01*
X88414751Y-140825916D02*
X88273330Y-139694546D01*
X88273330Y-139694546D02*
X89404700Y-139835967D01*
X147853964Y-99170180D02*
X149253964Y-99170180D01*
X147853964Y-100070180D02*
X149253964Y-100070180D01*
X149253964Y-99170180D02*
X148553964Y-100070180D01*
X148553964Y-100070180D02*
X147853964Y-99170180D01*
D15*
X205645041Y-74115748D02*
X207663897Y-74471727D01*
X207663897Y-74471727D02*
X207412107Y-75899698D01*
X205393251Y-75543719D02*
X205645041Y-74115748D01*
X207412107Y-75899698D02*
X205393251Y-75543719D01*
D10*
X116853965Y-75770181D02*
X116853965Y-77170181D01*
X117753965Y-77170181D02*
X116853965Y-76470181D01*
X117753965Y-75770181D02*
X117753965Y-77170181D01*
X116853965Y-76470181D02*
X117753965Y-75770181D01*
X83955193Y-63796409D02*
X81105193Y-63796409D01*
X83955193Y-57046409D02*
X83955193Y-63796409D01*
X81055193Y-57046409D02*
X83955193Y-57046409D01*
X81105193Y-63796409D02*
X81055193Y-57046409D01*
X83139965Y-103726801D02*
X84917965Y-103726801D01*
X84917965Y-103726801D02*
X84917965Y-106012801D01*
X84917965Y-106012801D02*
X83139965Y-106012801D01*
X83139965Y-106012801D02*
X83139965Y-103726801D01*
X204564965Y-55863181D02*
X204564965Y-53577181D01*
X206342965Y-53577181D02*
X206342965Y-55863181D01*
X204564965Y-53577181D02*
X206342965Y-53577181D01*
X206342965Y-55863181D02*
X204564965Y-55863181D01*
X116653965Y-113960181D02*
X116653965Y-115360181D01*
X117553965Y-115360181D02*
X116653965Y-114660181D01*
X117553965Y-113960181D02*
X117553965Y-115360181D01*
X116653965Y-114660181D02*
X117553965Y-113960181D01*
X218508942Y-125098790D02*
X218265834Y-126477521D01*
X218387388Y-125788156D02*
X219395269Y-125255074D01*
X219395269Y-125255074D02*
X219152161Y-126633805D01*
X219152161Y-126633805D02*
X218387388Y-125788156D01*
D15*
X160835963Y-88442638D02*
X160835963Y-86992638D01*
X160835963Y-86992638D02*
X162885963Y-86992638D01*
X162885963Y-88442638D02*
X160835963Y-88442638D01*
X162885963Y-86992638D02*
X162885963Y-88442638D01*
X204351975Y-93254567D02*
X204100185Y-94682538D01*
X204100185Y-94682538D02*
X202081329Y-94326559D01*
X202333119Y-92898588D02*
X204351975Y-93254567D01*
X202081329Y-94326559D02*
X202333119Y-92898588D01*
D10*
X106942780Y-53135926D02*
X104402780Y-53135926D01*
X106942780Y-83615926D02*
X106942780Y-50595926D01*
X91702780Y-53135926D02*
X89162780Y-53135926D01*
X106942780Y-83615926D02*
X106942780Y-53135926D01*
X104402780Y-53135926D02*
X104402780Y-83615926D01*
X89162780Y-53135926D02*
X89162780Y-83615926D01*
X89162780Y-50595926D02*
X89162780Y-83615926D01*
X106942780Y-50595926D02*
X89162780Y-50595926D01*
X104402780Y-83615926D02*
X106942780Y-83615926D01*
X91702780Y-83615926D02*
X91702780Y-53135926D01*
X89162780Y-83615926D02*
X91702780Y-83615926D01*
D15*
X143835964Y-59297445D02*
X141785964Y-59297445D01*
X143835964Y-57847445D02*
X143835964Y-59297445D01*
X141785964Y-59297445D02*
X141785964Y-57847445D01*
X141785964Y-57847445D02*
X143835964Y-57847445D01*
D10*
X151957965Y-120175181D02*
X152657965Y-121075181D01*
X152657965Y-120175181D02*
X151257965Y-120175181D01*
X151257965Y-121075181D02*
X151957965Y-120175181D01*
X152657965Y-121075181D02*
X151257965Y-121075181D01*
D18*
X82753965Y-125495180D03*
X89753965Y-123745180D03*
X82753965Y-123745180D03*
X89753965Y-125495180D03*
D19*
X91553965Y-127595180D03*
X91553965Y-121645180D03*
X87553965Y-127595180D03*
X87553965Y-121645180D03*
X84553965Y-121645180D03*
X84553965Y-127595180D03*
X93053965Y-125845180D03*
X93053965Y-123395180D03*
D20*
X89133965Y-53210181D03*
X89133965Y-55750181D03*
X89133965Y-58290181D03*
X89133965Y-60830181D03*
X89133965Y-63370181D03*
X89133965Y-65910181D03*
X89133965Y-68450181D03*
X89133965Y-70990181D03*
X89133965Y-73530181D03*
X89133965Y-76070181D03*
X89133965Y-78610181D03*
X89133965Y-81150181D03*
X104373965Y-81150181D03*
X104373965Y-78610181D03*
X104373965Y-76070181D03*
X104373965Y-73530181D03*
X104373965Y-70990181D03*
X104373965Y-68450181D03*
X104373965Y-65910181D03*
X104373965Y-63370181D03*
X104373965Y-60830181D03*
X104373965Y-58290181D03*
X104373965Y-55750181D03*
X104373965Y-53210181D03*
M02*
