M48
; DRILL file {KiCad (6.0.8)} date Sun Nov 27 04:27:56 2022
; FORMAT={-:-/ absolute / inch / decimal}
; #@! TF.CreationDate,2022-11-27T04:27:56-08:00
; #@! TF.GenerationSoftware,Kicad,Pcbnew,(6.0.8)
; #@! TF.FileFunction,NonPlated,1,2,NPTH
FMAT,2
INCH
; #@! TA.AperFunction,NonPlated,NPTH,ComponentDrill
T1C0.0276
; #@! TA.AperFunction,NonPlated,NPTH,ComponentDrill
T2C0.0354
; #@! TA.AperFunction,NonPlated,NPTH,ComponentDrill
T3C0.0472
; #@! TA.AperFunction,NonPlated,NPTH,ComponentDrill
T4C0.0866
; #@! TA.AperFunction,NonPlated,NPTH,ComponentDrill
T5C0.1260
; #@! TA.AperFunction,NonPlated,NPTH,ComponentDrill
T6C0.1969
%
G90
G05
T1
X3.2522Y-2.4329
X3.2541Y-2.3148
T2
X3.2545Y-4.5238
X3.2545Y-4.6911
T3
X3.258Y-4.8719
X3.258Y-4.9408
X3.5336Y-4.8719
X3.5336Y-4.9408
T4
X7.6222Y-2.8118
T5
X3.2943Y-2.0508
X3.2943Y-5.178
X5.7383Y-2.0508
X6.6005Y-3.3236
X6.7049Y-4.6488
X6.8702Y-2.0508
X7.162Y-4.6787
X7.4545Y-2.0906
T6
X3.375Y-5.8765
X4.0394Y-5.3623
X4.7804Y-3.427
X4.7804Y-2.6761
X4.7804Y-4.1779
X4.813Y-5.0374
X5.5282Y-4.0598
X5.5282Y-2.558
X5.5282Y-3.3089
X5.6443Y-4.9239
X6.2782Y-2.2037
X6.2782Y-2.9545
X6.2782Y-3.7054
X7.0306Y-4.1122
X7.0829Y-3.3631
X7.1353Y-2.6141
X7.7336Y-4.6638
X7.864Y-3.9243
X7.9944Y-3.1848
X8.5054Y-4.6
X8.6358Y-3.8605
T0
M30
