%TF.GenerationSoftware,KiCad,Pcbnew,(6.0.8)*%
%TF.CreationDate,2022-11-27T04:27:56-08:00*%
%TF.ProjectId,klor1_3,6b6c6f72-315f-4332-9e6b-696361645f70,v1.3.0*%
%TF.SameCoordinates,Original*%
%TF.FileFunction,Drillmap*%
%TF.FilePolarity,Positive*%
%FSLAX45Y45*%
G04 Gerber Fmt 4.5, Leading zero omitted, Abs format (unit mm)*
G04 Created by KiCad (PCBNEW (6.0.8)) date 2022-11-27 04:27:56*
%MOMM*%
%LPD*%
G01*
G04 APERTURE LIST*
%ADD10C,0.010000*%
%ADD11C,0.100000*%
%ADD12C,0.200000*%
%ADD13C,0.020000*%
%ADD14C,0.030000*%
%ADD15C,0.040000*%
%ADD16C,0.050000*%
%ADD17C,0.075000*%
%ADD18C,0.081280*%
%ADD19C,0.150000*%
%ADD20C,0.220000*%
G04 APERTURE END LIST*
D10*
X9455910Y-14541851D02*
X9124478Y-13970660D01*
X21362772Y-8650123D02*
X21168849Y-9739616D01*
X9540530Y-14492489D02*
X9541791Y-14494502D01*
X9542928Y-14496572D01*
X9543942Y-14498694D01*
X9544834Y-14500863D01*
X9545605Y-14503072D01*
X9546256Y-14505318D01*
X9546786Y-14507595D01*
X9547197Y-14509898D01*
X9547488Y-14512221D01*
X9547662Y-14514560D01*
X9547719Y-14516909D01*
X9547658Y-14519263D01*
X9547481Y-14521618D01*
X9547189Y-14523967D01*
X9546782Y-14526305D01*
X9546260Y-14528629D01*
X9545625Y-14530931D01*
X9544877Y-14533208D01*
X9544016Y-14535454D01*
X9543044Y-14537664D01*
X9541961Y-14539832D01*
X9540767Y-14541954D01*
X9539464Y-14544024D01*
X9538051Y-14546038D01*
X9536530Y-14547989D01*
X9534902Y-14549873D01*
X9533166Y-14551685D01*
X9531323Y-14553420D01*
X9529375Y-14555072D01*
X9527321Y-14556636D01*
X9525163Y-14558107D01*
X9522901Y-14559480D01*
X21059547Y-7162206D02*
X21059547Y-5025529D01*
X9219676Y-5698969D02*
X9219676Y-4951485D01*
X15312379Y-13554607D02*
X15315994Y-13554515D01*
X15319563Y-13554241D01*
X15323081Y-13553791D01*
X15326545Y-13553168D01*
X15329949Y-13552377D01*
X15333289Y-13551423D01*
X15336561Y-13550310D01*
X15339760Y-13549043D01*
X15342881Y-13547626D01*
X15345920Y-13546064D01*
X15348873Y-13544361D01*
X15351735Y-13542521D01*
X15354501Y-13540550D01*
X15357168Y-13538452D01*
X15359729Y-13536232D01*
X15362182Y-13533893D01*
X15364521Y-13531440D01*
X15366742Y-13528878D01*
X15368840Y-13526212D01*
X15370811Y-13523446D01*
X15372650Y-13520584D01*
X15374353Y-13517631D01*
X15375915Y-13514592D01*
X15377332Y-13511470D01*
X15378599Y-13508271D01*
X15379712Y-13505000D01*
X15380666Y-13501659D01*
X15381457Y-13498255D01*
X15382080Y-13494792D01*
X15382530Y-13491273D01*
X15382804Y-13487704D01*
X15382896Y-13484090D01*
X23118655Y-9027390D02*
X23119864Y-9023776D01*
X23120851Y-9020205D01*
X23121622Y-9016683D01*
X23122181Y-9013211D01*
X23122533Y-9009794D01*
X23122683Y-9006434D01*
X23122638Y-9003135D01*
X23122401Y-8999900D01*
X23121978Y-8996732D01*
X23121375Y-8993634D01*
X23120596Y-8990610D01*
X23119646Y-8987663D01*
X23118532Y-8984795D01*
X23117257Y-8982011D01*
X23115827Y-8979314D01*
X23114247Y-8976706D01*
X23112523Y-8974192D01*
X23110660Y-8971773D01*
X23108662Y-8969454D01*
X23106535Y-8967237D01*
X23104284Y-8965127D01*
X23101914Y-8963125D01*
X23099430Y-8961236D01*
X23096838Y-8959463D01*
X23094143Y-8957808D01*
X23091350Y-8956275D01*
X23088464Y-8954867D01*
X23085489Y-8953588D01*
X23082433Y-8952441D01*
X23079299Y-8951428D01*
X23076092Y-8950554D01*
X23072818Y-8949821D01*
X14889275Y-4951485D02*
X10245704Y-4951485D01*
X10552455Y-14665256D02*
X10559407Y-14660639D01*
X10566379Y-14656042D01*
X10573370Y-14651466D01*
X10580380Y-14646911D01*
X10587408Y-14642376D01*
X10594453Y-14637862D01*
X10601515Y-14633368D01*
X10608594Y-14628896D01*
X10615687Y-14624443D01*
X10622796Y-14620012D01*
X10629919Y-14615601D01*
X10637055Y-14611211D01*
X10644205Y-14606842D01*
X10651366Y-14602493D01*
X10658539Y-14598165D01*
X10665724Y-14593857D01*
X10672918Y-14589570D01*
X10680122Y-14585304D01*
X10687336Y-14581059D01*
X10694557Y-14576834D01*
X10701787Y-14572630D01*
X10709023Y-14568446D01*
X10716266Y-14564283D01*
X10723515Y-14560141D01*
X10730769Y-14556019D01*
X10738027Y-14551919D01*
X10745289Y-14547838D01*
X10752555Y-14543779D01*
X10759823Y-14539740D01*
X10767093Y-14535722D01*
X10774364Y-14531724D01*
X10781636Y-14527747D01*
X21443867Y-7229197D02*
X21059547Y-7162206D01*
X20728115Y-11946811D02*
X20730728Y-11947213D01*
X20733277Y-11947754D01*
X20735758Y-11948430D01*
X20738169Y-11949235D01*
X20740509Y-11950163D01*
X20742773Y-11951211D01*
X20744960Y-11952372D01*
X20747067Y-11953642D01*
X20749091Y-11955015D01*
X20751030Y-11956486D01*
X20752881Y-11958050D01*
X20754642Y-11959702D01*
X20756310Y-11961437D01*
X20757882Y-11963249D01*
X20759356Y-11965133D01*
X20760729Y-11967084D01*
X20761999Y-11969098D01*
X20763164Y-11971168D01*
X20764219Y-11973290D01*
X20765164Y-11975458D01*
X20765995Y-11977668D01*
X20766710Y-11979914D01*
X20767306Y-11982191D01*
X20767781Y-11984493D01*
X20768132Y-11986817D01*
X20768356Y-11989155D01*
X20768451Y-11991505D01*
X20768415Y-11993859D01*
X20768244Y-11996213D01*
X20767936Y-11998562D01*
X20767489Y-12000901D01*
X20766900Y-12003225D01*
X8172493Y-4951485D02*
X8168558Y-4951577D01*
X8164689Y-4951851D01*
X8160889Y-4952301D01*
X8157164Y-4952924D01*
X8153515Y-4953715D01*
X8149948Y-4954669D01*
X8146467Y-4955782D01*
X8143074Y-4957049D01*
X8139774Y-4958466D01*
X8136571Y-4960029D01*
X8133469Y-4961732D01*
X8130472Y-4963571D01*
X8127583Y-4965542D01*
X8124806Y-4967640D01*
X8122145Y-4969861D01*
X8119605Y-4972200D01*
X8117188Y-4974652D01*
X8114900Y-4977214D01*
X8112743Y-4979880D01*
X8110721Y-4982646D01*
X8108839Y-4985508D01*
X8107101Y-4988461D01*
X8105509Y-4991501D01*
X8104069Y-4994622D01*
X8102784Y-4997821D01*
X8101657Y-5001093D01*
X8100693Y-5004433D01*
X8099896Y-5007837D01*
X8099269Y-5011301D01*
X8098816Y-5014819D01*
X8098542Y-5018388D01*
X8098450Y-5022003D01*
X9219676Y-4951485D02*
X8264165Y-4951485D01*
X9314875Y-15666603D02*
X9330431Y-15651088D01*
X9346029Y-15635615D01*
X9361668Y-15620184D01*
X9377349Y-15604797D01*
X9393071Y-15589454D01*
X9408834Y-15574155D01*
X9424638Y-15558901D01*
X9440484Y-15543693D01*
X9456371Y-15528532D01*
X9472299Y-15513418D01*
X9488269Y-15498352D01*
X9504280Y-15483334D01*
X9520332Y-15468365D01*
X9536426Y-15453445D01*
X9552561Y-15438577D01*
X9568737Y-15423759D01*
X9584955Y-15408993D01*
X9601214Y-15394279D01*
X9617514Y-15379618D01*
X9633856Y-15365010D01*
X9650239Y-15350457D01*
X9666663Y-15335959D01*
X9683128Y-15321516D01*
X9699635Y-15307130D01*
X9716183Y-15292800D01*
X9732773Y-15278528D01*
X9749404Y-15264313D01*
X9766076Y-15250158D01*
X9782789Y-15236062D01*
X9799544Y-15222026D01*
X9816340Y-15208051D01*
X9833178Y-15194137D01*
X8532132Y-16354148D02*
X8534817Y-16356709D01*
X8537579Y-16359106D01*
X8540414Y-16361337D01*
X8543315Y-16363403D01*
X8546279Y-16365304D01*
X8549300Y-16367039D01*
X8552372Y-16368609D01*
X8555491Y-16370014D01*
X8558651Y-16371254D01*
X8561847Y-16372328D01*
X8565074Y-16373237D01*
X8568327Y-16373981D01*
X8571601Y-16374559D01*
X8574890Y-16374972D01*
X8578189Y-16375220D01*
X8581494Y-16375303D01*
X8584799Y-16375220D01*
X8588098Y-16374972D01*
X8591387Y-16374559D01*
X8594661Y-16373981D01*
X8597914Y-16373237D01*
X8601141Y-16372328D01*
X8604337Y-16371254D01*
X8607497Y-16370014D01*
X8610616Y-16368609D01*
X8613688Y-16367039D01*
X8616709Y-16365304D01*
X8619672Y-16363403D01*
X8622574Y-16361337D01*
X8625409Y-16359106D01*
X8628171Y-16356709D01*
X8630856Y-16354148D01*
X9875488Y-15056628D02*
X10552455Y-14665256D01*
X9653358Y-14883860D02*
X9652098Y-14881536D01*
X9650961Y-14879195D01*
X9649946Y-14876840D01*
X9649054Y-14874474D01*
X9648283Y-14872100D01*
X9647633Y-14869721D01*
X9647103Y-14867341D01*
X9646692Y-14864963D01*
X9646400Y-14862591D01*
X9646226Y-14860226D01*
X9646170Y-14857874D01*
X9646231Y-14855536D01*
X9646408Y-14853216D01*
X9646700Y-14850918D01*
X9647107Y-14848644D01*
X9647629Y-14846398D01*
X9648264Y-14844182D01*
X9649012Y-14842001D01*
X9649873Y-14839858D01*
X9650845Y-14837755D01*
X9651928Y-14835696D01*
X9653122Y-14833684D01*
X9654425Y-14831723D01*
X9655837Y-14829815D01*
X9657358Y-14827964D01*
X9658987Y-14826173D01*
X9660723Y-14824445D01*
X9662565Y-14822784D01*
X9664514Y-14821192D01*
X9666567Y-14819674D01*
X9668726Y-14818231D01*
X9670988Y-14816869D01*
X20957297Y-10398954D02*
X21006659Y-10113359D01*
X16980116Y-12179518D02*
X18489188Y-12285294D01*
X21496755Y-7306766D02*
X21497313Y-7303461D01*
X21497671Y-7300162D01*
X21497834Y-7296873D01*
X21497808Y-7293599D01*
X21497599Y-7290346D01*
X21497212Y-7287119D01*
X21496653Y-7283923D01*
X21495928Y-7280763D01*
X21495043Y-7277644D01*
X21494004Y-7274572D01*
X21492817Y-7271551D01*
X21491486Y-7268588D01*
X21490019Y-7265686D01*
X21488421Y-7262851D01*
X21486698Y-7260089D01*
X21484855Y-7257404D01*
X21482898Y-7254802D01*
X21480834Y-7252287D01*
X21478668Y-7249866D01*
X21476405Y-7247542D01*
X21474052Y-7245322D01*
X21471615Y-7243211D01*
X21469098Y-7241213D01*
X21466509Y-7239334D01*
X21463853Y-7237579D01*
X21461135Y-7235953D01*
X21458362Y-7234461D01*
X21455539Y-7233108D01*
X21452672Y-7231901D01*
X21449767Y-7230843D01*
X21446830Y-7229940D01*
X21443867Y-7229197D01*
X21101857Y-10130988D02*
X21052495Y-10416583D01*
X8867089Y-13512297D02*
X8101976Y-13512297D01*
X9833178Y-15194137D02*
X9653358Y-14883860D01*
X9737979Y-14834498D02*
X9739172Y-14836566D01*
X9740611Y-14839059D01*
X9742565Y-14842445D01*
X9745000Y-14846662D01*
X9747880Y-14851651D01*
X9751171Y-14857349D01*
X9754837Y-14863697D01*
X9758844Y-14870633D01*
X9763158Y-14878098D01*
X9767742Y-14886030D01*
X9772563Y-14894369D01*
X9777585Y-14903054D01*
X9782774Y-14912024D01*
X9788094Y-14921219D01*
X9793512Y-14930578D01*
X9798991Y-14940040D01*
X9804497Y-14949545D01*
X9809996Y-14959032D01*
X9815452Y-14968440D01*
X9820830Y-14977708D01*
X9826097Y-14986777D01*
X9831216Y-14995584D01*
X9836153Y-15004070D01*
X9840873Y-15012174D01*
X9845341Y-15019835D01*
X9849523Y-15026992D01*
X9853383Y-15033586D01*
X9856886Y-15039554D01*
X9859999Y-15044836D01*
X9862685Y-15049373D01*
X9864911Y-15053102D01*
X20883253Y-10793851D02*
X20883655Y-10791238D01*
X20884197Y-10788690D01*
X20884872Y-10786209D01*
X20885677Y-10783797D01*
X20886606Y-10781458D01*
X20887654Y-10779193D01*
X20888815Y-10777007D01*
X20890085Y-10774900D01*
X20891458Y-10772876D01*
X20892929Y-10770937D01*
X20894493Y-10769085D01*
X20896145Y-10767325D01*
X20897879Y-10765657D01*
X20899691Y-10764085D01*
X20901576Y-10762610D01*
X20903527Y-10761237D01*
X20905540Y-10759967D01*
X20907611Y-10758803D01*
X20909733Y-10757747D01*
X20911901Y-10756802D01*
X20914111Y-10755971D01*
X20916356Y-10755256D01*
X20918633Y-10754660D01*
X20920936Y-10754185D01*
X20923259Y-10753835D01*
X20925598Y-10753610D01*
X20927947Y-10753515D01*
X20930302Y-10753552D01*
X20932656Y-10753723D01*
X20935005Y-10754030D01*
X20937344Y-10754477D01*
X20939667Y-10755067D01*
X20985504Y-4951485D02*
X20890305Y-4951485D01*
X21112435Y-9778401D02*
X21109822Y-9777999D01*
X21107273Y-9777457D01*
X21104792Y-9776782D01*
X21102381Y-9775977D01*
X21100041Y-9775048D01*
X21097777Y-9774000D01*
X21095590Y-9772839D01*
X21093483Y-9771569D01*
X21091459Y-9770196D01*
X21089520Y-9768725D01*
X21087669Y-9767161D01*
X21085908Y-9765509D01*
X21084240Y-9763775D01*
X21082668Y-9761963D01*
X21081194Y-9760078D01*
X21079821Y-9758127D01*
X21078550Y-9756114D01*
X21077386Y-9754043D01*
X21076330Y-9751921D01*
X21075386Y-9749753D01*
X21074555Y-9747543D01*
X21073840Y-9745298D01*
X21073244Y-9743021D01*
X21072769Y-9740718D01*
X21072418Y-9738395D01*
X21072194Y-9736056D01*
X21072099Y-9733707D01*
X21072135Y-9731352D01*
X21072306Y-9728998D01*
X21072614Y-9726649D01*
X21073061Y-9724310D01*
X21073650Y-9721987D01*
X8098450Y-13343055D02*
X8098542Y-13346670D01*
X8098816Y-13350238D01*
X8099266Y-13353757D01*
X8099889Y-13357220D01*
X8100680Y-13360625D01*
X8101634Y-13363965D01*
X8102747Y-13367237D01*
X8104014Y-13370436D01*
X8105431Y-13373557D01*
X8106993Y-13376596D01*
X8108696Y-13379549D01*
X8110535Y-13382411D01*
X8112506Y-13385177D01*
X8114605Y-13387844D01*
X8116825Y-13390405D01*
X8119164Y-13392858D01*
X8121617Y-13395197D01*
X8124178Y-13397418D01*
X8126845Y-13399516D01*
X8129611Y-13401487D01*
X8132473Y-13403326D01*
X8135426Y-13405029D01*
X8138465Y-13406591D01*
X8141586Y-13408008D01*
X8144785Y-13409275D01*
X8148057Y-13410388D01*
X8151397Y-13411342D01*
X8154802Y-13412133D01*
X8158265Y-13412756D01*
X8161784Y-13413207D01*
X8165352Y-13413480D01*
X8168967Y-13413573D01*
X8098450Y-5022003D02*
X8098450Y-13343055D01*
X9124478Y-13970660D02*
X9123217Y-13968336D01*
X9122080Y-13965995D01*
X9121066Y-13963640D01*
X9120174Y-13961274D01*
X9119403Y-13958900D01*
X9118753Y-13956521D01*
X9118223Y-13954141D01*
X9117812Y-13951763D01*
X9117520Y-13949391D01*
X9117346Y-13947026D01*
X9117290Y-13944674D01*
X9117350Y-13942336D01*
X9117527Y-13940016D01*
X9117820Y-13937718D01*
X9118227Y-13935444D01*
X9118748Y-13933197D01*
X9119384Y-13930982D01*
X9120132Y-13928801D01*
X9120992Y-13926658D01*
X9121964Y-13924555D01*
X9123048Y-13922496D01*
X9124241Y-13920484D01*
X9125545Y-13918523D01*
X9126957Y-13916615D01*
X9128478Y-13914764D01*
X9130107Y-13912973D01*
X9131843Y-13911245D01*
X9133685Y-13909584D01*
X9135633Y-13907992D01*
X9137687Y-13906474D01*
X9139845Y-13905031D01*
X9142107Y-13903668D01*
X7834009Y-14182212D02*
X7146465Y-14869757D01*
X14889275Y-4623579D02*
X14889275Y-4951485D01*
X18429248Y-12634355D02*
X18428999Y-12637650D01*
X18428912Y-12640920D01*
X18428983Y-12644161D01*
X18429207Y-12647371D01*
X18429580Y-12650544D01*
X18430100Y-12653677D01*
X18430762Y-12656766D01*
X18431562Y-12659808D01*
X18432496Y-12662797D01*
X18433561Y-12665732D01*
X18434752Y-12668607D01*
X18436066Y-12671418D01*
X18437498Y-12674163D01*
X18439046Y-12676836D01*
X18440704Y-12679435D01*
X18442470Y-12681954D01*
X18444339Y-12684392D01*
X18446307Y-12686742D01*
X18448371Y-12689003D01*
X18450527Y-12691169D01*
X18452771Y-12693236D01*
X18455098Y-12695202D01*
X18457505Y-12697062D01*
X18459989Y-12698812D01*
X18462545Y-12700449D01*
X18465169Y-12701968D01*
X18467858Y-12703366D01*
X18470608Y-12704638D01*
X18473414Y-12705782D01*
X18476274Y-12706792D01*
X18479182Y-12707666D01*
X18482136Y-12708398D01*
X16990693Y-4951485D02*
X16990693Y-4623579D01*
D11*
X20755397Y-5752018D02*
X20755397Y-6892018D01*
X19315397Y-6892018D01*
X19315397Y-5752018D01*
X20755397Y-5752018D01*
D10*
X20939667Y-10755067D02*
X20942280Y-10755469D01*
X20944829Y-10756010D01*
X20947310Y-10756686D01*
X20949721Y-10757491D01*
X20952061Y-10758420D01*
X20954325Y-10759467D01*
X20956512Y-10760628D01*
X20958619Y-10761898D01*
X20960643Y-10763271D01*
X20962582Y-10764742D01*
X20964433Y-10766306D01*
X20966194Y-10767958D01*
X20967862Y-10769693D01*
X20969434Y-10771505D01*
X20970908Y-10773389D01*
X20972281Y-10775340D01*
X20973552Y-10777354D01*
X20974716Y-10779424D01*
X20975772Y-10781546D01*
X20976716Y-10783714D01*
X20977547Y-10785924D01*
X20978262Y-10788170D01*
X20978859Y-10790447D01*
X20979333Y-10792749D01*
X20979684Y-10795073D01*
X20979908Y-10797412D01*
X20980003Y-10799761D01*
X20979967Y-10802115D01*
X20979796Y-10804469D01*
X20979488Y-10806818D01*
X20979041Y-10809157D01*
X20978452Y-10811481D01*
X20742219Y-11597750D02*
X20883253Y-10793851D01*
X8630856Y-16354148D02*
X9314875Y-15666603D01*
X21059547Y-5025529D02*
X21059454Y-5021604D01*
X21059180Y-5017763D01*
X21058728Y-5014009D01*
X21058101Y-5010344D01*
X21057303Y-5006769D01*
X21056339Y-5003286D01*
X21055213Y-4999898D01*
X21053927Y-4996605D01*
X21052487Y-4993411D01*
X21050896Y-4990317D01*
X21049157Y-4987325D01*
X21047275Y-4984437D01*
X21045254Y-4981655D01*
X21043097Y-4978980D01*
X21040808Y-4976416D01*
X21038392Y-4973963D01*
X21035851Y-4971623D01*
X21033191Y-4969399D01*
X21030414Y-4967293D01*
X21027525Y-4965306D01*
X21024527Y-4963441D01*
X21021425Y-4961699D01*
X21018222Y-4960082D01*
X21014923Y-4958592D01*
X21011530Y-4957231D01*
X21008048Y-4956002D01*
X21004481Y-4954905D01*
X21000833Y-4953944D01*
X20997107Y-4953119D01*
X20993308Y-4952433D01*
X20989439Y-4951888D01*
X20985504Y-4951485D01*
X20495408Y-12997520D02*
X20671701Y-11985595D01*
X21052495Y-10416583D02*
X21052093Y-10419196D01*
X21051552Y-10421745D01*
X21050876Y-10424226D01*
X21050071Y-10426637D01*
X21049142Y-10428977D01*
X21048095Y-10431241D01*
X21046933Y-10433428D01*
X21045664Y-10435535D01*
X21044291Y-10437559D01*
X21042820Y-10439498D01*
X21041256Y-10441349D01*
X21039604Y-10443110D01*
X21037869Y-10444778D01*
X21036057Y-10446350D01*
X21034173Y-10447824D01*
X21032221Y-10449198D01*
X21030208Y-10450468D01*
X21028138Y-10451632D01*
X21026016Y-10452688D01*
X21023847Y-10453632D01*
X21021638Y-10454464D01*
X21019392Y-10455178D01*
X21017115Y-10455775D01*
X21014812Y-10456249D01*
X21012489Y-10456600D01*
X21010150Y-10456824D01*
X21007801Y-10456919D01*
X21005447Y-10456883D01*
X21003093Y-10456712D01*
X21000743Y-10456404D01*
X20998405Y-10455957D01*
X20996081Y-10455368D01*
X9522901Y-14559480D02*
X9520578Y-14560740D01*
X9518236Y-14561877D01*
X9515881Y-14562892D01*
X9513515Y-14563784D01*
X9511141Y-14564555D01*
X9508762Y-14565205D01*
X9506383Y-14565735D01*
X9504005Y-14566146D01*
X9501632Y-14566438D01*
X9499268Y-14566612D01*
X9496915Y-14566668D01*
X9494577Y-14566607D01*
X9492257Y-14566431D01*
X9489959Y-14566138D01*
X9487685Y-14565731D01*
X9485439Y-14565209D01*
X9483224Y-14564574D01*
X9481043Y-14563826D01*
X9478899Y-14562966D01*
X9476796Y-14561993D01*
X9474737Y-14560910D01*
X9472725Y-14559717D01*
X9470764Y-14558413D01*
X9468856Y-14557001D01*
X9467005Y-14555480D01*
X9465214Y-14553851D01*
X9463486Y-14552115D01*
X9461825Y-14550273D01*
X9460233Y-14548324D01*
X9458715Y-14546271D01*
X9457272Y-14544113D01*
X9455910Y-14541851D01*
X10245704Y-4951485D02*
X10245704Y-5698969D01*
X15382896Y-12179518D02*
X16980116Y-12179518D01*
X14332187Y-13554607D02*
X15312379Y-13554607D01*
X21006659Y-10113359D02*
X21007061Y-10110746D01*
X21007602Y-10108197D01*
X21008278Y-10105716D01*
X21009083Y-10103304D01*
X21010012Y-10100965D01*
X21011059Y-10098701D01*
X21012220Y-10096514D01*
X21013490Y-10094407D01*
X21014863Y-10092383D01*
X21016334Y-10090444D01*
X21017898Y-10088593D01*
X21019550Y-10086832D01*
X21021285Y-10085164D01*
X21023097Y-10083592D01*
X21024981Y-10082118D01*
X21026932Y-10080744D01*
X21028946Y-10079474D01*
X21031016Y-10078310D01*
X21033138Y-10077254D01*
X21035306Y-10076309D01*
X21037516Y-10075478D01*
X21039762Y-10074763D01*
X21042039Y-10074167D01*
X21044341Y-10073692D01*
X21046665Y-10073342D01*
X21049004Y-10073117D01*
X21051353Y-10073022D01*
X21053707Y-10073059D01*
X21056061Y-10073230D01*
X21058410Y-10073537D01*
X21060749Y-10073985D01*
X21063073Y-10074574D01*
X22445213Y-12835330D02*
X23118655Y-9027390D01*
X9670988Y-14816869D02*
X9673311Y-14815608D01*
X9675652Y-14814471D01*
X9678008Y-14813457D01*
X9680374Y-14812565D01*
X9682748Y-14811794D01*
X9685126Y-14811143D01*
X9687506Y-14810613D01*
X9689884Y-14810203D01*
X9692257Y-14809911D01*
X9694621Y-14809737D01*
X9696974Y-14809681D01*
X9699312Y-14809741D01*
X9701631Y-14809918D01*
X9703930Y-14810210D01*
X9706204Y-14810618D01*
X9708450Y-14811139D01*
X9710665Y-14811774D01*
X9712846Y-14812522D01*
X9714990Y-14813383D01*
X9717093Y-14814355D01*
X9719152Y-14815438D01*
X9721163Y-14816632D01*
X9723125Y-14817935D01*
X9725033Y-14819348D01*
X9726884Y-14820869D01*
X9728675Y-14822498D01*
X9730402Y-14824233D01*
X9732064Y-14826076D01*
X9733655Y-14828024D01*
X9735174Y-14830078D01*
X9736616Y-14832236D01*
X9737979Y-14834498D01*
X21436815Y-7648776D02*
X21496755Y-7306766D01*
X18482136Y-12708398D02*
X20417839Y-13050408D01*
X20417839Y-13050408D02*
X20421143Y-13050977D01*
X20424443Y-13051363D01*
X20427732Y-13051572D01*
X20431005Y-13051606D01*
X20434258Y-13051470D01*
X20437486Y-13051167D01*
X20440682Y-13050702D01*
X20443842Y-13050077D01*
X20446960Y-13049298D01*
X20450033Y-13048368D01*
X20453053Y-13047290D01*
X20456017Y-13046069D01*
X20458919Y-13044709D01*
X20461753Y-13043213D01*
X20464516Y-13041586D01*
X20467201Y-13039830D01*
X20469803Y-13037951D01*
X20472317Y-13035951D01*
X20474739Y-13033836D01*
X20477062Y-13031608D01*
X20479282Y-13029271D01*
X20481394Y-13026830D01*
X20483392Y-13024288D01*
X20485271Y-13021650D01*
X20487026Y-13018918D01*
X20488652Y-13016098D01*
X20490144Y-13013192D01*
X20491496Y-13010205D01*
X20492704Y-13007140D01*
X20493762Y-13004002D01*
X20494665Y-13000794D01*
X20495408Y-12997520D01*
X14956266Y-4556588D02*
X14952972Y-4556680D01*
X14949703Y-4556953D01*
X14946466Y-4557401D01*
X14943264Y-4558020D01*
X14940104Y-4558804D01*
X14936991Y-4559749D01*
X14933929Y-4560848D01*
X14930924Y-4562097D01*
X14927981Y-4563491D01*
X14925105Y-4565024D01*
X14922301Y-4566691D01*
X14919575Y-4568488D01*
X14916932Y-4570408D01*
X14914376Y-4572447D01*
X14911913Y-4574600D01*
X14909548Y-4576861D01*
X14907287Y-4579226D01*
X14905134Y-4581689D01*
X14903095Y-4584245D01*
X14901174Y-4586888D01*
X14899378Y-4589614D01*
X14897711Y-4592418D01*
X14896177Y-4595294D01*
X14894784Y-4598237D01*
X14893535Y-4601242D01*
X14892435Y-4604304D01*
X14891491Y-4607418D01*
X14890707Y-4610578D01*
X14890088Y-4613779D01*
X14889640Y-4617016D01*
X14889367Y-4620285D01*
X14889275Y-4623579D01*
X23072818Y-8949821D02*
X21362772Y-8650123D01*
X7146465Y-14869757D02*
X7143903Y-14872441D01*
X7141507Y-14875204D01*
X7139275Y-14878038D01*
X7137209Y-14880940D01*
X7135309Y-14883904D01*
X7133573Y-14886925D01*
X7132003Y-14889997D01*
X7130598Y-14893115D01*
X7129359Y-14896275D01*
X7128285Y-14899472D01*
X7127376Y-14902699D01*
X7126632Y-14905952D01*
X7126053Y-14909225D01*
X7125640Y-14912515D01*
X7125392Y-14915814D01*
X7125310Y-14919119D01*
X7125392Y-14922423D01*
X7125640Y-14925723D01*
X7126053Y-14929012D01*
X7126632Y-14932286D01*
X7127376Y-14935539D01*
X7128285Y-14938766D01*
X7129359Y-14941962D01*
X7130598Y-14945122D01*
X7132003Y-14948241D01*
X7133573Y-14951313D01*
X7135309Y-14954334D01*
X7137209Y-14957297D01*
X7139275Y-14960199D01*
X7141507Y-14963034D01*
X7143903Y-14965796D01*
X7146465Y-14968481D01*
X8994021Y-13635702D02*
X8991697Y-13636962D01*
X8989356Y-13638099D01*
X8987001Y-13639114D01*
X8984634Y-13640006D01*
X8982260Y-13640777D01*
X8979882Y-13641427D01*
X8977502Y-13641958D01*
X8975124Y-13642368D01*
X8972752Y-13642660D01*
X8970387Y-13642834D01*
X8968035Y-13642890D01*
X8965697Y-13642830D01*
X8963377Y-13642653D01*
X8961078Y-13642361D01*
X8958805Y-13641953D01*
X8956558Y-13641432D01*
X8954343Y-13640797D01*
X8952162Y-13640048D01*
X8950019Y-13639188D01*
X8947916Y-13638216D01*
X8945857Y-13637132D01*
X8943845Y-13635939D01*
X8941884Y-13634636D01*
X8939976Y-13633223D01*
X8938125Y-13631702D01*
X8936334Y-13630073D01*
X8934606Y-13628337D01*
X8932945Y-13626495D01*
X8931353Y-13624547D01*
X8929835Y-13622493D01*
X8928392Y-13620335D01*
X8927029Y-13618073D01*
X8919977Y-13413573D02*
X9011650Y-13568711D01*
X8927029Y-13618073D02*
X8867089Y-13512297D01*
X10781636Y-14527747D02*
X10833655Y-14497885D01*
X10885907Y-14468460D01*
X10938380Y-14439477D01*
X10991061Y-14410939D01*
X11043935Y-14382851D01*
X11096989Y-14355215D01*
X11150210Y-14328037D01*
X11203584Y-14301320D01*
X11257097Y-14275068D01*
X11310736Y-14249284D01*
X11364488Y-14223973D01*
X11418338Y-14199139D01*
X11472274Y-14174785D01*
X11526281Y-14150915D01*
X11580346Y-14127533D01*
X11634456Y-14104643D01*
X11688597Y-14082249D01*
X11742755Y-14060354D01*
X11796917Y-14038963D01*
X11851070Y-14018080D01*
X11905199Y-13997708D01*
X11959292Y-13977851D01*
X12013334Y-13958513D01*
X12067312Y-13939698D01*
X12121212Y-13921410D01*
X12175022Y-13903653D01*
X12228727Y-13886430D01*
X12282314Y-13869745D01*
X12335769Y-13853603D01*
X12389079Y-13838007D01*
X12442230Y-13822962D01*
X12495209Y-13808470D01*
X20671701Y-11985595D02*
X20672103Y-11982982D01*
X20672645Y-11980434D01*
X20673320Y-11977952D01*
X20674125Y-11975541D01*
X20675054Y-11973202D01*
X20676102Y-11970937D01*
X20677263Y-11968750D01*
X20678533Y-11966644D01*
X20679906Y-11964619D01*
X20681377Y-11962680D01*
X20682941Y-11960829D01*
X20684593Y-11959068D01*
X20686327Y-11957401D01*
X20688139Y-11955828D01*
X20690023Y-11954354D01*
X20691975Y-11952981D01*
X20693988Y-11951711D01*
X20696059Y-11950546D01*
X20698180Y-11949491D01*
X20700349Y-11948546D01*
X20702559Y-11947715D01*
X20704804Y-11947000D01*
X20707081Y-11946404D01*
X20709384Y-11945929D01*
X20711707Y-11945578D01*
X20714046Y-11945354D01*
X20716395Y-11945259D01*
X20718749Y-11945296D01*
X20721104Y-11945466D01*
X20723453Y-11945774D01*
X20725792Y-11946221D01*
X20728115Y-11946811D01*
X12495209Y-13808470D02*
X12553095Y-13793171D01*
X12611053Y-13778348D01*
X12669073Y-13764000D01*
X12727145Y-13750128D01*
X12785258Y-13736730D01*
X12843403Y-13723808D01*
X12901567Y-13711360D01*
X12959742Y-13699388D01*
X13017918Y-13687891D01*
X13076082Y-13676869D01*
X13134227Y-13666323D01*
X13192340Y-13656251D01*
X13250412Y-13646655D01*
X13308432Y-13637534D01*
X13366390Y-13628888D01*
X13424276Y-13620717D01*
X13482079Y-13613022D01*
X13539789Y-13605801D01*
X13597396Y-13599056D01*
X13654890Y-13592786D01*
X13712259Y-13586991D01*
X13769494Y-13581671D01*
X13826585Y-13576826D01*
X13883520Y-13572457D01*
X13940291Y-13568563D01*
X13996885Y-13565144D01*
X14053294Y-13562200D01*
X14109507Y-13559731D01*
X14165512Y-13557737D01*
X14221301Y-13556219D01*
X14276863Y-13555175D01*
X14332187Y-13554607D01*
X20978452Y-10811481D02*
X20837417Y-11615379D01*
X8101976Y-13512297D02*
X8101976Y-13917772D01*
X20996081Y-10455368D02*
X20993468Y-10454966D01*
X20990920Y-10454424D01*
X20988439Y-10453749D01*
X20986027Y-10452944D01*
X20983688Y-10452015D01*
X20981423Y-10450967D01*
X20979236Y-10449806D01*
X20977130Y-10448536D01*
X20975105Y-10447163D01*
X20973166Y-10445692D01*
X20971315Y-10444128D01*
X20969555Y-10442476D01*
X20967887Y-10440742D01*
X20966314Y-10438930D01*
X20964840Y-10437045D01*
X20963467Y-10435094D01*
X20962197Y-10433081D01*
X20961032Y-10431010D01*
X20959977Y-10428888D01*
X20959032Y-10426720D01*
X20958201Y-10424510D01*
X20957486Y-10422264D01*
X20956890Y-10419988D01*
X20956415Y-10417685D01*
X20956064Y-10415362D01*
X20955840Y-10413023D01*
X20955745Y-10410674D01*
X20955782Y-10408319D01*
X20955952Y-10405965D01*
X20956260Y-10403616D01*
X20956707Y-10401277D01*
X20957297Y-10398954D01*
X8264165Y-4951485D02*
X8172493Y-4951485D01*
X7146465Y-14968481D02*
X8532132Y-16354148D01*
X21073650Y-9721987D02*
X21436815Y-7648776D01*
X9142107Y-13903668D02*
X9144431Y-13902408D01*
X9146772Y-13901271D01*
X9149127Y-13900256D01*
X9151493Y-13899364D01*
X9153867Y-13898593D01*
X9156246Y-13897943D01*
X9158626Y-13897413D01*
X9161004Y-13897002D01*
X9163376Y-13896710D01*
X9165741Y-13896536D01*
X9168093Y-13896480D01*
X9170431Y-13896541D01*
X9172751Y-13896717D01*
X9175049Y-13897010D01*
X9177323Y-13897417D01*
X9179570Y-13897939D01*
X9181785Y-13898574D01*
X9183966Y-13899322D01*
X9186109Y-13900182D01*
X9188212Y-13901155D01*
X9190271Y-13902238D01*
X9192283Y-13903431D01*
X9194244Y-13904735D01*
X9196152Y-13906147D01*
X9198003Y-13907668D01*
X9199794Y-13909297D01*
X9201522Y-13911033D01*
X9203183Y-13912875D01*
X9204775Y-13914824D01*
X9206293Y-13916877D01*
X9207736Y-13919035D01*
X9209099Y-13921298D01*
X16990693Y-4623579D02*
X16990601Y-4620285D01*
X16990328Y-4617016D01*
X16989880Y-4613779D01*
X16989261Y-4610578D01*
X16988477Y-4607418D01*
X16987532Y-4604304D01*
X16986433Y-4601242D01*
X16985184Y-4598237D01*
X16983790Y-4595294D01*
X16982257Y-4592418D01*
X16980590Y-4589614D01*
X16978793Y-4586888D01*
X16976873Y-4584245D01*
X16974834Y-4581689D01*
X16972681Y-4579226D01*
X16970419Y-4576862D01*
X16968055Y-4574600D01*
X16965592Y-4572447D01*
X16963036Y-4570408D01*
X16960393Y-4568488D01*
X16957667Y-4566691D01*
X16954863Y-4565024D01*
X16951987Y-4563491D01*
X16949044Y-4562097D01*
X16946039Y-4560848D01*
X16942977Y-4559749D01*
X16939863Y-4558804D01*
X16936703Y-4558020D01*
X16933502Y-4557401D01*
X16930264Y-4556953D01*
X16926996Y-4556680D01*
X16923702Y-4556588D01*
X20837417Y-11615379D02*
X20837015Y-11617992D01*
X20836473Y-11620540D01*
X20835798Y-11623021D01*
X20834993Y-11625433D01*
X20834064Y-11627772D01*
X20833016Y-11630037D01*
X20831855Y-11632223D01*
X20830586Y-11634330D01*
X20829213Y-11636354D01*
X20827741Y-11638293D01*
X20826177Y-11640145D01*
X20824525Y-11641905D01*
X20822791Y-11643573D01*
X20820979Y-11645146D01*
X20819095Y-11646620D01*
X20817143Y-11647993D01*
X20815130Y-11649263D01*
X20813059Y-11650427D01*
X20810938Y-11651483D01*
X20808769Y-11652428D01*
X20806559Y-11653259D01*
X20804314Y-11653974D01*
X20802037Y-11654570D01*
X20799734Y-11655045D01*
X20797411Y-11655396D01*
X20795072Y-11655620D01*
X20792723Y-11655715D01*
X20790369Y-11655678D01*
X20788014Y-11655508D01*
X20785665Y-11655200D01*
X20783326Y-11654753D01*
X20781003Y-11654164D01*
X22367645Y-12891744D02*
X22371259Y-12892312D01*
X22374830Y-12892698D01*
X22378352Y-12892905D01*
X22381824Y-12892935D01*
X22385241Y-12892792D01*
X22388601Y-12892480D01*
X22391900Y-12892001D01*
X22395135Y-12891358D01*
X22398303Y-12890556D01*
X22401401Y-12889596D01*
X22404425Y-12888483D01*
X22407372Y-12887219D01*
X22410240Y-12885809D01*
X22413024Y-12884254D01*
X22415721Y-12882558D01*
X22418329Y-12880725D01*
X22420843Y-12878758D01*
X22423262Y-12876660D01*
X22425581Y-12874434D01*
X22427798Y-12872083D01*
X22429908Y-12869611D01*
X22431910Y-12867020D01*
X22433799Y-12864315D01*
X22435572Y-12861498D01*
X22437227Y-12858573D01*
X22438760Y-12855542D01*
X22440167Y-12852410D01*
X22441447Y-12849179D01*
X22442594Y-12845852D01*
X22443606Y-12842432D01*
X22444481Y-12838924D01*
X22445213Y-12835330D01*
X9209099Y-13921298D02*
X9540530Y-14492489D01*
X21063073Y-10074574D02*
X21065365Y-10074976D01*
X21067614Y-10075517D01*
X21069817Y-10076193D01*
X21071970Y-10076998D01*
X21074072Y-10077927D01*
X21076119Y-10078974D01*
X21078110Y-10080135D01*
X21080041Y-10081405D01*
X21081910Y-10082778D01*
X21083715Y-10084249D01*
X21085452Y-10085813D01*
X21087120Y-10087465D01*
X21088716Y-10089200D01*
X21090236Y-10091012D01*
X21091679Y-10092896D01*
X21093043Y-10094847D01*
X21094323Y-10096861D01*
X21095518Y-10098931D01*
X21096626Y-10101053D01*
X21097643Y-10103221D01*
X21098567Y-10105431D01*
X21099395Y-10107677D01*
X21100126Y-10109954D01*
X21100755Y-10112256D01*
X21101282Y-10114580D01*
X21101702Y-10116919D01*
X21102014Y-10119268D01*
X21102215Y-10121622D01*
X21102303Y-10123976D01*
X21102274Y-10126326D01*
X21102126Y-10128664D01*
X21101857Y-10130988D01*
X8101976Y-13917772D02*
X8093382Y-13925725D01*
X8084789Y-13933718D01*
X8076198Y-13941749D01*
X8067612Y-13949814D01*
X8059031Y-13957914D01*
X8050456Y-13966045D01*
X8041889Y-13974206D01*
X8033331Y-13982394D01*
X8024784Y-13990609D01*
X8016248Y-13998847D01*
X8007725Y-14007107D01*
X7999216Y-14015387D01*
X7990722Y-14023686D01*
X7982246Y-14032000D01*
X7973787Y-14040329D01*
X7965348Y-14048670D01*
X7956930Y-14057021D01*
X7948533Y-14065381D01*
X7940160Y-14073747D01*
X7931811Y-14082117D01*
X7923488Y-14090490D01*
X7915192Y-14098864D01*
X7906925Y-14107237D01*
X7898687Y-14115606D01*
X7890480Y-14123970D01*
X7882306Y-14132327D01*
X7874165Y-14140675D01*
X7866059Y-14149012D01*
X7857989Y-14157336D01*
X7849957Y-14165646D01*
X7841963Y-14173938D01*
X7834009Y-14182212D01*
X20781003Y-11654164D02*
X20778700Y-11653762D01*
X20776423Y-11653220D01*
X20774175Y-11652544D01*
X20771961Y-11651739D01*
X20769786Y-11650811D01*
X20767654Y-11649763D01*
X20765570Y-11648602D01*
X20763539Y-11647332D01*
X20761564Y-11645959D01*
X20759651Y-11644488D01*
X20757803Y-11642924D01*
X20756026Y-11641272D01*
X20754323Y-11639538D01*
X20752700Y-11637725D01*
X20751161Y-11635841D01*
X20749711Y-11633890D01*
X20748353Y-11631876D01*
X20747093Y-11629806D01*
X20745935Y-11627684D01*
X20744884Y-11625516D01*
X20743943Y-11623306D01*
X20743118Y-11621060D01*
X20742413Y-11618783D01*
X20741833Y-11616481D01*
X20741382Y-11614157D01*
X20741064Y-11611819D01*
X20740885Y-11609469D01*
X20740848Y-11607115D01*
X20740959Y-11604761D01*
X20741221Y-11602412D01*
X20741639Y-11600073D01*
X20742219Y-11597750D01*
X20890305Y-4951485D02*
X16990693Y-4951485D01*
X10245704Y-5698969D02*
X9219676Y-5698969D01*
X8168967Y-13413573D02*
X8919977Y-13413573D01*
X20664649Y-12588519D02*
X22367645Y-12891744D01*
X16923702Y-4556588D02*
X14956266Y-4556588D01*
X15382896Y-13484090D02*
X15382896Y-12179518D01*
X9011650Y-13568711D02*
X9012910Y-13571034D01*
X9014047Y-13573375D01*
X9015062Y-13575731D01*
X9015954Y-13578097D01*
X9016725Y-13580471D01*
X9017375Y-13582849D01*
X9017905Y-13585229D01*
X9018316Y-13587607D01*
X9018608Y-13589980D01*
X9018782Y-13592344D01*
X9018838Y-13594697D01*
X9018778Y-13597035D01*
X9018601Y-13599354D01*
X9018308Y-13601653D01*
X9017901Y-13603927D01*
X9017380Y-13606173D01*
X9016744Y-13608388D01*
X9015996Y-13610569D01*
X9015136Y-13612713D01*
X9014164Y-13614816D01*
X9013080Y-13616874D01*
X9011887Y-13618886D01*
X9010583Y-13620848D01*
X9009171Y-13622756D01*
X9007650Y-13624607D01*
X9006021Y-13626398D01*
X9004285Y-13628125D01*
X9002443Y-13629787D01*
X9000494Y-13631378D01*
X8998441Y-13632897D01*
X8996283Y-13634339D01*
X8994021Y-13635702D01*
X20766900Y-12003225D02*
X20664649Y-12588519D01*
X9864911Y-15053102D02*
X9865902Y-15054003D01*
X9866894Y-15054736D01*
X9867885Y-15055318D01*
X9868877Y-15055767D01*
X9869869Y-15056099D01*
X9870860Y-15056332D01*
X9871852Y-15056484D01*
X9873174Y-15056591D01*
X9874496Y-15056625D01*
X9875488Y-15056628D01*
X18489188Y-12285294D02*
X18429248Y-12634355D01*
X21168849Y-9739616D02*
X21168447Y-9742229D01*
X21167905Y-9744778D01*
X21167230Y-9747259D01*
X21166425Y-9749671D01*
X21165496Y-9752010D01*
X21164448Y-9754274D01*
X21163287Y-9756461D01*
X21162017Y-9758568D01*
X21160644Y-9760592D01*
X21159173Y-9762531D01*
X21157609Y-9764382D01*
X21155957Y-9766143D01*
X21154223Y-9767811D01*
X21152411Y-9769383D01*
X21150526Y-9770857D01*
X21148575Y-9772230D01*
X21146562Y-9773501D01*
X21144491Y-9774665D01*
X21142369Y-9775721D01*
X21140201Y-9776665D01*
X21137991Y-9777496D01*
X21135746Y-9778211D01*
X21133469Y-9778807D01*
X21131166Y-9779282D01*
X21128843Y-9779633D01*
X21126504Y-9779857D01*
X21124155Y-9779952D01*
X21121800Y-9779916D01*
X21119446Y-9779745D01*
X21117097Y-9779437D01*
X21114758Y-9778990D01*
X21112435Y-9778401D01*
D12*
D13*
X8151396Y-11508019D02*
X8171396Y-11528019D01*
X8171396Y-11508019D02*
X8151396Y-11528019D01*
X8151396Y-11878019D02*
X8171396Y-11898019D01*
X8171396Y-11878019D02*
X8151396Y-11898019D01*
X8346396Y-11570519D02*
X8366396Y-11590519D01*
X8366396Y-11570519D02*
X8346396Y-11590519D01*
X8346396Y-11693019D02*
X8366396Y-11713019D01*
X8366396Y-11693019D02*
X8346396Y-11713019D01*
X8346396Y-11815519D02*
X8366396Y-11835519D01*
X8366396Y-11815519D02*
X8346396Y-11835519D01*
D14*
X7605396Y-14922018D02*
G75*
G03*
X7605396Y-14922018I-15000J0D01*
G01*
X7858496Y-14758218D02*
G75*
G03*
X7858496Y-14758218I-15000J0D01*
G01*
X7961979Y-14775134D02*
G75*
G03*
X7961979Y-14775134I-15000J0D01*
G01*
X8168796Y-6020818D02*
G75*
G03*
X8168796Y-6020818I-15000J0D01*
G01*
X8190396Y-6567018D02*
G75*
G03*
X8190396Y-6567018I-15000J0D01*
G01*
X8222896Y-6077018D02*
G75*
G03*
X8222896Y-6077018I-15000J0D01*
G01*
X8245396Y-10257018D02*
G75*
G03*
X8245396Y-10257018I-15000J0D01*
G01*
X8275196Y-6026918D02*
G75*
G03*
X8275196Y-6026918I-15000J0D01*
G01*
X8290396Y-9787018D02*
G75*
G03*
X8290396Y-9787018I-15000J0D01*
G01*
X8312744Y-12213251D02*
G75*
G03*
X8312744Y-12213251I-15000J0D01*
G01*
X8324372Y-10360330D02*
G75*
G03*
X8324372Y-10360330I-15000J0D01*
G01*
X8362096Y-6026418D02*
G75*
G03*
X8362096Y-6026418I-15000J0D01*
G01*
X8417897Y-10609518D02*
G75*
G03*
X8417897Y-10609518I-15000J0D01*
G01*
X8434759Y-14301388D02*
G75*
G03*
X8434759Y-14301388I-15000J0D01*
G01*
X8530396Y-14077018D02*
G75*
G03*
X8530396Y-14077018I-15000J0D01*
G01*
X8638396Y-5980018D02*
G75*
G03*
X8638396Y-5980018I-15000J0D01*
G01*
X8706015Y-6131118D02*
G75*
G03*
X8706015Y-6131118I-15000J0D01*
G01*
X8713060Y-12040777D02*
G75*
G03*
X8713060Y-12040777I-15000J0D01*
G01*
X8720397Y-14637018D02*
G75*
G03*
X8720397Y-14637018I-15000J0D01*
G01*
X8720700Y-6897321D02*
G75*
G03*
X8720700Y-6897321I-15000J0D01*
G01*
X8721545Y-6822018D02*
G75*
G03*
X8721545Y-6822018I-15000J0D01*
G01*
X8732896Y-14274518D02*
G75*
G03*
X8732896Y-14274518I-15000J0D01*
G01*
X8751367Y-5777418D02*
G75*
G03*
X8751367Y-5777418I-15000J0D01*
G01*
X8760396Y-5317018D02*
G75*
G03*
X8760396Y-5317018I-15000J0D01*
G01*
X8763876Y-6775497D02*
G75*
G03*
X8763876Y-6775497I-15000J0D01*
G01*
X8765396Y-6602018D02*
G75*
G03*
X8765396Y-6602018I-15000J0D01*
G01*
X8804017Y-5624939D02*
G75*
G03*
X8804017Y-5624939I-15000J0D01*
G01*
X8852897Y-7484518D02*
G75*
G03*
X8852897Y-7484518I-15000J0D01*
G01*
X8860397Y-11487018D02*
G75*
G03*
X8860397Y-11487018I-15000J0D01*
G01*
X8940197Y-12201218D02*
G75*
G03*
X8940197Y-12201218I-15000J0D01*
G01*
X9009910Y-12199563D02*
G75*
G03*
X9009910Y-12199563I-15000J0D01*
G01*
X9055396Y-12462018D02*
G75*
G03*
X9055396Y-12462018I-15000J0D01*
G01*
X9082897Y-9642018D02*
G75*
G03*
X9082897Y-9642018I-15000J0D01*
G01*
X9210396Y-13447018D02*
G75*
G03*
X9210396Y-13447018I-15000J0D01*
G01*
X9230397Y-12462018D02*
G75*
G03*
X9230397Y-12462018I-15000J0D01*
G01*
X9553821Y-13382203D02*
G75*
G03*
X9553821Y-13382203I-15000J0D01*
G01*
X9570296Y-13291474D02*
G75*
G03*
X9570296Y-13291474I-15000J0D01*
G01*
X9681498Y-13327345D02*
G75*
G03*
X9681498Y-13327345I-15000J0D01*
G01*
X9688496Y-9898618D02*
G75*
G03*
X9688496Y-9898618I-15000J0D01*
G01*
X9690396Y-13527018D02*
G75*
G03*
X9690396Y-13527018I-15000J0D01*
G01*
X9690797Y-9835718D02*
G75*
G03*
X9690797Y-9835718I-15000J0D01*
G01*
X9700397Y-9642018D02*
G75*
G03*
X9700397Y-9642018I-15000J0D01*
G01*
X9820397Y-14527018D02*
G75*
G03*
X9820397Y-14527018I-15000J0D01*
G01*
X9895397Y-9642018D02*
G75*
G03*
X9895397Y-9642018I-15000J0D01*
G01*
X10007896Y-9642018D02*
G75*
G03*
X10007896Y-9642018I-15000J0D01*
G01*
X10073828Y-9957985D02*
G75*
G03*
X10073828Y-9957985I-15000J0D01*
G01*
X10147896Y-9642018D02*
G75*
G03*
X10147896Y-9642018I-15000J0D01*
G01*
X10264577Y-5947637D02*
G75*
G03*
X10264577Y-5947637I-15000J0D01*
G01*
X10320350Y-12961159D02*
G75*
G03*
X10320350Y-12961159I-15000J0D01*
G01*
X10341048Y-6454067D02*
G75*
G03*
X10341048Y-6454067I-15000J0D01*
G01*
X10341498Y-6962517D02*
G75*
G03*
X10341498Y-6962517I-15000J0D01*
G01*
X10342998Y-7218017D02*
G75*
G03*
X10342998Y-7218017I-15000J0D01*
G01*
X10343798Y-6710817D02*
G75*
G03*
X10343798Y-6710817I-15000J0D01*
G01*
X10343848Y-7472867D02*
G75*
G03*
X10343848Y-7472867I-15000J0D01*
G01*
X10344448Y-8235467D02*
G75*
G03*
X10344448Y-8235467I-15000J0D01*
G01*
X10345348Y-7728367D02*
G75*
G03*
X10345348Y-7728367I-15000J0D01*
G01*
X10348098Y-7985117D02*
G75*
G03*
X10348098Y-7985117I-15000J0D01*
G01*
X10407896Y-9642018D02*
G75*
G03*
X10407896Y-9642018I-15000J0D01*
G01*
X10430397Y-13104518D02*
G75*
G03*
X10430397Y-13104518I-15000J0D01*
G01*
X10641278Y-6080818D02*
G75*
G03*
X10641278Y-6080818I-15000J0D01*
G01*
X10653743Y-6619030D02*
G75*
G03*
X10653743Y-6619030I-15000J0D01*
G01*
X10834483Y-7458018D02*
G75*
G03*
X10834483Y-7458018I-15000J0D01*
G01*
X10880397Y-5747018D02*
G75*
G03*
X10880397Y-5747018I-15000J0D01*
G01*
X10890397Y-5457018D02*
G75*
G03*
X10890397Y-5457018I-15000J0D01*
G01*
X10920146Y-7630919D02*
G75*
G03*
X10920146Y-7630919I-15000J0D01*
G01*
X10926170Y-8350087D02*
G75*
G03*
X10926170Y-8350087I-15000J0D01*
G01*
X10982290Y-8555125D02*
G75*
G03*
X10982290Y-8555125I-15000J0D01*
G01*
X11350396Y-7937018D02*
G75*
G03*
X11350396Y-7937018I-15000J0D01*
G01*
X11375396Y-13392018D02*
G75*
G03*
X11375396Y-13392018I-15000J0D01*
G01*
X11404543Y-7820018D02*
G75*
G03*
X11404543Y-7820018I-15000J0D01*
G01*
X11432243Y-11217018D02*
G75*
G03*
X11432243Y-11217018I-15000J0D01*
G01*
X11457193Y-8812721D02*
G75*
G03*
X11457193Y-8812721I-15000J0D01*
G01*
X11538396Y-9733018D02*
G75*
G03*
X11538396Y-9733018I-15000J0D01*
G01*
X11550396Y-7937018D02*
G75*
G03*
X11550396Y-7937018I-15000J0D01*
G01*
X11580396Y-7482018D02*
G75*
G03*
X11580396Y-7482018I-15000J0D01*
G01*
X11646965Y-12297949D02*
G75*
G03*
X11646965Y-12297949I-15000J0D01*
G01*
X11730396Y-12087018D02*
G75*
G03*
X11730396Y-12087018I-15000J0D01*
G01*
X11735796Y-12355618D02*
G75*
G03*
X11735796Y-12355618I-15000J0D01*
G01*
X11750396Y-9554518D02*
G75*
G03*
X11750396Y-9554518I-15000J0D01*
G01*
X11754596Y-6161118D02*
G75*
G03*
X11754596Y-6161118I-15000J0D01*
G01*
X11761196Y-9975518D02*
G75*
G03*
X11761196Y-9975518I-15000J0D01*
G01*
X11761997Y-8066418D02*
G75*
G03*
X11761997Y-8066418I-15000J0D01*
G01*
X11817193Y-6244368D02*
G75*
G03*
X11817193Y-6244368I-15000J0D01*
G01*
X11817228Y-6419388D02*
G75*
G03*
X11817228Y-6419388I-15000J0D01*
G01*
X11822484Y-10062160D02*
G75*
G03*
X11822484Y-10062160I-15000J0D01*
G01*
X11823277Y-8154596D02*
G75*
G03*
X11823277Y-8154596I-15000J0D01*
G01*
X11917196Y-8331994D02*
G75*
G03*
X11917196Y-8331994I-15000J0D01*
G01*
X11917296Y-10239254D02*
G75*
G03*
X11917296Y-10239254I-15000J0D01*
G01*
X12396954Y-9884354D02*
G75*
G03*
X12396954Y-9884354I-15000J0D01*
G01*
X12397196Y-7977094D02*
G75*
G03*
X12397196Y-7977094I-15000J0D01*
G01*
X12457290Y-12162306D02*
G75*
G03*
X12457290Y-12162306I-15000J0D01*
G01*
X12490978Y-10061807D02*
G75*
G03*
X12490978Y-10061807I-15000J0D01*
G01*
X12491414Y-8154377D02*
G75*
G03*
X12491414Y-8154377I-15000J0D01*
G01*
X12496242Y-6244901D02*
G75*
G03*
X12496242Y-6244901I-15000J0D01*
G01*
X12510396Y-7917018D02*
G75*
G03*
X12510396Y-7917018I-15000J0D01*
G01*
X12510396Y-9817018D02*
G75*
G03*
X12510396Y-9817018I-15000J0D01*
G01*
X12510396Y-5977018D02*
G75*
G03*
X12510396Y-5977018I-15000J0D01*
G01*
X12517896Y-11349518D02*
G75*
G03*
X12517896Y-11349518I-15000J0D01*
G01*
X12563396Y-9498018D02*
G75*
G03*
X12563396Y-9498018I-15000J0D01*
G01*
X12620396Y-7507018D02*
G75*
G03*
X12620396Y-7507018I-15000J0D01*
G01*
X12857896Y-10732018D02*
G75*
G03*
X12857896Y-10732018I-15000J0D01*
G01*
X12877396Y-9580018D02*
G75*
G03*
X12877396Y-9580018I-15000J0D01*
G01*
X12960396Y-7267018D02*
G75*
G03*
X12960396Y-7267018I-15000J0D01*
G01*
X13142896Y-7294368D02*
G75*
G03*
X13142896Y-7294368I-15000J0D01*
G01*
X13143844Y-7399668D02*
G75*
G03*
X13143844Y-7399668I-15000J0D01*
G01*
X13234396Y-10838018D02*
G75*
G03*
X13234396Y-10838018I-15000J0D01*
G01*
X13237396Y-10308018D02*
G75*
G03*
X13237396Y-10308018I-15000J0D01*
G01*
X13250396Y-7227018D02*
G75*
G03*
X13250396Y-7227018I-15000J0D01*
G01*
X13250396Y-7494518D02*
G75*
G03*
X13250396Y-7494518I-15000J0D01*
G01*
X13250396Y-7807018D02*
G75*
G03*
X13250396Y-7807018I-15000J0D01*
G01*
X13303376Y-9620297D02*
G75*
G03*
X13303376Y-9620297I-15000J0D01*
G01*
X13303886Y-7345118D02*
G75*
G03*
X13303886Y-7345118I-15000J0D01*
G01*
X13303886Y-9544618D02*
G75*
G03*
X13303886Y-9544618I-15000J0D01*
G01*
X13303886Y-10023818D02*
G75*
G03*
X13303886Y-10023818I-15000J0D01*
G01*
X13350396Y-13497018D02*
G75*
G03*
X13350396Y-13497018I-15000J0D01*
G01*
X13360396Y-12357018D02*
G75*
G03*
X13360396Y-12357018I-15000J0D01*
G01*
X13409198Y-9441758D02*
G75*
G03*
X13409198Y-9441758I-15000J0D01*
G01*
X13460396Y-7657018D02*
G75*
G03*
X13460396Y-7657018I-15000J0D01*
G01*
X13491396Y-9797018D02*
G75*
G03*
X13491396Y-9797018I-15000J0D01*
G01*
X13530396Y-9099518D02*
G75*
G03*
X13530396Y-9099518I-15000J0D01*
G01*
X13547896Y-10024518D02*
G75*
G03*
X13547896Y-10024518I-15000J0D01*
G01*
X13580396Y-11487018D02*
G75*
G03*
X13580396Y-11487018I-15000J0D01*
G01*
X13590396Y-6087018D02*
G75*
G03*
X13590396Y-6087018I-15000J0D01*
G01*
X13599396Y-5921718D02*
G75*
G03*
X13599396Y-5921718I-15000J0D01*
G01*
X13650396Y-7317018D02*
G75*
G03*
X13650396Y-7317018I-15000J0D01*
G01*
X13658397Y-5863918D02*
G75*
G03*
X13658397Y-5863918I-15000J0D01*
G01*
X13659596Y-9679818D02*
G75*
G03*
X13659596Y-9679818I-15000J0D01*
G01*
X13660696Y-7766718D02*
G75*
G03*
X13660696Y-7766718I-15000J0D01*
G01*
X13667896Y-9489518D02*
G75*
G03*
X13667896Y-9489518I-15000J0D01*
G01*
X13721055Y-5946613D02*
G75*
G03*
X13721055Y-5946613I-15000J0D01*
G01*
X13721883Y-9762138D02*
G75*
G03*
X13721883Y-9762138I-15000J0D01*
G01*
X13722315Y-7854377D02*
G75*
G03*
X13722315Y-7854377I-15000J0D01*
G01*
X13747896Y-9299518D02*
G75*
G03*
X13747896Y-9299518I-15000J0D01*
G01*
X13750396Y-10184518D02*
G75*
G03*
X13750396Y-10184518I-15000J0D01*
G01*
X13850396Y-12062018D02*
G75*
G03*
X13850396Y-12062018I-15000J0D01*
G01*
X13895096Y-11957318D02*
G75*
G03*
X13895096Y-11957318I-15000J0D01*
G01*
X13955297Y-11869418D02*
G75*
G03*
X13955297Y-11869418I-15000J0D01*
G01*
X14016674Y-11957221D02*
G75*
G03*
X14016674Y-11957221I-15000J0D01*
G01*
X14055693Y-10906485D02*
G75*
G03*
X14055693Y-10906485I-15000J0D01*
G01*
X14170396Y-9197018D02*
G75*
G03*
X14170396Y-9197018I-15000J0D01*
G01*
X14239396Y-7259018D02*
G75*
G03*
X14239396Y-7259018I-15000J0D01*
G01*
X14296196Y-10121802D02*
G75*
G03*
X14296196Y-10121802I-15000J0D01*
G01*
X14391378Y-9762213D02*
G75*
G03*
X14391378Y-9762213I-15000J0D01*
G01*
X14391710Y-7855088D02*
G75*
G03*
X14391710Y-7855088I-15000J0D01*
G01*
X14392350Y-5948097D02*
G75*
G03*
X14392350Y-5948097I-15000J0D01*
G01*
X14410396Y-6147018D02*
G75*
G03*
X14410396Y-6147018I-15000J0D01*
G01*
X14435396Y-10159518D02*
G75*
G03*
X14435396Y-10159518I-15000J0D01*
G01*
X14436896Y-10546018D02*
G75*
G03*
X14436896Y-10546018I-15000J0D01*
G01*
X14569896Y-10546018D02*
G75*
G03*
X14569896Y-10546018I-15000J0D01*
G01*
X14680396Y-12357018D02*
G75*
G03*
X14680396Y-12357018I-15000J0D01*
G01*
X14685684Y-11956942D02*
G75*
G03*
X14685684Y-11956942I-15000J0D01*
G01*
X14695396Y-9539518D02*
G75*
G03*
X14695396Y-9539518I-15000J0D01*
G01*
X14790396Y-11802018D02*
G75*
G03*
X14790396Y-11802018I-15000J0D01*
G01*
X14790396Y-11959518D02*
G75*
G03*
X14790396Y-11959518I-15000J0D01*
G01*
X14850396Y-10314518D02*
G75*
G03*
X14850396Y-10314518I-15000J0D01*
G01*
X14889200Y-11289618D02*
G75*
G03*
X14889200Y-11289618I-15000J0D01*
G01*
X14910396Y-13182018D02*
G75*
G03*
X14910396Y-13182018I-15000J0D01*
G01*
X14915396Y-8269518D02*
G75*
G03*
X14915396Y-8269518I-15000J0D01*
G01*
X15040396Y-10074368D02*
G75*
G03*
X15040396Y-10074368I-15000J0D01*
G01*
X15045396Y-6031618D02*
G75*
G03*
X15045396Y-6031618I-15000J0D01*
G01*
X15045396Y-5529518D02*
G75*
G03*
X15045396Y-5529518I-15000J0D01*
G01*
X15080396Y-11297018D02*
G75*
G03*
X15080396Y-11297018I-15000J0D01*
G01*
X15121396Y-9267018D02*
G75*
G03*
X15121396Y-9267018I-15000J0D01*
G01*
X15145396Y-13067018D02*
G75*
G03*
X15145396Y-13067018I-15000J0D01*
G01*
X15150396Y-12417018D02*
G75*
G03*
X15150396Y-12417018I-15000J0D01*
G01*
X15150396Y-10367018D02*
G75*
G03*
X15150396Y-10367018I-15000J0D01*
G01*
X15154396Y-8271018D02*
G75*
G03*
X15154396Y-8271018I-15000J0D01*
G01*
X15160396Y-6057018D02*
G75*
G03*
X15160396Y-6057018I-15000J0D01*
G01*
X15160396Y-9950018D02*
G75*
G03*
X15160396Y-9950018I-15000J0D01*
G01*
X15170396Y-11295827D02*
G75*
G03*
X15170396Y-11295827I-15000J0D01*
G01*
X15173396Y-6966018D02*
G75*
G03*
X15173396Y-6966018I-15000J0D01*
G01*
X15208886Y-8598018D02*
G75*
G03*
X15208886Y-8598018I-15000J0D01*
G01*
X15210298Y-6683318D02*
G75*
G03*
X15210298Y-6683318I-15000J0D01*
G01*
X15280396Y-11067018D02*
G75*
G03*
X15280396Y-11067018I-15000J0D01*
G01*
X15367889Y-11975411D02*
G75*
G03*
X15367889Y-11975411I-15000J0D01*
G01*
X15370396Y-6757018D02*
G75*
G03*
X15370396Y-6757018I-15000J0D01*
G01*
X15372896Y-8202018D02*
G75*
G03*
X15372896Y-8202018I-15000J0D01*
G01*
X15433396Y-7064018D02*
G75*
G03*
X15433396Y-7064018I-15000J0D01*
G01*
X15470208Y-11937230D02*
G75*
G03*
X15470208Y-11937230I-15000J0D01*
G01*
X15557896Y-8362018D02*
G75*
G03*
X15557896Y-8362018I-15000J0D01*
G01*
X15560396Y-6447018D02*
G75*
G03*
X15560396Y-6447018I-15000J0D01*
G01*
X15562896Y-4959618D02*
G75*
G03*
X15562896Y-4959618I-15000J0D01*
G01*
X15565396Y-6866218D02*
G75*
G03*
X15565396Y-6866218I-15000J0D01*
G01*
X15565796Y-8774318D02*
G75*
G03*
X15565796Y-8774318I-15000J0D01*
G01*
X15573887Y-11894116D02*
G75*
G03*
X15573887Y-11894116I-15000J0D01*
G01*
X15623984Y-5045673D02*
G75*
G03*
X15623984Y-5045673I-15000J0D01*
G01*
X15626989Y-6954837D02*
G75*
G03*
X15626989Y-6954837I-15000J0D01*
G01*
X15627260Y-8861616D02*
G75*
G03*
X15627260Y-8861616I-15000J0D01*
G01*
X15697896Y-11848764D02*
G75*
G03*
X15697896Y-11848764I-15000J0D01*
G01*
X15719696Y-5243930D02*
G75*
G03*
X15719696Y-5243930I-15000J0D01*
G01*
X15721596Y-7131994D02*
G75*
G03*
X15721596Y-7131994I-15000J0D01*
G01*
X15722096Y-9039254D02*
G75*
G03*
X15722096Y-9039254I-15000J0D01*
G01*
X16201396Y-6777094D02*
G75*
G03*
X16201396Y-6777094I-15000J0D01*
G01*
X16201396Y-8684354D02*
G75*
G03*
X16201396Y-8684354I-15000J0D01*
G01*
X16230396Y-6647018D02*
G75*
G03*
X16230396Y-6647018I-15000J0D01*
G01*
X16240396Y-8567018D02*
G75*
G03*
X16240396Y-8567018I-15000J0D01*
G01*
X16260396Y-7387018D02*
G75*
G03*
X16260396Y-7387018I-15000J0D01*
G01*
X16260396Y-9287018D02*
G75*
G03*
X16260396Y-9287018I-15000J0D01*
G01*
X16260396Y-5487018D02*
G75*
G03*
X16260396Y-5487018I-15000J0D01*
G01*
X16295610Y-6954655D02*
G75*
G03*
X16295610Y-6954655I-15000J0D01*
G01*
X16295926Y-8861572D02*
G75*
G03*
X16295926Y-8861572I-15000J0D01*
G01*
X16299699Y-5049202D02*
G75*
G03*
X16299699Y-5049202I-15000J0D01*
G01*
X16315396Y-5264518D02*
G75*
G03*
X16315396Y-5264518I-15000J0D01*
G01*
X16362997Y-4958818D02*
G75*
G03*
X16362997Y-4958818I-15000J0D01*
G01*
X16538743Y-10567236D02*
G75*
G03*
X16538743Y-10567236I-15000J0D01*
G01*
X16562896Y-5222018D02*
G75*
G03*
X16562896Y-5222018I-15000J0D01*
G01*
X16661536Y-5609479D02*
G75*
G03*
X16661536Y-5609479I-15000J0D01*
G01*
X16927897Y-9684518D02*
G75*
G03*
X16927897Y-9684518I-15000J0D01*
G01*
X16945669Y-5683509D02*
G75*
G03*
X16945669Y-5683509I-15000J0D01*
G01*
X16978399Y-11402722D02*
G75*
G03*
X16978399Y-11402722I-15000J0D01*
G01*
X17111466Y-9022049D02*
G75*
G03*
X17111466Y-9022049I-15000J0D01*
G01*
X17201397Y-11104018D02*
G75*
G03*
X17201397Y-11104018I-15000J0D01*
G01*
X17206646Y-7173268D02*
G75*
G03*
X17206646Y-7173268I-15000J0D01*
G01*
X17367896Y-7014518D02*
G75*
G03*
X17367896Y-7014518I-15000J0D01*
G01*
X17368397Y-9612018D02*
G75*
G03*
X17368397Y-9612018I-15000J0D01*
G01*
X17400397Y-7777018D02*
G75*
G03*
X17400397Y-7777018I-15000J0D01*
G01*
X17400397Y-8007018D02*
G75*
G03*
X17400397Y-8007018I-15000J0D01*
G01*
X17502897Y-9402018D02*
G75*
G03*
X17502897Y-9402018I-15000J0D01*
G01*
X17515496Y-9793018D02*
G75*
G03*
X17515496Y-9793018I-15000J0D01*
G01*
X17576696Y-9872718D02*
G75*
G03*
X17576696Y-9872718I-15000J0D01*
G01*
X17649297Y-7888618D02*
G75*
G03*
X17649297Y-7888618I-15000J0D01*
G01*
X17655397Y-7457018D02*
G75*
G03*
X17655397Y-7457018I-15000J0D01*
G01*
X17711023Y-7970360D02*
G75*
G03*
X17711023Y-7970360I-15000J0D01*
G01*
X17776097Y-5984918D02*
G75*
G03*
X17776097Y-5984918I-15000J0D01*
G01*
X17838760Y-6064858D02*
G75*
G03*
X17838760Y-6064858I-15000J0D01*
G01*
X17870396Y-5864518D02*
G75*
G03*
X17870396Y-5864518I-15000J0D01*
G01*
X17870396Y-11237018D02*
G75*
G03*
X17870396Y-11237018I-15000J0D01*
G01*
X17910396Y-6297018D02*
G75*
G03*
X17910396Y-6297018I-15000J0D01*
G01*
X17940397Y-9597018D02*
G75*
G03*
X17940397Y-9597018I-15000J0D01*
G01*
X18000397Y-7437018D02*
G75*
G03*
X18000397Y-7437018I-15000J0D01*
G01*
X18080396Y-9327018D02*
G75*
G03*
X18080396Y-9327018I-15000J0D01*
G01*
X18100397Y-7697018D02*
G75*
G03*
X18100397Y-7697018I-15000J0D01*
G01*
X18210397Y-7437018D02*
G75*
G03*
X18210397Y-7437018I-15000J0D01*
G01*
X18246653Y-9920899D02*
G75*
G03*
X18246653Y-9920899I-15000J0D01*
G01*
X18377120Y-8016903D02*
G75*
G03*
X18377120Y-8016903I-15000J0D01*
G01*
X18519779Y-6110020D02*
G75*
G03*
X18519779Y-6110020I-15000J0D01*
G01*
X18553197Y-10613618D02*
G75*
G03*
X18553197Y-10613618I-15000J0D01*
G01*
X18590396Y-5917018D02*
G75*
G03*
X18590396Y-5917018I-15000J0D01*
G01*
X18680396Y-11597018D02*
G75*
G03*
X18680396Y-11597018I-15000J0D01*
G01*
X18685597Y-8707818D02*
G75*
G03*
X18685597Y-8707818I-15000J0D01*
G01*
X18784099Y-11386389D02*
G75*
G03*
X18784099Y-11386389I-15000J0D01*
G01*
X18819996Y-6808018D02*
G75*
G03*
X18819996Y-6808018I-15000J0D01*
G01*
X18838046Y-11432537D02*
G75*
G03*
X18838046Y-11432537I-15000J0D01*
G01*
X18850396Y-11737018D02*
G75*
G03*
X18850396Y-11737018I-15000J0D01*
G01*
X18910396Y-12427018D02*
G75*
G03*
X18910396Y-12427018I-15000J0D01*
G01*
X19096747Y-9775018D02*
G75*
G03*
X19096747Y-9775018I-15000J0D01*
G01*
X19102791Y-8070562D02*
G75*
G03*
X19102791Y-8070562I-15000J0D01*
G01*
X19160397Y-11357018D02*
G75*
G03*
X19160397Y-11357018I-15000J0D01*
G01*
X19172896Y-7729518D02*
G75*
G03*
X19172896Y-7729518I-15000J0D01*
G01*
X19284777Y-11192393D02*
G75*
G03*
X19284777Y-11192393I-15000J0D01*
G01*
X19358797Y-11176718D02*
G75*
G03*
X19358797Y-11176718I-15000J0D01*
G01*
X19400397Y-10997018D02*
G75*
G03*
X19400397Y-10997018I-15000J0D01*
G01*
X19420210Y-11243012D02*
G75*
G03*
X19420210Y-11243012I-15000J0D01*
G01*
X19420397Y-12537018D02*
G75*
G03*
X19420397Y-12537018I-15000J0D01*
G01*
X19650397Y-9617018D02*
G75*
G03*
X19650397Y-9617018I-15000J0D01*
G01*
X19693196Y-9298018D02*
G75*
G03*
X19693196Y-9298018I-15000J0D01*
G01*
X19747497Y-9549518D02*
G75*
G03*
X19747497Y-9549518I-15000J0D01*
G01*
X19754896Y-9367518D02*
G75*
G03*
X19754896Y-9367518I-15000J0D01*
G01*
X19792897Y-5663018D02*
G75*
G03*
X19792897Y-5663018I-15000J0D01*
G01*
X19970397Y-7737018D02*
G75*
G03*
X19970397Y-7737018I-15000J0D01*
G01*
X19980397Y-11677018D02*
G75*
G03*
X19980397Y-11677018I-15000J0D01*
G01*
X20006654Y-11168790D02*
G75*
G03*
X20006654Y-11168790I-15000J0D01*
G01*
X20025097Y-7419418D02*
G75*
G03*
X20025097Y-7419418I-15000J0D01*
G01*
X20078294Y-7668433D02*
G75*
G03*
X20078294Y-7668433I-15000J0D01*
G01*
X20084199Y-11363339D02*
G75*
G03*
X20084199Y-11363339I-15000J0D01*
G01*
X20086097Y-7489618D02*
G75*
G03*
X20086097Y-7489618I-15000J0D01*
G01*
X20130396Y-8777018D02*
G75*
G03*
X20130396Y-8777018I-15000J0D01*
G01*
X20302497Y-12077618D02*
G75*
G03*
X20302497Y-12077618I-15000J0D01*
G01*
X20310396Y-9897018D02*
G75*
G03*
X20310396Y-9897018I-15000J0D01*
G01*
X20320397Y-10760018D02*
G75*
G03*
X20320397Y-10760018I-15000J0D01*
G01*
X20335797Y-9289718D02*
G75*
G03*
X20335797Y-9289718I-15000J0D01*
G01*
X20340397Y-8997018D02*
G75*
G03*
X20340397Y-8997018I-15000J0D01*
G01*
X20414554Y-9484530D02*
G75*
G03*
X20414554Y-9484530I-15000J0D01*
G01*
X20419396Y-12903018D02*
G75*
G03*
X20419396Y-12903018I-15000J0D01*
G01*
X20537897Y-5697018D02*
G75*
G03*
X20537897Y-5697018I-15000J0D01*
G01*
X20592897Y-12254518D02*
G75*
G03*
X20592897Y-12254518I-15000J0D01*
G01*
X20717896Y-10167018D02*
G75*
G03*
X20717896Y-10167018I-15000J0D01*
G01*
X20744396Y-11751148D02*
G75*
G03*
X20744396Y-11751148I-15000J0D01*
G01*
X20746139Y-7605585D02*
G75*
G03*
X20746139Y-7605585I-15000J0D01*
G01*
X20780396Y-12249518D02*
G75*
G03*
X20780396Y-12249518I-15000J0D01*
G01*
X20780397Y-10687018D02*
G75*
G03*
X20780397Y-10687018I-15000J0D01*
G01*
X21216396Y-10379018D02*
G75*
G03*
X21216396Y-10379018I-15000J0D01*
G01*
X21265703Y-10785112D02*
G75*
G03*
X21265703Y-10785112I-15000J0D01*
G01*
X21322096Y-10998418D02*
G75*
G03*
X21322096Y-10998418I-15000J0D01*
G01*
X21324896Y-12542018D02*
G75*
G03*
X21324896Y-12542018I-15000J0D01*
G01*
X21350397Y-10519518D02*
G75*
G03*
X21350397Y-10519518I-15000J0D01*
G01*
X21383895Y-11083437D02*
G75*
G03*
X21383895Y-11083437I-15000J0D01*
G01*
X21390396Y-11327018D02*
G75*
G03*
X21390396Y-11327018I-15000J0D01*
G01*
X21410397Y-10727018D02*
G75*
G03*
X21410397Y-10727018I-15000J0D01*
G01*
X21490396Y-9177018D02*
G75*
G03*
X21490396Y-9177018I-15000J0D01*
G01*
X21655297Y-9136018D02*
G75*
G03*
X21655297Y-9136018I-15000J0D01*
G01*
X21716346Y-9205931D02*
G75*
G03*
X21716346Y-9205931I-15000J0D01*
G01*
X21770397Y-9467018D02*
G75*
G03*
X21770397Y-9467018I-15000J0D01*
G01*
X21770397Y-10437018D02*
G75*
G03*
X21770397Y-10437018I-15000J0D01*
G01*
X21940397Y-11582018D02*
G75*
G03*
X21940397Y-11582018I-15000J0D01*
G01*
X21960396Y-10077018D02*
G75*
G03*
X21960396Y-10077018I-15000J0D01*
G01*
X22044197Y-11200618D02*
G75*
G03*
X22044197Y-11200618I-15000J0D01*
G01*
X22053897Y-10200018D02*
G75*
G03*
X22053897Y-10200018I-15000J0D01*
G01*
X22376296Y-9323318D02*
G75*
G03*
X22376296Y-9323318I-15000J0D01*
G01*
D15*
X8742480Y-13864602D02*
X8742480Y-13904602D01*
X8722480Y-13884602D02*
X8762480Y-13884602D01*
X8982897Y-14105018D02*
X8982897Y-14145018D01*
X8962897Y-14125018D02*
X9002897Y-14125018D01*
X9953397Y-10313018D02*
X9953397Y-10353018D01*
X9933397Y-10333018D02*
X9973397Y-10333018D01*
X10293397Y-10313018D02*
X10293397Y-10353018D01*
X10273397Y-10333018D02*
X10313397Y-10333018D01*
X10702596Y-12659769D02*
X10702596Y-12699769D01*
X10682596Y-12679769D02*
X10722596Y-12679769D01*
X10872596Y-12954218D02*
X10872596Y-12994218D01*
X10852596Y-12974218D02*
X10892596Y-12974218D01*
X11545396Y-11446018D02*
X11545396Y-11486018D01*
X11525396Y-11466018D02*
X11565396Y-11466018D01*
X11565396Y-7627018D02*
X11565396Y-7667018D01*
X11545396Y-7647018D02*
X11585396Y-7647018D01*
X11565396Y-9537018D02*
X11565396Y-9577018D01*
X11545396Y-9557018D02*
X11585396Y-9557018D01*
X11885396Y-11446018D02*
X11885396Y-11486018D01*
X11865396Y-11466018D02*
X11905396Y-11466018D01*
X11905396Y-7627018D02*
X11905396Y-7667018D01*
X11885396Y-7647018D02*
X11925396Y-7647018D01*
X11905396Y-9537018D02*
X11905396Y-9577018D01*
X11885396Y-9557018D02*
X11925396Y-9557018D01*
X12901697Y-11974911D02*
X12901697Y-12014911D01*
X12881697Y-11994911D02*
X12921697Y-11994911D01*
X12989696Y-12303325D02*
X12989696Y-12343325D01*
X12969696Y-12323325D02*
X13009696Y-12323325D01*
X13465396Y-7327018D02*
X13465396Y-7367018D01*
X13445396Y-7347018D02*
X13485396Y-7347018D01*
X13565096Y-9236718D02*
X13565096Y-9276718D01*
X13545096Y-9256718D02*
X13585096Y-9256718D01*
X13805396Y-7327018D02*
X13805396Y-7367018D01*
X13785396Y-7347018D02*
X13825396Y-7347018D01*
X13905096Y-9236718D02*
X13905096Y-9276718D01*
X13885096Y-9256718D02*
X13925096Y-9256718D01*
X14855396Y-9767018D02*
X14855396Y-9807018D01*
X14835396Y-9787018D02*
X14875396Y-9787018D01*
X14855396Y-10107018D02*
X14855396Y-10147018D01*
X14835396Y-10127018D02*
X14875396Y-10127018D01*
X15195796Y-11877518D02*
X15195796Y-11917518D01*
X15175796Y-11897518D02*
X15215796Y-11897518D01*
X15195796Y-12217518D02*
X15195796Y-12257518D01*
X15175796Y-12237518D02*
X15215796Y-12237518D01*
X15365396Y-10247018D02*
X15365396Y-10287018D01*
X15345396Y-10267018D02*
X15385396Y-10267018D01*
X15373296Y-8335518D02*
X15373296Y-8375518D01*
X15353296Y-8355518D02*
X15393296Y-8355518D01*
X15375396Y-6427018D02*
X15375396Y-6467018D01*
X15355396Y-6447018D02*
X15395396Y-6447018D01*
X15705396Y-10247018D02*
X15705396Y-10287018D01*
X15685396Y-10267018D02*
X15725396Y-10267018D01*
X15713296Y-8335518D02*
X15713296Y-8375518D01*
X15693296Y-8355518D02*
X15733296Y-8355518D01*
X15715396Y-6427018D02*
X15715396Y-6467018D01*
X15695396Y-6447018D02*
X15735396Y-6447018D01*
X17325396Y-11237018D02*
X17325396Y-11277018D01*
X17305396Y-11257018D02*
X17345396Y-11257018D01*
X17326225Y-9333301D02*
X17326225Y-9373301D01*
X17306225Y-9353301D02*
X17346225Y-9353301D01*
X17465396Y-7427018D02*
X17465396Y-7467018D01*
X17445396Y-7447018D02*
X17485396Y-7447018D01*
X17664568Y-11260735D02*
X17664568Y-11300735D01*
X17644568Y-11280735D02*
X17684568Y-11280735D01*
X17665397Y-9357018D02*
X17665397Y-9397018D01*
X17645397Y-9377018D02*
X17685397Y-9377018D01*
X17804568Y-7450735D02*
X17804568Y-7490735D01*
X17784568Y-7470735D02*
X17824568Y-7470735D01*
X18897979Y-12557498D02*
X18897979Y-12597498D01*
X18877979Y-12577498D02*
X18917979Y-12577498D01*
X19230562Y-10687978D02*
X19230562Y-10727978D01*
X19210562Y-10707978D02*
X19250562Y-10707978D01*
X19232814Y-12616538D02*
X19232814Y-12656538D01*
X19212814Y-12636538D02*
X19252814Y-12636538D01*
X19560562Y-8807978D02*
X19560562Y-8847978D01*
X19540562Y-8827978D02*
X19580562Y-8827978D01*
X19565396Y-10747018D02*
X19565396Y-10787018D01*
X19545396Y-10767018D02*
X19585396Y-10767018D01*
X19895396Y-8867018D02*
X19895396Y-8907018D01*
X19875396Y-8887018D02*
X19915396Y-8887018D01*
X21720562Y-12537978D02*
X21720562Y-12577978D01*
X21700562Y-12557978D02*
X21740562Y-12557978D01*
X22055397Y-10677018D02*
X22055397Y-10717018D01*
X22035397Y-10697018D02*
X22075397Y-10697018D01*
X22055397Y-12597018D02*
X22055397Y-12637018D01*
X22035397Y-12617018D02*
X22075397Y-12617018D01*
X22390231Y-10736059D02*
X22390231Y-10776059D01*
X22370231Y-10756059D02*
X22410231Y-10756059D01*
D16*
X15404074Y-11283696D02*
X15404074Y-11248340D01*
X15368719Y-11248340D01*
X15368719Y-11283696D01*
X15404074Y-11283696D01*
X16724074Y-11283696D02*
X16724074Y-11248340D01*
X16688719Y-11248340D01*
X16688719Y-11283696D01*
X16724074Y-11283696D01*
D17*
X8270396Y-9954518D02*
X8307896Y-9917018D01*
X8270396Y-9879518D01*
X8232896Y-9917018D01*
X8270396Y-9954518D01*
X8270396Y-10154518D02*
X8307896Y-10117018D01*
X8270396Y-10079518D01*
X8232896Y-10117018D01*
X8270396Y-10154518D01*
D18*
X8872757Y-5280378D02*
X8954037Y-5361658D01*
X8954037Y-5280378D02*
X8872757Y-5361658D01*
X8954037Y-5321018D02*
G75*
G03*
X8954037Y-5321018I-40640J0D01*
G01*
X8872757Y-5534378D02*
X8954037Y-5615658D01*
X8954037Y-5534378D02*
X8872757Y-5615658D01*
X8954037Y-5575018D02*
G75*
G03*
X8954037Y-5575018I-40640J0D01*
G01*
X8872757Y-5788378D02*
X8954037Y-5869658D01*
X8954037Y-5788378D02*
X8872757Y-5869658D01*
X8954037Y-5829018D02*
G75*
G03*
X8954037Y-5829018I-40640J0D01*
G01*
X8872757Y-6042378D02*
X8954037Y-6123658D01*
X8954037Y-6042378D02*
X8872757Y-6123658D01*
X8954037Y-6083018D02*
G75*
G03*
X8954037Y-6083018I-40640J0D01*
G01*
X8872757Y-6296378D02*
X8954037Y-6377658D01*
X8954037Y-6296378D02*
X8872757Y-6377658D01*
X8954037Y-6337018D02*
G75*
G03*
X8954037Y-6337018I-40640J0D01*
G01*
X8872757Y-6550378D02*
X8954037Y-6631658D01*
X8954037Y-6550378D02*
X8872757Y-6631658D01*
X8954037Y-6591018D02*
G75*
G03*
X8954037Y-6591018I-40640J0D01*
G01*
X8872757Y-6804378D02*
X8954037Y-6885658D01*
X8954037Y-6804378D02*
X8872757Y-6885658D01*
X8954037Y-6845018D02*
G75*
G03*
X8954037Y-6845018I-40640J0D01*
G01*
X8872757Y-7058378D02*
X8954037Y-7139658D01*
X8954037Y-7058378D02*
X8872757Y-7139658D01*
X8954037Y-7099018D02*
G75*
G03*
X8954037Y-7099018I-40640J0D01*
G01*
X8872757Y-7312378D02*
X8954037Y-7393658D01*
X8954037Y-7312378D02*
X8872757Y-7393658D01*
X8954037Y-7353018D02*
G75*
G03*
X8954037Y-7353018I-40640J0D01*
G01*
X8872757Y-7566378D02*
X8954037Y-7647658D01*
X8954037Y-7566378D02*
X8872757Y-7647658D01*
X8954037Y-7607018D02*
G75*
G03*
X8954037Y-7607018I-40640J0D01*
G01*
X8872757Y-7820378D02*
X8954037Y-7901658D01*
X8954037Y-7820378D02*
X8872757Y-7901658D01*
X8954037Y-7861018D02*
G75*
G03*
X8954037Y-7861018I-40640J0D01*
G01*
X8872757Y-8074378D02*
X8954037Y-8155658D01*
X8954037Y-8074378D02*
X8872757Y-8155658D01*
X8954037Y-8115018D02*
G75*
G03*
X8954037Y-8115018I-40640J0D01*
G01*
X9002638Y-5399953D02*
X9083918Y-5481233D01*
X9083918Y-5399953D02*
X9002638Y-5481233D01*
X9083918Y-5440593D02*
G75*
G03*
X9083918Y-5440593I-40640J0D01*
G01*
X9002638Y-5653953D02*
X9083918Y-5735233D01*
X9083918Y-5653953D02*
X9002638Y-5735233D01*
X9083918Y-5694593D02*
G75*
G03*
X9083918Y-5694593I-40640J0D01*
G01*
X9002638Y-5907953D02*
X9083918Y-5989233D01*
X9083918Y-5907953D02*
X9002638Y-5989233D01*
X9083918Y-5948593D02*
G75*
G03*
X9083918Y-5948593I-40640J0D01*
G01*
X9002638Y-6161953D02*
X9083918Y-6243233D01*
X9083918Y-6161953D02*
X9002638Y-6243233D01*
X9083918Y-6202593D02*
G75*
G03*
X9083918Y-6202593I-40640J0D01*
G01*
X9002638Y-6415953D02*
X9083918Y-6497233D01*
X9083918Y-6415953D02*
X9002638Y-6497233D01*
X9083918Y-6456593D02*
G75*
G03*
X9083918Y-6456593I-40640J0D01*
G01*
X9002638Y-6669953D02*
X9083918Y-6751233D01*
X9083918Y-6669953D02*
X9002638Y-6751233D01*
X9083918Y-6710593D02*
G75*
G03*
X9083918Y-6710593I-40640J0D01*
G01*
X9002638Y-6923953D02*
X9083918Y-7005233D01*
X9083918Y-6923953D02*
X9002638Y-7005233D01*
X9083918Y-6964593D02*
G75*
G03*
X9083918Y-6964593I-40640J0D01*
G01*
X9002638Y-7177953D02*
X9083918Y-7259233D01*
X9083918Y-7177953D02*
X9002638Y-7259233D01*
X9083918Y-7218593D02*
G75*
G03*
X9083918Y-7218593I-40640J0D01*
G01*
X9002638Y-7431953D02*
X9083918Y-7513233D01*
X9083918Y-7431953D02*
X9002638Y-7513233D01*
X9083918Y-7472593D02*
G75*
G03*
X9083918Y-7472593I-40640J0D01*
G01*
X9002638Y-7685953D02*
X9083918Y-7767233D01*
X9083918Y-7685953D02*
X9002638Y-7767233D01*
X9083918Y-7726593D02*
G75*
G03*
X9083918Y-7726593I-40640J0D01*
G01*
X9002638Y-7939953D02*
X9083918Y-8021233D01*
X9083918Y-7939953D02*
X9002638Y-8021233D01*
X9083918Y-7980593D02*
G75*
G03*
X9083918Y-7980593I-40640J0D01*
G01*
X9002638Y-8193953D02*
X9083918Y-8275233D01*
X9083918Y-8193953D02*
X9002638Y-8275233D01*
X9083918Y-8234593D02*
G75*
G03*
X9083918Y-8234593I-40640J0D01*
G01*
X10396757Y-5280378D02*
X10478037Y-5361658D01*
X10478037Y-5280378D02*
X10396757Y-5361658D01*
X10478037Y-5321018D02*
G75*
G03*
X10478037Y-5321018I-40640J0D01*
G01*
X10396757Y-5534378D02*
X10478037Y-5615658D01*
X10478037Y-5534378D02*
X10396757Y-5615658D01*
X10478037Y-5575018D02*
G75*
G03*
X10478037Y-5575018I-40640J0D01*
G01*
X10396757Y-5788378D02*
X10478037Y-5869658D01*
X10478037Y-5788378D02*
X10396757Y-5869658D01*
X10478037Y-5829018D02*
G75*
G03*
X10478037Y-5829018I-40640J0D01*
G01*
X10396757Y-6042378D02*
X10478037Y-6123658D01*
X10478037Y-6042378D02*
X10396757Y-6123658D01*
X10478037Y-6083018D02*
G75*
G03*
X10478037Y-6083018I-40640J0D01*
G01*
X10396757Y-6296378D02*
X10478037Y-6377658D01*
X10478037Y-6296378D02*
X10396757Y-6377658D01*
X10478037Y-6337018D02*
G75*
G03*
X10478037Y-6337018I-40640J0D01*
G01*
X10396757Y-6550378D02*
X10478037Y-6631658D01*
X10478037Y-6550378D02*
X10396757Y-6631658D01*
X10478037Y-6591018D02*
G75*
G03*
X10478037Y-6591018I-40640J0D01*
G01*
X10396757Y-6804378D02*
X10478037Y-6885658D01*
X10478037Y-6804378D02*
X10396757Y-6885658D01*
X10478037Y-6845018D02*
G75*
G03*
X10478037Y-6845018I-40640J0D01*
G01*
X10396757Y-7058378D02*
X10478037Y-7139658D01*
X10478037Y-7058378D02*
X10396757Y-7139658D01*
X10478037Y-7099018D02*
G75*
G03*
X10478037Y-7099018I-40640J0D01*
G01*
X10396757Y-7312378D02*
X10478037Y-7393658D01*
X10478037Y-7312378D02*
X10396757Y-7393658D01*
X10478037Y-7353018D02*
G75*
G03*
X10478037Y-7353018I-40640J0D01*
G01*
X10396757Y-7566378D02*
X10478037Y-7647658D01*
X10478037Y-7566378D02*
X10396757Y-7647658D01*
X10478037Y-7607018D02*
G75*
G03*
X10478037Y-7607018I-40640J0D01*
G01*
X10396757Y-7820378D02*
X10478037Y-7901658D01*
X10478037Y-7820378D02*
X10396757Y-7901658D01*
X10478037Y-7861018D02*
G75*
G03*
X10478037Y-7861018I-40640J0D01*
G01*
X10396757Y-8074378D02*
X10478037Y-8155658D01*
X10478037Y-8074378D02*
X10396757Y-8155658D01*
X10478037Y-8115018D02*
G75*
G03*
X10478037Y-8115018I-40640J0D01*
G01*
X10526638Y-5399953D02*
X10607918Y-5481233D01*
X10607918Y-5399953D02*
X10526638Y-5481233D01*
X10607918Y-5440593D02*
G75*
G03*
X10607918Y-5440593I-40640J0D01*
G01*
X10526638Y-5653953D02*
X10607918Y-5735233D01*
X10607918Y-5653953D02*
X10526638Y-5735233D01*
X10607918Y-5694593D02*
G75*
G03*
X10607918Y-5694593I-40640J0D01*
G01*
X10526638Y-5907953D02*
X10607918Y-5989233D01*
X10607918Y-5907953D02*
X10526638Y-5989233D01*
X10607918Y-5948593D02*
G75*
G03*
X10607918Y-5948593I-40640J0D01*
G01*
X10526638Y-6161953D02*
X10607918Y-6243233D01*
X10607918Y-6161953D02*
X10526638Y-6243233D01*
X10607918Y-6202593D02*
G75*
G03*
X10607918Y-6202593I-40640J0D01*
G01*
X10526638Y-6415953D02*
X10607918Y-6497233D01*
X10607918Y-6415953D02*
X10526638Y-6497233D01*
X10607918Y-6456593D02*
G75*
G03*
X10607918Y-6456593I-40640J0D01*
G01*
X10526638Y-6669953D02*
X10607918Y-6751233D01*
X10607918Y-6669953D02*
X10526638Y-6751233D01*
X10607918Y-6710593D02*
G75*
G03*
X10607918Y-6710593I-40640J0D01*
G01*
X10526638Y-6923953D02*
X10607918Y-7005233D01*
X10607918Y-6923953D02*
X10526638Y-7005233D01*
X10607918Y-6964593D02*
G75*
G03*
X10607918Y-6964593I-40640J0D01*
G01*
X10526638Y-7177953D02*
X10607918Y-7259233D01*
X10607918Y-7177953D02*
X10526638Y-7259233D01*
X10607918Y-7218593D02*
G75*
G03*
X10607918Y-7218593I-40640J0D01*
G01*
X10526638Y-7431953D02*
X10607918Y-7513233D01*
X10607918Y-7431953D02*
X10526638Y-7513233D01*
X10607918Y-7472593D02*
G75*
G03*
X10607918Y-7472593I-40640J0D01*
G01*
X10526638Y-7685953D02*
X10607918Y-7767233D01*
X10607918Y-7685953D02*
X10526638Y-7767233D01*
X10607918Y-7726593D02*
G75*
G03*
X10607918Y-7726593I-40640J0D01*
G01*
X10526638Y-7939953D02*
X10607918Y-8021233D01*
X10607918Y-7939953D02*
X10526638Y-8021233D01*
X10607918Y-7980593D02*
G75*
G03*
X10607918Y-7980593I-40640J0D01*
G01*
X10526638Y-8193953D02*
X10607918Y-8275233D01*
X10607918Y-8193953D02*
X10526638Y-8275233D01*
X10607918Y-8234593D02*
G75*
G03*
X10607918Y-8234593I-40640J0D01*
G01*
D11*
X8235396Y-10727013D02*
X8335396Y-10827013D01*
X8335396Y-10727013D02*
X8235396Y-10827013D01*
X8285396Y-10727013D02*
X8285396Y-10827013D01*
X8235396Y-10777013D02*
X8335396Y-10777013D01*
X8235396Y-11087018D02*
X8335396Y-11187018D01*
X8335396Y-11087018D02*
X8235396Y-11187018D01*
X8285396Y-11087018D02*
X8285396Y-11187018D01*
X8235396Y-11137018D02*
X8335396Y-11137018D01*
X8405397Y-12114518D02*
X8505397Y-12214518D01*
X8505397Y-12114518D02*
X8405397Y-12214518D01*
X8455397Y-12114518D02*
X8455397Y-12214518D01*
X8405397Y-12164518D02*
X8505397Y-12164518D01*
D12*
X8430397Y-12214518D02*
X8480397Y-12214518D01*
X8430397Y-12114518D02*
X8480397Y-12114518D01*
X8480397Y-12214518D02*
G75*
G03*
X8480397Y-12114518I0J50000D01*
G01*
X8430397Y-12114518D02*
G75*
G03*
X8430397Y-12214518I0J-50000D01*
G01*
D11*
X8405397Y-12709518D02*
X8505397Y-12809518D01*
X8505397Y-12709518D02*
X8405397Y-12809518D01*
X8455397Y-12709518D02*
X8455397Y-12809518D01*
X8405397Y-12759518D02*
X8505397Y-12759518D01*
D12*
X8430397Y-12809518D02*
X8480397Y-12809518D01*
X8430397Y-12709518D02*
X8480397Y-12709518D01*
X8480397Y-12809518D02*
G75*
G03*
X8480397Y-12709518I0J50000D01*
G01*
X8430397Y-12709518D02*
G75*
G03*
X8430397Y-12809518I0J-50000D01*
G01*
D11*
X8705397Y-12114518D02*
X8805397Y-12214518D01*
X8805397Y-12114518D02*
X8705397Y-12214518D01*
X8755397Y-12114518D02*
X8755397Y-12214518D01*
X8705397Y-12164518D02*
X8805397Y-12164518D01*
D12*
X8730397Y-12214518D02*
X8780397Y-12214518D01*
X8730397Y-12114518D02*
X8780397Y-12114518D01*
X8780397Y-12214518D02*
G75*
G03*
X8780397Y-12114518I0J50000D01*
G01*
X8730397Y-12114518D02*
G75*
G03*
X8730397Y-12214518I0J-50000D01*
G01*
D11*
X8705397Y-12709518D02*
X8805397Y-12809518D01*
X8805397Y-12709518D02*
X8705397Y-12809518D01*
X8755397Y-12709518D02*
X8755397Y-12809518D01*
X8705397Y-12759518D02*
X8805397Y-12759518D01*
D12*
X8730397Y-12809518D02*
X8780397Y-12809518D01*
X8730397Y-12709518D02*
X8780397Y-12709518D01*
X8780397Y-12809518D02*
G75*
G03*
X8780397Y-12709518I0J50000D01*
G01*
X8730397Y-12709518D02*
G75*
G03*
X8730397Y-12809518I0J-50000D01*
G01*
D11*
X8794397Y-10732018D02*
X8894397Y-10832018D01*
X8894397Y-10732018D02*
X8794397Y-10832018D01*
X8844397Y-10732018D02*
X8844397Y-10832018D01*
X8794397Y-10782018D02*
X8894397Y-10782018D01*
X8794397Y-10982018D02*
X8894397Y-11082018D01*
X8894397Y-10982018D02*
X8794397Y-11082018D01*
X8844397Y-10982018D02*
X8844397Y-11082018D01*
X8794397Y-11032018D02*
X8894397Y-11032018D01*
X8794397Y-11232018D02*
X8894397Y-11332018D01*
X8894397Y-11232018D02*
X8794397Y-11332018D01*
X8844397Y-11232018D02*
X8844397Y-11332018D01*
X8794397Y-11282018D02*
X8894397Y-11282018D01*
X9105397Y-12114518D02*
X9205397Y-12214518D01*
X9205397Y-12114518D02*
X9105397Y-12214518D01*
X9155397Y-12114518D02*
X9155397Y-12214518D01*
X9105397Y-12164518D02*
X9205397Y-12164518D01*
D12*
X9130397Y-12214518D02*
X9180397Y-12214518D01*
X9130397Y-12114518D02*
X9180397Y-12114518D01*
X9180397Y-12214518D02*
G75*
G03*
X9180397Y-12114518I0J50000D01*
G01*
X9130397Y-12114518D02*
G75*
G03*
X9130397Y-12214518I0J-50000D01*
G01*
D11*
X9105397Y-12709518D02*
X9205397Y-12809518D01*
X9205397Y-12709518D02*
X9105397Y-12809518D01*
X9155397Y-12709518D02*
X9155397Y-12809518D01*
X9105397Y-12759518D02*
X9205397Y-12759518D01*
D12*
X9130397Y-12809518D02*
X9180397Y-12809518D01*
X9130397Y-12709518D02*
X9180397Y-12709518D01*
X9180397Y-12809518D02*
G75*
G03*
X9180397Y-12709518I0J50000D01*
G01*
X9130397Y-12709518D02*
G75*
G03*
X9130397Y-12809518I0J-50000D01*
G01*
D11*
X9248308Y-9432518D02*
X9348308Y-9532518D01*
X9348308Y-9432518D02*
X9248308Y-9532518D01*
X9298308Y-9432518D02*
X9298308Y-9532518D01*
X9248308Y-9482518D02*
X9348308Y-9482518D01*
X9255397Y-12289518D02*
X9355397Y-12389518D01*
X9355397Y-12289518D02*
X9255397Y-12389518D01*
X9305397Y-12289518D02*
X9305397Y-12389518D01*
X9255397Y-12339518D02*
X9355397Y-12339518D01*
D12*
X9280397Y-12389518D02*
X9330397Y-12389518D01*
X9280397Y-12289518D02*
X9330397Y-12289518D01*
X9330397Y-12389518D02*
G75*
G03*
X9330397Y-12289518I0J50000D01*
G01*
X9280397Y-12289518D02*
G75*
G03*
X9280397Y-12389518I0J-50000D01*
G01*
D11*
X9255397Y-12534518D02*
X9355397Y-12634518D01*
X9355397Y-12534518D02*
X9255397Y-12634518D01*
X9305397Y-12534518D02*
X9305397Y-12634518D01*
X9255397Y-12584518D02*
X9355397Y-12584518D01*
D12*
X9280397Y-12634518D02*
X9330397Y-12634518D01*
X9280397Y-12534518D02*
X9330397Y-12534518D01*
X9330397Y-12634518D02*
G75*
G03*
X9330397Y-12534518I0J50000D01*
G01*
X9280397Y-12534518D02*
G75*
G03*
X9280397Y-12634518I0J-50000D01*
G01*
D11*
X9502308Y-9432518D02*
X9602308Y-9532518D01*
X9602308Y-9432518D02*
X9502308Y-9532518D01*
X9552308Y-9432518D02*
X9552308Y-9532518D01*
X9502308Y-9482518D02*
X9602308Y-9482518D01*
X9756308Y-9432518D02*
X9856308Y-9532518D01*
X9856308Y-9432518D02*
X9756308Y-9532518D01*
X9806308Y-9432518D02*
X9806308Y-9532518D01*
X9756308Y-9482518D02*
X9856308Y-9482518D01*
X10010308Y-9432518D02*
X10110308Y-9532518D01*
X10110308Y-9432518D02*
X10010308Y-9532518D01*
X10060308Y-9432518D02*
X10060308Y-9532518D01*
X10010308Y-9482518D02*
X10110308Y-9482518D01*
X10244397Y-10732018D02*
X10344397Y-10832018D01*
X10344397Y-10732018D02*
X10244397Y-10832018D01*
X10294397Y-10732018D02*
X10294397Y-10832018D01*
X10244397Y-10782018D02*
X10344397Y-10782018D01*
X10244397Y-11232018D02*
X10344397Y-11332018D01*
X10344397Y-11232018D02*
X10244397Y-11332018D01*
X10294397Y-11232018D02*
X10294397Y-11332018D01*
X10244397Y-11282018D02*
X10344397Y-11282018D01*
X19477396Y-5152018D02*
X19577396Y-5252018D01*
X19577396Y-5152018D02*
X19477396Y-5252018D01*
X19527396Y-5152018D02*
X19527396Y-5252018D01*
X19477396Y-5202018D02*
X19577396Y-5202018D01*
X19731396Y-5152018D02*
X19831396Y-5252018D01*
X19831396Y-5152018D02*
X19731396Y-5252018D01*
X19781396Y-5152018D02*
X19781396Y-5252018D01*
X19731396Y-5202018D02*
X19831396Y-5202018D01*
X19985396Y-5152018D02*
X20085396Y-5252018D01*
X20085396Y-5152018D02*
X19985396Y-5252018D01*
X20035396Y-5152018D02*
X20035396Y-5252018D01*
X19985396Y-5202018D02*
X20085396Y-5202018D01*
X20239396Y-5152018D02*
X20339396Y-5252018D01*
X20339396Y-5152018D02*
X20239396Y-5252018D01*
X20289396Y-5152018D02*
X20289396Y-5252018D01*
X20239396Y-5202018D02*
X20339396Y-5202018D01*
X20493396Y-5152018D02*
X20593396Y-5252018D01*
X20593396Y-5152018D02*
X20493396Y-5252018D01*
X20543396Y-5152018D02*
X20543396Y-5252018D01*
X20493396Y-5202018D02*
X20593396Y-5202018D01*
D19*
X8518825Y-15494868D02*
X8668825Y-15644868D01*
X8668825Y-15494868D02*
X8518825Y-15644868D01*
X8646859Y-15622902D02*
X8646859Y-15516835D01*
X8540792Y-15516835D01*
X8540792Y-15622902D01*
X8646859Y-15622902D01*
X8720351Y-15441835D02*
X8870351Y-15591835D01*
X8870351Y-15441835D02*
X8720351Y-15591835D01*
X8848384Y-15569869D02*
X8848384Y-15463802D01*
X8742317Y-15463802D01*
X8742317Y-15569869D01*
X8848384Y-15569869D01*
X9088046Y-15074140D02*
X9238046Y-15224140D01*
X9238046Y-15074140D02*
X9088046Y-15224140D01*
X9216080Y-15202173D02*
X9216080Y-15096106D01*
X9110013Y-15096106D01*
X9110013Y-15202173D01*
X9216080Y-15202173D01*
X9141079Y-14872614D02*
X9291079Y-15022614D01*
X9291079Y-14872614D02*
X9141079Y-15022614D01*
X9269113Y-15000648D02*
X9269113Y-14894581D01*
X9163046Y-14894581D01*
X9163046Y-15000648D01*
X9269113Y-15000648D01*
X9519397Y-10397018D02*
X9669397Y-10547018D01*
X9669397Y-10397018D02*
X9519397Y-10547018D01*
X9647430Y-10525052D02*
X9647430Y-10418985D01*
X9541363Y-10418985D01*
X9541363Y-10525052D01*
X9647430Y-10525052D01*
D12*
X9529397Y-10547018D02*
X9659397Y-10547018D01*
X9529397Y-10397018D02*
X9659397Y-10397018D01*
X9659397Y-10547018D02*
G75*
G03*
X9659397Y-10397018I0J75000D01*
G01*
X9529397Y-10397018D02*
G75*
G03*
X9529397Y-10547018I0J-75000D01*
G01*
D19*
X9519397Y-11517018D02*
X9669397Y-11667018D01*
X9669397Y-11517018D02*
X9519397Y-11667018D01*
X9647430Y-11645052D02*
X9647430Y-11538985D01*
X9541363Y-11538985D01*
X9541363Y-11645052D01*
X9647430Y-11645052D01*
D12*
X9529397Y-11667018D02*
X9659397Y-11667018D01*
X9529397Y-11517018D02*
X9659397Y-11517018D01*
X9659397Y-11667018D02*
G75*
G03*
X9659397Y-11517018I0J75000D01*
G01*
X9529397Y-11517018D02*
G75*
G03*
X9529397Y-11667018I0J-75000D01*
G01*
D19*
X10039061Y-14172224D02*
X10189061Y-14322224D01*
X10189061Y-14172224D02*
X10039061Y-14322224D01*
X10167094Y-14300257D02*
X10167094Y-14194190D01*
X10061027Y-14194190D01*
X10061027Y-14300257D01*
X10167094Y-14300257D01*
X10247445Y-14173156D02*
X10397445Y-14323156D01*
X10397445Y-14173156D02*
X10247445Y-14323156D01*
X10375479Y-14301190D02*
X10375479Y-14195123D01*
X10269412Y-14195123D01*
X10269412Y-14301190D01*
X10375479Y-14301190D01*
X10697779Y-13913156D02*
X10847779Y-14063156D01*
X10847779Y-13913156D02*
X10697779Y-14063156D01*
X10825812Y-14041190D02*
X10825812Y-13935123D01*
X10719745Y-13935123D01*
X10719745Y-14041190D01*
X10825812Y-14041190D01*
X10801163Y-13732224D02*
X10951163Y-13882224D01*
X10951163Y-13732224D02*
X10801163Y-13882224D01*
X10929197Y-13860257D02*
X10929197Y-13754190D01*
X10823130Y-13754190D01*
X10823130Y-13860257D01*
X10929197Y-13860257D01*
X11627193Y-9099544D02*
X11777193Y-9249544D01*
X11777193Y-9099544D02*
X11627193Y-9249544D01*
X11755227Y-9227578D02*
X11755227Y-9121511D01*
X11649160Y-9121511D01*
X11649160Y-9227578D01*
X11755227Y-9227578D01*
X11627193Y-7192284D02*
X11777193Y-7342284D01*
X11777193Y-7192284D02*
X11627193Y-7342284D01*
X11755227Y-7320318D02*
X11755227Y-7214251D01*
X11649160Y-7214251D01*
X11649160Y-7320318D01*
X11755227Y-7320318D01*
X11627193Y-11006804D02*
X11777193Y-11156804D01*
X11777193Y-11006804D02*
X11627193Y-11156804D01*
X11755227Y-11134837D02*
X11755227Y-11028770D01*
X11649160Y-11028770D01*
X11649160Y-11134837D01*
X11755227Y-11134837D01*
X11807193Y-9204544D02*
X11957193Y-9354544D01*
X11957193Y-9204544D02*
X11807193Y-9354544D01*
X11935227Y-9332578D02*
X11935227Y-9226511D01*
X11829160Y-9226511D01*
X11829160Y-9332578D01*
X11935227Y-9332578D01*
X11807193Y-7297284D02*
X11957193Y-7447284D01*
X11957193Y-7297284D02*
X11807193Y-7447284D01*
X11935227Y-7425318D02*
X11935227Y-7319251D01*
X11829160Y-7319251D01*
X11829160Y-7425318D01*
X11935227Y-7425318D01*
X11807193Y-11111804D02*
X11957193Y-11261804D01*
X11957193Y-11111804D02*
X11807193Y-11261804D01*
X11935227Y-11239837D02*
X11935227Y-11133770D01*
X11829160Y-11133770D01*
X11829160Y-11239837D01*
X11935227Y-11239837D01*
X11846749Y-13287778D02*
X11996749Y-13437778D01*
X11996749Y-13287778D02*
X11846749Y-13437778D01*
X11974783Y-13415811D02*
X11974783Y-13309744D01*
X11868716Y-13309744D01*
X11868716Y-13415811D01*
X11974783Y-13415811D01*
X12047792Y-13342612D02*
X12197792Y-13492612D01*
X12197792Y-13342612D02*
X12047792Y-13492612D01*
X12175825Y-13470646D02*
X12175825Y-13364579D01*
X12069758Y-13364579D01*
X12069758Y-13470646D01*
X12175825Y-13470646D01*
X12327193Y-9204544D02*
X12477193Y-9354544D01*
X12477193Y-9204544D02*
X12327193Y-9354544D01*
X12455227Y-9332578D02*
X12455227Y-9226511D01*
X12349160Y-9226511D01*
X12349160Y-9332578D01*
X12455227Y-9332578D01*
X12327193Y-7297284D02*
X12477193Y-7447284D01*
X12477193Y-7297284D02*
X12327193Y-7447284D01*
X12455227Y-7425318D02*
X12455227Y-7319251D01*
X12349160Y-7319251D01*
X12349160Y-7425318D01*
X12455227Y-7425318D01*
X12327193Y-11111804D02*
X12477193Y-11261804D01*
X12477193Y-11111804D02*
X12327193Y-11261804D01*
X12455227Y-11239837D02*
X12455227Y-11133770D01*
X12349160Y-11133770D01*
X12349160Y-11239837D01*
X12455227Y-11239837D01*
X12507193Y-9099544D02*
X12657193Y-9249544D01*
X12657193Y-9099544D02*
X12507193Y-9249544D01*
X12635227Y-9227578D02*
X12635227Y-9121511D01*
X12529160Y-9121511D01*
X12529160Y-9227578D01*
X12635227Y-9227578D01*
X12507193Y-7192284D02*
X12657193Y-7342284D01*
X12657193Y-7192284D02*
X12507193Y-7342284D01*
X12635227Y-7320318D02*
X12635227Y-7214251D01*
X12529160Y-7214251D01*
X12529160Y-7320318D01*
X12635227Y-7320318D01*
X12507193Y-11006804D02*
X12657193Y-11156804D01*
X12657193Y-11006804D02*
X12507193Y-11156804D01*
X12635227Y-11134837D02*
X12635227Y-11028770D01*
X12529160Y-11028770D01*
X12529160Y-11134837D01*
X12635227Y-11134837D01*
X12550073Y-13208026D02*
X12700073Y-13358026D01*
X12700073Y-13208026D02*
X12550073Y-13358026D01*
X12678107Y-13336060D02*
X12678107Y-13229993D01*
X12572040Y-13229993D01*
X12572040Y-13336060D01*
X12678107Y-13336060D01*
X12696764Y-13060017D02*
X12846764Y-13210017D01*
X12846764Y-13060017D02*
X12696764Y-13210017D01*
X12824798Y-13188050D02*
X12824798Y-13081983D01*
X12718731Y-13081983D01*
X12718731Y-13188050D01*
X12824798Y-13188050D01*
X13526536Y-10706804D02*
X13676536Y-10856804D01*
X13676536Y-10706804D02*
X13526536Y-10856804D01*
X13654570Y-10834837D02*
X13654570Y-10728770D01*
X13548503Y-10728770D01*
X13548503Y-10834837D01*
X13654570Y-10834837D01*
X13526536Y-6892284D02*
X13676536Y-7042284D01*
X13676536Y-6892284D02*
X13526536Y-7042284D01*
X13654570Y-7020318D02*
X13654570Y-6914251D01*
X13548503Y-6914251D01*
X13548503Y-7020318D01*
X13654570Y-7020318D01*
X13526536Y-8799544D02*
X13676536Y-8949544D01*
X13676536Y-8799544D02*
X13526536Y-8949544D01*
X13654570Y-8927578D02*
X13654570Y-8821511D01*
X13548503Y-8821511D01*
X13548503Y-8927578D01*
X13654570Y-8927578D01*
X13706536Y-10811804D02*
X13856536Y-10961804D01*
X13856536Y-10811804D02*
X13706536Y-10961804D01*
X13834570Y-10939837D02*
X13834570Y-10833770D01*
X13728503Y-10833770D01*
X13728503Y-10939837D01*
X13834570Y-10939837D01*
X13706536Y-6997284D02*
X13856536Y-7147284D01*
X13856536Y-6997284D02*
X13706536Y-7147284D01*
X13834570Y-7125318D02*
X13834570Y-7019251D01*
X13728503Y-7019251D01*
X13728503Y-7125318D01*
X13834570Y-7125318D01*
X13706536Y-8904544D02*
X13856536Y-9054544D01*
X13856536Y-8904544D02*
X13706536Y-9054544D01*
X13834570Y-9032578D02*
X13834570Y-8926511D01*
X13728503Y-8926511D01*
X13728503Y-9032578D01*
X13834570Y-9032578D01*
X13821536Y-12901804D02*
X13971536Y-13051804D01*
X13971536Y-12901804D02*
X13821536Y-13051804D01*
X13949570Y-13029837D02*
X13949570Y-12923770D01*
X13843503Y-12923770D01*
X13843503Y-13029837D01*
X13949570Y-13029837D01*
X14001536Y-13006804D02*
X14151536Y-13156804D01*
X14151536Y-13006804D02*
X14001536Y-13156804D01*
X14129570Y-13134837D02*
X14129570Y-13028770D01*
X14023503Y-13028770D01*
X14023503Y-13134837D01*
X14129570Y-13134837D01*
X14226536Y-10811804D02*
X14376536Y-10961804D01*
X14376536Y-10811804D02*
X14226536Y-10961804D01*
X14354570Y-10939837D02*
X14354570Y-10833770D01*
X14248503Y-10833770D01*
X14248503Y-10939837D01*
X14354570Y-10939837D01*
X14226536Y-6997284D02*
X14376536Y-7147284D01*
X14376536Y-6997284D02*
X14226536Y-7147284D01*
X14354570Y-7125318D02*
X14354570Y-7019251D01*
X14248503Y-7019251D01*
X14248503Y-7125318D01*
X14354570Y-7125318D01*
X14226536Y-8904544D02*
X14376536Y-9054544D01*
X14376536Y-8904544D02*
X14226536Y-9054544D01*
X14354570Y-9032578D02*
X14354570Y-8926511D01*
X14248503Y-8926511D01*
X14248503Y-9032578D01*
X14354570Y-9032578D01*
X14406536Y-10706804D02*
X14556536Y-10856804D01*
X14556536Y-10706804D02*
X14406536Y-10856804D01*
X14534570Y-10834837D02*
X14534570Y-10728770D01*
X14428503Y-10728770D01*
X14428503Y-10834837D01*
X14534570Y-10834837D01*
X14406536Y-6892284D02*
X14556536Y-7042284D01*
X14556536Y-6892284D02*
X14406536Y-7042284D01*
X14534570Y-7020318D02*
X14534570Y-6914251D01*
X14428503Y-6914251D01*
X14428503Y-7020318D01*
X14534570Y-7020318D01*
X14406536Y-8799544D02*
X14556536Y-8949544D01*
X14556536Y-8799544D02*
X14406536Y-8949544D01*
X14534570Y-8927578D02*
X14534570Y-8821511D01*
X14428503Y-8821511D01*
X14428503Y-8927578D01*
X14534570Y-8927578D01*
X14521536Y-13006804D02*
X14671536Y-13156804D01*
X14671536Y-13006804D02*
X14521536Y-13156804D01*
X14649570Y-13134837D02*
X14649570Y-13028770D01*
X14543503Y-13028770D01*
X14543503Y-13134837D01*
X14649570Y-13134837D01*
X14701536Y-12901804D02*
X14851536Y-13051804D01*
X14851536Y-12901804D02*
X14701536Y-13051804D01*
X14829570Y-13029837D02*
X14829570Y-12923770D01*
X14723503Y-12923770D01*
X14723503Y-13029837D01*
X14829570Y-13029837D01*
X15431536Y-5992284D02*
X15581536Y-6142284D01*
X15581536Y-5992284D02*
X15431536Y-6142284D01*
X15559570Y-6120318D02*
X15559570Y-6014251D01*
X15453503Y-6014251D01*
X15453503Y-6120318D01*
X15559570Y-6120318D01*
X15431536Y-7899544D02*
X15581536Y-8049544D01*
X15581536Y-7899544D02*
X15431536Y-8049544D01*
X15559570Y-8027578D02*
X15559570Y-7921511D01*
X15453503Y-7921511D01*
X15453503Y-8027578D01*
X15559570Y-8027578D01*
X15431536Y-9806804D02*
X15581536Y-9956804D01*
X15581536Y-9806804D02*
X15431536Y-9956804D01*
X15559570Y-9934837D02*
X15559570Y-9828770D01*
X15453503Y-9828770D01*
X15453503Y-9934837D01*
X15559570Y-9934837D01*
X15611536Y-6097284D02*
X15761536Y-6247284D01*
X15761536Y-6097284D02*
X15611536Y-6247284D01*
X15739570Y-6225318D02*
X15739570Y-6119251D01*
X15633503Y-6119251D01*
X15633503Y-6225318D01*
X15739570Y-6225318D01*
X15611536Y-8004544D02*
X15761536Y-8154544D01*
X15761536Y-8004544D02*
X15611536Y-8154544D01*
X15739570Y-8132578D02*
X15739570Y-8026511D01*
X15633503Y-8026511D01*
X15633503Y-8132578D01*
X15739570Y-8132578D01*
X15611536Y-9911804D02*
X15761536Y-10061804D01*
X15761536Y-9911804D02*
X15611536Y-10061804D01*
X15739570Y-10039837D02*
X15739570Y-9933770D01*
X15633503Y-9933770D01*
X15633503Y-10039837D01*
X15739570Y-10039837D01*
X16131536Y-6097284D02*
X16281536Y-6247284D01*
X16281536Y-6097284D02*
X16131536Y-6247284D01*
X16259570Y-6225318D02*
X16259570Y-6119251D01*
X16153503Y-6119251D01*
X16153503Y-6225318D01*
X16259570Y-6225318D01*
X16131536Y-8004544D02*
X16281536Y-8154544D01*
X16281536Y-8004544D02*
X16131536Y-8154544D01*
X16259570Y-8132578D02*
X16259570Y-8026511D01*
X16153503Y-8026511D01*
X16153503Y-8132578D01*
X16259570Y-8132578D01*
X16131536Y-9911804D02*
X16281536Y-10061804D01*
X16281536Y-9911804D02*
X16131536Y-10061804D01*
X16259570Y-10039837D02*
X16259570Y-9933770D01*
X16153503Y-9933770D01*
X16153503Y-10039837D01*
X16259570Y-10039837D01*
X16311536Y-5992284D02*
X16461536Y-6142284D01*
X16461536Y-5992284D02*
X16311536Y-6142284D01*
X16439570Y-6120318D02*
X16439570Y-6014251D01*
X16333503Y-6014251D01*
X16333503Y-6120318D01*
X16439570Y-6120318D01*
X16311536Y-7899544D02*
X16461536Y-8049544D01*
X16461536Y-7899544D02*
X16311536Y-8049544D01*
X16439570Y-8027578D02*
X16439570Y-7921511D01*
X16333503Y-7921511D01*
X16333503Y-8027578D01*
X16439570Y-8027578D01*
X16311536Y-9806804D02*
X16461536Y-9956804D01*
X16461536Y-9806804D02*
X16311536Y-9956804D01*
X16439570Y-9934837D02*
X16439570Y-9828770D01*
X16333503Y-9828770D01*
X16333503Y-9934837D01*
X16439570Y-9934837D01*
X17310898Y-10808096D02*
X17460898Y-10958096D01*
X17460898Y-10808096D02*
X17310898Y-10958096D01*
X17438932Y-10936129D02*
X17438932Y-10830062D01*
X17332865Y-10830062D01*
X17332865Y-10936129D01*
X17438932Y-10936129D01*
X17443942Y-8905482D02*
X17593942Y-9055482D01*
X17593942Y-8905482D02*
X17443942Y-9055482D01*
X17571975Y-9033516D02*
X17571975Y-8927449D01*
X17465908Y-8927449D01*
X17465908Y-9033516D01*
X17571975Y-9033516D01*
X17483135Y-10925396D02*
X17633135Y-11075396D01*
X17633135Y-10925396D02*
X17483135Y-11075396D01*
X17611169Y-11053430D02*
X17611169Y-10947363D01*
X17505102Y-10947363D01*
X17505102Y-11053430D01*
X17611169Y-11053430D01*
X17576986Y-7002868D02*
X17726986Y-7152868D01*
X17726986Y-7002868D02*
X17576986Y-7152868D01*
X17705019Y-7130902D02*
X17705019Y-7024835D01*
X17598952Y-7024835D01*
X17598952Y-7130902D01*
X17705019Y-7130902D01*
X17616179Y-9022782D02*
X17766179Y-9172782D01*
X17766179Y-9022782D02*
X17616179Y-9172782D01*
X17744213Y-9150816D02*
X17744213Y-9044749D01*
X17638146Y-9044749D01*
X17638146Y-9150816D01*
X17744213Y-9150816D01*
X17749223Y-7120169D02*
X17899223Y-7270169D01*
X17899223Y-7120169D02*
X17749223Y-7270169D01*
X17877256Y-7248202D02*
X17877256Y-7142135D01*
X17771189Y-7142135D01*
X17771189Y-7248202D01*
X17877256Y-7248202D01*
X18001869Y-10961670D02*
X18151869Y-11111670D01*
X18151869Y-10961670D02*
X18001869Y-11111670D01*
X18129902Y-11089703D02*
X18129902Y-10983636D01*
X18023835Y-10983636D01*
X18023835Y-11089703D01*
X18129902Y-11089703D01*
X18134912Y-9059056D02*
X18284912Y-9209056D01*
X18284912Y-9059056D02*
X18134912Y-9209056D01*
X18262946Y-9187089D02*
X18262946Y-9081022D01*
X18156879Y-9081022D01*
X18156879Y-9187089D01*
X18262946Y-9187089D01*
X18188755Y-10869482D02*
X18338755Y-11019482D01*
X18338755Y-10869482D02*
X18188755Y-11019482D01*
X18316788Y-10997515D02*
X18316788Y-10891448D01*
X18210721Y-10891448D01*
X18210721Y-10997515D01*
X18316788Y-10997515D01*
X18267956Y-7156442D02*
X18417956Y-7306442D01*
X18417956Y-7156442D02*
X18267956Y-7306442D01*
X18395989Y-7284476D02*
X18395989Y-7178409D01*
X18289922Y-7178409D01*
X18289922Y-7284476D01*
X18395989Y-7284476D01*
X18321798Y-8966868D02*
X18471798Y-9116868D01*
X18471798Y-8966868D02*
X18321798Y-9116868D01*
X18449832Y-9094901D02*
X18449832Y-8988834D01*
X18343765Y-8988834D01*
X18343765Y-9094901D01*
X18449832Y-9094901D01*
X18454842Y-7064254D02*
X18604842Y-7214254D01*
X18604842Y-7064254D02*
X18454842Y-7214254D01*
X18582875Y-7192288D02*
X18582875Y-7086221D01*
X18476808Y-7086221D01*
X18476808Y-7192288D01*
X18582875Y-7192288D01*
X19053481Y-12157512D02*
X19203481Y-12307512D01*
X19203481Y-12157512D02*
X19053481Y-12307512D01*
X19181514Y-12285546D02*
X19181514Y-12179479D01*
X19075447Y-12179479D01*
X19075447Y-12285546D01*
X19181514Y-12285546D01*
X19212513Y-12292174D02*
X19362513Y-12442174D01*
X19362513Y-12292174D02*
X19212513Y-12442174D01*
X19340547Y-12420207D02*
X19340547Y-12314140D01*
X19234480Y-12314140D01*
X19234480Y-12420207D01*
X19340547Y-12420207D01*
X19384673Y-10279228D02*
X19534673Y-10429228D01*
X19534673Y-10279228D02*
X19384673Y-10429228D01*
X19512706Y-10407261D02*
X19512706Y-10301194D01*
X19406639Y-10301194D01*
X19406639Y-10407261D01*
X19512706Y-10407261D01*
X19543705Y-10413889D02*
X19693705Y-10563889D01*
X19693705Y-10413889D02*
X19543705Y-10563889D01*
X19671739Y-10541923D02*
X19671739Y-10435856D01*
X19565672Y-10435856D01*
X19565672Y-10541923D01*
X19671739Y-10541923D01*
X19715865Y-8400944D02*
X19865865Y-8550944D01*
X19865865Y-8400944D02*
X19715865Y-8550944D01*
X19843899Y-8528977D02*
X19843899Y-8422910D01*
X19737832Y-8422910D01*
X19737832Y-8528977D01*
X19843899Y-8528977D01*
X19724613Y-12382471D02*
X19874613Y-12532471D01*
X19874613Y-12382471D02*
X19724613Y-12532471D01*
X19852647Y-12510504D02*
X19852647Y-12404437D01*
X19746580Y-12404437D01*
X19746580Y-12510504D01*
X19852647Y-12510504D01*
X19874897Y-8535605D02*
X20024897Y-8685605D01*
X20024897Y-8535605D02*
X19874897Y-8685605D01*
X20002931Y-8663639D02*
X20002931Y-8557572D01*
X19896864Y-8557572D01*
X19896864Y-8663639D01*
X20002931Y-8663639D01*
X19920112Y-12310323D02*
X20070112Y-12460323D01*
X20070112Y-12310323D02*
X19920112Y-12460323D01*
X20048145Y-12438356D02*
X20048145Y-12332289D01*
X19942078Y-12332289D01*
X19942078Y-12438356D01*
X20048145Y-12438356D01*
X20055805Y-10504187D02*
X20205805Y-10654187D01*
X20205805Y-10504187D02*
X20055805Y-10654187D01*
X20183839Y-10632220D02*
X20183839Y-10526153D01*
X20077772Y-10526153D01*
X20077772Y-10632220D01*
X20183839Y-10632220D01*
X20251304Y-10432038D02*
X20401304Y-10582038D01*
X20401304Y-10432038D02*
X20251304Y-10582038D01*
X20379337Y-10560072D02*
X20379337Y-10454005D01*
X20273270Y-10454005D01*
X20273270Y-10560072D01*
X20379337Y-10560072D01*
X20386997Y-8625903D02*
X20536997Y-8775903D01*
X20536997Y-8625903D02*
X20386997Y-8775903D01*
X20515031Y-8753936D02*
X20515031Y-8647869D01*
X20408964Y-8647869D01*
X20408964Y-8753936D01*
X20515031Y-8753936D01*
X20582496Y-8553754D02*
X20732496Y-8703754D01*
X20732496Y-8553754D02*
X20582496Y-8703754D01*
X20710529Y-8681788D02*
X20710529Y-8575721D01*
X20604462Y-8575721D01*
X20604462Y-8681788D01*
X20710529Y-8681788D01*
X21013704Y-11995439D02*
X21163704Y-12145439D01*
X21163704Y-11995439D02*
X21013704Y-12145439D01*
X21141738Y-12123473D02*
X21141738Y-12017406D01*
X21035671Y-12017406D01*
X21035671Y-12123473D01*
X21141738Y-12123473D01*
X21172737Y-12130101D02*
X21322737Y-12280101D01*
X21322737Y-12130101D02*
X21172737Y-12280101D01*
X21300770Y-12258134D02*
X21300770Y-12152067D01*
X21194703Y-12152067D01*
X21194703Y-12258134D01*
X21300770Y-12258134D01*
X21344897Y-10117155D02*
X21494897Y-10267155D01*
X21494897Y-10117155D02*
X21344897Y-10267155D01*
X21472930Y-10245189D02*
X21472930Y-10139122D01*
X21366863Y-10139122D01*
X21366863Y-10245189D01*
X21472930Y-10245189D01*
X21503929Y-10251817D02*
X21653929Y-10401817D01*
X21653929Y-10251817D02*
X21503929Y-10401817D01*
X21631962Y-10379850D02*
X21631962Y-10273783D01*
X21525895Y-10273783D01*
X21525895Y-10379850D01*
X21631962Y-10379850D01*
X21684837Y-12220398D02*
X21834837Y-12370398D01*
X21834837Y-12220398D02*
X21684837Y-12370398D01*
X21812870Y-12348431D02*
X21812870Y-12242364D01*
X21706803Y-12242364D01*
X21706803Y-12348431D01*
X21812870Y-12348431D01*
X21880335Y-12148249D02*
X22030335Y-12298249D01*
X22030335Y-12148249D02*
X21880335Y-12298249D01*
X22008369Y-12276283D02*
X22008369Y-12170216D01*
X21902302Y-12170216D01*
X21902302Y-12276283D01*
X22008369Y-12276283D01*
X22016029Y-10342114D02*
X22166029Y-10492114D01*
X22166029Y-10342114D02*
X22016029Y-10492114D01*
X22144062Y-10470147D02*
X22144062Y-10364080D01*
X22037995Y-10364080D01*
X22037995Y-10470147D01*
X22144062Y-10470147D01*
X22211527Y-10269965D02*
X22361527Y-10419965D01*
X22361527Y-10269965D02*
X22211527Y-10419965D01*
X22339561Y-10397999D02*
X22339561Y-10291932D01*
X22233494Y-10291932D01*
X22233494Y-10397999D01*
X22339561Y-10397999D01*
D20*
X12980297Y-9167018D02*
X13200297Y-9387018D01*
X13200297Y-9167018D02*
X12980297Y-9387018D01*
X13090297Y-9387018D02*
X13200297Y-9277018D01*
X13090297Y-9167018D01*
X12980297Y-9277018D01*
X13090297Y-9387018D01*
X14885297Y-7262018D02*
X15105297Y-7482018D01*
X15105297Y-7262018D02*
X14885297Y-7482018D01*
X14995297Y-7482018D02*
X15105297Y-7372018D01*
X14995297Y-7262018D01*
X14885297Y-7372018D01*
X14995297Y-7482018D01*
X16790297Y-9167018D02*
X17010297Y-9387018D01*
X17010297Y-9167018D02*
X16790297Y-9387018D01*
X16900297Y-9387018D02*
X17010297Y-9277018D01*
X16900297Y-9167018D01*
X16790297Y-9277018D01*
X16900297Y-9387018D01*
D12*
X7375377Y-16693331D02*
X7375377Y-16493331D01*
X7422996Y-16493331D01*
X7451567Y-16502855D01*
X7470615Y-16521902D01*
X7480139Y-16540950D01*
X7489663Y-16579045D01*
X7489663Y-16607617D01*
X7480139Y-16645712D01*
X7470615Y-16664760D01*
X7451567Y-16683807D01*
X7422996Y-16693331D01*
X7375377Y-16693331D01*
X7575377Y-16693331D02*
X7575377Y-16559998D01*
X7575377Y-16598093D02*
X7584901Y-16579045D01*
X7594424Y-16569521D01*
X7613472Y-16559998D01*
X7632520Y-16559998D01*
X7699186Y-16693331D02*
X7699186Y-16559998D01*
X7699186Y-16493331D02*
X7689663Y-16502855D01*
X7699186Y-16512379D01*
X7708710Y-16502855D01*
X7699186Y-16493331D01*
X7699186Y-16512379D01*
X7822996Y-16693331D02*
X7803948Y-16683807D01*
X7794424Y-16664760D01*
X7794424Y-16493331D01*
X7927758Y-16693331D02*
X7908710Y-16683807D01*
X7899186Y-16664760D01*
X7899186Y-16493331D01*
X8156329Y-16693331D02*
X8156329Y-16493331D01*
X8222996Y-16636188D01*
X8289663Y-16493331D01*
X8289663Y-16693331D01*
X8470615Y-16693331D02*
X8470615Y-16588569D01*
X8461091Y-16569521D01*
X8442044Y-16559998D01*
X8403948Y-16559998D01*
X8384901Y-16569521D01*
X8470615Y-16683807D02*
X8451567Y-16693331D01*
X8403948Y-16693331D01*
X8384901Y-16683807D01*
X8375377Y-16664760D01*
X8375377Y-16645712D01*
X8384901Y-16626664D01*
X8403948Y-16617141D01*
X8451567Y-16617141D01*
X8470615Y-16607617D01*
X8565853Y-16559998D02*
X8565853Y-16759998D01*
X8565853Y-16569521D02*
X8584901Y-16559998D01*
X8622996Y-16559998D01*
X8642044Y-16569521D01*
X8651567Y-16579045D01*
X8661091Y-16598093D01*
X8661091Y-16655236D01*
X8651567Y-16674283D01*
X8642044Y-16683807D01*
X8622996Y-16693331D01*
X8584901Y-16693331D01*
X8565853Y-16683807D01*
X8746806Y-16674283D02*
X8756329Y-16683807D01*
X8746806Y-16693331D01*
X8737282Y-16683807D01*
X8746806Y-16674283D01*
X8746806Y-16693331D01*
X8746806Y-16569521D02*
X8756329Y-16579045D01*
X8746806Y-16588569D01*
X8737282Y-16579045D01*
X8746806Y-16569521D01*
X8746806Y-16588569D01*
D13*
X7097758Y-17012855D02*
X7117758Y-17032855D01*
X7117758Y-17012855D02*
X7097758Y-17032855D01*
D12*
X7413472Y-16913331D02*
X7432520Y-16913331D01*
X7451567Y-16922855D01*
X7461091Y-16932379D01*
X7470615Y-16951426D01*
X7480139Y-16989522D01*
X7480139Y-17037141D01*
X7470615Y-17075236D01*
X7461091Y-17094283D01*
X7451567Y-17103807D01*
X7432520Y-17113331D01*
X7413472Y-17113331D01*
X7394424Y-17103807D01*
X7384901Y-17094283D01*
X7375377Y-17075236D01*
X7365853Y-17037141D01*
X7365853Y-16989522D01*
X7375377Y-16951426D01*
X7384901Y-16932379D01*
X7394424Y-16922855D01*
X7413472Y-16913331D01*
X7565853Y-17094283D02*
X7575377Y-17103807D01*
X7565853Y-17113331D01*
X7556329Y-17103807D01*
X7565853Y-17094283D01*
X7565853Y-17113331D01*
X7651567Y-16932379D02*
X7661091Y-16922855D01*
X7680139Y-16913331D01*
X7727758Y-16913331D01*
X7746805Y-16922855D01*
X7756329Y-16932379D01*
X7765853Y-16951426D01*
X7765853Y-16970474D01*
X7756329Y-16999045D01*
X7642044Y-17113331D01*
X7765853Y-17113331D01*
X7889663Y-16913331D02*
X7908710Y-16913331D01*
X7927758Y-16922855D01*
X7937282Y-16932379D01*
X7946805Y-16951426D01*
X7956329Y-16989522D01*
X7956329Y-17037141D01*
X7946805Y-17075236D01*
X7937282Y-17094283D01*
X7927758Y-17103807D01*
X7908710Y-17113331D01*
X7889663Y-17113331D01*
X7870615Y-17103807D01*
X7861091Y-17094283D01*
X7851567Y-17075236D01*
X7842044Y-17037141D01*
X7842044Y-16989522D01*
X7851567Y-16951426D01*
X7861091Y-16932379D01*
X7870615Y-16922855D01*
X7889663Y-16913331D01*
X8080139Y-16913331D02*
X8099186Y-16913331D01*
X8118234Y-16922855D01*
X8127758Y-16932379D01*
X8137282Y-16951426D01*
X8146805Y-16989522D01*
X8146805Y-17037141D01*
X8137282Y-17075236D01*
X8127758Y-17094283D01*
X8118234Y-17103807D01*
X8099186Y-17113331D01*
X8080139Y-17113331D01*
X8061091Y-17103807D01*
X8051567Y-17094283D01*
X8042044Y-17075236D01*
X8032520Y-17037141D01*
X8032520Y-16989522D01*
X8042044Y-16951426D01*
X8051567Y-16932379D01*
X8061091Y-16922855D01*
X8080139Y-16913331D01*
X8232520Y-17113331D02*
X8232520Y-16979998D01*
X8232520Y-16999045D02*
X8242044Y-16989522D01*
X8261091Y-16979998D01*
X8289663Y-16979998D01*
X8308710Y-16989522D01*
X8318234Y-17008569D01*
X8318234Y-17113331D01*
X8318234Y-17008569D02*
X8327758Y-16989522D01*
X8346805Y-16979998D01*
X8375377Y-16979998D01*
X8394425Y-16989522D01*
X8403948Y-17008569D01*
X8403948Y-17113331D01*
X8499186Y-17113331D02*
X8499186Y-16979998D01*
X8499186Y-16999045D02*
X8508710Y-16989522D01*
X8527758Y-16979998D01*
X8556329Y-16979998D01*
X8575377Y-16989522D01*
X8584901Y-17008569D01*
X8584901Y-17113331D01*
X8584901Y-17008569D02*
X8594425Y-16989522D01*
X8613472Y-16979998D01*
X8642044Y-16979998D01*
X8661091Y-16989522D01*
X8670615Y-17008569D01*
X8670615Y-17113331D01*
X9061091Y-16903807D02*
X8889663Y-17160950D01*
X9318234Y-16913331D02*
X9337282Y-16913331D01*
X9356329Y-16922855D01*
X9365853Y-16932379D01*
X9375377Y-16951426D01*
X9384901Y-16989522D01*
X9384901Y-17037141D01*
X9375377Y-17075236D01*
X9365853Y-17094283D01*
X9356329Y-17103807D01*
X9337282Y-17113331D01*
X9318234Y-17113331D01*
X9299186Y-17103807D01*
X9289663Y-17094283D01*
X9280139Y-17075236D01*
X9270615Y-17037141D01*
X9270615Y-16989522D01*
X9280139Y-16951426D01*
X9289663Y-16932379D01*
X9299186Y-16922855D01*
X9318234Y-16913331D01*
X9470615Y-17094283D02*
X9480139Y-17103807D01*
X9470615Y-17113331D01*
X9461091Y-17103807D01*
X9470615Y-17094283D01*
X9470615Y-17113331D01*
X9603948Y-16913331D02*
X9622996Y-16913331D01*
X9642044Y-16922855D01*
X9651567Y-16932379D01*
X9661091Y-16951426D01*
X9670615Y-16989522D01*
X9670615Y-17037141D01*
X9661091Y-17075236D01*
X9651567Y-17094283D01*
X9642044Y-17103807D01*
X9622996Y-17113331D01*
X9603948Y-17113331D01*
X9584901Y-17103807D01*
X9575377Y-17094283D01*
X9565853Y-17075236D01*
X9556329Y-17037141D01*
X9556329Y-16989522D01*
X9565853Y-16951426D01*
X9575377Y-16932379D01*
X9584901Y-16922855D01*
X9603948Y-16913331D01*
X9794425Y-16913331D02*
X9813472Y-16913331D01*
X9832520Y-16922855D01*
X9842044Y-16932379D01*
X9851567Y-16951426D01*
X9861091Y-16989522D01*
X9861091Y-17037141D01*
X9851567Y-17075236D01*
X9842044Y-17094283D01*
X9832520Y-17103807D01*
X9813472Y-17113331D01*
X9794425Y-17113331D01*
X9775377Y-17103807D01*
X9765853Y-17094283D01*
X9756329Y-17075236D01*
X9746806Y-17037141D01*
X9746806Y-16989522D01*
X9756329Y-16951426D01*
X9765853Y-16932379D01*
X9775377Y-16922855D01*
X9794425Y-16913331D01*
X9927758Y-16913331D02*
X10061091Y-16913331D01*
X9975377Y-17113331D01*
X10146806Y-17113331D02*
X10184901Y-17113331D01*
X10203948Y-17103807D01*
X10213472Y-17094283D01*
X10232520Y-17065712D01*
X10242044Y-17027617D01*
X10242044Y-16951426D01*
X10232520Y-16932379D01*
X10222996Y-16922855D01*
X10203948Y-16913331D01*
X10165853Y-16913331D01*
X10146806Y-16922855D01*
X10137282Y-16932379D01*
X10127758Y-16951426D01*
X10127758Y-16999045D01*
X10137282Y-17018093D01*
X10146806Y-17027617D01*
X10165853Y-17037141D01*
X10203948Y-17037141D01*
X10222996Y-17027617D01*
X10232520Y-17018093D01*
X10242044Y-16999045D01*
X10318234Y-16913331D02*
X10318234Y-16951426D01*
X10394425Y-16913331D02*
X10394425Y-16951426D01*
X10689663Y-17189522D02*
X10680139Y-17179998D01*
X10661091Y-17151426D01*
X10651567Y-17132379D01*
X10642044Y-17103807D01*
X10632520Y-17056188D01*
X10632520Y-17018093D01*
X10642044Y-16970474D01*
X10651567Y-16941903D01*
X10661091Y-16922855D01*
X10680139Y-16894283D01*
X10689663Y-16884760D01*
X10861091Y-16913331D02*
X10765853Y-16913331D01*
X10756329Y-17008569D01*
X10765853Y-16999045D01*
X10784901Y-16989522D01*
X10832520Y-16989522D01*
X10851567Y-16999045D01*
X10861091Y-17008569D01*
X10870615Y-17027617D01*
X10870615Y-17075236D01*
X10861091Y-17094283D01*
X10851567Y-17103807D01*
X10832520Y-17113331D01*
X10784901Y-17113331D01*
X10765853Y-17103807D01*
X10756329Y-17094283D01*
X11108710Y-17113331D02*
X11108710Y-16913331D01*
X11194424Y-17113331D02*
X11194424Y-17008569D01*
X11184901Y-16989522D01*
X11165853Y-16979998D01*
X11137282Y-16979998D01*
X11118234Y-16989522D01*
X11108710Y-16999045D01*
X11318234Y-17113331D02*
X11299186Y-17103807D01*
X11289663Y-17094283D01*
X11280139Y-17075236D01*
X11280139Y-17018093D01*
X11289663Y-16999045D01*
X11299186Y-16989522D01*
X11318234Y-16979998D01*
X11346805Y-16979998D01*
X11365853Y-16989522D01*
X11375377Y-16999045D01*
X11384901Y-17018093D01*
X11384901Y-17075236D01*
X11375377Y-17094283D01*
X11365853Y-17103807D01*
X11346805Y-17113331D01*
X11318234Y-17113331D01*
X11499186Y-17113331D02*
X11480139Y-17103807D01*
X11470615Y-17084760D01*
X11470615Y-16913331D01*
X11651567Y-17103807D02*
X11632520Y-17113331D01*
X11594424Y-17113331D01*
X11575377Y-17103807D01*
X11565853Y-17084760D01*
X11565853Y-17008569D01*
X11575377Y-16989522D01*
X11594424Y-16979998D01*
X11632520Y-16979998D01*
X11651567Y-16989522D01*
X11661091Y-17008569D01*
X11661091Y-17027617D01*
X11565853Y-17046664D01*
X11737282Y-17103807D02*
X11756329Y-17113331D01*
X11794424Y-17113331D01*
X11813472Y-17103807D01*
X11822996Y-17084760D01*
X11822996Y-17075236D01*
X11813472Y-17056188D01*
X11794424Y-17046664D01*
X11765853Y-17046664D01*
X11746805Y-17037141D01*
X11737282Y-17018093D01*
X11737282Y-17008569D01*
X11746805Y-16989522D01*
X11765853Y-16979998D01*
X11794424Y-16979998D01*
X11813472Y-16989522D01*
X11889663Y-17189522D02*
X11899186Y-17179998D01*
X11918234Y-17151426D01*
X11927758Y-17132379D01*
X11937282Y-17103807D01*
X11946805Y-17056188D01*
X11946805Y-17018093D01*
X11937282Y-16970474D01*
X11927758Y-16941903D01*
X11918234Y-16922855D01*
X11899186Y-16894283D01*
X11889663Y-16884760D01*
D14*
X7117758Y-17286855D02*
G75*
G03*
X7117758Y-17286855I-15000J0D01*
G01*
D12*
X7413472Y-17177331D02*
X7432520Y-17177331D01*
X7451567Y-17186855D01*
X7461091Y-17196379D01*
X7470615Y-17215426D01*
X7480139Y-17253522D01*
X7480139Y-17301141D01*
X7470615Y-17339236D01*
X7461091Y-17358283D01*
X7451567Y-17367807D01*
X7432520Y-17377331D01*
X7413472Y-17377331D01*
X7394424Y-17367807D01*
X7384901Y-17358283D01*
X7375377Y-17339236D01*
X7365853Y-17301141D01*
X7365853Y-17253522D01*
X7375377Y-17215426D01*
X7384901Y-17196379D01*
X7394424Y-17186855D01*
X7413472Y-17177331D01*
X7565853Y-17358283D02*
X7575377Y-17367807D01*
X7565853Y-17377331D01*
X7556329Y-17367807D01*
X7565853Y-17358283D01*
X7565853Y-17377331D01*
X7642044Y-17177331D02*
X7765853Y-17177331D01*
X7699186Y-17253522D01*
X7727758Y-17253522D01*
X7746805Y-17263045D01*
X7756329Y-17272569D01*
X7765853Y-17291617D01*
X7765853Y-17339236D01*
X7756329Y-17358283D01*
X7746805Y-17367807D01*
X7727758Y-17377331D01*
X7670615Y-17377331D01*
X7651567Y-17367807D01*
X7642044Y-17358283D01*
X7889663Y-17177331D02*
X7908710Y-17177331D01*
X7927758Y-17186855D01*
X7937282Y-17196379D01*
X7946805Y-17215426D01*
X7956329Y-17253522D01*
X7956329Y-17301141D01*
X7946805Y-17339236D01*
X7937282Y-17358283D01*
X7927758Y-17367807D01*
X7908710Y-17377331D01*
X7889663Y-17377331D01*
X7870615Y-17367807D01*
X7861091Y-17358283D01*
X7851567Y-17339236D01*
X7842044Y-17301141D01*
X7842044Y-17253522D01*
X7851567Y-17215426D01*
X7861091Y-17196379D01*
X7870615Y-17186855D01*
X7889663Y-17177331D01*
X8080139Y-17177331D02*
X8099186Y-17177331D01*
X8118234Y-17186855D01*
X8127758Y-17196379D01*
X8137282Y-17215426D01*
X8146805Y-17253522D01*
X8146805Y-17301141D01*
X8137282Y-17339236D01*
X8127758Y-17358283D01*
X8118234Y-17367807D01*
X8099186Y-17377331D01*
X8080139Y-17377331D01*
X8061091Y-17367807D01*
X8051567Y-17358283D01*
X8042044Y-17339236D01*
X8032520Y-17301141D01*
X8032520Y-17253522D01*
X8042044Y-17215426D01*
X8051567Y-17196379D01*
X8061091Y-17186855D01*
X8080139Y-17177331D01*
X8232520Y-17377331D02*
X8232520Y-17243998D01*
X8232520Y-17263045D02*
X8242044Y-17253522D01*
X8261091Y-17243998D01*
X8289663Y-17243998D01*
X8308710Y-17253522D01*
X8318234Y-17272569D01*
X8318234Y-17377331D01*
X8318234Y-17272569D02*
X8327758Y-17253522D01*
X8346805Y-17243998D01*
X8375377Y-17243998D01*
X8394425Y-17253522D01*
X8403948Y-17272569D01*
X8403948Y-17377331D01*
X8499186Y-17377331D02*
X8499186Y-17243998D01*
X8499186Y-17263045D02*
X8508710Y-17253522D01*
X8527758Y-17243998D01*
X8556329Y-17243998D01*
X8575377Y-17253522D01*
X8584901Y-17272569D01*
X8584901Y-17377331D01*
X8584901Y-17272569D02*
X8594425Y-17253522D01*
X8613472Y-17243998D01*
X8642044Y-17243998D01*
X8661091Y-17253522D01*
X8670615Y-17272569D01*
X8670615Y-17377331D01*
X9061091Y-17167807D02*
X8889663Y-17424950D01*
X9318234Y-17177331D02*
X9337282Y-17177331D01*
X9356329Y-17186855D01*
X9365853Y-17196379D01*
X9375377Y-17215426D01*
X9384901Y-17253522D01*
X9384901Y-17301141D01*
X9375377Y-17339236D01*
X9365853Y-17358283D01*
X9356329Y-17367807D01*
X9337282Y-17377331D01*
X9318234Y-17377331D01*
X9299186Y-17367807D01*
X9289663Y-17358283D01*
X9280139Y-17339236D01*
X9270615Y-17301141D01*
X9270615Y-17253522D01*
X9280139Y-17215426D01*
X9289663Y-17196379D01*
X9299186Y-17186855D01*
X9318234Y-17177331D01*
X9470615Y-17358283D02*
X9480139Y-17367807D01*
X9470615Y-17377331D01*
X9461091Y-17367807D01*
X9470615Y-17358283D01*
X9470615Y-17377331D01*
X9603948Y-17177331D02*
X9622996Y-17177331D01*
X9642044Y-17186855D01*
X9651567Y-17196379D01*
X9661091Y-17215426D01*
X9670615Y-17253522D01*
X9670615Y-17301141D01*
X9661091Y-17339236D01*
X9651567Y-17358283D01*
X9642044Y-17367807D01*
X9622996Y-17377331D01*
X9603948Y-17377331D01*
X9584901Y-17367807D01*
X9575377Y-17358283D01*
X9565853Y-17339236D01*
X9556329Y-17301141D01*
X9556329Y-17253522D01*
X9565853Y-17215426D01*
X9575377Y-17196379D01*
X9584901Y-17186855D01*
X9603948Y-17177331D01*
X9861091Y-17377331D02*
X9746806Y-17377331D01*
X9803948Y-17377331D02*
X9803948Y-17177331D01*
X9784901Y-17205903D01*
X9765853Y-17224950D01*
X9746806Y-17234474D01*
X10051567Y-17377331D02*
X9937282Y-17377331D01*
X9994425Y-17377331D02*
X9994425Y-17177331D01*
X9975377Y-17205903D01*
X9956329Y-17224950D01*
X9937282Y-17234474D01*
X10165853Y-17263045D02*
X10146806Y-17253522D01*
X10137282Y-17243998D01*
X10127758Y-17224950D01*
X10127758Y-17215426D01*
X10137282Y-17196379D01*
X10146806Y-17186855D01*
X10165853Y-17177331D01*
X10203948Y-17177331D01*
X10222996Y-17186855D01*
X10232520Y-17196379D01*
X10242044Y-17215426D01*
X10242044Y-17224950D01*
X10232520Y-17243998D01*
X10222996Y-17253522D01*
X10203948Y-17263045D01*
X10165853Y-17263045D01*
X10146806Y-17272569D01*
X10137282Y-17282093D01*
X10127758Y-17301141D01*
X10127758Y-17339236D01*
X10137282Y-17358283D01*
X10146806Y-17367807D01*
X10165853Y-17377331D01*
X10203948Y-17377331D01*
X10222996Y-17367807D01*
X10232520Y-17358283D01*
X10242044Y-17339236D01*
X10242044Y-17301141D01*
X10232520Y-17282093D01*
X10222996Y-17272569D01*
X10203948Y-17263045D01*
X10318234Y-17177331D02*
X10318234Y-17215426D01*
X10394425Y-17177331D02*
X10394425Y-17215426D01*
X10689663Y-17453522D02*
X10680139Y-17443998D01*
X10661091Y-17415426D01*
X10651567Y-17396379D01*
X10642044Y-17367807D01*
X10632520Y-17320188D01*
X10632520Y-17282093D01*
X10642044Y-17234474D01*
X10651567Y-17205903D01*
X10661091Y-17186855D01*
X10680139Y-17158283D01*
X10689663Y-17148760D01*
X10756329Y-17196379D02*
X10765853Y-17186855D01*
X10784901Y-17177331D01*
X10832520Y-17177331D01*
X10851567Y-17186855D01*
X10861091Y-17196379D01*
X10870615Y-17215426D01*
X10870615Y-17234474D01*
X10861091Y-17263045D01*
X10746806Y-17377331D01*
X10870615Y-17377331D01*
X10965853Y-17377331D02*
X11003948Y-17377331D01*
X11022996Y-17367807D01*
X11032520Y-17358283D01*
X11051567Y-17329712D01*
X11061091Y-17291617D01*
X11061091Y-17215426D01*
X11051567Y-17196379D01*
X11042044Y-17186855D01*
X11022996Y-17177331D01*
X10984901Y-17177331D01*
X10965853Y-17186855D01*
X10956329Y-17196379D01*
X10946806Y-17215426D01*
X10946806Y-17263045D01*
X10956329Y-17282093D01*
X10965853Y-17291617D01*
X10984901Y-17301141D01*
X11022996Y-17301141D01*
X11042044Y-17291617D01*
X11051567Y-17282093D01*
X11061091Y-17263045D01*
X11156329Y-17377331D02*
X11194424Y-17377331D01*
X11213472Y-17367807D01*
X11222996Y-17358283D01*
X11242044Y-17329712D01*
X11251567Y-17291617D01*
X11251567Y-17215426D01*
X11242044Y-17196379D01*
X11232520Y-17186855D01*
X11213472Y-17177331D01*
X11175377Y-17177331D01*
X11156329Y-17186855D01*
X11146806Y-17196379D01*
X11137282Y-17215426D01*
X11137282Y-17263045D01*
X11146806Y-17282093D01*
X11156329Y-17291617D01*
X11175377Y-17301141D01*
X11213472Y-17301141D01*
X11232520Y-17291617D01*
X11242044Y-17282093D01*
X11251567Y-17263045D01*
X11489663Y-17377331D02*
X11489663Y-17177331D01*
X11575377Y-17377331D02*
X11575377Y-17272569D01*
X11565853Y-17253522D01*
X11546805Y-17243998D01*
X11518234Y-17243998D01*
X11499186Y-17253522D01*
X11489663Y-17263045D01*
X11699186Y-17377331D02*
X11680139Y-17367807D01*
X11670615Y-17358283D01*
X11661091Y-17339236D01*
X11661091Y-17282093D01*
X11670615Y-17263045D01*
X11680139Y-17253522D01*
X11699186Y-17243998D01*
X11727758Y-17243998D01*
X11746805Y-17253522D01*
X11756329Y-17263045D01*
X11765853Y-17282093D01*
X11765853Y-17339236D01*
X11756329Y-17358283D01*
X11746805Y-17367807D01*
X11727758Y-17377331D01*
X11699186Y-17377331D01*
X11880139Y-17377331D02*
X11861091Y-17367807D01*
X11851567Y-17348760D01*
X11851567Y-17177331D01*
X12032520Y-17367807D02*
X12013472Y-17377331D01*
X11975377Y-17377331D01*
X11956329Y-17367807D01*
X11946805Y-17348760D01*
X11946805Y-17272569D01*
X11956329Y-17253522D01*
X11975377Y-17243998D01*
X12013472Y-17243998D01*
X12032520Y-17253522D01*
X12042044Y-17272569D01*
X12042044Y-17291617D01*
X11946805Y-17310664D01*
X12118234Y-17367807D02*
X12137282Y-17377331D01*
X12175377Y-17377331D01*
X12194424Y-17367807D01*
X12203948Y-17348760D01*
X12203948Y-17339236D01*
X12194424Y-17320188D01*
X12175377Y-17310664D01*
X12146805Y-17310664D01*
X12127758Y-17301141D01*
X12118234Y-17282093D01*
X12118234Y-17272569D01*
X12127758Y-17253522D01*
X12146805Y-17243998D01*
X12175377Y-17243998D01*
X12194424Y-17253522D01*
X12270615Y-17453522D02*
X12280139Y-17443998D01*
X12299186Y-17415426D01*
X12308710Y-17396379D01*
X12318234Y-17367807D01*
X12327758Y-17320188D01*
X12327758Y-17282093D01*
X12318234Y-17234474D01*
X12308710Y-17205903D01*
X12299186Y-17186855D01*
X12280139Y-17158283D01*
X12270615Y-17148760D01*
D15*
X7097758Y-17530855D02*
X7097758Y-17570855D01*
X7077758Y-17550855D02*
X7117758Y-17550855D01*
D12*
X7413472Y-17441331D02*
X7432520Y-17441331D01*
X7451567Y-17450855D01*
X7461091Y-17460379D01*
X7470615Y-17479426D01*
X7480139Y-17517522D01*
X7480139Y-17565141D01*
X7470615Y-17603236D01*
X7461091Y-17622283D01*
X7451567Y-17631807D01*
X7432520Y-17641331D01*
X7413472Y-17641331D01*
X7394424Y-17631807D01*
X7384901Y-17622283D01*
X7375377Y-17603236D01*
X7365853Y-17565141D01*
X7365853Y-17517522D01*
X7375377Y-17479426D01*
X7384901Y-17460379D01*
X7394424Y-17450855D01*
X7413472Y-17441331D01*
X7565853Y-17622283D02*
X7575377Y-17631807D01*
X7565853Y-17641331D01*
X7556329Y-17631807D01*
X7565853Y-17622283D01*
X7565853Y-17641331D01*
X7746805Y-17507998D02*
X7746805Y-17641331D01*
X7699186Y-17431807D02*
X7651567Y-17574664D01*
X7775377Y-17574664D01*
X7889663Y-17441331D02*
X7908710Y-17441331D01*
X7927758Y-17450855D01*
X7937282Y-17460379D01*
X7946805Y-17479426D01*
X7956329Y-17517522D01*
X7956329Y-17565141D01*
X7946805Y-17603236D01*
X7937282Y-17622283D01*
X7927758Y-17631807D01*
X7908710Y-17641331D01*
X7889663Y-17641331D01*
X7870615Y-17631807D01*
X7861091Y-17622283D01*
X7851567Y-17603236D01*
X7842044Y-17565141D01*
X7842044Y-17517522D01*
X7851567Y-17479426D01*
X7861091Y-17460379D01*
X7870615Y-17450855D01*
X7889663Y-17441331D01*
X8080139Y-17441331D02*
X8099186Y-17441331D01*
X8118234Y-17450855D01*
X8127758Y-17460379D01*
X8137282Y-17479426D01*
X8146805Y-17517522D01*
X8146805Y-17565141D01*
X8137282Y-17603236D01*
X8127758Y-17622283D01*
X8118234Y-17631807D01*
X8099186Y-17641331D01*
X8080139Y-17641331D01*
X8061091Y-17631807D01*
X8051567Y-17622283D01*
X8042044Y-17603236D01*
X8032520Y-17565141D01*
X8032520Y-17517522D01*
X8042044Y-17479426D01*
X8051567Y-17460379D01*
X8061091Y-17450855D01*
X8080139Y-17441331D01*
X8232520Y-17641331D02*
X8232520Y-17507998D01*
X8232520Y-17527045D02*
X8242044Y-17517522D01*
X8261091Y-17507998D01*
X8289663Y-17507998D01*
X8308710Y-17517522D01*
X8318234Y-17536569D01*
X8318234Y-17641331D01*
X8318234Y-17536569D02*
X8327758Y-17517522D01*
X8346805Y-17507998D01*
X8375377Y-17507998D01*
X8394425Y-17517522D01*
X8403948Y-17536569D01*
X8403948Y-17641331D01*
X8499186Y-17641331D02*
X8499186Y-17507998D01*
X8499186Y-17527045D02*
X8508710Y-17517522D01*
X8527758Y-17507998D01*
X8556329Y-17507998D01*
X8575377Y-17517522D01*
X8584901Y-17536569D01*
X8584901Y-17641331D01*
X8584901Y-17536569D02*
X8594425Y-17517522D01*
X8613472Y-17507998D01*
X8642044Y-17507998D01*
X8661091Y-17517522D01*
X8670615Y-17536569D01*
X8670615Y-17641331D01*
X9061091Y-17431807D02*
X8889663Y-17688950D01*
X9318234Y-17441331D02*
X9337282Y-17441331D01*
X9356329Y-17450855D01*
X9365853Y-17460379D01*
X9375377Y-17479426D01*
X9384901Y-17517522D01*
X9384901Y-17565141D01*
X9375377Y-17603236D01*
X9365853Y-17622283D01*
X9356329Y-17631807D01*
X9337282Y-17641331D01*
X9318234Y-17641331D01*
X9299186Y-17631807D01*
X9289663Y-17622283D01*
X9280139Y-17603236D01*
X9270615Y-17565141D01*
X9270615Y-17517522D01*
X9280139Y-17479426D01*
X9289663Y-17460379D01*
X9299186Y-17450855D01*
X9318234Y-17441331D01*
X9470615Y-17622283D02*
X9480139Y-17631807D01*
X9470615Y-17641331D01*
X9461091Y-17631807D01*
X9470615Y-17622283D01*
X9470615Y-17641331D01*
X9603948Y-17441331D02*
X9622996Y-17441331D01*
X9642044Y-17450855D01*
X9651567Y-17460379D01*
X9661091Y-17479426D01*
X9670615Y-17517522D01*
X9670615Y-17565141D01*
X9661091Y-17603236D01*
X9651567Y-17622283D01*
X9642044Y-17631807D01*
X9622996Y-17641331D01*
X9603948Y-17641331D01*
X9584901Y-17631807D01*
X9575377Y-17622283D01*
X9565853Y-17603236D01*
X9556329Y-17565141D01*
X9556329Y-17517522D01*
X9565853Y-17479426D01*
X9575377Y-17460379D01*
X9584901Y-17450855D01*
X9603948Y-17441331D01*
X9861091Y-17641331D02*
X9746806Y-17641331D01*
X9803948Y-17641331D02*
X9803948Y-17441331D01*
X9784901Y-17469903D01*
X9765853Y-17488950D01*
X9746806Y-17498474D01*
X10042044Y-17441331D02*
X9946806Y-17441331D01*
X9937282Y-17536569D01*
X9946806Y-17527045D01*
X9965853Y-17517522D01*
X10013472Y-17517522D01*
X10032520Y-17527045D01*
X10042044Y-17536569D01*
X10051567Y-17555617D01*
X10051567Y-17603236D01*
X10042044Y-17622283D01*
X10032520Y-17631807D01*
X10013472Y-17641331D01*
X9965853Y-17641331D01*
X9946806Y-17631807D01*
X9937282Y-17622283D01*
X10118234Y-17441331D02*
X10251567Y-17441331D01*
X10165853Y-17641331D01*
X10318234Y-17441331D02*
X10318234Y-17479426D01*
X10394425Y-17441331D02*
X10394425Y-17479426D01*
X10689663Y-17717522D02*
X10680139Y-17707998D01*
X10661091Y-17679426D01*
X10651567Y-17660379D01*
X10642044Y-17631807D01*
X10632520Y-17584188D01*
X10632520Y-17546093D01*
X10642044Y-17498474D01*
X10651567Y-17469903D01*
X10661091Y-17450855D01*
X10680139Y-17422283D01*
X10689663Y-17412760D01*
X10851567Y-17507998D02*
X10851567Y-17641331D01*
X10803948Y-17431807D02*
X10756329Y-17574664D01*
X10880139Y-17574664D01*
X11042044Y-17507998D02*
X11042044Y-17641331D01*
X10994425Y-17431807D02*
X10946806Y-17574664D01*
X11070615Y-17574664D01*
X11299186Y-17641331D02*
X11299186Y-17441331D01*
X11384901Y-17641331D02*
X11384901Y-17536569D01*
X11375377Y-17517522D01*
X11356329Y-17507998D01*
X11327758Y-17507998D01*
X11308710Y-17517522D01*
X11299186Y-17527045D01*
X11508710Y-17641331D02*
X11489663Y-17631807D01*
X11480139Y-17622283D01*
X11470615Y-17603236D01*
X11470615Y-17546093D01*
X11480139Y-17527045D01*
X11489663Y-17517522D01*
X11508710Y-17507998D01*
X11537282Y-17507998D01*
X11556329Y-17517522D01*
X11565853Y-17527045D01*
X11575377Y-17546093D01*
X11575377Y-17603236D01*
X11565853Y-17622283D01*
X11556329Y-17631807D01*
X11537282Y-17641331D01*
X11508710Y-17641331D01*
X11689663Y-17641331D02*
X11670615Y-17631807D01*
X11661091Y-17612760D01*
X11661091Y-17441331D01*
X11842044Y-17631807D02*
X11822996Y-17641331D01*
X11784901Y-17641331D01*
X11765853Y-17631807D01*
X11756329Y-17612760D01*
X11756329Y-17536569D01*
X11765853Y-17517522D01*
X11784901Y-17507998D01*
X11822996Y-17507998D01*
X11842044Y-17517522D01*
X11851567Y-17536569D01*
X11851567Y-17555617D01*
X11756329Y-17574664D01*
X11927758Y-17631807D02*
X11946805Y-17641331D01*
X11984901Y-17641331D01*
X12003948Y-17631807D01*
X12013472Y-17612760D01*
X12013472Y-17603236D01*
X12003948Y-17584188D01*
X11984901Y-17574664D01*
X11956329Y-17574664D01*
X11937282Y-17565141D01*
X11927758Y-17546093D01*
X11927758Y-17536569D01*
X11937282Y-17517522D01*
X11956329Y-17507998D01*
X11984901Y-17507998D01*
X12003948Y-17517522D01*
X12080139Y-17717522D02*
X12089663Y-17707998D01*
X12108710Y-17679426D01*
X12118234Y-17660379D01*
X12127758Y-17631807D01*
X12137282Y-17584188D01*
X12137282Y-17546093D01*
X12127758Y-17498474D01*
X12118234Y-17469903D01*
X12108710Y-17450855D01*
X12089663Y-17422283D01*
X12080139Y-17412760D01*
D16*
X7110436Y-17832533D02*
X7110436Y-17797177D01*
X7075080Y-17797177D01*
X7075080Y-17832533D01*
X7110436Y-17832533D01*
D12*
X7413472Y-17705331D02*
X7432520Y-17705331D01*
X7451567Y-17714855D01*
X7461091Y-17724379D01*
X7470615Y-17743426D01*
X7480139Y-17781522D01*
X7480139Y-17829141D01*
X7470615Y-17867236D01*
X7461091Y-17886283D01*
X7451567Y-17895807D01*
X7432520Y-17905331D01*
X7413472Y-17905331D01*
X7394424Y-17895807D01*
X7384901Y-17886283D01*
X7375377Y-17867236D01*
X7365853Y-17829141D01*
X7365853Y-17781522D01*
X7375377Y-17743426D01*
X7384901Y-17724379D01*
X7394424Y-17714855D01*
X7413472Y-17705331D01*
X7565853Y-17886283D02*
X7575377Y-17895807D01*
X7565853Y-17905331D01*
X7556329Y-17895807D01*
X7565853Y-17886283D01*
X7565853Y-17905331D01*
X7756329Y-17705331D02*
X7661091Y-17705331D01*
X7651567Y-17800569D01*
X7661091Y-17791045D01*
X7680139Y-17781522D01*
X7727758Y-17781522D01*
X7746805Y-17791045D01*
X7756329Y-17800569D01*
X7765853Y-17819617D01*
X7765853Y-17867236D01*
X7756329Y-17886283D01*
X7746805Y-17895807D01*
X7727758Y-17905331D01*
X7680139Y-17905331D01*
X7661091Y-17895807D01*
X7651567Y-17886283D01*
X7889663Y-17705331D02*
X7908710Y-17705331D01*
X7927758Y-17714855D01*
X7937282Y-17724379D01*
X7946805Y-17743426D01*
X7956329Y-17781522D01*
X7956329Y-17829141D01*
X7946805Y-17867236D01*
X7937282Y-17886283D01*
X7927758Y-17895807D01*
X7908710Y-17905331D01*
X7889663Y-17905331D01*
X7870615Y-17895807D01*
X7861091Y-17886283D01*
X7851567Y-17867236D01*
X7842044Y-17829141D01*
X7842044Y-17781522D01*
X7851567Y-17743426D01*
X7861091Y-17724379D01*
X7870615Y-17714855D01*
X7889663Y-17705331D01*
X8080139Y-17705331D02*
X8099186Y-17705331D01*
X8118234Y-17714855D01*
X8127758Y-17724379D01*
X8137282Y-17743426D01*
X8146805Y-17781522D01*
X8146805Y-17829141D01*
X8137282Y-17867236D01*
X8127758Y-17886283D01*
X8118234Y-17895807D01*
X8099186Y-17905331D01*
X8080139Y-17905331D01*
X8061091Y-17895807D01*
X8051567Y-17886283D01*
X8042044Y-17867236D01*
X8032520Y-17829141D01*
X8032520Y-17781522D01*
X8042044Y-17743426D01*
X8051567Y-17724379D01*
X8061091Y-17714855D01*
X8080139Y-17705331D01*
X8232520Y-17905331D02*
X8232520Y-17771998D01*
X8232520Y-17791045D02*
X8242044Y-17781522D01*
X8261091Y-17771998D01*
X8289663Y-17771998D01*
X8308710Y-17781522D01*
X8318234Y-17800569D01*
X8318234Y-17905331D01*
X8318234Y-17800569D02*
X8327758Y-17781522D01*
X8346805Y-17771998D01*
X8375377Y-17771998D01*
X8394425Y-17781522D01*
X8403948Y-17800569D01*
X8403948Y-17905331D01*
X8499186Y-17905331D02*
X8499186Y-17771998D01*
X8499186Y-17791045D02*
X8508710Y-17781522D01*
X8527758Y-17771998D01*
X8556329Y-17771998D01*
X8575377Y-17781522D01*
X8584901Y-17800569D01*
X8584901Y-17905331D01*
X8584901Y-17800569D02*
X8594425Y-17781522D01*
X8613472Y-17771998D01*
X8642044Y-17771998D01*
X8661091Y-17781522D01*
X8670615Y-17800569D01*
X8670615Y-17905331D01*
X9061091Y-17695807D02*
X8889663Y-17952950D01*
X9318234Y-17705331D02*
X9337282Y-17705331D01*
X9356329Y-17714855D01*
X9365853Y-17724379D01*
X9375377Y-17743426D01*
X9384901Y-17781522D01*
X9384901Y-17829141D01*
X9375377Y-17867236D01*
X9365853Y-17886283D01*
X9356329Y-17895807D01*
X9337282Y-17905331D01*
X9318234Y-17905331D01*
X9299186Y-17895807D01*
X9289663Y-17886283D01*
X9280139Y-17867236D01*
X9270615Y-17829141D01*
X9270615Y-17781522D01*
X9280139Y-17743426D01*
X9289663Y-17724379D01*
X9299186Y-17714855D01*
X9318234Y-17705331D01*
X9470615Y-17886283D02*
X9480139Y-17895807D01*
X9470615Y-17905331D01*
X9461091Y-17895807D01*
X9470615Y-17886283D01*
X9470615Y-17905331D01*
X9603948Y-17705331D02*
X9622996Y-17705331D01*
X9642044Y-17714855D01*
X9651567Y-17724379D01*
X9661091Y-17743426D01*
X9670615Y-17781522D01*
X9670615Y-17829141D01*
X9661091Y-17867236D01*
X9651567Y-17886283D01*
X9642044Y-17895807D01*
X9622996Y-17905331D01*
X9603948Y-17905331D01*
X9584901Y-17895807D01*
X9575377Y-17886283D01*
X9565853Y-17867236D01*
X9556329Y-17829141D01*
X9556329Y-17781522D01*
X9565853Y-17743426D01*
X9575377Y-17724379D01*
X9584901Y-17714855D01*
X9603948Y-17705331D01*
X9861091Y-17905331D02*
X9746806Y-17905331D01*
X9803948Y-17905331D02*
X9803948Y-17705331D01*
X9784901Y-17733903D01*
X9765853Y-17752950D01*
X9746806Y-17762474D01*
X9956329Y-17905331D02*
X9994425Y-17905331D01*
X10013472Y-17895807D01*
X10022996Y-17886283D01*
X10042044Y-17857712D01*
X10051567Y-17819617D01*
X10051567Y-17743426D01*
X10042044Y-17724379D01*
X10032520Y-17714855D01*
X10013472Y-17705331D01*
X9975377Y-17705331D01*
X9956329Y-17714855D01*
X9946806Y-17724379D01*
X9937282Y-17743426D01*
X9937282Y-17791045D01*
X9946806Y-17810093D01*
X9956329Y-17819617D01*
X9975377Y-17829141D01*
X10013472Y-17829141D01*
X10032520Y-17819617D01*
X10042044Y-17810093D01*
X10051567Y-17791045D01*
X10118234Y-17705331D02*
X10251567Y-17705331D01*
X10165853Y-17905331D01*
X10318234Y-17705331D02*
X10318234Y-17743426D01*
X10394425Y-17705331D02*
X10394425Y-17743426D01*
X10689663Y-17981522D02*
X10680139Y-17971998D01*
X10661091Y-17943426D01*
X10651567Y-17924379D01*
X10642044Y-17895807D01*
X10632520Y-17848188D01*
X10632520Y-17810093D01*
X10642044Y-17762474D01*
X10651567Y-17733903D01*
X10661091Y-17714855D01*
X10680139Y-17686283D01*
X10689663Y-17676760D01*
X10756329Y-17724379D02*
X10765853Y-17714855D01*
X10784901Y-17705331D01*
X10832520Y-17705331D01*
X10851567Y-17714855D01*
X10861091Y-17724379D01*
X10870615Y-17743426D01*
X10870615Y-17762474D01*
X10861091Y-17791045D01*
X10746806Y-17905331D01*
X10870615Y-17905331D01*
X11108710Y-17905331D02*
X11108710Y-17705331D01*
X11194424Y-17905331D02*
X11194424Y-17800569D01*
X11184901Y-17781522D01*
X11165853Y-17771998D01*
X11137282Y-17771998D01*
X11118234Y-17781522D01*
X11108710Y-17791045D01*
X11318234Y-17905331D02*
X11299186Y-17895807D01*
X11289663Y-17886283D01*
X11280139Y-17867236D01*
X11280139Y-17810093D01*
X11289663Y-17791045D01*
X11299186Y-17781522D01*
X11318234Y-17771998D01*
X11346805Y-17771998D01*
X11365853Y-17781522D01*
X11375377Y-17791045D01*
X11384901Y-17810093D01*
X11384901Y-17867236D01*
X11375377Y-17886283D01*
X11365853Y-17895807D01*
X11346805Y-17905331D01*
X11318234Y-17905331D01*
X11499186Y-17905331D02*
X11480139Y-17895807D01*
X11470615Y-17876760D01*
X11470615Y-17705331D01*
X11651567Y-17895807D02*
X11632520Y-17905331D01*
X11594424Y-17905331D01*
X11575377Y-17895807D01*
X11565853Y-17876760D01*
X11565853Y-17800569D01*
X11575377Y-17781522D01*
X11594424Y-17771998D01*
X11632520Y-17771998D01*
X11651567Y-17781522D01*
X11661091Y-17800569D01*
X11661091Y-17819617D01*
X11565853Y-17838664D01*
X11737282Y-17895807D02*
X11756329Y-17905331D01*
X11794424Y-17905331D01*
X11813472Y-17895807D01*
X11822996Y-17876760D01*
X11822996Y-17867236D01*
X11813472Y-17848188D01*
X11794424Y-17838664D01*
X11765853Y-17838664D01*
X11746805Y-17829141D01*
X11737282Y-17810093D01*
X11737282Y-17800569D01*
X11746805Y-17781522D01*
X11765853Y-17771998D01*
X11794424Y-17771998D01*
X11813472Y-17781522D01*
X11889663Y-17981522D02*
X11899186Y-17971998D01*
X11918234Y-17943426D01*
X11927758Y-17924379D01*
X11937282Y-17895807D01*
X11946805Y-17848188D01*
X11946805Y-17810093D01*
X11937282Y-17762474D01*
X11927758Y-17733903D01*
X11918234Y-17714855D01*
X11899186Y-17686283D01*
X11889663Y-17676760D01*
D17*
X7080258Y-18116355D02*
X7117758Y-18078855D01*
X7080258Y-18041355D01*
X7042758Y-18078855D01*
X7080258Y-18116355D01*
D12*
X7413472Y-17969331D02*
X7432520Y-17969331D01*
X7451567Y-17978855D01*
X7461091Y-17988379D01*
X7470615Y-18007426D01*
X7480139Y-18045522D01*
X7480139Y-18093141D01*
X7470615Y-18131236D01*
X7461091Y-18150283D01*
X7451567Y-18159807D01*
X7432520Y-18169331D01*
X7413472Y-18169331D01*
X7394424Y-18159807D01*
X7384901Y-18150283D01*
X7375377Y-18131236D01*
X7365853Y-18093141D01*
X7365853Y-18045522D01*
X7375377Y-18007426D01*
X7384901Y-17988379D01*
X7394424Y-17978855D01*
X7413472Y-17969331D01*
X7565853Y-18150283D02*
X7575377Y-18159807D01*
X7565853Y-18169331D01*
X7556329Y-18159807D01*
X7565853Y-18150283D01*
X7565853Y-18169331D01*
X7642044Y-17969331D02*
X7775377Y-17969331D01*
X7689663Y-18169331D01*
X7946805Y-17969331D02*
X7851567Y-17969331D01*
X7842044Y-18064569D01*
X7851567Y-18055045D01*
X7870615Y-18045522D01*
X7918234Y-18045522D01*
X7937282Y-18055045D01*
X7946805Y-18064569D01*
X7956329Y-18083617D01*
X7956329Y-18131236D01*
X7946805Y-18150283D01*
X7937282Y-18159807D01*
X7918234Y-18169331D01*
X7870615Y-18169331D01*
X7851567Y-18159807D01*
X7842044Y-18150283D01*
X8080139Y-17969331D02*
X8099186Y-17969331D01*
X8118234Y-17978855D01*
X8127758Y-17988379D01*
X8137282Y-18007426D01*
X8146805Y-18045522D01*
X8146805Y-18093141D01*
X8137282Y-18131236D01*
X8127758Y-18150283D01*
X8118234Y-18159807D01*
X8099186Y-18169331D01*
X8080139Y-18169331D01*
X8061091Y-18159807D01*
X8051567Y-18150283D01*
X8042044Y-18131236D01*
X8032520Y-18093141D01*
X8032520Y-18045522D01*
X8042044Y-18007426D01*
X8051567Y-17988379D01*
X8061091Y-17978855D01*
X8080139Y-17969331D01*
X8232520Y-18169331D02*
X8232520Y-18035998D01*
X8232520Y-18055045D02*
X8242044Y-18045522D01*
X8261091Y-18035998D01*
X8289663Y-18035998D01*
X8308710Y-18045522D01*
X8318234Y-18064569D01*
X8318234Y-18169331D01*
X8318234Y-18064569D02*
X8327758Y-18045522D01*
X8346805Y-18035998D01*
X8375377Y-18035998D01*
X8394425Y-18045522D01*
X8403948Y-18064569D01*
X8403948Y-18169331D01*
X8499186Y-18169331D02*
X8499186Y-18035998D01*
X8499186Y-18055045D02*
X8508710Y-18045522D01*
X8527758Y-18035998D01*
X8556329Y-18035998D01*
X8575377Y-18045522D01*
X8584901Y-18064569D01*
X8584901Y-18169331D01*
X8584901Y-18064569D02*
X8594425Y-18045522D01*
X8613472Y-18035998D01*
X8642044Y-18035998D01*
X8661091Y-18045522D01*
X8670615Y-18064569D01*
X8670615Y-18169331D01*
X9061091Y-17959807D02*
X8889663Y-18216950D01*
X9318234Y-17969331D02*
X9337282Y-17969331D01*
X9356329Y-17978855D01*
X9365853Y-17988379D01*
X9375377Y-18007426D01*
X9384901Y-18045522D01*
X9384901Y-18093141D01*
X9375377Y-18131236D01*
X9365853Y-18150283D01*
X9356329Y-18159807D01*
X9337282Y-18169331D01*
X9318234Y-18169331D01*
X9299186Y-18159807D01*
X9289663Y-18150283D01*
X9280139Y-18131236D01*
X9270615Y-18093141D01*
X9270615Y-18045522D01*
X9280139Y-18007426D01*
X9289663Y-17988379D01*
X9299186Y-17978855D01*
X9318234Y-17969331D01*
X9470615Y-18150283D02*
X9480139Y-18159807D01*
X9470615Y-18169331D01*
X9461091Y-18159807D01*
X9470615Y-18150283D01*
X9470615Y-18169331D01*
X9603948Y-17969331D02*
X9622996Y-17969331D01*
X9642044Y-17978855D01*
X9651567Y-17988379D01*
X9661091Y-18007426D01*
X9670615Y-18045522D01*
X9670615Y-18093141D01*
X9661091Y-18131236D01*
X9651567Y-18150283D01*
X9642044Y-18159807D01*
X9622996Y-18169331D01*
X9603948Y-18169331D01*
X9584901Y-18159807D01*
X9575377Y-18150283D01*
X9565853Y-18131236D01*
X9556329Y-18093141D01*
X9556329Y-18045522D01*
X9565853Y-18007426D01*
X9575377Y-17988379D01*
X9584901Y-17978855D01*
X9603948Y-17969331D01*
X9746806Y-17988379D02*
X9756329Y-17978855D01*
X9775377Y-17969331D01*
X9822996Y-17969331D01*
X9842044Y-17978855D01*
X9851567Y-17988379D01*
X9861091Y-18007426D01*
X9861091Y-18026474D01*
X9851567Y-18055045D01*
X9737282Y-18169331D01*
X9861091Y-18169331D01*
X9956329Y-18169331D02*
X9994425Y-18169331D01*
X10013472Y-18159807D01*
X10022996Y-18150283D01*
X10042044Y-18121712D01*
X10051567Y-18083617D01*
X10051567Y-18007426D01*
X10042044Y-17988379D01*
X10032520Y-17978855D01*
X10013472Y-17969331D01*
X9975377Y-17969331D01*
X9956329Y-17978855D01*
X9946806Y-17988379D01*
X9937282Y-18007426D01*
X9937282Y-18055045D01*
X9946806Y-18074093D01*
X9956329Y-18083617D01*
X9975377Y-18093141D01*
X10013472Y-18093141D01*
X10032520Y-18083617D01*
X10042044Y-18074093D01*
X10051567Y-18055045D01*
X10232520Y-17969331D02*
X10137282Y-17969331D01*
X10127758Y-18064569D01*
X10137282Y-18055045D01*
X10156329Y-18045522D01*
X10203948Y-18045522D01*
X10222996Y-18055045D01*
X10232520Y-18064569D01*
X10242044Y-18083617D01*
X10242044Y-18131236D01*
X10232520Y-18150283D01*
X10222996Y-18159807D01*
X10203948Y-18169331D01*
X10156329Y-18169331D01*
X10137282Y-18159807D01*
X10127758Y-18150283D01*
X10318234Y-17969331D02*
X10318234Y-18007426D01*
X10394425Y-17969331D02*
X10394425Y-18007426D01*
X10689663Y-18245522D02*
X10680139Y-18235998D01*
X10661091Y-18207426D01*
X10651567Y-18188379D01*
X10642044Y-18159807D01*
X10632520Y-18112188D01*
X10632520Y-18074093D01*
X10642044Y-18026474D01*
X10651567Y-17997903D01*
X10661091Y-17978855D01*
X10680139Y-17950283D01*
X10689663Y-17940760D01*
X10756329Y-17988379D02*
X10765853Y-17978855D01*
X10784901Y-17969331D01*
X10832520Y-17969331D01*
X10851567Y-17978855D01*
X10861091Y-17988379D01*
X10870615Y-18007426D01*
X10870615Y-18026474D01*
X10861091Y-18055045D01*
X10746806Y-18169331D01*
X10870615Y-18169331D01*
X11108710Y-18169331D02*
X11108710Y-17969331D01*
X11194424Y-18169331D02*
X11194424Y-18064569D01*
X11184901Y-18045522D01*
X11165853Y-18035998D01*
X11137282Y-18035998D01*
X11118234Y-18045522D01*
X11108710Y-18055045D01*
X11318234Y-18169331D02*
X11299186Y-18159807D01*
X11289663Y-18150283D01*
X11280139Y-18131236D01*
X11280139Y-18074093D01*
X11289663Y-18055045D01*
X11299186Y-18045522D01*
X11318234Y-18035998D01*
X11346805Y-18035998D01*
X11365853Y-18045522D01*
X11375377Y-18055045D01*
X11384901Y-18074093D01*
X11384901Y-18131236D01*
X11375377Y-18150283D01*
X11365853Y-18159807D01*
X11346805Y-18169331D01*
X11318234Y-18169331D01*
X11499186Y-18169331D02*
X11480139Y-18159807D01*
X11470615Y-18140760D01*
X11470615Y-17969331D01*
X11651567Y-18159807D02*
X11632520Y-18169331D01*
X11594424Y-18169331D01*
X11575377Y-18159807D01*
X11565853Y-18140760D01*
X11565853Y-18064569D01*
X11575377Y-18045522D01*
X11594424Y-18035998D01*
X11632520Y-18035998D01*
X11651567Y-18045522D01*
X11661091Y-18064569D01*
X11661091Y-18083617D01*
X11565853Y-18102664D01*
X11737282Y-18159807D02*
X11756329Y-18169331D01*
X11794424Y-18169331D01*
X11813472Y-18159807D01*
X11822996Y-18140760D01*
X11822996Y-18131236D01*
X11813472Y-18112188D01*
X11794424Y-18102664D01*
X11765853Y-18102664D01*
X11746805Y-18093141D01*
X11737282Y-18074093D01*
X11737282Y-18064569D01*
X11746805Y-18045522D01*
X11765853Y-18035998D01*
X11794424Y-18035998D01*
X11813472Y-18045522D01*
X11889663Y-18245522D02*
X11899186Y-18235998D01*
X11918234Y-18207426D01*
X11927758Y-18188379D01*
X11937282Y-18159807D01*
X11946805Y-18112188D01*
X11946805Y-18074093D01*
X11937282Y-18026474D01*
X11927758Y-17997903D01*
X11918234Y-17978855D01*
X11899186Y-17950283D01*
X11889663Y-17940760D01*
D18*
X7036478Y-18302215D02*
X7117758Y-18383495D01*
X7117758Y-18302215D02*
X7036478Y-18383495D01*
X7117758Y-18342855D02*
G75*
G03*
X7117758Y-18342855I-40640J0D01*
G01*
D12*
X7413472Y-18233331D02*
X7432520Y-18233331D01*
X7451567Y-18242855D01*
X7461091Y-18252379D01*
X7470615Y-18271426D01*
X7480139Y-18309522D01*
X7480139Y-18357141D01*
X7470615Y-18395236D01*
X7461091Y-18414283D01*
X7451567Y-18423807D01*
X7432520Y-18433331D01*
X7413472Y-18433331D01*
X7394424Y-18423807D01*
X7384901Y-18414283D01*
X7375377Y-18395236D01*
X7365853Y-18357141D01*
X7365853Y-18309522D01*
X7375377Y-18271426D01*
X7384901Y-18252379D01*
X7394424Y-18242855D01*
X7413472Y-18233331D01*
X7565853Y-18414283D02*
X7575377Y-18423807D01*
X7565853Y-18433331D01*
X7556329Y-18423807D01*
X7565853Y-18414283D01*
X7565853Y-18433331D01*
X7689663Y-18319045D02*
X7670615Y-18309522D01*
X7661091Y-18299998D01*
X7651567Y-18280950D01*
X7651567Y-18271426D01*
X7661091Y-18252379D01*
X7670615Y-18242855D01*
X7689663Y-18233331D01*
X7727758Y-18233331D01*
X7746805Y-18242855D01*
X7756329Y-18252379D01*
X7765853Y-18271426D01*
X7765853Y-18280950D01*
X7756329Y-18299998D01*
X7746805Y-18309522D01*
X7727758Y-18319045D01*
X7689663Y-18319045D01*
X7670615Y-18328569D01*
X7661091Y-18338093D01*
X7651567Y-18357141D01*
X7651567Y-18395236D01*
X7661091Y-18414283D01*
X7670615Y-18423807D01*
X7689663Y-18433331D01*
X7727758Y-18433331D01*
X7746805Y-18423807D01*
X7756329Y-18414283D01*
X7765853Y-18395236D01*
X7765853Y-18357141D01*
X7756329Y-18338093D01*
X7746805Y-18328569D01*
X7727758Y-18319045D01*
X7956329Y-18433331D02*
X7842044Y-18433331D01*
X7899186Y-18433331D02*
X7899186Y-18233331D01*
X7880139Y-18261903D01*
X7861091Y-18280950D01*
X7842044Y-18290474D01*
X8022996Y-18233331D02*
X8146805Y-18233331D01*
X8080139Y-18309522D01*
X8108710Y-18309522D01*
X8127758Y-18319045D01*
X8137282Y-18328569D01*
X8146805Y-18347617D01*
X8146805Y-18395236D01*
X8137282Y-18414283D01*
X8127758Y-18423807D01*
X8108710Y-18433331D01*
X8051567Y-18433331D01*
X8032520Y-18423807D01*
X8022996Y-18414283D01*
X8232520Y-18433331D02*
X8232520Y-18299998D01*
X8232520Y-18319045D02*
X8242044Y-18309522D01*
X8261091Y-18299998D01*
X8289663Y-18299998D01*
X8308710Y-18309522D01*
X8318234Y-18328569D01*
X8318234Y-18433331D01*
X8318234Y-18328569D02*
X8327758Y-18309522D01*
X8346805Y-18299998D01*
X8375377Y-18299998D01*
X8394425Y-18309522D01*
X8403948Y-18328569D01*
X8403948Y-18433331D01*
X8499186Y-18433331D02*
X8499186Y-18299998D01*
X8499186Y-18319045D02*
X8508710Y-18309522D01*
X8527758Y-18299998D01*
X8556329Y-18299998D01*
X8575377Y-18309522D01*
X8584901Y-18328569D01*
X8584901Y-18433331D01*
X8584901Y-18328569D02*
X8594425Y-18309522D01*
X8613472Y-18299998D01*
X8642044Y-18299998D01*
X8661091Y-18309522D01*
X8670615Y-18328569D01*
X8670615Y-18433331D01*
X9061091Y-18223807D02*
X8889663Y-18480950D01*
X9318234Y-18233331D02*
X9337282Y-18233331D01*
X9356329Y-18242855D01*
X9365853Y-18252379D01*
X9375377Y-18271426D01*
X9384901Y-18309522D01*
X9384901Y-18357141D01*
X9375377Y-18395236D01*
X9365853Y-18414283D01*
X9356329Y-18423807D01*
X9337282Y-18433331D01*
X9318234Y-18433331D01*
X9299186Y-18423807D01*
X9289663Y-18414283D01*
X9280139Y-18395236D01*
X9270615Y-18357141D01*
X9270615Y-18309522D01*
X9280139Y-18271426D01*
X9289663Y-18252379D01*
X9299186Y-18242855D01*
X9318234Y-18233331D01*
X9470615Y-18414283D02*
X9480139Y-18423807D01*
X9470615Y-18433331D01*
X9461091Y-18423807D01*
X9470615Y-18414283D01*
X9470615Y-18433331D01*
X9603948Y-18233331D02*
X9622996Y-18233331D01*
X9642044Y-18242855D01*
X9651567Y-18252379D01*
X9661091Y-18271426D01*
X9670615Y-18309522D01*
X9670615Y-18357141D01*
X9661091Y-18395236D01*
X9651567Y-18414283D01*
X9642044Y-18423807D01*
X9622996Y-18433331D01*
X9603948Y-18433331D01*
X9584901Y-18423807D01*
X9575377Y-18414283D01*
X9565853Y-18395236D01*
X9556329Y-18357141D01*
X9556329Y-18309522D01*
X9565853Y-18271426D01*
X9575377Y-18252379D01*
X9584901Y-18242855D01*
X9603948Y-18233331D01*
X9737282Y-18233331D02*
X9861091Y-18233331D01*
X9794425Y-18309522D01*
X9822996Y-18309522D01*
X9842044Y-18319045D01*
X9851567Y-18328569D01*
X9861091Y-18347617D01*
X9861091Y-18395236D01*
X9851567Y-18414283D01*
X9842044Y-18423807D01*
X9822996Y-18433331D01*
X9765853Y-18433331D01*
X9746806Y-18423807D01*
X9737282Y-18414283D01*
X9937282Y-18252379D02*
X9946806Y-18242855D01*
X9965853Y-18233331D01*
X10013472Y-18233331D01*
X10032520Y-18242855D01*
X10042044Y-18252379D01*
X10051567Y-18271426D01*
X10051567Y-18290474D01*
X10042044Y-18319045D01*
X9927758Y-18433331D01*
X10051567Y-18433331D01*
X10175377Y-18233331D02*
X10194425Y-18233331D01*
X10213472Y-18242855D01*
X10222996Y-18252379D01*
X10232520Y-18271426D01*
X10242044Y-18309522D01*
X10242044Y-18357141D01*
X10232520Y-18395236D01*
X10222996Y-18414283D01*
X10213472Y-18423807D01*
X10194425Y-18433331D01*
X10175377Y-18433331D01*
X10156329Y-18423807D01*
X10146806Y-18414283D01*
X10137282Y-18395236D01*
X10127758Y-18357141D01*
X10127758Y-18309522D01*
X10137282Y-18271426D01*
X10146806Y-18252379D01*
X10156329Y-18242855D01*
X10175377Y-18233331D01*
X10318234Y-18233331D02*
X10318234Y-18271426D01*
X10394425Y-18233331D02*
X10394425Y-18271426D01*
X10689663Y-18509522D02*
X10680139Y-18499998D01*
X10661091Y-18471426D01*
X10651567Y-18452379D01*
X10642044Y-18423807D01*
X10632520Y-18376188D01*
X10632520Y-18338093D01*
X10642044Y-18290474D01*
X10651567Y-18261903D01*
X10661091Y-18242855D01*
X10680139Y-18214283D01*
X10689663Y-18204760D01*
X10851567Y-18299998D02*
X10851567Y-18433331D01*
X10803948Y-18223807D02*
X10756329Y-18366664D01*
X10880139Y-18366664D01*
X10984901Y-18319045D02*
X10965853Y-18309522D01*
X10956329Y-18299998D01*
X10946806Y-18280950D01*
X10946806Y-18271426D01*
X10956329Y-18252379D01*
X10965853Y-18242855D01*
X10984901Y-18233331D01*
X11022996Y-18233331D01*
X11042044Y-18242855D01*
X11051567Y-18252379D01*
X11061091Y-18271426D01*
X11061091Y-18280950D01*
X11051567Y-18299998D01*
X11042044Y-18309522D01*
X11022996Y-18319045D01*
X10984901Y-18319045D01*
X10965853Y-18328569D01*
X10956329Y-18338093D01*
X10946806Y-18357141D01*
X10946806Y-18395236D01*
X10956329Y-18414283D01*
X10965853Y-18423807D01*
X10984901Y-18433331D01*
X11022996Y-18433331D01*
X11042044Y-18423807D01*
X11051567Y-18414283D01*
X11061091Y-18395236D01*
X11061091Y-18357141D01*
X11051567Y-18338093D01*
X11042044Y-18328569D01*
X11022996Y-18319045D01*
X11299186Y-18433331D02*
X11299186Y-18233331D01*
X11384901Y-18433331D02*
X11384901Y-18328569D01*
X11375377Y-18309522D01*
X11356329Y-18299998D01*
X11327758Y-18299998D01*
X11308710Y-18309522D01*
X11299186Y-18319045D01*
X11508710Y-18433331D02*
X11489663Y-18423807D01*
X11480139Y-18414283D01*
X11470615Y-18395236D01*
X11470615Y-18338093D01*
X11480139Y-18319045D01*
X11489663Y-18309522D01*
X11508710Y-18299998D01*
X11537282Y-18299998D01*
X11556329Y-18309522D01*
X11565853Y-18319045D01*
X11575377Y-18338093D01*
X11575377Y-18395236D01*
X11565853Y-18414283D01*
X11556329Y-18423807D01*
X11537282Y-18433331D01*
X11508710Y-18433331D01*
X11689663Y-18433331D02*
X11670615Y-18423807D01*
X11661091Y-18404760D01*
X11661091Y-18233331D01*
X11842044Y-18423807D02*
X11822996Y-18433331D01*
X11784901Y-18433331D01*
X11765853Y-18423807D01*
X11756329Y-18404760D01*
X11756329Y-18328569D01*
X11765853Y-18309522D01*
X11784901Y-18299998D01*
X11822996Y-18299998D01*
X11842044Y-18309522D01*
X11851567Y-18328569D01*
X11851567Y-18347617D01*
X11756329Y-18366664D01*
X11927758Y-18423807D02*
X11946805Y-18433331D01*
X11984901Y-18433331D01*
X12003948Y-18423807D01*
X12013472Y-18404760D01*
X12013472Y-18395236D01*
X12003948Y-18376188D01*
X11984901Y-18366664D01*
X11956329Y-18366664D01*
X11937282Y-18357141D01*
X11927758Y-18338093D01*
X11927758Y-18328569D01*
X11937282Y-18309522D01*
X11956329Y-18299998D01*
X11984901Y-18299998D01*
X12003948Y-18309522D01*
X12080139Y-18509522D02*
X12089663Y-18499998D01*
X12108710Y-18471426D01*
X12118234Y-18452379D01*
X12127758Y-18423807D01*
X12137282Y-18376188D01*
X12137282Y-18338093D01*
X12127758Y-18290474D01*
X12118234Y-18261903D01*
X12108710Y-18242855D01*
X12089663Y-18214283D01*
X12080139Y-18204760D01*
D11*
X7017758Y-18556855D02*
X7117758Y-18656855D01*
X7117758Y-18556855D02*
X7017758Y-18656855D01*
X7067758Y-18556855D02*
X7067758Y-18656855D01*
X7017758Y-18606855D02*
X7117758Y-18606855D01*
D12*
X7480139Y-18697331D02*
X7365853Y-18697331D01*
X7422996Y-18697331D02*
X7422996Y-18497331D01*
X7403948Y-18525903D01*
X7384901Y-18544950D01*
X7365853Y-18554474D01*
X7565853Y-18678283D02*
X7575377Y-18687807D01*
X7565853Y-18697331D01*
X7556329Y-18687807D01*
X7565853Y-18678283D01*
X7565853Y-18697331D01*
X7699186Y-18497331D02*
X7718234Y-18497331D01*
X7737282Y-18506855D01*
X7746805Y-18516379D01*
X7756329Y-18535426D01*
X7765853Y-18573522D01*
X7765853Y-18621141D01*
X7756329Y-18659236D01*
X7746805Y-18678283D01*
X7737282Y-18687807D01*
X7718234Y-18697331D01*
X7699186Y-18697331D01*
X7680139Y-18687807D01*
X7670615Y-18678283D01*
X7661091Y-18659236D01*
X7651567Y-18621141D01*
X7651567Y-18573522D01*
X7661091Y-18535426D01*
X7670615Y-18516379D01*
X7680139Y-18506855D01*
X7699186Y-18497331D01*
X7889663Y-18497331D02*
X7908710Y-18497331D01*
X7927758Y-18506855D01*
X7937282Y-18516379D01*
X7946805Y-18535426D01*
X7956329Y-18573522D01*
X7956329Y-18621141D01*
X7946805Y-18659236D01*
X7937282Y-18678283D01*
X7927758Y-18687807D01*
X7908710Y-18697331D01*
X7889663Y-18697331D01*
X7870615Y-18687807D01*
X7861091Y-18678283D01*
X7851567Y-18659236D01*
X7842044Y-18621141D01*
X7842044Y-18573522D01*
X7851567Y-18535426D01*
X7861091Y-18516379D01*
X7870615Y-18506855D01*
X7889663Y-18497331D01*
X8080139Y-18497331D02*
X8099186Y-18497331D01*
X8118234Y-18506855D01*
X8127758Y-18516379D01*
X8137282Y-18535426D01*
X8146805Y-18573522D01*
X8146805Y-18621141D01*
X8137282Y-18659236D01*
X8127758Y-18678283D01*
X8118234Y-18687807D01*
X8099186Y-18697331D01*
X8080139Y-18697331D01*
X8061091Y-18687807D01*
X8051567Y-18678283D01*
X8042044Y-18659236D01*
X8032520Y-18621141D01*
X8032520Y-18573522D01*
X8042044Y-18535426D01*
X8051567Y-18516379D01*
X8061091Y-18506855D01*
X8080139Y-18497331D01*
X8232520Y-18697331D02*
X8232520Y-18563998D01*
X8232520Y-18583045D02*
X8242044Y-18573522D01*
X8261091Y-18563998D01*
X8289663Y-18563998D01*
X8308710Y-18573522D01*
X8318234Y-18592569D01*
X8318234Y-18697331D01*
X8318234Y-18592569D02*
X8327758Y-18573522D01*
X8346805Y-18563998D01*
X8375377Y-18563998D01*
X8394425Y-18573522D01*
X8403948Y-18592569D01*
X8403948Y-18697331D01*
X8499186Y-18697331D02*
X8499186Y-18563998D01*
X8499186Y-18583045D02*
X8508710Y-18573522D01*
X8527758Y-18563998D01*
X8556329Y-18563998D01*
X8575377Y-18573522D01*
X8584901Y-18592569D01*
X8584901Y-18697331D01*
X8584901Y-18592569D02*
X8594425Y-18573522D01*
X8613472Y-18563998D01*
X8642044Y-18563998D01*
X8661091Y-18573522D01*
X8670615Y-18592569D01*
X8670615Y-18697331D01*
X9061091Y-18487807D02*
X8889663Y-18744950D01*
X9318234Y-18497331D02*
X9337282Y-18497331D01*
X9356329Y-18506855D01*
X9365853Y-18516379D01*
X9375377Y-18535426D01*
X9384901Y-18573522D01*
X9384901Y-18621141D01*
X9375377Y-18659236D01*
X9365853Y-18678283D01*
X9356329Y-18687807D01*
X9337282Y-18697331D01*
X9318234Y-18697331D01*
X9299186Y-18687807D01*
X9289663Y-18678283D01*
X9280139Y-18659236D01*
X9270615Y-18621141D01*
X9270615Y-18573522D01*
X9280139Y-18535426D01*
X9289663Y-18516379D01*
X9299186Y-18506855D01*
X9318234Y-18497331D01*
X9470615Y-18678283D02*
X9480139Y-18687807D01*
X9470615Y-18697331D01*
X9461091Y-18687807D01*
X9470615Y-18678283D01*
X9470615Y-18697331D01*
X9603948Y-18497331D02*
X9622996Y-18497331D01*
X9642044Y-18506855D01*
X9651567Y-18516379D01*
X9661091Y-18535426D01*
X9670615Y-18573522D01*
X9670615Y-18621141D01*
X9661091Y-18659236D01*
X9651567Y-18678283D01*
X9642044Y-18687807D01*
X9622996Y-18697331D01*
X9603948Y-18697331D01*
X9584901Y-18687807D01*
X9575377Y-18678283D01*
X9565853Y-18659236D01*
X9556329Y-18621141D01*
X9556329Y-18573522D01*
X9565853Y-18535426D01*
X9575377Y-18516379D01*
X9584901Y-18506855D01*
X9603948Y-18497331D01*
X9737282Y-18497331D02*
X9861091Y-18497331D01*
X9794425Y-18573522D01*
X9822996Y-18573522D01*
X9842044Y-18583045D01*
X9851567Y-18592569D01*
X9861091Y-18611617D01*
X9861091Y-18659236D01*
X9851567Y-18678283D01*
X9842044Y-18687807D01*
X9822996Y-18697331D01*
X9765853Y-18697331D01*
X9746806Y-18687807D01*
X9737282Y-18678283D01*
X9956329Y-18697331D02*
X9994425Y-18697331D01*
X10013472Y-18687807D01*
X10022996Y-18678283D01*
X10042044Y-18649712D01*
X10051567Y-18611617D01*
X10051567Y-18535426D01*
X10042044Y-18516379D01*
X10032520Y-18506855D01*
X10013472Y-18497331D01*
X9975377Y-18497331D01*
X9956329Y-18506855D01*
X9946806Y-18516379D01*
X9937282Y-18535426D01*
X9937282Y-18583045D01*
X9946806Y-18602093D01*
X9956329Y-18611617D01*
X9975377Y-18621141D01*
X10013472Y-18621141D01*
X10032520Y-18611617D01*
X10042044Y-18602093D01*
X10051567Y-18583045D01*
X10222996Y-18563998D02*
X10222996Y-18697331D01*
X10175377Y-18487807D02*
X10127758Y-18630664D01*
X10251567Y-18630664D01*
X10318234Y-18497331D02*
X10318234Y-18535426D01*
X10394425Y-18497331D02*
X10394425Y-18535426D01*
X10689663Y-18773522D02*
X10680139Y-18763998D01*
X10661091Y-18735426D01*
X10651567Y-18716379D01*
X10642044Y-18687807D01*
X10632520Y-18640188D01*
X10632520Y-18602093D01*
X10642044Y-18554474D01*
X10651567Y-18525903D01*
X10661091Y-18506855D01*
X10680139Y-18478283D01*
X10689663Y-18468760D01*
X10870615Y-18697331D02*
X10756329Y-18697331D01*
X10813472Y-18697331D02*
X10813472Y-18497331D01*
X10794425Y-18525903D01*
X10775377Y-18544950D01*
X10756329Y-18554474D01*
X11042044Y-18497331D02*
X11003948Y-18497331D01*
X10984901Y-18506855D01*
X10975377Y-18516379D01*
X10956329Y-18544950D01*
X10946806Y-18583045D01*
X10946806Y-18659236D01*
X10956329Y-18678283D01*
X10965853Y-18687807D01*
X10984901Y-18697331D01*
X11022996Y-18697331D01*
X11042044Y-18687807D01*
X11051567Y-18678283D01*
X11061091Y-18659236D01*
X11061091Y-18611617D01*
X11051567Y-18592569D01*
X11042044Y-18583045D01*
X11022996Y-18573522D01*
X10984901Y-18573522D01*
X10965853Y-18583045D01*
X10956329Y-18592569D01*
X10946806Y-18611617D01*
X11299186Y-18697331D02*
X11299186Y-18497331D01*
X11384901Y-18697331D02*
X11384901Y-18592569D01*
X11375377Y-18573522D01*
X11356329Y-18563998D01*
X11327758Y-18563998D01*
X11308710Y-18573522D01*
X11299186Y-18583045D01*
X11508710Y-18697331D02*
X11489663Y-18687807D01*
X11480139Y-18678283D01*
X11470615Y-18659236D01*
X11470615Y-18602093D01*
X11480139Y-18583045D01*
X11489663Y-18573522D01*
X11508710Y-18563998D01*
X11537282Y-18563998D01*
X11556329Y-18573522D01*
X11565853Y-18583045D01*
X11575377Y-18602093D01*
X11575377Y-18659236D01*
X11565853Y-18678283D01*
X11556329Y-18687807D01*
X11537282Y-18697331D01*
X11508710Y-18697331D01*
X11689663Y-18697331D02*
X11670615Y-18687807D01*
X11661091Y-18668760D01*
X11661091Y-18497331D01*
X11842044Y-18687807D02*
X11822996Y-18697331D01*
X11784901Y-18697331D01*
X11765853Y-18687807D01*
X11756329Y-18668760D01*
X11756329Y-18592569D01*
X11765853Y-18573522D01*
X11784901Y-18563998D01*
X11822996Y-18563998D01*
X11842044Y-18573522D01*
X11851567Y-18592569D01*
X11851567Y-18611617D01*
X11756329Y-18630664D01*
X11927758Y-18687807D02*
X11946805Y-18697331D01*
X11984901Y-18697331D01*
X12003948Y-18687807D01*
X12013472Y-18668760D01*
X12013472Y-18659236D01*
X12003948Y-18640188D01*
X11984901Y-18630664D01*
X11956329Y-18630664D01*
X11937282Y-18621141D01*
X11927758Y-18602093D01*
X11927758Y-18592569D01*
X11937282Y-18573522D01*
X11956329Y-18563998D01*
X11984901Y-18563998D01*
X12003948Y-18573522D01*
X12251567Y-18621141D02*
X12403948Y-18621141D01*
X12327758Y-18697331D02*
X12327758Y-18544950D01*
X12680139Y-18583045D02*
X12661091Y-18573522D01*
X12651567Y-18563998D01*
X12642044Y-18544950D01*
X12642044Y-18535426D01*
X12651567Y-18516379D01*
X12661091Y-18506855D01*
X12680139Y-18497331D01*
X12718234Y-18497331D01*
X12737282Y-18506855D01*
X12746805Y-18516379D01*
X12756329Y-18535426D01*
X12756329Y-18544950D01*
X12746805Y-18563998D01*
X12737282Y-18573522D01*
X12718234Y-18583045D01*
X12680139Y-18583045D01*
X12661091Y-18592569D01*
X12651567Y-18602093D01*
X12642044Y-18621141D01*
X12642044Y-18659236D01*
X12651567Y-18678283D01*
X12661091Y-18687807D01*
X12680139Y-18697331D01*
X12718234Y-18697331D01*
X12737282Y-18687807D01*
X12746805Y-18678283D01*
X12756329Y-18659236D01*
X12756329Y-18621141D01*
X12746805Y-18602093D01*
X12737282Y-18592569D01*
X12718234Y-18583045D01*
X12984901Y-18687807D02*
X13003948Y-18697331D01*
X13042044Y-18697331D01*
X13061091Y-18687807D01*
X13070615Y-18668760D01*
X13070615Y-18659236D01*
X13061091Y-18640188D01*
X13042044Y-18630664D01*
X13013472Y-18630664D01*
X12994424Y-18621141D01*
X12984901Y-18602093D01*
X12984901Y-18592569D01*
X12994424Y-18573522D01*
X13013472Y-18563998D01*
X13042044Y-18563998D01*
X13061091Y-18573522D01*
X13184901Y-18697331D02*
X13165853Y-18687807D01*
X13156329Y-18668760D01*
X13156329Y-18497331D01*
X13289663Y-18697331D02*
X13270615Y-18687807D01*
X13261091Y-18678283D01*
X13251567Y-18659236D01*
X13251567Y-18602093D01*
X13261091Y-18583045D01*
X13270615Y-18573522D01*
X13289663Y-18563998D01*
X13318234Y-18563998D01*
X13337282Y-18573522D01*
X13346805Y-18583045D01*
X13356329Y-18602093D01*
X13356329Y-18659236D01*
X13346805Y-18678283D01*
X13337282Y-18687807D01*
X13318234Y-18697331D01*
X13289663Y-18697331D01*
X13413472Y-18563998D02*
X13489663Y-18563998D01*
X13442044Y-18497331D02*
X13442044Y-18668760D01*
X13451567Y-18687807D01*
X13470615Y-18697331D01*
X13489663Y-18697331D01*
X13546805Y-18687807D02*
X13565853Y-18697331D01*
X13603948Y-18697331D01*
X13622996Y-18687807D01*
X13632520Y-18668760D01*
X13632520Y-18659236D01*
X13622996Y-18640188D01*
X13603948Y-18630664D01*
X13575377Y-18630664D01*
X13556329Y-18621141D01*
X13546805Y-18602093D01*
X13546805Y-18592569D01*
X13556329Y-18573522D01*
X13575377Y-18563998D01*
X13603948Y-18563998D01*
X13622996Y-18573522D01*
X13699186Y-18773522D02*
X13708710Y-18763998D01*
X13727758Y-18735426D01*
X13737282Y-18716379D01*
X13746805Y-18687807D01*
X13756329Y-18640188D01*
X13756329Y-18602093D01*
X13746805Y-18554474D01*
X13737282Y-18525903D01*
X13727758Y-18506855D01*
X13708710Y-18478283D01*
X13699186Y-18468760D01*
D19*
X6967758Y-18795855D02*
X7117758Y-18945855D01*
X7117758Y-18795855D02*
X6967758Y-18945855D01*
X7095791Y-18923888D02*
X7095791Y-18817821D01*
X6989724Y-18817821D01*
X6989724Y-18923888D01*
X7095791Y-18923888D01*
D12*
X7480139Y-18961331D02*
X7365853Y-18961331D01*
X7422996Y-18961331D02*
X7422996Y-18761331D01*
X7403948Y-18789903D01*
X7384901Y-18808950D01*
X7365853Y-18818474D01*
X7565853Y-18942283D02*
X7575377Y-18951807D01*
X7565853Y-18961331D01*
X7556329Y-18951807D01*
X7565853Y-18942283D01*
X7565853Y-18961331D01*
X7756329Y-18761331D02*
X7661091Y-18761331D01*
X7651567Y-18856569D01*
X7661091Y-18847045D01*
X7680139Y-18837522D01*
X7727758Y-18837522D01*
X7746805Y-18847045D01*
X7756329Y-18856569D01*
X7765853Y-18875617D01*
X7765853Y-18923236D01*
X7756329Y-18942283D01*
X7746805Y-18951807D01*
X7727758Y-18961331D01*
X7680139Y-18961331D01*
X7661091Y-18951807D01*
X7651567Y-18942283D01*
X7889663Y-18761331D02*
X7908710Y-18761331D01*
X7927758Y-18770855D01*
X7937282Y-18780379D01*
X7946805Y-18799426D01*
X7956329Y-18837522D01*
X7956329Y-18885141D01*
X7946805Y-18923236D01*
X7937282Y-18942283D01*
X7927758Y-18951807D01*
X7908710Y-18961331D01*
X7889663Y-18961331D01*
X7870615Y-18951807D01*
X7861091Y-18942283D01*
X7851567Y-18923236D01*
X7842044Y-18885141D01*
X7842044Y-18837522D01*
X7851567Y-18799426D01*
X7861091Y-18780379D01*
X7870615Y-18770855D01*
X7889663Y-18761331D01*
X8080139Y-18761331D02*
X8099186Y-18761331D01*
X8118234Y-18770855D01*
X8127758Y-18780379D01*
X8137282Y-18799426D01*
X8146805Y-18837522D01*
X8146805Y-18885141D01*
X8137282Y-18923236D01*
X8127758Y-18942283D01*
X8118234Y-18951807D01*
X8099186Y-18961331D01*
X8080139Y-18961331D01*
X8061091Y-18951807D01*
X8051567Y-18942283D01*
X8042044Y-18923236D01*
X8032520Y-18885141D01*
X8032520Y-18837522D01*
X8042044Y-18799426D01*
X8051567Y-18780379D01*
X8061091Y-18770855D01*
X8080139Y-18761331D01*
X8232520Y-18961331D02*
X8232520Y-18827998D01*
X8232520Y-18847045D02*
X8242044Y-18837522D01*
X8261091Y-18827998D01*
X8289663Y-18827998D01*
X8308710Y-18837522D01*
X8318234Y-18856569D01*
X8318234Y-18961331D01*
X8318234Y-18856569D02*
X8327758Y-18837522D01*
X8346805Y-18827998D01*
X8375377Y-18827998D01*
X8394425Y-18837522D01*
X8403948Y-18856569D01*
X8403948Y-18961331D01*
X8499186Y-18961331D02*
X8499186Y-18827998D01*
X8499186Y-18847045D02*
X8508710Y-18837522D01*
X8527758Y-18827998D01*
X8556329Y-18827998D01*
X8575377Y-18837522D01*
X8584901Y-18856569D01*
X8584901Y-18961331D01*
X8584901Y-18856569D02*
X8594425Y-18837522D01*
X8613472Y-18827998D01*
X8642044Y-18827998D01*
X8661091Y-18837522D01*
X8670615Y-18856569D01*
X8670615Y-18961331D01*
X9061091Y-18751807D02*
X8889663Y-19008950D01*
X9318234Y-18761331D02*
X9337282Y-18761331D01*
X9356329Y-18770855D01*
X9365853Y-18780379D01*
X9375377Y-18799426D01*
X9384901Y-18837522D01*
X9384901Y-18885141D01*
X9375377Y-18923236D01*
X9365853Y-18942283D01*
X9356329Y-18951807D01*
X9337282Y-18961331D01*
X9318234Y-18961331D01*
X9299186Y-18951807D01*
X9289663Y-18942283D01*
X9280139Y-18923236D01*
X9270615Y-18885141D01*
X9270615Y-18837522D01*
X9280139Y-18799426D01*
X9289663Y-18780379D01*
X9299186Y-18770855D01*
X9318234Y-18761331D01*
X9470615Y-18942283D02*
X9480139Y-18951807D01*
X9470615Y-18961331D01*
X9461091Y-18951807D01*
X9470615Y-18942283D01*
X9470615Y-18961331D01*
X9603948Y-18761331D02*
X9622996Y-18761331D01*
X9642044Y-18770855D01*
X9651567Y-18780379D01*
X9661091Y-18799426D01*
X9670615Y-18837522D01*
X9670615Y-18885141D01*
X9661091Y-18923236D01*
X9651567Y-18942283D01*
X9642044Y-18951807D01*
X9622996Y-18961331D01*
X9603948Y-18961331D01*
X9584901Y-18951807D01*
X9575377Y-18942283D01*
X9565853Y-18923236D01*
X9556329Y-18885141D01*
X9556329Y-18837522D01*
X9565853Y-18799426D01*
X9575377Y-18780379D01*
X9584901Y-18770855D01*
X9603948Y-18761331D01*
X9851567Y-18761331D02*
X9756329Y-18761331D01*
X9746806Y-18856569D01*
X9756329Y-18847045D01*
X9775377Y-18837522D01*
X9822996Y-18837522D01*
X9842044Y-18847045D01*
X9851567Y-18856569D01*
X9861091Y-18875617D01*
X9861091Y-18923236D01*
X9851567Y-18942283D01*
X9842044Y-18951807D01*
X9822996Y-18961331D01*
X9775377Y-18961331D01*
X9756329Y-18951807D01*
X9746806Y-18942283D01*
X9956329Y-18961331D02*
X9994425Y-18961331D01*
X10013472Y-18951807D01*
X10022996Y-18942283D01*
X10042044Y-18913712D01*
X10051567Y-18875617D01*
X10051567Y-18799426D01*
X10042044Y-18780379D01*
X10032520Y-18770855D01*
X10013472Y-18761331D01*
X9975377Y-18761331D01*
X9956329Y-18770855D01*
X9946806Y-18780379D01*
X9937282Y-18799426D01*
X9937282Y-18847045D01*
X9946806Y-18866093D01*
X9956329Y-18875617D01*
X9975377Y-18885141D01*
X10013472Y-18885141D01*
X10032520Y-18875617D01*
X10042044Y-18866093D01*
X10051567Y-18847045D01*
X10242044Y-18961331D02*
X10127758Y-18961331D01*
X10184901Y-18961331D02*
X10184901Y-18761331D01*
X10165853Y-18789903D01*
X10146806Y-18808950D01*
X10127758Y-18818474D01*
X10318234Y-18761331D02*
X10318234Y-18799426D01*
X10394425Y-18761331D02*
X10394425Y-18799426D01*
X10689663Y-19037522D02*
X10680139Y-19027998D01*
X10661091Y-18999426D01*
X10651567Y-18980379D01*
X10642044Y-18951807D01*
X10632520Y-18904188D01*
X10632520Y-18866093D01*
X10642044Y-18818474D01*
X10651567Y-18789903D01*
X10661091Y-18770855D01*
X10680139Y-18742283D01*
X10689663Y-18732760D01*
X10794425Y-18847045D02*
X10775377Y-18837522D01*
X10765853Y-18827998D01*
X10756329Y-18808950D01*
X10756329Y-18799426D01*
X10765853Y-18780379D01*
X10775377Y-18770855D01*
X10794425Y-18761331D01*
X10832520Y-18761331D01*
X10851567Y-18770855D01*
X10861091Y-18780379D01*
X10870615Y-18799426D01*
X10870615Y-18808950D01*
X10861091Y-18827998D01*
X10851567Y-18837522D01*
X10832520Y-18847045D01*
X10794425Y-18847045D01*
X10775377Y-18856569D01*
X10765853Y-18866093D01*
X10756329Y-18885141D01*
X10756329Y-18923236D01*
X10765853Y-18942283D01*
X10775377Y-18951807D01*
X10794425Y-18961331D01*
X10832520Y-18961331D01*
X10851567Y-18951807D01*
X10861091Y-18942283D01*
X10870615Y-18923236D01*
X10870615Y-18885141D01*
X10861091Y-18866093D01*
X10851567Y-18856569D01*
X10832520Y-18847045D01*
X11042044Y-18827998D02*
X11042044Y-18961331D01*
X10994425Y-18751807D02*
X10946806Y-18894664D01*
X11070615Y-18894664D01*
X11299186Y-18961331D02*
X11299186Y-18761331D01*
X11384901Y-18961331D02*
X11384901Y-18856569D01*
X11375377Y-18837522D01*
X11356329Y-18827998D01*
X11327758Y-18827998D01*
X11308710Y-18837522D01*
X11299186Y-18847045D01*
X11508710Y-18961331D02*
X11489663Y-18951807D01*
X11480139Y-18942283D01*
X11470615Y-18923236D01*
X11470615Y-18866093D01*
X11480139Y-18847045D01*
X11489663Y-18837522D01*
X11508710Y-18827998D01*
X11537282Y-18827998D01*
X11556329Y-18837522D01*
X11565853Y-18847045D01*
X11575377Y-18866093D01*
X11575377Y-18923236D01*
X11565853Y-18942283D01*
X11556329Y-18951807D01*
X11537282Y-18961331D01*
X11508710Y-18961331D01*
X11689663Y-18961331D02*
X11670615Y-18951807D01*
X11661091Y-18932760D01*
X11661091Y-18761331D01*
X11842044Y-18951807D02*
X11822996Y-18961331D01*
X11784901Y-18961331D01*
X11765853Y-18951807D01*
X11756329Y-18932760D01*
X11756329Y-18856569D01*
X11765853Y-18837522D01*
X11784901Y-18827998D01*
X11822996Y-18827998D01*
X11842044Y-18837522D01*
X11851567Y-18856569D01*
X11851567Y-18875617D01*
X11756329Y-18894664D01*
X11927758Y-18951807D02*
X11946805Y-18961331D01*
X11984901Y-18961331D01*
X12003948Y-18951807D01*
X12013472Y-18932760D01*
X12013472Y-18923236D01*
X12003948Y-18904188D01*
X11984901Y-18894664D01*
X11956329Y-18894664D01*
X11937282Y-18885141D01*
X11927758Y-18866093D01*
X11927758Y-18856569D01*
X11937282Y-18837522D01*
X11956329Y-18827998D01*
X11984901Y-18827998D01*
X12003948Y-18837522D01*
X12251567Y-18885141D02*
X12403948Y-18885141D01*
X12327758Y-18961331D02*
X12327758Y-18808950D01*
X12642044Y-18780379D02*
X12651567Y-18770855D01*
X12670615Y-18761331D01*
X12718234Y-18761331D01*
X12737282Y-18770855D01*
X12746805Y-18780379D01*
X12756329Y-18799426D01*
X12756329Y-18818474D01*
X12746805Y-18847045D01*
X12632520Y-18961331D01*
X12756329Y-18961331D01*
X12984901Y-18951807D02*
X13003948Y-18961331D01*
X13042044Y-18961331D01*
X13061091Y-18951807D01*
X13070615Y-18932760D01*
X13070615Y-18923236D01*
X13061091Y-18904188D01*
X13042044Y-18894664D01*
X13013472Y-18894664D01*
X12994424Y-18885141D01*
X12984901Y-18866093D01*
X12984901Y-18856569D01*
X12994424Y-18837522D01*
X13013472Y-18827998D01*
X13042044Y-18827998D01*
X13061091Y-18837522D01*
X13184901Y-18961331D02*
X13165853Y-18951807D01*
X13156329Y-18932760D01*
X13156329Y-18761331D01*
X13289663Y-18961331D02*
X13270615Y-18951807D01*
X13261091Y-18942283D01*
X13251567Y-18923236D01*
X13251567Y-18866093D01*
X13261091Y-18847045D01*
X13270615Y-18837522D01*
X13289663Y-18827998D01*
X13318234Y-18827998D01*
X13337282Y-18837522D01*
X13346805Y-18847045D01*
X13356329Y-18866093D01*
X13356329Y-18923236D01*
X13346805Y-18942283D01*
X13337282Y-18951807D01*
X13318234Y-18961331D01*
X13289663Y-18961331D01*
X13413472Y-18827998D02*
X13489663Y-18827998D01*
X13442044Y-18761331D02*
X13442044Y-18932760D01*
X13451567Y-18951807D01*
X13470615Y-18961331D01*
X13489663Y-18961331D01*
X13546805Y-18951807D02*
X13565853Y-18961331D01*
X13603948Y-18961331D01*
X13622996Y-18951807D01*
X13632520Y-18932760D01*
X13632520Y-18923236D01*
X13622996Y-18904188D01*
X13603948Y-18894664D01*
X13575377Y-18894664D01*
X13556329Y-18885141D01*
X13546805Y-18866093D01*
X13546805Y-18856569D01*
X13556329Y-18837522D01*
X13575377Y-18827998D01*
X13603948Y-18827998D01*
X13622996Y-18837522D01*
X13699186Y-19037522D02*
X13708710Y-19027998D01*
X13727758Y-18999426D01*
X13737282Y-18980379D01*
X13746805Y-18951807D01*
X13756329Y-18904188D01*
X13756329Y-18866093D01*
X13746805Y-18818474D01*
X13737282Y-18789903D01*
X13727758Y-18770855D01*
X13708710Y-18742283D01*
X13699186Y-18732760D01*
X6917758Y-19040855D02*
X7117758Y-19240855D01*
X7117758Y-19040855D02*
X6917758Y-19240855D01*
X7017758Y-19240855D02*
X7117758Y-19140855D01*
X7017758Y-19040855D01*
X6917758Y-19140855D01*
X7017758Y-19240855D01*
X7365853Y-19050379D02*
X7375377Y-19040855D01*
X7394424Y-19031331D01*
X7442044Y-19031331D01*
X7461091Y-19040855D01*
X7470615Y-19050379D01*
X7480139Y-19069426D01*
X7480139Y-19088474D01*
X7470615Y-19117045D01*
X7356329Y-19231331D01*
X7480139Y-19231331D01*
X7565853Y-19212283D02*
X7575377Y-19221807D01*
X7565853Y-19231331D01*
X7556329Y-19221807D01*
X7565853Y-19212283D01*
X7565853Y-19231331D01*
X7651567Y-19050379D02*
X7661091Y-19040855D01*
X7680139Y-19031331D01*
X7727758Y-19031331D01*
X7746805Y-19040855D01*
X7756329Y-19050379D01*
X7765853Y-19069426D01*
X7765853Y-19088474D01*
X7756329Y-19117045D01*
X7642044Y-19231331D01*
X7765853Y-19231331D01*
X7889663Y-19031331D02*
X7908710Y-19031331D01*
X7927758Y-19040855D01*
X7937282Y-19050379D01*
X7946805Y-19069426D01*
X7956329Y-19107522D01*
X7956329Y-19155141D01*
X7946805Y-19193236D01*
X7937282Y-19212283D01*
X7927758Y-19221807D01*
X7908710Y-19231331D01*
X7889663Y-19231331D01*
X7870615Y-19221807D01*
X7861091Y-19212283D01*
X7851567Y-19193236D01*
X7842044Y-19155141D01*
X7842044Y-19107522D01*
X7851567Y-19069426D01*
X7861091Y-19050379D01*
X7870615Y-19040855D01*
X7889663Y-19031331D01*
X8080139Y-19031331D02*
X8099186Y-19031331D01*
X8118234Y-19040855D01*
X8127758Y-19050379D01*
X8137282Y-19069426D01*
X8146805Y-19107522D01*
X8146805Y-19155141D01*
X8137282Y-19193236D01*
X8127758Y-19212283D01*
X8118234Y-19221807D01*
X8099186Y-19231331D01*
X8080139Y-19231331D01*
X8061091Y-19221807D01*
X8051567Y-19212283D01*
X8042044Y-19193236D01*
X8032520Y-19155141D01*
X8032520Y-19107522D01*
X8042044Y-19069426D01*
X8051567Y-19050379D01*
X8061091Y-19040855D01*
X8080139Y-19031331D01*
X8232520Y-19231331D02*
X8232520Y-19097998D01*
X8232520Y-19117045D02*
X8242044Y-19107522D01*
X8261091Y-19097998D01*
X8289663Y-19097998D01*
X8308710Y-19107522D01*
X8318234Y-19126569D01*
X8318234Y-19231331D01*
X8318234Y-19126569D02*
X8327758Y-19107522D01*
X8346805Y-19097998D01*
X8375377Y-19097998D01*
X8394425Y-19107522D01*
X8403948Y-19126569D01*
X8403948Y-19231331D01*
X8499186Y-19231331D02*
X8499186Y-19097998D01*
X8499186Y-19117045D02*
X8508710Y-19107522D01*
X8527758Y-19097998D01*
X8556329Y-19097998D01*
X8575377Y-19107522D01*
X8584901Y-19126569D01*
X8584901Y-19231331D01*
X8584901Y-19126569D02*
X8594425Y-19107522D01*
X8613472Y-19097998D01*
X8642044Y-19097998D01*
X8661091Y-19107522D01*
X8670615Y-19126569D01*
X8670615Y-19231331D01*
X9061091Y-19021807D02*
X8889663Y-19278950D01*
X9318234Y-19031331D02*
X9337282Y-19031331D01*
X9356329Y-19040855D01*
X9365853Y-19050379D01*
X9375377Y-19069426D01*
X9384901Y-19107522D01*
X9384901Y-19155141D01*
X9375377Y-19193236D01*
X9365853Y-19212283D01*
X9356329Y-19221807D01*
X9337282Y-19231331D01*
X9318234Y-19231331D01*
X9299186Y-19221807D01*
X9289663Y-19212283D01*
X9280139Y-19193236D01*
X9270615Y-19155141D01*
X9270615Y-19107522D01*
X9280139Y-19069426D01*
X9289663Y-19050379D01*
X9299186Y-19040855D01*
X9318234Y-19031331D01*
X9470615Y-19212283D02*
X9480139Y-19221807D01*
X9470615Y-19231331D01*
X9461091Y-19221807D01*
X9470615Y-19212283D01*
X9470615Y-19231331D01*
X9603948Y-19031331D02*
X9622996Y-19031331D01*
X9642044Y-19040855D01*
X9651567Y-19050379D01*
X9661091Y-19069426D01*
X9670615Y-19107522D01*
X9670615Y-19155141D01*
X9661091Y-19193236D01*
X9651567Y-19212283D01*
X9642044Y-19221807D01*
X9622996Y-19231331D01*
X9603948Y-19231331D01*
X9584901Y-19221807D01*
X9575377Y-19212283D01*
X9565853Y-19193236D01*
X9556329Y-19155141D01*
X9556329Y-19107522D01*
X9565853Y-19069426D01*
X9575377Y-19050379D01*
X9584901Y-19040855D01*
X9603948Y-19031331D01*
X9784901Y-19117045D02*
X9765853Y-19107522D01*
X9756329Y-19097998D01*
X9746806Y-19078950D01*
X9746806Y-19069426D01*
X9756329Y-19050379D01*
X9765853Y-19040855D01*
X9784901Y-19031331D01*
X9822996Y-19031331D01*
X9842044Y-19040855D01*
X9851567Y-19050379D01*
X9861091Y-19069426D01*
X9861091Y-19078950D01*
X9851567Y-19097998D01*
X9842044Y-19107522D01*
X9822996Y-19117045D01*
X9784901Y-19117045D01*
X9765853Y-19126569D01*
X9756329Y-19136093D01*
X9746806Y-19155141D01*
X9746806Y-19193236D01*
X9756329Y-19212283D01*
X9765853Y-19221807D01*
X9784901Y-19231331D01*
X9822996Y-19231331D01*
X9842044Y-19221807D01*
X9851567Y-19212283D01*
X9861091Y-19193236D01*
X9861091Y-19155141D01*
X9851567Y-19136093D01*
X9842044Y-19126569D01*
X9822996Y-19117045D01*
X10032520Y-19031331D02*
X9994425Y-19031331D01*
X9975377Y-19040855D01*
X9965853Y-19050379D01*
X9946806Y-19078950D01*
X9937282Y-19117045D01*
X9937282Y-19193236D01*
X9946806Y-19212283D01*
X9956329Y-19221807D01*
X9975377Y-19231331D01*
X10013472Y-19231331D01*
X10032520Y-19221807D01*
X10042044Y-19212283D01*
X10051567Y-19193236D01*
X10051567Y-19145617D01*
X10042044Y-19126569D01*
X10032520Y-19117045D01*
X10013472Y-19107522D01*
X9975377Y-19107522D01*
X9956329Y-19117045D01*
X9946806Y-19126569D01*
X9937282Y-19145617D01*
X10222996Y-19031331D02*
X10184901Y-19031331D01*
X10165853Y-19040855D01*
X10156329Y-19050379D01*
X10137282Y-19078950D01*
X10127758Y-19117045D01*
X10127758Y-19193236D01*
X10137282Y-19212283D01*
X10146806Y-19221807D01*
X10165853Y-19231331D01*
X10203948Y-19231331D01*
X10222996Y-19221807D01*
X10232520Y-19212283D01*
X10242044Y-19193236D01*
X10242044Y-19145617D01*
X10232520Y-19126569D01*
X10222996Y-19117045D01*
X10203948Y-19107522D01*
X10165853Y-19107522D01*
X10146806Y-19117045D01*
X10137282Y-19126569D01*
X10127758Y-19145617D01*
X10318234Y-19031331D02*
X10318234Y-19069426D01*
X10394425Y-19031331D02*
X10394425Y-19069426D01*
X10689663Y-19307522D02*
X10680139Y-19297998D01*
X10661091Y-19269426D01*
X10651567Y-19250379D01*
X10642044Y-19221807D01*
X10632520Y-19174188D01*
X10632520Y-19136093D01*
X10642044Y-19088474D01*
X10651567Y-19059903D01*
X10661091Y-19040855D01*
X10680139Y-19012283D01*
X10689663Y-19002760D01*
X10746806Y-19031331D02*
X10870615Y-19031331D01*
X10803948Y-19107522D01*
X10832520Y-19107522D01*
X10851567Y-19117045D01*
X10861091Y-19126569D01*
X10870615Y-19145617D01*
X10870615Y-19193236D01*
X10861091Y-19212283D01*
X10851567Y-19221807D01*
X10832520Y-19231331D01*
X10775377Y-19231331D01*
X10756329Y-19221807D01*
X10746806Y-19212283D01*
X11108710Y-19231331D02*
X11108710Y-19031331D01*
X11194424Y-19231331D02*
X11194424Y-19126569D01*
X11184901Y-19107522D01*
X11165853Y-19097998D01*
X11137282Y-19097998D01*
X11118234Y-19107522D01*
X11108710Y-19117045D01*
X11318234Y-19231331D02*
X11299186Y-19221807D01*
X11289663Y-19212283D01*
X11280139Y-19193236D01*
X11280139Y-19136093D01*
X11289663Y-19117045D01*
X11299186Y-19107522D01*
X11318234Y-19097998D01*
X11346805Y-19097998D01*
X11365853Y-19107522D01*
X11375377Y-19117045D01*
X11384901Y-19136093D01*
X11384901Y-19193236D01*
X11375377Y-19212283D01*
X11365853Y-19221807D01*
X11346805Y-19231331D01*
X11318234Y-19231331D01*
X11499186Y-19231331D02*
X11480139Y-19221807D01*
X11470615Y-19202760D01*
X11470615Y-19031331D01*
X11651567Y-19221807D02*
X11632520Y-19231331D01*
X11594424Y-19231331D01*
X11575377Y-19221807D01*
X11565853Y-19202760D01*
X11565853Y-19126569D01*
X11575377Y-19107522D01*
X11594424Y-19097998D01*
X11632520Y-19097998D01*
X11651567Y-19107522D01*
X11661091Y-19126569D01*
X11661091Y-19145617D01*
X11565853Y-19164664D01*
X11737282Y-19221807D02*
X11756329Y-19231331D01*
X11794424Y-19231331D01*
X11813472Y-19221807D01*
X11822996Y-19202760D01*
X11822996Y-19193236D01*
X11813472Y-19174188D01*
X11794424Y-19164664D01*
X11765853Y-19164664D01*
X11746805Y-19155141D01*
X11737282Y-19136093D01*
X11737282Y-19126569D01*
X11746805Y-19107522D01*
X11765853Y-19097998D01*
X11794424Y-19097998D01*
X11813472Y-19107522D01*
X11889663Y-19307522D02*
X11899186Y-19297998D01*
X11918234Y-19269426D01*
X11927758Y-19250379D01*
X11937282Y-19221807D01*
X11946805Y-19174188D01*
X11946805Y-19136093D01*
X11937282Y-19088474D01*
X11927758Y-19059903D01*
X11918234Y-19040855D01*
X11899186Y-19012283D01*
X11889663Y-19002760D01*
M02*
