G04 #@! TF.GenerationSoftware,KiCad,Pcbnew,(6.0.8)*
G04 #@! TF.CreationDate,2022-11-27T04:27:55-08:00*
G04 #@! TF.ProjectId,klor1_3,6b6c6f72-315f-4332-9e6b-696361645f70,v1.3.0*
G04 #@! TF.SameCoordinates,Original*
G04 #@! TF.FileFunction,Profile,NP*
%FSLAX46Y46*%
G04 Gerber Fmt 4.6, Leading zero omitted, Abs format (unit mm)*
G04 Created by KiCad (PCBNEW (6.0.8)) date 2022-11-27 04:27:55*
%MOMM*%
%LPD*%
G01*
G04 APERTURE LIST*
G04 #@! TA.AperFunction,Profile*
%ADD10C,0.010000*%
G04 #@! TD*
%ADD11C,0.010000*%
G04 #@! TA.AperFunction,Profile*
%ADD12C,0.100000*%
G04 #@! TD*
G04 #@! TA.AperFunction,Profile*
%ADD13C,0.120000*%
G04 #@! TD*
G04 APERTURE END LIST*
D10*
X94559095Y-145418507D02*
X91244778Y-139706599D01*
X213627717Y-86501225D02*
X211688487Y-97396163D01*
D11*
X95405304Y-144924887D02*
X95417907Y-144945021D01*
X95429277Y-144965723D01*
X95439421Y-144986942D01*
X95448344Y-145008626D01*
X95456054Y-145030723D01*
X95462556Y-145053182D01*
X95467858Y-145075950D01*
X95471965Y-145098977D01*
X95474884Y-145122210D01*
X95476622Y-145145598D01*
X95477185Y-145169090D01*
X95476579Y-145192633D01*
X95474811Y-145216176D01*
X95471888Y-145239667D01*
X95467815Y-145263055D01*
X95462600Y-145286289D01*
X95456248Y-145309315D01*
X95448767Y-145332083D01*
X95440162Y-145354542D01*
X95430440Y-145376639D01*
X95419608Y-145398322D01*
X95407672Y-145419541D01*
X95394638Y-145440244D01*
X95380513Y-145460378D01*
X95365304Y-145479892D01*
X95349016Y-145498735D01*
X95331657Y-145516855D01*
X95313233Y-145534200D01*
X95293749Y-145550719D01*
X95273214Y-145566360D01*
X95251632Y-145581071D01*
X95229012Y-145594801D01*
D10*
X210595467Y-71622056D02*
X210595468Y-50255285D01*
X92196762Y-56989695D02*
X92196762Y-49514851D01*
D11*
X153123792Y-135546073D02*
X153159938Y-135545150D01*
X153195626Y-135542414D01*
X153230810Y-135537909D01*
X153265446Y-135531679D01*
X153299488Y-135523772D01*
X153332890Y-135514231D01*
X153365608Y-135503102D01*
X153397597Y-135490429D01*
X153428811Y-135476259D01*
X153459205Y-135460637D01*
X153488734Y-135443607D01*
X153517352Y-135425214D01*
X153545015Y-135405505D01*
X153571678Y-135384524D01*
X153597294Y-135362316D01*
X153621820Y-135338927D01*
X153645209Y-135314402D01*
X153667417Y-135288785D01*
X153688398Y-135262123D01*
X153708107Y-135234459D01*
X153726499Y-135205841D01*
X153743529Y-135176312D01*
X153759152Y-135145918D01*
X153773322Y-135114704D01*
X153785994Y-135082715D01*
X153797123Y-135049997D01*
X153806664Y-135016595D01*
X153814571Y-134982553D01*
X153820800Y-134947917D01*
X153825305Y-134912733D01*
X153828041Y-134877045D01*
X153828964Y-134840899D01*
X231186547Y-90273904D02*
X231198641Y-90237755D01*
X231208515Y-90202052D01*
X231216219Y-90166827D01*
X231221806Y-90132112D01*
X231225326Y-90097940D01*
X231226833Y-90064341D01*
X231226377Y-90031350D01*
X231224010Y-89998998D01*
X231219783Y-89967317D01*
X231213749Y-89936340D01*
X231205959Y-89906099D01*
X231196464Y-89876626D01*
X231185316Y-89847953D01*
X231172568Y-89820114D01*
X231158270Y-89793139D01*
X231142474Y-89767062D01*
X231125232Y-89741915D01*
X231106596Y-89717729D01*
X231086616Y-89694538D01*
X231065346Y-89672373D01*
X231042836Y-89651267D01*
X231019138Y-89631252D01*
X230994303Y-89612361D01*
X230968384Y-89594625D01*
X230941432Y-89578076D01*
X230913499Y-89562749D01*
X230884636Y-89548673D01*
X230854895Y-89535882D01*
X230824328Y-89524409D01*
X230792986Y-89514284D01*
X230760921Y-89505541D01*
X230728185Y-89498213D01*
D10*
X148892748Y-49514851D02*
X102457044Y-49514851D01*
D11*
X105524551Y-146652563D02*
X105594068Y-146606389D01*
X105663786Y-146560421D01*
X105733698Y-146514660D01*
X105803796Y-146469106D01*
X105874076Y-146423759D01*
X105944530Y-146378618D01*
X106015152Y-146333684D01*
X106085935Y-146288956D01*
X106156873Y-146244435D01*
X106227959Y-146200120D01*
X106299188Y-146156012D01*
X106370552Y-146112111D01*
X106442046Y-146068416D01*
X106513662Y-146024928D01*
X106585394Y-145981647D01*
X106657236Y-145938572D01*
X106729181Y-145895704D01*
X106801223Y-145853042D01*
X106873355Y-145810587D01*
X106945572Y-145768338D01*
X107017865Y-145726297D01*
X107090230Y-145684461D01*
X107162660Y-145642833D01*
X107235147Y-145601411D01*
X107307686Y-145560195D01*
X107380271Y-145519186D01*
X107452894Y-145478384D01*
X107525549Y-145437788D01*
X107598230Y-145397399D01*
X107670930Y-145357217D01*
X107743644Y-145317241D01*
X107816364Y-145277472D01*
D10*
X214438665Y-72291970D02*
X210595467Y-71622056D01*
D11*
X207281151Y-119468107D02*
X207307280Y-119472126D01*
X207332765Y-119477541D01*
X207357577Y-119484298D01*
X207381693Y-119492346D01*
X207405085Y-119501634D01*
X207427729Y-119512110D01*
X207449598Y-119523723D01*
X207470666Y-119536419D01*
X207490908Y-119550149D01*
X207510297Y-119564861D01*
X207528809Y-119580501D01*
X207546417Y-119597020D01*
X207563095Y-119614366D01*
X207578817Y-119632486D01*
X207593559Y-119651329D01*
X207607293Y-119670843D01*
X207619994Y-119690978D01*
X207631636Y-119711680D01*
X207642194Y-119732899D01*
X207651641Y-119754583D01*
X207659952Y-119776680D01*
X207667101Y-119799138D01*
X207673062Y-119821907D01*
X207677809Y-119844933D01*
X207681317Y-119868167D01*
X207683559Y-119891555D01*
X207684511Y-119915046D01*
X207684145Y-119938589D01*
X207682436Y-119962133D01*
X207679359Y-119985624D01*
X207674887Y-120009012D01*
X207668995Y-120032246D01*
X81724929Y-49514850D02*
X81685579Y-49515772D01*
X81646888Y-49518508D01*
X81608894Y-49523014D01*
X81571636Y-49529243D01*
X81535153Y-49537150D01*
X81499484Y-49546691D01*
X81464666Y-49557821D01*
X81430740Y-49570493D01*
X81397743Y-49584663D01*
X81365714Y-49600286D01*
X81334693Y-49617316D01*
X81304718Y-49635708D01*
X81275827Y-49655418D01*
X81248059Y-49676399D01*
X81221454Y-49698607D01*
X81196049Y-49721996D01*
X81171884Y-49746522D01*
X81148998Y-49772139D01*
X81127428Y-49798801D01*
X81107214Y-49826464D01*
X81088395Y-49855083D01*
X81071009Y-49884612D01*
X81055094Y-49915006D01*
X81040691Y-49946220D01*
X81027837Y-49978209D01*
X81016571Y-50010927D01*
X81006932Y-50044330D01*
X80998959Y-50078371D01*
X80992690Y-50113007D01*
X80988165Y-50148191D01*
X80985421Y-50183879D01*
X80984498Y-50220026D01*
D10*
X92196762Y-49514851D02*
X82641655Y-49514851D01*
D11*
X93148749Y-156666031D02*
X93304314Y-156510880D01*
X93460292Y-156356149D01*
X93616683Y-156201843D01*
X93773488Y-156047971D01*
X93930706Y-155894537D01*
X94088337Y-155741549D01*
X94246381Y-155589013D01*
X94404838Y-155436935D01*
X94563709Y-155285322D01*
X94722993Y-155134180D01*
X94882690Y-154983516D01*
X95042800Y-154833337D01*
X95203323Y-154683648D01*
X95364260Y-154534455D01*
X95525610Y-154385767D01*
X95687373Y-154237589D01*
X95849549Y-154089927D01*
X96012138Y-153942788D01*
X96175141Y-153796178D01*
X96338557Y-153650104D01*
X96502386Y-153504573D01*
X96666628Y-153359590D01*
X96831284Y-153215163D01*
X96996352Y-153071297D01*
X97161834Y-152927999D01*
X97327729Y-152785276D01*
X97494037Y-152643134D01*
X97660759Y-152501580D01*
X97827893Y-152360620D01*
X97995441Y-152220259D01*
X98163402Y-152080506D01*
X98331777Y-151941367D01*
X85321318Y-163541477D02*
X85348166Y-163567094D01*
X85375789Y-163591059D01*
X85404136Y-163613372D01*
X85433154Y-163634031D01*
X85462791Y-163653038D01*
X85492997Y-163670392D01*
X85523719Y-163686093D01*
X85554906Y-163700142D01*
X85586507Y-163712537D01*
X85618468Y-163723280D01*
X85650740Y-163732370D01*
X85683270Y-163739808D01*
X85716006Y-163745593D01*
X85748898Y-163749725D01*
X85781893Y-163752204D01*
X85814939Y-163753030D01*
X85847985Y-163752204D01*
X85880980Y-163749725D01*
X85913872Y-163745593D01*
X85946608Y-163739808D01*
X85979138Y-163732371D01*
X86011410Y-163723281D01*
X86043371Y-163712538D01*
X86074972Y-163700142D01*
X86106159Y-163686093D01*
X86136881Y-163670392D01*
X86167087Y-163653038D01*
X86196724Y-163634031D01*
X86225742Y-163613372D01*
X86254089Y-163591059D01*
X86281712Y-163567094D01*
X86308561Y-163541477D01*
D10*
X98754880Y-150566277D02*
X105524551Y-146652563D01*
D11*
X96533581Y-148838601D02*
X96520977Y-148815364D01*
X96509607Y-148791953D01*
X96499464Y-148768400D01*
X96490541Y-148744738D01*
X96482832Y-148720998D01*
X96476329Y-148697212D01*
X96471028Y-148673414D01*
X96466921Y-148649635D01*
X96464002Y-148625908D01*
X96462264Y-148602265D01*
X96461701Y-148578738D01*
X96462307Y-148555360D01*
X96464075Y-148532162D01*
X96466999Y-148509177D01*
X96471071Y-148486438D01*
X96476287Y-148463976D01*
X96482639Y-148441824D01*
X96490120Y-148420015D01*
X96498725Y-148398580D01*
X96508447Y-148377551D01*
X96519279Y-148356962D01*
X96531215Y-148336844D01*
X96544249Y-148317229D01*
X96558373Y-148298151D01*
X96573583Y-148279640D01*
X96589870Y-148261730D01*
X96607230Y-148244452D01*
X96625654Y-148227840D01*
X96645137Y-148211925D01*
X96665673Y-148196739D01*
X96687255Y-148182315D01*
X96709876Y-148168686D01*
D10*
X209572966Y-103989537D02*
X210066587Y-101133585D01*
X169801155Y-121795181D02*
X184891877Y-122852943D01*
D11*
X214967546Y-73067661D02*
X214973133Y-73034614D01*
X214976713Y-73001620D01*
X214978343Y-72968728D01*
X214978082Y-72935992D01*
X214975987Y-72903462D01*
X214972116Y-72871190D01*
X214966528Y-72839229D01*
X214959281Y-72807628D01*
X214950433Y-72776441D01*
X214940042Y-72745719D01*
X214928166Y-72715513D01*
X214914864Y-72685876D01*
X214900192Y-72656858D01*
X214884210Y-72628512D01*
X214866976Y-72600888D01*
X214848547Y-72574040D01*
X214828982Y-72548017D01*
X214808338Y-72522873D01*
X214786675Y-72498658D01*
X214764050Y-72475425D01*
X214740521Y-72453225D01*
X214716146Y-72432109D01*
X214690983Y-72412130D01*
X214665091Y-72393338D01*
X214638528Y-72375786D01*
X214611351Y-72359526D01*
X214583619Y-72344608D01*
X214555390Y-72331085D01*
X214526722Y-72319007D01*
X214497673Y-72308428D01*
X214468301Y-72299398D01*
X214438665Y-72291970D01*
D10*
X211018573Y-101309877D02*
X210524951Y-104165831D01*
X88670893Y-135122968D02*
X81019757Y-135122969D01*
X98331777Y-151941367D02*
X96533581Y-148838601D01*
D11*
X97379791Y-148344982D02*
X97391721Y-148365658D01*
X97406112Y-148390594D01*
X97425654Y-148424451D01*
X97450000Y-148466624D01*
X97478801Y-148516506D01*
X97511707Y-148573489D01*
X97548371Y-148636967D01*
X97588444Y-148706333D01*
X97631577Y-148780980D01*
X97677421Y-148860301D01*
X97725629Y-148943690D01*
X97775851Y-149030539D01*
X97827738Y-149120242D01*
X97880942Y-149212191D01*
X97935115Y-149305780D01*
X97989908Y-149400402D01*
X98044972Y-149495450D01*
X98099958Y-149590318D01*
X98154518Y-149684397D01*
X98208304Y-149777083D01*
X98260966Y-149867766D01*
X98312156Y-149955842D01*
X98361526Y-150040703D01*
X98408726Y-150121741D01*
X98453409Y-150198351D01*
X98495225Y-150269925D01*
X98533825Y-150335856D01*
X98568863Y-150395538D01*
X98599987Y-150448364D01*
X98626851Y-150493726D01*
X98649106Y-150531019D01*
X208832533Y-107938513D02*
X208836552Y-107912383D01*
X208841967Y-107886898D01*
X208848724Y-107862085D01*
X208856773Y-107837970D01*
X208866061Y-107814577D01*
X208876537Y-107791934D01*
X208888149Y-107770065D01*
X208900846Y-107748997D01*
X208914576Y-107728755D01*
X208929287Y-107709365D01*
X208944928Y-107690854D01*
X208961447Y-107673246D01*
X208978792Y-107656568D01*
X208996912Y-107640845D01*
X209015755Y-107626104D01*
X209035270Y-107612370D01*
X209055404Y-107599669D01*
X209076107Y-107588026D01*
X209097325Y-107577468D01*
X209119009Y-107568021D01*
X209141106Y-107559710D01*
X209163564Y-107552561D01*
X209186333Y-107546600D01*
X209209359Y-107541853D01*
X209232592Y-107538345D01*
X209255980Y-107536102D01*
X209279472Y-107535151D01*
X209303015Y-107535517D01*
X209326558Y-107537226D01*
X209350049Y-107540303D01*
X209373437Y-107544774D01*
X209396671Y-107550667D01*
D10*
X209855036Y-49514851D02*
X208903050Y-49514851D01*
D11*
X211124348Y-97784007D02*
X211098218Y-97779987D01*
X211072733Y-97774572D01*
X211047921Y-97767815D01*
X211023805Y-97759767D01*
X211000413Y-97750479D01*
X210977769Y-97740003D01*
X210955900Y-97728390D01*
X210934832Y-97715694D01*
X210914590Y-97701964D01*
X210895200Y-97687253D01*
X210876689Y-97671612D01*
X210859081Y-97655093D01*
X210842403Y-97637747D01*
X210826680Y-97619627D01*
X210811939Y-97600784D01*
X210798205Y-97581270D01*
X210785503Y-97561136D01*
X210773861Y-97540433D01*
X210763303Y-97519214D01*
X210753856Y-97497530D01*
X210745545Y-97475433D01*
X210738396Y-97452975D01*
X210732435Y-97430207D01*
X210727687Y-97407180D01*
X210724180Y-97383947D01*
X210721937Y-97360559D01*
X210720986Y-97337067D01*
X210721352Y-97313524D01*
X210723061Y-97289981D01*
X210726138Y-97266490D01*
X210730610Y-97243102D01*
X210736503Y-97219869D01*
X80984498Y-133430551D02*
X80985420Y-133466697D01*
X80988156Y-133502385D01*
X80992661Y-133537569D01*
X80998891Y-133572205D01*
X81006798Y-133606246D01*
X81016339Y-133639649D01*
X81027468Y-133672367D01*
X81040141Y-133704356D01*
X81054311Y-133735570D01*
X81069933Y-133765964D01*
X81086963Y-133795493D01*
X81105355Y-133824112D01*
X81125065Y-133851775D01*
X81146046Y-133878437D01*
X81168254Y-133904054D01*
X81191643Y-133928580D01*
X81216168Y-133951969D01*
X81241785Y-133974177D01*
X81268447Y-133995158D01*
X81296110Y-134014867D01*
X81324729Y-134033260D01*
X81354257Y-134050290D01*
X81384651Y-134065912D01*
X81415865Y-134080082D01*
X81447854Y-134092755D01*
X81480572Y-134103884D01*
X81513974Y-134113425D01*
X81548016Y-134121333D01*
X81582651Y-134127562D01*
X81617836Y-134132067D01*
X81653523Y-134134803D01*
X81689670Y-134135726D01*
D10*
X80984498Y-50220026D02*
X80984498Y-133430551D01*
D11*
X91244778Y-139706599D02*
X91232174Y-139683362D01*
X91220804Y-139659951D01*
X91210661Y-139636399D01*
X91201738Y-139612736D01*
X91194028Y-139588996D01*
X91187526Y-139565211D01*
X91182225Y-139541413D01*
X91178118Y-139517634D01*
X91175199Y-139493907D01*
X91173461Y-139470264D01*
X91172898Y-139446737D01*
X91173504Y-139423359D01*
X91175272Y-139400161D01*
X91178196Y-139377176D01*
X91182268Y-139354437D01*
X91187484Y-139331975D01*
X91193835Y-139309823D01*
X91201317Y-139288014D01*
X91209922Y-139266578D01*
X91219644Y-139245550D01*
X91230476Y-139224960D01*
X91242412Y-139204842D01*
X91255446Y-139185228D01*
X91269570Y-139166149D01*
X91284780Y-139147638D01*
X91301067Y-139129728D01*
X91318426Y-139112450D01*
X91336851Y-139095838D01*
X91356334Y-139079922D01*
X91376869Y-139064736D01*
X91398451Y-139050312D01*
X91421072Y-139036683D01*
D10*
X78340095Y-141822121D02*
X71464650Y-148697567D01*
X148892747Y-46235793D02*
X148892748Y-49514851D01*
D11*
X184292479Y-126343555D02*
X184289993Y-126376500D01*
X184289121Y-126409199D01*
X184289825Y-126441615D01*
X184292066Y-126473708D01*
X184295804Y-126505439D01*
X184301001Y-126536771D01*
X184307618Y-126567663D01*
X184315617Y-126598077D01*
X184324959Y-126627975D01*
X184335605Y-126657318D01*
X184347517Y-126686066D01*
X184360655Y-126714182D01*
X184374981Y-126741627D01*
X184390456Y-126768362D01*
X184407042Y-126794347D01*
X184424699Y-126819545D01*
X184443389Y-126843917D01*
X184463074Y-126867423D01*
X184483714Y-126890026D01*
X184505271Y-126911686D01*
X184527705Y-126932364D01*
X184550980Y-126952023D01*
X184575054Y-126970623D01*
X184599891Y-126988125D01*
X184625450Y-127004491D01*
X184651694Y-127019682D01*
X184678583Y-127033660D01*
X184706080Y-127046385D01*
X184734144Y-127057818D01*
X184762738Y-127067922D01*
X184791822Y-127076657D01*
X184821359Y-127083985D01*
D10*
X169906933Y-49514851D02*
X169906932Y-46235792D01*
D12*
X207553965Y-57520181D02*
X207553965Y-68920181D01*
X193153965Y-68920181D01*
X193153965Y-57520180D01*
X207553965Y-57520181D01*
D11*
X209396671Y-107550667D02*
X209422800Y-107554687D01*
X209448285Y-107560101D01*
X209473097Y-107566858D01*
X209497213Y-107574907D01*
X209520606Y-107584195D01*
X209543249Y-107594671D01*
X209565118Y-107606284D01*
X209586186Y-107618980D01*
X209606428Y-107632710D01*
X209625818Y-107647422D01*
X209644330Y-107663063D01*
X209661938Y-107679581D01*
X209678616Y-107696927D01*
X209694339Y-107715047D01*
X209709080Y-107733890D01*
X209722814Y-107753404D01*
X209735516Y-107773539D01*
X209747158Y-107794241D01*
X209757716Y-107815460D01*
X209767163Y-107837144D01*
X209775474Y-107859241D01*
X209782623Y-107881699D01*
X209788585Y-107904468D01*
X209793332Y-107927494D01*
X209796840Y-107950727D01*
X209799082Y-107974115D01*
X209800033Y-107997607D01*
X209799667Y-108021150D01*
X209797958Y-108044693D01*
X209794881Y-108068184D01*
X209790409Y-108091572D01*
X209784517Y-108114806D01*
D10*
X207422185Y-115977496D02*
X208832533Y-107938513D01*
X86308561Y-163541477D02*
X93148749Y-156666031D01*
D11*
X210595468Y-50255285D02*
X210594544Y-50216035D01*
X210591800Y-50177631D01*
X210587275Y-50140092D01*
X210581006Y-50103438D01*
X210573033Y-50067688D01*
X210563394Y-50032860D01*
X210552128Y-49998976D01*
X210539274Y-49966053D01*
X210524870Y-49934112D01*
X210508956Y-49903171D01*
X210491570Y-49873250D01*
X210472751Y-49844369D01*
X210452537Y-49816547D01*
X210430967Y-49789803D01*
X210408080Y-49764156D01*
X210383915Y-49739626D01*
X210358511Y-49716232D01*
X210331905Y-49693994D01*
X210304138Y-49672932D01*
X210275247Y-49653063D01*
X210245271Y-49634408D01*
X210214250Y-49616986D01*
X210182221Y-49600817D01*
X210149225Y-49585920D01*
X210115298Y-49572313D01*
X210080481Y-49560018D01*
X210044811Y-49549052D01*
X210008328Y-49539436D01*
X209971070Y-49531188D01*
X209933076Y-49524328D01*
X209894385Y-49518876D01*
X209855036Y-49514851D01*
D10*
X204954077Y-129975198D02*
X206717012Y-119855952D01*
D11*
X210524951Y-104165831D02*
X210520931Y-104191961D01*
X210515516Y-104217445D01*
X210508759Y-104242258D01*
X210500710Y-104266374D01*
X210491422Y-104289766D01*
X210480946Y-104312410D01*
X210469334Y-104334279D01*
X210456637Y-104355347D01*
X210442907Y-104375589D01*
X210428196Y-104394979D01*
X210412555Y-104413491D01*
X210396036Y-104431099D01*
X210378691Y-104447777D01*
X210360571Y-104463500D01*
X210341728Y-104478241D01*
X210322213Y-104491975D01*
X210302079Y-104504676D01*
X210281376Y-104516319D01*
X210260158Y-104526877D01*
X210238474Y-104536324D01*
X210216377Y-104544635D01*
X210193919Y-104551784D01*
X210171150Y-104557745D01*
X210148124Y-104562492D01*
X210124891Y-104566000D01*
X210101503Y-104568242D01*
X210078011Y-104569193D01*
X210054468Y-104568827D01*
X210030925Y-104567118D01*
X210007434Y-104564041D01*
X209984046Y-104559569D01*
X209960813Y-104553677D01*
X95229012Y-145594801D02*
X95205775Y-145607404D01*
X95182364Y-145618774D01*
X95158811Y-145628918D01*
X95135149Y-145637841D01*
X95111409Y-145645550D01*
X95087624Y-145652053D01*
X95063825Y-145657354D01*
X95040047Y-145661461D01*
X95016319Y-145664381D01*
X94992676Y-145666118D01*
X94969149Y-145666681D01*
X94945771Y-145666075D01*
X94922573Y-145664307D01*
X94899588Y-145661384D01*
X94876849Y-145657311D01*
X94854387Y-145652095D01*
X94832235Y-145645744D01*
X94810425Y-145638262D01*
X94788990Y-145629657D01*
X94767962Y-145619935D01*
X94747372Y-145609103D01*
X94727254Y-145597167D01*
X94707639Y-145584133D01*
X94688560Y-145570008D01*
X94670050Y-145554799D01*
X94652139Y-145538511D01*
X94634862Y-145521152D01*
X94618249Y-145502728D01*
X94602334Y-145483244D01*
X94587148Y-145462709D01*
X94572724Y-145441127D01*
X94559095Y-145418507D01*
D10*
X102457044Y-49514851D02*
X102457044Y-56989694D01*
X153828964Y-121795181D02*
X169801155Y-121795181D01*
X143321874Y-135546073D02*
X153123792Y-135546073D01*
D11*
X210066587Y-101133585D02*
X210070606Y-101107455D01*
X210076021Y-101081971D01*
X210082778Y-101057158D01*
X210090827Y-101033043D01*
X210100115Y-101009650D01*
X210110591Y-100987007D01*
X210122203Y-100965138D01*
X210134900Y-100944070D01*
X210148630Y-100923828D01*
X210163341Y-100904438D01*
X210178982Y-100885926D01*
X210195500Y-100868318D01*
X210212846Y-100851640D01*
X210230966Y-100835917D01*
X210249809Y-100821176D01*
X210269323Y-100807442D01*
X210289458Y-100794740D01*
X210310160Y-100783098D01*
X210331379Y-100772540D01*
X210353063Y-100763092D01*
X210375160Y-100754781D01*
X210397618Y-100747632D01*
X210420386Y-100741671D01*
X210443413Y-100736923D01*
X210466646Y-100733416D01*
X210490035Y-100731173D01*
X210513526Y-100730222D01*
X210537069Y-100730588D01*
X210560612Y-100732296D01*
X210584104Y-100735373D01*
X210607492Y-100739845D01*
X210630726Y-100745738D01*
D10*
X224452135Y-128353300D02*
X231186547Y-90273904D01*
D11*
X96709876Y-148168686D02*
X96733112Y-148156082D01*
X96756523Y-148144712D01*
X96780076Y-148134569D01*
X96803738Y-148125646D01*
X96827478Y-148117937D01*
X96851264Y-148111434D01*
X96875062Y-148106133D01*
X96898841Y-148102026D01*
X96922568Y-148099107D01*
X96946211Y-148097369D01*
X96969738Y-148096806D01*
X96993117Y-148097412D01*
X97016314Y-148099180D01*
X97039299Y-148102104D01*
X97062038Y-148106177D01*
X97084500Y-148111392D01*
X97106652Y-148117744D01*
X97128462Y-148125225D01*
X97149897Y-148133830D01*
X97170925Y-148143552D01*
X97191515Y-148154384D01*
X97211633Y-148166320D01*
X97231247Y-148179354D01*
X97250326Y-148193479D01*
X97268836Y-148208688D01*
X97286747Y-148224976D01*
X97304024Y-148242335D01*
X97320636Y-148260760D01*
X97336551Y-148280243D01*
X97351737Y-148300779D01*
X97366161Y-148322360D01*
X97379791Y-148344982D01*
D10*
X214368148Y-76487756D02*
X214967546Y-73067661D01*
X184821359Y-127083985D02*
X204178385Y-130504079D01*
D11*
X204178385Y-130504079D02*
X204211431Y-130509766D01*
X204244426Y-130513633D01*
X204277317Y-130515719D01*
X204310053Y-130516061D01*
X204342583Y-130514699D01*
X204374855Y-130511671D01*
X204406817Y-130507016D01*
X204438417Y-130500773D01*
X204469604Y-130492980D01*
X204500326Y-130483677D01*
X204530532Y-130472902D01*
X204560169Y-130460693D01*
X204589187Y-130447090D01*
X204617533Y-130432132D01*
X204645157Y-130415856D01*
X204672005Y-130398302D01*
X204698027Y-130379508D01*
X204723172Y-130359514D01*
X204747386Y-130338357D01*
X204770619Y-130316078D01*
X204792820Y-130292713D01*
X204813935Y-130268303D01*
X204833915Y-130242885D01*
X204852706Y-130216499D01*
X204870258Y-130189184D01*
X204886519Y-130160977D01*
X204901437Y-130131918D01*
X204914961Y-130102046D01*
X204927038Y-130071399D01*
X204937617Y-130040016D01*
X204946647Y-130007936D01*
X204954077Y-129975198D01*
X149562662Y-45565877D02*
X149529718Y-45566798D01*
X149497034Y-45569526D01*
X149464659Y-45574011D01*
X149432645Y-45580200D01*
X149401045Y-45588042D01*
X149369910Y-45597485D01*
X149339291Y-45608478D01*
X149309240Y-45620968D01*
X149279809Y-45634905D01*
X149251049Y-45650236D01*
X149223013Y-45666910D01*
X149195751Y-45684875D01*
X149169316Y-45704079D01*
X149143758Y-45724472D01*
X149119131Y-45746001D01*
X149095484Y-45768614D01*
X149072871Y-45792260D01*
X149051342Y-45816888D01*
X149030949Y-45842446D01*
X149011745Y-45868881D01*
X148993780Y-45896143D01*
X148977106Y-45924179D01*
X148961775Y-45952939D01*
X148947838Y-45982370D01*
X148935348Y-46012421D01*
X148924355Y-46043040D01*
X148914912Y-46074175D01*
X148907070Y-46105776D01*
X148900881Y-46137789D01*
X148896396Y-46170164D01*
X148893668Y-46202849D01*
X148892747Y-46235793D01*
D10*
X230728185Y-89498213D02*
X213627717Y-86501225D01*
D11*
X71464650Y-148697567D02*
X71439032Y-148724415D01*
X71415067Y-148752038D01*
X71392754Y-148780385D01*
X71372095Y-148809403D01*
X71353088Y-148839040D01*
X71335734Y-148869246D01*
X71320033Y-148899968D01*
X71305985Y-148931155D01*
X71293589Y-148962755D01*
X71282846Y-148994717D01*
X71273756Y-149026989D01*
X71266319Y-149059519D01*
X71260534Y-149092255D01*
X71256402Y-149125147D01*
X71253923Y-149158141D01*
X71253097Y-149191188D01*
X71253923Y-149224234D01*
X71256402Y-149257229D01*
X71260534Y-149290120D01*
X71266319Y-149322857D01*
X71273756Y-149355387D01*
X71282846Y-149387658D01*
X71293589Y-149419620D01*
X71305985Y-149451221D01*
X71320033Y-149482408D01*
X71335735Y-149513130D01*
X71353089Y-149543336D01*
X71372095Y-149572974D01*
X71392755Y-149601992D01*
X71415067Y-149630338D01*
X71439032Y-149657962D01*
X71464650Y-149684811D01*
X89940206Y-136357022D02*
X89916969Y-136369625D01*
X89893559Y-136380995D01*
X89870006Y-136391139D01*
X89846344Y-136400062D01*
X89822604Y-136407772D01*
X89798819Y-136414274D01*
X89775021Y-136419576D01*
X89751242Y-136423683D01*
X89727515Y-136426602D01*
X89703872Y-136428340D01*
X89680345Y-136428903D01*
X89656967Y-136428297D01*
X89633769Y-136426529D01*
X89610784Y-136423606D01*
X89588045Y-136419533D01*
X89565584Y-136414317D01*
X89543432Y-136407966D01*
X89521622Y-136400484D01*
X89500187Y-136391879D01*
X89479158Y-136382158D01*
X89458569Y-136371325D01*
X89438451Y-136359389D01*
X89418836Y-136346356D01*
X89399757Y-136332231D01*
X89381246Y-136317022D01*
X89363336Y-136300734D01*
X89346059Y-136283375D01*
X89329446Y-136264950D01*
X89313531Y-136245467D01*
X89298345Y-136224932D01*
X89283921Y-136203350D01*
X89270291Y-136180730D01*
D10*
X89199773Y-134135726D02*
X90116499Y-135687108D01*
X89270291Y-136180730D02*
X88670893Y-135122968D01*
D11*
X107816364Y-145277472D02*
X108336545Y-144978847D01*
X108859069Y-144684599D01*
X109383802Y-144394767D01*
X109910607Y-144109390D01*
X110439348Y-143828506D01*
X110969891Y-143552155D01*
X111502100Y-143280374D01*
X112035839Y-143013203D01*
X112570972Y-142750680D01*
X113107364Y-142492845D01*
X113644880Y-142239735D01*
X114183383Y-141991390D01*
X114722738Y-141747848D01*
X115262810Y-141509148D01*
X115803464Y-141275329D01*
X116344562Y-141046429D01*
X116885971Y-140822487D01*
X117427553Y-140603543D01*
X117969175Y-140389634D01*
X118510699Y-140180800D01*
X119051992Y-139977079D01*
X119592916Y-139778510D01*
X120133336Y-139585131D01*
X120673118Y-139396982D01*
X121212125Y-139214102D01*
X121750221Y-139036528D01*
X122287272Y-138864299D01*
X122823141Y-138697455D01*
X123357693Y-138536034D01*
X123890792Y-138380075D01*
X124422303Y-138229617D01*
X124952091Y-138084698D01*
X206717012Y-119855952D02*
X206721031Y-119829822D01*
X206726446Y-119804337D01*
X206733203Y-119779525D01*
X206741252Y-119755409D01*
X206750540Y-119732017D01*
X206761016Y-119709373D01*
X206772628Y-119687504D01*
X206785325Y-119666436D01*
X206799055Y-119646194D01*
X206813766Y-119626804D01*
X206829407Y-119608293D01*
X206845926Y-119590685D01*
X206863271Y-119574007D01*
X206881391Y-119558284D01*
X206900234Y-119543543D01*
X206919749Y-119529809D01*
X206939883Y-119517108D01*
X206960585Y-119505465D01*
X206981804Y-119494908D01*
X207003488Y-119485460D01*
X207025585Y-119477149D01*
X207048043Y-119470000D01*
X207070812Y-119464039D01*
X207093838Y-119459292D01*
X207117071Y-119455784D01*
X207140460Y-119453542D01*
X207163951Y-119452590D01*
X207187494Y-119452956D01*
X207211037Y-119454665D01*
X207234529Y-119457742D01*
X207257917Y-119462214D01*
X207281151Y-119468107D01*
X124952091Y-138084698D02*
X125530950Y-137931715D01*
X126110532Y-137783484D01*
X126690734Y-137640004D01*
X127271453Y-137501276D01*
X127852584Y-137367300D01*
X128434026Y-137238076D01*
X129015674Y-137113603D01*
X129597425Y-136993882D01*
X130179176Y-136878912D01*
X130760824Y-136768695D01*
X131342266Y-136663228D01*
X131923397Y-136562514D01*
X132504116Y-136466551D01*
X133084317Y-136375340D01*
X133663899Y-136288881D01*
X134242758Y-136207173D01*
X134820791Y-136130217D01*
X135397894Y-136058012D01*
X135973964Y-135990559D01*
X136548897Y-135927858D01*
X137122591Y-135869909D01*
X137694943Y-135816711D01*
X138265848Y-135768265D01*
X138835203Y-135724570D01*
X139402906Y-135685627D01*
X139968853Y-135651436D01*
X140532941Y-135621996D01*
X141095066Y-135597308D01*
X141655125Y-135577372D01*
X142213015Y-135562187D01*
X142768632Y-135551754D01*
X143321874Y-135546073D01*
D10*
X209784517Y-108114806D02*
X208374169Y-116153788D01*
X81019757Y-135122969D02*
X81019757Y-139177719D01*
D11*
X209960813Y-104553677D02*
X209934683Y-104549657D01*
X209909198Y-104544242D01*
X209884385Y-104537485D01*
X209860270Y-104529436D01*
X209836877Y-104520148D01*
X209814233Y-104509672D01*
X209792364Y-104498060D01*
X209771296Y-104485363D01*
X209751054Y-104471633D01*
X209731664Y-104456922D01*
X209713153Y-104441281D01*
X209695545Y-104424762D01*
X209678866Y-104407417D01*
X209663144Y-104389297D01*
X209648402Y-104370454D01*
X209634668Y-104350939D01*
X209621967Y-104330805D01*
X209610324Y-104310102D01*
X209599767Y-104288883D01*
X209590319Y-104267200D01*
X209582008Y-104245103D01*
X209574859Y-104222644D01*
X209568898Y-104199876D01*
X209564151Y-104176849D01*
X209560643Y-104153616D01*
X209558400Y-104130228D01*
X209557449Y-104106736D01*
X209557815Y-104083193D01*
X209559524Y-104059650D01*
X209562601Y-104036158D01*
X209567073Y-104012770D01*
X209572966Y-103989537D01*
D10*
X82641655Y-49514851D02*
X81724929Y-49514850D01*
X71464650Y-149684811D02*
X85321318Y-163541477D01*
X210736503Y-97219869D02*
X214368148Y-76487756D01*
D11*
X91421072Y-139036683D02*
X91444308Y-139024079D01*
X91467719Y-139012709D01*
X91491272Y-139002565D01*
X91514934Y-138993642D01*
X91538674Y-138985932D01*
X91562459Y-138979430D01*
X91586258Y-138974129D01*
X91610036Y-138970021D01*
X91633763Y-138967102D01*
X91657406Y-138965365D01*
X91680933Y-138964802D01*
X91704312Y-138965408D01*
X91727509Y-138967175D01*
X91750494Y-138970099D01*
X91773233Y-138974172D01*
X91795695Y-138979387D01*
X91817846Y-138985739D01*
X91839656Y-138993220D01*
X91861091Y-139001825D01*
X91882119Y-139011547D01*
X91902709Y-139022379D01*
X91922827Y-139034315D01*
X91942442Y-139047349D01*
X91961520Y-139061474D01*
X91980031Y-139076683D01*
X91997941Y-139092971D01*
X92015219Y-139110330D01*
X92031831Y-139128754D01*
X92047747Y-139148238D01*
X92062932Y-139168773D01*
X92077356Y-139190355D01*
X92090987Y-139212976D01*
X169906932Y-46235792D02*
X169906011Y-46202849D01*
X169903282Y-46170164D01*
X169898797Y-46137789D01*
X169892608Y-46105776D01*
X169884766Y-46074176D01*
X169875323Y-46043040D01*
X169864331Y-46012421D01*
X169851840Y-45982371D01*
X169837904Y-45952940D01*
X169822573Y-45924180D01*
X169805899Y-45896144D01*
X169787934Y-45868882D01*
X169768729Y-45842447D01*
X169748337Y-45816889D01*
X169726808Y-45792262D01*
X169704194Y-45768615D01*
X169680548Y-45746002D01*
X169655920Y-45724473D01*
X169630363Y-45704080D01*
X169603927Y-45684876D01*
X169576665Y-45666911D01*
X169548629Y-45650237D01*
X169519869Y-45634906D01*
X169490438Y-45620969D01*
X169460387Y-45608479D01*
X169429768Y-45597486D01*
X169398633Y-45588043D01*
X169367032Y-45580201D01*
X169335019Y-45574012D01*
X169302644Y-45569527D01*
X169269959Y-45566799D01*
X169237016Y-45565878D01*
X208374169Y-116153788D02*
X208370149Y-116179917D01*
X208364734Y-116205402D01*
X208357977Y-116230214D01*
X208349928Y-116254330D01*
X208340640Y-116277723D01*
X208330164Y-116300366D01*
X208318552Y-116322235D01*
X208305855Y-116343303D01*
X208292125Y-116363545D01*
X208277414Y-116382935D01*
X208261773Y-116401447D01*
X208245254Y-116419055D01*
X208227909Y-116435733D01*
X208209788Y-116451456D01*
X208190945Y-116466197D01*
X208171431Y-116479931D01*
X208151297Y-116492633D01*
X208130594Y-116504275D01*
X208109375Y-116514833D01*
X208087691Y-116524280D01*
X208065594Y-116532592D01*
X208043136Y-116539741D01*
X208020368Y-116545702D01*
X207997341Y-116550449D01*
X207974108Y-116553957D01*
X207950719Y-116556200D01*
X207927228Y-116557151D01*
X207903685Y-116556785D01*
X207880142Y-116555077D01*
X207856650Y-116551999D01*
X207833262Y-116547528D01*
X207810029Y-116541636D01*
X223676445Y-128917439D02*
X223712593Y-128923125D01*
X223748296Y-128926985D01*
X223783522Y-128929050D01*
X223818237Y-128929352D01*
X223852410Y-128927924D01*
X223886008Y-128924798D01*
X223919000Y-128920007D01*
X223951352Y-128913582D01*
X223983033Y-128905556D01*
X224014010Y-128895961D01*
X224044252Y-128884829D01*
X224073724Y-128872194D01*
X224102397Y-128858086D01*
X224130236Y-128842539D01*
X224157211Y-128825584D01*
X224183288Y-128807254D01*
X224208435Y-128787582D01*
X224232621Y-128766598D01*
X224255812Y-128744337D01*
X224277977Y-128720829D01*
X224299082Y-128696108D01*
X224319097Y-128670205D01*
X224337989Y-128643153D01*
X224355724Y-128614984D01*
X224372272Y-128585731D01*
X224387600Y-128555425D01*
X224401675Y-128524099D01*
X224414466Y-128491786D01*
X224425939Y-128458517D01*
X224436063Y-128424324D01*
X224444806Y-128389241D01*
X224452135Y-128353300D01*
D10*
X92090987Y-139212976D02*
X95405304Y-144924887D01*
D11*
X210630726Y-100745738D02*
X210653653Y-100749757D01*
X210676142Y-100755172D01*
X210698166Y-100761929D01*
X210719699Y-100769978D01*
X210740715Y-100779266D01*
X210761190Y-100789742D01*
X210781096Y-100801354D01*
X210800408Y-100814051D01*
X210819101Y-100827781D01*
X210837147Y-100842492D01*
X210854523Y-100858133D01*
X210871201Y-100874651D01*
X210887156Y-100891997D01*
X210902362Y-100910117D01*
X210916794Y-100928960D01*
X210930425Y-100948474D01*
X210943229Y-100968609D01*
X210955182Y-100989311D01*
X210966256Y-101010530D01*
X210976427Y-101032214D01*
X210985667Y-101054311D01*
X210993953Y-101076769D01*
X211001257Y-101099537D01*
X211007554Y-101122564D01*
X211012818Y-101145797D01*
X211017023Y-101169186D01*
X211020143Y-101192677D01*
X211022153Y-101216220D01*
X211023027Y-101239763D01*
X211022739Y-101263255D01*
X211021262Y-101286643D01*
X211018573Y-101309877D01*
X81019757Y-139177719D02*
X80933816Y-139257254D01*
X80847888Y-139337183D01*
X80761985Y-139417487D01*
X80676122Y-139498145D01*
X80590310Y-139579140D01*
X80504563Y-139660451D01*
X80418893Y-139742058D01*
X80333314Y-139823944D01*
X80247837Y-139906088D01*
X80162477Y-139988470D01*
X80077247Y-140071072D01*
X79992158Y-140153874D01*
X79907224Y-140236857D01*
X79822458Y-140320002D01*
X79737873Y-140403288D01*
X79653481Y-140486697D01*
X79569296Y-140570209D01*
X79485331Y-140653806D01*
X79401598Y-140737467D01*
X79318110Y-140821173D01*
X79234881Y-140904904D01*
X79151922Y-140988643D01*
X79069248Y-141072368D01*
X78986871Y-141156061D01*
X78904804Y-141239703D01*
X78823059Y-141323273D01*
X78741651Y-141406754D01*
X78660590Y-141490124D01*
X78579892Y-141573365D01*
X78499568Y-141656458D01*
X78419631Y-141739383D01*
X78340095Y-141822121D01*
X207810029Y-116541636D02*
X207787001Y-116537616D01*
X207764225Y-116532201D01*
X207741746Y-116525444D01*
X207719610Y-116517395D01*
X207697860Y-116508107D01*
X207676543Y-116497631D01*
X207655704Y-116486019D01*
X207635388Y-116473322D01*
X207615640Y-116459592D01*
X207596506Y-116444881D01*
X207578030Y-116429240D01*
X207560257Y-116412721D01*
X207543234Y-116395376D01*
X207527004Y-116377255D01*
X207511614Y-116358412D01*
X207497109Y-116338898D01*
X207483533Y-116318764D01*
X207470931Y-116298061D01*
X207459350Y-116276842D01*
X207448835Y-116255158D01*
X207439429Y-116233061D01*
X207431179Y-116210603D01*
X207424131Y-116187835D01*
X207418328Y-116164808D01*
X207413816Y-116141575D01*
X207410641Y-116118186D01*
X207408847Y-116094695D01*
X207408480Y-116071152D01*
X207409585Y-116047609D01*
X207412208Y-116024117D01*
X207416392Y-116000729D01*
X207422185Y-115977496D01*
D10*
X208903050Y-49514851D02*
X169906933Y-49514851D01*
X102457044Y-56989694D02*
X92196762Y-56989695D01*
X81689670Y-134135726D02*
X89199773Y-134135726D01*
X206646493Y-125885190D02*
X223676445Y-128917439D01*
X169237016Y-45565878D02*
X149562662Y-45565877D01*
X153828964Y-134840899D02*
X153828964Y-121795181D01*
D11*
X90116499Y-135687108D02*
X90129102Y-135710344D01*
X90140472Y-135733755D01*
X90150616Y-135757307D01*
X90159540Y-135780970D01*
X90167249Y-135804710D01*
X90173752Y-135828495D01*
X90179053Y-135852293D01*
X90183161Y-135876072D01*
X90186080Y-135899799D01*
X90187818Y-135923442D01*
X90188381Y-135946969D01*
X90187775Y-135970348D01*
X90186007Y-135993545D01*
X90183083Y-136016530D01*
X90179011Y-136039269D01*
X90173795Y-136061731D01*
X90167444Y-136083883D01*
X90159962Y-136105692D01*
X90151357Y-136127127D01*
X90141636Y-136148156D01*
X90130803Y-136168745D01*
X90118867Y-136188863D01*
X90105833Y-136208478D01*
X90091708Y-136227557D01*
X90076499Y-136246067D01*
X90060211Y-136263977D01*
X90042852Y-136281255D01*
X90024427Y-136297867D01*
X90004944Y-136313782D01*
X89984408Y-136328968D01*
X89962827Y-136343392D01*
X89940206Y-136357022D01*
D10*
X207668995Y-120032246D02*
X206646493Y-125885190D01*
D11*
X98649106Y-150531019D02*
X98659022Y-150540034D01*
X98668938Y-150547365D01*
X98678854Y-150553185D01*
X98688771Y-150557669D01*
X98698687Y-150560990D01*
X98708603Y-150563324D01*
X98718520Y-150564844D01*
X98731741Y-150565907D01*
X98744963Y-150566247D01*
X98754880Y-150566277D01*
D10*
X184891877Y-122852943D02*
X184292479Y-126343555D01*
D11*
X211688487Y-97396163D02*
X211684467Y-97422292D01*
X211679052Y-97447776D01*
X211672295Y-97472589D01*
X211664246Y-97496705D01*
X211654958Y-97520097D01*
X211644482Y-97542740D01*
X211632870Y-97564609D01*
X211620173Y-97585677D01*
X211606443Y-97605919D01*
X211591732Y-97625309D01*
X211576091Y-97643820D01*
X211559573Y-97661428D01*
X211542227Y-97678106D01*
X211524107Y-97693829D01*
X211505264Y-97708570D01*
X211485750Y-97722304D01*
X211465615Y-97735005D01*
X211444913Y-97746648D01*
X211423694Y-97757206D01*
X211402010Y-97766653D01*
X211379913Y-97774964D01*
X211357455Y-97782113D01*
X211334687Y-97788074D01*
X211311660Y-97792821D01*
X211288427Y-97796329D01*
X211265038Y-97798571D01*
X211241547Y-97799523D01*
X211218004Y-97799157D01*
X211194461Y-97797448D01*
X211170969Y-97794371D01*
X211147581Y-97789899D01*
X211124348Y-97784007D01*
D13*
X141615363Y-117318038D02*
X145115363Y-117318038D01*
X145115363Y-117318038D02*
X145115363Y-121818038D01*
X145115363Y-121818038D02*
X141615363Y-121818038D01*
X141615363Y-121818038D02*
X141615363Y-117318038D01*
X118554900Y-120916129D02*
X121935641Y-120010263D01*
X121935641Y-120010263D02*
X123100326Y-124356929D01*
X123100326Y-124356929D02*
X119719586Y-125262795D01*
X119719586Y-125262795D02*
X118554900Y-120916129D01*
X97210575Y-130365220D02*
X100241663Y-128615220D01*
X100241663Y-128615220D02*
X102491663Y-132512334D01*
X102491663Y-132512334D02*
X99460574Y-134262334D01*
X99460574Y-134262334D02*
X97210575Y-130365220D01*
X79008605Y-145021370D02*
X81483478Y-142546497D01*
X81483478Y-142546497D02*
X84665459Y-145728477D01*
X84665459Y-145728477D02*
X82190586Y-148203350D01*
X82190586Y-148203350D02*
X79008605Y-145021370D01*
X215658705Y-108903703D02*
X219105532Y-109511471D01*
X219105532Y-109511471D02*
X218324115Y-113943106D01*
X218324115Y-113943106D02*
X214877288Y-113335337D01*
X214877288Y-113335337D02*
X215658705Y-108903703D01*
X196056467Y-110524434D02*
X199503294Y-111132202D01*
X199503294Y-111132202D02*
X198721877Y-115563837D01*
X198721877Y-115563837D02*
X195275050Y-114956068D01*
X195275050Y-114956068D02*
X196056467Y-110524434D01*
X177370995Y-96596140D02*
X180862469Y-96840287D01*
X180862469Y-96840287D02*
X180548565Y-101329326D01*
X180548565Y-101329326D02*
X177057090Y-101085178D01*
X177057090Y-101085178D02*
X177370995Y-96596140D01*
X157715363Y-86368038D02*
X161215363Y-86368038D01*
X161215363Y-86368038D02*
X161215363Y-90868038D01*
X161215363Y-90868038D02*
X157715363Y-90868038D01*
X157715363Y-90868038D02*
X157715363Y-86368038D01*
X138665363Y-95368038D02*
X142165363Y-95368038D01*
X142165363Y-95368038D02*
X142165363Y-99868038D01*
X142165363Y-99868038D02*
X138665363Y-99868038D01*
X138665363Y-99868038D02*
X138665363Y-95368038D01*
X119671934Y-98368038D02*
X123171934Y-98368038D01*
X123171934Y-98368038D02*
X123171934Y-102868038D01*
X123171934Y-102868038D02*
X119671934Y-102868038D01*
X119671934Y-102868038D02*
X119671934Y-98368038D01*
X218970626Y-90120862D02*
X222417453Y-90728630D01*
X222417453Y-90728630D02*
X221636036Y-95160265D01*
X221636036Y-95160265D02*
X218189209Y-94552496D01*
X218189209Y-94552496D02*
X218970626Y-90120862D01*
X199368389Y-91741591D02*
X202815216Y-92349359D01*
X202815216Y-92349359D02*
X202033799Y-96780994D01*
X202033799Y-96780994D02*
X198586972Y-96173225D01*
X198586972Y-96173225D02*
X199368389Y-91741591D01*
X178701432Y-77570002D02*
X182192906Y-77814149D01*
X182192906Y-77814149D02*
X181879002Y-82303188D01*
X181879002Y-82303188D02*
X178387527Y-82059040D01*
X178387527Y-82059040D02*
X178701432Y-77570002D01*
X157715363Y-67295441D02*
X161215363Y-67295441D01*
X161215363Y-67295441D02*
X161215363Y-71795441D01*
X161215363Y-71795441D02*
X157715363Y-71795441D01*
X157715363Y-71795441D02*
X157715363Y-67295441D01*
X138665364Y-76295441D02*
X142165364Y-76295441D01*
X142165364Y-76295441D02*
X142165364Y-80795441D01*
X142165364Y-80795441D02*
X138665364Y-80795441D01*
X138665364Y-80795441D02*
X138665364Y-76295441D01*
X119671933Y-79295441D02*
X123171933Y-79295441D01*
X123171933Y-79295441D02*
X123171933Y-83795441D01*
X123171933Y-83795441D02*
X119671933Y-83795441D01*
X119671933Y-83795441D02*
X119671933Y-79295441D01*
X202680311Y-72958751D02*
X206127138Y-73566519D01*
X206127138Y-73566519D02*
X205345721Y-77998154D01*
X205345721Y-77998154D02*
X201898894Y-77390385D01*
X201898894Y-77390385D02*
X202680311Y-72958751D01*
X180031868Y-58543867D02*
X183523342Y-58788014D01*
X183523342Y-58788014D02*
X183209438Y-63277053D01*
X183209438Y-63277053D02*
X179717963Y-63032905D01*
X179717963Y-63032905D02*
X180031868Y-58543867D01*
X157715363Y-48222845D02*
X161215363Y-48222845D01*
X161215363Y-48222845D02*
X161215363Y-52722845D01*
X161215363Y-52722845D02*
X157715363Y-52722845D01*
X157715363Y-52722845D02*
X157715363Y-48222845D01*
X138665364Y-57222845D02*
X142165364Y-57222845D01*
X142165364Y-57222845D02*
X142165364Y-61722845D01*
X142165364Y-61722845D02*
X138665364Y-61722845D01*
X138665364Y-61722845D02*
X138665364Y-57222845D01*
X119671934Y-60222844D02*
X123171934Y-60222844D01*
X123171934Y-60222844D02*
X123171934Y-64722844D01*
X123171934Y-64722844D02*
X119671934Y-64722844D01*
X119671934Y-64722844D02*
X119671934Y-60222844D01*
M02*
