%TF.GenerationSoftware,KiCad,Pcbnew,(6.0.8)*%
%TF.CreationDate,2022-11-27T04:27:56-08:00*%
%TF.ProjectId,klor1_3,6b6c6f72-315f-4332-9e6b-696361645f70,v1.3.0*%
%TF.SameCoordinates,Original*%
%TF.FileFunction,Drillmap*%
%TF.FilePolarity,Positive*%
%FSLAX45Y45*%
G04 Gerber Fmt 4.5, Leading zero omitted, Abs format (unit mm)*
G04 Created by KiCad (PCBNEW (6.0.8)) date 2022-11-27 04:27:56*
%MOMM*%
%LPD*%
G01*
G04 APERTURE LIST*
%ADD10C,0.010000*%
%ADD11C,0.100000*%
%ADD12C,0.200000*%
%ADD13C,0.070000*%
%ADD14C,0.090000*%
%ADD15C,0.120000*%
%ADD16C,0.220000*%
%ADD17C,0.320000*%
%ADD18C,0.500000*%
G04 APERTURE END LIST*
D10*
X9455910Y-14541851D02*
X9124478Y-13970660D01*
X21362772Y-8650123D02*
X21168849Y-9739616D01*
X9540530Y-14492489D02*
X9541791Y-14494502D01*
X9542928Y-14496572D01*
X9543942Y-14498694D01*
X9544834Y-14500863D01*
X9545605Y-14503072D01*
X9546256Y-14505318D01*
X9546786Y-14507595D01*
X9547197Y-14509898D01*
X9547488Y-14512221D01*
X9547662Y-14514560D01*
X9547719Y-14516909D01*
X9547658Y-14519263D01*
X9547481Y-14521618D01*
X9547189Y-14523967D01*
X9546782Y-14526305D01*
X9546260Y-14528629D01*
X9545625Y-14530931D01*
X9544877Y-14533208D01*
X9544016Y-14535454D01*
X9543044Y-14537664D01*
X9541961Y-14539832D01*
X9540767Y-14541954D01*
X9539464Y-14544024D01*
X9538051Y-14546038D01*
X9536530Y-14547989D01*
X9534902Y-14549873D01*
X9533166Y-14551685D01*
X9531323Y-14553420D01*
X9529375Y-14555072D01*
X9527321Y-14556636D01*
X9525163Y-14558107D01*
X9522901Y-14559480D01*
X21059547Y-7162206D02*
X21059547Y-5025529D01*
X9219676Y-5698969D02*
X9219676Y-4951485D01*
X15312379Y-13554607D02*
X15315994Y-13554515D01*
X15319563Y-13554241D01*
X15323081Y-13553791D01*
X15326545Y-13553168D01*
X15329949Y-13552377D01*
X15333289Y-13551423D01*
X15336561Y-13550310D01*
X15339760Y-13549043D01*
X15342881Y-13547626D01*
X15345920Y-13546064D01*
X15348873Y-13544361D01*
X15351735Y-13542521D01*
X15354501Y-13540550D01*
X15357168Y-13538452D01*
X15359729Y-13536232D01*
X15362182Y-13533893D01*
X15364521Y-13531440D01*
X15366742Y-13528878D01*
X15368840Y-13526212D01*
X15370811Y-13523446D01*
X15372650Y-13520584D01*
X15374353Y-13517631D01*
X15375915Y-13514592D01*
X15377332Y-13511470D01*
X15378599Y-13508271D01*
X15379712Y-13505000D01*
X15380666Y-13501659D01*
X15381457Y-13498255D01*
X15382080Y-13494792D01*
X15382530Y-13491273D01*
X15382804Y-13487704D01*
X15382896Y-13484090D01*
X23118655Y-9027390D02*
X23119864Y-9023776D01*
X23120851Y-9020205D01*
X23121622Y-9016683D01*
X23122181Y-9013211D01*
X23122533Y-9009794D01*
X23122683Y-9006434D01*
X23122638Y-9003135D01*
X23122401Y-8999900D01*
X23121978Y-8996732D01*
X23121375Y-8993634D01*
X23120596Y-8990610D01*
X23119646Y-8987663D01*
X23118532Y-8984795D01*
X23117257Y-8982011D01*
X23115827Y-8979314D01*
X23114247Y-8976706D01*
X23112523Y-8974192D01*
X23110660Y-8971773D01*
X23108662Y-8969454D01*
X23106535Y-8967237D01*
X23104284Y-8965127D01*
X23101914Y-8963125D01*
X23099430Y-8961236D01*
X23096838Y-8959463D01*
X23094143Y-8957808D01*
X23091350Y-8956275D01*
X23088464Y-8954867D01*
X23085489Y-8953588D01*
X23082433Y-8952441D01*
X23079299Y-8951428D01*
X23076092Y-8950554D01*
X23072818Y-8949821D01*
X14889275Y-4951485D02*
X10245704Y-4951485D01*
X10552455Y-14665256D02*
X10559407Y-14660639D01*
X10566379Y-14656042D01*
X10573370Y-14651466D01*
X10580380Y-14646911D01*
X10587408Y-14642376D01*
X10594453Y-14637862D01*
X10601515Y-14633368D01*
X10608594Y-14628896D01*
X10615687Y-14624443D01*
X10622796Y-14620012D01*
X10629919Y-14615601D01*
X10637055Y-14611211D01*
X10644205Y-14606842D01*
X10651366Y-14602493D01*
X10658539Y-14598165D01*
X10665724Y-14593857D01*
X10672918Y-14589570D01*
X10680122Y-14585304D01*
X10687336Y-14581059D01*
X10694557Y-14576834D01*
X10701787Y-14572630D01*
X10709023Y-14568446D01*
X10716266Y-14564283D01*
X10723515Y-14560141D01*
X10730769Y-14556019D01*
X10738027Y-14551919D01*
X10745289Y-14547838D01*
X10752555Y-14543779D01*
X10759823Y-14539740D01*
X10767093Y-14535722D01*
X10774364Y-14531724D01*
X10781636Y-14527747D01*
X21443867Y-7229197D02*
X21059547Y-7162206D01*
X20728115Y-11946811D02*
X20730728Y-11947213D01*
X20733277Y-11947754D01*
X20735758Y-11948430D01*
X20738169Y-11949235D01*
X20740509Y-11950163D01*
X20742773Y-11951211D01*
X20744960Y-11952372D01*
X20747067Y-11953642D01*
X20749091Y-11955015D01*
X20751030Y-11956486D01*
X20752881Y-11958050D01*
X20754642Y-11959702D01*
X20756310Y-11961437D01*
X20757882Y-11963249D01*
X20759356Y-11965133D01*
X20760729Y-11967084D01*
X20761999Y-11969098D01*
X20763164Y-11971168D01*
X20764219Y-11973290D01*
X20765164Y-11975458D01*
X20765995Y-11977668D01*
X20766710Y-11979914D01*
X20767306Y-11982191D01*
X20767781Y-11984493D01*
X20768132Y-11986817D01*
X20768356Y-11989155D01*
X20768451Y-11991505D01*
X20768415Y-11993859D01*
X20768244Y-11996213D01*
X20767936Y-11998562D01*
X20767489Y-12000901D01*
X20766900Y-12003225D01*
X8172493Y-4951485D02*
X8168558Y-4951577D01*
X8164689Y-4951851D01*
X8160889Y-4952301D01*
X8157164Y-4952924D01*
X8153515Y-4953715D01*
X8149948Y-4954669D01*
X8146467Y-4955782D01*
X8143074Y-4957049D01*
X8139774Y-4958466D01*
X8136571Y-4960029D01*
X8133469Y-4961732D01*
X8130472Y-4963571D01*
X8127583Y-4965542D01*
X8124806Y-4967640D01*
X8122145Y-4969861D01*
X8119605Y-4972200D01*
X8117188Y-4974652D01*
X8114900Y-4977214D01*
X8112743Y-4979880D01*
X8110721Y-4982646D01*
X8108839Y-4985508D01*
X8107101Y-4988461D01*
X8105509Y-4991501D01*
X8104069Y-4994622D01*
X8102784Y-4997821D01*
X8101657Y-5001093D01*
X8100693Y-5004433D01*
X8099896Y-5007837D01*
X8099269Y-5011301D01*
X8098816Y-5014819D01*
X8098542Y-5018388D01*
X8098450Y-5022003D01*
X9219676Y-4951485D02*
X8264165Y-4951485D01*
X9314875Y-15666603D02*
X9330431Y-15651088D01*
X9346029Y-15635615D01*
X9361668Y-15620184D01*
X9377349Y-15604797D01*
X9393071Y-15589454D01*
X9408834Y-15574155D01*
X9424638Y-15558901D01*
X9440484Y-15543693D01*
X9456371Y-15528532D01*
X9472299Y-15513418D01*
X9488269Y-15498352D01*
X9504280Y-15483334D01*
X9520332Y-15468365D01*
X9536426Y-15453445D01*
X9552561Y-15438577D01*
X9568737Y-15423759D01*
X9584955Y-15408993D01*
X9601214Y-15394279D01*
X9617514Y-15379618D01*
X9633856Y-15365010D01*
X9650239Y-15350457D01*
X9666663Y-15335959D01*
X9683128Y-15321516D01*
X9699635Y-15307130D01*
X9716183Y-15292800D01*
X9732773Y-15278528D01*
X9749404Y-15264313D01*
X9766076Y-15250158D01*
X9782789Y-15236062D01*
X9799544Y-15222026D01*
X9816340Y-15208051D01*
X9833178Y-15194137D01*
X8532132Y-16354148D02*
X8534817Y-16356709D01*
X8537579Y-16359106D01*
X8540414Y-16361337D01*
X8543315Y-16363403D01*
X8546279Y-16365304D01*
X8549300Y-16367039D01*
X8552372Y-16368609D01*
X8555491Y-16370014D01*
X8558651Y-16371254D01*
X8561847Y-16372328D01*
X8565074Y-16373237D01*
X8568327Y-16373981D01*
X8571601Y-16374559D01*
X8574890Y-16374972D01*
X8578189Y-16375220D01*
X8581494Y-16375303D01*
X8584799Y-16375220D01*
X8588098Y-16374972D01*
X8591387Y-16374559D01*
X8594661Y-16373981D01*
X8597914Y-16373237D01*
X8601141Y-16372328D01*
X8604337Y-16371254D01*
X8607497Y-16370014D01*
X8610616Y-16368609D01*
X8613688Y-16367039D01*
X8616709Y-16365304D01*
X8619672Y-16363403D01*
X8622574Y-16361337D01*
X8625409Y-16359106D01*
X8628171Y-16356709D01*
X8630856Y-16354148D01*
X9875488Y-15056628D02*
X10552455Y-14665256D01*
X9653358Y-14883860D02*
X9652098Y-14881536D01*
X9650961Y-14879195D01*
X9649946Y-14876840D01*
X9649054Y-14874474D01*
X9648283Y-14872100D01*
X9647633Y-14869721D01*
X9647103Y-14867341D01*
X9646692Y-14864963D01*
X9646400Y-14862591D01*
X9646226Y-14860226D01*
X9646170Y-14857874D01*
X9646231Y-14855536D01*
X9646408Y-14853216D01*
X9646700Y-14850918D01*
X9647107Y-14848644D01*
X9647629Y-14846398D01*
X9648264Y-14844182D01*
X9649012Y-14842001D01*
X9649873Y-14839858D01*
X9650845Y-14837755D01*
X9651928Y-14835696D01*
X9653122Y-14833684D01*
X9654425Y-14831723D01*
X9655837Y-14829815D01*
X9657358Y-14827964D01*
X9658987Y-14826173D01*
X9660723Y-14824445D01*
X9662565Y-14822784D01*
X9664514Y-14821192D01*
X9666567Y-14819674D01*
X9668726Y-14818231D01*
X9670988Y-14816869D01*
X20957297Y-10398954D02*
X21006659Y-10113359D01*
X16980116Y-12179518D02*
X18489188Y-12285294D01*
X21496755Y-7306766D02*
X21497313Y-7303461D01*
X21497671Y-7300162D01*
X21497834Y-7296873D01*
X21497808Y-7293599D01*
X21497599Y-7290346D01*
X21497212Y-7287119D01*
X21496653Y-7283923D01*
X21495928Y-7280763D01*
X21495043Y-7277644D01*
X21494004Y-7274572D01*
X21492817Y-7271551D01*
X21491486Y-7268588D01*
X21490019Y-7265686D01*
X21488421Y-7262851D01*
X21486698Y-7260089D01*
X21484855Y-7257404D01*
X21482898Y-7254802D01*
X21480834Y-7252287D01*
X21478668Y-7249866D01*
X21476405Y-7247542D01*
X21474052Y-7245322D01*
X21471615Y-7243211D01*
X21469098Y-7241213D01*
X21466509Y-7239334D01*
X21463853Y-7237579D01*
X21461135Y-7235953D01*
X21458362Y-7234461D01*
X21455539Y-7233108D01*
X21452672Y-7231901D01*
X21449767Y-7230843D01*
X21446830Y-7229940D01*
X21443867Y-7229197D01*
X21101857Y-10130988D02*
X21052495Y-10416583D01*
X8867089Y-13512297D02*
X8101976Y-13512297D01*
X9833178Y-15194137D02*
X9653358Y-14883860D01*
X9737979Y-14834498D02*
X9739172Y-14836566D01*
X9740611Y-14839059D01*
X9742565Y-14842445D01*
X9745000Y-14846662D01*
X9747880Y-14851651D01*
X9751171Y-14857349D01*
X9754837Y-14863697D01*
X9758844Y-14870633D01*
X9763158Y-14878098D01*
X9767742Y-14886030D01*
X9772563Y-14894369D01*
X9777585Y-14903054D01*
X9782774Y-14912024D01*
X9788094Y-14921219D01*
X9793512Y-14930578D01*
X9798991Y-14940040D01*
X9804497Y-14949545D01*
X9809996Y-14959032D01*
X9815452Y-14968440D01*
X9820830Y-14977708D01*
X9826097Y-14986777D01*
X9831216Y-14995584D01*
X9836153Y-15004070D01*
X9840873Y-15012174D01*
X9845341Y-15019835D01*
X9849523Y-15026992D01*
X9853383Y-15033586D01*
X9856886Y-15039554D01*
X9859999Y-15044836D01*
X9862685Y-15049373D01*
X9864911Y-15053102D01*
X20883253Y-10793851D02*
X20883655Y-10791238D01*
X20884197Y-10788690D01*
X20884872Y-10786209D01*
X20885677Y-10783797D01*
X20886606Y-10781458D01*
X20887654Y-10779193D01*
X20888815Y-10777007D01*
X20890085Y-10774900D01*
X20891458Y-10772876D01*
X20892929Y-10770937D01*
X20894493Y-10769085D01*
X20896145Y-10767325D01*
X20897879Y-10765657D01*
X20899691Y-10764085D01*
X20901576Y-10762610D01*
X20903527Y-10761237D01*
X20905540Y-10759967D01*
X20907611Y-10758803D01*
X20909733Y-10757747D01*
X20911901Y-10756802D01*
X20914111Y-10755971D01*
X20916356Y-10755256D01*
X20918633Y-10754660D01*
X20920936Y-10754185D01*
X20923259Y-10753835D01*
X20925598Y-10753610D01*
X20927947Y-10753515D01*
X20930302Y-10753552D01*
X20932656Y-10753723D01*
X20935005Y-10754030D01*
X20937344Y-10754477D01*
X20939667Y-10755067D01*
X20985504Y-4951485D02*
X20890305Y-4951485D01*
X21112435Y-9778401D02*
X21109822Y-9777999D01*
X21107273Y-9777457D01*
X21104792Y-9776782D01*
X21102381Y-9775977D01*
X21100041Y-9775048D01*
X21097777Y-9774000D01*
X21095590Y-9772839D01*
X21093483Y-9771569D01*
X21091459Y-9770196D01*
X21089520Y-9768725D01*
X21087669Y-9767161D01*
X21085908Y-9765509D01*
X21084240Y-9763775D01*
X21082668Y-9761963D01*
X21081194Y-9760078D01*
X21079821Y-9758127D01*
X21078550Y-9756114D01*
X21077386Y-9754043D01*
X21076330Y-9751921D01*
X21075386Y-9749753D01*
X21074555Y-9747543D01*
X21073840Y-9745298D01*
X21073244Y-9743021D01*
X21072769Y-9740718D01*
X21072418Y-9738395D01*
X21072194Y-9736056D01*
X21072099Y-9733707D01*
X21072135Y-9731352D01*
X21072306Y-9728998D01*
X21072614Y-9726649D01*
X21073061Y-9724310D01*
X21073650Y-9721987D01*
X8098450Y-13343055D02*
X8098542Y-13346670D01*
X8098816Y-13350238D01*
X8099266Y-13353757D01*
X8099889Y-13357220D01*
X8100680Y-13360625D01*
X8101634Y-13363965D01*
X8102747Y-13367237D01*
X8104014Y-13370436D01*
X8105431Y-13373557D01*
X8106993Y-13376596D01*
X8108696Y-13379549D01*
X8110535Y-13382411D01*
X8112506Y-13385177D01*
X8114605Y-13387844D01*
X8116825Y-13390405D01*
X8119164Y-13392858D01*
X8121617Y-13395197D01*
X8124178Y-13397418D01*
X8126845Y-13399516D01*
X8129611Y-13401487D01*
X8132473Y-13403326D01*
X8135426Y-13405029D01*
X8138465Y-13406591D01*
X8141586Y-13408008D01*
X8144785Y-13409275D01*
X8148057Y-13410388D01*
X8151397Y-13411342D01*
X8154802Y-13412133D01*
X8158265Y-13412756D01*
X8161784Y-13413207D01*
X8165352Y-13413480D01*
X8168967Y-13413573D01*
X8098450Y-5022003D02*
X8098450Y-13343055D01*
X9124478Y-13970660D02*
X9123217Y-13968336D01*
X9122080Y-13965995D01*
X9121066Y-13963640D01*
X9120174Y-13961274D01*
X9119403Y-13958900D01*
X9118753Y-13956521D01*
X9118223Y-13954141D01*
X9117812Y-13951763D01*
X9117520Y-13949391D01*
X9117346Y-13947026D01*
X9117290Y-13944674D01*
X9117350Y-13942336D01*
X9117527Y-13940016D01*
X9117820Y-13937718D01*
X9118227Y-13935444D01*
X9118748Y-13933197D01*
X9119384Y-13930982D01*
X9120132Y-13928801D01*
X9120992Y-13926658D01*
X9121964Y-13924555D01*
X9123048Y-13922496D01*
X9124241Y-13920484D01*
X9125545Y-13918523D01*
X9126957Y-13916615D01*
X9128478Y-13914764D01*
X9130107Y-13912973D01*
X9131843Y-13911245D01*
X9133685Y-13909584D01*
X9135633Y-13907992D01*
X9137687Y-13906474D01*
X9139845Y-13905031D01*
X9142107Y-13903668D01*
X7834009Y-14182212D02*
X7146465Y-14869757D01*
X14889275Y-4623579D02*
X14889275Y-4951485D01*
X18429248Y-12634355D02*
X18428999Y-12637650D01*
X18428912Y-12640920D01*
X18428983Y-12644161D01*
X18429207Y-12647371D01*
X18429580Y-12650544D01*
X18430100Y-12653677D01*
X18430762Y-12656766D01*
X18431562Y-12659808D01*
X18432496Y-12662797D01*
X18433561Y-12665732D01*
X18434752Y-12668607D01*
X18436066Y-12671418D01*
X18437498Y-12674163D01*
X18439046Y-12676836D01*
X18440704Y-12679435D01*
X18442470Y-12681954D01*
X18444339Y-12684392D01*
X18446307Y-12686742D01*
X18448371Y-12689003D01*
X18450527Y-12691169D01*
X18452771Y-12693236D01*
X18455098Y-12695202D01*
X18457505Y-12697062D01*
X18459989Y-12698812D01*
X18462545Y-12700449D01*
X18465169Y-12701968D01*
X18467858Y-12703366D01*
X18470608Y-12704638D01*
X18473414Y-12705782D01*
X18476274Y-12706792D01*
X18479182Y-12707666D01*
X18482136Y-12708398D01*
X16990693Y-4951485D02*
X16990693Y-4623579D01*
D11*
X20755397Y-5752018D02*
X20755397Y-6892018D01*
X19315397Y-6892018D01*
X19315397Y-5752018D01*
X20755397Y-5752018D01*
D10*
X20939667Y-10755067D02*
X20942280Y-10755469D01*
X20944829Y-10756010D01*
X20947310Y-10756686D01*
X20949721Y-10757491D01*
X20952061Y-10758420D01*
X20954325Y-10759467D01*
X20956512Y-10760628D01*
X20958619Y-10761898D01*
X20960643Y-10763271D01*
X20962582Y-10764742D01*
X20964433Y-10766306D01*
X20966194Y-10767958D01*
X20967862Y-10769693D01*
X20969434Y-10771505D01*
X20970908Y-10773389D01*
X20972281Y-10775340D01*
X20973552Y-10777354D01*
X20974716Y-10779424D01*
X20975772Y-10781546D01*
X20976716Y-10783714D01*
X20977547Y-10785924D01*
X20978262Y-10788170D01*
X20978859Y-10790447D01*
X20979333Y-10792749D01*
X20979684Y-10795073D01*
X20979908Y-10797412D01*
X20980003Y-10799761D01*
X20979967Y-10802115D01*
X20979796Y-10804469D01*
X20979488Y-10806818D01*
X20979041Y-10809157D01*
X20978452Y-10811481D01*
X20742219Y-11597750D02*
X20883253Y-10793851D01*
X8630856Y-16354148D02*
X9314875Y-15666603D01*
X21059547Y-5025529D02*
X21059454Y-5021604D01*
X21059180Y-5017763D01*
X21058728Y-5014009D01*
X21058101Y-5010344D01*
X21057303Y-5006769D01*
X21056339Y-5003286D01*
X21055213Y-4999898D01*
X21053927Y-4996605D01*
X21052487Y-4993411D01*
X21050896Y-4990317D01*
X21049157Y-4987325D01*
X21047275Y-4984437D01*
X21045254Y-4981655D01*
X21043097Y-4978980D01*
X21040808Y-4976416D01*
X21038392Y-4973963D01*
X21035851Y-4971623D01*
X21033191Y-4969399D01*
X21030414Y-4967293D01*
X21027525Y-4965306D01*
X21024527Y-4963441D01*
X21021425Y-4961699D01*
X21018222Y-4960082D01*
X21014923Y-4958592D01*
X21011530Y-4957231D01*
X21008048Y-4956002D01*
X21004481Y-4954905D01*
X21000833Y-4953944D01*
X20997107Y-4953119D01*
X20993308Y-4952433D01*
X20989439Y-4951888D01*
X20985504Y-4951485D01*
X20495408Y-12997520D02*
X20671701Y-11985595D01*
X21052495Y-10416583D02*
X21052093Y-10419196D01*
X21051552Y-10421745D01*
X21050876Y-10424226D01*
X21050071Y-10426637D01*
X21049142Y-10428977D01*
X21048095Y-10431241D01*
X21046933Y-10433428D01*
X21045664Y-10435535D01*
X21044291Y-10437559D01*
X21042820Y-10439498D01*
X21041256Y-10441349D01*
X21039604Y-10443110D01*
X21037869Y-10444778D01*
X21036057Y-10446350D01*
X21034173Y-10447824D01*
X21032221Y-10449198D01*
X21030208Y-10450468D01*
X21028138Y-10451632D01*
X21026016Y-10452688D01*
X21023847Y-10453632D01*
X21021638Y-10454464D01*
X21019392Y-10455178D01*
X21017115Y-10455775D01*
X21014812Y-10456249D01*
X21012489Y-10456600D01*
X21010150Y-10456824D01*
X21007801Y-10456919D01*
X21005447Y-10456883D01*
X21003093Y-10456712D01*
X21000743Y-10456404D01*
X20998405Y-10455957D01*
X20996081Y-10455368D01*
X9522901Y-14559480D02*
X9520578Y-14560740D01*
X9518236Y-14561877D01*
X9515881Y-14562892D01*
X9513515Y-14563784D01*
X9511141Y-14564555D01*
X9508762Y-14565205D01*
X9506383Y-14565735D01*
X9504005Y-14566146D01*
X9501632Y-14566438D01*
X9499268Y-14566612D01*
X9496915Y-14566668D01*
X9494577Y-14566607D01*
X9492257Y-14566431D01*
X9489959Y-14566138D01*
X9487685Y-14565731D01*
X9485439Y-14565209D01*
X9483224Y-14564574D01*
X9481043Y-14563826D01*
X9478899Y-14562966D01*
X9476796Y-14561993D01*
X9474737Y-14560910D01*
X9472725Y-14559717D01*
X9470764Y-14558413D01*
X9468856Y-14557001D01*
X9467005Y-14555480D01*
X9465214Y-14553851D01*
X9463486Y-14552115D01*
X9461825Y-14550273D01*
X9460233Y-14548324D01*
X9458715Y-14546271D01*
X9457272Y-14544113D01*
X9455910Y-14541851D01*
X10245704Y-4951485D02*
X10245704Y-5698969D01*
X15382896Y-12179518D02*
X16980116Y-12179518D01*
X14332187Y-13554607D02*
X15312379Y-13554607D01*
X21006659Y-10113359D02*
X21007061Y-10110746D01*
X21007602Y-10108197D01*
X21008278Y-10105716D01*
X21009083Y-10103304D01*
X21010012Y-10100965D01*
X21011059Y-10098701D01*
X21012220Y-10096514D01*
X21013490Y-10094407D01*
X21014863Y-10092383D01*
X21016334Y-10090444D01*
X21017898Y-10088593D01*
X21019550Y-10086832D01*
X21021285Y-10085164D01*
X21023097Y-10083592D01*
X21024981Y-10082118D01*
X21026932Y-10080744D01*
X21028946Y-10079474D01*
X21031016Y-10078310D01*
X21033138Y-10077254D01*
X21035306Y-10076309D01*
X21037516Y-10075478D01*
X21039762Y-10074763D01*
X21042039Y-10074167D01*
X21044341Y-10073692D01*
X21046665Y-10073342D01*
X21049004Y-10073117D01*
X21051353Y-10073022D01*
X21053707Y-10073059D01*
X21056061Y-10073230D01*
X21058410Y-10073537D01*
X21060749Y-10073985D01*
X21063073Y-10074574D01*
X22445213Y-12835330D02*
X23118655Y-9027390D01*
X9670988Y-14816869D02*
X9673311Y-14815608D01*
X9675652Y-14814471D01*
X9678008Y-14813457D01*
X9680374Y-14812565D01*
X9682748Y-14811794D01*
X9685126Y-14811143D01*
X9687506Y-14810613D01*
X9689884Y-14810203D01*
X9692257Y-14809911D01*
X9694621Y-14809737D01*
X9696974Y-14809681D01*
X9699312Y-14809741D01*
X9701631Y-14809918D01*
X9703930Y-14810210D01*
X9706204Y-14810618D01*
X9708450Y-14811139D01*
X9710665Y-14811774D01*
X9712846Y-14812522D01*
X9714990Y-14813383D01*
X9717093Y-14814355D01*
X9719152Y-14815438D01*
X9721163Y-14816632D01*
X9723125Y-14817935D01*
X9725033Y-14819348D01*
X9726884Y-14820869D01*
X9728675Y-14822498D01*
X9730402Y-14824233D01*
X9732064Y-14826076D01*
X9733655Y-14828024D01*
X9735174Y-14830078D01*
X9736616Y-14832236D01*
X9737979Y-14834498D01*
X21436815Y-7648776D02*
X21496755Y-7306766D01*
X18482136Y-12708398D02*
X20417839Y-13050408D01*
X20417839Y-13050408D02*
X20421143Y-13050977D01*
X20424443Y-13051363D01*
X20427732Y-13051572D01*
X20431005Y-13051606D01*
X20434258Y-13051470D01*
X20437486Y-13051167D01*
X20440682Y-13050702D01*
X20443842Y-13050077D01*
X20446960Y-13049298D01*
X20450033Y-13048368D01*
X20453053Y-13047290D01*
X20456017Y-13046069D01*
X20458919Y-13044709D01*
X20461753Y-13043213D01*
X20464516Y-13041586D01*
X20467201Y-13039830D01*
X20469803Y-13037951D01*
X20472317Y-13035951D01*
X20474739Y-13033836D01*
X20477062Y-13031608D01*
X20479282Y-13029271D01*
X20481394Y-13026830D01*
X20483392Y-13024288D01*
X20485271Y-13021650D01*
X20487026Y-13018918D01*
X20488652Y-13016098D01*
X20490144Y-13013192D01*
X20491496Y-13010205D01*
X20492704Y-13007140D01*
X20493762Y-13004002D01*
X20494665Y-13000794D01*
X20495408Y-12997520D01*
X14956266Y-4556588D02*
X14952972Y-4556680D01*
X14949703Y-4556953D01*
X14946466Y-4557401D01*
X14943264Y-4558020D01*
X14940104Y-4558804D01*
X14936991Y-4559749D01*
X14933929Y-4560848D01*
X14930924Y-4562097D01*
X14927981Y-4563491D01*
X14925105Y-4565024D01*
X14922301Y-4566691D01*
X14919575Y-4568488D01*
X14916932Y-4570408D01*
X14914376Y-4572447D01*
X14911913Y-4574600D01*
X14909548Y-4576861D01*
X14907287Y-4579226D01*
X14905134Y-4581689D01*
X14903095Y-4584245D01*
X14901174Y-4586888D01*
X14899378Y-4589614D01*
X14897711Y-4592418D01*
X14896177Y-4595294D01*
X14894784Y-4598237D01*
X14893535Y-4601242D01*
X14892435Y-4604304D01*
X14891491Y-4607418D01*
X14890707Y-4610578D01*
X14890088Y-4613779D01*
X14889640Y-4617016D01*
X14889367Y-4620285D01*
X14889275Y-4623579D01*
X23072818Y-8949821D02*
X21362772Y-8650123D01*
X7146465Y-14869757D02*
X7143903Y-14872441D01*
X7141507Y-14875204D01*
X7139275Y-14878038D01*
X7137209Y-14880940D01*
X7135309Y-14883904D01*
X7133573Y-14886925D01*
X7132003Y-14889997D01*
X7130598Y-14893115D01*
X7129359Y-14896275D01*
X7128285Y-14899472D01*
X7127376Y-14902699D01*
X7126632Y-14905952D01*
X7126053Y-14909225D01*
X7125640Y-14912515D01*
X7125392Y-14915814D01*
X7125310Y-14919119D01*
X7125392Y-14922423D01*
X7125640Y-14925723D01*
X7126053Y-14929012D01*
X7126632Y-14932286D01*
X7127376Y-14935539D01*
X7128285Y-14938766D01*
X7129359Y-14941962D01*
X7130598Y-14945122D01*
X7132003Y-14948241D01*
X7133573Y-14951313D01*
X7135309Y-14954334D01*
X7137209Y-14957297D01*
X7139275Y-14960199D01*
X7141507Y-14963034D01*
X7143903Y-14965796D01*
X7146465Y-14968481D01*
X8994021Y-13635702D02*
X8991697Y-13636962D01*
X8989356Y-13638099D01*
X8987001Y-13639114D01*
X8984634Y-13640006D01*
X8982260Y-13640777D01*
X8979882Y-13641427D01*
X8977502Y-13641958D01*
X8975124Y-13642368D01*
X8972752Y-13642660D01*
X8970387Y-13642834D01*
X8968035Y-13642890D01*
X8965697Y-13642830D01*
X8963377Y-13642653D01*
X8961078Y-13642361D01*
X8958805Y-13641953D01*
X8956558Y-13641432D01*
X8954343Y-13640797D01*
X8952162Y-13640048D01*
X8950019Y-13639188D01*
X8947916Y-13638216D01*
X8945857Y-13637132D01*
X8943845Y-13635939D01*
X8941884Y-13634636D01*
X8939976Y-13633223D01*
X8938125Y-13631702D01*
X8936334Y-13630073D01*
X8934606Y-13628337D01*
X8932945Y-13626495D01*
X8931353Y-13624547D01*
X8929835Y-13622493D01*
X8928392Y-13620335D01*
X8927029Y-13618073D01*
X8919977Y-13413573D02*
X9011650Y-13568711D01*
X8927029Y-13618073D02*
X8867089Y-13512297D01*
X10781636Y-14527747D02*
X10833655Y-14497885D01*
X10885907Y-14468460D01*
X10938380Y-14439477D01*
X10991061Y-14410939D01*
X11043935Y-14382851D01*
X11096989Y-14355215D01*
X11150210Y-14328037D01*
X11203584Y-14301320D01*
X11257097Y-14275068D01*
X11310736Y-14249284D01*
X11364488Y-14223973D01*
X11418338Y-14199139D01*
X11472274Y-14174785D01*
X11526281Y-14150915D01*
X11580346Y-14127533D01*
X11634456Y-14104643D01*
X11688597Y-14082249D01*
X11742755Y-14060354D01*
X11796917Y-14038963D01*
X11851070Y-14018080D01*
X11905199Y-13997708D01*
X11959292Y-13977851D01*
X12013334Y-13958513D01*
X12067312Y-13939698D01*
X12121212Y-13921410D01*
X12175022Y-13903653D01*
X12228727Y-13886430D01*
X12282314Y-13869745D01*
X12335769Y-13853603D01*
X12389079Y-13838007D01*
X12442230Y-13822962D01*
X12495209Y-13808470D01*
X20671701Y-11985595D02*
X20672103Y-11982982D01*
X20672645Y-11980434D01*
X20673320Y-11977952D01*
X20674125Y-11975541D01*
X20675054Y-11973202D01*
X20676102Y-11970937D01*
X20677263Y-11968750D01*
X20678533Y-11966644D01*
X20679906Y-11964619D01*
X20681377Y-11962680D01*
X20682941Y-11960829D01*
X20684593Y-11959068D01*
X20686327Y-11957401D01*
X20688139Y-11955828D01*
X20690023Y-11954354D01*
X20691975Y-11952981D01*
X20693988Y-11951711D01*
X20696059Y-11950546D01*
X20698180Y-11949491D01*
X20700349Y-11948546D01*
X20702559Y-11947715D01*
X20704804Y-11947000D01*
X20707081Y-11946404D01*
X20709384Y-11945929D01*
X20711707Y-11945578D01*
X20714046Y-11945354D01*
X20716395Y-11945259D01*
X20718749Y-11945296D01*
X20721104Y-11945466D01*
X20723453Y-11945774D01*
X20725792Y-11946221D01*
X20728115Y-11946811D01*
X12495209Y-13808470D02*
X12553095Y-13793171D01*
X12611053Y-13778348D01*
X12669073Y-13764000D01*
X12727145Y-13750128D01*
X12785258Y-13736730D01*
X12843403Y-13723808D01*
X12901567Y-13711360D01*
X12959742Y-13699388D01*
X13017918Y-13687891D01*
X13076082Y-13676869D01*
X13134227Y-13666323D01*
X13192340Y-13656251D01*
X13250412Y-13646655D01*
X13308432Y-13637534D01*
X13366390Y-13628888D01*
X13424276Y-13620717D01*
X13482079Y-13613022D01*
X13539789Y-13605801D01*
X13597396Y-13599056D01*
X13654890Y-13592786D01*
X13712259Y-13586991D01*
X13769494Y-13581671D01*
X13826585Y-13576826D01*
X13883520Y-13572457D01*
X13940291Y-13568563D01*
X13996885Y-13565144D01*
X14053294Y-13562200D01*
X14109507Y-13559731D01*
X14165512Y-13557737D01*
X14221301Y-13556219D01*
X14276863Y-13555175D01*
X14332187Y-13554607D01*
X20978452Y-10811481D02*
X20837417Y-11615379D01*
X8101976Y-13512297D02*
X8101976Y-13917772D01*
X20996081Y-10455368D02*
X20993468Y-10454966D01*
X20990920Y-10454424D01*
X20988439Y-10453749D01*
X20986027Y-10452944D01*
X20983688Y-10452015D01*
X20981423Y-10450967D01*
X20979236Y-10449806D01*
X20977130Y-10448536D01*
X20975105Y-10447163D01*
X20973166Y-10445692D01*
X20971315Y-10444128D01*
X20969555Y-10442476D01*
X20967887Y-10440742D01*
X20966314Y-10438930D01*
X20964840Y-10437045D01*
X20963467Y-10435094D01*
X20962197Y-10433081D01*
X20961032Y-10431010D01*
X20959977Y-10428888D01*
X20959032Y-10426720D01*
X20958201Y-10424510D01*
X20957486Y-10422264D01*
X20956890Y-10419988D01*
X20956415Y-10417685D01*
X20956064Y-10415362D01*
X20955840Y-10413023D01*
X20955745Y-10410674D01*
X20955782Y-10408319D01*
X20955952Y-10405965D01*
X20956260Y-10403616D01*
X20956707Y-10401277D01*
X20957297Y-10398954D01*
X8264165Y-4951485D02*
X8172493Y-4951485D01*
X7146465Y-14968481D02*
X8532132Y-16354148D01*
X21073650Y-9721987D02*
X21436815Y-7648776D01*
X9142107Y-13903668D02*
X9144431Y-13902408D01*
X9146772Y-13901271D01*
X9149127Y-13900256D01*
X9151493Y-13899364D01*
X9153867Y-13898593D01*
X9156246Y-13897943D01*
X9158626Y-13897413D01*
X9161004Y-13897002D01*
X9163376Y-13896710D01*
X9165741Y-13896536D01*
X9168093Y-13896480D01*
X9170431Y-13896541D01*
X9172751Y-13896717D01*
X9175049Y-13897010D01*
X9177323Y-13897417D01*
X9179570Y-13897939D01*
X9181785Y-13898574D01*
X9183966Y-13899322D01*
X9186109Y-13900182D01*
X9188212Y-13901155D01*
X9190271Y-13902238D01*
X9192283Y-13903431D01*
X9194244Y-13904735D01*
X9196152Y-13906147D01*
X9198003Y-13907668D01*
X9199794Y-13909297D01*
X9201522Y-13911033D01*
X9203183Y-13912875D01*
X9204775Y-13914824D01*
X9206293Y-13916877D01*
X9207736Y-13919035D01*
X9209099Y-13921298D01*
X16990693Y-4623579D02*
X16990601Y-4620285D01*
X16990328Y-4617016D01*
X16989880Y-4613779D01*
X16989261Y-4610578D01*
X16988477Y-4607418D01*
X16987532Y-4604304D01*
X16986433Y-4601242D01*
X16985184Y-4598237D01*
X16983790Y-4595294D01*
X16982257Y-4592418D01*
X16980590Y-4589614D01*
X16978793Y-4586888D01*
X16976873Y-4584245D01*
X16974834Y-4581689D01*
X16972681Y-4579226D01*
X16970419Y-4576862D01*
X16968055Y-4574600D01*
X16965592Y-4572447D01*
X16963036Y-4570408D01*
X16960393Y-4568488D01*
X16957667Y-4566691D01*
X16954863Y-4565024D01*
X16951987Y-4563491D01*
X16949044Y-4562097D01*
X16946039Y-4560848D01*
X16942977Y-4559749D01*
X16939863Y-4558804D01*
X16936703Y-4558020D01*
X16933502Y-4557401D01*
X16930264Y-4556953D01*
X16926996Y-4556680D01*
X16923702Y-4556588D01*
X20837417Y-11615379D02*
X20837015Y-11617992D01*
X20836473Y-11620540D01*
X20835798Y-11623021D01*
X20834993Y-11625433D01*
X20834064Y-11627772D01*
X20833016Y-11630037D01*
X20831855Y-11632223D01*
X20830586Y-11634330D01*
X20829213Y-11636354D01*
X20827741Y-11638293D01*
X20826177Y-11640145D01*
X20824525Y-11641905D01*
X20822791Y-11643573D01*
X20820979Y-11645146D01*
X20819095Y-11646620D01*
X20817143Y-11647993D01*
X20815130Y-11649263D01*
X20813059Y-11650427D01*
X20810938Y-11651483D01*
X20808769Y-11652428D01*
X20806559Y-11653259D01*
X20804314Y-11653974D01*
X20802037Y-11654570D01*
X20799734Y-11655045D01*
X20797411Y-11655396D01*
X20795072Y-11655620D01*
X20792723Y-11655715D01*
X20790369Y-11655678D01*
X20788014Y-11655508D01*
X20785665Y-11655200D01*
X20783326Y-11654753D01*
X20781003Y-11654164D01*
X22367645Y-12891744D02*
X22371259Y-12892312D01*
X22374830Y-12892698D01*
X22378352Y-12892905D01*
X22381824Y-12892935D01*
X22385241Y-12892792D01*
X22388601Y-12892480D01*
X22391900Y-12892001D01*
X22395135Y-12891358D01*
X22398303Y-12890556D01*
X22401401Y-12889596D01*
X22404425Y-12888483D01*
X22407372Y-12887219D01*
X22410240Y-12885809D01*
X22413024Y-12884254D01*
X22415721Y-12882558D01*
X22418329Y-12880725D01*
X22420843Y-12878758D01*
X22423262Y-12876660D01*
X22425581Y-12874434D01*
X22427798Y-12872083D01*
X22429908Y-12869611D01*
X22431910Y-12867020D01*
X22433799Y-12864315D01*
X22435572Y-12861498D01*
X22437227Y-12858573D01*
X22438760Y-12855542D01*
X22440167Y-12852410D01*
X22441447Y-12849179D01*
X22442594Y-12845852D01*
X22443606Y-12842432D01*
X22444481Y-12838924D01*
X22445213Y-12835330D01*
X9209099Y-13921298D02*
X9540530Y-14492489D01*
X21063073Y-10074574D02*
X21065365Y-10074976D01*
X21067614Y-10075517D01*
X21069817Y-10076193D01*
X21071970Y-10076998D01*
X21074072Y-10077927D01*
X21076119Y-10078974D01*
X21078110Y-10080135D01*
X21080041Y-10081405D01*
X21081910Y-10082778D01*
X21083715Y-10084249D01*
X21085452Y-10085813D01*
X21087120Y-10087465D01*
X21088716Y-10089200D01*
X21090236Y-10091012D01*
X21091679Y-10092896D01*
X21093043Y-10094847D01*
X21094323Y-10096861D01*
X21095518Y-10098931D01*
X21096626Y-10101053D01*
X21097643Y-10103221D01*
X21098567Y-10105431D01*
X21099395Y-10107677D01*
X21100126Y-10109954D01*
X21100755Y-10112256D01*
X21101282Y-10114580D01*
X21101702Y-10116919D01*
X21102014Y-10119268D01*
X21102215Y-10121622D01*
X21102303Y-10123976D01*
X21102274Y-10126326D01*
X21102126Y-10128664D01*
X21101857Y-10130988D01*
X8101976Y-13917772D02*
X8093382Y-13925725D01*
X8084789Y-13933718D01*
X8076198Y-13941749D01*
X8067612Y-13949814D01*
X8059031Y-13957914D01*
X8050456Y-13966045D01*
X8041889Y-13974206D01*
X8033331Y-13982394D01*
X8024784Y-13990609D01*
X8016248Y-13998847D01*
X8007725Y-14007107D01*
X7999216Y-14015387D01*
X7990722Y-14023686D01*
X7982246Y-14032000D01*
X7973787Y-14040329D01*
X7965348Y-14048670D01*
X7956930Y-14057021D01*
X7948533Y-14065381D01*
X7940160Y-14073747D01*
X7931811Y-14082117D01*
X7923488Y-14090490D01*
X7915192Y-14098864D01*
X7906925Y-14107237D01*
X7898687Y-14115606D01*
X7890480Y-14123970D01*
X7882306Y-14132327D01*
X7874165Y-14140675D01*
X7866059Y-14149012D01*
X7857989Y-14157336D01*
X7849957Y-14165646D01*
X7841963Y-14173938D01*
X7834009Y-14182212D01*
X20781003Y-11654164D02*
X20778700Y-11653762D01*
X20776423Y-11653220D01*
X20774175Y-11652544D01*
X20771961Y-11651739D01*
X20769786Y-11650811D01*
X20767654Y-11649763D01*
X20765570Y-11648602D01*
X20763539Y-11647332D01*
X20761564Y-11645959D01*
X20759651Y-11644488D01*
X20757803Y-11642924D01*
X20756026Y-11641272D01*
X20754323Y-11639538D01*
X20752700Y-11637725D01*
X20751161Y-11635841D01*
X20749711Y-11633890D01*
X20748353Y-11631876D01*
X20747093Y-11629806D01*
X20745935Y-11627684D01*
X20744884Y-11625516D01*
X20743943Y-11623306D01*
X20743118Y-11621060D01*
X20742413Y-11618783D01*
X20741833Y-11616481D01*
X20741382Y-11614157D01*
X20741064Y-11611819D01*
X20740885Y-11609469D01*
X20740848Y-11607115D01*
X20740959Y-11604761D01*
X20741221Y-11602412D01*
X20741639Y-11600073D01*
X20742219Y-11597750D01*
X20890305Y-4951485D02*
X16990693Y-4951485D01*
X10245704Y-5698969D02*
X9219676Y-5698969D01*
X8168967Y-13413573D02*
X8919977Y-13413573D01*
X20664649Y-12588519D02*
X22367645Y-12891744D01*
X16923702Y-4556588D02*
X14956266Y-4556588D01*
X15382896Y-13484090D02*
X15382896Y-12179518D01*
X9011650Y-13568711D02*
X9012910Y-13571034D01*
X9014047Y-13573375D01*
X9015062Y-13575731D01*
X9015954Y-13578097D01*
X9016725Y-13580471D01*
X9017375Y-13582849D01*
X9017905Y-13585229D01*
X9018316Y-13587607D01*
X9018608Y-13589980D01*
X9018782Y-13592344D01*
X9018838Y-13594697D01*
X9018778Y-13597035D01*
X9018601Y-13599354D01*
X9018308Y-13601653D01*
X9017901Y-13603927D01*
X9017380Y-13606173D01*
X9016744Y-13608388D01*
X9015996Y-13610569D01*
X9015136Y-13612713D01*
X9014164Y-13614816D01*
X9013080Y-13616874D01*
X9011887Y-13618886D01*
X9010583Y-13620848D01*
X9009171Y-13622756D01*
X9007650Y-13624607D01*
X9006021Y-13626398D01*
X9004285Y-13628125D01*
X9002443Y-13629787D01*
X9000494Y-13631378D01*
X8998441Y-13632897D01*
X8996283Y-13634339D01*
X8994021Y-13635702D01*
X20766900Y-12003225D02*
X20664649Y-12588519D01*
X9864911Y-15053102D02*
X9865902Y-15054003D01*
X9866894Y-15054736D01*
X9867885Y-15055318D01*
X9868877Y-15055767D01*
X9869869Y-15056099D01*
X9870860Y-15056332D01*
X9871852Y-15056484D01*
X9873174Y-15056591D01*
X9874496Y-15056625D01*
X9875488Y-15056628D01*
X18489188Y-12285294D02*
X18429248Y-12634355D01*
X21168849Y-9739616D02*
X21168447Y-9742229D01*
X21167905Y-9744778D01*
X21167230Y-9747259D01*
X21166425Y-9749671D01*
X21165496Y-9752010D01*
X21164448Y-9754274D01*
X21163287Y-9756461D01*
X21162017Y-9758568D01*
X21160644Y-9760592D01*
X21159173Y-9762531D01*
X21157609Y-9764382D01*
X21155957Y-9766143D01*
X21154223Y-9767811D01*
X21152411Y-9769383D01*
X21150526Y-9770857D01*
X21148575Y-9772230D01*
X21146562Y-9773501D01*
X21144491Y-9774665D01*
X21142369Y-9775721D01*
X21140201Y-9776665D01*
X21137991Y-9777496D01*
X21135746Y-9778211D01*
X21133469Y-9778807D01*
X21131166Y-9779282D01*
X21128843Y-9779633D01*
X21126504Y-9779857D01*
X21124155Y-9779952D01*
X21121800Y-9779916D01*
X21119446Y-9779745D01*
X21117097Y-9779437D01*
X21114758Y-9778990D01*
X21112435Y-9778401D01*
D12*
D13*
X8225519Y-6144641D02*
X8295519Y-6214641D01*
X8295519Y-6144641D02*
X8225519Y-6214641D01*
X8230519Y-5844641D02*
X8300519Y-5914641D01*
X8300519Y-5844641D02*
X8230519Y-5914641D01*
D14*
X8311396Y-11490519D02*
G75*
G03*
X8311396Y-11490519I-45000J0D01*
G01*
X8311396Y-11915519D02*
G75*
G03*
X8311396Y-11915519I-45000J0D01*
G01*
D15*
X8275396Y-12314518D02*
X8275396Y-12434518D01*
X8215396Y-12374518D02*
X8335396Y-12374518D01*
X8275396Y-12489518D02*
X8275396Y-12609518D01*
X8215396Y-12549518D02*
X8335396Y-12549518D01*
X8975397Y-12314518D02*
X8975397Y-12434518D01*
X8915397Y-12374518D02*
X9035397Y-12374518D01*
X8975397Y-12489518D02*
X8975397Y-12609518D01*
X8915397Y-12549518D02*
X9035397Y-12549518D01*
D16*
X19438179Y-7219800D02*
X19438179Y-7064235D01*
X19282614Y-7064235D01*
X19282614Y-7219800D01*
X19438179Y-7219800D01*
D17*
X8367396Y-5369018D02*
X8527397Y-5209018D01*
X8367396Y-5049018D01*
X8207396Y-5209018D01*
X8367396Y-5369018D01*
X8367396Y-13312018D02*
X8527397Y-13152018D01*
X8367396Y-12992018D01*
X8207396Y-13152018D01*
X8367396Y-13312018D01*
X14575396Y-5369018D02*
X14735396Y-5209018D01*
X14575396Y-5049018D01*
X14415396Y-5209018D01*
X14575396Y-5369018D01*
X16765396Y-8602018D02*
X16925397Y-8442018D01*
X16765396Y-8282018D01*
X16605396Y-8442018D01*
X16765396Y-8602018D01*
X17030396Y-11968018D02*
X17190396Y-11808018D01*
X17030396Y-11648018D01*
X16870396Y-11808018D01*
X17030396Y-11968018D01*
X17450397Y-5369018D02*
X17610397Y-5209018D01*
X17450397Y-5049018D01*
X17290397Y-5209018D01*
X17450397Y-5369018D01*
X18191397Y-12044018D02*
X18351397Y-11884018D01*
X18191397Y-11724018D01*
X18031397Y-11884018D01*
X18191397Y-12044018D01*
X18934397Y-5470018D02*
X19094397Y-5310018D01*
X18934397Y-5150018D01*
X18774397Y-5310018D01*
X18934397Y-5470018D01*
D18*
X8322612Y-14676401D02*
X8822612Y-15176401D01*
X8822612Y-14676401D02*
X8322612Y-15176401D01*
X8822612Y-14926401D02*
G75*
G03*
X8822612Y-14926401I-250000J0D01*
G01*
X10010112Y-13370192D02*
X10510112Y-13870192D01*
X10510112Y-13370192D02*
X10010112Y-13870192D01*
X10510112Y-13620192D02*
G75*
G03*
X10510112Y-13620192I-250000J0D01*
G01*
X11892193Y-8454544D02*
X12392193Y-8954544D01*
X12392193Y-8454544D02*
X11892193Y-8954544D01*
X12392193Y-8704544D02*
G75*
G03*
X12392193Y-8704544I-250000J0D01*
G01*
X11892193Y-6547284D02*
X12392193Y-7047284D01*
X12392193Y-6547284D02*
X11892193Y-7047284D01*
X12392193Y-6797284D02*
G75*
G03*
X12392193Y-6797284I-250000J0D01*
G01*
X11892193Y-10361804D02*
X12392193Y-10861804D01*
X12392193Y-10361804D02*
X11892193Y-10861804D01*
X12392193Y-10611804D02*
G75*
G03*
X12392193Y-10611804I-250000J0D01*
G01*
X11975112Y-12544912D02*
X12475112Y-13044912D01*
X12475112Y-12544912D02*
X11975112Y-13044912D01*
X12475112Y-12794912D02*
G75*
G03*
X12475112Y-12794912I-250000J0D01*
G01*
X13791536Y-10061804D02*
X14291536Y-10561804D01*
X14291536Y-10061804D02*
X13791536Y-10561804D01*
X14291536Y-10311804D02*
G75*
G03*
X14291536Y-10311804I-250000J0D01*
G01*
X13791536Y-6247284D02*
X14291536Y-6747284D01*
X14291536Y-6247284D02*
X13791536Y-6747284D01*
X14291536Y-6497284D02*
G75*
G03*
X14291536Y-6497284I-250000J0D01*
G01*
X13791536Y-8154544D02*
X14291536Y-8654544D01*
X14291536Y-8154544D02*
X13791536Y-8654544D01*
X14291536Y-8404544D02*
G75*
G03*
X14291536Y-8404544I-250000J0D01*
G01*
X14086536Y-12256804D02*
X14586536Y-12756804D01*
X14586536Y-12256804D02*
X14086536Y-12756804D01*
X14586536Y-12506804D02*
G75*
G03*
X14586536Y-12506804I-250000J0D01*
G01*
X15696536Y-5347285D02*
X16196536Y-5847284D01*
X16196536Y-5347285D02*
X15696536Y-5847284D01*
X16196536Y-5597284D02*
G75*
G03*
X16196536Y-5597284I-250000J0D01*
G01*
X15696536Y-7254544D02*
X16196536Y-7754544D01*
X16196536Y-7254544D02*
X15696536Y-7754544D01*
X16196536Y-7504544D02*
G75*
G03*
X16196536Y-7504544I-250000J0D01*
G01*
X15696536Y-9161804D02*
X16196536Y-9661804D01*
X16196536Y-9161804D02*
X15696536Y-9661804D01*
X16196536Y-9411804D02*
G75*
G03*
X16196536Y-9411804I-250000J0D01*
G01*
X17607612Y-10194934D02*
X18107612Y-10694934D01*
X18107612Y-10194934D02*
X17607612Y-10694934D01*
X18107612Y-10444934D02*
G75*
G03*
X18107612Y-10444934I-250000J0D01*
G01*
X17740656Y-8292320D02*
X18240656Y-8792320D01*
X18240656Y-8292320D02*
X17740656Y-8792320D01*
X18240656Y-8542320D02*
G75*
G03*
X18240656Y-8542320I-250000J0D01*
G01*
X17873699Y-6389706D02*
X18373699Y-6889706D01*
X18373699Y-6389706D02*
X17873699Y-6889706D01*
X18373699Y-6639706D02*
G75*
G03*
X18373699Y-6639706I-250000J0D01*
G01*
X19393411Y-11596058D02*
X19893411Y-12096058D01*
X19893411Y-11596058D02*
X19393411Y-12096058D01*
X19893411Y-11846058D02*
G75*
G03*
X19893411Y-11846058I-250000J0D01*
G01*
X19724603Y-9717774D02*
X20224603Y-10217774D01*
X20224603Y-9717774D02*
X19724603Y-10217774D01*
X20224603Y-9967774D02*
G75*
G03*
X20224603Y-9967774I-250000J0D01*
G01*
X20055795Y-7839489D02*
X20555795Y-8339489D01*
X20555795Y-7839489D02*
X20055795Y-8339489D01*
X20555795Y-8089489D02*
G75*
G03*
X20555795Y-8089489I-250000J0D01*
G01*
X21353635Y-11433985D02*
X21853635Y-11933985D01*
X21853635Y-11433985D02*
X21353635Y-11933985D01*
X21853635Y-11683985D02*
G75*
G03*
X21853635Y-11683985I-250000J0D01*
G01*
X21684827Y-9555701D02*
X22184827Y-10055701D01*
X22184827Y-9555701D02*
X21684827Y-10055701D01*
X22184827Y-9805701D02*
G75*
G03*
X22184827Y-9805701I-250000J0D01*
G01*
D12*
X7375377Y-16693331D02*
X7375377Y-16493331D01*
X7422996Y-16493331D01*
X7451567Y-16502855D01*
X7470615Y-16521902D01*
X7480139Y-16540950D01*
X7489663Y-16579045D01*
X7489663Y-16607617D01*
X7480139Y-16645712D01*
X7470615Y-16664760D01*
X7451567Y-16683807D01*
X7422996Y-16693331D01*
X7375377Y-16693331D01*
X7575377Y-16693331D02*
X7575377Y-16559998D01*
X7575377Y-16598093D02*
X7584901Y-16579045D01*
X7594424Y-16569521D01*
X7613472Y-16559998D01*
X7632520Y-16559998D01*
X7699186Y-16693331D02*
X7699186Y-16559998D01*
X7699186Y-16493331D02*
X7689663Y-16502855D01*
X7699186Y-16512379D01*
X7708710Y-16502855D01*
X7699186Y-16493331D01*
X7699186Y-16512379D01*
X7822996Y-16693331D02*
X7803948Y-16683807D01*
X7794424Y-16664760D01*
X7794424Y-16493331D01*
X7927758Y-16693331D02*
X7908710Y-16683807D01*
X7899186Y-16664760D01*
X7899186Y-16493331D01*
X8156329Y-16693331D02*
X8156329Y-16493331D01*
X8222996Y-16636188D01*
X8289663Y-16493331D01*
X8289663Y-16693331D01*
X8470615Y-16693331D02*
X8470615Y-16588569D01*
X8461091Y-16569521D01*
X8442044Y-16559998D01*
X8403948Y-16559998D01*
X8384901Y-16569521D01*
X8470615Y-16683807D02*
X8451567Y-16693331D01*
X8403948Y-16693331D01*
X8384901Y-16683807D01*
X8375377Y-16664760D01*
X8375377Y-16645712D01*
X8384901Y-16626664D01*
X8403948Y-16617141D01*
X8451567Y-16617141D01*
X8470615Y-16607617D01*
X8565853Y-16559998D02*
X8565853Y-16759998D01*
X8565853Y-16569521D02*
X8584901Y-16559998D01*
X8622996Y-16559998D01*
X8642044Y-16569521D01*
X8651567Y-16579045D01*
X8661091Y-16598093D01*
X8661091Y-16655236D01*
X8651567Y-16674283D01*
X8642044Y-16683807D01*
X8622996Y-16693331D01*
X8584901Y-16693331D01*
X8565853Y-16683807D01*
X8746806Y-16674283D02*
X8756329Y-16683807D01*
X8746806Y-16693331D01*
X8737282Y-16683807D01*
X8746806Y-16674283D01*
X8746806Y-16693331D01*
X8746806Y-16569521D02*
X8756329Y-16579045D01*
X8746806Y-16588569D01*
X8737282Y-16579045D01*
X8746806Y-16569521D01*
X8746806Y-16588569D01*
D13*
X7047758Y-16987855D02*
X7117758Y-17057855D01*
X7117758Y-16987855D02*
X7047758Y-17057855D01*
D12*
X7413472Y-16913331D02*
X7432520Y-16913331D01*
X7451567Y-16922855D01*
X7461091Y-16932379D01*
X7470615Y-16951426D01*
X7480139Y-16989522D01*
X7480139Y-17037141D01*
X7470615Y-17075236D01*
X7461091Y-17094283D01*
X7451567Y-17103807D01*
X7432520Y-17113331D01*
X7413472Y-17113331D01*
X7394424Y-17103807D01*
X7384901Y-17094283D01*
X7375377Y-17075236D01*
X7365853Y-17037141D01*
X7365853Y-16989522D01*
X7375377Y-16951426D01*
X7384901Y-16932379D01*
X7394424Y-16922855D01*
X7413472Y-16913331D01*
X7565853Y-17094283D02*
X7575377Y-17103807D01*
X7565853Y-17113331D01*
X7556329Y-17103807D01*
X7565853Y-17094283D01*
X7565853Y-17113331D01*
X7642044Y-16913331D02*
X7775377Y-16913331D01*
X7689663Y-17113331D01*
X7889663Y-16913331D02*
X7908710Y-16913331D01*
X7927758Y-16922855D01*
X7937282Y-16932379D01*
X7946805Y-16951426D01*
X7956329Y-16989522D01*
X7956329Y-17037141D01*
X7946805Y-17075236D01*
X7937282Y-17094283D01*
X7927758Y-17103807D01*
X7908710Y-17113331D01*
X7889663Y-17113331D01*
X7870615Y-17103807D01*
X7861091Y-17094283D01*
X7851567Y-17075236D01*
X7842044Y-17037141D01*
X7842044Y-16989522D01*
X7851567Y-16951426D01*
X7861091Y-16932379D01*
X7870615Y-16922855D01*
X7889663Y-16913331D01*
X8080139Y-16913331D02*
X8099186Y-16913331D01*
X8118234Y-16922855D01*
X8127758Y-16932379D01*
X8137282Y-16951426D01*
X8146805Y-16989522D01*
X8146805Y-17037141D01*
X8137282Y-17075236D01*
X8127758Y-17094283D01*
X8118234Y-17103807D01*
X8099186Y-17113331D01*
X8080139Y-17113331D01*
X8061091Y-17103807D01*
X8051567Y-17094283D01*
X8042044Y-17075236D01*
X8032520Y-17037141D01*
X8032520Y-16989522D01*
X8042044Y-16951426D01*
X8051567Y-16932379D01*
X8061091Y-16922855D01*
X8080139Y-16913331D01*
X8232520Y-17113331D02*
X8232520Y-16979998D01*
X8232520Y-16999045D02*
X8242044Y-16989522D01*
X8261091Y-16979998D01*
X8289663Y-16979998D01*
X8308710Y-16989522D01*
X8318234Y-17008569D01*
X8318234Y-17113331D01*
X8318234Y-17008569D02*
X8327758Y-16989522D01*
X8346805Y-16979998D01*
X8375377Y-16979998D01*
X8394425Y-16989522D01*
X8403948Y-17008569D01*
X8403948Y-17113331D01*
X8499186Y-17113331D02*
X8499186Y-16979998D01*
X8499186Y-16999045D02*
X8508710Y-16989522D01*
X8527758Y-16979998D01*
X8556329Y-16979998D01*
X8575377Y-16989522D01*
X8584901Y-17008569D01*
X8584901Y-17113331D01*
X8584901Y-17008569D02*
X8594425Y-16989522D01*
X8613472Y-16979998D01*
X8642044Y-16979998D01*
X8661091Y-16989522D01*
X8670615Y-17008569D01*
X8670615Y-17113331D01*
X9061091Y-16903807D02*
X8889663Y-17160950D01*
X9318234Y-16913331D02*
X9337282Y-16913331D01*
X9356329Y-16922855D01*
X9365853Y-16932379D01*
X9375377Y-16951426D01*
X9384901Y-16989522D01*
X9384901Y-17037141D01*
X9375377Y-17075236D01*
X9365853Y-17094283D01*
X9356329Y-17103807D01*
X9337282Y-17113331D01*
X9318234Y-17113331D01*
X9299186Y-17103807D01*
X9289663Y-17094283D01*
X9280139Y-17075236D01*
X9270615Y-17037141D01*
X9270615Y-16989522D01*
X9280139Y-16951426D01*
X9289663Y-16932379D01*
X9299186Y-16922855D01*
X9318234Y-16913331D01*
X9470615Y-17094283D02*
X9480139Y-17103807D01*
X9470615Y-17113331D01*
X9461091Y-17103807D01*
X9470615Y-17094283D01*
X9470615Y-17113331D01*
X9603948Y-16913331D02*
X9622996Y-16913331D01*
X9642044Y-16922855D01*
X9651567Y-16932379D01*
X9661091Y-16951426D01*
X9670615Y-16989522D01*
X9670615Y-17037141D01*
X9661091Y-17075236D01*
X9651567Y-17094283D01*
X9642044Y-17103807D01*
X9622996Y-17113331D01*
X9603948Y-17113331D01*
X9584901Y-17103807D01*
X9575377Y-17094283D01*
X9565853Y-17075236D01*
X9556329Y-17037141D01*
X9556329Y-16989522D01*
X9565853Y-16951426D01*
X9575377Y-16932379D01*
X9584901Y-16922855D01*
X9603948Y-16913331D01*
X9746806Y-16932379D02*
X9756329Y-16922855D01*
X9775377Y-16913331D01*
X9822996Y-16913331D01*
X9842044Y-16922855D01*
X9851567Y-16932379D01*
X9861091Y-16951426D01*
X9861091Y-16970474D01*
X9851567Y-16999045D01*
X9737282Y-17113331D01*
X9861091Y-17113331D01*
X9927758Y-16913331D02*
X10061091Y-16913331D01*
X9975377Y-17113331D01*
X10222996Y-16913331D02*
X10184901Y-16913331D01*
X10165853Y-16922855D01*
X10156329Y-16932379D01*
X10137282Y-16960950D01*
X10127758Y-16999045D01*
X10127758Y-17075236D01*
X10137282Y-17094283D01*
X10146806Y-17103807D01*
X10165853Y-17113331D01*
X10203948Y-17113331D01*
X10222996Y-17103807D01*
X10232520Y-17094283D01*
X10242044Y-17075236D01*
X10242044Y-17027617D01*
X10232520Y-17008569D01*
X10222996Y-16999045D01*
X10203948Y-16989522D01*
X10165853Y-16989522D01*
X10146806Y-16999045D01*
X10137282Y-17008569D01*
X10127758Y-17027617D01*
X10318234Y-16913331D02*
X10318234Y-16951426D01*
X10394425Y-16913331D02*
X10394425Y-16951426D01*
X10689663Y-17189522D02*
X10680139Y-17179998D01*
X10661091Y-17151426D01*
X10651567Y-17132379D01*
X10642044Y-17103807D01*
X10632520Y-17056188D01*
X10632520Y-17018093D01*
X10642044Y-16970474D01*
X10651567Y-16941903D01*
X10661091Y-16922855D01*
X10680139Y-16894283D01*
X10689663Y-16884760D01*
X10756329Y-16932379D02*
X10765853Y-16922855D01*
X10784901Y-16913331D01*
X10832520Y-16913331D01*
X10851567Y-16922855D01*
X10861091Y-16932379D01*
X10870615Y-16951426D01*
X10870615Y-16970474D01*
X10861091Y-16999045D01*
X10746806Y-17113331D01*
X10870615Y-17113331D01*
X11108710Y-17113331D02*
X11108710Y-16913331D01*
X11194424Y-17113331D02*
X11194424Y-17008569D01*
X11184901Y-16989522D01*
X11165853Y-16979998D01*
X11137282Y-16979998D01*
X11118234Y-16989522D01*
X11108710Y-16999045D01*
X11318234Y-17113331D02*
X11299186Y-17103807D01*
X11289663Y-17094283D01*
X11280139Y-17075236D01*
X11280139Y-17018093D01*
X11289663Y-16999045D01*
X11299186Y-16989522D01*
X11318234Y-16979998D01*
X11346805Y-16979998D01*
X11365853Y-16989522D01*
X11375377Y-16999045D01*
X11384901Y-17018093D01*
X11384901Y-17075236D01*
X11375377Y-17094283D01*
X11365853Y-17103807D01*
X11346805Y-17113331D01*
X11318234Y-17113331D01*
X11499186Y-17113331D02*
X11480139Y-17103807D01*
X11470615Y-17084760D01*
X11470615Y-16913331D01*
X11651567Y-17103807D02*
X11632520Y-17113331D01*
X11594424Y-17113331D01*
X11575377Y-17103807D01*
X11565853Y-17084760D01*
X11565853Y-17008569D01*
X11575377Y-16989522D01*
X11594424Y-16979998D01*
X11632520Y-16979998D01*
X11651567Y-16989522D01*
X11661091Y-17008569D01*
X11661091Y-17027617D01*
X11565853Y-17046664D01*
X11737282Y-17103807D02*
X11756329Y-17113331D01*
X11794424Y-17113331D01*
X11813472Y-17103807D01*
X11822996Y-17084760D01*
X11822996Y-17075236D01*
X11813472Y-17056188D01*
X11794424Y-17046664D01*
X11765853Y-17046664D01*
X11746805Y-17037141D01*
X11737282Y-17018093D01*
X11737282Y-17008569D01*
X11746805Y-16989522D01*
X11765853Y-16979998D01*
X11794424Y-16979998D01*
X11813472Y-16989522D01*
X11889663Y-17189522D02*
X11899186Y-17179998D01*
X11918234Y-17151426D01*
X11927758Y-17132379D01*
X11937282Y-17103807D01*
X11946805Y-17056188D01*
X11946805Y-17018093D01*
X11937282Y-16970474D01*
X11927758Y-16941903D01*
X11918234Y-16922855D01*
X11899186Y-16894283D01*
X11889663Y-16884760D01*
X12251567Y-17189522D02*
X12242044Y-17179998D01*
X12222996Y-17151426D01*
X12213472Y-17132379D01*
X12203948Y-17103807D01*
X12194424Y-17056188D01*
X12194424Y-17018093D01*
X12203948Y-16970474D01*
X12213472Y-16941903D01*
X12222996Y-16922855D01*
X12242044Y-16894283D01*
X12251567Y-16884760D01*
X12327758Y-16979998D02*
X12327758Y-17113331D01*
X12327758Y-16999045D02*
X12337282Y-16989522D01*
X12356329Y-16979998D01*
X12384901Y-16979998D01*
X12403948Y-16989522D01*
X12413472Y-17008569D01*
X12413472Y-17113331D01*
X12537282Y-17113331D02*
X12518234Y-17103807D01*
X12508710Y-17094283D01*
X12499186Y-17075236D01*
X12499186Y-17018093D01*
X12508710Y-16999045D01*
X12518234Y-16989522D01*
X12537282Y-16979998D01*
X12565853Y-16979998D01*
X12584901Y-16989522D01*
X12594424Y-16999045D01*
X12603948Y-17018093D01*
X12603948Y-17075236D01*
X12594424Y-17094283D01*
X12584901Y-17103807D01*
X12565853Y-17113331D01*
X12537282Y-17113331D01*
X12661091Y-16979998D02*
X12737282Y-16979998D01*
X12689663Y-16913331D02*
X12689663Y-17084760D01*
X12699186Y-17103807D01*
X12718234Y-17113331D01*
X12737282Y-17113331D01*
X12956329Y-16979998D02*
X12956329Y-17179998D01*
X12956329Y-16989522D02*
X12975377Y-16979998D01*
X13013472Y-16979998D01*
X13032520Y-16989522D01*
X13042044Y-16999045D01*
X13051567Y-17018093D01*
X13051567Y-17075236D01*
X13042044Y-17094283D01*
X13032520Y-17103807D01*
X13013472Y-17113331D01*
X12975377Y-17113331D01*
X12956329Y-17103807D01*
X13165853Y-17113331D02*
X13146805Y-17103807D01*
X13137282Y-17084760D01*
X13137282Y-16913331D01*
X13327758Y-17113331D02*
X13327758Y-17008569D01*
X13318234Y-16989522D01*
X13299186Y-16979998D01*
X13261091Y-16979998D01*
X13242044Y-16989522D01*
X13327758Y-17103807D02*
X13308710Y-17113331D01*
X13261091Y-17113331D01*
X13242044Y-17103807D01*
X13232520Y-17084760D01*
X13232520Y-17065712D01*
X13242044Y-17046664D01*
X13261091Y-17037141D01*
X13308710Y-17037141D01*
X13327758Y-17027617D01*
X13394424Y-16979998D02*
X13470615Y-16979998D01*
X13422996Y-16913331D02*
X13422996Y-17084760D01*
X13432520Y-17103807D01*
X13451567Y-17113331D01*
X13470615Y-17113331D01*
X13613472Y-17103807D02*
X13594424Y-17113331D01*
X13556329Y-17113331D01*
X13537282Y-17103807D01*
X13527758Y-17084760D01*
X13527758Y-17008569D01*
X13537282Y-16989522D01*
X13556329Y-16979998D01*
X13594424Y-16979998D01*
X13613472Y-16989522D01*
X13622996Y-17008569D01*
X13622996Y-17027617D01*
X13527758Y-17046664D01*
X13794424Y-17113331D02*
X13794424Y-16913331D01*
X13794424Y-17103807D02*
X13775377Y-17113331D01*
X13737282Y-17113331D01*
X13718234Y-17103807D01*
X13708710Y-17094283D01*
X13699186Y-17075236D01*
X13699186Y-17018093D01*
X13708710Y-16999045D01*
X13718234Y-16989522D01*
X13737282Y-16979998D01*
X13775377Y-16979998D01*
X13794424Y-16989522D01*
X13870615Y-17189522D02*
X13880139Y-17179998D01*
X13899186Y-17151426D01*
X13908710Y-17132379D01*
X13918234Y-17103807D01*
X13927758Y-17056188D01*
X13927758Y-17018093D01*
X13918234Y-16970474D01*
X13908710Y-16941903D01*
X13899186Y-16922855D01*
X13880139Y-16894283D01*
X13870615Y-16884760D01*
D14*
X7117758Y-17286855D02*
G75*
G03*
X7117758Y-17286855I-45000J0D01*
G01*
D12*
X7413472Y-17177331D02*
X7432520Y-17177331D01*
X7451567Y-17186855D01*
X7461091Y-17196379D01*
X7470615Y-17215426D01*
X7480139Y-17253522D01*
X7480139Y-17301141D01*
X7470615Y-17339236D01*
X7461091Y-17358283D01*
X7451567Y-17367807D01*
X7432520Y-17377331D01*
X7413472Y-17377331D01*
X7394424Y-17367807D01*
X7384901Y-17358283D01*
X7375377Y-17339236D01*
X7365853Y-17301141D01*
X7365853Y-17253522D01*
X7375377Y-17215426D01*
X7384901Y-17196379D01*
X7394424Y-17186855D01*
X7413472Y-17177331D01*
X7565853Y-17358283D02*
X7575377Y-17367807D01*
X7565853Y-17377331D01*
X7556329Y-17367807D01*
X7565853Y-17358283D01*
X7565853Y-17377331D01*
X7670615Y-17377331D02*
X7708710Y-17377331D01*
X7727758Y-17367807D01*
X7737282Y-17358283D01*
X7756329Y-17329712D01*
X7765853Y-17291617D01*
X7765853Y-17215426D01*
X7756329Y-17196379D01*
X7746805Y-17186855D01*
X7727758Y-17177331D01*
X7689663Y-17177331D01*
X7670615Y-17186855D01*
X7661091Y-17196379D01*
X7651567Y-17215426D01*
X7651567Y-17263045D01*
X7661091Y-17282093D01*
X7670615Y-17291617D01*
X7689663Y-17301141D01*
X7727758Y-17301141D01*
X7746805Y-17291617D01*
X7756329Y-17282093D01*
X7765853Y-17263045D01*
X7889663Y-17177331D02*
X7908710Y-17177331D01*
X7927758Y-17186855D01*
X7937282Y-17196379D01*
X7946805Y-17215426D01*
X7956329Y-17253522D01*
X7956329Y-17301141D01*
X7946805Y-17339236D01*
X7937282Y-17358283D01*
X7927758Y-17367807D01*
X7908710Y-17377331D01*
X7889663Y-17377331D01*
X7870615Y-17367807D01*
X7861091Y-17358283D01*
X7851567Y-17339236D01*
X7842044Y-17301141D01*
X7842044Y-17253522D01*
X7851567Y-17215426D01*
X7861091Y-17196379D01*
X7870615Y-17186855D01*
X7889663Y-17177331D01*
X8080139Y-17177331D02*
X8099186Y-17177331D01*
X8118234Y-17186855D01*
X8127758Y-17196379D01*
X8137282Y-17215426D01*
X8146805Y-17253522D01*
X8146805Y-17301141D01*
X8137282Y-17339236D01*
X8127758Y-17358283D01*
X8118234Y-17367807D01*
X8099186Y-17377331D01*
X8080139Y-17377331D01*
X8061091Y-17367807D01*
X8051567Y-17358283D01*
X8042044Y-17339236D01*
X8032520Y-17301141D01*
X8032520Y-17253522D01*
X8042044Y-17215426D01*
X8051567Y-17196379D01*
X8061091Y-17186855D01*
X8080139Y-17177331D01*
X8232520Y-17377331D02*
X8232520Y-17243998D01*
X8232520Y-17263045D02*
X8242044Y-17253522D01*
X8261091Y-17243998D01*
X8289663Y-17243998D01*
X8308710Y-17253522D01*
X8318234Y-17272569D01*
X8318234Y-17377331D01*
X8318234Y-17272569D02*
X8327758Y-17253522D01*
X8346805Y-17243998D01*
X8375377Y-17243998D01*
X8394425Y-17253522D01*
X8403948Y-17272569D01*
X8403948Y-17377331D01*
X8499186Y-17377331D02*
X8499186Y-17243998D01*
X8499186Y-17263045D02*
X8508710Y-17253522D01*
X8527758Y-17243998D01*
X8556329Y-17243998D01*
X8575377Y-17253522D01*
X8584901Y-17272569D01*
X8584901Y-17377331D01*
X8584901Y-17272569D02*
X8594425Y-17253522D01*
X8613472Y-17243998D01*
X8642044Y-17243998D01*
X8661091Y-17253522D01*
X8670615Y-17272569D01*
X8670615Y-17377331D01*
X9061091Y-17167807D02*
X8889663Y-17424950D01*
X9318234Y-17177331D02*
X9337282Y-17177331D01*
X9356329Y-17186855D01*
X9365853Y-17196379D01*
X9375377Y-17215426D01*
X9384901Y-17253522D01*
X9384901Y-17301141D01*
X9375377Y-17339236D01*
X9365853Y-17358283D01*
X9356329Y-17367807D01*
X9337282Y-17377331D01*
X9318234Y-17377331D01*
X9299186Y-17367807D01*
X9289663Y-17358283D01*
X9280139Y-17339236D01*
X9270615Y-17301141D01*
X9270615Y-17253522D01*
X9280139Y-17215426D01*
X9289663Y-17196379D01*
X9299186Y-17186855D01*
X9318234Y-17177331D01*
X9470615Y-17358283D02*
X9480139Y-17367807D01*
X9470615Y-17377331D01*
X9461091Y-17367807D01*
X9470615Y-17358283D01*
X9470615Y-17377331D01*
X9603948Y-17177331D02*
X9622996Y-17177331D01*
X9642044Y-17186855D01*
X9651567Y-17196379D01*
X9661091Y-17215426D01*
X9670615Y-17253522D01*
X9670615Y-17301141D01*
X9661091Y-17339236D01*
X9651567Y-17358283D01*
X9642044Y-17367807D01*
X9622996Y-17377331D01*
X9603948Y-17377331D01*
X9584901Y-17367807D01*
X9575377Y-17358283D01*
X9565853Y-17339236D01*
X9556329Y-17301141D01*
X9556329Y-17253522D01*
X9565853Y-17215426D01*
X9575377Y-17196379D01*
X9584901Y-17186855D01*
X9603948Y-17177331D01*
X9737282Y-17177331D02*
X9861091Y-17177331D01*
X9794425Y-17253522D01*
X9822996Y-17253522D01*
X9842044Y-17263045D01*
X9851567Y-17272569D01*
X9861091Y-17291617D01*
X9861091Y-17339236D01*
X9851567Y-17358283D01*
X9842044Y-17367807D01*
X9822996Y-17377331D01*
X9765853Y-17377331D01*
X9746806Y-17367807D01*
X9737282Y-17358283D01*
X10042044Y-17177331D02*
X9946806Y-17177331D01*
X9937282Y-17272569D01*
X9946806Y-17263045D01*
X9965853Y-17253522D01*
X10013472Y-17253522D01*
X10032520Y-17263045D01*
X10042044Y-17272569D01*
X10051567Y-17291617D01*
X10051567Y-17339236D01*
X10042044Y-17358283D01*
X10032520Y-17367807D01*
X10013472Y-17377331D01*
X9965853Y-17377331D01*
X9946806Y-17367807D01*
X9937282Y-17358283D01*
X10222996Y-17243998D02*
X10222996Y-17377331D01*
X10175377Y-17167807D02*
X10127758Y-17310664D01*
X10251567Y-17310664D01*
X10318234Y-17177331D02*
X10318234Y-17215426D01*
X10394425Y-17177331D02*
X10394425Y-17215426D01*
X10689663Y-17453522D02*
X10680139Y-17443998D01*
X10661091Y-17415426D01*
X10651567Y-17396379D01*
X10642044Y-17367807D01*
X10632520Y-17320188D01*
X10632520Y-17282093D01*
X10642044Y-17234474D01*
X10651567Y-17205903D01*
X10661091Y-17186855D01*
X10680139Y-17158283D01*
X10689663Y-17148760D01*
X10756329Y-17196379D02*
X10765853Y-17186855D01*
X10784901Y-17177331D01*
X10832520Y-17177331D01*
X10851567Y-17186855D01*
X10861091Y-17196379D01*
X10870615Y-17215426D01*
X10870615Y-17234474D01*
X10861091Y-17263045D01*
X10746806Y-17377331D01*
X10870615Y-17377331D01*
X11108710Y-17377331D02*
X11108710Y-17177331D01*
X11194424Y-17377331D02*
X11194424Y-17272569D01*
X11184901Y-17253522D01*
X11165853Y-17243998D01*
X11137282Y-17243998D01*
X11118234Y-17253522D01*
X11108710Y-17263045D01*
X11318234Y-17377331D02*
X11299186Y-17367807D01*
X11289663Y-17358283D01*
X11280139Y-17339236D01*
X11280139Y-17282093D01*
X11289663Y-17263045D01*
X11299186Y-17253522D01*
X11318234Y-17243998D01*
X11346805Y-17243998D01*
X11365853Y-17253522D01*
X11375377Y-17263045D01*
X11384901Y-17282093D01*
X11384901Y-17339236D01*
X11375377Y-17358283D01*
X11365853Y-17367807D01*
X11346805Y-17377331D01*
X11318234Y-17377331D01*
X11499186Y-17377331D02*
X11480139Y-17367807D01*
X11470615Y-17348760D01*
X11470615Y-17177331D01*
X11651567Y-17367807D02*
X11632520Y-17377331D01*
X11594424Y-17377331D01*
X11575377Y-17367807D01*
X11565853Y-17348760D01*
X11565853Y-17272569D01*
X11575377Y-17253522D01*
X11594424Y-17243998D01*
X11632520Y-17243998D01*
X11651567Y-17253522D01*
X11661091Y-17272569D01*
X11661091Y-17291617D01*
X11565853Y-17310664D01*
X11737282Y-17367807D02*
X11756329Y-17377331D01*
X11794424Y-17377331D01*
X11813472Y-17367807D01*
X11822996Y-17348760D01*
X11822996Y-17339236D01*
X11813472Y-17320188D01*
X11794424Y-17310664D01*
X11765853Y-17310664D01*
X11746805Y-17301141D01*
X11737282Y-17282093D01*
X11737282Y-17272569D01*
X11746805Y-17253522D01*
X11765853Y-17243998D01*
X11794424Y-17243998D01*
X11813472Y-17253522D01*
X11889663Y-17453522D02*
X11899186Y-17443998D01*
X11918234Y-17415426D01*
X11927758Y-17396379D01*
X11937282Y-17367807D01*
X11946805Y-17320188D01*
X11946805Y-17282093D01*
X11937282Y-17234474D01*
X11927758Y-17205903D01*
X11918234Y-17186855D01*
X11899186Y-17158283D01*
X11889663Y-17148760D01*
X12251567Y-17453522D02*
X12242044Y-17443998D01*
X12222996Y-17415426D01*
X12213472Y-17396379D01*
X12203948Y-17367807D01*
X12194424Y-17320188D01*
X12194424Y-17282093D01*
X12203948Y-17234474D01*
X12213472Y-17205903D01*
X12222996Y-17186855D01*
X12242044Y-17158283D01*
X12251567Y-17148760D01*
X12327758Y-17243998D02*
X12327758Y-17377331D01*
X12327758Y-17263045D02*
X12337282Y-17253522D01*
X12356329Y-17243998D01*
X12384901Y-17243998D01*
X12403948Y-17253522D01*
X12413472Y-17272569D01*
X12413472Y-17377331D01*
X12537282Y-17377331D02*
X12518234Y-17367807D01*
X12508710Y-17358283D01*
X12499186Y-17339236D01*
X12499186Y-17282093D01*
X12508710Y-17263045D01*
X12518234Y-17253522D01*
X12537282Y-17243998D01*
X12565853Y-17243998D01*
X12584901Y-17253522D01*
X12594424Y-17263045D01*
X12603948Y-17282093D01*
X12603948Y-17339236D01*
X12594424Y-17358283D01*
X12584901Y-17367807D01*
X12565853Y-17377331D01*
X12537282Y-17377331D01*
X12661091Y-17243998D02*
X12737282Y-17243998D01*
X12689663Y-17177331D02*
X12689663Y-17348760D01*
X12699186Y-17367807D01*
X12718234Y-17377331D01*
X12737282Y-17377331D01*
X12956329Y-17243998D02*
X12956329Y-17443998D01*
X12956329Y-17253522D02*
X12975377Y-17243998D01*
X13013472Y-17243998D01*
X13032520Y-17253522D01*
X13042044Y-17263045D01*
X13051567Y-17282093D01*
X13051567Y-17339236D01*
X13042044Y-17358283D01*
X13032520Y-17367807D01*
X13013472Y-17377331D01*
X12975377Y-17377331D01*
X12956329Y-17367807D01*
X13165853Y-17377331D02*
X13146805Y-17367807D01*
X13137282Y-17348760D01*
X13137282Y-17177331D01*
X13327758Y-17377331D02*
X13327758Y-17272569D01*
X13318234Y-17253522D01*
X13299186Y-17243998D01*
X13261091Y-17243998D01*
X13242044Y-17253522D01*
X13327758Y-17367807D02*
X13308710Y-17377331D01*
X13261091Y-17377331D01*
X13242044Y-17367807D01*
X13232520Y-17348760D01*
X13232520Y-17329712D01*
X13242044Y-17310664D01*
X13261091Y-17301141D01*
X13308710Y-17301141D01*
X13327758Y-17291617D01*
X13394424Y-17243998D02*
X13470615Y-17243998D01*
X13422996Y-17177331D02*
X13422996Y-17348760D01*
X13432520Y-17367807D01*
X13451567Y-17377331D01*
X13470615Y-17377331D01*
X13613472Y-17367807D02*
X13594424Y-17377331D01*
X13556329Y-17377331D01*
X13537282Y-17367807D01*
X13527758Y-17348760D01*
X13527758Y-17272569D01*
X13537282Y-17253522D01*
X13556329Y-17243998D01*
X13594424Y-17243998D01*
X13613472Y-17253522D01*
X13622996Y-17272569D01*
X13622996Y-17291617D01*
X13527758Y-17310664D01*
X13794424Y-17377331D02*
X13794424Y-17177331D01*
X13794424Y-17367807D02*
X13775377Y-17377331D01*
X13737282Y-17377331D01*
X13718234Y-17367807D01*
X13708710Y-17358283D01*
X13699186Y-17339236D01*
X13699186Y-17282093D01*
X13708710Y-17263045D01*
X13718234Y-17253522D01*
X13737282Y-17243998D01*
X13775377Y-17243998D01*
X13794424Y-17253522D01*
X13870615Y-17453522D02*
X13880139Y-17443998D01*
X13899186Y-17415426D01*
X13908710Y-17396379D01*
X13918234Y-17367807D01*
X13927758Y-17320188D01*
X13927758Y-17282093D01*
X13918234Y-17234474D01*
X13908710Y-17205903D01*
X13899186Y-17186855D01*
X13880139Y-17158283D01*
X13870615Y-17148760D01*
D15*
X7057758Y-17490855D02*
X7057758Y-17610855D01*
X6997758Y-17550855D02*
X7117758Y-17550855D01*
D12*
X7480139Y-17641331D02*
X7365853Y-17641331D01*
X7422996Y-17641331D02*
X7422996Y-17441331D01*
X7403948Y-17469903D01*
X7384901Y-17488950D01*
X7365853Y-17498474D01*
X7565853Y-17622283D02*
X7575377Y-17631807D01*
X7565853Y-17641331D01*
X7556329Y-17631807D01*
X7565853Y-17622283D01*
X7565853Y-17641331D01*
X7651567Y-17460379D02*
X7661091Y-17450855D01*
X7680139Y-17441331D01*
X7727758Y-17441331D01*
X7746805Y-17450855D01*
X7756329Y-17460379D01*
X7765853Y-17479426D01*
X7765853Y-17498474D01*
X7756329Y-17527045D01*
X7642044Y-17641331D01*
X7765853Y-17641331D01*
X7889663Y-17441331D02*
X7908710Y-17441331D01*
X7927758Y-17450855D01*
X7937282Y-17460379D01*
X7946805Y-17479426D01*
X7956329Y-17517522D01*
X7956329Y-17565141D01*
X7946805Y-17603236D01*
X7937282Y-17622283D01*
X7927758Y-17631807D01*
X7908710Y-17641331D01*
X7889663Y-17641331D01*
X7870615Y-17631807D01*
X7861091Y-17622283D01*
X7851567Y-17603236D01*
X7842044Y-17565141D01*
X7842044Y-17517522D01*
X7851567Y-17479426D01*
X7861091Y-17460379D01*
X7870615Y-17450855D01*
X7889663Y-17441331D01*
X8080139Y-17441331D02*
X8099186Y-17441331D01*
X8118234Y-17450855D01*
X8127758Y-17460379D01*
X8137282Y-17479426D01*
X8146805Y-17517522D01*
X8146805Y-17565141D01*
X8137282Y-17603236D01*
X8127758Y-17622283D01*
X8118234Y-17631807D01*
X8099186Y-17641331D01*
X8080139Y-17641331D01*
X8061091Y-17631807D01*
X8051567Y-17622283D01*
X8042044Y-17603236D01*
X8032520Y-17565141D01*
X8032520Y-17517522D01*
X8042044Y-17479426D01*
X8051567Y-17460379D01*
X8061091Y-17450855D01*
X8080139Y-17441331D01*
X8232520Y-17641331D02*
X8232520Y-17507998D01*
X8232520Y-17527045D02*
X8242044Y-17517522D01*
X8261091Y-17507998D01*
X8289663Y-17507998D01*
X8308710Y-17517522D01*
X8318234Y-17536569D01*
X8318234Y-17641331D01*
X8318234Y-17536569D02*
X8327758Y-17517522D01*
X8346805Y-17507998D01*
X8375377Y-17507998D01*
X8394425Y-17517522D01*
X8403948Y-17536569D01*
X8403948Y-17641331D01*
X8499186Y-17641331D02*
X8499186Y-17507998D01*
X8499186Y-17527045D02*
X8508710Y-17517522D01*
X8527758Y-17507998D01*
X8556329Y-17507998D01*
X8575377Y-17517522D01*
X8584901Y-17536569D01*
X8584901Y-17641331D01*
X8584901Y-17536569D02*
X8594425Y-17517522D01*
X8613472Y-17507998D01*
X8642044Y-17507998D01*
X8661091Y-17517522D01*
X8670615Y-17536569D01*
X8670615Y-17641331D01*
X9061091Y-17431807D02*
X8889663Y-17688950D01*
X9318234Y-17441331D02*
X9337282Y-17441331D01*
X9356329Y-17450855D01*
X9365853Y-17460379D01*
X9375377Y-17479426D01*
X9384901Y-17517522D01*
X9384901Y-17565141D01*
X9375377Y-17603236D01*
X9365853Y-17622283D01*
X9356329Y-17631807D01*
X9337282Y-17641331D01*
X9318234Y-17641331D01*
X9299186Y-17631807D01*
X9289663Y-17622283D01*
X9280139Y-17603236D01*
X9270615Y-17565141D01*
X9270615Y-17517522D01*
X9280139Y-17479426D01*
X9289663Y-17460379D01*
X9299186Y-17450855D01*
X9318234Y-17441331D01*
X9470615Y-17622283D02*
X9480139Y-17631807D01*
X9470615Y-17641331D01*
X9461091Y-17631807D01*
X9470615Y-17622283D01*
X9470615Y-17641331D01*
X9603948Y-17441331D02*
X9622996Y-17441331D01*
X9642044Y-17450855D01*
X9651567Y-17460379D01*
X9661091Y-17479426D01*
X9670615Y-17517522D01*
X9670615Y-17565141D01*
X9661091Y-17603236D01*
X9651567Y-17622283D01*
X9642044Y-17631807D01*
X9622996Y-17641331D01*
X9603948Y-17641331D01*
X9584901Y-17631807D01*
X9575377Y-17622283D01*
X9565853Y-17603236D01*
X9556329Y-17565141D01*
X9556329Y-17517522D01*
X9565853Y-17479426D01*
X9575377Y-17460379D01*
X9584901Y-17450855D01*
X9603948Y-17441331D01*
X9842044Y-17507998D02*
X9842044Y-17641331D01*
X9794425Y-17431807D02*
X9746806Y-17574664D01*
X9870615Y-17574664D01*
X9927758Y-17441331D02*
X10061091Y-17441331D01*
X9975377Y-17641331D01*
X10127758Y-17460379D02*
X10137282Y-17450855D01*
X10156329Y-17441331D01*
X10203948Y-17441331D01*
X10222996Y-17450855D01*
X10232520Y-17460379D01*
X10242044Y-17479426D01*
X10242044Y-17498474D01*
X10232520Y-17527045D01*
X10118234Y-17641331D01*
X10242044Y-17641331D01*
X10318234Y-17441331D02*
X10318234Y-17479426D01*
X10394425Y-17441331D02*
X10394425Y-17479426D01*
X10689663Y-17717522D02*
X10680139Y-17707998D01*
X10661091Y-17679426D01*
X10651567Y-17660379D01*
X10642044Y-17631807D01*
X10632520Y-17584188D01*
X10632520Y-17546093D01*
X10642044Y-17498474D01*
X10651567Y-17469903D01*
X10661091Y-17450855D01*
X10680139Y-17422283D01*
X10689663Y-17412760D01*
X10851567Y-17507998D02*
X10851567Y-17641331D01*
X10803948Y-17431807D02*
X10756329Y-17574664D01*
X10880139Y-17574664D01*
X11108710Y-17641331D02*
X11108710Y-17441331D01*
X11194424Y-17641331D02*
X11194424Y-17536569D01*
X11184901Y-17517522D01*
X11165853Y-17507998D01*
X11137282Y-17507998D01*
X11118234Y-17517522D01*
X11108710Y-17527045D01*
X11318234Y-17641331D02*
X11299186Y-17631807D01*
X11289663Y-17622283D01*
X11280139Y-17603236D01*
X11280139Y-17546093D01*
X11289663Y-17527045D01*
X11299186Y-17517522D01*
X11318234Y-17507998D01*
X11346805Y-17507998D01*
X11365853Y-17517522D01*
X11375377Y-17527045D01*
X11384901Y-17546093D01*
X11384901Y-17603236D01*
X11375377Y-17622283D01*
X11365853Y-17631807D01*
X11346805Y-17641331D01*
X11318234Y-17641331D01*
X11499186Y-17641331D02*
X11480139Y-17631807D01*
X11470615Y-17612760D01*
X11470615Y-17441331D01*
X11651567Y-17631807D02*
X11632520Y-17641331D01*
X11594424Y-17641331D01*
X11575377Y-17631807D01*
X11565853Y-17612760D01*
X11565853Y-17536569D01*
X11575377Y-17517522D01*
X11594424Y-17507998D01*
X11632520Y-17507998D01*
X11651567Y-17517522D01*
X11661091Y-17536569D01*
X11661091Y-17555617D01*
X11565853Y-17574664D01*
X11737282Y-17631807D02*
X11756329Y-17641331D01*
X11794424Y-17641331D01*
X11813472Y-17631807D01*
X11822996Y-17612760D01*
X11822996Y-17603236D01*
X11813472Y-17584188D01*
X11794424Y-17574664D01*
X11765853Y-17574664D01*
X11746805Y-17565141D01*
X11737282Y-17546093D01*
X11737282Y-17536569D01*
X11746805Y-17517522D01*
X11765853Y-17507998D01*
X11794424Y-17507998D01*
X11813472Y-17517522D01*
X11889663Y-17717522D02*
X11899186Y-17707998D01*
X11918234Y-17679426D01*
X11927758Y-17660379D01*
X11937282Y-17631807D01*
X11946805Y-17584188D01*
X11946805Y-17546093D01*
X11937282Y-17498474D01*
X11927758Y-17469903D01*
X11918234Y-17450855D01*
X11899186Y-17422283D01*
X11889663Y-17412760D01*
X12251567Y-17717522D02*
X12242044Y-17707998D01*
X12222996Y-17679426D01*
X12213472Y-17660379D01*
X12203948Y-17631807D01*
X12194424Y-17584188D01*
X12194424Y-17546093D01*
X12203948Y-17498474D01*
X12213472Y-17469903D01*
X12222996Y-17450855D01*
X12242044Y-17422283D01*
X12251567Y-17412760D01*
X12327758Y-17507998D02*
X12327758Y-17641331D01*
X12327758Y-17527045D02*
X12337282Y-17517522D01*
X12356329Y-17507998D01*
X12384901Y-17507998D01*
X12403948Y-17517522D01*
X12413472Y-17536569D01*
X12413472Y-17641331D01*
X12537282Y-17641331D02*
X12518234Y-17631807D01*
X12508710Y-17622283D01*
X12499186Y-17603236D01*
X12499186Y-17546093D01*
X12508710Y-17527045D01*
X12518234Y-17517522D01*
X12537282Y-17507998D01*
X12565853Y-17507998D01*
X12584901Y-17517522D01*
X12594424Y-17527045D01*
X12603948Y-17546093D01*
X12603948Y-17603236D01*
X12594424Y-17622283D01*
X12584901Y-17631807D01*
X12565853Y-17641331D01*
X12537282Y-17641331D01*
X12661091Y-17507998D02*
X12737282Y-17507998D01*
X12689663Y-17441331D02*
X12689663Y-17612760D01*
X12699186Y-17631807D01*
X12718234Y-17641331D01*
X12737282Y-17641331D01*
X12956329Y-17507998D02*
X12956329Y-17707998D01*
X12956329Y-17517522D02*
X12975377Y-17507998D01*
X13013472Y-17507998D01*
X13032520Y-17517522D01*
X13042044Y-17527045D01*
X13051567Y-17546093D01*
X13051567Y-17603236D01*
X13042044Y-17622283D01*
X13032520Y-17631807D01*
X13013472Y-17641331D01*
X12975377Y-17641331D01*
X12956329Y-17631807D01*
X13165853Y-17641331D02*
X13146805Y-17631807D01*
X13137282Y-17612760D01*
X13137282Y-17441331D01*
X13327758Y-17641331D02*
X13327758Y-17536569D01*
X13318234Y-17517522D01*
X13299186Y-17507998D01*
X13261091Y-17507998D01*
X13242044Y-17517522D01*
X13327758Y-17631807D02*
X13308710Y-17641331D01*
X13261091Y-17641331D01*
X13242044Y-17631807D01*
X13232520Y-17612760D01*
X13232520Y-17593712D01*
X13242044Y-17574664D01*
X13261091Y-17565141D01*
X13308710Y-17565141D01*
X13327758Y-17555617D01*
X13394424Y-17507998D02*
X13470615Y-17507998D01*
X13422996Y-17441331D02*
X13422996Y-17612760D01*
X13432520Y-17631807D01*
X13451567Y-17641331D01*
X13470615Y-17641331D01*
X13613472Y-17631807D02*
X13594424Y-17641331D01*
X13556329Y-17641331D01*
X13537282Y-17631807D01*
X13527758Y-17612760D01*
X13527758Y-17536569D01*
X13537282Y-17517522D01*
X13556329Y-17507998D01*
X13594424Y-17507998D01*
X13613472Y-17517522D01*
X13622996Y-17536569D01*
X13622996Y-17555617D01*
X13527758Y-17574664D01*
X13794424Y-17641331D02*
X13794424Y-17441331D01*
X13794424Y-17631807D02*
X13775377Y-17641331D01*
X13737282Y-17641331D01*
X13718234Y-17631807D01*
X13708710Y-17622283D01*
X13699186Y-17603236D01*
X13699186Y-17546093D01*
X13708710Y-17527045D01*
X13718234Y-17517522D01*
X13737282Y-17507998D01*
X13775377Y-17507998D01*
X13794424Y-17517522D01*
X13870615Y-17717522D02*
X13880139Y-17707998D01*
X13899186Y-17679426D01*
X13908710Y-17660379D01*
X13918234Y-17631807D01*
X13927758Y-17584188D01*
X13927758Y-17546093D01*
X13918234Y-17498474D01*
X13908710Y-17469903D01*
X13899186Y-17450855D01*
X13880139Y-17422283D01*
X13870615Y-17412760D01*
X7088469Y-17885566D02*
X7088469Y-17744144D01*
X6947046Y-17744144D01*
X6947046Y-17885566D01*
X7088469Y-17885566D01*
X7365853Y-17724379D02*
X7375377Y-17714855D01*
X7394424Y-17705331D01*
X7442044Y-17705331D01*
X7461091Y-17714855D01*
X7470615Y-17724379D01*
X7480139Y-17743426D01*
X7480139Y-17762474D01*
X7470615Y-17791045D01*
X7356329Y-17905331D01*
X7480139Y-17905331D01*
X7565853Y-17886283D02*
X7575377Y-17895807D01*
X7565853Y-17905331D01*
X7556329Y-17895807D01*
X7565853Y-17886283D01*
X7565853Y-17905331D01*
X7651567Y-17724379D02*
X7661091Y-17714855D01*
X7680139Y-17705331D01*
X7727758Y-17705331D01*
X7746805Y-17714855D01*
X7756329Y-17724379D01*
X7765853Y-17743426D01*
X7765853Y-17762474D01*
X7756329Y-17791045D01*
X7642044Y-17905331D01*
X7765853Y-17905331D01*
X7889663Y-17705331D02*
X7908710Y-17705331D01*
X7927758Y-17714855D01*
X7937282Y-17724379D01*
X7946805Y-17743426D01*
X7956329Y-17781522D01*
X7956329Y-17829141D01*
X7946805Y-17867236D01*
X7937282Y-17886283D01*
X7927758Y-17895807D01*
X7908710Y-17905331D01*
X7889663Y-17905331D01*
X7870615Y-17895807D01*
X7861091Y-17886283D01*
X7851567Y-17867236D01*
X7842044Y-17829141D01*
X7842044Y-17781522D01*
X7851567Y-17743426D01*
X7861091Y-17724379D01*
X7870615Y-17714855D01*
X7889663Y-17705331D01*
X8080139Y-17705331D02*
X8099186Y-17705331D01*
X8118234Y-17714855D01*
X8127758Y-17724379D01*
X8137282Y-17743426D01*
X8146805Y-17781522D01*
X8146805Y-17829141D01*
X8137282Y-17867236D01*
X8127758Y-17886283D01*
X8118234Y-17895807D01*
X8099186Y-17905331D01*
X8080139Y-17905331D01*
X8061091Y-17895807D01*
X8051567Y-17886283D01*
X8042044Y-17867236D01*
X8032520Y-17829141D01*
X8032520Y-17781522D01*
X8042044Y-17743426D01*
X8051567Y-17724379D01*
X8061091Y-17714855D01*
X8080139Y-17705331D01*
X8232520Y-17905331D02*
X8232520Y-17771998D01*
X8232520Y-17791045D02*
X8242044Y-17781522D01*
X8261091Y-17771998D01*
X8289663Y-17771998D01*
X8308710Y-17781522D01*
X8318234Y-17800569D01*
X8318234Y-17905331D01*
X8318234Y-17800569D02*
X8327758Y-17781522D01*
X8346805Y-17771998D01*
X8375377Y-17771998D01*
X8394425Y-17781522D01*
X8403948Y-17800569D01*
X8403948Y-17905331D01*
X8499186Y-17905331D02*
X8499186Y-17771998D01*
X8499186Y-17791045D02*
X8508710Y-17781522D01*
X8527758Y-17771998D01*
X8556329Y-17771998D01*
X8575377Y-17781522D01*
X8584901Y-17800569D01*
X8584901Y-17905331D01*
X8584901Y-17800569D02*
X8594425Y-17781522D01*
X8613472Y-17771998D01*
X8642044Y-17771998D01*
X8661091Y-17781522D01*
X8670615Y-17800569D01*
X8670615Y-17905331D01*
X9061091Y-17695807D02*
X8889663Y-17952950D01*
X9318234Y-17705331D02*
X9337282Y-17705331D01*
X9356329Y-17714855D01*
X9365853Y-17724379D01*
X9375377Y-17743426D01*
X9384901Y-17781522D01*
X9384901Y-17829141D01*
X9375377Y-17867236D01*
X9365853Y-17886283D01*
X9356329Y-17895807D01*
X9337282Y-17905331D01*
X9318234Y-17905331D01*
X9299186Y-17895807D01*
X9289663Y-17886283D01*
X9280139Y-17867236D01*
X9270615Y-17829141D01*
X9270615Y-17781522D01*
X9280139Y-17743426D01*
X9289663Y-17724379D01*
X9299186Y-17714855D01*
X9318234Y-17705331D01*
X9470615Y-17886283D02*
X9480139Y-17895807D01*
X9470615Y-17905331D01*
X9461091Y-17895807D01*
X9470615Y-17886283D01*
X9470615Y-17905331D01*
X9603948Y-17705331D02*
X9622996Y-17705331D01*
X9642044Y-17714855D01*
X9651567Y-17724379D01*
X9661091Y-17743426D01*
X9670615Y-17781522D01*
X9670615Y-17829141D01*
X9661091Y-17867236D01*
X9651567Y-17886283D01*
X9642044Y-17895807D01*
X9622996Y-17905331D01*
X9603948Y-17905331D01*
X9584901Y-17895807D01*
X9575377Y-17886283D01*
X9565853Y-17867236D01*
X9556329Y-17829141D01*
X9556329Y-17781522D01*
X9565853Y-17743426D01*
X9575377Y-17724379D01*
X9584901Y-17714855D01*
X9603948Y-17705331D01*
X9784901Y-17791045D02*
X9765853Y-17781522D01*
X9756329Y-17771998D01*
X9746806Y-17752950D01*
X9746806Y-17743426D01*
X9756329Y-17724379D01*
X9765853Y-17714855D01*
X9784901Y-17705331D01*
X9822996Y-17705331D01*
X9842044Y-17714855D01*
X9851567Y-17724379D01*
X9861091Y-17743426D01*
X9861091Y-17752950D01*
X9851567Y-17771998D01*
X9842044Y-17781522D01*
X9822996Y-17791045D01*
X9784901Y-17791045D01*
X9765853Y-17800569D01*
X9756329Y-17810093D01*
X9746806Y-17829141D01*
X9746806Y-17867236D01*
X9756329Y-17886283D01*
X9765853Y-17895807D01*
X9784901Y-17905331D01*
X9822996Y-17905331D01*
X9842044Y-17895807D01*
X9851567Y-17886283D01*
X9861091Y-17867236D01*
X9861091Y-17829141D01*
X9851567Y-17810093D01*
X9842044Y-17800569D01*
X9822996Y-17791045D01*
X10032520Y-17705331D02*
X9994425Y-17705331D01*
X9975377Y-17714855D01*
X9965853Y-17724379D01*
X9946806Y-17752950D01*
X9937282Y-17791045D01*
X9937282Y-17867236D01*
X9946806Y-17886283D01*
X9956329Y-17895807D01*
X9975377Y-17905331D01*
X10013472Y-17905331D01*
X10032520Y-17895807D01*
X10042044Y-17886283D01*
X10051567Y-17867236D01*
X10051567Y-17819617D01*
X10042044Y-17800569D01*
X10032520Y-17791045D01*
X10013472Y-17781522D01*
X9975377Y-17781522D01*
X9956329Y-17791045D01*
X9946806Y-17800569D01*
X9937282Y-17819617D01*
X10222996Y-17705331D02*
X10184901Y-17705331D01*
X10165853Y-17714855D01*
X10156329Y-17724379D01*
X10137282Y-17752950D01*
X10127758Y-17791045D01*
X10127758Y-17867236D01*
X10137282Y-17886283D01*
X10146806Y-17895807D01*
X10165853Y-17905331D01*
X10203948Y-17905331D01*
X10222996Y-17895807D01*
X10232520Y-17886283D01*
X10242044Y-17867236D01*
X10242044Y-17819617D01*
X10232520Y-17800569D01*
X10222996Y-17791045D01*
X10203948Y-17781522D01*
X10165853Y-17781522D01*
X10146806Y-17791045D01*
X10137282Y-17800569D01*
X10127758Y-17819617D01*
X10318234Y-17705331D02*
X10318234Y-17743426D01*
X10394425Y-17705331D02*
X10394425Y-17743426D01*
X10689663Y-17981522D02*
X10680139Y-17971998D01*
X10661091Y-17943426D01*
X10651567Y-17924379D01*
X10642044Y-17895807D01*
X10632520Y-17848188D01*
X10632520Y-17810093D01*
X10642044Y-17762474D01*
X10651567Y-17733903D01*
X10661091Y-17714855D01*
X10680139Y-17686283D01*
X10689663Y-17676760D01*
X10870615Y-17905331D02*
X10756329Y-17905331D01*
X10813472Y-17905331D02*
X10813472Y-17705331D01*
X10794425Y-17733903D01*
X10775377Y-17752950D01*
X10756329Y-17762474D01*
X11108710Y-17905331D02*
X11108710Y-17705331D01*
X11194424Y-17905331D02*
X11194424Y-17800569D01*
X11184901Y-17781522D01*
X11165853Y-17771998D01*
X11137282Y-17771998D01*
X11118234Y-17781522D01*
X11108710Y-17791045D01*
X11318234Y-17905331D02*
X11299186Y-17895807D01*
X11289663Y-17886283D01*
X11280139Y-17867236D01*
X11280139Y-17810093D01*
X11289663Y-17791045D01*
X11299186Y-17781522D01*
X11318234Y-17771998D01*
X11346805Y-17771998D01*
X11365853Y-17781522D01*
X11375377Y-17791045D01*
X11384901Y-17810093D01*
X11384901Y-17867236D01*
X11375377Y-17886283D01*
X11365853Y-17895807D01*
X11346805Y-17905331D01*
X11318234Y-17905331D01*
X11499186Y-17905331D02*
X11480139Y-17895807D01*
X11470615Y-17876760D01*
X11470615Y-17705331D01*
X11651567Y-17895807D02*
X11632520Y-17905331D01*
X11594424Y-17905331D01*
X11575377Y-17895807D01*
X11565853Y-17876760D01*
X11565853Y-17800569D01*
X11575377Y-17781522D01*
X11594424Y-17771998D01*
X11632520Y-17771998D01*
X11651567Y-17781522D01*
X11661091Y-17800569D01*
X11661091Y-17819617D01*
X11565853Y-17838664D01*
X11727758Y-17981522D02*
X11737282Y-17971998D01*
X11756329Y-17943426D01*
X11765853Y-17924379D01*
X11775377Y-17895807D01*
X11784901Y-17848188D01*
X11784901Y-17810093D01*
X11775377Y-17762474D01*
X11765853Y-17733903D01*
X11756329Y-17714855D01*
X11737282Y-17686283D01*
X11727758Y-17676760D01*
X12089663Y-17981522D02*
X12080139Y-17971998D01*
X12061091Y-17943426D01*
X12051567Y-17924379D01*
X12042044Y-17895807D01*
X12032520Y-17848188D01*
X12032520Y-17810093D01*
X12042044Y-17762474D01*
X12051567Y-17733903D01*
X12061091Y-17714855D01*
X12080139Y-17686283D01*
X12089663Y-17676760D01*
X12165853Y-17771998D02*
X12165853Y-17905331D01*
X12165853Y-17791045D02*
X12175377Y-17781522D01*
X12194424Y-17771998D01*
X12222996Y-17771998D01*
X12242044Y-17781522D01*
X12251567Y-17800569D01*
X12251567Y-17905331D01*
X12375377Y-17905331D02*
X12356329Y-17895807D01*
X12346805Y-17886283D01*
X12337282Y-17867236D01*
X12337282Y-17810093D01*
X12346805Y-17791045D01*
X12356329Y-17781522D01*
X12375377Y-17771998D01*
X12403948Y-17771998D01*
X12422996Y-17781522D01*
X12432520Y-17791045D01*
X12442044Y-17810093D01*
X12442044Y-17867236D01*
X12432520Y-17886283D01*
X12422996Y-17895807D01*
X12403948Y-17905331D01*
X12375377Y-17905331D01*
X12499186Y-17771998D02*
X12575377Y-17771998D01*
X12527758Y-17705331D02*
X12527758Y-17876760D01*
X12537282Y-17895807D01*
X12556329Y-17905331D01*
X12575377Y-17905331D01*
X12794424Y-17771998D02*
X12794424Y-17971998D01*
X12794424Y-17781522D02*
X12813472Y-17771998D01*
X12851567Y-17771998D01*
X12870615Y-17781522D01*
X12880139Y-17791045D01*
X12889663Y-17810093D01*
X12889663Y-17867236D01*
X12880139Y-17886283D01*
X12870615Y-17895807D01*
X12851567Y-17905331D01*
X12813472Y-17905331D01*
X12794424Y-17895807D01*
X13003948Y-17905331D02*
X12984901Y-17895807D01*
X12975377Y-17876760D01*
X12975377Y-17705331D01*
X13165853Y-17905331D02*
X13165853Y-17800569D01*
X13156329Y-17781522D01*
X13137282Y-17771998D01*
X13099186Y-17771998D01*
X13080139Y-17781522D01*
X13165853Y-17895807D02*
X13146805Y-17905331D01*
X13099186Y-17905331D01*
X13080139Y-17895807D01*
X13070615Y-17876760D01*
X13070615Y-17857712D01*
X13080139Y-17838664D01*
X13099186Y-17829141D01*
X13146805Y-17829141D01*
X13165853Y-17819617D01*
X13232520Y-17771998D02*
X13308710Y-17771998D01*
X13261091Y-17705331D02*
X13261091Y-17876760D01*
X13270615Y-17895807D01*
X13289663Y-17905331D01*
X13308710Y-17905331D01*
X13451567Y-17895807D02*
X13432520Y-17905331D01*
X13394424Y-17905331D01*
X13375377Y-17895807D01*
X13365853Y-17876760D01*
X13365853Y-17800569D01*
X13375377Y-17781522D01*
X13394424Y-17771998D01*
X13432520Y-17771998D01*
X13451567Y-17781522D01*
X13461091Y-17800569D01*
X13461091Y-17819617D01*
X13365853Y-17838664D01*
X13632520Y-17905331D02*
X13632520Y-17705331D01*
X13632520Y-17895807D02*
X13613472Y-17905331D01*
X13575377Y-17905331D01*
X13556329Y-17895807D01*
X13546805Y-17886283D01*
X13537282Y-17867236D01*
X13537282Y-17810093D01*
X13546805Y-17791045D01*
X13556329Y-17781522D01*
X13575377Y-17771998D01*
X13613472Y-17771998D01*
X13632520Y-17781522D01*
X13708710Y-17981522D02*
X13718234Y-17971998D01*
X13737282Y-17943426D01*
X13746805Y-17924379D01*
X13756329Y-17895807D01*
X13765853Y-17848188D01*
X13765853Y-17810093D01*
X13756329Y-17762474D01*
X13746805Y-17733903D01*
X13737282Y-17714855D01*
X13718234Y-17686283D01*
X13708710Y-17676760D01*
X7017758Y-18234855D02*
X7117758Y-18134855D01*
X7017758Y-18034855D01*
X6917758Y-18134855D01*
X7017758Y-18234855D01*
X7356329Y-18025331D02*
X7480139Y-18025331D01*
X7413472Y-18101522D01*
X7442044Y-18101522D01*
X7461091Y-18111045D01*
X7470615Y-18120569D01*
X7480139Y-18139617D01*
X7480139Y-18187236D01*
X7470615Y-18206283D01*
X7461091Y-18215807D01*
X7442044Y-18225331D01*
X7384901Y-18225331D01*
X7365853Y-18215807D01*
X7356329Y-18206283D01*
X7565853Y-18206283D02*
X7575377Y-18215807D01*
X7565853Y-18225331D01*
X7556329Y-18215807D01*
X7565853Y-18206283D01*
X7565853Y-18225331D01*
X7651567Y-18044379D02*
X7661091Y-18034855D01*
X7680139Y-18025331D01*
X7727758Y-18025331D01*
X7746805Y-18034855D01*
X7756329Y-18044379D01*
X7765853Y-18063426D01*
X7765853Y-18082474D01*
X7756329Y-18111045D01*
X7642044Y-18225331D01*
X7765853Y-18225331D01*
X7889663Y-18025331D02*
X7908710Y-18025331D01*
X7927758Y-18034855D01*
X7937282Y-18044379D01*
X7946805Y-18063426D01*
X7956329Y-18101522D01*
X7956329Y-18149141D01*
X7946805Y-18187236D01*
X7937282Y-18206283D01*
X7927758Y-18215807D01*
X7908710Y-18225331D01*
X7889663Y-18225331D01*
X7870615Y-18215807D01*
X7861091Y-18206283D01*
X7851567Y-18187236D01*
X7842044Y-18149141D01*
X7842044Y-18101522D01*
X7851567Y-18063426D01*
X7861091Y-18044379D01*
X7870615Y-18034855D01*
X7889663Y-18025331D01*
X8080139Y-18025331D02*
X8099186Y-18025331D01*
X8118234Y-18034855D01*
X8127758Y-18044379D01*
X8137282Y-18063426D01*
X8146805Y-18101522D01*
X8146805Y-18149141D01*
X8137282Y-18187236D01*
X8127758Y-18206283D01*
X8118234Y-18215807D01*
X8099186Y-18225331D01*
X8080139Y-18225331D01*
X8061091Y-18215807D01*
X8051567Y-18206283D01*
X8042044Y-18187236D01*
X8032520Y-18149141D01*
X8032520Y-18101522D01*
X8042044Y-18063426D01*
X8051567Y-18044379D01*
X8061091Y-18034855D01*
X8080139Y-18025331D01*
X8232520Y-18225331D02*
X8232520Y-18091998D01*
X8232520Y-18111045D02*
X8242044Y-18101522D01*
X8261091Y-18091998D01*
X8289663Y-18091998D01*
X8308710Y-18101522D01*
X8318234Y-18120569D01*
X8318234Y-18225331D01*
X8318234Y-18120569D02*
X8327758Y-18101522D01*
X8346805Y-18091998D01*
X8375377Y-18091998D01*
X8394425Y-18101522D01*
X8403948Y-18120569D01*
X8403948Y-18225331D01*
X8499186Y-18225331D02*
X8499186Y-18091998D01*
X8499186Y-18111045D02*
X8508710Y-18101522D01*
X8527758Y-18091998D01*
X8556329Y-18091998D01*
X8575377Y-18101522D01*
X8584901Y-18120569D01*
X8584901Y-18225331D01*
X8584901Y-18120569D02*
X8594425Y-18101522D01*
X8613472Y-18091998D01*
X8642044Y-18091998D01*
X8661091Y-18101522D01*
X8670615Y-18120569D01*
X8670615Y-18225331D01*
X9061091Y-18015807D02*
X8889663Y-18272950D01*
X9318234Y-18025331D02*
X9337282Y-18025331D01*
X9356329Y-18034855D01*
X9365853Y-18044379D01*
X9375377Y-18063426D01*
X9384901Y-18101522D01*
X9384901Y-18149141D01*
X9375377Y-18187236D01*
X9365853Y-18206283D01*
X9356329Y-18215807D01*
X9337282Y-18225331D01*
X9318234Y-18225331D01*
X9299186Y-18215807D01*
X9289663Y-18206283D01*
X9280139Y-18187236D01*
X9270615Y-18149141D01*
X9270615Y-18101522D01*
X9280139Y-18063426D01*
X9289663Y-18044379D01*
X9299186Y-18034855D01*
X9318234Y-18025331D01*
X9470615Y-18206283D02*
X9480139Y-18215807D01*
X9470615Y-18225331D01*
X9461091Y-18215807D01*
X9470615Y-18206283D01*
X9470615Y-18225331D01*
X9670615Y-18225331D02*
X9556329Y-18225331D01*
X9613472Y-18225331D02*
X9613472Y-18025331D01*
X9594425Y-18053903D01*
X9575377Y-18072950D01*
X9556329Y-18082474D01*
X9746806Y-18044379D02*
X9756329Y-18034855D01*
X9775377Y-18025331D01*
X9822996Y-18025331D01*
X9842044Y-18034855D01*
X9851567Y-18044379D01*
X9861091Y-18063426D01*
X9861091Y-18082474D01*
X9851567Y-18111045D01*
X9737282Y-18225331D01*
X9861091Y-18225331D01*
X10032520Y-18025331D02*
X9994425Y-18025331D01*
X9975377Y-18034855D01*
X9965853Y-18044379D01*
X9946806Y-18072950D01*
X9937282Y-18111045D01*
X9937282Y-18187236D01*
X9946806Y-18206283D01*
X9956329Y-18215807D01*
X9975377Y-18225331D01*
X10013472Y-18225331D01*
X10032520Y-18215807D01*
X10042044Y-18206283D01*
X10051567Y-18187236D01*
X10051567Y-18139617D01*
X10042044Y-18120569D01*
X10032520Y-18111045D01*
X10013472Y-18101522D01*
X9975377Y-18101522D01*
X9956329Y-18111045D01*
X9946806Y-18120569D01*
X9937282Y-18139617D01*
X10175377Y-18025331D02*
X10194425Y-18025331D01*
X10213472Y-18034855D01*
X10222996Y-18044379D01*
X10232520Y-18063426D01*
X10242044Y-18101522D01*
X10242044Y-18149141D01*
X10232520Y-18187236D01*
X10222996Y-18206283D01*
X10213472Y-18215807D01*
X10194425Y-18225331D01*
X10175377Y-18225331D01*
X10156329Y-18215807D01*
X10146806Y-18206283D01*
X10137282Y-18187236D01*
X10127758Y-18149141D01*
X10127758Y-18101522D01*
X10137282Y-18063426D01*
X10146806Y-18044379D01*
X10156329Y-18034855D01*
X10175377Y-18025331D01*
X10318234Y-18025331D02*
X10318234Y-18063426D01*
X10394425Y-18025331D02*
X10394425Y-18063426D01*
X10689663Y-18301522D02*
X10680139Y-18291998D01*
X10661091Y-18263426D01*
X10651567Y-18244379D01*
X10642044Y-18215807D01*
X10632520Y-18168188D01*
X10632520Y-18130093D01*
X10642044Y-18082474D01*
X10651567Y-18053903D01*
X10661091Y-18034855D01*
X10680139Y-18006283D01*
X10689663Y-17996760D01*
X10794425Y-18111045D02*
X10775377Y-18101522D01*
X10765853Y-18091998D01*
X10756329Y-18072950D01*
X10756329Y-18063426D01*
X10765853Y-18044379D01*
X10775377Y-18034855D01*
X10794425Y-18025331D01*
X10832520Y-18025331D01*
X10851567Y-18034855D01*
X10861091Y-18044379D01*
X10870615Y-18063426D01*
X10870615Y-18072950D01*
X10861091Y-18091998D01*
X10851567Y-18101522D01*
X10832520Y-18111045D01*
X10794425Y-18111045D01*
X10775377Y-18120569D01*
X10765853Y-18130093D01*
X10756329Y-18149141D01*
X10756329Y-18187236D01*
X10765853Y-18206283D01*
X10775377Y-18215807D01*
X10794425Y-18225331D01*
X10832520Y-18225331D01*
X10851567Y-18215807D01*
X10861091Y-18206283D01*
X10870615Y-18187236D01*
X10870615Y-18149141D01*
X10861091Y-18130093D01*
X10851567Y-18120569D01*
X10832520Y-18111045D01*
X11108710Y-18225331D02*
X11108710Y-18025331D01*
X11194424Y-18225331D02*
X11194424Y-18120569D01*
X11184901Y-18101522D01*
X11165853Y-18091998D01*
X11137282Y-18091998D01*
X11118234Y-18101522D01*
X11108710Y-18111045D01*
X11318234Y-18225331D02*
X11299186Y-18215807D01*
X11289663Y-18206283D01*
X11280139Y-18187236D01*
X11280139Y-18130093D01*
X11289663Y-18111045D01*
X11299186Y-18101522D01*
X11318234Y-18091998D01*
X11346805Y-18091998D01*
X11365853Y-18101522D01*
X11375377Y-18111045D01*
X11384901Y-18130093D01*
X11384901Y-18187236D01*
X11375377Y-18206283D01*
X11365853Y-18215807D01*
X11346805Y-18225331D01*
X11318234Y-18225331D01*
X11499186Y-18225331D02*
X11480139Y-18215807D01*
X11470615Y-18196760D01*
X11470615Y-18025331D01*
X11651567Y-18215807D02*
X11632520Y-18225331D01*
X11594424Y-18225331D01*
X11575377Y-18215807D01*
X11565853Y-18196760D01*
X11565853Y-18120569D01*
X11575377Y-18101522D01*
X11594424Y-18091998D01*
X11632520Y-18091998D01*
X11651567Y-18101522D01*
X11661091Y-18120569D01*
X11661091Y-18139617D01*
X11565853Y-18158664D01*
X11737282Y-18215807D02*
X11756329Y-18225331D01*
X11794424Y-18225331D01*
X11813472Y-18215807D01*
X11822996Y-18196760D01*
X11822996Y-18187236D01*
X11813472Y-18168188D01*
X11794424Y-18158664D01*
X11765853Y-18158664D01*
X11746805Y-18149141D01*
X11737282Y-18130093D01*
X11737282Y-18120569D01*
X11746805Y-18101522D01*
X11765853Y-18091998D01*
X11794424Y-18091998D01*
X11813472Y-18101522D01*
X11889663Y-18301522D02*
X11899186Y-18291998D01*
X11918234Y-18263426D01*
X11927758Y-18244379D01*
X11937282Y-18215807D01*
X11946805Y-18168188D01*
X11946805Y-18130093D01*
X11937282Y-18082474D01*
X11927758Y-18053903D01*
X11918234Y-18034855D01*
X11899186Y-18006283D01*
X11889663Y-17996760D01*
X12251567Y-18301522D02*
X12242044Y-18291998D01*
X12222996Y-18263426D01*
X12213472Y-18244379D01*
X12203948Y-18215807D01*
X12194424Y-18168188D01*
X12194424Y-18130093D01*
X12203948Y-18082474D01*
X12213472Y-18053903D01*
X12222996Y-18034855D01*
X12242044Y-18006283D01*
X12251567Y-17996760D01*
X12327758Y-18091998D02*
X12327758Y-18225331D01*
X12327758Y-18111045D02*
X12337282Y-18101522D01*
X12356329Y-18091998D01*
X12384901Y-18091998D01*
X12403948Y-18101522D01*
X12413472Y-18120569D01*
X12413472Y-18225331D01*
X12537282Y-18225331D02*
X12518234Y-18215807D01*
X12508710Y-18206283D01*
X12499186Y-18187236D01*
X12499186Y-18130093D01*
X12508710Y-18111045D01*
X12518234Y-18101522D01*
X12537282Y-18091998D01*
X12565853Y-18091998D01*
X12584901Y-18101522D01*
X12594424Y-18111045D01*
X12603948Y-18130093D01*
X12603948Y-18187236D01*
X12594424Y-18206283D01*
X12584901Y-18215807D01*
X12565853Y-18225331D01*
X12537282Y-18225331D01*
X12661091Y-18091998D02*
X12737282Y-18091998D01*
X12689663Y-18025331D02*
X12689663Y-18196760D01*
X12699186Y-18215807D01*
X12718234Y-18225331D01*
X12737282Y-18225331D01*
X12956329Y-18091998D02*
X12956329Y-18291998D01*
X12956329Y-18101522D02*
X12975377Y-18091998D01*
X13013472Y-18091998D01*
X13032520Y-18101522D01*
X13042044Y-18111045D01*
X13051567Y-18130093D01*
X13051567Y-18187236D01*
X13042044Y-18206283D01*
X13032520Y-18215807D01*
X13013472Y-18225331D01*
X12975377Y-18225331D01*
X12956329Y-18215807D01*
X13165853Y-18225331D02*
X13146805Y-18215807D01*
X13137282Y-18196760D01*
X13137282Y-18025331D01*
X13327758Y-18225331D02*
X13327758Y-18120569D01*
X13318234Y-18101522D01*
X13299186Y-18091998D01*
X13261091Y-18091998D01*
X13242044Y-18101522D01*
X13327758Y-18215807D02*
X13308710Y-18225331D01*
X13261091Y-18225331D01*
X13242044Y-18215807D01*
X13232520Y-18196760D01*
X13232520Y-18177712D01*
X13242044Y-18158664D01*
X13261091Y-18149141D01*
X13308710Y-18149141D01*
X13327758Y-18139617D01*
X13394424Y-18091998D02*
X13470615Y-18091998D01*
X13422996Y-18025331D02*
X13422996Y-18196760D01*
X13432520Y-18215807D01*
X13451567Y-18225331D01*
X13470615Y-18225331D01*
X13613472Y-18215807D02*
X13594424Y-18225331D01*
X13556329Y-18225331D01*
X13537282Y-18215807D01*
X13527758Y-18196760D01*
X13527758Y-18120569D01*
X13537282Y-18101522D01*
X13556329Y-18091998D01*
X13594424Y-18091998D01*
X13613472Y-18101522D01*
X13622996Y-18120569D01*
X13622996Y-18139617D01*
X13527758Y-18158664D01*
X13794424Y-18225331D02*
X13794424Y-18025331D01*
X13794424Y-18215807D02*
X13775377Y-18225331D01*
X13737282Y-18225331D01*
X13718234Y-18215807D01*
X13708710Y-18206283D01*
X13699186Y-18187236D01*
X13699186Y-18130093D01*
X13708710Y-18111045D01*
X13718234Y-18101522D01*
X13737282Y-18091998D01*
X13775377Y-18091998D01*
X13794424Y-18101522D01*
X13870615Y-18301522D02*
X13880139Y-18291998D01*
X13899186Y-18263426D01*
X13908710Y-18244379D01*
X13918234Y-18215807D01*
X13927758Y-18168188D01*
X13927758Y-18130093D01*
X13918234Y-18082474D01*
X13908710Y-18053903D01*
X13899186Y-18034855D01*
X13880139Y-18006283D01*
X13870615Y-17996760D01*
X6917758Y-18354855D02*
X7117758Y-18554855D01*
X7117758Y-18354855D02*
X6917758Y-18554855D01*
X7117758Y-18454855D02*
G75*
G03*
X7117758Y-18454855I-100000J0D01*
G01*
X7470615Y-18345331D02*
X7375377Y-18345331D01*
X7365853Y-18440569D01*
X7375377Y-18431045D01*
X7394424Y-18421522D01*
X7442044Y-18421522D01*
X7461091Y-18431045D01*
X7470615Y-18440569D01*
X7480139Y-18459617D01*
X7480139Y-18507236D01*
X7470615Y-18526283D01*
X7461091Y-18535807D01*
X7442044Y-18545331D01*
X7394424Y-18545331D01*
X7375377Y-18535807D01*
X7365853Y-18526283D01*
X7565853Y-18526283D02*
X7575377Y-18535807D01*
X7565853Y-18545331D01*
X7556329Y-18535807D01*
X7565853Y-18526283D01*
X7565853Y-18545331D01*
X7699186Y-18345331D02*
X7718234Y-18345331D01*
X7737282Y-18354855D01*
X7746805Y-18364379D01*
X7756329Y-18383426D01*
X7765853Y-18421522D01*
X7765853Y-18469141D01*
X7756329Y-18507236D01*
X7746805Y-18526283D01*
X7737282Y-18535807D01*
X7718234Y-18545331D01*
X7699186Y-18545331D01*
X7680139Y-18535807D01*
X7670615Y-18526283D01*
X7661091Y-18507236D01*
X7651567Y-18469141D01*
X7651567Y-18421522D01*
X7661091Y-18383426D01*
X7670615Y-18364379D01*
X7680139Y-18354855D01*
X7699186Y-18345331D01*
X7889663Y-18345331D02*
X7908710Y-18345331D01*
X7927758Y-18354855D01*
X7937282Y-18364379D01*
X7946805Y-18383426D01*
X7956329Y-18421522D01*
X7956329Y-18469141D01*
X7946805Y-18507236D01*
X7937282Y-18526283D01*
X7927758Y-18535807D01*
X7908710Y-18545331D01*
X7889663Y-18545331D01*
X7870615Y-18535807D01*
X7861091Y-18526283D01*
X7851567Y-18507236D01*
X7842044Y-18469141D01*
X7842044Y-18421522D01*
X7851567Y-18383426D01*
X7861091Y-18364379D01*
X7870615Y-18354855D01*
X7889663Y-18345331D01*
X8080139Y-18345331D02*
X8099186Y-18345331D01*
X8118234Y-18354855D01*
X8127758Y-18364379D01*
X8137282Y-18383426D01*
X8146805Y-18421522D01*
X8146805Y-18469141D01*
X8137282Y-18507236D01*
X8127758Y-18526283D01*
X8118234Y-18535807D01*
X8099186Y-18545331D01*
X8080139Y-18545331D01*
X8061091Y-18535807D01*
X8051567Y-18526283D01*
X8042044Y-18507236D01*
X8032520Y-18469141D01*
X8032520Y-18421522D01*
X8042044Y-18383426D01*
X8051567Y-18364379D01*
X8061091Y-18354855D01*
X8080139Y-18345331D01*
X8232520Y-18545331D02*
X8232520Y-18411998D01*
X8232520Y-18431045D02*
X8242044Y-18421522D01*
X8261091Y-18411998D01*
X8289663Y-18411998D01*
X8308710Y-18421522D01*
X8318234Y-18440569D01*
X8318234Y-18545331D01*
X8318234Y-18440569D02*
X8327758Y-18421522D01*
X8346805Y-18411998D01*
X8375377Y-18411998D01*
X8394425Y-18421522D01*
X8403948Y-18440569D01*
X8403948Y-18545331D01*
X8499186Y-18545331D02*
X8499186Y-18411998D01*
X8499186Y-18431045D02*
X8508710Y-18421522D01*
X8527758Y-18411998D01*
X8556329Y-18411998D01*
X8575377Y-18421522D01*
X8584901Y-18440569D01*
X8584901Y-18545331D01*
X8584901Y-18440569D02*
X8594425Y-18421522D01*
X8613472Y-18411998D01*
X8642044Y-18411998D01*
X8661091Y-18421522D01*
X8670615Y-18440569D01*
X8670615Y-18545331D01*
X9061091Y-18335807D02*
X8889663Y-18592950D01*
X9318234Y-18345331D02*
X9337282Y-18345331D01*
X9356329Y-18354855D01*
X9365853Y-18364379D01*
X9375377Y-18383426D01*
X9384901Y-18421522D01*
X9384901Y-18469141D01*
X9375377Y-18507236D01*
X9365853Y-18526283D01*
X9356329Y-18535807D01*
X9337282Y-18545331D01*
X9318234Y-18545331D01*
X9299186Y-18535807D01*
X9289663Y-18526283D01*
X9280139Y-18507236D01*
X9270615Y-18469141D01*
X9270615Y-18421522D01*
X9280139Y-18383426D01*
X9289663Y-18364379D01*
X9299186Y-18354855D01*
X9318234Y-18345331D01*
X9470615Y-18526283D02*
X9480139Y-18535807D01*
X9470615Y-18545331D01*
X9461091Y-18535807D01*
X9470615Y-18526283D01*
X9470615Y-18545331D01*
X9670615Y-18545331D02*
X9556329Y-18545331D01*
X9613472Y-18545331D02*
X9613472Y-18345331D01*
X9594425Y-18373903D01*
X9575377Y-18392950D01*
X9556329Y-18402474D01*
X9765853Y-18545331D02*
X9803948Y-18545331D01*
X9822996Y-18535807D01*
X9832520Y-18526283D01*
X9851567Y-18497712D01*
X9861091Y-18459617D01*
X9861091Y-18383426D01*
X9851567Y-18364379D01*
X9842044Y-18354855D01*
X9822996Y-18345331D01*
X9784901Y-18345331D01*
X9765853Y-18354855D01*
X9756329Y-18364379D01*
X9746806Y-18383426D01*
X9746806Y-18431045D01*
X9756329Y-18450093D01*
X9765853Y-18459617D01*
X9784901Y-18469141D01*
X9822996Y-18469141D01*
X9842044Y-18459617D01*
X9851567Y-18450093D01*
X9861091Y-18431045D01*
X10032520Y-18345331D02*
X9994425Y-18345331D01*
X9975377Y-18354855D01*
X9965853Y-18364379D01*
X9946806Y-18392950D01*
X9937282Y-18431045D01*
X9937282Y-18507236D01*
X9946806Y-18526283D01*
X9956329Y-18535807D01*
X9975377Y-18545331D01*
X10013472Y-18545331D01*
X10032520Y-18535807D01*
X10042044Y-18526283D01*
X10051567Y-18507236D01*
X10051567Y-18459617D01*
X10042044Y-18440569D01*
X10032520Y-18431045D01*
X10013472Y-18421522D01*
X9975377Y-18421522D01*
X9956329Y-18431045D01*
X9946806Y-18440569D01*
X9937282Y-18459617D01*
X10146806Y-18545331D02*
X10184901Y-18545331D01*
X10203948Y-18535807D01*
X10213472Y-18526283D01*
X10232520Y-18497712D01*
X10242044Y-18459617D01*
X10242044Y-18383426D01*
X10232520Y-18364379D01*
X10222996Y-18354855D01*
X10203948Y-18345331D01*
X10165853Y-18345331D01*
X10146806Y-18354855D01*
X10137282Y-18364379D01*
X10127758Y-18383426D01*
X10127758Y-18431045D01*
X10137282Y-18450093D01*
X10146806Y-18459617D01*
X10165853Y-18469141D01*
X10203948Y-18469141D01*
X10222996Y-18459617D01*
X10232520Y-18450093D01*
X10242044Y-18431045D01*
X10318234Y-18345331D02*
X10318234Y-18383426D01*
X10394425Y-18345331D02*
X10394425Y-18383426D01*
X10689663Y-18621522D02*
X10680139Y-18611998D01*
X10661091Y-18583426D01*
X10651567Y-18564379D01*
X10642044Y-18535807D01*
X10632520Y-18488188D01*
X10632520Y-18450093D01*
X10642044Y-18402474D01*
X10651567Y-18373903D01*
X10661091Y-18354855D01*
X10680139Y-18326283D01*
X10689663Y-18316760D01*
X10756329Y-18364379D02*
X10765853Y-18354855D01*
X10784901Y-18345331D01*
X10832520Y-18345331D01*
X10851567Y-18354855D01*
X10861091Y-18364379D01*
X10870615Y-18383426D01*
X10870615Y-18402474D01*
X10861091Y-18431045D01*
X10746806Y-18545331D01*
X10870615Y-18545331D01*
X11061091Y-18545331D02*
X10946806Y-18545331D01*
X11003948Y-18545331D02*
X11003948Y-18345331D01*
X10984901Y-18373903D01*
X10965853Y-18392950D01*
X10946806Y-18402474D01*
X11299186Y-18545331D02*
X11299186Y-18345331D01*
X11384901Y-18545331D02*
X11384901Y-18440569D01*
X11375377Y-18421522D01*
X11356329Y-18411998D01*
X11327758Y-18411998D01*
X11308710Y-18421522D01*
X11299186Y-18431045D01*
X11508710Y-18545331D02*
X11489663Y-18535807D01*
X11480139Y-18526283D01*
X11470615Y-18507236D01*
X11470615Y-18450093D01*
X11480139Y-18431045D01*
X11489663Y-18421522D01*
X11508710Y-18411998D01*
X11537282Y-18411998D01*
X11556329Y-18421522D01*
X11565853Y-18431045D01*
X11575377Y-18450093D01*
X11575377Y-18507236D01*
X11565853Y-18526283D01*
X11556329Y-18535807D01*
X11537282Y-18545331D01*
X11508710Y-18545331D01*
X11689663Y-18545331D02*
X11670615Y-18535807D01*
X11661091Y-18516760D01*
X11661091Y-18345331D01*
X11842044Y-18535807D02*
X11822996Y-18545331D01*
X11784901Y-18545331D01*
X11765853Y-18535807D01*
X11756329Y-18516760D01*
X11756329Y-18440569D01*
X11765853Y-18421522D01*
X11784901Y-18411998D01*
X11822996Y-18411998D01*
X11842044Y-18421522D01*
X11851567Y-18440569D01*
X11851567Y-18459617D01*
X11756329Y-18478664D01*
X11927758Y-18535807D02*
X11946805Y-18545331D01*
X11984901Y-18545331D01*
X12003948Y-18535807D01*
X12013472Y-18516760D01*
X12013472Y-18507236D01*
X12003948Y-18488188D01*
X11984901Y-18478664D01*
X11956329Y-18478664D01*
X11937282Y-18469141D01*
X11927758Y-18450093D01*
X11927758Y-18440569D01*
X11937282Y-18421522D01*
X11956329Y-18411998D01*
X11984901Y-18411998D01*
X12003948Y-18421522D01*
X12080139Y-18621522D02*
X12089663Y-18611998D01*
X12108710Y-18583426D01*
X12118234Y-18564379D01*
X12127758Y-18535807D01*
X12137282Y-18488188D01*
X12137282Y-18450093D01*
X12127758Y-18402474D01*
X12118234Y-18373903D01*
X12108710Y-18354855D01*
X12089663Y-18326283D01*
X12080139Y-18316760D01*
X12442044Y-18621522D02*
X12432520Y-18611998D01*
X12413472Y-18583426D01*
X12403948Y-18564379D01*
X12394424Y-18535807D01*
X12384901Y-18488188D01*
X12384901Y-18450093D01*
X12394424Y-18402474D01*
X12403948Y-18373903D01*
X12413472Y-18354855D01*
X12432520Y-18326283D01*
X12442044Y-18316760D01*
X12518234Y-18411998D02*
X12518234Y-18545331D01*
X12518234Y-18431045D02*
X12527758Y-18421522D01*
X12546805Y-18411998D01*
X12575377Y-18411998D01*
X12594424Y-18421522D01*
X12603948Y-18440569D01*
X12603948Y-18545331D01*
X12727758Y-18545331D02*
X12708710Y-18535807D01*
X12699186Y-18526283D01*
X12689663Y-18507236D01*
X12689663Y-18450093D01*
X12699186Y-18431045D01*
X12708710Y-18421522D01*
X12727758Y-18411998D01*
X12756329Y-18411998D01*
X12775377Y-18421522D01*
X12784901Y-18431045D01*
X12794424Y-18450093D01*
X12794424Y-18507236D01*
X12784901Y-18526283D01*
X12775377Y-18535807D01*
X12756329Y-18545331D01*
X12727758Y-18545331D01*
X12851567Y-18411998D02*
X12927758Y-18411998D01*
X12880139Y-18345331D02*
X12880139Y-18516760D01*
X12889663Y-18535807D01*
X12908710Y-18545331D01*
X12927758Y-18545331D01*
X13146805Y-18411998D02*
X13146805Y-18611998D01*
X13146805Y-18421522D02*
X13165853Y-18411998D01*
X13203948Y-18411998D01*
X13222996Y-18421522D01*
X13232520Y-18431045D01*
X13242044Y-18450093D01*
X13242044Y-18507236D01*
X13232520Y-18526283D01*
X13222996Y-18535807D01*
X13203948Y-18545331D01*
X13165853Y-18545331D01*
X13146805Y-18535807D01*
X13356329Y-18545331D02*
X13337282Y-18535807D01*
X13327758Y-18516760D01*
X13327758Y-18345331D01*
X13518234Y-18545331D02*
X13518234Y-18440569D01*
X13508710Y-18421522D01*
X13489663Y-18411998D01*
X13451567Y-18411998D01*
X13432520Y-18421522D01*
X13518234Y-18535807D02*
X13499186Y-18545331D01*
X13451567Y-18545331D01*
X13432520Y-18535807D01*
X13422996Y-18516760D01*
X13422996Y-18497712D01*
X13432520Y-18478664D01*
X13451567Y-18469141D01*
X13499186Y-18469141D01*
X13518234Y-18459617D01*
X13584901Y-18411998D02*
X13661091Y-18411998D01*
X13613472Y-18345331D02*
X13613472Y-18516760D01*
X13622996Y-18535807D01*
X13642044Y-18545331D01*
X13661091Y-18545331D01*
X13803948Y-18535807D02*
X13784901Y-18545331D01*
X13746805Y-18545331D01*
X13727758Y-18535807D01*
X13718234Y-18516760D01*
X13718234Y-18440569D01*
X13727758Y-18421522D01*
X13746805Y-18411998D01*
X13784901Y-18411998D01*
X13803948Y-18421522D01*
X13813472Y-18440569D01*
X13813472Y-18459617D01*
X13718234Y-18478664D01*
X13984901Y-18545331D02*
X13984901Y-18345331D01*
X13984901Y-18535807D02*
X13965853Y-18545331D01*
X13927758Y-18545331D01*
X13908710Y-18535807D01*
X13899186Y-18526283D01*
X13889663Y-18507236D01*
X13889663Y-18450093D01*
X13899186Y-18431045D01*
X13908710Y-18421522D01*
X13927758Y-18411998D01*
X13965853Y-18411998D01*
X13984901Y-18421522D01*
X14061091Y-18621522D02*
X14070615Y-18611998D01*
X14089663Y-18583426D01*
X14099186Y-18564379D01*
X14108710Y-18535807D01*
X14118234Y-18488188D01*
X14118234Y-18450093D01*
X14108710Y-18402474D01*
X14099186Y-18373903D01*
X14089663Y-18354855D01*
X14070615Y-18326283D01*
X14061091Y-18316760D01*
M02*
