M48
; DRILL file {KiCad (6.0.9)} date Wed Dec 21 13:42:32 2022
; FORMAT={-:-/ absolute / metric / decimal}
; #@! TF.CreationDate,2022-12-21T13:42:32-08:00
; #@! TF.GenerationSoftware,Kicad,Pcbnew,(6.0.9)
; #@! TF.FileFunction,NonPlated,1,2,NPTH
FMAT,2
METRIC
; #@! TA.AperFunction,NonPlated,NPTH,ComponentDrill
T1C0.700
; #@! TA.AperFunction,NonPlated,NPTH,ComponentDrill
T2C0.900
; #@! TA.AperFunction,NonPlated,NPTH,ComponentDrill
T3C1.200
; #@! TA.AperFunction,NonPlated,NPTH,ComponentDrill
T4C2.200
; #@! TA.AperFunction,NonPlated,NPTH,ComponentDrill
T5C3.200
; #@! TA.AperFunction,NonPlated,NPTH,ComponentDrill
T6C5.000
%
G90
G05
T1
X82.605Y-61.796
X82.655Y-58.796
T2
X82.664Y-114.905
X82.664Y-119.155
T3
X82.754Y-123.745
X82.754Y-125.495
X89.754Y-123.745
X89.754Y-125.495
T4
X193.604Y-71.42
T5
X83.674Y-52.09
X83.674Y-131.52
X145.754Y-52.09
X167.654Y-84.42
X170.304Y-118.08
X174.504Y-52.09
X181.914Y-118.84
X189.344Y-53.1
T6
X85.726Y-149.264
X102.601Y-136.202
X121.422Y-87.045
X121.422Y-67.973
X121.422Y-106.118
X122.251Y-127.949
X140.415Y-103.118
X140.415Y-64.973
X140.415Y-84.045
X143.365Y-125.068
X159.465Y-55.973
X159.465Y-75.045
X159.465Y-94.118
X178.576Y-104.449
X179.907Y-85.423
X181.237Y-66.397
X196.434Y-118.461
X199.746Y-99.678
X203.058Y-80.895
X216.036Y-116.84
X219.348Y-98.057
T0
M30
