G04 #@! TF.GenerationSoftware,KiCad,Pcbnew,(6.0.8)*
G04 #@! TF.CreationDate,2022-11-27T04:27:55-08:00*
G04 #@! TF.ProjectId,klor1_3,6b6c6f72-315f-4332-9e6b-696361645f70,v1.3.0*
G04 #@! TF.SameCoordinates,Original*
G04 #@! TF.FileFunction,Legend,Bot*
G04 #@! TF.FilePolarity,Positive*
%FSLAX46Y46*%
G04 Gerber Fmt 4.6, Leading zero omitted, Abs format (unit mm)*
G04 Created by KiCad (PCBNEW (6.0.8)) date 2022-11-27 04:27:55*
%MOMM*%
%LPD*%
G01*
G04 APERTURE LIST*
%ADD10C,0.150000*%
%ADD11C,0.127000*%
%ADD12C,0.000000*%
%ADD13C,0.569975*%
%ADD14C,0.100000*%
%ADD15C,0.300000*%
%ADD16C,0.120000*%
%ADD17C,0.200000*%
%ADD18C,1.524000*%
G04 APERTURE END LIST*
D10*
X207728964Y-69120181D02*
X192953965Y-69120181D01*
X192953965Y-57345181D01*
X207728964Y-57345181D01*
X207728964Y-69120181D01*
X83023940Y-65665157D02*
G75*
G03*
X83023940Y-65665157I-494976J0D01*
G01*
D11*
X143395964Y-112808681D02*
X143395964Y-115365681D01*
D10*
X84903964Y-107745181D02*
X84318964Y-107745180D01*
X90851965Y-101729182D02*
X89782964Y-101729180D01*
D12*
G36*
X177835277Y-117516935D02*
G01*
X108575278Y-117516936D01*
X108575277Y-116070341D01*
X177835276Y-116070341D01*
X177835277Y-117516935D01*
G37*
D13*
X82813951Y-55165156D02*
G75*
G03*
X82813951Y-55165156I-284987J0D01*
G01*
D12*
G36*
X138742019Y-103050993D02*
G01*
X117960487Y-103050993D01*
X117960486Y-101604398D01*
X137295425Y-101604414D01*
X137295425Y-49632948D01*
X138742018Y-49632948D01*
X138742019Y-103050993D01*
G37*
D10*
X90884965Y-98368181D02*
X89815965Y-98368181D01*
X84609965Y-108038680D02*
X84609964Y-107453681D01*
X90328964Y-102247180D02*
X90328964Y-101178181D01*
X84913964Y-111370181D02*
X84328964Y-111370180D01*
D12*
G36*
X176141708Y-106826246D02*
G01*
X176141708Y-57324583D01*
X177588298Y-57324583D01*
X177588298Y-110813200D01*
X176494533Y-110813200D01*
X163898596Y-85727187D01*
X151302665Y-110813201D01*
X149679664Y-110813199D01*
X163087096Y-84104178D01*
X149679664Y-57324583D01*
X151302664Y-57324583D01*
X176141708Y-106826246D01*
G37*
D14*
X88394676Y-65923037D02*
X87937534Y-65923037D01*
X87651819Y-65923037D02*
X87194676Y-65923037D01*
X86937534Y-66123037D02*
X86851819Y-66151608D01*
X86708962Y-66151608D01*
X86651819Y-66123037D01*
X86623248Y-66094465D01*
X86594676Y-66037322D01*
X86594676Y-65980180D01*
X86623248Y-65923037D01*
X86651819Y-65894465D01*
X86708962Y-65865894D01*
X86823248Y-65837322D01*
X86880391Y-65808751D01*
X86908962Y-65780180D01*
X86937534Y-65723037D01*
X86937534Y-65665894D01*
X86908962Y-65608751D01*
X86880391Y-65580180D01*
X86823248Y-65551608D01*
X86680391Y-65551608D01*
X86594676Y-65580180D01*
X85994676Y-66094465D02*
X86023248Y-66123037D01*
X86108962Y-66151608D01*
X86166105Y-66151608D01*
X86251819Y-66123037D01*
X86308962Y-66065894D01*
X86337534Y-66008751D01*
X86366105Y-65894465D01*
X86366105Y-65808751D01*
X86337534Y-65694465D01*
X86308962Y-65637322D01*
X86251819Y-65580180D01*
X86166105Y-65551608D01*
X86108962Y-65551608D01*
X86023248Y-65580180D01*
X85994676Y-65608751D01*
X85451819Y-66151608D02*
X85737534Y-66151608D01*
X85737534Y-65551608D01*
D10*
X102044439Y-116963037D02*
X101777772Y-116963037D01*
X101663486Y-117382084D02*
X102044439Y-117382084D01*
X102044439Y-116582084D01*
X101663486Y-116582084D01*
X101320629Y-117382084D02*
X101320629Y-116582084D01*
X100863486Y-117382084D01*
X100863486Y-116582084D01*
X100025391Y-117305894D02*
X100063486Y-117343989D01*
X100177772Y-117382084D01*
X100253963Y-117382084D01*
X100368248Y-117343989D01*
X100444439Y-117267799D01*
X100482534Y-117191608D01*
X100520629Y-117039227D01*
X100520629Y-116924941D01*
X100482534Y-116772560D01*
X100444439Y-116696370D01*
X100368248Y-116620180D01*
X100253963Y-116582084D01*
X100177772Y-116582084D01*
X100063486Y-116620180D01*
X100025391Y-116658275D01*
D14*
X88394676Y-63383038D02*
X87937534Y-63383038D01*
X87651819Y-63383038D02*
X87194676Y-63383038D01*
X86937534Y-63583038D02*
X86851819Y-63611609D01*
X86708962Y-63611609D01*
X86651819Y-63583038D01*
X86623248Y-63554466D01*
X86594676Y-63497323D01*
X86594676Y-63440181D01*
X86623248Y-63383038D01*
X86651819Y-63354466D01*
X86708962Y-63325895D01*
X86823248Y-63297323D01*
X86880391Y-63268752D01*
X86908962Y-63240181D01*
X86937534Y-63183038D01*
X86937534Y-63125895D01*
X86908962Y-63068752D01*
X86880391Y-63040181D01*
X86823248Y-63011609D01*
X86680391Y-63011609D01*
X86594676Y-63040181D01*
X86337534Y-63611609D02*
X86337534Y-63011609D01*
X86194676Y-63011609D01*
X86108962Y-63040181D01*
X86051819Y-63097323D01*
X86023248Y-63154466D01*
X85994676Y-63268752D01*
X85994676Y-63354466D01*
X86023248Y-63468752D01*
X86051819Y-63525895D01*
X86108962Y-63583038D01*
X86194676Y-63611609D01*
X86337534Y-63611609D01*
X85766105Y-63440181D02*
X85480391Y-63440181D01*
X85823248Y-63611609D02*
X85623248Y-63011609D01*
X85423248Y-63611609D01*
X108253249Y-81344466D02*
X108281820Y-81373038D01*
X108367535Y-81401609D01*
X108424677Y-81401609D01*
X108510392Y-81373038D01*
X108567535Y-81315895D01*
X108596106Y-81258752D01*
X108624677Y-81144466D01*
X108624677Y-81058752D01*
X108596106Y-80944466D01*
X108567535Y-80887323D01*
X108510392Y-80830181D01*
X108424677Y-80801609D01*
X108367535Y-80801609D01*
X108281820Y-80830181D01*
X108253249Y-80858752D01*
X107881820Y-80801609D02*
X107767535Y-80801609D01*
X107710392Y-80830181D01*
X107653249Y-80887323D01*
X107624677Y-81001609D01*
X107624677Y-81201609D01*
X107653249Y-81315895D01*
X107710392Y-81373038D01*
X107767535Y-81401609D01*
X107881820Y-81401609D01*
X107938963Y-81373038D01*
X107996106Y-81315895D01*
X108024677Y-81201609D01*
X108024677Y-81001609D01*
X107996106Y-80887323D01*
X107938963Y-80830181D01*
X107881820Y-80801609D01*
X107081820Y-81401609D02*
X107367535Y-81401609D01*
X107367535Y-80801609D01*
X106596106Y-80801609D02*
X106881820Y-80801609D01*
X106910392Y-81087323D01*
X106881820Y-81058752D01*
X106824677Y-81030181D01*
X106681820Y-81030181D01*
X106624677Y-81058752D01*
X106596106Y-81087323D01*
X106567535Y-81144466D01*
X106567535Y-81287323D01*
X106596106Y-81344466D01*
X106624677Y-81373038D01*
X106681820Y-81401609D01*
X106824677Y-81401609D01*
X106881820Y-81373038D01*
X106910392Y-81344466D01*
X106310392Y-81173038D02*
X105853249Y-81173038D01*
X105567535Y-81173038D02*
X105110392Y-81173038D01*
D10*
X86367060Y-119557084D02*
X86633726Y-119176132D01*
X86824203Y-119557084D02*
X86824203Y-118757084D01*
X86519441Y-118757084D01*
X86443250Y-118795180D01*
X86405155Y-118833275D01*
X86367060Y-118909465D01*
X86367060Y-119023751D01*
X86405155Y-119099941D01*
X86443250Y-119138037D01*
X86519441Y-119176132D01*
X86824203Y-119176132D01*
X86062298Y-119518989D02*
X85948012Y-119557084D01*
X85757536Y-119557084D01*
X85681345Y-119518989D01*
X85643250Y-119480894D01*
X85605155Y-119404703D01*
X85605155Y-119328513D01*
X85643250Y-119252322D01*
X85681345Y-119214227D01*
X85757536Y-119176132D01*
X85909917Y-119138037D01*
X85986107Y-119099941D01*
X86024203Y-119061846D01*
X86062298Y-118985656D01*
X86062298Y-118909465D01*
X86024203Y-118833275D01*
X85986107Y-118795180D01*
X85909917Y-118757084D01*
X85719441Y-118757084D01*
X85605155Y-118795180D01*
X85376584Y-118757084D02*
X84919441Y-118757084D01*
X85148012Y-119557084D02*
X85148012Y-118757084D01*
D11*
X144375252Y-111831894D02*
X144121252Y-112593894D01*
X143867252Y-111831894D01*
X143177823Y-112521322D02*
X143214109Y-112557608D01*
X143322966Y-112593894D01*
X143395537Y-112593894D01*
X143504394Y-112557608D01*
X143576966Y-112485037D01*
X143613252Y-112412465D01*
X143649537Y-112267322D01*
X143649537Y-112158465D01*
X143613252Y-112013322D01*
X143576966Y-111940751D01*
X143504394Y-111868180D01*
X143395537Y-111831894D01*
X143322966Y-111831894D01*
X143214109Y-111868180D01*
X143177823Y-111904465D01*
X142415823Y-112521322D02*
X142452109Y-112557608D01*
X142560966Y-112593894D01*
X142633537Y-112593894D01*
X142742394Y-112557608D01*
X142814966Y-112485037D01*
X142851252Y-112412465D01*
X142887537Y-112267322D01*
X142887537Y-112158465D01*
X142851252Y-112013322D01*
X142814966Y-111940751D01*
X142742394Y-111868180D01*
X142633537Y-111831894D01*
X142560966Y-111831894D01*
X142452109Y-111868180D01*
X142415823Y-111904465D01*
X101493909Y-100294609D02*
X101385052Y-100330895D01*
X101203624Y-100330895D01*
X101131052Y-100294609D01*
X101094766Y-100258323D01*
X101058481Y-100185752D01*
X101058481Y-100113181D01*
X101094766Y-100040609D01*
X101131052Y-100004323D01*
X101203624Y-99968038D01*
X101348766Y-99931752D01*
X101421338Y-99895466D01*
X101457624Y-99859181D01*
X101493909Y-99786609D01*
X101493909Y-99714038D01*
X101457624Y-99641466D01*
X101421338Y-99605181D01*
X101348766Y-99568895D01*
X101167338Y-99568895D01*
X101058481Y-99605181D01*
X100731909Y-100330895D02*
X100731909Y-99568895D01*
X100550481Y-99568895D01*
X100441624Y-99605181D01*
X100369052Y-99677752D01*
X100332766Y-99750323D01*
X100296481Y-99895466D01*
X100296481Y-100004323D01*
X100332766Y-100149466D01*
X100369052Y-100222038D01*
X100441624Y-100294609D01*
X100550481Y-100330895D01*
X100731909Y-100330895D01*
X100006195Y-100113181D02*
X99643338Y-100113181D01*
X100078766Y-100330895D02*
X99824766Y-99568895D01*
X99570766Y-100330895D01*
D14*
X88394676Y-78623038D02*
X87937534Y-78623038D01*
X87651819Y-78623038D02*
X87194676Y-78623038D01*
X86566105Y-78851609D02*
X86766105Y-78565895D01*
X86908962Y-78851609D02*
X86908962Y-78251609D01*
X86680391Y-78251609D01*
X86623248Y-78280181D01*
X86594676Y-78308752D01*
X86566105Y-78365895D01*
X86566105Y-78451609D01*
X86594676Y-78508752D01*
X86623248Y-78537323D01*
X86680391Y-78565895D01*
X86908962Y-78565895D01*
X86194676Y-78251609D02*
X86080391Y-78251609D01*
X86023248Y-78280181D01*
X85966105Y-78337323D01*
X85937534Y-78451609D01*
X85937534Y-78651609D01*
X85966105Y-78765895D01*
X86023248Y-78823038D01*
X86080391Y-78851609D01*
X86194676Y-78851609D01*
X86251819Y-78823038D01*
X86308962Y-78765895D01*
X86337534Y-78651609D01*
X86337534Y-78451609D01*
X86308962Y-78337323D01*
X86251819Y-78280181D01*
X86194676Y-78251609D01*
X85737534Y-78251609D02*
X85594676Y-78851609D01*
X85480391Y-78423038D01*
X85366105Y-78851609D01*
X85223248Y-78251609D01*
X85051819Y-78251609D02*
X84680391Y-78251609D01*
X84880391Y-78480181D01*
X84794676Y-78480181D01*
X84737534Y-78508752D01*
X84708962Y-78537323D01*
X84680391Y-78594466D01*
X84680391Y-78737323D01*
X84708962Y-78794466D01*
X84737534Y-78823038D01*
X84794676Y-78851609D01*
X84966105Y-78851609D01*
X85023248Y-78823038D01*
X85051819Y-78794466D01*
D11*
X198876822Y-50728608D02*
X198767965Y-50764894D01*
X198586537Y-50764894D01*
X198513965Y-50728608D01*
X198477679Y-50692322D01*
X198441394Y-50619751D01*
X198441394Y-50547180D01*
X198477679Y-50474608D01*
X198513965Y-50438322D01*
X198586537Y-50402037D01*
X198731679Y-50365751D01*
X198804251Y-50329465D01*
X198840537Y-50293180D01*
X198876822Y-50220608D01*
X198876822Y-50148037D01*
X198840537Y-50075465D01*
X198804251Y-50039180D01*
X198731679Y-50002894D01*
X198550251Y-50002894D01*
X198441394Y-50039180D01*
X198114822Y-50764894D02*
X198114822Y-50002894D01*
X197933394Y-50002894D01*
X197824537Y-50039180D01*
X197751965Y-50111751D01*
X197715679Y-50184322D01*
X197679394Y-50329465D01*
X197679394Y-50438322D01*
X197715679Y-50583465D01*
X197751965Y-50656037D01*
X197824537Y-50728608D01*
X197933394Y-50764894D01*
X198114822Y-50764894D01*
X197389108Y-50547180D02*
X197026251Y-50547180D01*
X197461679Y-50764894D02*
X197207679Y-50002894D01*
X196953679Y-50764894D01*
X96484625Y-99618895D02*
X96230625Y-100380895D01*
X95976625Y-99618895D01*
X95287196Y-100308323D02*
X95323482Y-100344609D01*
X95432339Y-100380895D01*
X95504910Y-100380895D01*
X95613767Y-100344609D01*
X95686339Y-100272038D01*
X95722625Y-100199466D01*
X95758910Y-100054323D01*
X95758910Y-99945466D01*
X95722625Y-99800323D01*
X95686339Y-99727752D01*
X95613767Y-99655181D01*
X95504910Y-99618895D01*
X95432339Y-99618895D01*
X95323482Y-99655181D01*
X95287196Y-99691466D01*
X94525196Y-100308323D02*
X94561482Y-100344609D01*
X94670339Y-100380895D01*
X94742910Y-100380895D01*
X94851767Y-100344609D01*
X94924339Y-100272038D01*
X94960625Y-100199466D01*
X94996910Y-100054323D01*
X94996910Y-99945466D01*
X94960625Y-99800323D01*
X94924339Y-99727752D01*
X94851767Y-99655181D01*
X94742910Y-99618895D01*
X94670339Y-99618895D01*
X94561482Y-99655181D01*
X94525196Y-99691466D01*
X201347392Y-50728609D02*
X201238535Y-50764895D01*
X201057107Y-50764895D01*
X200984535Y-50728609D01*
X200948250Y-50692323D01*
X200911964Y-50619752D01*
X200911964Y-50547181D01*
X200948250Y-50474609D01*
X200984535Y-50438323D01*
X201057107Y-50402038D01*
X201202250Y-50365752D01*
X201274821Y-50329466D01*
X201311107Y-50293181D01*
X201347392Y-50220609D01*
X201347392Y-50148038D01*
X201311107Y-50075466D01*
X201274821Y-50039181D01*
X201202250Y-50002895D01*
X201020821Y-50002895D01*
X200911964Y-50039181D01*
X200149964Y-50692323D02*
X200186250Y-50728609D01*
X200295107Y-50764895D01*
X200367678Y-50764895D01*
X200476535Y-50728609D01*
X200549107Y-50656038D01*
X200585392Y-50583466D01*
X200621678Y-50438323D01*
X200621678Y-50329466D01*
X200585392Y-50184323D01*
X200549107Y-50111752D01*
X200476535Y-50039181D01*
X200367678Y-50002895D01*
X200295107Y-50002895D01*
X200186250Y-50039181D01*
X200149964Y-50075466D01*
X199460535Y-50764895D02*
X199823392Y-50764895D01*
X199823392Y-50002895D01*
D14*
X108253248Y-78804466D02*
X108281819Y-78833038D01*
X108367534Y-78861609D01*
X108424676Y-78861609D01*
X108510391Y-78833038D01*
X108567534Y-78775895D01*
X108596105Y-78718752D01*
X108624676Y-78604466D01*
X108624676Y-78518752D01*
X108596105Y-78404466D01*
X108567534Y-78347323D01*
X108510391Y-78290181D01*
X108424676Y-78261609D01*
X108367534Y-78261609D01*
X108281819Y-78290181D01*
X108253248Y-78318752D01*
X107881819Y-78261609D02*
X107767534Y-78261609D01*
X107710391Y-78290181D01*
X107653248Y-78347323D01*
X107624676Y-78461609D01*
X107624676Y-78661609D01*
X107653248Y-78775895D01*
X107710391Y-78833038D01*
X107767534Y-78861609D01*
X107881819Y-78861609D01*
X107938962Y-78833038D01*
X107996105Y-78775895D01*
X108024676Y-78661609D01*
X108024676Y-78461609D01*
X107996105Y-78347323D01*
X107938962Y-78290181D01*
X107881819Y-78261609D01*
X107081819Y-78861609D02*
X107367534Y-78861609D01*
X107367534Y-78261609D01*
X106624676Y-78461609D02*
X106624676Y-78861609D01*
X106767534Y-78233038D02*
X106910391Y-78661609D01*
X106538962Y-78661609D01*
X106310391Y-78633038D02*
X105853248Y-78633038D01*
X105567534Y-78633038D02*
X105110391Y-78633038D01*
X108258248Y-71184464D02*
X108286819Y-71213036D01*
X108372534Y-71241607D01*
X108429676Y-71241607D01*
X108515391Y-71213036D01*
X108572534Y-71155893D01*
X108601105Y-71098750D01*
X108629676Y-70984464D01*
X108629676Y-70898750D01*
X108601105Y-70784464D01*
X108572534Y-70727321D01*
X108515391Y-70670179D01*
X108429676Y-70641607D01*
X108372534Y-70641607D01*
X108286819Y-70670179D01*
X108258248Y-70698750D01*
X107886819Y-70641607D02*
X107772534Y-70641607D01*
X107715391Y-70670179D01*
X107658248Y-70727321D01*
X107629676Y-70841607D01*
X107629676Y-71041607D01*
X107658248Y-71155893D01*
X107715391Y-71213036D01*
X107772534Y-71241607D01*
X107886819Y-71241607D01*
X107943962Y-71213036D01*
X108001105Y-71155893D01*
X108029676Y-71041607D01*
X108029676Y-70841607D01*
X108001105Y-70727321D01*
X107943962Y-70670179D01*
X107886819Y-70641607D01*
X107086819Y-71241607D02*
X107372534Y-71241607D01*
X107372534Y-70641607D01*
X106572534Y-71241607D02*
X106915391Y-71241607D01*
X106743962Y-71241607D02*
X106743962Y-70641607D01*
X106801105Y-70727321D01*
X106858248Y-70784464D01*
X106915391Y-70813036D01*
X106315391Y-71013036D02*
X105858248Y-71013036D01*
X105572534Y-71013036D02*
X105115391Y-71013036D01*
D10*
X159105035Y-107263038D02*
X158990749Y-107301133D01*
X158952654Y-107339228D01*
X158914559Y-107415419D01*
X158914559Y-107529704D01*
X158952654Y-107605895D01*
X158990749Y-107643990D01*
X159066940Y-107682085D01*
X159371702Y-107682085D01*
X159371702Y-106882085D01*
X159105035Y-106882085D01*
X159028844Y-106920181D01*
X158990749Y-106958276D01*
X158952654Y-107034466D01*
X158952654Y-107110657D01*
X158990749Y-107186847D01*
X159028844Y-107224942D01*
X159105035Y-107263038D01*
X159371702Y-107263038D01*
X158571702Y-106882085D02*
X158571702Y-107529704D01*
X158533606Y-107605895D01*
X158495511Y-107643990D01*
X158419321Y-107682085D01*
X158266940Y-107682085D01*
X158190749Y-107643990D01*
X158152654Y-107605895D01*
X158114559Y-107529704D01*
X158114559Y-106882085D01*
X157809797Y-106882085D02*
X157276464Y-106882085D01*
X157809797Y-107682085D01*
X157276464Y-107682085D01*
X157047892Y-106882085D02*
X156514559Y-106882085D01*
X157047892Y-107682085D01*
X156514559Y-107682085D01*
X156209797Y-107263038D02*
X155943130Y-107263038D01*
X155828844Y-107682085D02*
X156209797Y-107682085D01*
X156209797Y-106882085D01*
X155828844Y-106882085D01*
X155028844Y-107682085D02*
X155295511Y-107301133D01*
X155485987Y-107682085D02*
X155485987Y-106882085D01*
X155181225Y-106882085D01*
X155105035Y-106920181D01*
X155066940Y-106958276D01*
X155028844Y-107034466D01*
X155028844Y-107148752D01*
X155066940Y-107224942D01*
X155105035Y-107263038D01*
X155181225Y-107301133D01*
X155485987Y-107301133D01*
D14*
X109053249Y-63307324D02*
X108853249Y-63307324D01*
X108767535Y-63621610D02*
X109053249Y-63621610D01*
X109053249Y-63021610D01*
X108767535Y-63021610D01*
X108510392Y-63621610D02*
X108510392Y-63021610D01*
X108167535Y-63621610D01*
X108167535Y-63021610D01*
X107538963Y-63564467D02*
X107567535Y-63593039D01*
X107653249Y-63621610D01*
X107710392Y-63621610D01*
X107796106Y-63593039D01*
X107853249Y-63535896D01*
X107881820Y-63478753D01*
X107910392Y-63364467D01*
X107910392Y-63278753D01*
X107881820Y-63164467D01*
X107853249Y-63107324D01*
X107796106Y-63050182D01*
X107710392Y-63021610D01*
X107653249Y-63021610D01*
X107567535Y-63050182D01*
X107538963Y-63078753D01*
X106853249Y-63450182D02*
X106567535Y-63450182D01*
X106910392Y-63621610D02*
X106710392Y-63021610D01*
X106510392Y-63621610D01*
X106310392Y-63393039D02*
X105853249Y-63393039D01*
X105567535Y-63393039D02*
X105110392Y-63393039D01*
X88394678Y-71003038D02*
X87937536Y-71003038D01*
X87651821Y-71003038D02*
X87194678Y-71003038D01*
X86566107Y-71231609D02*
X86766107Y-70945895D01*
X86908964Y-71231609D02*
X86908964Y-70631609D01*
X86680393Y-70631609D01*
X86623250Y-70660181D01*
X86594678Y-70688752D01*
X86566107Y-70745895D01*
X86566107Y-70831609D01*
X86594678Y-70888752D01*
X86623250Y-70917323D01*
X86680393Y-70945895D01*
X86908964Y-70945895D01*
X86194678Y-70631609D02*
X86080393Y-70631609D01*
X86023250Y-70660181D01*
X85966107Y-70717323D01*
X85937536Y-70831609D01*
X85937536Y-71031609D01*
X85966107Y-71145895D01*
X86023250Y-71203038D01*
X86080393Y-71231609D01*
X86194678Y-71231609D01*
X86251821Y-71203038D01*
X86308964Y-71145895D01*
X86337536Y-71031609D01*
X86337536Y-70831609D01*
X86308964Y-70717323D01*
X86251821Y-70660181D01*
X86194678Y-70631609D01*
X85737536Y-70631609D02*
X85594678Y-71231609D01*
X85480393Y-70803038D01*
X85366107Y-71231609D01*
X85223250Y-70631609D01*
X84880393Y-70631609D02*
X84823250Y-70631609D01*
X84766107Y-70660181D01*
X84737536Y-70688752D01*
X84708964Y-70745895D01*
X84680393Y-70860181D01*
X84680393Y-71003038D01*
X84708964Y-71117323D01*
X84737536Y-71174466D01*
X84766107Y-71203038D01*
X84823250Y-71231609D01*
X84880393Y-71231609D01*
X84937536Y-71203038D01*
X84966107Y-71174466D01*
X84994678Y-71117323D01*
X85023250Y-71003038D01*
X85023250Y-70860181D01*
X84994678Y-70745895D01*
X84966107Y-70688752D01*
X84937536Y-70660181D01*
X84880393Y-70631609D01*
D10*
X90888608Y-99427323D02*
X90802894Y-99455895D01*
X90774323Y-99484466D01*
X90745751Y-99541609D01*
X90745751Y-99627323D01*
X90774323Y-99684466D01*
X90802894Y-99713038D01*
X90860037Y-99741609D01*
X91088608Y-99741609D01*
X91088608Y-99141609D01*
X90888608Y-99141609D01*
X90831466Y-99170181D01*
X90802894Y-99198752D01*
X90774323Y-99255895D01*
X90774323Y-99313038D01*
X90802894Y-99370181D01*
X90831466Y-99398752D01*
X90888608Y-99427323D01*
X91088608Y-99427323D01*
X90202894Y-99741609D02*
X90488608Y-99741609D01*
X90488608Y-99141609D01*
X90002894Y-99741609D02*
X90002894Y-99141609D01*
X89660037Y-99741609D02*
X89917180Y-99398752D01*
X89660037Y-99141609D02*
X90002894Y-99484466D01*
D14*
X107596105Y-58541608D02*
X107796105Y-58255894D01*
X107938962Y-58541608D02*
X107938962Y-57941608D01*
X107710391Y-57941608D01*
X107653248Y-57970180D01*
X107624676Y-57998751D01*
X107596105Y-58055894D01*
X107596105Y-58141608D01*
X107624676Y-58198751D01*
X107653248Y-58227322D01*
X107710391Y-58255894D01*
X107938962Y-58255894D01*
X107367534Y-58513037D02*
X107281819Y-58541608D01*
X107138962Y-58541608D01*
X107081819Y-58513037D01*
X107053248Y-58484465D01*
X107024676Y-58427322D01*
X107024676Y-58370180D01*
X107053248Y-58313037D01*
X107081819Y-58284465D01*
X107138962Y-58255894D01*
X107253248Y-58227322D01*
X107310391Y-58198751D01*
X107338962Y-58170180D01*
X107367534Y-58113037D01*
X107367534Y-58055894D01*
X107338962Y-57998751D01*
X107310391Y-57970180D01*
X107253248Y-57941608D01*
X107110391Y-57941608D01*
X107024676Y-57970180D01*
X106853248Y-57941608D02*
X106510391Y-57941608D01*
X106681819Y-58541608D02*
X106681819Y-57941608D01*
X106310391Y-58313037D02*
X105853248Y-58313037D01*
X105567534Y-58313037D02*
X105110391Y-58313037D01*
X108253249Y-68644466D02*
X108281820Y-68673038D01*
X108367535Y-68701609D01*
X108424677Y-68701609D01*
X108510392Y-68673038D01*
X108567535Y-68615895D01*
X108596106Y-68558752D01*
X108624677Y-68444466D01*
X108624677Y-68358752D01*
X108596106Y-68244466D01*
X108567535Y-68187323D01*
X108510392Y-68130181D01*
X108424677Y-68101609D01*
X108367535Y-68101609D01*
X108281820Y-68130181D01*
X108253249Y-68158752D01*
X107881820Y-68101609D02*
X107767535Y-68101609D01*
X107710392Y-68130181D01*
X107653249Y-68187323D01*
X107624677Y-68301609D01*
X107624677Y-68501609D01*
X107653249Y-68615895D01*
X107710392Y-68673038D01*
X107767535Y-68701609D01*
X107881820Y-68701609D01*
X107938963Y-68673038D01*
X107996106Y-68615895D01*
X108024677Y-68501609D01*
X108024677Y-68301609D01*
X107996106Y-68187323D01*
X107938963Y-68130181D01*
X107881820Y-68101609D01*
X107081820Y-68701609D02*
X107367535Y-68701609D01*
X107367535Y-68101609D01*
X106767535Y-68101609D02*
X106710392Y-68101609D01*
X106653249Y-68130181D01*
X106624677Y-68158752D01*
X106596106Y-68215895D01*
X106567535Y-68330181D01*
X106567535Y-68473038D01*
X106596106Y-68587323D01*
X106624677Y-68644466D01*
X106653249Y-68673038D01*
X106710392Y-68701609D01*
X106767535Y-68701609D01*
X106824677Y-68673038D01*
X106853249Y-68644466D01*
X106881820Y-68587323D01*
X106910392Y-68473038D01*
X106910392Y-68330181D01*
X106881820Y-68215895D01*
X106853249Y-68158752D01*
X106824677Y-68130181D01*
X106767535Y-68101609D01*
X106310392Y-68473038D02*
X105853249Y-68473038D01*
X105567535Y-68473038D02*
X105110392Y-68473038D01*
D10*
X97561059Y-74632203D02*
X98361059Y-74632203D01*
X97789630Y-74365537D01*
X98361059Y-74098870D01*
X97561059Y-74098870D01*
X98361059Y-73565537D02*
X98361059Y-73413156D01*
X98322964Y-73336965D01*
X98246773Y-73260775D01*
X98094392Y-73222680D01*
X97827725Y-73222680D01*
X97675344Y-73260775D01*
X97599154Y-73336965D01*
X97561059Y-73413156D01*
X97561059Y-73565537D01*
X97599154Y-73641727D01*
X97675344Y-73717918D01*
X97827725Y-73756013D01*
X98094392Y-73756013D01*
X98246773Y-73717918D01*
X98322964Y-73641727D01*
X98361059Y-73565537D01*
X98361059Y-72879822D02*
X97713440Y-72879822D01*
X97637249Y-72841727D01*
X97599154Y-72803632D01*
X97561059Y-72727441D01*
X97561059Y-72575060D01*
X97599154Y-72498870D01*
X97637249Y-72460775D01*
X97713440Y-72422680D01*
X98361059Y-72422680D01*
X97561059Y-72041727D02*
X98361059Y-72041727D01*
X97561059Y-71584584D01*
X98361059Y-71584584D01*
X98361059Y-71317918D02*
X98361059Y-70860775D01*
X97561059Y-71089346D02*
X98361059Y-71089346D01*
X97561059Y-69984584D02*
X98361059Y-69984584D01*
X97789630Y-69717918D01*
X98361059Y-69451251D01*
X97561059Y-69451251D01*
X97637249Y-68613156D02*
X97599154Y-68651251D01*
X97561059Y-68765537D01*
X97561059Y-68841727D01*
X97599154Y-68956013D01*
X97675344Y-69032203D01*
X97751535Y-69070299D01*
X97903916Y-69108394D01*
X98018202Y-69108394D01*
X98170583Y-69070299D01*
X98246773Y-69032203D01*
X98322964Y-68956013D01*
X98361059Y-68841727D01*
X98361059Y-68765537D01*
X98322964Y-68651251D01*
X98284868Y-68613156D01*
X98361059Y-68270299D02*
X97713440Y-68270299D01*
X97637249Y-68232203D01*
X97599154Y-68194108D01*
X97561059Y-68117918D01*
X97561059Y-67965537D01*
X97599154Y-67889346D01*
X97637249Y-67851251D01*
X97713440Y-67813156D01*
X98361059Y-67813156D01*
X98361059Y-66670299D02*
X98361059Y-66517918D01*
X98322964Y-66441727D01*
X98246773Y-66365537D01*
X98094392Y-66327441D01*
X97827725Y-66327441D01*
X97675344Y-66365537D01*
X97599154Y-66441727D01*
X97561059Y-66517918D01*
X97561059Y-66670299D01*
X97599154Y-66746489D01*
X97675344Y-66822679D01*
X97827725Y-66860775D01*
X98094392Y-66860775D01*
X98246773Y-66822679D01*
X98322964Y-66746489D01*
X98361059Y-66670299D01*
X97561059Y-65984584D02*
X98361059Y-65984584D01*
X97561059Y-65527441D01*
X98361059Y-65527441D01*
X97980106Y-64270299D02*
X97942011Y-64156013D01*
X97903916Y-64117918D01*
X97827725Y-64079822D01*
X97713440Y-64079822D01*
X97637249Y-64117918D01*
X97599154Y-64156013D01*
X97561059Y-64232203D01*
X97561059Y-64536965D01*
X98361059Y-64536965D01*
X98361059Y-64270299D01*
X98322964Y-64194108D01*
X98284868Y-64156013D01*
X98208678Y-64117918D01*
X98132487Y-64117918D01*
X98056297Y-64156013D01*
X98018202Y-64194108D01*
X97980106Y-64270299D01*
X97980106Y-64536965D01*
X98361059Y-63584584D02*
X98361059Y-63432203D01*
X98322964Y-63356013D01*
X98246773Y-63279822D01*
X98094392Y-63241727D01*
X97827725Y-63241727D01*
X97675344Y-63279822D01*
X97599154Y-63356013D01*
X97561059Y-63432203D01*
X97561059Y-63584584D01*
X97599154Y-63660775D01*
X97675344Y-63736965D01*
X97827725Y-63775060D01*
X98094392Y-63775060D01*
X98246773Y-63736965D01*
X98322964Y-63660775D01*
X98361059Y-63584584D01*
X98361059Y-63013156D02*
X98361059Y-62556013D01*
X97561059Y-62784584D02*
X98361059Y-62784584D01*
X98361059Y-62403632D02*
X98361059Y-61946489D01*
X97561059Y-62175060D02*
X98361059Y-62175060D01*
X98361059Y-61527441D02*
X98361059Y-61375060D01*
X98322964Y-61298870D01*
X98246773Y-61222679D01*
X98094392Y-61184584D01*
X97827725Y-61184584D01*
X97675344Y-61222679D01*
X97599154Y-61298870D01*
X97561059Y-61375060D01*
X97561059Y-61527441D01*
X97599154Y-61603632D01*
X97675344Y-61679822D01*
X97827725Y-61717918D01*
X98094392Y-61717918D01*
X98246773Y-61679822D01*
X98322964Y-61603632D01*
X98361059Y-61527441D01*
X97561059Y-60841727D02*
X98361059Y-60841727D01*
X97789630Y-60575060D01*
X98361059Y-60308394D01*
X97561059Y-60308394D01*
X96349249Y-74175060D02*
X96311154Y-74213156D01*
X96273059Y-74327441D01*
X96273059Y-74403632D01*
X96311154Y-74517918D01*
X96387344Y-74594108D01*
X96463535Y-74632203D01*
X96615916Y-74670299D01*
X96730202Y-74670299D01*
X96882583Y-74632203D01*
X96958773Y-74594108D01*
X97034964Y-74517918D01*
X97073059Y-74403632D01*
X97073059Y-74327441D01*
X97034964Y-74213156D01*
X96996868Y-74175060D01*
X97073059Y-73679822D02*
X97073059Y-73527441D01*
X97034964Y-73451251D01*
X96958773Y-73375060D01*
X96806392Y-73336965D01*
X96539725Y-73336965D01*
X96387344Y-73375060D01*
X96311154Y-73451251D01*
X96273059Y-73527441D01*
X96273059Y-73679822D01*
X96311154Y-73756013D01*
X96387344Y-73832203D01*
X96539725Y-73870299D01*
X96806392Y-73870299D01*
X96958773Y-73832203D01*
X97034964Y-73756013D01*
X97073059Y-73679822D01*
X96273059Y-72994108D02*
X97073059Y-72994108D01*
X96501630Y-72727441D01*
X97073059Y-72460775D01*
X96273059Y-72460775D01*
X96273059Y-72079822D02*
X97073059Y-72079822D01*
X97073059Y-71775060D01*
X97034964Y-71698870D01*
X96996868Y-71660775D01*
X96920678Y-71622680D01*
X96806392Y-71622680D01*
X96730202Y-71660775D01*
X96692106Y-71698870D01*
X96654011Y-71775060D01*
X96654011Y-72079822D01*
X97073059Y-71127441D02*
X97073059Y-70975060D01*
X97034964Y-70898870D01*
X96958773Y-70822680D01*
X96806392Y-70784584D01*
X96539725Y-70784584D01*
X96387344Y-70822680D01*
X96311154Y-70898870D01*
X96273059Y-70975060D01*
X96273059Y-71127441D01*
X96311154Y-71203632D01*
X96387344Y-71279822D01*
X96539725Y-71317918D01*
X96806392Y-71317918D01*
X96958773Y-71279822D01*
X97034964Y-71203632D01*
X97073059Y-71127441D01*
X96273059Y-70441727D02*
X97073059Y-70441727D01*
X96273059Y-69984584D01*
X97073059Y-69984584D01*
X96692106Y-69603632D02*
X96692106Y-69336965D01*
X96273059Y-69222680D02*
X96273059Y-69603632D01*
X97073059Y-69603632D01*
X97073059Y-69222680D01*
X96273059Y-68879822D02*
X97073059Y-68879822D01*
X96273059Y-68422680D01*
X97073059Y-68422680D01*
X97073059Y-68156013D02*
X97073059Y-67698870D01*
X96273059Y-67927441D02*
X97073059Y-67927441D01*
X96311154Y-67470299D02*
X96273059Y-67356013D01*
X96273059Y-67165537D01*
X96311154Y-67089346D01*
X96349249Y-67051251D01*
X96425440Y-67013156D01*
X96501630Y-67013156D01*
X96577821Y-67051251D01*
X96615916Y-67089346D01*
X96654011Y-67165537D01*
X96692106Y-67317918D01*
X96730202Y-67394108D01*
X96768297Y-67432203D01*
X96844487Y-67470299D01*
X96920678Y-67470299D01*
X96996868Y-67432203D01*
X97034964Y-67394108D01*
X97073059Y-67317918D01*
X97073059Y-67127441D01*
X97034964Y-67013156D01*
X96692106Y-65794108D02*
X96692106Y-66060775D01*
X96273059Y-66060775D02*
X97073059Y-66060775D01*
X97073059Y-65679822D01*
X96501630Y-65413156D02*
X96501630Y-65032203D01*
X96273059Y-65489346D02*
X97073059Y-65222680D01*
X96273059Y-64956013D01*
X96349249Y-64232203D02*
X96311154Y-64270299D01*
X96273059Y-64384584D01*
X96273059Y-64460775D01*
X96311154Y-64575060D01*
X96387344Y-64651251D01*
X96463535Y-64689346D01*
X96615916Y-64727441D01*
X96730202Y-64727441D01*
X96882583Y-64689346D01*
X96958773Y-64651251D01*
X97034964Y-64575060D01*
X97073059Y-64460775D01*
X97073059Y-64384584D01*
X97034964Y-64270299D01*
X96996868Y-64232203D01*
X96273059Y-63889346D02*
X97073059Y-63889346D01*
X96273059Y-63508394D02*
X97073059Y-63508394D01*
X96273059Y-63051251D01*
X97073059Y-63051251D01*
X97034964Y-62251251D02*
X97073059Y-62327441D01*
X97073059Y-62441727D01*
X97034964Y-62556013D01*
X96958773Y-62632203D01*
X96882583Y-62670299D01*
X96730202Y-62708394D01*
X96615916Y-62708394D01*
X96463535Y-62670299D01*
X96387344Y-62632203D01*
X96311154Y-62556013D01*
X96273059Y-62441727D01*
X96273059Y-62365537D01*
X96311154Y-62251251D01*
X96349249Y-62213156D01*
X96615916Y-62213156D01*
X96615916Y-62365537D01*
X96273059Y-61260775D02*
X97073059Y-61260775D01*
X97073059Y-60956013D01*
X97034964Y-60879822D01*
X96996868Y-60841727D01*
X96920678Y-60803632D01*
X96806392Y-60803632D01*
X96730202Y-60841727D01*
X96692106Y-60879822D01*
X96654011Y-60956013D01*
X96654011Y-61260775D01*
X96349249Y-60003632D02*
X96311154Y-60041727D01*
X96273059Y-60156013D01*
X96273059Y-60232203D01*
X96311154Y-60346489D01*
X96387344Y-60422680D01*
X96463535Y-60460775D01*
X96615916Y-60498870D01*
X96730202Y-60498870D01*
X96882583Y-60460775D01*
X96958773Y-60422680D01*
X97034964Y-60346489D01*
X97073059Y-60232203D01*
X97073059Y-60156013D01*
X97034964Y-60041727D01*
X96996868Y-60003632D01*
X96692106Y-59394108D02*
X96654011Y-59279822D01*
X96615916Y-59241727D01*
X96539725Y-59203632D01*
X96425440Y-59203632D01*
X96349249Y-59241727D01*
X96311154Y-59279822D01*
X96273059Y-59356013D01*
X96273059Y-59660775D01*
X97073059Y-59660775D01*
X97073059Y-59394108D01*
X97034964Y-59317918D01*
X96996868Y-59279822D01*
X96920678Y-59241727D01*
X96844487Y-59241727D01*
X96768297Y-59279822D01*
X96730202Y-59317918D01*
X96692106Y-59394108D01*
X96692106Y-59660775D01*
D11*
X139711842Y-118328485D02*
X139276414Y-118328485D01*
X139494128Y-119090485D02*
X139494128Y-118328485D01*
X138586985Y-119090485D02*
X138840985Y-118727628D01*
X139022414Y-119090485D02*
X139022414Y-118328485D01*
X138732128Y-118328485D01*
X138659556Y-118364771D01*
X138623271Y-118401056D01*
X138586985Y-118473628D01*
X138586985Y-118582485D01*
X138623271Y-118655056D01*
X138659556Y-118691342D01*
X138732128Y-118727628D01*
X139022414Y-118727628D01*
X138296699Y-118872771D02*
X137933842Y-118872771D01*
X138369271Y-119090485D02*
X138115271Y-118328485D01*
X137861271Y-119090485D01*
X137171842Y-119017913D02*
X137208128Y-119054199D01*
X137316985Y-119090485D01*
X137389556Y-119090485D01*
X137498414Y-119054199D01*
X137570985Y-118981628D01*
X137607271Y-118909056D01*
X137643556Y-118763913D01*
X137643556Y-118655056D01*
X137607271Y-118509913D01*
X137570985Y-118437342D01*
X137498414Y-118364771D01*
X137389556Y-118328485D01*
X137316985Y-118328485D01*
X137208128Y-118364771D01*
X137171842Y-118401056D01*
X136845271Y-119090485D02*
X136845271Y-118328485D01*
X136409842Y-119090485D02*
X136736414Y-118655056D01*
X136409842Y-118328485D02*
X136845271Y-118763913D01*
X139348985Y-119918162D02*
X139240128Y-119954448D01*
X139203842Y-119990733D01*
X139167556Y-120063305D01*
X139167556Y-120172162D01*
X139203842Y-120244733D01*
X139240128Y-120281019D01*
X139312699Y-120317305D01*
X139602985Y-120317305D01*
X139602985Y-119555305D01*
X139348985Y-119555305D01*
X139276414Y-119591591D01*
X139240128Y-119627876D01*
X139203842Y-119700448D01*
X139203842Y-119773019D01*
X139240128Y-119845591D01*
X139276414Y-119881876D01*
X139348985Y-119918162D01*
X139602985Y-119918162D01*
X138877271Y-120099591D02*
X138514414Y-120099591D01*
X138949842Y-120317305D02*
X138695842Y-119555305D01*
X138441842Y-120317305D01*
X137824985Y-120317305D02*
X138187842Y-120317305D01*
X138187842Y-119555305D01*
X137208128Y-120317305D02*
X137570985Y-120317305D01*
X137570985Y-119555305D01*
X98951108Y-100294609D02*
X98842251Y-100330895D01*
X98660823Y-100330895D01*
X98588251Y-100294609D01*
X98551966Y-100258323D01*
X98515680Y-100185752D01*
X98515680Y-100113181D01*
X98551966Y-100040609D01*
X98588251Y-100004323D01*
X98660823Y-99968038D01*
X98805966Y-99931752D01*
X98878537Y-99895466D01*
X98914823Y-99859181D01*
X98951108Y-99786609D01*
X98951108Y-99714038D01*
X98914823Y-99641466D01*
X98878537Y-99605181D01*
X98805966Y-99568895D01*
X98624537Y-99568895D01*
X98515680Y-99605181D01*
X97753680Y-100258323D02*
X97789966Y-100294609D01*
X97898823Y-100330895D01*
X97971394Y-100330895D01*
X98080251Y-100294609D01*
X98152823Y-100222038D01*
X98189108Y-100149466D01*
X98225394Y-100004323D01*
X98225394Y-99895466D01*
X98189108Y-99750323D01*
X98152823Y-99677752D01*
X98080251Y-99605181D01*
X97971394Y-99568895D01*
X97898823Y-99568895D01*
X97789966Y-99605181D01*
X97753680Y-99641466D01*
X97064251Y-100330895D02*
X97427108Y-100330895D01*
X97427108Y-99568895D01*
D14*
X88394677Y-68463038D02*
X87937535Y-68463038D01*
X87651820Y-68463038D02*
X87194677Y-68463038D01*
X86566106Y-68691609D02*
X86766106Y-68405895D01*
X86908963Y-68691609D02*
X86908963Y-68091609D01*
X86680392Y-68091609D01*
X86623249Y-68120181D01*
X86594677Y-68148752D01*
X86566106Y-68205895D01*
X86566106Y-68291609D01*
X86594677Y-68348752D01*
X86623249Y-68377323D01*
X86680392Y-68405895D01*
X86908963Y-68405895D01*
X86366106Y-68091609D02*
X85966106Y-68691609D01*
X85966106Y-68091609D02*
X86366106Y-68691609D01*
D11*
X149339250Y-112557608D02*
X149230393Y-112593894D01*
X149048965Y-112593894D01*
X148976393Y-112557608D01*
X148940107Y-112521322D01*
X148903822Y-112448751D01*
X148903822Y-112376180D01*
X148940107Y-112303608D01*
X148976393Y-112267322D01*
X149048965Y-112231037D01*
X149194107Y-112194751D01*
X149266679Y-112158465D01*
X149302965Y-112122180D01*
X149339250Y-112049608D01*
X149339250Y-111977037D01*
X149302965Y-111904465D01*
X149266679Y-111868180D01*
X149194107Y-111831894D01*
X149012679Y-111831894D01*
X148903822Y-111868180D01*
X148577250Y-112593894D02*
X148577250Y-111831894D01*
X148395822Y-111831894D01*
X148286965Y-111868180D01*
X148214393Y-111940751D01*
X148178107Y-112013322D01*
X148141822Y-112158465D01*
X148141822Y-112267322D01*
X148178107Y-112412465D01*
X148214393Y-112485037D01*
X148286965Y-112557608D01*
X148395822Y-112593894D01*
X148577250Y-112593894D01*
X147851536Y-112376180D02*
X147488679Y-112376180D01*
X147924107Y-112593894D02*
X147670107Y-111831894D01*
X147416107Y-112593894D01*
D10*
X83749203Y-109513038D02*
X83634917Y-109551133D01*
X83596822Y-109589228D01*
X83558726Y-109665419D01*
X83558726Y-109779704D01*
X83596822Y-109855895D01*
X83634917Y-109893990D01*
X83711107Y-109932085D01*
X84015869Y-109932085D01*
X84015869Y-109132085D01*
X83749203Y-109132085D01*
X83673012Y-109170181D01*
X83634917Y-109208276D01*
X83596822Y-109284466D01*
X83596822Y-109360657D01*
X83634917Y-109436847D01*
X83673012Y-109474942D01*
X83749203Y-109513038D01*
X84015869Y-109513038D01*
X83253965Y-109703514D02*
X82873012Y-109703514D01*
X83330155Y-109932085D02*
X83063488Y-109132085D01*
X82796822Y-109932085D01*
X82644441Y-109132085D02*
X82187298Y-109132085D01*
X82415869Y-109932085D02*
X82415869Y-109132085D01*
X82034917Y-109132085D02*
X81577774Y-109132085D01*
X81806345Y-109932085D02*
X81806345Y-109132085D01*
D14*
X108253249Y-73724466D02*
X108281820Y-73753038D01*
X108367535Y-73781609D01*
X108424677Y-73781609D01*
X108510392Y-73753038D01*
X108567535Y-73695895D01*
X108596106Y-73638752D01*
X108624677Y-73524466D01*
X108624677Y-73438752D01*
X108596106Y-73324466D01*
X108567535Y-73267323D01*
X108510392Y-73210181D01*
X108424677Y-73181609D01*
X108367535Y-73181609D01*
X108281820Y-73210181D01*
X108253249Y-73238752D01*
X107881820Y-73181609D02*
X107767535Y-73181609D01*
X107710392Y-73210181D01*
X107653249Y-73267323D01*
X107624677Y-73381609D01*
X107624677Y-73581609D01*
X107653249Y-73695895D01*
X107710392Y-73753038D01*
X107767535Y-73781609D01*
X107881820Y-73781609D01*
X107938963Y-73753038D01*
X107996106Y-73695895D01*
X108024677Y-73581609D01*
X108024677Y-73381609D01*
X107996106Y-73267323D01*
X107938963Y-73210181D01*
X107881820Y-73181609D01*
X107081820Y-73781609D02*
X107367535Y-73781609D01*
X107367535Y-73181609D01*
X106910392Y-73238752D02*
X106881820Y-73210181D01*
X106824677Y-73181609D01*
X106681820Y-73181609D01*
X106624677Y-73210181D01*
X106596106Y-73238752D01*
X106567535Y-73295895D01*
X106567535Y-73353038D01*
X106596106Y-73438752D01*
X106938963Y-73781609D01*
X106567535Y-73781609D01*
X106310392Y-73553038D02*
X105853249Y-73553038D01*
X105567535Y-73553038D02*
X105110392Y-73553038D01*
D11*
X93497163Y-99593181D02*
X93569734Y-99556895D01*
X93678592Y-99556895D01*
X93787449Y-99593181D01*
X93860020Y-99665752D01*
X93896306Y-99738323D01*
X93932592Y-99883466D01*
X93932592Y-99992323D01*
X93896306Y-100137466D01*
X93860020Y-100210038D01*
X93787449Y-100282609D01*
X93678592Y-100318895D01*
X93606020Y-100318895D01*
X93497163Y-100282609D01*
X93460877Y-100246323D01*
X93460877Y-99992323D01*
X93606020Y-99992323D01*
X93134306Y-100318895D02*
X93134306Y-99556895D01*
X92698877Y-100318895D01*
X92698877Y-99556895D01*
X92336020Y-100318895D02*
X92336020Y-99556895D01*
X92154592Y-99556895D01*
X92045734Y-99593181D01*
X91973163Y-99665752D01*
X91936877Y-99738323D01*
X91900592Y-99883466D01*
X91900592Y-99992323D01*
X91936877Y-100137466D01*
X91973163Y-100210038D01*
X92045734Y-100282609D01*
X92154592Y-100318895D01*
X92336020Y-100318895D01*
D14*
X88394677Y-76083038D02*
X87937535Y-76083038D01*
X87651820Y-76083038D02*
X87194677Y-76083038D01*
X86566106Y-76311609D02*
X86766106Y-76025895D01*
X86908963Y-76311609D02*
X86908963Y-75711609D01*
X86680392Y-75711609D01*
X86623249Y-75740181D01*
X86594677Y-75768752D01*
X86566106Y-75825895D01*
X86566106Y-75911609D01*
X86594677Y-75968752D01*
X86623249Y-75997323D01*
X86680392Y-76025895D01*
X86908963Y-76025895D01*
X86194677Y-75711609D02*
X86080392Y-75711609D01*
X86023249Y-75740181D01*
X85966106Y-75797323D01*
X85937535Y-75911609D01*
X85937535Y-76111609D01*
X85966106Y-76225895D01*
X86023249Y-76283038D01*
X86080392Y-76311609D01*
X86194677Y-76311609D01*
X86251820Y-76283038D01*
X86308963Y-76225895D01*
X86337535Y-76111609D01*
X86337535Y-75911609D01*
X86308963Y-75797323D01*
X86251820Y-75740181D01*
X86194677Y-75711609D01*
X85737535Y-75711609D02*
X85594677Y-76311609D01*
X85480392Y-75883038D01*
X85366106Y-76311609D01*
X85223249Y-75711609D01*
X85023249Y-75768752D02*
X84994677Y-75740181D01*
X84937535Y-75711609D01*
X84794677Y-75711609D01*
X84737535Y-75740181D01*
X84708963Y-75768752D01*
X84680392Y-75825895D01*
X84680392Y-75883038D01*
X84708963Y-75968752D01*
X85051820Y-76311609D01*
X84680392Y-76311609D01*
D11*
X141294536Y-111868181D02*
X141367107Y-111831895D01*
X141475965Y-111831895D01*
X141584822Y-111868181D01*
X141657393Y-111940752D01*
X141693679Y-112013323D01*
X141729965Y-112158466D01*
X141729965Y-112267323D01*
X141693679Y-112412466D01*
X141657393Y-112485038D01*
X141584822Y-112557609D01*
X141475965Y-112593895D01*
X141403393Y-112593895D01*
X141294536Y-112557609D01*
X141258250Y-112521323D01*
X141258250Y-112267323D01*
X141403393Y-112267323D01*
X140931679Y-112593895D02*
X140931679Y-111831895D01*
X140496250Y-112593895D01*
X140496250Y-111831895D01*
X140133393Y-112593895D02*
X140133393Y-111831895D01*
X139951965Y-111831895D01*
X139843107Y-111868181D01*
X139770536Y-111940752D01*
X139734250Y-112013323D01*
X139697965Y-112158466D01*
X139697965Y-112267323D01*
X139734250Y-112412466D01*
X139770536Y-112485038D01*
X139843107Y-112557609D01*
X139951965Y-112593895D01*
X140133393Y-112593895D01*
D14*
X109138962Y-65847323D02*
X108938962Y-65847323D01*
X108853248Y-66161609D02*
X109138962Y-66161609D01*
X109138962Y-65561609D01*
X108853248Y-65561609D01*
X108596105Y-66161609D02*
X108596105Y-65561609D01*
X108253248Y-66161609D01*
X108253248Y-65561609D01*
X107624676Y-66104466D02*
X107653248Y-66133038D01*
X107738962Y-66161609D01*
X107796105Y-66161609D01*
X107881819Y-66133038D01*
X107938962Y-66075895D01*
X107967534Y-66018752D01*
X107996105Y-65904466D01*
X107996105Y-65818752D01*
X107967534Y-65704466D01*
X107938962Y-65647323D01*
X107881819Y-65590181D01*
X107796105Y-65561609D01*
X107738962Y-65561609D01*
X107653248Y-65590181D01*
X107624676Y-65618752D01*
X106710391Y-65847323D02*
X106624676Y-65875895D01*
X106596105Y-65904466D01*
X106567534Y-65961609D01*
X106567534Y-66047323D01*
X106596105Y-66104466D01*
X106624676Y-66133038D01*
X106681819Y-66161609D01*
X106910391Y-66161609D01*
X106910391Y-65561609D01*
X106710391Y-65561609D01*
X106653248Y-65590181D01*
X106624676Y-65618752D01*
X106596105Y-65675895D01*
X106596105Y-65733038D01*
X106624676Y-65790181D01*
X106653248Y-65818752D01*
X106710391Y-65847323D01*
X106910391Y-65847323D01*
X106310391Y-65933038D02*
X105853248Y-65933038D01*
X105567534Y-65933038D02*
X105110391Y-65933038D01*
X88394676Y-53223037D02*
X87937534Y-53223037D01*
X87651819Y-53223037D02*
X87194676Y-53223037D01*
X86623248Y-53451608D02*
X86908962Y-53451608D01*
X86908962Y-52851608D01*
X86423248Y-53137322D02*
X86223248Y-53137322D01*
X86137534Y-53451608D02*
X86423248Y-53451608D01*
X86423248Y-52851608D01*
X86137534Y-52851608D01*
X85880391Y-53451608D02*
X85880391Y-52851608D01*
X85737534Y-52851608D01*
X85651819Y-52880180D01*
X85594676Y-52937322D01*
X85566105Y-52994465D01*
X85537534Y-53108751D01*
X85537534Y-53194465D01*
X85566105Y-53308751D01*
X85594676Y-53365894D01*
X85651819Y-53423037D01*
X85737534Y-53451608D01*
X85880391Y-53451608D01*
X108253249Y-76264465D02*
X108281820Y-76293037D01*
X108367535Y-76321608D01*
X108424677Y-76321608D01*
X108510392Y-76293037D01*
X108567535Y-76235894D01*
X108596106Y-76178751D01*
X108624677Y-76064465D01*
X108624677Y-75978751D01*
X108596106Y-75864465D01*
X108567535Y-75807322D01*
X108510392Y-75750180D01*
X108424677Y-75721608D01*
X108367535Y-75721608D01*
X108281820Y-75750180D01*
X108253249Y-75778751D01*
X107881820Y-75721608D02*
X107767535Y-75721608D01*
X107710392Y-75750180D01*
X107653249Y-75807322D01*
X107624677Y-75921608D01*
X107624677Y-76121608D01*
X107653249Y-76235894D01*
X107710392Y-76293037D01*
X107767535Y-76321608D01*
X107881820Y-76321608D01*
X107938963Y-76293037D01*
X107996106Y-76235894D01*
X108024677Y-76121608D01*
X108024677Y-75921608D01*
X107996106Y-75807322D01*
X107938963Y-75750180D01*
X107881820Y-75721608D01*
X107081820Y-76321608D02*
X107367535Y-76321608D01*
X107367535Y-75721608D01*
X106938963Y-75721608D02*
X106567535Y-75721608D01*
X106767535Y-75950180D01*
X106681820Y-75950180D01*
X106624677Y-75978751D01*
X106596106Y-76007322D01*
X106567535Y-76064465D01*
X106567535Y-76207322D01*
X106596106Y-76264465D01*
X106624677Y-76293037D01*
X106681820Y-76321608D01*
X106853249Y-76321608D01*
X106910392Y-76293037D01*
X106938963Y-76264465D01*
X106310392Y-76093037D02*
X105853249Y-76093037D01*
X105567535Y-76093037D02*
X105110392Y-76093037D01*
D10*
X90745750Y-103041609D02*
X90945750Y-102755895D01*
X91088607Y-103041609D02*
X91088607Y-102441609D01*
X90860036Y-102441609D01*
X90802893Y-102470181D01*
X90774322Y-102498752D01*
X90745750Y-102555895D01*
X90745750Y-102641609D01*
X90774322Y-102698752D01*
X90802893Y-102727323D01*
X90860036Y-102755895D01*
X91088607Y-102755895D01*
X90488607Y-102727323D02*
X90288607Y-102727323D01*
X90202893Y-103041609D02*
X90488607Y-103041609D01*
X90488607Y-102441609D01*
X90202893Y-102441609D01*
X89945750Y-103041609D02*
X89945750Y-102441609D01*
X89802893Y-102441609D01*
X89717179Y-102470181D01*
X89660036Y-102527323D01*
X89631465Y-102584466D01*
X89602893Y-102698752D01*
X89602893Y-102784466D01*
X89631465Y-102898752D01*
X89660036Y-102955895D01*
X89717179Y-103013038D01*
X89802893Y-103041609D01*
X89945750Y-103041609D01*
D14*
X88394676Y-55763037D02*
X87937534Y-55763037D01*
X87651819Y-55763037D02*
X87194676Y-55763037D01*
X86994676Y-55391608D02*
X86651819Y-55391608D01*
X86823248Y-55991608D02*
X86823248Y-55391608D01*
X86508962Y-55391608D02*
X86108962Y-55991608D01*
X86108962Y-55391608D02*
X86508962Y-55991608D01*
D11*
X206034537Y-50039181D02*
X206107108Y-50002895D01*
X206215966Y-50002895D01*
X206324823Y-50039181D01*
X206397394Y-50111752D01*
X206433680Y-50184323D01*
X206469966Y-50329466D01*
X206469966Y-50438323D01*
X206433680Y-50583466D01*
X206397394Y-50656038D01*
X206324823Y-50728609D01*
X206215966Y-50764895D01*
X206143394Y-50764895D01*
X206034537Y-50728609D01*
X205998251Y-50692323D01*
X205998251Y-50438323D01*
X206143394Y-50438323D01*
X205671680Y-50764895D02*
X205671680Y-50002895D01*
X205236251Y-50764895D01*
X205236251Y-50002895D01*
X204873394Y-50764895D02*
X204873394Y-50002895D01*
X204691966Y-50002895D01*
X204583108Y-50039181D01*
X204510537Y-50111752D01*
X204474251Y-50184323D01*
X204437966Y-50329466D01*
X204437966Y-50438323D01*
X204474251Y-50583466D01*
X204510537Y-50656038D01*
X204583108Y-50728609D01*
X204691966Y-50764895D01*
X204873394Y-50764895D01*
D10*
X88824203Y-103838037D02*
X88709917Y-103876132D01*
X88671822Y-103914227D01*
X88633726Y-103990418D01*
X88633726Y-104104703D01*
X88671822Y-104180894D01*
X88709917Y-104218989D01*
X88786107Y-104257084D01*
X89090869Y-104257084D01*
X89090869Y-103457084D01*
X88824203Y-103457084D01*
X88748012Y-103495180D01*
X88709917Y-103533275D01*
X88671822Y-103609465D01*
X88671822Y-103685656D01*
X88709917Y-103761846D01*
X88748012Y-103799941D01*
X88824203Y-103838037D01*
X89090869Y-103838037D01*
X88328965Y-104028513D02*
X87948012Y-104028513D01*
X88405155Y-104257084D02*
X88138488Y-103457084D01*
X87871822Y-104257084D01*
X87719441Y-103457084D02*
X87262298Y-103457084D01*
X87490869Y-104257084D02*
X87490869Y-103457084D01*
X87109917Y-103457084D02*
X86652774Y-103457084D01*
X86881345Y-104257084D02*
X86881345Y-103457084D01*
D14*
X108110392Y-60481609D02*
X107910392Y-61081609D01*
X107710392Y-60481609D01*
X107167535Y-61024466D02*
X107196106Y-61053038D01*
X107281820Y-61081609D01*
X107338963Y-61081609D01*
X107424677Y-61053038D01*
X107481820Y-60995895D01*
X107510392Y-60938752D01*
X107538963Y-60824466D01*
X107538963Y-60738752D01*
X107510392Y-60624466D01*
X107481820Y-60567323D01*
X107424677Y-60510181D01*
X107338963Y-60481609D01*
X107281820Y-60481609D01*
X107196106Y-60510181D01*
X107167535Y-60538752D01*
X106567535Y-61024466D02*
X106596106Y-61053038D01*
X106681820Y-61081609D01*
X106738963Y-61081609D01*
X106824677Y-61053038D01*
X106881820Y-60995895D01*
X106910392Y-60938752D01*
X106938963Y-60824466D01*
X106938963Y-60738752D01*
X106910392Y-60624466D01*
X106881820Y-60567323D01*
X106824677Y-60510181D01*
X106738963Y-60481609D01*
X106681820Y-60481609D01*
X106596106Y-60510181D01*
X106567535Y-60538752D01*
X106310392Y-60853038D02*
X105853249Y-60853038D01*
X105567535Y-60853038D02*
X105110392Y-60853038D01*
D10*
X147230273Y-74213085D02*
X146773130Y-74213085D01*
X147001702Y-75013085D02*
X147001702Y-74213085D01*
X146506464Y-74594038D02*
X146239797Y-74594038D01*
X146125511Y-75013085D02*
X146506464Y-75013085D01*
X146506464Y-74213085D01*
X146125511Y-74213085D01*
X145782654Y-75013085D02*
X145782654Y-74213085D01*
X145325511Y-75013085D01*
X145325511Y-74213085D01*
X145058844Y-74213085D02*
X144601702Y-74213085D01*
X144830273Y-75013085D02*
X144830273Y-74213085D01*
X144335035Y-75013085D02*
X144335035Y-74213085D01*
X143954083Y-75013085D02*
X143954083Y-74213085D01*
X143496940Y-75013085D01*
X143496940Y-74213085D01*
X142696940Y-74251181D02*
X142773130Y-74213085D01*
X142887416Y-74213085D01*
X143001702Y-74251181D01*
X143077892Y-74327371D01*
X143115987Y-74403561D01*
X143154083Y-74555942D01*
X143154083Y-74670228D01*
X143115987Y-74822609D01*
X143077892Y-74898800D01*
X143001702Y-74974990D01*
X142887416Y-75013085D01*
X142811225Y-75013085D01*
X142696940Y-74974990D01*
X142658844Y-74936895D01*
X142658844Y-74670228D01*
X142811225Y-74670228D01*
X147115987Y-76301085D02*
X147115987Y-75501085D01*
X146811225Y-75501085D01*
X146735035Y-75539181D01*
X146696940Y-75577276D01*
X146658844Y-75653466D01*
X146658844Y-75767752D01*
X146696940Y-75843942D01*
X146735035Y-75882038D01*
X146811225Y-75920133D01*
X147115987Y-75920133D01*
X146315987Y-75501085D02*
X146315987Y-76148704D01*
X146277892Y-76224895D01*
X146239797Y-76262990D01*
X146163606Y-76301085D01*
X146011225Y-76301085D01*
X145935035Y-76262990D01*
X145896940Y-76224895D01*
X145858844Y-76148704D01*
X145858844Y-75501085D01*
X145020749Y-76224895D02*
X145058844Y-76262990D01*
X145173130Y-76301085D01*
X145249321Y-76301085D01*
X145363606Y-76262990D01*
X145439797Y-76186800D01*
X145477892Y-76110609D01*
X145515987Y-75958228D01*
X145515987Y-75843942D01*
X145477892Y-75691561D01*
X145439797Y-75615371D01*
X145363606Y-75539181D01*
X145249321Y-75501085D01*
X145173130Y-75501085D01*
X145058844Y-75539181D01*
X145020749Y-75577276D01*
X144677892Y-76301085D02*
X144677892Y-75501085D01*
X144220749Y-76301085D02*
X144563606Y-75843942D01*
X144220749Y-75501085D02*
X144677892Y-75958228D01*
D14*
X88394677Y-81163037D02*
X87937535Y-81163037D01*
X87651820Y-81163037D02*
X87194677Y-81163037D01*
X86937535Y-81220180D02*
X86651820Y-81220180D01*
X86994677Y-81391608D02*
X86794677Y-80791608D01*
X86594677Y-81391608D01*
X86394677Y-80791608D02*
X86394677Y-81277322D01*
X86366106Y-81334465D01*
X86337535Y-81363037D01*
X86280392Y-81391608D01*
X86166106Y-81391608D01*
X86108963Y-81363037D01*
X86080392Y-81334465D01*
X86051820Y-81277322D01*
X86051820Y-80791608D01*
X85766106Y-81391608D02*
X85766106Y-80791608D01*
X85623249Y-80791608D01*
X85537535Y-80820180D01*
X85480392Y-80877322D01*
X85451820Y-80934465D01*
X85423249Y-81048751D01*
X85423249Y-81134465D01*
X85451820Y-81248751D01*
X85480392Y-81305894D01*
X85537535Y-81363037D01*
X85623249Y-81391608D01*
X85766106Y-81391608D01*
X85166106Y-81391608D02*
X85166106Y-80791608D01*
X84766106Y-80791608D02*
X84651820Y-80791608D01*
X84594677Y-80820180D01*
X84537535Y-80877322D01*
X84508963Y-80991608D01*
X84508963Y-81191608D01*
X84537535Y-81305894D01*
X84594677Y-81363037D01*
X84651820Y-81391608D01*
X84766106Y-81391608D01*
X84823249Y-81363037D01*
X84880392Y-81305894D01*
X84908963Y-81191608D01*
X84908963Y-80991608D01*
X84880392Y-80877322D01*
X84823249Y-80820180D01*
X84766106Y-80791608D01*
D11*
X196369964Y-50002894D02*
X196115964Y-50764894D01*
X195861964Y-50002894D01*
X195172535Y-50692322D02*
X195208821Y-50728608D01*
X195317678Y-50764894D01*
X195390249Y-50764894D01*
X195499106Y-50728608D01*
X195571678Y-50656037D01*
X195607964Y-50583465D01*
X195644249Y-50438322D01*
X195644249Y-50329465D01*
X195607964Y-50184322D01*
X195571678Y-50111751D01*
X195499106Y-50039180D01*
X195390249Y-50002894D01*
X195317678Y-50002894D01*
X195208821Y-50039180D01*
X195172535Y-50075465D01*
X194410535Y-50692322D02*
X194446821Y-50728608D01*
X194555678Y-50764894D01*
X194628249Y-50764894D01*
X194737106Y-50728608D01*
X194809678Y-50656037D01*
X194845964Y-50583465D01*
X194882249Y-50438322D01*
X194882249Y-50329465D01*
X194845964Y-50184322D01*
X194809678Y-50111751D01*
X194737106Y-50039180D01*
X194628249Y-50002894D01*
X194555678Y-50002894D01*
X194446821Y-50039180D01*
X194410535Y-50075465D01*
D14*
X88394677Y-60843037D02*
X87937535Y-60843037D01*
X87651820Y-60843037D02*
X87194677Y-60843037D01*
X86594677Y-60500180D02*
X86651820Y-60471608D01*
X86737535Y-60471608D01*
X86823249Y-60500180D01*
X86880392Y-60557322D01*
X86908963Y-60614465D01*
X86937535Y-60728751D01*
X86937535Y-60814465D01*
X86908963Y-60928751D01*
X86880392Y-60985894D01*
X86823249Y-61043037D01*
X86737535Y-61071608D01*
X86680392Y-61071608D01*
X86594677Y-61043037D01*
X86566106Y-61014465D01*
X86566106Y-60814465D01*
X86680392Y-60814465D01*
X86308963Y-61071608D02*
X86308963Y-60471608D01*
X85966106Y-61071608D01*
X85966106Y-60471608D01*
X85680392Y-61071608D02*
X85680392Y-60471608D01*
X85537535Y-60471608D01*
X85451820Y-60500180D01*
X85394677Y-60557322D01*
X85366106Y-60614465D01*
X85337535Y-60728751D01*
X85337535Y-60814465D01*
X85366106Y-60928751D01*
X85394677Y-60985894D01*
X85451820Y-61043037D01*
X85537535Y-61071608D01*
X85680392Y-61071608D01*
X88394676Y-73543038D02*
X87937534Y-73543038D01*
X87651819Y-73543038D02*
X87194676Y-73543038D01*
X86566105Y-73771609D02*
X86766105Y-73485895D01*
X86908962Y-73771609D02*
X86908962Y-73171609D01*
X86680391Y-73171609D01*
X86623248Y-73200181D01*
X86594676Y-73228752D01*
X86566105Y-73285895D01*
X86566105Y-73371609D01*
X86594676Y-73428752D01*
X86623248Y-73457323D01*
X86680391Y-73485895D01*
X86908962Y-73485895D01*
X86194676Y-73171609D02*
X86080391Y-73171609D01*
X86023248Y-73200181D01*
X85966105Y-73257323D01*
X85937534Y-73371609D01*
X85937534Y-73571609D01*
X85966105Y-73685895D01*
X86023248Y-73743038D01*
X86080391Y-73771609D01*
X86194676Y-73771609D01*
X86251819Y-73743038D01*
X86308962Y-73685895D01*
X86337534Y-73571609D01*
X86337534Y-73371609D01*
X86308962Y-73257323D01*
X86251819Y-73200181D01*
X86194676Y-73171609D01*
X85737534Y-73171609D02*
X85594676Y-73771609D01*
X85480391Y-73343038D01*
X85366105Y-73771609D01*
X85223248Y-73171609D01*
X84680391Y-73771609D02*
X85023248Y-73771609D01*
X84851819Y-73771609D02*
X84851819Y-73171609D01*
X84908962Y-73257323D01*
X84966105Y-73314466D01*
X85023248Y-73343038D01*
X88394676Y-58303038D02*
X87937534Y-58303038D01*
X87651819Y-58303038D02*
X87194676Y-58303038D01*
X86594676Y-57960181D02*
X86651819Y-57931609D01*
X86737534Y-57931609D01*
X86823248Y-57960181D01*
X86880391Y-58017323D01*
X86908962Y-58074466D01*
X86937534Y-58188752D01*
X86937534Y-58274466D01*
X86908962Y-58388752D01*
X86880391Y-58445895D01*
X86823248Y-58503038D01*
X86737534Y-58531609D01*
X86680391Y-58531609D01*
X86594676Y-58503038D01*
X86566105Y-58474466D01*
X86566105Y-58274466D01*
X86680391Y-58274466D01*
X86308962Y-58531609D02*
X86308962Y-57931609D01*
X85966105Y-58531609D01*
X85966105Y-57931609D01*
X85680391Y-58531609D02*
X85680391Y-57931609D01*
X85537534Y-57931609D01*
X85451819Y-57960181D01*
X85394676Y-58017323D01*
X85366105Y-58074466D01*
X85337534Y-58188752D01*
X85337534Y-58274466D01*
X85366105Y-58388752D01*
X85394676Y-58445895D01*
X85451819Y-58503038D01*
X85537534Y-58531609D01*
X85680391Y-58531609D01*
D10*
X110265869Y-96832085D02*
X110113488Y-96832085D01*
X110037298Y-96870181D01*
X109961107Y-96946371D01*
X109923012Y-97098752D01*
X109923012Y-97365419D01*
X109961107Y-97517800D01*
X110037298Y-97593990D01*
X110113488Y-97632085D01*
X110265869Y-97632085D01*
X110342060Y-97593990D01*
X110418250Y-97517800D01*
X110456345Y-97365419D01*
X110456345Y-97098752D01*
X110418250Y-96946371D01*
X110342060Y-96870181D01*
X110265869Y-96832085D01*
X109199203Y-97632085D02*
X109580155Y-97632085D01*
X109580155Y-96832085D01*
X108932536Y-97213038D02*
X108665869Y-97213038D01*
X108551584Y-97632085D02*
X108932536Y-97632085D01*
X108932536Y-96832085D01*
X108551584Y-96832085D01*
X108208726Y-97632085D02*
X108208726Y-96832085D01*
X108018250Y-96832085D01*
X107903965Y-96870181D01*
X107827774Y-96946371D01*
X107789679Y-97022561D01*
X107751584Y-97174942D01*
X107751584Y-97289228D01*
X107789679Y-97441609D01*
X107827774Y-97517800D01*
X107903965Y-97593990D01*
X108018250Y-97632085D01*
X108208726Y-97632085D01*
D14*
X94642535Y-134488085D02*
X95023487Y-134488085D01*
X95023487Y-133688085D01*
X94223487Y-133688085D02*
X94071106Y-133688085D01*
X93994916Y-133726181D01*
X93918725Y-133802371D01*
X93880630Y-133954752D01*
X93880630Y-134221419D01*
X93918725Y-134373800D01*
X93994916Y-134449990D01*
X94071106Y-134488085D01*
X94223487Y-134488085D01*
X94299678Y-134449990D01*
X94375868Y-134373800D01*
X94413964Y-134221419D01*
X94413964Y-133954752D01*
X94375868Y-133802371D01*
X94299678Y-133726181D01*
X94223487Y-133688085D01*
X93575868Y-134449990D02*
X93461583Y-134488085D01*
X93271106Y-134488085D01*
X93194916Y-134449990D01*
X93156821Y-134411895D01*
X93118725Y-134335704D01*
X93118725Y-134259514D01*
X93156821Y-134183323D01*
X93194916Y-134145228D01*
X93271106Y-134107133D01*
X93423487Y-134069038D01*
X93499678Y-134030942D01*
X93537773Y-133992847D01*
X93575868Y-133916657D01*
X93575868Y-133840466D01*
X93537773Y-133764276D01*
X93499678Y-133726181D01*
X93423487Y-133688085D01*
X93233011Y-133688085D01*
X93118725Y-133726181D01*
X92890154Y-133688085D02*
X92433011Y-133688085D01*
X92661583Y-134488085D02*
X92661583Y-133688085D01*
X95137773Y-134976085D02*
X94680630Y-134976085D01*
X94909202Y-135776085D02*
X94909202Y-134976085D01*
X94413964Y-135776085D02*
X94413964Y-134976085D01*
X94413964Y-135357038D02*
X93956821Y-135357038D01*
X93956821Y-135776085D02*
X93956821Y-134976085D01*
X93575868Y-134976085D02*
X93575868Y-135623704D01*
X93537773Y-135699895D01*
X93499678Y-135737990D01*
X93423487Y-135776085D01*
X93271106Y-135776085D01*
X93194916Y-135737990D01*
X93156821Y-135699895D01*
X93118725Y-135623704D01*
X93118725Y-134976085D01*
X92737773Y-135776085D02*
X92737773Y-134976085D01*
X92471106Y-135547514D01*
X92204440Y-134976085D01*
X92204440Y-135776085D01*
X91556821Y-135357038D02*
X91442535Y-135395133D01*
X91404440Y-135433228D01*
X91366344Y-135509419D01*
X91366344Y-135623704D01*
X91404440Y-135699895D01*
X91442535Y-135737990D01*
X91518725Y-135776085D01*
X91823487Y-135776085D01*
X91823487Y-134976085D01*
X91556821Y-134976085D01*
X91480630Y-135014181D01*
X91442535Y-135052276D01*
X91404440Y-135128466D01*
X91404440Y-135204657D01*
X91442535Y-135280847D01*
X91480630Y-135318942D01*
X91556821Y-135357038D01*
X91823487Y-135357038D01*
X90909202Y-135699895D02*
X90871106Y-135737990D01*
X90909202Y-135776085D01*
X90947297Y-135737990D01*
X90909202Y-135699895D01*
X90909202Y-135776085D01*
X91061583Y-135014181D02*
X90985392Y-134976085D01*
X90794916Y-134976085D01*
X90718725Y-135014181D01*
X90680630Y-135090371D01*
X90680630Y-135166561D01*
X90718725Y-135242752D01*
X90756821Y-135280847D01*
X90833011Y-135318942D01*
X90871106Y-135357038D01*
X90909202Y-135433228D01*
X90909202Y-135471323D01*
X108881820Y-53147322D02*
X108796106Y-53175894D01*
X108767535Y-53204465D01*
X108738963Y-53261608D01*
X108738963Y-53347322D01*
X108767535Y-53404465D01*
X108796106Y-53433037D01*
X108853249Y-53461608D01*
X109081820Y-53461608D01*
X109081820Y-52861608D01*
X108881820Y-52861608D01*
X108824677Y-52890180D01*
X108796106Y-52918751D01*
X108767535Y-52975894D01*
X108767535Y-53033037D01*
X108796106Y-53090180D01*
X108824677Y-53118751D01*
X108881820Y-53147322D01*
X109081820Y-53147322D01*
X108510392Y-53290180D02*
X108224677Y-53290180D01*
X108567535Y-53461608D02*
X108367535Y-52861608D01*
X108167535Y-53461608D01*
X108053249Y-52861608D02*
X107710392Y-52861608D01*
X107881820Y-53461608D02*
X107881820Y-52861608D01*
X107596106Y-52861608D02*
X107253249Y-52861608D01*
X107424677Y-53461608D02*
X107424677Y-52861608D01*
X107053249Y-53233037D02*
X106596106Y-53233037D01*
X106824677Y-53461608D02*
X106824677Y-53004465D01*
X106310392Y-53233037D02*
X105853249Y-53233037D01*
X105567535Y-53233037D02*
X105110392Y-53233037D01*
D11*
X146755733Y-112557609D02*
X146646876Y-112593895D01*
X146465448Y-112593895D01*
X146392876Y-112557609D01*
X146356591Y-112521323D01*
X146320305Y-112448752D01*
X146320305Y-112376181D01*
X146356591Y-112303609D01*
X146392876Y-112267323D01*
X146465448Y-112231038D01*
X146610591Y-112194752D01*
X146683162Y-112158466D01*
X146719448Y-112122181D01*
X146755733Y-112049609D01*
X146755733Y-111977038D01*
X146719448Y-111904466D01*
X146683162Y-111868181D01*
X146610591Y-111831895D01*
X146429162Y-111831895D01*
X146320305Y-111868181D01*
X145558305Y-112521323D02*
X145594591Y-112557609D01*
X145703448Y-112593895D01*
X145776019Y-112593895D01*
X145884876Y-112557609D01*
X145957448Y-112485038D01*
X145993733Y-112412466D01*
X146030019Y-112267323D01*
X146030019Y-112158466D01*
X145993733Y-112013323D01*
X145957448Y-111940752D01*
X145884876Y-111868181D01*
X145776019Y-111831895D01*
X145703448Y-111831895D01*
X145594591Y-111868181D01*
X145558305Y-111904466D01*
X144868876Y-112593895D02*
X145231733Y-112593895D01*
X145231733Y-111831895D01*
D14*
X107824677Y-55430181D02*
X107881820Y-55401609D01*
X107967535Y-55401609D01*
X108053249Y-55430181D01*
X108110392Y-55487323D01*
X108138963Y-55544466D01*
X108167535Y-55658752D01*
X108167535Y-55744466D01*
X108138963Y-55858752D01*
X108110392Y-55915895D01*
X108053249Y-55973038D01*
X107967535Y-56001609D01*
X107910392Y-56001609D01*
X107824677Y-55973038D01*
X107796106Y-55944466D01*
X107796106Y-55744466D01*
X107910392Y-55744466D01*
X107538963Y-56001609D02*
X107538963Y-55401609D01*
X107196106Y-56001609D01*
X107196106Y-55401609D01*
X106910392Y-56001609D02*
X106910392Y-55401609D01*
X106767535Y-55401609D01*
X106681820Y-55430181D01*
X106624677Y-55487323D01*
X106596106Y-55544466D01*
X106567535Y-55658752D01*
X106567535Y-55744466D01*
X106596106Y-55858752D01*
X106624677Y-55915895D01*
X106681820Y-55973038D01*
X106767535Y-56001609D01*
X106910392Y-56001609D01*
X106310392Y-55773038D02*
X105853249Y-55773038D01*
X105567535Y-55773038D02*
X105110392Y-55773038D01*
D10*
X207556345Y-70482085D02*
X207556345Y-69682085D01*
X207556345Y-70063038D02*
X207099203Y-70063038D01*
X207099203Y-70482085D02*
X207099203Y-69682085D01*
X206756345Y-70253514D02*
X206375393Y-70253514D01*
X206832536Y-70482085D02*
X206565869Y-69682085D01*
X206299203Y-70482085D01*
X206032536Y-70482085D02*
X206032536Y-69682085D01*
X205727774Y-69682085D01*
X205651584Y-69720181D01*
X205613488Y-69758276D01*
X205575393Y-69834466D01*
X205575393Y-69948752D01*
X205613488Y-70024942D01*
X205651584Y-70063038D01*
X205727774Y-70101133D01*
X206032536Y-70101133D01*
X205346822Y-69682085D02*
X204889679Y-69682085D01*
X205118250Y-70482085D02*
X205118250Y-69682085D01*
X204623012Y-70482085D02*
X204623012Y-69682085D01*
X203784917Y-70405895D02*
X203823012Y-70443990D01*
X203937298Y-70482085D01*
X204013488Y-70482085D01*
X204127774Y-70443990D01*
X204203965Y-70367800D01*
X204242060Y-70291609D01*
X204280155Y-70139228D01*
X204280155Y-70024942D01*
X204242060Y-69872561D01*
X204203965Y-69796371D01*
X204127774Y-69720181D01*
X204013488Y-69682085D01*
X203937298Y-69682085D01*
X203823012Y-69720181D01*
X203784917Y-69758276D01*
X202565869Y-70063038D02*
X202451584Y-70101133D01*
X202413488Y-70139228D01*
X202375393Y-70215419D01*
X202375393Y-70329704D01*
X202413488Y-70405895D01*
X202451584Y-70443990D01*
X202527774Y-70482085D01*
X202832536Y-70482085D01*
X202832536Y-69682085D01*
X202565869Y-69682085D01*
X202489679Y-69720181D01*
X202451584Y-69758276D01*
X202413488Y-69834466D01*
X202413488Y-69910657D01*
X202451584Y-69986847D01*
X202489679Y-70024942D01*
X202565869Y-70063038D01*
X202832536Y-70063038D01*
X202032536Y-69682085D02*
X202032536Y-70329704D01*
X201994441Y-70405895D01*
X201956345Y-70443990D01*
X201880155Y-70482085D01*
X201727774Y-70482085D01*
X201651584Y-70443990D01*
X201613488Y-70405895D01*
X201575393Y-70329704D01*
X201575393Y-69682085D01*
X201270631Y-69682085D02*
X200737298Y-69682085D01*
X201270631Y-70482085D01*
X200737298Y-70482085D01*
X200508726Y-69682085D02*
X199975393Y-69682085D01*
X200508726Y-70482085D01*
X199975393Y-70482085D01*
X93309488Y-129059084D02*
X92852345Y-129059084D01*
X93080917Y-129859084D02*
X93080917Y-129059084D01*
X92128536Y-129859084D02*
X92395203Y-129478132D01*
X92585679Y-129859084D02*
X92585679Y-129059084D01*
X92280917Y-129059084D01*
X92204726Y-129097180D01*
X92166631Y-129135275D01*
X92128536Y-129211465D01*
X92128536Y-129325751D01*
X92166631Y-129401941D01*
X92204726Y-129440037D01*
X92280917Y-129478132D01*
X92585679Y-129478132D01*
X91328536Y-129859084D02*
X91595203Y-129478132D01*
X91785679Y-129859084D02*
X91785679Y-129059084D01*
X91480917Y-129059084D01*
X91404726Y-129097180D01*
X91366631Y-129135275D01*
X91328536Y-129211465D01*
X91328536Y-129325751D01*
X91366631Y-129401941D01*
X91404726Y-129440037D01*
X91480917Y-129478132D01*
X91785679Y-129478132D01*
X91023774Y-129820989D02*
X90909488Y-129859084D01*
X90719012Y-129859084D01*
X90642822Y-129820989D01*
X90604726Y-129782894D01*
X90566631Y-129706703D01*
X90566631Y-129630513D01*
X90604726Y-129554322D01*
X90642822Y-129516227D01*
X90719012Y-129478132D01*
X90871393Y-129440037D01*
X90947584Y-129401941D01*
X90985679Y-129363846D01*
X91023774Y-129287656D01*
X91023774Y-129211465D01*
X90985679Y-129135275D01*
X90947584Y-129097180D01*
X90871393Y-129059084D01*
X90680917Y-129059084D01*
X90566631Y-129097180D01*
D15*
X146785963Y-119718038D02*
X146785963Y-121168038D01*
X146785963Y-121168038D02*
X144735963Y-121168038D01*
X144735963Y-119718038D02*
X146785963Y-119718038D01*
X144735963Y-121168038D02*
X144735963Y-119718038D01*
X124170482Y-121896101D02*
X124545770Y-123296694D01*
X124545770Y-123296694D02*
X122565622Y-123827273D01*
X122190334Y-122426680D02*
X124170482Y-121896101D01*
X122565622Y-123827273D02*
X122190334Y-122426680D01*
X102888445Y-129858381D02*
X103613445Y-131114118D01*
X103613445Y-131114118D02*
X101838093Y-132139118D01*
X101113093Y-130883381D02*
X102888445Y-129858381D01*
X101838093Y-132139118D02*
X101113093Y-130883381D01*
X84361827Y-143062260D02*
X85387132Y-144087565D01*
X85387132Y-144087565D02*
X83937563Y-145537134D01*
X82912258Y-144511829D02*
X84361827Y-143062260D01*
X83937563Y-145537134D02*
X82912258Y-144511829D01*
X220333996Y-112165106D02*
X220082206Y-113593078D01*
X220082206Y-113593078D02*
X218063350Y-113237099D01*
X218315140Y-111809128D02*
X220333996Y-112165106D01*
X218063350Y-113237099D02*
X218315140Y-111809128D01*
X200731758Y-113785837D02*
X200479968Y-115213809D01*
X200479968Y-115213809D02*
X198461112Y-114857830D01*
X198712902Y-113429859D02*
X200731758Y-113785837D01*
X198461112Y-114857830D02*
X198712902Y-113429859D01*
X182361584Y-99350976D02*
X182260437Y-100797444D01*
X182260437Y-100797444D02*
X180215431Y-100654443D01*
X180316577Y-99207976D02*
X182361584Y-99350976D01*
X180215431Y-100654443D02*
X180316577Y-99207976D01*
X162885963Y-88768038D02*
X162885963Y-90218038D01*
X162885963Y-90218038D02*
X160835963Y-90218038D01*
X160835963Y-88768038D02*
X162885963Y-88768038D01*
X160835963Y-90218038D02*
X160835963Y-88768038D01*
X143835963Y-97768038D02*
X143835963Y-99218038D01*
X143835963Y-99218038D02*
X141785963Y-99218038D01*
X141785963Y-97768038D02*
X143835963Y-97768038D01*
X141785963Y-99218038D02*
X141785963Y-97768038D01*
X124842534Y-100768038D02*
X124842534Y-102218038D01*
X124842534Y-102218038D02*
X122792534Y-102218038D01*
X122792534Y-100768038D02*
X124842534Y-100768038D01*
X122792534Y-102218038D02*
X122792534Y-100768038D01*
X223645917Y-93382265D02*
X223394127Y-94810237D01*
X223394127Y-94810237D02*
X221375271Y-94454258D01*
X221627061Y-93026287D02*
X223645917Y-93382265D01*
X221375271Y-94454258D02*
X221627061Y-93026287D01*
X204043680Y-95002994D02*
X203791890Y-96430966D01*
X203791890Y-96430966D02*
X201773034Y-96074987D01*
X202024824Y-94647016D02*
X204043680Y-95002994D01*
X201773034Y-96074987D02*
X202024824Y-94647016D01*
X183692021Y-80324838D02*
X183590874Y-81771306D01*
X183590874Y-81771306D02*
X181545868Y-81628305D01*
X181647014Y-80181838D02*
X183692021Y-80324838D01*
X181545868Y-81628305D02*
X181647014Y-80181838D01*
X162885963Y-69695441D02*
X162885963Y-71145441D01*
X162885963Y-71145441D02*
X160835963Y-71145441D01*
X160835963Y-69695441D02*
X162885963Y-69695441D01*
X160835963Y-71145441D02*
X160835963Y-69695441D01*
X143835964Y-78695441D02*
X143835964Y-80145441D01*
X143835964Y-80145441D02*
X141785964Y-80145441D01*
X141785964Y-78695441D02*
X143835964Y-78695441D01*
X141785964Y-80145441D02*
X141785964Y-78695441D01*
X124842533Y-81695441D02*
X124842533Y-83145441D01*
X124842533Y-83145441D02*
X122792533Y-83145441D01*
X122792533Y-81695441D02*
X124842533Y-81695441D01*
X122792533Y-83145441D02*
X122792533Y-81695441D01*
X207355602Y-76220154D02*
X207103812Y-77648126D01*
X207103812Y-77648126D02*
X205084956Y-77292147D01*
X205336746Y-75864176D02*
X207355602Y-76220154D01*
X205084956Y-77292147D02*
X205336746Y-75864176D01*
X185022457Y-61298703D02*
X184921310Y-62745171D01*
X184921310Y-62745171D02*
X182876304Y-62602170D01*
X182977450Y-61155703D02*
X185022457Y-61298703D01*
X182876304Y-62602170D02*
X182977450Y-61155703D01*
X162885963Y-50622845D02*
X162885963Y-52072845D01*
X162885963Y-52072845D02*
X160835963Y-52072845D01*
X160835963Y-50622845D02*
X162885963Y-50622845D01*
X160835963Y-52072845D02*
X160835963Y-50622845D01*
X143835964Y-59622845D02*
X143835964Y-61072845D01*
X143835964Y-61072845D02*
X141785964Y-61072845D01*
X141785964Y-59622845D02*
X143835964Y-59622845D01*
X141785964Y-61072845D02*
X141785964Y-59622845D01*
X124842534Y-62622844D02*
X124842534Y-64072844D01*
X124842534Y-64072844D02*
X122792534Y-64072844D01*
X122792534Y-62622844D02*
X124842534Y-62622844D01*
X122792534Y-64072844D02*
X122792534Y-62622844D01*
D10*
X194495268Y-106755074D02*
X194252160Y-108133805D01*
X193487387Y-107288156D02*
X194495268Y-106755074D01*
X193608941Y-106598790D02*
X193365833Y-107977521D01*
X194252160Y-108133805D02*
X193487387Y-107288156D01*
X137750964Y-93267180D02*
X136850964Y-92567180D01*
X136850964Y-91867180D02*
X136850964Y-93267180D01*
X137750964Y-91867180D02*
X137750964Y-93267180D01*
X136850964Y-92567180D02*
X137750964Y-91867180D01*
X174451040Y-112653889D02*
X175397677Y-112018375D01*
X174499870Y-111955594D02*
X174402210Y-113352184D01*
X175300018Y-113414964D02*
X174451040Y-112653889D01*
X175397677Y-112018375D02*
X175300018Y-113414964D01*
X128884344Y-122158725D02*
X129327554Y-121108218D01*
X129327554Y-121108218D02*
X130236640Y-121796378D01*
X130236640Y-121796378D02*
X128884344Y-122158725D01*
X130003703Y-120927045D02*
X128651406Y-121289391D01*
D16*
X166063964Y-108060181D02*
X154863964Y-108060181D01*
X166063964Y-111310181D02*
X166063964Y-108060181D01*
X154863964Y-108060181D02*
X154863964Y-111310181D01*
X166063964Y-117260181D02*
X166063964Y-114010181D01*
X154863964Y-117260181D02*
X166063964Y-117260181D01*
X154863964Y-114010181D02*
X154863964Y-117260181D01*
D10*
X154853965Y-101970181D02*
X154853965Y-103370181D01*
X155753965Y-101970181D02*
X155753965Y-103370181D01*
X154853965Y-102670181D02*
X155753965Y-101970181D01*
X155753965Y-103370181D02*
X154853965Y-102670181D01*
D16*
X98943966Y-110320181D02*
G75*
G03*
X98943966Y-110320181I-3000000J0D01*
G01*
X102043966Y-113820181D02*
X102043966Y-116220181D01*
X93943966Y-104420181D02*
X89843966Y-104420181D01*
X95443966Y-110320181D02*
X96443966Y-110320181D01*
X95943966Y-109820181D02*
X95943966Y-110820181D01*
X97943966Y-104420181D02*
X102043966Y-104420181D01*
X102043966Y-116220181D02*
X97943966Y-116220181D01*
X89843966Y-104420181D02*
X89843966Y-116220181D01*
X102043966Y-104420181D02*
X102043966Y-106820181D01*
X102043966Y-109020181D02*
X102043966Y-111620181D01*
X93943966Y-116220181D02*
X89843966Y-116220181D01*
X110483075Y-96525182D02*
X83083075Y-96525182D01*
X83083075Y-96525182D02*
X83083075Y-69225182D01*
X83083075Y-69225182D02*
X110483075Y-69225182D01*
X110483075Y-69225182D02*
X110483075Y-96525182D01*
X109933075Y-93225182D02*
X83533075Y-93225182D01*
X83533075Y-93225182D02*
X83533075Y-76625182D01*
X83533075Y-76625182D02*
X109933075Y-76625182D01*
X109933075Y-76625182D02*
X109933075Y-93225182D01*
X101783075Y-96025182D02*
X91783075Y-96025182D01*
X91783075Y-96025182D02*
X91783075Y-93625182D01*
X91783075Y-93625182D02*
X101783075Y-93625182D01*
X101783075Y-93625182D02*
X101783075Y-96025182D01*
D10*
X93253965Y-122495180D02*
X93253965Y-128495180D01*
X81253965Y-128495180D02*
X81253965Y-122495180D01*
X81253965Y-122495180D02*
X93253965Y-122495180D01*
X93253965Y-128495180D02*
X81253965Y-128495180D01*
X116853965Y-95570180D02*
X117753965Y-94870180D01*
X116853965Y-94870180D02*
X116853965Y-96270180D01*
X117753965Y-96270180D02*
X116853965Y-95570180D01*
X117753965Y-94870180D02*
X117753965Y-96270180D01*
X197795268Y-87955074D02*
X197552160Y-89333805D01*
X196908941Y-87798790D02*
X196665833Y-89177521D01*
X197552160Y-89333805D02*
X196787387Y-88488156D01*
X196787387Y-88488156D02*
X197795268Y-87955074D01*
X107625964Y-127836925D02*
X108682182Y-128266348D01*
X108682182Y-128266348D02*
X107469746Y-128966348D01*
X107469746Y-128966348D02*
X107625964Y-127836925D01*
X108232182Y-127486925D02*
X107019746Y-128186925D01*
D16*
X82843964Y-97110181D02*
X82843964Y-98030181D01*
X89063964Y-99670181D02*
X84703964Y-99670181D01*
X85203964Y-98870181D02*
X85203964Y-97870181D01*
X86803964Y-98370181D02*
X89063964Y-98370181D01*
X82843964Y-98310181D02*
X82843964Y-98030181D01*
X89063964Y-97110181D02*
X89063964Y-103230181D01*
X86803964Y-98870181D02*
X89063964Y-98870181D01*
X86803964Y-101470181D02*
X85203964Y-101470181D01*
X82843964Y-102310181D02*
X82843964Y-102030181D01*
X81243964Y-103230181D02*
X81243964Y-102310181D01*
X81243964Y-97110181D02*
X89063964Y-97110181D01*
X81243964Y-98030181D02*
X81243964Y-97110181D01*
X84703964Y-100670181D02*
X89063964Y-100670181D01*
X82843964Y-98030181D02*
X81243964Y-98030181D01*
X82843964Y-103230181D02*
X82843964Y-102310181D01*
X85203964Y-97870181D02*
X86803964Y-97870181D01*
X85203964Y-102470181D02*
X86803964Y-102470181D01*
X86803964Y-102470181D02*
X86803964Y-101470181D01*
X82843964Y-98310181D02*
X81628964Y-98310181D01*
X86803964Y-98870181D02*
X85203964Y-98870181D01*
X85203964Y-101470181D02*
X85203964Y-102470181D01*
X86803964Y-97870181D02*
X86803964Y-98870181D01*
X84703964Y-99670181D02*
X84703964Y-100670181D01*
X89063964Y-103230181D02*
X81243964Y-103230181D01*
X81243964Y-102310181D02*
X82843964Y-102310181D01*
X84163960Y-119430188D02*
X83163960Y-119430188D01*
X84163960Y-114630188D02*
X83163960Y-114630188D01*
X84163960Y-115230188D02*
X84163960Y-114630188D01*
X84163960Y-118830188D02*
X84163960Y-119430188D01*
X81363960Y-118030188D02*
X81363960Y-116030188D01*
D10*
X221735734Y-107178559D02*
X222743615Y-106645477D01*
X221857288Y-106489193D02*
X221614180Y-107867924D01*
X222500507Y-108024208D02*
X221735734Y-107178559D01*
X222743615Y-106645477D02*
X222500507Y-108024208D01*
X136753964Y-72770181D02*
X136753964Y-74170181D01*
X135853964Y-72770181D02*
X135853964Y-74170181D01*
X136753964Y-74170181D02*
X135853964Y-73470181D01*
X135853964Y-73470181D02*
X136753964Y-72770181D01*
X154953965Y-63770180D02*
X154953965Y-65170180D01*
X155853965Y-65170180D02*
X154953965Y-64470180D01*
X154953965Y-64470180D02*
X155853965Y-63770180D01*
X155853965Y-63770180D02*
X155853965Y-65170180D01*
X155832965Y-84255181D02*
X154932965Y-83555181D01*
X154932965Y-82855181D02*
X154932965Y-84255181D01*
X154932965Y-83555181D02*
X155832965Y-82855181D01*
X155832965Y-82855181D02*
X155832965Y-84255181D01*
X190283115Y-125293991D02*
X190040007Y-126672722D01*
X191169442Y-125450275D02*
X190926334Y-126829006D01*
X190926334Y-126829006D02*
X190161561Y-125983357D01*
X190161561Y-125983357D02*
X191169442Y-125450275D01*
X100733965Y-103330180D02*
X101633965Y-102630180D01*
X100733965Y-102630180D02*
X100733965Y-104030180D01*
X101633965Y-102630180D02*
X101633965Y-104030180D01*
X101633965Y-104030180D02*
X100733965Y-103330180D01*
D17*
X156961010Y-73484046D02*
G75*
G03*
X152810466Y-72450181I-7008074J-19286255D01*
G01*
X169239099Y-99778230D02*
G75*
G03*
X170272966Y-95627681I-19286133J7008049D01*
G01*
X170272967Y-89912681D02*
G75*
G03*
X169239101Y-85762135I-20320001J-2857500D01*
G01*
X147095466Y-72450180D02*
G75*
G03*
X142944920Y-73484046I2857500J-20320001D01*
G01*
X130666831Y-85762136D02*
G75*
G03*
X129632966Y-89912681I19286135J-7008045D01*
G01*
X129632966Y-95627681D02*
G75*
G03*
X130666831Y-99778226I20320019J2857506D01*
G01*
D10*
X174508154Y-92918422D02*
X174410494Y-94315012D01*
X175405961Y-92981203D02*
X175308302Y-94377792D01*
X175308302Y-94377792D02*
X174459324Y-93616717D01*
X174459324Y-93616717D02*
X175405961Y-92981203D01*
X175899871Y-73855594D02*
X175802211Y-75252184D01*
X175851041Y-74553889D02*
X176797678Y-73918375D01*
X176797678Y-73918375D02*
X176700019Y-75314964D01*
X176700019Y-75314964D02*
X175851041Y-74553889D01*
X88273330Y-139694546D02*
X89404700Y-139835967D01*
X88768304Y-139199571D02*
X87778355Y-140189520D01*
X89404700Y-139835967D02*
X88414751Y-140825916D01*
X88414751Y-140825916D02*
X88273330Y-139694546D01*
X149253964Y-99170180D02*
X148553964Y-100070180D01*
X147853964Y-99170180D02*
X149253964Y-99170180D01*
X147853964Y-100070180D02*
X149253964Y-100070180D01*
X148553964Y-100070180D02*
X147853964Y-99170180D01*
X116853965Y-76470181D02*
X117753965Y-75770181D01*
X117753965Y-75770181D02*
X117753965Y-77170181D01*
X116853965Y-75770181D02*
X116853965Y-77170181D01*
X117753965Y-77170181D02*
X116853965Y-76470181D01*
X81075193Y-63796409D02*
X83925193Y-63796409D01*
X83925193Y-63796409D02*
X83975193Y-57046409D01*
X81075193Y-57046409D02*
X81075193Y-63796409D01*
X83975193Y-57046409D02*
X81075193Y-57046409D01*
X117553965Y-115360181D02*
X116653965Y-114660181D01*
X117553965Y-113960181D02*
X117553965Y-115360181D01*
X116653965Y-113960181D02*
X116653965Y-115360181D01*
X116653965Y-114660181D02*
X117553965Y-113960181D01*
X219152161Y-126633805D02*
X218387388Y-125788156D01*
X219395269Y-125255074D02*
X219152161Y-126633805D01*
X218387388Y-125788156D02*
X219395269Y-125255074D01*
X218508942Y-125098790D02*
X218265834Y-126477521D01*
X105643965Y-51940181D02*
X105643965Y-82420181D01*
X87863965Y-49400181D02*
X105643965Y-49400181D01*
X90403965Y-82420181D02*
X87863965Y-82420181D01*
X87863965Y-51940181D02*
X90403965Y-51940181D01*
X87863965Y-82420181D02*
X87863965Y-49400181D01*
X103103965Y-51940181D02*
X105643965Y-51940181D01*
X105643965Y-49400181D02*
X105643965Y-82420181D01*
X105643965Y-82420181D02*
X103103965Y-82420181D01*
X90403965Y-51940181D02*
X90403965Y-82420181D01*
X87863965Y-82420181D02*
X87863965Y-51940181D01*
X103103965Y-82420181D02*
X103103965Y-51940181D01*
X152657965Y-121075181D02*
X151257965Y-121075181D01*
X151257965Y-121075181D02*
X151957965Y-120175181D01*
X152657965Y-120175181D02*
X151257965Y-120175181D01*
X151957965Y-120175181D02*
X152657965Y-121075181D01*
X93872414Y-97029181D02*
X92094414Y-97029181D01*
X93872414Y-99315181D02*
X93872414Y-97029181D01*
X92094414Y-99315181D02*
X93872414Y-99315181D01*
X92094414Y-97029181D02*
X92094414Y-99315181D01*
X101456415Y-97029181D02*
X99678415Y-97029181D01*
X101456415Y-99315181D02*
X101456415Y-97029181D01*
X99678415Y-99315181D02*
X101456415Y-99315181D01*
X99678415Y-97029181D02*
X99678415Y-99315181D01*
X194389964Y-53577181D02*
X194389964Y-55863181D01*
X194389964Y-55863181D02*
X196167964Y-55863181D01*
X196167964Y-53577181D02*
X194389964Y-53577181D01*
X196167964Y-55863181D02*
X196167964Y-53577181D01*
X98911415Y-97029181D02*
X97133415Y-97029181D01*
X98911415Y-99315181D02*
X98911415Y-97029181D01*
X97133415Y-97029181D02*
X97133415Y-99315181D01*
X97133415Y-99315181D02*
X98911415Y-99315181D01*
X83142965Y-103727180D02*
X81364965Y-103727180D01*
X81364965Y-106013180D02*
X83142965Y-106013180D01*
X83142965Y-106013180D02*
X83142965Y-103727180D01*
X81364965Y-103727180D02*
X81364965Y-106013180D01*
X92805331Y-133177578D02*
X91916331Y-131637784D01*
X89936597Y-132780784D02*
X90825597Y-134320578D01*
X91916331Y-131637784D02*
X89936597Y-132780784D01*
X90825597Y-134320578D02*
X92805331Y-133177578D01*
X94630965Y-97029181D02*
X94630965Y-99315181D01*
X94630965Y-99315181D02*
X96408965Y-99315181D01*
X96408965Y-99315181D02*
X96408965Y-97029181D01*
X96408965Y-97029181D02*
X94630965Y-97029181D01*
X84917965Y-103727181D02*
X83139965Y-103727181D01*
X84917965Y-106013181D02*
X84917965Y-103727181D01*
X83139965Y-103727181D02*
X83139965Y-106013181D01*
X83139965Y-106013181D02*
X84917965Y-106013181D01*
X196889964Y-55863181D02*
X198667964Y-55863181D01*
X198667964Y-55863181D02*
X198667964Y-53577181D01*
X196889964Y-53577181D02*
X196889964Y-55863181D01*
X198667964Y-53577181D02*
X196889964Y-53577181D01*
X206342965Y-53577181D02*
X204564965Y-53577181D01*
X204564965Y-55863181D02*
X206342965Y-55863181D01*
X204564965Y-53577181D02*
X204564965Y-55863181D01*
X206342965Y-55863181D02*
X206342965Y-53577181D01*
D18*
X90432780Y-54405926D03*
X90432780Y-56945926D03*
X90432780Y-59485926D03*
X90432780Y-62025926D03*
X90432780Y-64565926D03*
X90432780Y-67105926D03*
X90432780Y-69645926D03*
X90432780Y-72185926D03*
X90432780Y-74725926D03*
X90432780Y-77265926D03*
X90432780Y-79805926D03*
X90432780Y-82345926D03*
X105672780Y-82345926D03*
X105672780Y-79805926D03*
X105672780Y-77265926D03*
X105672780Y-74725926D03*
X105672780Y-72185926D03*
X105672780Y-69645926D03*
X105672780Y-67105926D03*
X105672780Y-64565926D03*
X105672780Y-62025926D03*
X105672780Y-59485926D03*
X105672780Y-56945926D03*
X105672780Y-54405926D03*
M02*
