G04 #@! TF.GenerationSoftware,KiCad,Pcbnew,(6.0.8)*
G04 #@! TF.CreationDate,2022-11-27T04:27:55-08:00*
G04 #@! TF.ProjectId,klor1_3,6b6c6f72-315f-4332-9e6b-696361645f70,v1.3.0*
G04 #@! TF.SameCoordinates,Original*
G04 #@! TF.FileFunction,Soldermask,Top*
G04 #@! TF.FilePolarity,Negative*
%FSLAX46Y46*%
G04 Gerber Fmt 4.6, Leading zero omitted, Abs format (unit mm)*
G04 Created by KiCad (PCBNEW (6.0.8)) date 2022-11-27 04:27:55*
%MOMM*%
%LPD*%
G01*
G04 APERTURE LIST*
G04 Aperture macros list*
%AMRoundRect*
0 Rectangle with rounded corners*
0 $1 Rounding radius*
0 $2 $3 $4 $5 $6 $7 $8 $9 X,Y pos of 4 corners*
0 Add a 4 corners polygon primitive as box body*
4,1,4,$2,$3,$4,$5,$6,$7,$8,$9,$2,$3,0*
0 Add four circle primitives for the rounded corners*
1,1,$1+$1,$2,$3*
1,1,$1+$1,$4,$5*
1,1,$1+$1,$6,$7*
1,1,$1+$1,$8,$9*
0 Add four rect primitives between the rounded corners*
20,1,$1+$1,$2,$3,$4,$5,0*
20,1,$1+$1,$4,$5,$6,$7,0*
20,1,$1+$1,$6,$7,$8,$9,0*
20,1,$1+$1,$8,$9,$2,$3,0*%
%AMRotRect*
0 Rectangle, with rotation*
0 The origin of the aperture is its center*
0 $1 length*
0 $2 width*
0 $3 Rotation angle, in degrees counterclockwise*
0 Add horizontal line*
21,1,$1,$2,0,0,$3*%
G04 Aperture macros list end*
%ADD10C,0.150000*%
%ADD11C,0.000000*%
%ADD12C,0.000001*%
%ADD13C,2.500000*%
%ADD14R,1.600000X1.000000*%
%ADD15C,5.000000*%
%ADD16RotRect,1.600000X1.000000X195.000000*%
%ADD17RotRect,1.600000X1.000000X210.000000*%
%ADD18RotRect,1.600000X1.000000X225.000000*%
%ADD19RotRect,1.600000X1.000000X170.000000*%
%ADD20RotRect,1.600000X1.000000X176.000000*%
%ADD21R,1.143000X0.635000*%
%ADD22C,3.200000*%
%ADD23RotRect,1.800000X1.500000X350.000000*%
%ADD24R,1.800000X1.500000*%
%ADD25RotRect,1.800000X1.500000X356.000000*%
%ADD26RotRect,1.800000X1.500000X285.000000*%
%ADD27R,2.200000X2.200000*%
%ADD28C,2.200000*%
%ADD29C,2.000000*%
%ADD30R,3.200000X2.000000*%
%ADD31O,1.600000X2.000000*%
%ADD32O,2.500000X1.700000*%
%ADD33C,1.200000*%
%ADD34RotRect,1.800000X1.500000X300.000000*%
%ADD35O,1.750000X1.200000*%
%ADD36RoundRect,0.225000X-0.225000X0.425000X-0.225000X-0.425000X0.225000X-0.425000X0.225000X0.425000X0*%
%ADD37RoundRect,0.150000X-0.750000X0.150000X-0.750000X-0.150000X0.750000X-0.150000X0.750000X0.150000X0*%
%ADD38RoundRect,0.187500X-0.712500X0.187500X-0.712500X-0.187500X0.712500X-0.187500X0.712500X0.187500X0*%
%ADD39C,0.900000*%
%ADD40C,4.400000*%
%ADD41RotRect,1.800000X1.500000X315.000000*%
%ADD42R,1.500000X1.800000*%
%ADD43RoundRect,0.142858X-0.857142X0.857142X-0.857142X-0.857142X0.857142X-0.857142X0.857142X0.857142X0*%
%ADD44R,2.800000X1.000000*%
%ADD45R,1.000000X0.700000*%
%ADD46C,1.524000*%
%ADD47O,1.700000X1.700000*%
%ADD48C,1.700000*%
G04 APERTURE END LIST*
D10*
X110930924Y-52131115D02*
X110774359Y-52119269D01*
X110625207Y-52084895D01*
X110485213Y-52029736D01*
X110315813Y-51926874D01*
X110169928Y-51794296D01*
X110051691Y-51636137D01*
X109965237Y-51456531D01*
X109923741Y-51310238D01*
X109904192Y-51155951D01*
X109902855Y-51103047D01*
D11*
G36*
X92081221Y-87101292D02*
G01*
X92081222Y-86720185D01*
X93609182Y-86720185D01*
X93609183Y-85573330D01*
X93990293Y-85573330D01*
X93990293Y-85192222D01*
X99339931Y-85192221D01*
X99339931Y-85573330D01*
X99721039Y-85573330D01*
X99721039Y-86720184D01*
X101249001Y-86720185D01*
X101249001Y-87101291D01*
X101630111Y-87101291D01*
X101630111Y-89395003D01*
X101249003Y-89395003D01*
X101249002Y-89776110D01*
X99721040Y-89776109D01*
X99721040Y-91304076D01*
X95140676Y-91304076D01*
X95140675Y-90922966D01*
X95902894Y-90922966D01*
X95902894Y-90157219D01*
X96284001Y-90157219D01*
X96284001Y-89395003D01*
X97046219Y-89395003D01*
X97046219Y-90157219D01*
X97430856Y-90157219D01*
X97430856Y-90922965D01*
X98193074Y-90922966D01*
X98193074Y-90157219D01*
X97811964Y-90157219D01*
X97811964Y-89395003D01*
X97430855Y-89395003D01*
X97430856Y-88632783D01*
X97811964Y-88248146D01*
X97430855Y-88629257D01*
X95902893Y-88629256D01*
X95518254Y-88248146D01*
X95902894Y-88632783D01*
X95902894Y-89395003D01*
X95518254Y-89395002D01*
X95518254Y-90157218D01*
X95137146Y-90157219D01*
X95137147Y-91304074D01*
X93609183Y-91304075D01*
X93609183Y-89776110D01*
X92081221Y-89776110D01*
X92081222Y-89395003D01*
X91700110Y-89395003D01*
X91700110Y-87867038D01*
X94371401Y-87867038D01*
X94756039Y-87867039D01*
X94756038Y-88248146D01*
X95518254Y-88248146D01*
X95518253Y-87867039D01*
X97430856Y-87867039D01*
X97811964Y-87867038D01*
X97811964Y-88248146D01*
X98574185Y-88248146D01*
X98574186Y-87867038D01*
X98958821Y-87867038D01*
X98958820Y-87101292D01*
X98574186Y-87101293D01*
X98574186Y-86720185D01*
X97811964Y-86720185D01*
X97811965Y-87101292D01*
X97430857Y-87101291D01*
X97430856Y-87867039D01*
X95518253Y-87867039D01*
X95518253Y-87867038D01*
X95902894Y-87867038D01*
X95902894Y-87101292D01*
X95518254Y-87101292D01*
X95518254Y-86720185D01*
X94756040Y-86720185D01*
X94756040Y-87101291D01*
X94371401Y-87101292D01*
X94371401Y-87867038D01*
X91700110Y-87867038D01*
X91700110Y-87101290D01*
X92081221Y-87101292D01*
G37*
D10*
X113261212Y-50109247D02*
X113261212Y-51137316D01*
X109183207Y-52131115D02*
X109971392Y-52131116D01*
X111958993Y-51103047D02*
X111958993Y-51103047D01*
X113295480Y-52165385D02*
X112781445Y-51137316D01*
D12*
G36*
X163548770Y-110553275D02*
G01*
X163547327Y-110553218D01*
X163550855Y-110553218D01*
X163548770Y-110553275D01*
G37*
X163548770Y-110553275D02*
X163547327Y-110553218D01*
X163550855Y-110553218D01*
X163548770Y-110553275D01*
D10*
X109183207Y-50074980D02*
X109183207Y-52131115D01*
X113261212Y-51137316D02*
X112267413Y-51137317D01*
X107812449Y-52165385D02*
X108840518Y-50074980D01*
D12*
G36*
X157537195Y-111717298D02*
G01*
X157544772Y-111670479D01*
X157554401Y-111624372D01*
X157566035Y-111579028D01*
X157579623Y-111534495D01*
X157595117Y-111490822D01*
X157612464Y-111448058D01*
X157631615Y-111406252D01*
X157652522Y-111365453D01*
X157675135Y-111325711D01*
X157699402Y-111287075D01*
X157725275Y-111249592D01*
X157752708Y-111213313D01*
X157781645Y-111178286D01*
X157812038Y-111144562D01*
X157843840Y-111112190D01*
X157876998Y-111081218D01*
X157911463Y-111051692D01*
X157947188Y-111023666D01*
X157984119Y-110997186D01*
X158022211Y-110972305D01*
X158061410Y-110949065D01*
X158069644Y-110944658D01*
X158708721Y-110944658D01*
X158789835Y-111025767D01*
X158870949Y-110944658D01*
X158708721Y-110944658D01*
X158069644Y-110944658D01*
X158069646Y-110944657D01*
X158101668Y-110927523D01*
X158142935Y-110907723D01*
X158185163Y-110889715D01*
X158228300Y-110873550D01*
X158272299Y-110859275D01*
X158317106Y-110846938D01*
X158362674Y-110836593D01*
X158408952Y-110828283D01*
X158398328Y-110817706D01*
X159181296Y-110817706D01*
X159840786Y-110817706D01*
X159840785Y-110553219D01*
X159840621Y-110543022D01*
X159840131Y-110532934D01*
X159839320Y-110522955D01*
X159838196Y-110513090D01*
X159836761Y-110503347D01*
X159835020Y-110493725D01*
X159832980Y-110484229D01*
X159830648Y-110474865D01*
X159828024Y-110465634D01*
X159825115Y-110456542D01*
X159821929Y-110447592D01*
X159818468Y-110438786D01*
X159814740Y-110430134D01*
X159810745Y-110421633D01*
X159806496Y-110413288D01*
X159801993Y-110405107D01*
X159797241Y-110397089D01*
X159792246Y-110389243D01*
X159787013Y-110381567D01*
X159781548Y-110374070D01*
X159769943Y-110359622D01*
X159757468Y-110345928D01*
X159744168Y-110333019D01*
X159730080Y-110320925D01*
X159715251Y-110309680D01*
X159699718Y-110299313D01*
X159181296Y-110817706D01*
X158398328Y-110817706D01*
X158398327Y-110817705D01*
X157583709Y-110006614D01*
X157675405Y-109914925D01*
X158578234Y-110814178D01*
X158997909Y-110814177D01*
X159558651Y-110253468D01*
X158257306Y-110253468D01*
X158257305Y-110122988D01*
X159544545Y-110122988D01*
X159553100Y-110123071D01*
X159561572Y-110123318D01*
X159569961Y-110123731D01*
X159578269Y-110124311D01*
X159586493Y-110125054D01*
X159594635Y-110125964D01*
X159602693Y-110127038D01*
X159610670Y-110128278D01*
X159618564Y-110129682D01*
X159626374Y-110131253D01*
X159634103Y-110132989D01*
X159641748Y-110134889D01*
X159649312Y-110136956D01*
X159656792Y-110139188D01*
X159664191Y-110141585D01*
X159671505Y-110144147D01*
X159900740Y-109914926D01*
X159992433Y-110006614D01*
X159794940Y-110204096D01*
X159814975Y-110219213D01*
X159834057Y-110235435D01*
X159852135Y-110252712D01*
X159869164Y-110270989D01*
X159885101Y-110290220D01*
X159899893Y-110310345D01*
X159913498Y-110331321D01*
X159925867Y-110353091D01*
X159936958Y-110375605D01*
X159946718Y-110398810D01*
X159955104Y-110422658D01*
X159962071Y-110447094D01*
X159967570Y-110472066D01*
X159971554Y-110497525D01*
X159973982Y-110523418D01*
X159974799Y-110549692D01*
X159974799Y-111925019D01*
X159692665Y-111925019D01*
X159995959Y-112228297D01*
X159904267Y-112319985D01*
X159509278Y-111925018D01*
X158765147Y-111925019D01*
X158765147Y-111794539D01*
X159378790Y-111794540D01*
X158789835Y-111205618D01*
X158200878Y-111794540D01*
X158758095Y-111794540D01*
X158758095Y-111925019D01*
X158070391Y-111925019D01*
X157675404Y-112319986D01*
X157583711Y-112228297D01*
X157887004Y-111925019D01*
X157527282Y-111925019D01*
X157527282Y-111861543D01*
X157528400Y-111812879D01*
X157529423Y-111798066D01*
X157657770Y-111798066D01*
X158013965Y-111798066D01*
X158694615Y-111117456D01*
X158691089Y-111113930D01*
X158885055Y-111113930D01*
X159562178Y-111794540D01*
X159844313Y-111794540D01*
X159844313Y-110944658D01*
X159054337Y-110944658D01*
X158885055Y-111113930D01*
X158691089Y-111113930D01*
X158691088Y-111113929D01*
X158525334Y-110948185D01*
X158482288Y-110951173D01*
X158439805Y-110956140D01*
X158397932Y-110963039D01*
X158356714Y-110971823D01*
X158316200Y-110982445D01*
X158276434Y-110994861D01*
X158237464Y-111009023D01*
X158199336Y-111024884D01*
X158162096Y-111042400D01*
X158125793Y-111061521D01*
X158090470Y-111082203D01*
X158056175Y-111104396D01*
X158022955Y-111128058D01*
X157990856Y-111153141D01*
X157959924Y-111179597D01*
X157930206Y-111207381D01*
X157901749Y-111236447D01*
X157874599Y-111266745D01*
X157848803Y-111298234D01*
X157824405Y-111330864D01*
X157801456Y-111364588D01*
X157779999Y-111399360D01*
X157760081Y-111435136D01*
X157741748Y-111471867D01*
X157725049Y-111509506D01*
X157710030Y-111548010D01*
X157696734Y-111587328D01*
X157685211Y-111627419D01*
X157675508Y-111668229D01*
X157667668Y-111709719D01*
X157661739Y-111751836D01*
X157657770Y-111794540D01*
X157657770Y-111798066D01*
X157529423Y-111798066D01*
X157531722Y-111764782D01*
X157537195Y-111717298D01*
G37*
X157537195Y-111717298D02*
X157544772Y-111670479D01*
X157554401Y-111624372D01*
X157566035Y-111579028D01*
X157579623Y-111534495D01*
X157595117Y-111490822D01*
X157612464Y-111448058D01*
X157631615Y-111406252D01*
X157652522Y-111365453D01*
X157675135Y-111325711D01*
X157699402Y-111287075D01*
X157725275Y-111249592D01*
X157752708Y-111213313D01*
X157781645Y-111178286D01*
X157812038Y-111144562D01*
X157843840Y-111112190D01*
X157876998Y-111081218D01*
X157911463Y-111051692D01*
X157947188Y-111023666D01*
X157984119Y-110997186D01*
X158022211Y-110972305D01*
X158061410Y-110949065D01*
X158069644Y-110944658D01*
X158708721Y-110944658D01*
X158789835Y-111025767D01*
X158870949Y-110944658D01*
X158708721Y-110944658D01*
X158069644Y-110944658D01*
X158069646Y-110944657D01*
X158101668Y-110927523D01*
X158142935Y-110907723D01*
X158185163Y-110889715D01*
X158228300Y-110873550D01*
X158272299Y-110859275D01*
X158317106Y-110846938D01*
X158362674Y-110836593D01*
X158408952Y-110828283D01*
X158398328Y-110817706D01*
X159181296Y-110817706D01*
X159840786Y-110817706D01*
X159840785Y-110553219D01*
X159840621Y-110543022D01*
X159840131Y-110532934D01*
X159839320Y-110522955D01*
X159838196Y-110513090D01*
X159836761Y-110503347D01*
X159835020Y-110493725D01*
X159832980Y-110484229D01*
X159830648Y-110474865D01*
X159828024Y-110465634D01*
X159825115Y-110456542D01*
X159821929Y-110447592D01*
X159818468Y-110438786D01*
X159814740Y-110430134D01*
X159810745Y-110421633D01*
X159806496Y-110413288D01*
X159801993Y-110405107D01*
X159797241Y-110397089D01*
X159792246Y-110389243D01*
X159787013Y-110381567D01*
X159781548Y-110374070D01*
X159769943Y-110359622D01*
X159757468Y-110345928D01*
X159744168Y-110333019D01*
X159730080Y-110320925D01*
X159715251Y-110309680D01*
X159699718Y-110299313D01*
X159181296Y-110817706D01*
X158398328Y-110817706D01*
X158398327Y-110817705D01*
X157583709Y-110006614D01*
X157675405Y-109914925D01*
X158578234Y-110814178D01*
X158997909Y-110814177D01*
X159558651Y-110253468D01*
X158257306Y-110253468D01*
X158257305Y-110122988D01*
X159544545Y-110122988D01*
X159553100Y-110123071D01*
X159561572Y-110123318D01*
X159569961Y-110123731D01*
X159578269Y-110124311D01*
X159586493Y-110125054D01*
X159594635Y-110125964D01*
X159602693Y-110127038D01*
X159610670Y-110128278D01*
X159618564Y-110129682D01*
X159626374Y-110131253D01*
X159634103Y-110132989D01*
X159641748Y-110134889D01*
X159649312Y-110136956D01*
X159656792Y-110139188D01*
X159664191Y-110141585D01*
X159671505Y-110144147D01*
X159900740Y-109914926D01*
X159992433Y-110006614D01*
X159794940Y-110204096D01*
X159814975Y-110219213D01*
X159834057Y-110235435D01*
X159852135Y-110252712D01*
X159869164Y-110270989D01*
X159885101Y-110290220D01*
X159899893Y-110310345D01*
X159913498Y-110331321D01*
X159925867Y-110353091D01*
X159936958Y-110375605D01*
X159946718Y-110398810D01*
X159955104Y-110422658D01*
X159962071Y-110447094D01*
X159967570Y-110472066D01*
X159971554Y-110497525D01*
X159973982Y-110523418D01*
X159974799Y-110549692D01*
X159974799Y-111925019D01*
X159692665Y-111925019D01*
X159995959Y-112228297D01*
X159904267Y-112319985D01*
X159509278Y-111925018D01*
X158765147Y-111925019D01*
X158765147Y-111794539D01*
X159378790Y-111794540D01*
X158789835Y-111205618D01*
X158200878Y-111794540D01*
X158758095Y-111794540D01*
X158758095Y-111925019D01*
X158070391Y-111925019D01*
X157675404Y-112319986D01*
X157583711Y-112228297D01*
X157887004Y-111925019D01*
X157527282Y-111925019D01*
X157527282Y-111861543D01*
X157528400Y-111812879D01*
X157529423Y-111798066D01*
X157657770Y-111798066D01*
X158013965Y-111798066D01*
X158694615Y-111117456D01*
X158691089Y-111113930D01*
X158885055Y-111113930D01*
X159562178Y-111794540D01*
X159844313Y-111794540D01*
X159844313Y-110944658D01*
X159054337Y-110944658D01*
X158885055Y-111113930D01*
X158691089Y-111113930D01*
X158691088Y-111113929D01*
X158525334Y-110948185D01*
X158482288Y-110951173D01*
X158439805Y-110956140D01*
X158397932Y-110963039D01*
X158356714Y-110971823D01*
X158316200Y-110982445D01*
X158276434Y-110994861D01*
X158237464Y-111009023D01*
X158199336Y-111024884D01*
X158162096Y-111042400D01*
X158125793Y-111061521D01*
X158090470Y-111082203D01*
X158056175Y-111104396D01*
X158022955Y-111128058D01*
X157990856Y-111153141D01*
X157959924Y-111179597D01*
X157930206Y-111207381D01*
X157901749Y-111236447D01*
X157874599Y-111266745D01*
X157848803Y-111298234D01*
X157824405Y-111330864D01*
X157801456Y-111364588D01*
X157779999Y-111399360D01*
X157760081Y-111435136D01*
X157741748Y-111471867D01*
X157725049Y-111509506D01*
X157710030Y-111548010D01*
X157696734Y-111587328D01*
X157685211Y-111627419D01*
X157675508Y-111668229D01*
X157667668Y-111709719D01*
X157661739Y-111751836D01*
X157657770Y-111794540D01*
X157657770Y-111798066D01*
X157529423Y-111798066D01*
X157531722Y-111764782D01*
X157537195Y-111717298D01*
G36*
X162110010Y-113956569D02*
G01*
X162121981Y-113957451D01*
X162133758Y-113958907D01*
X162145327Y-113960920D01*
X162156680Y-113963480D01*
X162167797Y-113966571D01*
X162178669Y-113970179D01*
X162189280Y-113974290D01*
X162199619Y-113978894D01*
X162209668Y-113983974D01*
X162219417Y-113989517D01*
X162228853Y-113995511D01*
X162237960Y-114001941D01*
X162246725Y-114008793D01*
X162255134Y-114016057D01*
X162263176Y-114023715D01*
X162270834Y-114031756D01*
X162278097Y-114040167D01*
X162284952Y-114048931D01*
X162291383Y-114058037D01*
X162297377Y-114067471D01*
X162302921Y-114077220D01*
X162308001Y-114087268D01*
X162312605Y-114097605D01*
X162316716Y-114108217D01*
X162320325Y-114119088D01*
X162323416Y-114130206D01*
X162325974Y-114141557D01*
X162327988Y-114153127D01*
X162329442Y-114164902D01*
X162330327Y-114176872D01*
X162330624Y-114189018D01*
X162330326Y-114201167D01*
X162329443Y-114213136D01*
X162327987Y-114224912D01*
X162325974Y-114236482D01*
X162323416Y-114247833D01*
X162320324Y-114258951D01*
X162316717Y-114269821D01*
X162312605Y-114280432D01*
X162308001Y-114290770D01*
X162302921Y-114300819D01*
X162297376Y-114310568D01*
X162291381Y-114320002D01*
X162284952Y-114329109D01*
X162278098Y-114337873D01*
X162270835Y-114346282D01*
X162263176Y-114354323D01*
X162255134Y-114361982D01*
X162246724Y-114369244D01*
X162237960Y-114376099D01*
X162228853Y-114382528D01*
X162219417Y-114388521D01*
X162209668Y-114394066D01*
X162199618Y-114399146D01*
X162189281Y-114403749D01*
X162178669Y-114407861D01*
X162167797Y-114411468D01*
X162156680Y-114414558D01*
X162145328Y-114417118D01*
X162133758Y-114419131D01*
X162121980Y-114420587D01*
X162110011Y-114421470D01*
X162097863Y-114421767D01*
X162085714Y-114421470D01*
X162073745Y-114420587D01*
X162061968Y-114419131D01*
X162050396Y-114417118D01*
X162039045Y-114414559D01*
X162027927Y-114411468D01*
X162017056Y-114407861D01*
X162006444Y-114403749D01*
X161996106Y-114399146D01*
X161986056Y-114394066D01*
X161976307Y-114388522D01*
X161966873Y-114382527D01*
X161957765Y-114376098D01*
X161949000Y-114369244D01*
X161940591Y-114361982D01*
X161932549Y-114354324D01*
X161924891Y-114346281D01*
X161917627Y-114337873D01*
X161910774Y-114329108D01*
X161904343Y-114320003D01*
X161898349Y-114310568D01*
X161892805Y-114300818D01*
X161887724Y-114290769D01*
X161883120Y-114280432D01*
X161879008Y-114269821D01*
X161875400Y-114258950D01*
X161872310Y-114247834D01*
X161869752Y-114236483D01*
X161867737Y-114224912D01*
X161866282Y-114213135D01*
X161865398Y-114201166D01*
X161865102Y-114189019D01*
X161865398Y-114177183D01*
X161866283Y-114165484D01*
X161867738Y-114153941D01*
X161869751Y-114142568D01*
X161872310Y-114131383D01*
X161875401Y-114120398D01*
X161879009Y-114109630D01*
X161883120Y-114099094D01*
X161887723Y-114088807D01*
X161892804Y-114078783D01*
X161898347Y-114069037D01*
X161904343Y-114059587D01*
X161910773Y-114050445D01*
X161917628Y-114041630D01*
X161924891Y-114033157D01*
X161932550Y-114025038D01*
X161940591Y-114017292D01*
X161949001Y-114009934D01*
X161957766Y-114002978D01*
X161966873Y-113996441D01*
X161976307Y-113990338D01*
X161986056Y-113984683D01*
X161996106Y-113979493D01*
X162006444Y-113974785D01*
X162017055Y-113970572D01*
X162027928Y-113966871D01*
X162039045Y-113963697D01*
X162050397Y-113961066D01*
X162061967Y-113958992D01*
X162073745Y-113957490D01*
X162085714Y-113956579D01*
X162097863Y-113956272D01*
X162110010Y-113956569D01*
G37*
X162110010Y-113956569D02*
X162121981Y-113957451D01*
X162133758Y-113958907D01*
X162145327Y-113960920D01*
X162156680Y-113963480D01*
X162167797Y-113966571D01*
X162178669Y-113970179D01*
X162189280Y-113974290D01*
X162199619Y-113978894D01*
X162209668Y-113983974D01*
X162219417Y-113989517D01*
X162228853Y-113995511D01*
X162237960Y-114001941D01*
X162246725Y-114008793D01*
X162255134Y-114016057D01*
X162263176Y-114023715D01*
X162270834Y-114031756D01*
X162278097Y-114040167D01*
X162284952Y-114048931D01*
X162291383Y-114058037D01*
X162297377Y-114067471D01*
X162302921Y-114077220D01*
X162308001Y-114087268D01*
X162312605Y-114097605D01*
X162316716Y-114108217D01*
X162320325Y-114119088D01*
X162323416Y-114130206D01*
X162325974Y-114141557D01*
X162327988Y-114153127D01*
X162329442Y-114164902D01*
X162330327Y-114176872D01*
X162330624Y-114189018D01*
X162330326Y-114201167D01*
X162329443Y-114213136D01*
X162327987Y-114224912D01*
X162325974Y-114236482D01*
X162323416Y-114247833D01*
X162320324Y-114258951D01*
X162316717Y-114269821D01*
X162312605Y-114280432D01*
X162308001Y-114290770D01*
X162302921Y-114300819D01*
X162297376Y-114310568D01*
X162291381Y-114320002D01*
X162284952Y-114329109D01*
X162278098Y-114337873D01*
X162270835Y-114346282D01*
X162263176Y-114354323D01*
X162255134Y-114361982D01*
X162246724Y-114369244D01*
X162237960Y-114376099D01*
X162228853Y-114382528D01*
X162219417Y-114388521D01*
X162209668Y-114394066D01*
X162199618Y-114399146D01*
X162189281Y-114403749D01*
X162178669Y-114407861D01*
X162167797Y-114411468D01*
X162156680Y-114414558D01*
X162145328Y-114417118D01*
X162133758Y-114419131D01*
X162121980Y-114420587D01*
X162110011Y-114421470D01*
X162097863Y-114421767D01*
X162085714Y-114421470D01*
X162073745Y-114420587D01*
X162061968Y-114419131D01*
X162050396Y-114417118D01*
X162039045Y-114414559D01*
X162027927Y-114411468D01*
X162017056Y-114407861D01*
X162006444Y-114403749D01*
X161996106Y-114399146D01*
X161986056Y-114394066D01*
X161976307Y-114388522D01*
X161966873Y-114382527D01*
X161957765Y-114376098D01*
X161949000Y-114369244D01*
X161940591Y-114361982D01*
X161932549Y-114354324D01*
X161924891Y-114346281D01*
X161917627Y-114337873D01*
X161910774Y-114329108D01*
X161904343Y-114320003D01*
X161898349Y-114310568D01*
X161892805Y-114300818D01*
X161887724Y-114290769D01*
X161883120Y-114280432D01*
X161879008Y-114269821D01*
X161875400Y-114258950D01*
X161872310Y-114247834D01*
X161869752Y-114236483D01*
X161867737Y-114224912D01*
X161866282Y-114213135D01*
X161865398Y-114201166D01*
X161865102Y-114189019D01*
X161865398Y-114177183D01*
X161866283Y-114165484D01*
X161867738Y-114153941D01*
X161869751Y-114142568D01*
X161872310Y-114131383D01*
X161875401Y-114120398D01*
X161879009Y-114109630D01*
X161883120Y-114099094D01*
X161887723Y-114088807D01*
X161892804Y-114078783D01*
X161898347Y-114069037D01*
X161904343Y-114059587D01*
X161910773Y-114050445D01*
X161917628Y-114041630D01*
X161924891Y-114033157D01*
X161932550Y-114025038D01*
X161940591Y-114017292D01*
X161949001Y-114009934D01*
X161957766Y-114002978D01*
X161966873Y-113996441D01*
X161976307Y-113990338D01*
X161986056Y-113984683D01*
X161996106Y-113979493D01*
X162006444Y-113974785D01*
X162017055Y-113970572D01*
X162027928Y-113966871D01*
X162039045Y-113963697D01*
X162050397Y-113961066D01*
X162061967Y-113958992D01*
X162073745Y-113957490D01*
X162085714Y-113956579D01*
X162097863Y-113956272D01*
X162110010Y-113956569D01*
D10*
X110930924Y-50074978D02*
X111087488Y-50086823D01*
X111236639Y-50121197D01*
X111376633Y-50176356D01*
X111546033Y-50279218D01*
X111691918Y-50411796D01*
X111810154Y-50569955D01*
X111896609Y-50749562D01*
X111938105Y-50895855D01*
X111957655Y-51050142D01*
X111958993Y-51103047D01*
X109902855Y-51103047D02*
X109914700Y-50946481D01*
X109949074Y-50797330D01*
X110004233Y-50657336D01*
X110107095Y-50487936D01*
X110239672Y-50342051D01*
X110397832Y-50223814D01*
X110577438Y-50137360D01*
X110723731Y-50095864D01*
X110878019Y-50076315D01*
X110930924Y-50074978D01*
X108840519Y-52165385D02*
X108326485Y-51103047D01*
X112233145Y-50109248D02*
X113261212Y-50109247D01*
D12*
G36*
X157678930Y-112986491D02*
G01*
X158010437Y-113317979D01*
X158049606Y-113283812D01*
X158090360Y-113251438D01*
X158132633Y-113220913D01*
X158176358Y-113192293D01*
X158221466Y-113165637D01*
X158267893Y-113141000D01*
X158315570Y-113118440D01*
X158364429Y-113098015D01*
X158414405Y-113079778D01*
X158465428Y-113063789D01*
X158517433Y-113050105D01*
X158570354Y-113038780D01*
X158624121Y-113029874D01*
X158678668Y-113023442D01*
X158733929Y-113019541D01*
X158789834Y-113018227D01*
X158845702Y-113019540D01*
X158900857Y-113023441D01*
X158955245Y-113029874D01*
X159008819Y-113038781D01*
X159061526Y-113050105D01*
X159113311Y-113063790D01*
X159164125Y-113079779D01*
X159213918Y-113098015D01*
X159262636Y-113118442D01*
X159310226Y-113140999D01*
X159356641Y-113165637D01*
X159401824Y-113192293D01*
X159445726Y-113220912D01*
X159488296Y-113251436D01*
X159529482Y-113283811D01*
X159569232Y-113317979D01*
X159900740Y-112986489D01*
X159992434Y-113078178D01*
X159660924Y-113409667D01*
X159695094Y-113448833D01*
X159727470Y-113489584D01*
X159757997Y-113531855D01*
X159786619Y-113575576D01*
X159813276Y-113620684D01*
X159837914Y-113667107D01*
X159860474Y-113714781D01*
X159880902Y-113763637D01*
X159899138Y-113813610D01*
X159915129Y-113864630D01*
X159928814Y-113916634D01*
X159940139Y-113969549D01*
X159949047Y-114023315D01*
X159955478Y-114077860D01*
X159959379Y-114133117D01*
X159960694Y-114189019D01*
X159959380Y-114244883D01*
X159955478Y-114300035D01*
X159949046Y-114354421D01*
X159940139Y-114407992D01*
X159928814Y-114460694D01*
X159915128Y-114512478D01*
X159899139Y-114563289D01*
X159880902Y-114613079D01*
X159860475Y-114661793D01*
X159837914Y-114709382D01*
X159813276Y-114755792D01*
X159786620Y-114800975D01*
X159757997Y-114844873D01*
X159727470Y-114887442D01*
X159695093Y-114928624D01*
X159660925Y-114968373D01*
X159992433Y-115299860D01*
X159900740Y-115391550D01*
X159569231Y-115060060D01*
X159530064Y-115094227D01*
X159489310Y-115126602D01*
X159447037Y-115157127D01*
X159403311Y-115185746D01*
X159358202Y-115212402D01*
X159311777Y-115237040D01*
X159264100Y-115259598D01*
X159215241Y-115280024D01*
X159165266Y-115298260D01*
X159114242Y-115314249D01*
X159062235Y-115327935D01*
X159009315Y-115339258D01*
X158955549Y-115348165D01*
X158901000Y-115354596D01*
X158845741Y-115358497D01*
X158789834Y-115359811D01*
X158733968Y-115358498D01*
X158678814Y-115354597D01*
X158624424Y-115348164D01*
X158570850Y-115339258D01*
X158518144Y-115327934D01*
X158466357Y-115314249D01*
X158415545Y-115298260D01*
X158365751Y-115280024D01*
X158317034Y-115259598D01*
X158269442Y-115237038D01*
X158223028Y-115212403D01*
X158177846Y-115185745D01*
X158133943Y-115157127D01*
X158091372Y-115126602D01*
X158050187Y-115094227D01*
X158010437Y-115060061D01*
X157678929Y-115391548D01*
X157587236Y-115299860D01*
X157918745Y-114968372D01*
X157918744Y-114968371D01*
X158102132Y-114968371D01*
X158137171Y-114998035D01*
X158173485Y-115026159D01*
X158211030Y-115052693D01*
X158249756Y-115077582D01*
X158289621Y-115100778D01*
X158330573Y-115122228D01*
X158372572Y-115141880D01*
X158415565Y-115159683D01*
X158459510Y-115175586D01*
X158504361Y-115189534D01*
X158550066Y-115201478D01*
X158596584Y-115211367D01*
X158643865Y-115219150D01*
X158691865Y-115224771D01*
X158740537Y-115228183D01*
X158789834Y-115229331D01*
X158793362Y-115229331D01*
X158842078Y-115228183D01*
X158890317Y-115224771D01*
X158938020Y-115219150D01*
X158985124Y-115211368D01*
X159031568Y-115201479D01*
X159077287Y-115189534D01*
X159122220Y-115175585D01*
X159166307Y-115159684D01*
X159209486Y-115141879D01*
X159251693Y-115122228D01*
X159292866Y-115100777D01*
X159332944Y-115077583D01*
X159371863Y-115052692D01*
X159409566Y-115026158D01*
X159445987Y-114998035D01*
X159481065Y-114968372D01*
X158789835Y-114280707D01*
X158102132Y-114968371D01*
X157918744Y-114968371D01*
X157884576Y-114929206D01*
X157852199Y-114888454D01*
X157821671Y-114846184D01*
X157793052Y-114802462D01*
X157766393Y-114757355D01*
X157741756Y-114710932D01*
X157719195Y-114663257D01*
X157698767Y-114614400D01*
X157680530Y-114564429D01*
X157664540Y-114513407D01*
X157650855Y-114461405D01*
X157639531Y-114408488D01*
X157630624Y-114354725D01*
X157624191Y-114300179D01*
X157620289Y-114244921D01*
X157618976Y-114189020D01*
X157749463Y-114189020D01*
X157750612Y-114237732D01*
X157754024Y-114285970D01*
X157759646Y-114333670D01*
X157767427Y-114380771D01*
X157777317Y-114427211D01*
X157789263Y-114472929D01*
X157803213Y-114517859D01*
X157819115Y-114561944D01*
X157836921Y-114605120D01*
X157856573Y-114647323D01*
X157878024Y-114688495D01*
X157901221Y-114728572D01*
X157926112Y-114767490D01*
X157952648Y-114805188D01*
X157980772Y-114841608D01*
X158010437Y-114876682D01*
X158698143Y-114189020D01*
X158694616Y-114185493D01*
X158881529Y-114185493D01*
X159572759Y-114876682D01*
X159602424Y-114841027D01*
X159630548Y-114804170D01*
X159657084Y-114766157D01*
X159681976Y-114727028D01*
X159705173Y-114686824D01*
X159726623Y-114645589D01*
X159746276Y-114603360D01*
X159764081Y-114560181D01*
X159779984Y-114516093D01*
X159793934Y-114471139D01*
X159805878Y-114425355D01*
X159815769Y-114378789D01*
X159823550Y-114331477D01*
X159829172Y-114283463D01*
X159832584Y-114234788D01*
X159833732Y-114185493D01*
X159833734Y-114181967D01*
X159832583Y-114133254D01*
X159829173Y-114085016D01*
X159823550Y-114037316D01*
X159815769Y-113990214D01*
X159805879Y-113943774D01*
X159793933Y-113898058D01*
X159779984Y-113853125D01*
X159764080Y-113809042D01*
X159746276Y-113765866D01*
X159726623Y-113723662D01*
X159705172Y-113682491D01*
X159681976Y-113642415D01*
X159657083Y-113603496D01*
X159630549Y-113565796D01*
X159602424Y-113529377D01*
X159572759Y-113494303D01*
X158881529Y-114185493D01*
X158694616Y-114185493D01*
X158010437Y-113501356D01*
X157980772Y-113536430D01*
X157952646Y-113572850D01*
X157926113Y-113610550D01*
X157901221Y-113649468D01*
X157878024Y-113689544D01*
X157856573Y-113730715D01*
X157836919Y-113772918D01*
X157819116Y-113816093D01*
X157803213Y-113860179D01*
X157789262Y-113905111D01*
X157777317Y-113950827D01*
X157767427Y-113997266D01*
X157759646Y-114044369D01*
X157754024Y-114092069D01*
X157750612Y-114140307D01*
X157749463Y-114189020D01*
X157618976Y-114189020D01*
X157618976Y-114189018D01*
X157620290Y-114133155D01*
X157624191Y-114078005D01*
X157630624Y-114023618D01*
X157639530Y-113970047D01*
X157650855Y-113917344D01*
X157664541Y-113865561D01*
X157680531Y-113814749D01*
X157698767Y-113764960D01*
X157719194Y-113716245D01*
X157741757Y-113668657D01*
X157766394Y-113622245D01*
X157793051Y-113577065D01*
X157821672Y-113533165D01*
X157852199Y-113490597D01*
X157884577Y-113449414D01*
X157918746Y-113409666D01*
X157915218Y-113406141D01*
X157915217Y-113406140D01*
X158098604Y-113406140D01*
X158786307Y-114093804D01*
X159477538Y-113406141D01*
X159442498Y-113376476D01*
X159406184Y-113348353D01*
X159368641Y-113321820D01*
X159329913Y-113296930D01*
X159290050Y-113273733D01*
X159249096Y-113252284D01*
X159207098Y-113232632D01*
X159164103Y-113214828D01*
X159120158Y-113198926D01*
X159075309Y-113184978D01*
X159029603Y-113173033D01*
X158983085Y-113163145D01*
X158935803Y-113155362D01*
X158887804Y-113149740D01*
X158839131Y-113146329D01*
X158789835Y-113145181D01*
X158740498Y-113146330D01*
X158691714Y-113149740D01*
X158643541Y-113155363D01*
X158596032Y-113163145D01*
X158549248Y-113173032D01*
X158503244Y-113184978D01*
X158458076Y-113198927D01*
X158413803Y-113214828D01*
X158370479Y-113232632D01*
X158328163Y-113252284D01*
X158286912Y-113273734D01*
X158246779Y-113296930D01*
X158207827Y-113321819D01*
X158170110Y-113348352D01*
X158133684Y-113376477D01*
X158098604Y-113406140D01*
X157915217Y-113406140D01*
X157587237Y-113078178D01*
X157678930Y-112986491D01*
G37*
X157678930Y-112986491D02*
X158010437Y-113317979D01*
X158049606Y-113283812D01*
X158090360Y-113251438D01*
X158132633Y-113220913D01*
X158176358Y-113192293D01*
X158221466Y-113165637D01*
X158267893Y-113141000D01*
X158315570Y-113118440D01*
X158364429Y-113098015D01*
X158414405Y-113079778D01*
X158465428Y-113063789D01*
X158517433Y-113050105D01*
X158570354Y-113038780D01*
X158624121Y-113029874D01*
X158678668Y-113023442D01*
X158733929Y-113019541D01*
X158789834Y-113018227D01*
X158845702Y-113019540D01*
X158900857Y-113023441D01*
X158955245Y-113029874D01*
X159008819Y-113038781D01*
X159061526Y-113050105D01*
X159113311Y-113063790D01*
X159164125Y-113079779D01*
X159213918Y-113098015D01*
X159262636Y-113118442D01*
X159310226Y-113140999D01*
X159356641Y-113165637D01*
X159401824Y-113192293D01*
X159445726Y-113220912D01*
X159488296Y-113251436D01*
X159529482Y-113283811D01*
X159569232Y-113317979D01*
X159900740Y-112986489D01*
X159992434Y-113078178D01*
X159660924Y-113409667D01*
X159695094Y-113448833D01*
X159727470Y-113489584D01*
X159757997Y-113531855D01*
X159786619Y-113575576D01*
X159813276Y-113620684D01*
X159837914Y-113667107D01*
X159860474Y-113714781D01*
X159880902Y-113763637D01*
X159899138Y-113813610D01*
X159915129Y-113864630D01*
X159928814Y-113916634D01*
X159940139Y-113969549D01*
X159949047Y-114023315D01*
X159955478Y-114077860D01*
X159959379Y-114133117D01*
X159960694Y-114189019D01*
X159959380Y-114244883D01*
X159955478Y-114300035D01*
X159949046Y-114354421D01*
X159940139Y-114407992D01*
X159928814Y-114460694D01*
X159915128Y-114512478D01*
X159899139Y-114563289D01*
X159880902Y-114613079D01*
X159860475Y-114661793D01*
X159837914Y-114709382D01*
X159813276Y-114755792D01*
X159786620Y-114800975D01*
X159757997Y-114844873D01*
X159727470Y-114887442D01*
X159695093Y-114928624D01*
X159660925Y-114968373D01*
X159992433Y-115299860D01*
X159900740Y-115391550D01*
X159569231Y-115060060D01*
X159530064Y-115094227D01*
X159489310Y-115126602D01*
X159447037Y-115157127D01*
X159403311Y-115185746D01*
X159358202Y-115212402D01*
X159311777Y-115237040D01*
X159264100Y-115259598D01*
X159215241Y-115280024D01*
X159165266Y-115298260D01*
X159114242Y-115314249D01*
X159062235Y-115327935D01*
X159009315Y-115339258D01*
X158955549Y-115348165D01*
X158901000Y-115354596D01*
X158845741Y-115358497D01*
X158789834Y-115359811D01*
X158733968Y-115358498D01*
X158678814Y-115354597D01*
X158624424Y-115348164D01*
X158570850Y-115339258D01*
X158518144Y-115327934D01*
X158466357Y-115314249D01*
X158415545Y-115298260D01*
X158365751Y-115280024D01*
X158317034Y-115259598D01*
X158269442Y-115237038D01*
X158223028Y-115212403D01*
X158177846Y-115185745D01*
X158133943Y-115157127D01*
X158091372Y-115126602D01*
X158050187Y-115094227D01*
X158010437Y-115060061D01*
X157678929Y-115391548D01*
X157587236Y-115299860D01*
X157918745Y-114968372D01*
X157918744Y-114968371D01*
X158102132Y-114968371D01*
X158137171Y-114998035D01*
X158173485Y-115026159D01*
X158211030Y-115052693D01*
X158249756Y-115077582D01*
X158289621Y-115100778D01*
X158330573Y-115122228D01*
X158372572Y-115141880D01*
X158415565Y-115159683D01*
X158459510Y-115175586D01*
X158504361Y-115189534D01*
X158550066Y-115201478D01*
X158596584Y-115211367D01*
X158643865Y-115219150D01*
X158691865Y-115224771D01*
X158740537Y-115228183D01*
X158789834Y-115229331D01*
X158793362Y-115229331D01*
X158842078Y-115228183D01*
X158890317Y-115224771D01*
X158938020Y-115219150D01*
X158985124Y-115211368D01*
X159031568Y-115201479D01*
X159077287Y-115189534D01*
X159122220Y-115175585D01*
X159166307Y-115159684D01*
X159209486Y-115141879D01*
X159251693Y-115122228D01*
X159292866Y-115100777D01*
X159332944Y-115077583D01*
X159371863Y-115052692D01*
X159409566Y-115026158D01*
X159445987Y-114998035D01*
X159481065Y-114968372D01*
X158789835Y-114280707D01*
X158102132Y-114968371D01*
X157918744Y-114968371D01*
X157884576Y-114929206D01*
X157852199Y-114888454D01*
X157821671Y-114846184D01*
X157793052Y-114802462D01*
X157766393Y-114757355D01*
X157741756Y-114710932D01*
X157719195Y-114663257D01*
X157698767Y-114614400D01*
X157680530Y-114564429D01*
X157664540Y-114513407D01*
X157650855Y-114461405D01*
X157639531Y-114408488D01*
X157630624Y-114354725D01*
X157624191Y-114300179D01*
X157620289Y-114244921D01*
X157618976Y-114189020D01*
X157749463Y-114189020D01*
X157750612Y-114237732D01*
X157754024Y-114285970D01*
X157759646Y-114333670D01*
X157767427Y-114380771D01*
X157777317Y-114427211D01*
X157789263Y-114472929D01*
X157803213Y-114517859D01*
X157819115Y-114561944D01*
X157836921Y-114605120D01*
X157856573Y-114647323D01*
X157878024Y-114688495D01*
X157901221Y-114728572D01*
X157926112Y-114767490D01*
X157952648Y-114805188D01*
X157980772Y-114841608D01*
X158010437Y-114876682D01*
X158698143Y-114189020D01*
X158694616Y-114185493D01*
X158881529Y-114185493D01*
X159572759Y-114876682D01*
X159602424Y-114841027D01*
X159630548Y-114804170D01*
X159657084Y-114766157D01*
X159681976Y-114727028D01*
X159705173Y-114686824D01*
X159726623Y-114645589D01*
X159746276Y-114603360D01*
X159764081Y-114560181D01*
X159779984Y-114516093D01*
X159793934Y-114471139D01*
X159805878Y-114425355D01*
X159815769Y-114378789D01*
X159823550Y-114331477D01*
X159829172Y-114283463D01*
X159832584Y-114234788D01*
X159833732Y-114185493D01*
X159833734Y-114181967D01*
X159832583Y-114133254D01*
X159829173Y-114085016D01*
X159823550Y-114037316D01*
X159815769Y-113990214D01*
X159805879Y-113943774D01*
X159793933Y-113898058D01*
X159779984Y-113853125D01*
X159764080Y-113809042D01*
X159746276Y-113765866D01*
X159726623Y-113723662D01*
X159705172Y-113682491D01*
X159681976Y-113642415D01*
X159657083Y-113603496D01*
X159630549Y-113565796D01*
X159602424Y-113529377D01*
X159572759Y-113494303D01*
X158881529Y-114185493D01*
X158694616Y-114185493D01*
X158010437Y-113501356D01*
X157980772Y-113536430D01*
X157952646Y-113572850D01*
X157926113Y-113610550D01*
X157901221Y-113649468D01*
X157878024Y-113689544D01*
X157856573Y-113730715D01*
X157836919Y-113772918D01*
X157819116Y-113816093D01*
X157803213Y-113860179D01*
X157789262Y-113905111D01*
X157777317Y-113950827D01*
X157767427Y-113997266D01*
X157759646Y-114044369D01*
X157754024Y-114092069D01*
X157750612Y-114140307D01*
X157749463Y-114189020D01*
X157618976Y-114189020D01*
X157618976Y-114189018D01*
X157620290Y-114133155D01*
X157624191Y-114078005D01*
X157630624Y-114023618D01*
X157639530Y-113970047D01*
X157650855Y-113917344D01*
X157664541Y-113865561D01*
X157680531Y-113814749D01*
X157698767Y-113764960D01*
X157719194Y-113716245D01*
X157741757Y-113668657D01*
X157766394Y-113622245D01*
X157793051Y-113577065D01*
X157821672Y-113533165D01*
X157852199Y-113490597D01*
X157884577Y-113449414D01*
X157918746Y-113409666D01*
X157915218Y-113406141D01*
X157915217Y-113406140D01*
X158098604Y-113406140D01*
X158786307Y-114093804D01*
X159477538Y-113406141D01*
X159442498Y-113376476D01*
X159406184Y-113348353D01*
X159368641Y-113321820D01*
X159329913Y-113296930D01*
X159290050Y-113273733D01*
X159249096Y-113252284D01*
X159207098Y-113232632D01*
X159164103Y-113214828D01*
X159120158Y-113198926D01*
X159075309Y-113184978D01*
X159029603Y-113173033D01*
X158983085Y-113163145D01*
X158935803Y-113155362D01*
X158887804Y-113149740D01*
X158839131Y-113146329D01*
X158789835Y-113145181D01*
X158740498Y-113146330D01*
X158691714Y-113149740D01*
X158643541Y-113155363D01*
X158596032Y-113163145D01*
X158549248Y-113173032D01*
X158503244Y-113184978D01*
X158458076Y-113198927D01*
X158413803Y-113214828D01*
X158370479Y-113232632D01*
X158328163Y-113252284D01*
X158286912Y-113273734D01*
X158246779Y-113296930D01*
X158207827Y-113321819D01*
X158170110Y-113348352D01*
X158133684Y-113376477D01*
X158098604Y-113406140D01*
X157915217Y-113406140D01*
X157587237Y-113078178D01*
X157678930Y-112986491D01*
G36*
X163272247Y-113018228D02*
G01*
X163272248Y-115363337D01*
X160927005Y-115363337D01*
X160927005Y-115232857D01*
X161053964Y-115232857D01*
X161565333Y-115232858D01*
X161524797Y-115210920D01*
X161485212Y-115187454D01*
X161446618Y-115162500D01*
X161409058Y-115136099D01*
X161372572Y-115108294D01*
X161337200Y-115079125D01*
X161302989Y-115048633D01*
X161269973Y-115016861D01*
X161238200Y-114983848D01*
X161207705Y-114949637D01*
X161178534Y-114914269D01*
X161150727Y-114877786D01*
X161124326Y-114840228D01*
X161099370Y-114801634D01*
X161075902Y-114762052D01*
X161053965Y-114721518D01*
X161053964Y-115232857D01*
X160927005Y-115232857D01*
X160927004Y-114721518D01*
X160927003Y-114189019D01*
X161053964Y-114189019D01*
X161055328Y-114242587D01*
X161059373Y-114295469D01*
X161066033Y-114347598D01*
X161075241Y-114398907D01*
X161086933Y-114449330D01*
X161101040Y-114498800D01*
X161117496Y-114547252D01*
X161136236Y-114594619D01*
X161157191Y-114640834D01*
X161180295Y-114685830D01*
X161205484Y-114729541D01*
X161232689Y-114771902D01*
X161261845Y-114812842D01*
X161292883Y-114852299D01*
X161325739Y-114890207D01*
X161360345Y-114926495D01*
X161396635Y-114961098D01*
X161434543Y-114993953D01*
X161474003Y-115024990D01*
X161514948Y-115054142D01*
X161557310Y-115081347D01*
X161601022Y-115106535D01*
X161646022Y-115129638D01*
X161692239Y-115150590D01*
X161739609Y-115169329D01*
X161788064Y-115185784D01*
X161837536Y-115199890D01*
X161887962Y-115211581D01*
X161939275Y-115220790D01*
X161991407Y-115227449D01*
X162044291Y-115231494D01*
X162097863Y-115232856D01*
X162630392Y-115232856D01*
X163141761Y-115232857D01*
X163141761Y-114721518D01*
X163119822Y-114762051D01*
X163096355Y-114801635D01*
X163071399Y-114840228D01*
X163044997Y-114877786D01*
X163017190Y-114914269D01*
X162988019Y-114949637D01*
X162957526Y-114983848D01*
X162925750Y-115016861D01*
X162892737Y-115048632D01*
X162858523Y-115079124D01*
X162823154Y-115108295D01*
X162786667Y-115136099D01*
X162749106Y-115162501D01*
X162710514Y-115187453D01*
X162670927Y-115210919D01*
X162630392Y-115232856D01*
X162097863Y-115232856D01*
X162151434Y-115231493D01*
X162204318Y-115227451D01*
X162256450Y-115220790D01*
X162307764Y-115211582D01*
X162358189Y-115199890D01*
X162407663Y-115185786D01*
X162456117Y-115169328D01*
X162503487Y-115150591D01*
X162549703Y-115129636D01*
X162594702Y-115106534D01*
X162638416Y-115081346D01*
X162680777Y-115054142D01*
X162721722Y-115024990D01*
X162761181Y-114993953D01*
X162799090Y-114961098D01*
X162835379Y-114926495D01*
X162869986Y-114890206D01*
X162902843Y-114852300D01*
X162933880Y-114812843D01*
X162963035Y-114771901D01*
X162990241Y-114729540D01*
X163015430Y-114685830D01*
X163038535Y-114640834D01*
X163059489Y-114594620D01*
X163078228Y-114547253D01*
X163094684Y-114498800D01*
X163108791Y-114449330D01*
X163120482Y-114398907D01*
X163129690Y-114347598D01*
X163136352Y-114295469D01*
X163140397Y-114242587D01*
X163141760Y-114189018D01*
X163140397Y-114135451D01*
X163136353Y-114082570D01*
X163129692Y-114030442D01*
X163120483Y-113979131D01*
X163108791Y-113928709D01*
X163094685Y-113879238D01*
X163078228Y-113830785D01*
X163059490Y-113783419D01*
X163038534Y-113737205D01*
X163015429Y-113692209D01*
X162990241Y-113648497D01*
X162963035Y-113606138D01*
X162933881Y-113565196D01*
X162902842Y-113525739D01*
X162869987Y-113487834D01*
X162835380Y-113451543D01*
X162799089Y-113416940D01*
X162761180Y-113384086D01*
X162721722Y-113353049D01*
X162680778Y-113323895D01*
X162638416Y-113296692D01*
X162594701Y-113271505D01*
X162549704Y-113248402D01*
X162503486Y-113227448D01*
X162456117Y-113208711D01*
X162407662Y-113192253D01*
X162358190Y-113178147D01*
X162307763Y-113166457D01*
X162256450Y-113157249D01*
X162204318Y-113150589D01*
X162151433Y-113146543D01*
X162097902Y-113145181D01*
X162630391Y-113145181D01*
X162670928Y-113167120D01*
X162710515Y-113190584D01*
X162749106Y-113215539D01*
X162786667Y-113241939D01*
X162823155Y-113269744D01*
X162858524Y-113298912D01*
X162892736Y-113329405D01*
X162925750Y-113361179D01*
X162957526Y-113394191D01*
X162988018Y-113428402D01*
X163017189Y-113463770D01*
X163044996Y-113500255D01*
X163071399Y-113537811D01*
X163096355Y-113576403D01*
X163119821Y-113615986D01*
X163141760Y-113656520D01*
X163141761Y-113145181D01*
X162630391Y-113145181D01*
X162097902Y-113145181D01*
X162097863Y-113145180D01*
X162044292Y-113146545D01*
X161991407Y-113150589D01*
X161939275Y-113157249D01*
X161887962Y-113166457D01*
X161837537Y-113178148D01*
X161788062Y-113192254D01*
X161739608Y-113208709D01*
X161692239Y-113227448D01*
X161646021Y-113248402D01*
X161601022Y-113271505D01*
X161557310Y-113296691D01*
X161514946Y-113323894D01*
X161474004Y-113353049D01*
X161434543Y-113384085D01*
X161396636Y-113416940D01*
X161360344Y-113451543D01*
X161325738Y-113487832D01*
X161292883Y-113525739D01*
X161261843Y-113565196D01*
X161232688Y-113606138D01*
X161205483Y-113648497D01*
X161180295Y-113692208D01*
X161157191Y-113737205D01*
X161136236Y-113783419D01*
X161117496Y-113830785D01*
X161101040Y-113879238D01*
X161086933Y-113928708D01*
X161075241Y-113979131D01*
X161066033Y-114030440D01*
X161059372Y-114082570D01*
X161055328Y-114135451D01*
X161053964Y-114189019D01*
X160927003Y-114189019D01*
X160927003Y-113145182D01*
X161053964Y-113145182D01*
X161053965Y-113656520D01*
X161075902Y-113615987D01*
X161099371Y-113576404D01*
X161124326Y-113537813D01*
X161150728Y-113500254D01*
X161178534Y-113463769D01*
X161207706Y-113428402D01*
X161238200Y-113394190D01*
X161269973Y-113361179D01*
X161302989Y-113329405D01*
X161337200Y-113298914D01*
X161372572Y-113269744D01*
X161409057Y-113241938D01*
X161446617Y-113215539D01*
X161485212Y-113190584D01*
X161524796Y-113167119D01*
X161565333Y-113145182D01*
X161053964Y-113145182D01*
X160927003Y-113145182D01*
X160927003Y-113018228D01*
X163272247Y-113018228D01*
G37*
X163272247Y-113018228D02*
X163272248Y-115363337D01*
X160927005Y-115363337D01*
X160927005Y-115232857D01*
X161053964Y-115232857D01*
X161565333Y-115232858D01*
X161524797Y-115210920D01*
X161485212Y-115187454D01*
X161446618Y-115162500D01*
X161409058Y-115136099D01*
X161372572Y-115108294D01*
X161337200Y-115079125D01*
X161302989Y-115048633D01*
X161269973Y-115016861D01*
X161238200Y-114983848D01*
X161207705Y-114949637D01*
X161178534Y-114914269D01*
X161150727Y-114877786D01*
X161124326Y-114840228D01*
X161099370Y-114801634D01*
X161075902Y-114762052D01*
X161053965Y-114721518D01*
X161053964Y-115232857D01*
X160927005Y-115232857D01*
X160927004Y-114721518D01*
X160927003Y-114189019D01*
X161053964Y-114189019D01*
X161055328Y-114242587D01*
X161059373Y-114295469D01*
X161066033Y-114347598D01*
X161075241Y-114398907D01*
X161086933Y-114449330D01*
X161101040Y-114498800D01*
X161117496Y-114547252D01*
X161136236Y-114594619D01*
X161157191Y-114640834D01*
X161180295Y-114685830D01*
X161205484Y-114729541D01*
X161232689Y-114771902D01*
X161261845Y-114812842D01*
X161292883Y-114852299D01*
X161325739Y-114890207D01*
X161360345Y-114926495D01*
X161396635Y-114961098D01*
X161434543Y-114993953D01*
X161474003Y-115024990D01*
X161514948Y-115054142D01*
X161557310Y-115081347D01*
X161601022Y-115106535D01*
X161646022Y-115129638D01*
X161692239Y-115150590D01*
X161739609Y-115169329D01*
X161788064Y-115185784D01*
X161837536Y-115199890D01*
X161887962Y-115211581D01*
X161939275Y-115220790D01*
X161991407Y-115227449D01*
X162044291Y-115231494D01*
X162097863Y-115232856D01*
X162630392Y-115232856D01*
X163141761Y-115232857D01*
X163141761Y-114721518D01*
X163119822Y-114762051D01*
X163096355Y-114801635D01*
X163071399Y-114840228D01*
X163044997Y-114877786D01*
X163017190Y-114914269D01*
X162988019Y-114949637D01*
X162957526Y-114983848D01*
X162925750Y-115016861D01*
X162892737Y-115048632D01*
X162858523Y-115079124D01*
X162823154Y-115108295D01*
X162786667Y-115136099D01*
X162749106Y-115162501D01*
X162710514Y-115187453D01*
X162670927Y-115210919D01*
X162630392Y-115232856D01*
X162097863Y-115232856D01*
X162151434Y-115231493D01*
X162204318Y-115227451D01*
X162256450Y-115220790D01*
X162307764Y-115211582D01*
X162358189Y-115199890D01*
X162407663Y-115185786D01*
X162456117Y-115169328D01*
X162503487Y-115150591D01*
X162549703Y-115129636D01*
X162594702Y-115106534D01*
X162638416Y-115081346D01*
X162680777Y-115054142D01*
X162721722Y-115024990D01*
X162761181Y-114993953D01*
X162799090Y-114961098D01*
X162835379Y-114926495D01*
X162869986Y-114890206D01*
X162902843Y-114852300D01*
X162933880Y-114812843D01*
X162963035Y-114771901D01*
X162990241Y-114729540D01*
X163015430Y-114685830D01*
X163038535Y-114640834D01*
X163059489Y-114594620D01*
X163078228Y-114547253D01*
X163094684Y-114498800D01*
X163108791Y-114449330D01*
X163120482Y-114398907D01*
X163129690Y-114347598D01*
X163136352Y-114295469D01*
X163140397Y-114242587D01*
X163141760Y-114189018D01*
X163140397Y-114135451D01*
X163136353Y-114082570D01*
X163129692Y-114030442D01*
X163120483Y-113979131D01*
X163108791Y-113928709D01*
X163094685Y-113879238D01*
X163078228Y-113830785D01*
X163059490Y-113783419D01*
X163038534Y-113737205D01*
X163015429Y-113692209D01*
X162990241Y-113648497D01*
X162963035Y-113606138D01*
X162933881Y-113565196D01*
X162902842Y-113525739D01*
X162869987Y-113487834D01*
X162835380Y-113451543D01*
X162799089Y-113416940D01*
X162761180Y-113384086D01*
X162721722Y-113353049D01*
X162680778Y-113323895D01*
X162638416Y-113296692D01*
X162594701Y-113271505D01*
X162549704Y-113248402D01*
X162503486Y-113227448D01*
X162456117Y-113208711D01*
X162407662Y-113192253D01*
X162358190Y-113178147D01*
X162307763Y-113166457D01*
X162256450Y-113157249D01*
X162204318Y-113150589D01*
X162151433Y-113146543D01*
X162097902Y-113145181D01*
X162630391Y-113145181D01*
X162670928Y-113167120D01*
X162710515Y-113190584D01*
X162749106Y-113215539D01*
X162786667Y-113241939D01*
X162823155Y-113269744D01*
X162858524Y-113298912D01*
X162892736Y-113329405D01*
X162925750Y-113361179D01*
X162957526Y-113394191D01*
X162988018Y-113428402D01*
X163017189Y-113463770D01*
X163044996Y-113500255D01*
X163071399Y-113537811D01*
X163096355Y-113576403D01*
X163119821Y-113615986D01*
X163141760Y-113656520D01*
X163141761Y-113145181D01*
X162630391Y-113145181D01*
X162097902Y-113145181D01*
X162097863Y-113145180D01*
X162044292Y-113146545D01*
X161991407Y-113150589D01*
X161939275Y-113157249D01*
X161887962Y-113166457D01*
X161837537Y-113178148D01*
X161788062Y-113192254D01*
X161739608Y-113208709D01*
X161692239Y-113227448D01*
X161646021Y-113248402D01*
X161601022Y-113271505D01*
X161557310Y-113296691D01*
X161514946Y-113323894D01*
X161474004Y-113353049D01*
X161434543Y-113384085D01*
X161396636Y-113416940D01*
X161360344Y-113451543D01*
X161325738Y-113487832D01*
X161292883Y-113525739D01*
X161261843Y-113565196D01*
X161232688Y-113606138D01*
X161205483Y-113648497D01*
X161180295Y-113692208D01*
X161157191Y-113737205D01*
X161136236Y-113783419D01*
X161117496Y-113830785D01*
X161101040Y-113879238D01*
X161086933Y-113928708D01*
X161075241Y-113979131D01*
X161066033Y-114030440D01*
X161059372Y-114082570D01*
X161055328Y-114135451D01*
X161053964Y-114189019D01*
X160927003Y-114189019D01*
X160927003Y-113145182D01*
X161053964Y-113145182D01*
X161053965Y-113656520D01*
X161075902Y-113615987D01*
X161099371Y-113576404D01*
X161124326Y-113537813D01*
X161150728Y-113500254D01*
X161178534Y-113463769D01*
X161207706Y-113428402D01*
X161238200Y-113394190D01*
X161269973Y-113361179D01*
X161302989Y-113329405D01*
X161337200Y-113298914D01*
X161372572Y-113269744D01*
X161409057Y-113241938D01*
X161446617Y-113215539D01*
X161485212Y-113190584D01*
X161524796Y-113167119D01*
X161565333Y-113145182D01*
X161053964Y-113145182D01*
X160927003Y-113145182D01*
X160927003Y-113018228D01*
X163272247Y-113018228D01*
D10*
X112233145Y-51137316D02*
X112233145Y-50109248D01*
X107812450Y-50074978D02*
X107812449Y-52165385D01*
X112233144Y-52165385D02*
X112233145Y-51137316D01*
X111958993Y-51103047D02*
X111947147Y-51259611D01*
X111912772Y-51408762D01*
X111857613Y-51548756D01*
X111754751Y-51718156D01*
X111622173Y-51864041D01*
X111464014Y-51982278D01*
X111284408Y-52068732D01*
X111138115Y-52110228D01*
X110983828Y-52129777D01*
X110930924Y-52131115D01*
D12*
G36*
X162792529Y-109729868D02*
G01*
X162799629Y-109730115D01*
X162814770Y-109731107D01*
X162832059Y-109732761D01*
X162852572Y-109735076D01*
X162874256Y-109738121D01*
X162895657Y-109741957D01*
X162916763Y-109746572D01*
X162937556Y-109751950D01*
X162958025Y-109758077D01*
X162978153Y-109764940D01*
X162997927Y-109772521D01*
X163017333Y-109780809D01*
X163036358Y-109789790D01*
X163054986Y-109799449D01*
X163090995Y-109820744D01*
X163125246Y-109844580D01*
X163157629Y-109870844D01*
X163188028Y-109899424D01*
X163216329Y-109930204D01*
X163242420Y-109963070D01*
X163266185Y-109997907D01*
X163287513Y-110034608D01*
X163306288Y-110073053D01*
X163322397Y-110113130D01*
X163329416Y-110133745D01*
X163335727Y-110154725D01*
X163340384Y-110169768D01*
X163342268Y-110176857D01*
X163343883Y-110183821D01*
X163345249Y-110190783D01*
X163346390Y-110197870D01*
X163347324Y-110205206D01*
X163348071Y-110212913D01*
X163349090Y-110229939D01*
X163349613Y-110249941D01*
X163349833Y-110302840D01*
X163349655Y-110332640D01*
X163349415Y-110345339D01*
X163349062Y-110356783D01*
X163348585Y-110367131D01*
X163347974Y-110376542D01*
X163347219Y-110385180D01*
X163346308Y-110393205D01*
X163345231Y-110400773D01*
X163343979Y-110408048D01*
X163342541Y-110415187D01*
X163340908Y-110422352D01*
X163337009Y-110437403D01*
X163332201Y-110454476D01*
X163325529Y-110475625D01*
X163318660Y-110495555D01*
X163311480Y-110514452D01*
X163303877Y-110532501D01*
X163295738Y-110549888D01*
X163286946Y-110566802D01*
X163277391Y-110583425D01*
X163266958Y-110599945D01*
X163255531Y-110616546D01*
X163243001Y-110633419D01*
X163229251Y-110650744D01*
X163214168Y-110668711D01*
X163197638Y-110687504D01*
X163179549Y-110707309D01*
X163138233Y-110750702D01*
X163106218Y-110785306D01*
X163080485Y-110813298D01*
X163057121Y-110838864D01*
X163061139Y-110842483D01*
X163066460Y-110846660D01*
X163072897Y-110851291D01*
X163080264Y-110856276D01*
X163097043Y-110866882D01*
X163115311Y-110877655D01*
X163133577Y-110887767D01*
X163150357Y-110896388D01*
X163157723Y-110899885D01*
X163164161Y-110902697D01*
X163169481Y-110904726D01*
X163173501Y-110905868D01*
X163179068Y-110907105D01*
X163185142Y-110908181D01*
X163191649Y-110909090D01*
X163198518Y-110909833D01*
X163205676Y-110910412D01*
X163213051Y-110910825D01*
X163220571Y-110911073D01*
X163228164Y-110911155D01*
X163235756Y-110911074D01*
X163243277Y-110910826D01*
X163250652Y-110910412D01*
X163257811Y-110909834D01*
X163264679Y-110909090D01*
X163271186Y-110908181D01*
X163277259Y-110907106D01*
X163282828Y-110905866D01*
X163287045Y-110904568D01*
X163292932Y-110902092D01*
X163300254Y-110898583D01*
X163308782Y-110894185D01*
X163328515Y-110883303D01*
X163350276Y-110870602D01*
X163372199Y-110857240D01*
X163392430Y-110844374D01*
X163409107Y-110833161D01*
X163415529Y-110828536D01*
X163420367Y-110824757D01*
X163421152Y-110824149D01*
X163422172Y-110822368D01*
X163424887Y-110815556D01*
X163428427Y-110804859D01*
X163432711Y-110790815D01*
X163455634Y-110711909D01*
X163468640Y-110668270D01*
X163480322Y-110629920D01*
X163489358Y-110600826D01*
X163494428Y-110584957D01*
X163496533Y-110581114D01*
X163498879Y-110577518D01*
X163501450Y-110574171D01*
X163504238Y-110571072D01*
X163507231Y-110568220D01*
X163510423Y-110565616D01*
X163513799Y-110563261D01*
X163517351Y-110561153D01*
X163521070Y-110559294D01*
X163524943Y-110557682D01*
X163528959Y-110556318D01*
X163533112Y-110555201D01*
X163537388Y-110554335D01*
X163541777Y-110553715D01*
X163546269Y-110553342D01*
X163548770Y-110553275D01*
X163549672Y-110553310D01*
X163552069Y-110553581D01*
X163554511Y-110554024D01*
X163556992Y-110554629D01*
X163559500Y-110555395D01*
X163562027Y-110556310D01*
X163564567Y-110557369D01*
X163567110Y-110558564D01*
X163569648Y-110559887D01*
X163572172Y-110561333D01*
X163577146Y-110564563D01*
X163581965Y-110568195D01*
X163586562Y-110572173D01*
X163590869Y-110576441D01*
X163594821Y-110580942D01*
X163596642Y-110583260D01*
X163598347Y-110585616D01*
X163599932Y-110588003D01*
X163601384Y-110590412D01*
X163602698Y-110592837D01*
X163603864Y-110595269D01*
X163604873Y-110597702D01*
X163605718Y-110600130D01*
X163606389Y-110602546D01*
X163606879Y-110604941D01*
X163607179Y-110607309D01*
X163607280Y-110609642D01*
X163589868Y-110683091D01*
X163542038Y-110869279D01*
X163381574Y-111470104D01*
X163155865Y-112316460D01*
X161039857Y-112316458D01*
X161029277Y-112281193D01*
X160770948Y-111324637D01*
X160688379Y-111011662D01*
X160821203Y-111011662D01*
X160823242Y-111023659D01*
X160831563Y-111058056D01*
X160864406Y-111184459D01*
X160976378Y-111600582D01*
X161135078Y-112189505D01*
X163057120Y-112189505D01*
X163215822Y-111604110D01*
X163219348Y-111600583D01*
X163281342Y-111373675D01*
X163331760Y-111187102D01*
X163365651Y-111060039D01*
X163378048Y-111011661D01*
X163377997Y-111011351D01*
X163377847Y-111011080D01*
X163377599Y-111010851D01*
X163377256Y-111010662D01*
X163376305Y-111010399D01*
X163375018Y-111010283D01*
X163373420Y-111010312D01*
X163371540Y-111010483D01*
X163369399Y-111010787D01*
X163367028Y-111011219D01*
X163364448Y-111011777D01*
X163361690Y-111012453D01*
X163355732Y-111014140D01*
X163349360Y-111016240D01*
X163346084Y-111017434D01*
X163342783Y-111018714D01*
X163337564Y-111021196D01*
X163332450Y-111023371D01*
X163327376Y-111025255D01*
X163322282Y-111026869D01*
X163317106Y-111028236D01*
X163311786Y-111029376D01*
X163306259Y-111030309D01*
X163300462Y-111031056D01*
X163294335Y-111031637D01*
X163287815Y-111032076D01*
X163273350Y-111032598D01*
X163256572Y-111032792D01*
X163236982Y-111032820D01*
X163221085Y-111033269D01*
X163206350Y-111033274D01*
X163192619Y-111032804D01*
X163179729Y-111031828D01*
X163167520Y-111030313D01*
X163155834Y-111028234D01*
X163144509Y-111025551D01*
X163133386Y-111022240D01*
X163122303Y-111018268D01*
X163111102Y-111013603D01*
X163099623Y-111008214D01*
X163087704Y-111002073D01*
X163075186Y-110995146D01*
X163061908Y-110987401D01*
X163032434Y-110969343D01*
X163020594Y-110961601D01*
X163009125Y-110954355D01*
X162998400Y-110947771D01*
X162988792Y-110942014D01*
X162980669Y-110937247D01*
X162974408Y-110933637D01*
X162968954Y-110930552D01*
X162866238Y-111031497D01*
X162623339Y-111272620D01*
X162539297Y-111356339D01*
X162466788Y-111427951D01*
X162405435Y-111487908D01*
X162354870Y-111536666D01*
X162314720Y-111574680D01*
X162284612Y-111602401D01*
X162264175Y-111620288D01*
X162257466Y-111625686D01*
X162253037Y-111628795D01*
X162245446Y-111631934D01*
X162237270Y-111634739D01*
X162228588Y-111637201D01*
X162219479Y-111639319D01*
X162210017Y-111641085D01*
X162200282Y-111642494D01*
X162190349Y-111643543D01*
X162180300Y-111644223D01*
X162170207Y-111644532D01*
X162160152Y-111644465D01*
X162150210Y-111644014D01*
X162140459Y-111643175D01*
X162130976Y-111641945D01*
X162121841Y-111640318D01*
X162113127Y-111638287D01*
X162104916Y-111635847D01*
X162100405Y-111634480D01*
X162096099Y-111633003D01*
X162091960Y-111631392D01*
X162087945Y-111629621D01*
X162084011Y-111627663D01*
X162080120Y-111625496D01*
X162076227Y-111623090D01*
X162072295Y-111620420D01*
X162068279Y-111617460D01*
X162064139Y-111614186D01*
X162059834Y-111610570D01*
X162055322Y-111606589D01*
X162050562Y-111602214D01*
X162045513Y-111597422D01*
X162034383Y-111586476D01*
X161995590Y-111547685D01*
X161956795Y-111582951D01*
X161953333Y-111586915D01*
X161949584Y-111590858D01*
X161945599Y-111594759D01*
X161941422Y-111598599D01*
X161937100Y-111602357D01*
X161932681Y-111606010D01*
X161928209Y-111609541D01*
X161923734Y-111612926D01*
X161919298Y-111616146D01*
X161914950Y-111619179D01*
X161906706Y-111624606D01*
X161899370Y-111629044D01*
X161896159Y-111630837D01*
X161893316Y-111632320D01*
X161887006Y-111634881D01*
X161880035Y-111637260D01*
X161872486Y-111639442D01*
X161864440Y-111641414D01*
X161855983Y-111643157D01*
X161847193Y-111644656D01*
X161838155Y-111645900D01*
X161828953Y-111646868D01*
X161819668Y-111647546D01*
X161810383Y-111647922D01*
X161801180Y-111647975D01*
X161792144Y-111647694D01*
X161783354Y-111647061D01*
X161774897Y-111646061D01*
X161766851Y-111644679D01*
X161759301Y-111642901D01*
X161755655Y-111642167D01*
X161751993Y-111641294D01*
X161744637Y-111639140D01*
X161737272Y-111636469D01*
X161729932Y-111633312D01*
X161722653Y-111629701D01*
X161715474Y-111625668D01*
X161708428Y-111621241D01*
X161701553Y-111616451D01*
X161694884Y-111611333D01*
X161688458Y-111605914D01*
X161682312Y-111600228D01*
X161676479Y-111594301D01*
X161671000Y-111588170D01*
X161665907Y-111581863D01*
X161661238Y-111575409D01*
X161657027Y-111568845D01*
X161635868Y-111537106D01*
X161618234Y-111547685D01*
X161615542Y-111549548D01*
X161612738Y-111551178D01*
X161609788Y-111552590D01*
X161606662Y-111553801D01*
X161603329Y-111554828D01*
X161599761Y-111555682D01*
X161595922Y-111556381D01*
X161591784Y-111556943D01*
X161587316Y-111557379D01*
X161582484Y-111557706D01*
X161571616Y-111558100D01*
X161558928Y-111558244D01*
X161544173Y-111558265D01*
X161535940Y-111558223D01*
X161528393Y-111558094D01*
X161521477Y-111557870D01*
X161515134Y-111557548D01*
X161509307Y-111557125D01*
X161503941Y-111556591D01*
X161498978Y-111555944D01*
X161494359Y-111555179D01*
X161490031Y-111554290D01*
X161485936Y-111553271D01*
X161482016Y-111552119D01*
X161478214Y-111550827D01*
X161474474Y-111549390D01*
X161470740Y-111547803D01*
X161466954Y-111546062D01*
X161463062Y-111544160D01*
X161455260Y-111539719D01*
X161447733Y-111534999D01*
X161440482Y-111530010D01*
X161433511Y-111524764D01*
X161426824Y-111519269D01*
X161420425Y-111513537D01*
X161408506Y-111501401D01*
X161397788Y-111488438D01*
X161388297Y-111474732D01*
X161380069Y-111460364D01*
X161373130Y-111445418D01*
X161367514Y-111429976D01*
X161363252Y-111414121D01*
X161360374Y-111397934D01*
X161358913Y-111381500D01*
X161358898Y-111364901D01*
X161359441Y-111356565D01*
X161360359Y-111348219D01*
X161361653Y-111339872D01*
X161363329Y-111331539D01*
X161365390Y-111323222D01*
X161367839Y-111314937D01*
X161369120Y-111311636D01*
X161370320Y-111308361D01*
X161371435Y-111305136D01*
X161372469Y-111301989D01*
X161373418Y-111298946D01*
X161374287Y-111296032D01*
X161375774Y-111290693D01*
X161376932Y-111286181D01*
X161377758Y-111282704D01*
X161378420Y-111279673D01*
X161373093Y-111276868D01*
X161367715Y-111273764D01*
X161362317Y-111270391D01*
X161356929Y-111266779D01*
X161351583Y-111262962D01*
X161346308Y-111258969D01*
X161341137Y-111254831D01*
X161336099Y-111250579D01*
X161331228Y-111246246D01*
X161326553Y-111241860D01*
X161322105Y-111237455D01*
X161317915Y-111233058D01*
X161314015Y-111228703D01*
X161310434Y-111224421D01*
X161307205Y-111220242D01*
X161304359Y-111216196D01*
X161299314Y-111209119D01*
X161294743Y-111202387D01*
X161290628Y-111195933D01*
X161286946Y-111189693D01*
X161283677Y-111183597D01*
X161280802Y-111177578D01*
X161278299Y-111171569D01*
X161276146Y-111165504D01*
X161274324Y-111159313D01*
X161272812Y-111152935D01*
X161271590Y-111146294D01*
X161270636Y-111139331D01*
X161269930Y-111131975D01*
X161269451Y-111124157D01*
X161269179Y-111115813D01*
X161269095Y-111107169D01*
X161390902Y-111107169D01*
X161390935Y-111110754D01*
X161391240Y-111114305D01*
X161391806Y-111117814D01*
X161392623Y-111121274D01*
X161393683Y-111124673D01*
X161394976Y-111128007D01*
X161396490Y-111131264D01*
X161398219Y-111134437D01*
X161400151Y-111137519D01*
X161402277Y-111140501D01*
X161404586Y-111143371D01*
X161407071Y-111146125D01*
X161409719Y-111148753D01*
X161412522Y-111151248D01*
X161415471Y-111153598D01*
X161418555Y-111155796D01*
X161421766Y-111157839D01*
X161425092Y-111159710D01*
X161428526Y-111161407D01*
X161432056Y-111162918D01*
X161435673Y-111164236D01*
X161439367Y-111165353D01*
X161443130Y-111166261D01*
X161446951Y-111166949D01*
X161450818Y-111167412D01*
X161454726Y-111167639D01*
X161458663Y-111167623D01*
X161462620Y-111167354D01*
X161466587Y-111166826D01*
X161469879Y-111165436D01*
X161474576Y-111162480D01*
X161488848Y-111151234D01*
X161510724Y-111131802D01*
X161541527Y-111102909D01*
X161635205Y-111011606D01*
X161780461Y-110867074D01*
X162076701Y-110570851D01*
X162119021Y-110613169D01*
X162123566Y-110617132D01*
X162127927Y-110621069D01*
X162132095Y-110624954D01*
X162136051Y-110628761D01*
X162139777Y-110632466D01*
X162143261Y-110636042D01*
X162146487Y-110639464D01*
X162149440Y-110642703D01*
X162152102Y-110645736D01*
X162154461Y-110648536D01*
X162156500Y-110651079D01*
X162158201Y-110653339D01*
X162159553Y-110655285D01*
X162160537Y-110656899D01*
X162161137Y-110658150D01*
X162161291Y-110658631D01*
X162161342Y-110659013D01*
X162154469Y-110667052D01*
X162134783Y-110687611D01*
X162062596Y-110760839D01*
X161826307Y-110997555D01*
X161695985Y-111128531D01*
X161587815Y-111238679D01*
X161545654Y-111282325D01*
X161513370Y-111316427D01*
X161492409Y-111339534D01*
X161486627Y-111346513D01*
X161484219Y-111350203D01*
X161482400Y-111354179D01*
X161480903Y-111358165D01*
X161479722Y-111362152D01*
X161478846Y-111366127D01*
X161478273Y-111370083D01*
X161477990Y-111374008D01*
X161477992Y-111377890D01*
X161478269Y-111381721D01*
X161478815Y-111385490D01*
X161479621Y-111389187D01*
X161480682Y-111392802D01*
X161481988Y-111396323D01*
X161483531Y-111399741D01*
X161485304Y-111403044D01*
X161487300Y-111406225D01*
X161489510Y-111409272D01*
X161491926Y-111412173D01*
X161494541Y-111414920D01*
X161497347Y-111417501D01*
X161500338Y-111419905D01*
X161503503Y-111422126D01*
X161506837Y-111424149D01*
X161510330Y-111425965D01*
X161513975Y-111427565D01*
X161517766Y-111428938D01*
X161521693Y-111430072D01*
X161525750Y-111430959D01*
X161529929Y-111431588D01*
X161534221Y-111431948D01*
X161538618Y-111432028D01*
X161543114Y-111431820D01*
X161547699Y-111431311D01*
X161552400Y-111430337D01*
X161557528Y-111428468D01*
X161563515Y-111425306D01*
X161570790Y-111420457D01*
X161590909Y-111404099D01*
X161621319Y-111376211D01*
X161665450Y-111333611D01*
X161726734Y-111273116D01*
X161914474Y-111085716D01*
X162256562Y-110743648D01*
X162302409Y-110789493D01*
X162348257Y-110835337D01*
X162048489Y-111135088D01*
X161952580Y-111231033D01*
X161913439Y-111270270D01*
X161879649Y-111304250D01*
X161850819Y-111333392D01*
X161826555Y-111358124D01*
X161806466Y-111378868D01*
X161797864Y-111387878D01*
X161790159Y-111396047D01*
X161783301Y-111403433D01*
X161777241Y-111410086D01*
X161771929Y-111416060D01*
X161767318Y-111421408D01*
X161763357Y-111426182D01*
X161760001Y-111430436D01*
X161757195Y-111434221D01*
X161754892Y-111437594D01*
X161753044Y-111440604D01*
X161751604Y-111443304D01*
X161750518Y-111445751D01*
X161749740Y-111447994D01*
X161749221Y-111450087D01*
X161748910Y-111452083D01*
X161748759Y-111454036D01*
X161748720Y-111455998D01*
X161748793Y-111460233D01*
X161749009Y-111464344D01*
X161749365Y-111468332D01*
X161749864Y-111472191D01*
X161750501Y-111475924D01*
X161751277Y-111479529D01*
X161752191Y-111483008D01*
X161753239Y-111486357D01*
X161754421Y-111489579D01*
X161755737Y-111492670D01*
X161757186Y-111495631D01*
X161758764Y-111498460D01*
X161760471Y-111501158D01*
X161762305Y-111503722D01*
X161764268Y-111506155D01*
X161766354Y-111508454D01*
X161768564Y-111510618D01*
X161770899Y-111512648D01*
X161773354Y-111514540D01*
X161775929Y-111516298D01*
X161778624Y-111517920D01*
X161781433Y-111519402D01*
X161784362Y-111520747D01*
X161787404Y-111521954D01*
X161790560Y-111523020D01*
X161793829Y-111523948D01*
X161797209Y-111524733D01*
X161800697Y-111525377D01*
X161804295Y-111525879D01*
X161808000Y-111526240D01*
X161811812Y-111526454D01*
X161815728Y-111526527D01*
X161818634Y-111526144D01*
X161822279Y-111524786D01*
X161833086Y-111517875D01*
X161850754Y-111503281D01*
X161877885Y-111478479D01*
X161917086Y-111440947D01*
X161970956Y-111388168D01*
X162133129Y-111226775D01*
X162432896Y-110927025D01*
X162478744Y-110972870D01*
X162524590Y-111018715D01*
X162312989Y-111230303D01*
X162104915Y-111441891D01*
X162104915Y-111466577D01*
X162105678Y-111471123D01*
X162106643Y-111475501D01*
X162107800Y-111479707D01*
X162109144Y-111483740D01*
X162110671Y-111487599D01*
X162112370Y-111491280D01*
X162114238Y-111494779D01*
X162116266Y-111498094D01*
X162118451Y-111501226D01*
X162120783Y-111504166D01*
X162123258Y-111506917D01*
X162125869Y-111509473D01*
X162128608Y-111511834D01*
X162131470Y-111513995D01*
X162134449Y-111515955D01*
X162137538Y-111517711D01*
X162140729Y-111519260D01*
X162144017Y-111520600D01*
X162147396Y-111521729D01*
X162150857Y-111522643D01*
X162154398Y-111523341D01*
X162158011Y-111523816D01*
X162161686Y-111524071D01*
X162165419Y-111524103D01*
X162169206Y-111523907D01*
X162173036Y-111523479D01*
X162176905Y-111522821D01*
X162180808Y-111521926D01*
X162184735Y-111520795D01*
X162188683Y-111519424D01*
X162192642Y-111517809D01*
X162196609Y-111515948D01*
X162209848Y-111505038D01*
X162240362Y-111476275D01*
X162345612Y-111373125D01*
X162679765Y-111039873D01*
X162898143Y-110820790D01*
X162980366Y-110737615D01*
X163046098Y-110670474D01*
X163096457Y-110618211D01*
X163132558Y-110579667D01*
X163145610Y-110565179D01*
X163155515Y-110553687D01*
X163162415Y-110545047D01*
X163166446Y-110539113D01*
X163179251Y-110515473D01*
X163190565Y-110491531D01*
X163200407Y-110467342D01*
X163208794Y-110442954D01*
X163215746Y-110418419D01*
X163221278Y-110393788D01*
X163225411Y-110369111D01*
X163228164Y-110344440D01*
X163229551Y-110319825D01*
X163229592Y-110295320D01*
X163228306Y-110270973D01*
X163225711Y-110246835D01*
X163221824Y-110222959D01*
X163216664Y-110199395D01*
X163210248Y-110176192D01*
X163202595Y-110153403D01*
X163193723Y-110131081D01*
X163183650Y-110109274D01*
X163172393Y-110088034D01*
X163159972Y-110067412D01*
X163146404Y-110047459D01*
X163131706Y-110028225D01*
X163115899Y-110009763D01*
X163098998Y-109992123D01*
X163081024Y-109975356D01*
X163061992Y-109959512D01*
X163041922Y-109944644D01*
X163020834Y-109930802D01*
X162998741Y-109918037D01*
X162975665Y-109906401D01*
X162951623Y-109895942D01*
X162926632Y-109886714D01*
X162914136Y-109882333D01*
X162900555Y-109878449D01*
X162886043Y-109875060D01*
X162870757Y-109872167D01*
X162854851Y-109869770D01*
X162838478Y-109867868D01*
X162821797Y-109866463D01*
X162804961Y-109865555D01*
X162788126Y-109865142D01*
X162771445Y-109865225D01*
X162755073Y-109865803D01*
X162739167Y-109866878D01*
X162723880Y-109868449D01*
X162709369Y-109870513D01*
X162695788Y-109873077D01*
X162683291Y-109876134D01*
X162650118Y-109884951D01*
X162624647Y-109893987D01*
X162584544Y-109909636D01*
X162434331Y-109971350D01*
X162147236Y-110091250D01*
X161996077Y-110153550D01*
X161935881Y-110178399D01*
X161884884Y-110199524D01*
X161842298Y-110217281D01*
X161807331Y-110232027D01*
X161792460Y-110238382D01*
X161779194Y-110244117D01*
X161767439Y-110249278D01*
X161757096Y-110253908D01*
X161748065Y-110258055D01*
X161740248Y-110261757D01*
X161733543Y-110265066D01*
X161727857Y-110268021D01*
X161723086Y-110270669D01*
X161719133Y-110273055D01*
X161715900Y-110275223D01*
X161713288Y-110277217D01*
X161711197Y-110279081D01*
X161709529Y-110280861D01*
X161708187Y-110282601D01*
X161707069Y-110284345D01*
X161702873Y-110292260D01*
X161701603Y-110294594D01*
X161700435Y-110296965D01*
X161699371Y-110299371D01*
X161698410Y-110301806D01*
X161697553Y-110304266D01*
X161696799Y-110306748D01*
X161696148Y-110309251D01*
X161695599Y-110311764D01*
X161695156Y-110314290D01*
X161694815Y-110316822D01*
X161694577Y-110319357D01*
X161694443Y-110321891D01*
X161694411Y-110324418D01*
X161694484Y-110326936D01*
X161694660Y-110329443D01*
X161694939Y-110331932D01*
X161695321Y-110334401D01*
X161695807Y-110336845D01*
X161696396Y-110339260D01*
X161697087Y-110341643D01*
X161697883Y-110343991D01*
X161698781Y-110346297D01*
X161699785Y-110348561D01*
X161700889Y-110350777D01*
X161702098Y-110352941D01*
X161703410Y-110355049D01*
X161704826Y-110357098D01*
X161706345Y-110359083D01*
X161707967Y-110361002D01*
X161709693Y-110362849D01*
X161711521Y-110364622D01*
X161713454Y-110366314D01*
X161724599Y-110375275D01*
X161730238Y-110378395D01*
X161736487Y-110380476D01*
X161743770Y-110381420D01*
X161752508Y-110381132D01*
X161763128Y-110379507D01*
X161776052Y-110376455D01*
X161791703Y-110371871D01*
X161810506Y-110365662D01*
X161859259Y-110347966D01*
X162013222Y-110288733D01*
X162108995Y-110250987D01*
X162189555Y-110219526D01*
X162221448Y-110207286D01*
X162246313Y-110197981D01*
X162263080Y-110192065D01*
X162268089Y-110190519D01*
X162270670Y-110189991D01*
X162264188Y-110197940D01*
X162240638Y-110223163D01*
X162149439Y-110317825D01*
X162011293Y-110458775D01*
X161840414Y-110630801D01*
X161840414Y-110634328D01*
X161639505Y-110835943D01*
X161562317Y-110914084D01*
X161500089Y-110977719D01*
X161452411Y-111027303D01*
X161418865Y-111063292D01*
X161407265Y-111076328D01*
X161399042Y-111086136D01*
X161394146Y-111092773D01*
X161392929Y-111094920D01*
X161392526Y-111096297D01*
X161391688Y-111099932D01*
X161391149Y-111103559D01*
X161390902Y-111107169D01*
X161269095Y-111107169D01*
X161269095Y-111107168D01*
X161269092Y-111106876D01*
X161269305Y-111095331D01*
X161269973Y-111084429D01*
X161271138Y-111074076D01*
X161272839Y-111064173D01*
X161275120Y-111054620D01*
X161278019Y-111045321D01*
X161281581Y-111036177D01*
X161285844Y-111027089D01*
X161290852Y-111017962D01*
X161296644Y-111008692D01*
X161303264Y-110999187D01*
X161310751Y-110989345D01*
X161319148Y-110979068D01*
X161328494Y-110968262D01*
X161338833Y-110956825D01*
X161350207Y-110944658D01*
X161367592Y-110926005D01*
X161374476Y-110918405D01*
X161380182Y-110911818D01*
X161382601Y-110908871D01*
X161384733Y-110906139D01*
X161386580Y-110903607D01*
X161388146Y-110901267D01*
X161389432Y-110899099D01*
X161390443Y-110897095D01*
X161391179Y-110895241D01*
X161391644Y-110893524D01*
X161391842Y-110891931D01*
X161391772Y-110890449D01*
X161391439Y-110889065D01*
X161390846Y-110887766D01*
X161389994Y-110886540D01*
X161388885Y-110885372D01*
X161387524Y-110884253D01*
X161385913Y-110883166D01*
X161384055Y-110882099D01*
X161381949Y-110881040D01*
X161379602Y-110879976D01*
X161377015Y-110878895D01*
X161371129Y-110876625D01*
X161364313Y-110874129D01*
X161358580Y-110872323D01*
X161353167Y-110870932D01*
X161347900Y-110870037D01*
X161342602Y-110869720D01*
X161337097Y-110870065D01*
X161331208Y-110871152D01*
X161324764Y-110873067D01*
X161317584Y-110875891D01*
X161309496Y-110879707D01*
X161300322Y-110884598D01*
X161289888Y-110890645D01*
X161278019Y-110897931D01*
X161249269Y-110916557D01*
X161212667Y-110941131D01*
X161169367Y-110969522D01*
X161150595Y-110981346D01*
X161133425Y-110991713D01*
X161117619Y-111000718D01*
X161102939Y-111008451D01*
X161089146Y-111015007D01*
X161076006Y-111020478D01*
X161063279Y-111024956D01*
X161050728Y-111028537D01*
X161038114Y-111031309D01*
X161025201Y-111033371D01*
X161011750Y-111034812D01*
X160997524Y-111035727D01*
X160982286Y-111036207D01*
X160965797Y-111036346D01*
X160946207Y-111036174D01*
X160937498Y-111035951D01*
X160929429Y-111035630D01*
X160921937Y-111035206D01*
X160914964Y-111034672D01*
X160908445Y-111034026D01*
X160902318Y-111033260D01*
X160896521Y-111032371D01*
X160890995Y-111031353D01*
X160885672Y-111030200D01*
X160880495Y-111028909D01*
X160875402Y-111027470D01*
X160870329Y-111025883D01*
X160865214Y-111024141D01*
X160859996Y-111022240D01*
X160856075Y-111020959D01*
X160852255Y-111019761D01*
X160848560Y-111018645D01*
X160845009Y-111017613D01*
X160838423Y-111015795D01*
X160832665Y-111014306D01*
X160827899Y-111013149D01*
X160824290Y-111012322D01*
X160821203Y-111011662D01*
X160688379Y-111011662D01*
X160581389Y-110606115D01*
X160581490Y-110603782D01*
X160581791Y-110601414D01*
X160582280Y-110599019D01*
X160582951Y-110596603D01*
X160583797Y-110594176D01*
X160584805Y-110591743D01*
X160585971Y-110589310D01*
X160587285Y-110586886D01*
X160588738Y-110584477D01*
X160590321Y-110582091D01*
X160593848Y-110577414D01*
X160597799Y-110572915D01*
X160602108Y-110568646D01*
X160606704Y-110564669D01*
X160611523Y-110561035D01*
X160616497Y-110557806D01*
X160621559Y-110555037D01*
X160624104Y-110553842D01*
X160626642Y-110552784D01*
X160629171Y-110551869D01*
X160631678Y-110551104D01*
X160634158Y-110550496D01*
X160636601Y-110550056D01*
X160638997Y-110549784D01*
X160641341Y-110549691D01*
X160643975Y-110549733D01*
X160646587Y-110549855D01*
X160649173Y-110550055D01*
X160651727Y-110550333D01*
X160654254Y-110550684D01*
X160656746Y-110551109D01*
X160659203Y-110551607D01*
X160661620Y-110552172D01*
X160663996Y-110552804D01*
X160666328Y-110553502D01*
X160668614Y-110554262D01*
X160670849Y-110555085D01*
X160673034Y-110555967D01*
X160675166Y-110556906D01*
X160677239Y-110557900D01*
X160679254Y-110558948D01*
X160681205Y-110560049D01*
X160683093Y-110561198D01*
X160684915Y-110562396D01*
X160686664Y-110563639D01*
X160688344Y-110564926D01*
X160689948Y-110566256D01*
X160691474Y-110567625D01*
X160692920Y-110569032D01*
X160694282Y-110570476D01*
X160695561Y-110571954D01*
X160696752Y-110573463D01*
X160697853Y-110575003D01*
X160698860Y-110576573D01*
X160699770Y-110578168D01*
X160700582Y-110579788D01*
X160701295Y-110581431D01*
X160705814Y-110597299D01*
X160713639Y-110626392D01*
X160724108Y-110664744D01*
X160736563Y-110708383D01*
X160743141Y-110730446D01*
X160749512Y-110751308D01*
X160760808Y-110787289D01*
X160771830Y-110821231D01*
X160771910Y-110821603D01*
X160772153Y-110822054D01*
X160773097Y-110823187D01*
X160774618Y-110824610D01*
X160776679Y-110826301D01*
X160782244Y-110830405D01*
X160789462Y-110835337D01*
X160798003Y-110840929D01*
X160807536Y-110847019D01*
X160828256Y-110860022D01*
X160839338Y-110867007D01*
X160850119Y-110873419D01*
X160860632Y-110879262D01*
X160870906Y-110884543D01*
X160880976Y-110889265D01*
X160890869Y-110893435D01*
X160900616Y-110897057D01*
X160910251Y-110900136D01*
X160919803Y-110902679D01*
X160929304Y-110904689D01*
X160938783Y-110906172D01*
X160948274Y-110907133D01*
X160957804Y-110907579D01*
X160967409Y-110907513D01*
X160977115Y-110906940D01*
X160986957Y-110905866D01*
X161002758Y-110903242D01*
X161009910Y-110901783D01*
X161016824Y-110900081D01*
X161023697Y-110898027D01*
X161030723Y-110895515D01*
X161038103Y-110892433D01*
X161046028Y-110888675D01*
X161054699Y-110884131D01*
X161064310Y-110878695D01*
X161075057Y-110872256D01*
X161087137Y-110864706D01*
X161116081Y-110845841D01*
X161152711Y-110821231D01*
X161191297Y-110796195D01*
X161208054Y-110785642D01*
X161223355Y-110776324D01*
X161237373Y-110768183D01*
X161250286Y-110761164D01*
X161262271Y-110755208D01*
X161273501Y-110750260D01*
X161284151Y-110746262D01*
X161289313Y-110744604D01*
X161294398Y-110743160D01*
X161299426Y-110741925D01*
X161304419Y-110740893D01*
X161309398Y-110740055D01*
X161314388Y-110739406D01*
X161324479Y-110738642D01*
X161334872Y-110738544D01*
X161345739Y-110739056D01*
X161357259Y-110740122D01*
X161364415Y-110740868D01*
X161371371Y-110741803D01*
X161378173Y-110742943D01*
X161384866Y-110744311D01*
X161391497Y-110745924D01*
X161398112Y-110747809D01*
X161404758Y-110749982D01*
X161411480Y-110752464D01*
X161418329Y-110755278D01*
X161425347Y-110758442D01*
X161432581Y-110761980D01*
X161440081Y-110765909D01*
X161447889Y-110770251D01*
X161456054Y-110775029D01*
X161464622Y-110780260D01*
X161473638Y-110785966D01*
X161476196Y-110787134D01*
X161478723Y-110787867D01*
X161481435Y-110787982D01*
X161484549Y-110787289D01*
X161488284Y-110785604D01*
X161492857Y-110782743D01*
X161498483Y-110778516D01*
X161505378Y-110772741D01*
X161523852Y-110755798D01*
X161550014Y-110730424D01*
X161632340Y-110648434D01*
X161776934Y-110500321D01*
X161738139Y-110500321D01*
X161729297Y-110499476D01*
X161720624Y-110498265D01*
X161712129Y-110496696D01*
X161703817Y-110494776D01*
X161695692Y-110492514D01*
X161687764Y-110489914D01*
X161680035Y-110486988D01*
X161672511Y-110483736D01*
X161665200Y-110480170D01*
X161658105Y-110476297D01*
X161651235Y-110472122D01*
X161644594Y-110467652D01*
X161638189Y-110462897D01*
X161632021Y-110457863D01*
X161626104Y-110452556D01*
X161620437Y-110446982D01*
X161615030Y-110441153D01*
X161609885Y-110435069D01*
X161605012Y-110428743D01*
X161600413Y-110422181D01*
X161596096Y-110415388D01*
X161592068Y-110408371D01*
X161588332Y-110401141D01*
X161584894Y-110393701D01*
X161581762Y-110386059D01*
X161578940Y-110378223D01*
X161576436Y-110370199D01*
X161574252Y-110361997D01*
X161572397Y-110353620D01*
X161570876Y-110345077D01*
X161569695Y-110336377D01*
X161568860Y-110327524D01*
X161568567Y-110315048D01*
X161569004Y-110302763D01*
X161570153Y-110290695D01*
X161572001Y-110278870D01*
X161574529Y-110267313D01*
X161577725Y-110256051D01*
X161581571Y-110245109D01*
X161586051Y-110234513D01*
X161591153Y-110224288D01*
X161596859Y-110214463D01*
X161603155Y-110205061D01*
X161610023Y-110196106D01*
X161617449Y-110187630D01*
X161625418Y-110179652D01*
X161633914Y-110172203D01*
X161642919Y-110165306D01*
X161692308Y-110142226D01*
X161803273Y-110094391D01*
X162129601Y-109957684D01*
X162461220Y-109821639D01*
X162637443Y-109752708D01*
X162646136Y-109749926D01*
X162656069Y-109746977D01*
X162666828Y-109744029D01*
X162678001Y-109741247D01*
X162689173Y-109738794D01*
X162699932Y-109736840D01*
X162705027Y-109736098D01*
X162709864Y-109735545D01*
X162714392Y-109735196D01*
X162718557Y-109735075D01*
X162739070Y-109732761D01*
X162756359Y-109731108D01*
X162771498Y-109730117D01*
X162778599Y-109729869D01*
X162785565Y-109729785D01*
X162792529Y-109729868D01*
G37*
X162792529Y-109729868D02*
X162799629Y-109730115D01*
X162814770Y-109731107D01*
X162832059Y-109732761D01*
X162852572Y-109735076D01*
X162874256Y-109738121D01*
X162895657Y-109741957D01*
X162916763Y-109746572D01*
X162937556Y-109751950D01*
X162958025Y-109758077D01*
X162978153Y-109764940D01*
X162997927Y-109772521D01*
X163017333Y-109780809D01*
X163036358Y-109789790D01*
X163054986Y-109799449D01*
X163090995Y-109820744D01*
X163125246Y-109844580D01*
X163157629Y-109870844D01*
X163188028Y-109899424D01*
X163216329Y-109930204D01*
X163242420Y-109963070D01*
X163266185Y-109997907D01*
X163287513Y-110034608D01*
X163306288Y-110073053D01*
X163322397Y-110113130D01*
X163329416Y-110133745D01*
X163335727Y-110154725D01*
X163340384Y-110169768D01*
X163342268Y-110176857D01*
X163343883Y-110183821D01*
X163345249Y-110190783D01*
X163346390Y-110197870D01*
X163347324Y-110205206D01*
X163348071Y-110212913D01*
X163349090Y-110229939D01*
X163349613Y-110249941D01*
X163349833Y-110302840D01*
X163349655Y-110332640D01*
X163349415Y-110345339D01*
X163349062Y-110356783D01*
X163348585Y-110367131D01*
X163347974Y-110376542D01*
X163347219Y-110385180D01*
X163346308Y-110393205D01*
X163345231Y-110400773D01*
X163343979Y-110408048D01*
X163342541Y-110415187D01*
X163340908Y-110422352D01*
X163337009Y-110437403D01*
X163332201Y-110454476D01*
X163325529Y-110475625D01*
X163318660Y-110495555D01*
X163311480Y-110514452D01*
X163303877Y-110532501D01*
X163295738Y-110549888D01*
X163286946Y-110566802D01*
X163277391Y-110583425D01*
X163266958Y-110599945D01*
X163255531Y-110616546D01*
X163243001Y-110633419D01*
X163229251Y-110650744D01*
X163214168Y-110668711D01*
X163197638Y-110687504D01*
X163179549Y-110707309D01*
X163138233Y-110750702D01*
X163106218Y-110785306D01*
X163080485Y-110813298D01*
X163057121Y-110838864D01*
X163061139Y-110842483D01*
X163066460Y-110846660D01*
X163072897Y-110851291D01*
X163080264Y-110856276D01*
X163097043Y-110866882D01*
X163115311Y-110877655D01*
X163133577Y-110887767D01*
X163150357Y-110896388D01*
X163157723Y-110899885D01*
X163164161Y-110902697D01*
X163169481Y-110904726D01*
X163173501Y-110905868D01*
X163179068Y-110907105D01*
X163185142Y-110908181D01*
X163191649Y-110909090D01*
X163198518Y-110909833D01*
X163205676Y-110910412D01*
X163213051Y-110910825D01*
X163220571Y-110911073D01*
X163228164Y-110911155D01*
X163235756Y-110911074D01*
X163243277Y-110910826D01*
X163250652Y-110910412D01*
X163257811Y-110909834D01*
X163264679Y-110909090D01*
X163271186Y-110908181D01*
X163277259Y-110907106D01*
X163282828Y-110905866D01*
X163287045Y-110904568D01*
X163292932Y-110902092D01*
X163300254Y-110898583D01*
X163308782Y-110894185D01*
X163328515Y-110883303D01*
X163350276Y-110870602D01*
X163372199Y-110857240D01*
X163392430Y-110844374D01*
X163409107Y-110833161D01*
X163415529Y-110828536D01*
X163420367Y-110824757D01*
X163421152Y-110824149D01*
X163422172Y-110822368D01*
X163424887Y-110815556D01*
X163428427Y-110804859D01*
X163432711Y-110790815D01*
X163455634Y-110711909D01*
X163468640Y-110668270D01*
X163480322Y-110629920D01*
X163489358Y-110600826D01*
X163494428Y-110584957D01*
X163496533Y-110581114D01*
X163498879Y-110577518D01*
X163501450Y-110574171D01*
X163504238Y-110571072D01*
X163507231Y-110568220D01*
X163510423Y-110565616D01*
X163513799Y-110563261D01*
X163517351Y-110561153D01*
X163521070Y-110559294D01*
X163524943Y-110557682D01*
X163528959Y-110556318D01*
X163533112Y-110555201D01*
X163537388Y-110554335D01*
X163541777Y-110553715D01*
X163546269Y-110553342D01*
X163548770Y-110553275D01*
X163549672Y-110553310D01*
X163552069Y-110553581D01*
X163554511Y-110554024D01*
X163556992Y-110554629D01*
X163559500Y-110555395D01*
X163562027Y-110556310D01*
X163564567Y-110557369D01*
X163567110Y-110558564D01*
X163569648Y-110559887D01*
X163572172Y-110561333D01*
X163577146Y-110564563D01*
X163581965Y-110568195D01*
X163586562Y-110572173D01*
X163590869Y-110576441D01*
X163594821Y-110580942D01*
X163596642Y-110583260D01*
X163598347Y-110585616D01*
X163599932Y-110588003D01*
X163601384Y-110590412D01*
X163602698Y-110592837D01*
X163603864Y-110595269D01*
X163604873Y-110597702D01*
X163605718Y-110600130D01*
X163606389Y-110602546D01*
X163606879Y-110604941D01*
X163607179Y-110607309D01*
X163607280Y-110609642D01*
X163589868Y-110683091D01*
X163542038Y-110869279D01*
X163381574Y-111470104D01*
X163155865Y-112316460D01*
X161039857Y-112316458D01*
X161029277Y-112281193D01*
X160770948Y-111324637D01*
X160688379Y-111011662D01*
X160821203Y-111011662D01*
X160823242Y-111023659D01*
X160831563Y-111058056D01*
X160864406Y-111184459D01*
X160976378Y-111600582D01*
X161135078Y-112189505D01*
X163057120Y-112189505D01*
X163215822Y-111604110D01*
X163219348Y-111600583D01*
X163281342Y-111373675D01*
X163331760Y-111187102D01*
X163365651Y-111060039D01*
X163378048Y-111011661D01*
X163377997Y-111011351D01*
X163377847Y-111011080D01*
X163377599Y-111010851D01*
X163377256Y-111010662D01*
X163376305Y-111010399D01*
X163375018Y-111010283D01*
X163373420Y-111010312D01*
X163371540Y-111010483D01*
X163369399Y-111010787D01*
X163367028Y-111011219D01*
X163364448Y-111011777D01*
X163361690Y-111012453D01*
X163355732Y-111014140D01*
X163349360Y-111016240D01*
X163346084Y-111017434D01*
X163342783Y-111018714D01*
X163337564Y-111021196D01*
X163332450Y-111023371D01*
X163327376Y-111025255D01*
X163322282Y-111026869D01*
X163317106Y-111028236D01*
X163311786Y-111029376D01*
X163306259Y-111030309D01*
X163300462Y-111031056D01*
X163294335Y-111031637D01*
X163287815Y-111032076D01*
X163273350Y-111032598D01*
X163256572Y-111032792D01*
X163236982Y-111032820D01*
X163221085Y-111033269D01*
X163206350Y-111033274D01*
X163192619Y-111032804D01*
X163179729Y-111031828D01*
X163167520Y-111030313D01*
X163155834Y-111028234D01*
X163144509Y-111025551D01*
X163133386Y-111022240D01*
X163122303Y-111018268D01*
X163111102Y-111013603D01*
X163099623Y-111008214D01*
X163087704Y-111002073D01*
X163075186Y-110995146D01*
X163061908Y-110987401D01*
X163032434Y-110969343D01*
X163020594Y-110961601D01*
X163009125Y-110954355D01*
X162998400Y-110947771D01*
X162988792Y-110942014D01*
X162980669Y-110937247D01*
X162974408Y-110933637D01*
X162968954Y-110930552D01*
X162866238Y-111031497D01*
X162623339Y-111272620D01*
X162539297Y-111356339D01*
X162466788Y-111427951D01*
X162405435Y-111487908D01*
X162354870Y-111536666D01*
X162314720Y-111574680D01*
X162284612Y-111602401D01*
X162264175Y-111620288D01*
X162257466Y-111625686D01*
X162253037Y-111628795D01*
X162245446Y-111631934D01*
X162237270Y-111634739D01*
X162228588Y-111637201D01*
X162219479Y-111639319D01*
X162210017Y-111641085D01*
X162200282Y-111642494D01*
X162190349Y-111643543D01*
X162180300Y-111644223D01*
X162170207Y-111644532D01*
X162160152Y-111644465D01*
X162150210Y-111644014D01*
X162140459Y-111643175D01*
X162130976Y-111641945D01*
X162121841Y-111640318D01*
X162113127Y-111638287D01*
X162104916Y-111635847D01*
X162100405Y-111634480D01*
X162096099Y-111633003D01*
X162091960Y-111631392D01*
X162087945Y-111629621D01*
X162084011Y-111627663D01*
X162080120Y-111625496D01*
X162076227Y-111623090D01*
X162072295Y-111620420D01*
X162068279Y-111617460D01*
X162064139Y-111614186D01*
X162059834Y-111610570D01*
X162055322Y-111606589D01*
X162050562Y-111602214D01*
X162045513Y-111597422D01*
X162034383Y-111586476D01*
X161995590Y-111547685D01*
X161956795Y-111582951D01*
X161953333Y-111586915D01*
X161949584Y-111590858D01*
X161945599Y-111594759D01*
X161941422Y-111598599D01*
X161937100Y-111602357D01*
X161932681Y-111606010D01*
X161928209Y-111609541D01*
X161923734Y-111612926D01*
X161919298Y-111616146D01*
X161914950Y-111619179D01*
X161906706Y-111624606D01*
X161899370Y-111629044D01*
X161896159Y-111630837D01*
X161893316Y-111632320D01*
X161887006Y-111634881D01*
X161880035Y-111637260D01*
X161872486Y-111639442D01*
X161864440Y-111641414D01*
X161855983Y-111643157D01*
X161847193Y-111644656D01*
X161838155Y-111645900D01*
X161828953Y-111646868D01*
X161819668Y-111647546D01*
X161810383Y-111647922D01*
X161801180Y-111647975D01*
X161792144Y-111647694D01*
X161783354Y-111647061D01*
X161774897Y-111646061D01*
X161766851Y-111644679D01*
X161759301Y-111642901D01*
X161755655Y-111642167D01*
X161751993Y-111641294D01*
X161744637Y-111639140D01*
X161737272Y-111636469D01*
X161729932Y-111633312D01*
X161722653Y-111629701D01*
X161715474Y-111625668D01*
X161708428Y-111621241D01*
X161701553Y-111616451D01*
X161694884Y-111611333D01*
X161688458Y-111605914D01*
X161682312Y-111600228D01*
X161676479Y-111594301D01*
X161671000Y-111588170D01*
X161665907Y-111581863D01*
X161661238Y-111575409D01*
X161657027Y-111568845D01*
X161635868Y-111537106D01*
X161618234Y-111547685D01*
X161615542Y-111549548D01*
X161612738Y-111551178D01*
X161609788Y-111552590D01*
X161606662Y-111553801D01*
X161603329Y-111554828D01*
X161599761Y-111555682D01*
X161595922Y-111556381D01*
X161591784Y-111556943D01*
X161587316Y-111557379D01*
X161582484Y-111557706D01*
X161571616Y-111558100D01*
X161558928Y-111558244D01*
X161544173Y-111558265D01*
X161535940Y-111558223D01*
X161528393Y-111558094D01*
X161521477Y-111557870D01*
X161515134Y-111557548D01*
X161509307Y-111557125D01*
X161503941Y-111556591D01*
X161498978Y-111555944D01*
X161494359Y-111555179D01*
X161490031Y-111554290D01*
X161485936Y-111553271D01*
X161482016Y-111552119D01*
X161478214Y-111550827D01*
X161474474Y-111549390D01*
X161470740Y-111547803D01*
X161466954Y-111546062D01*
X161463062Y-111544160D01*
X161455260Y-111539719D01*
X161447733Y-111534999D01*
X161440482Y-111530010D01*
X161433511Y-111524764D01*
X161426824Y-111519269D01*
X161420425Y-111513537D01*
X161408506Y-111501401D01*
X161397788Y-111488438D01*
X161388297Y-111474732D01*
X161380069Y-111460364D01*
X161373130Y-111445418D01*
X161367514Y-111429976D01*
X161363252Y-111414121D01*
X161360374Y-111397934D01*
X161358913Y-111381500D01*
X161358898Y-111364901D01*
X161359441Y-111356565D01*
X161360359Y-111348219D01*
X161361653Y-111339872D01*
X161363329Y-111331539D01*
X161365390Y-111323222D01*
X161367839Y-111314937D01*
X161369120Y-111311636D01*
X161370320Y-111308361D01*
X161371435Y-111305136D01*
X161372469Y-111301989D01*
X161373418Y-111298946D01*
X161374287Y-111296032D01*
X161375774Y-111290693D01*
X161376932Y-111286181D01*
X161377758Y-111282704D01*
X161378420Y-111279673D01*
X161373093Y-111276868D01*
X161367715Y-111273764D01*
X161362317Y-111270391D01*
X161356929Y-111266779D01*
X161351583Y-111262962D01*
X161346308Y-111258969D01*
X161341137Y-111254831D01*
X161336099Y-111250579D01*
X161331228Y-111246246D01*
X161326553Y-111241860D01*
X161322105Y-111237455D01*
X161317915Y-111233058D01*
X161314015Y-111228703D01*
X161310434Y-111224421D01*
X161307205Y-111220242D01*
X161304359Y-111216196D01*
X161299314Y-111209119D01*
X161294743Y-111202387D01*
X161290628Y-111195933D01*
X161286946Y-111189693D01*
X161283677Y-111183597D01*
X161280802Y-111177578D01*
X161278299Y-111171569D01*
X161276146Y-111165504D01*
X161274324Y-111159313D01*
X161272812Y-111152935D01*
X161271590Y-111146294D01*
X161270636Y-111139331D01*
X161269930Y-111131975D01*
X161269451Y-111124157D01*
X161269179Y-111115813D01*
X161269095Y-111107169D01*
X161390902Y-111107169D01*
X161390935Y-111110754D01*
X161391240Y-111114305D01*
X161391806Y-111117814D01*
X161392623Y-111121274D01*
X161393683Y-111124673D01*
X161394976Y-111128007D01*
X161396490Y-111131264D01*
X161398219Y-111134437D01*
X161400151Y-111137519D01*
X161402277Y-111140501D01*
X161404586Y-111143371D01*
X161407071Y-111146125D01*
X161409719Y-111148753D01*
X161412522Y-111151248D01*
X161415471Y-111153598D01*
X161418555Y-111155796D01*
X161421766Y-111157839D01*
X161425092Y-111159710D01*
X161428526Y-111161407D01*
X161432056Y-111162918D01*
X161435673Y-111164236D01*
X161439367Y-111165353D01*
X161443130Y-111166261D01*
X161446951Y-111166949D01*
X161450818Y-111167412D01*
X161454726Y-111167639D01*
X161458663Y-111167623D01*
X161462620Y-111167354D01*
X161466587Y-111166826D01*
X161469879Y-111165436D01*
X161474576Y-111162480D01*
X161488848Y-111151234D01*
X161510724Y-111131802D01*
X161541527Y-111102909D01*
X161635205Y-111011606D01*
X161780461Y-110867074D01*
X162076701Y-110570851D01*
X162119021Y-110613169D01*
X162123566Y-110617132D01*
X162127927Y-110621069D01*
X162132095Y-110624954D01*
X162136051Y-110628761D01*
X162139777Y-110632466D01*
X162143261Y-110636042D01*
X162146487Y-110639464D01*
X162149440Y-110642703D01*
X162152102Y-110645736D01*
X162154461Y-110648536D01*
X162156500Y-110651079D01*
X162158201Y-110653339D01*
X162159553Y-110655285D01*
X162160537Y-110656899D01*
X162161137Y-110658150D01*
X162161291Y-110658631D01*
X162161342Y-110659013D01*
X162154469Y-110667052D01*
X162134783Y-110687611D01*
X162062596Y-110760839D01*
X161826307Y-110997555D01*
X161695985Y-111128531D01*
X161587815Y-111238679D01*
X161545654Y-111282325D01*
X161513370Y-111316427D01*
X161492409Y-111339534D01*
X161486627Y-111346513D01*
X161484219Y-111350203D01*
X161482400Y-111354179D01*
X161480903Y-111358165D01*
X161479722Y-111362152D01*
X161478846Y-111366127D01*
X161478273Y-111370083D01*
X161477990Y-111374008D01*
X161477992Y-111377890D01*
X161478269Y-111381721D01*
X161478815Y-111385490D01*
X161479621Y-111389187D01*
X161480682Y-111392802D01*
X161481988Y-111396323D01*
X161483531Y-111399741D01*
X161485304Y-111403044D01*
X161487300Y-111406225D01*
X161489510Y-111409272D01*
X161491926Y-111412173D01*
X161494541Y-111414920D01*
X161497347Y-111417501D01*
X161500338Y-111419905D01*
X161503503Y-111422126D01*
X161506837Y-111424149D01*
X161510330Y-111425965D01*
X161513975Y-111427565D01*
X161517766Y-111428938D01*
X161521693Y-111430072D01*
X161525750Y-111430959D01*
X161529929Y-111431588D01*
X161534221Y-111431948D01*
X161538618Y-111432028D01*
X161543114Y-111431820D01*
X161547699Y-111431311D01*
X161552400Y-111430337D01*
X161557528Y-111428468D01*
X161563515Y-111425306D01*
X161570790Y-111420457D01*
X161590909Y-111404099D01*
X161621319Y-111376211D01*
X161665450Y-111333611D01*
X161726734Y-111273116D01*
X161914474Y-111085716D01*
X162256562Y-110743648D01*
X162302409Y-110789493D01*
X162348257Y-110835337D01*
X162048489Y-111135088D01*
X161952580Y-111231033D01*
X161913439Y-111270270D01*
X161879649Y-111304250D01*
X161850819Y-111333392D01*
X161826555Y-111358124D01*
X161806466Y-111378868D01*
X161797864Y-111387878D01*
X161790159Y-111396047D01*
X161783301Y-111403433D01*
X161777241Y-111410086D01*
X161771929Y-111416060D01*
X161767318Y-111421408D01*
X161763357Y-111426182D01*
X161760001Y-111430436D01*
X161757195Y-111434221D01*
X161754892Y-111437594D01*
X161753044Y-111440604D01*
X161751604Y-111443304D01*
X161750518Y-111445751D01*
X161749740Y-111447994D01*
X161749221Y-111450087D01*
X161748910Y-111452083D01*
X161748759Y-111454036D01*
X161748720Y-111455998D01*
X161748793Y-111460233D01*
X161749009Y-111464344D01*
X161749365Y-111468332D01*
X161749864Y-111472191D01*
X161750501Y-111475924D01*
X161751277Y-111479529D01*
X161752191Y-111483008D01*
X161753239Y-111486357D01*
X161754421Y-111489579D01*
X161755737Y-111492670D01*
X161757186Y-111495631D01*
X161758764Y-111498460D01*
X161760471Y-111501158D01*
X161762305Y-111503722D01*
X161764268Y-111506155D01*
X161766354Y-111508454D01*
X161768564Y-111510618D01*
X161770899Y-111512648D01*
X161773354Y-111514540D01*
X161775929Y-111516298D01*
X161778624Y-111517920D01*
X161781433Y-111519402D01*
X161784362Y-111520747D01*
X161787404Y-111521954D01*
X161790560Y-111523020D01*
X161793829Y-111523948D01*
X161797209Y-111524733D01*
X161800697Y-111525377D01*
X161804295Y-111525879D01*
X161808000Y-111526240D01*
X161811812Y-111526454D01*
X161815728Y-111526527D01*
X161818634Y-111526144D01*
X161822279Y-111524786D01*
X161833086Y-111517875D01*
X161850754Y-111503281D01*
X161877885Y-111478479D01*
X161917086Y-111440947D01*
X161970956Y-111388168D01*
X162133129Y-111226775D01*
X162432896Y-110927025D01*
X162478744Y-110972870D01*
X162524590Y-111018715D01*
X162312989Y-111230303D01*
X162104915Y-111441891D01*
X162104915Y-111466577D01*
X162105678Y-111471123D01*
X162106643Y-111475501D01*
X162107800Y-111479707D01*
X162109144Y-111483740D01*
X162110671Y-111487599D01*
X162112370Y-111491280D01*
X162114238Y-111494779D01*
X162116266Y-111498094D01*
X162118451Y-111501226D01*
X162120783Y-111504166D01*
X162123258Y-111506917D01*
X162125869Y-111509473D01*
X162128608Y-111511834D01*
X162131470Y-111513995D01*
X162134449Y-111515955D01*
X162137538Y-111517711D01*
X162140729Y-111519260D01*
X162144017Y-111520600D01*
X162147396Y-111521729D01*
X162150857Y-111522643D01*
X162154398Y-111523341D01*
X162158011Y-111523816D01*
X162161686Y-111524071D01*
X162165419Y-111524103D01*
X162169206Y-111523907D01*
X162173036Y-111523479D01*
X162176905Y-111522821D01*
X162180808Y-111521926D01*
X162184735Y-111520795D01*
X162188683Y-111519424D01*
X162192642Y-111517809D01*
X162196609Y-111515948D01*
X162209848Y-111505038D01*
X162240362Y-111476275D01*
X162345612Y-111373125D01*
X162679765Y-111039873D01*
X162898143Y-110820790D01*
X162980366Y-110737615D01*
X163046098Y-110670474D01*
X163096457Y-110618211D01*
X163132558Y-110579667D01*
X163145610Y-110565179D01*
X163155515Y-110553687D01*
X163162415Y-110545047D01*
X163166446Y-110539113D01*
X163179251Y-110515473D01*
X163190565Y-110491531D01*
X163200407Y-110467342D01*
X163208794Y-110442954D01*
X163215746Y-110418419D01*
X163221278Y-110393788D01*
X163225411Y-110369111D01*
X163228164Y-110344440D01*
X163229551Y-110319825D01*
X163229592Y-110295320D01*
X163228306Y-110270973D01*
X163225711Y-110246835D01*
X163221824Y-110222959D01*
X163216664Y-110199395D01*
X163210248Y-110176192D01*
X163202595Y-110153403D01*
X163193723Y-110131081D01*
X163183650Y-110109274D01*
X163172393Y-110088034D01*
X163159972Y-110067412D01*
X163146404Y-110047459D01*
X163131706Y-110028225D01*
X163115899Y-110009763D01*
X163098998Y-109992123D01*
X163081024Y-109975356D01*
X163061992Y-109959512D01*
X163041922Y-109944644D01*
X163020834Y-109930802D01*
X162998741Y-109918037D01*
X162975665Y-109906401D01*
X162951623Y-109895942D01*
X162926632Y-109886714D01*
X162914136Y-109882333D01*
X162900555Y-109878449D01*
X162886043Y-109875060D01*
X162870757Y-109872167D01*
X162854851Y-109869770D01*
X162838478Y-109867868D01*
X162821797Y-109866463D01*
X162804961Y-109865555D01*
X162788126Y-109865142D01*
X162771445Y-109865225D01*
X162755073Y-109865803D01*
X162739167Y-109866878D01*
X162723880Y-109868449D01*
X162709369Y-109870513D01*
X162695788Y-109873077D01*
X162683291Y-109876134D01*
X162650118Y-109884951D01*
X162624647Y-109893987D01*
X162584544Y-109909636D01*
X162434331Y-109971350D01*
X162147236Y-110091250D01*
X161996077Y-110153550D01*
X161935881Y-110178399D01*
X161884884Y-110199524D01*
X161842298Y-110217281D01*
X161807331Y-110232027D01*
X161792460Y-110238382D01*
X161779194Y-110244117D01*
X161767439Y-110249278D01*
X161757096Y-110253908D01*
X161748065Y-110258055D01*
X161740248Y-110261757D01*
X161733543Y-110265066D01*
X161727857Y-110268021D01*
X161723086Y-110270669D01*
X161719133Y-110273055D01*
X161715900Y-110275223D01*
X161713288Y-110277217D01*
X161711197Y-110279081D01*
X161709529Y-110280861D01*
X161708187Y-110282601D01*
X161707069Y-110284345D01*
X161702873Y-110292260D01*
X161701603Y-110294594D01*
X161700435Y-110296965D01*
X161699371Y-110299371D01*
X161698410Y-110301806D01*
X161697553Y-110304266D01*
X161696799Y-110306748D01*
X161696148Y-110309251D01*
X161695599Y-110311764D01*
X161695156Y-110314290D01*
X161694815Y-110316822D01*
X161694577Y-110319357D01*
X161694443Y-110321891D01*
X161694411Y-110324418D01*
X161694484Y-110326936D01*
X161694660Y-110329443D01*
X161694939Y-110331932D01*
X161695321Y-110334401D01*
X161695807Y-110336845D01*
X161696396Y-110339260D01*
X161697087Y-110341643D01*
X161697883Y-110343991D01*
X161698781Y-110346297D01*
X161699785Y-110348561D01*
X161700889Y-110350777D01*
X161702098Y-110352941D01*
X161703410Y-110355049D01*
X161704826Y-110357098D01*
X161706345Y-110359083D01*
X161707967Y-110361002D01*
X161709693Y-110362849D01*
X161711521Y-110364622D01*
X161713454Y-110366314D01*
X161724599Y-110375275D01*
X161730238Y-110378395D01*
X161736487Y-110380476D01*
X161743770Y-110381420D01*
X161752508Y-110381132D01*
X161763128Y-110379507D01*
X161776052Y-110376455D01*
X161791703Y-110371871D01*
X161810506Y-110365662D01*
X161859259Y-110347966D01*
X162013222Y-110288733D01*
X162108995Y-110250987D01*
X162189555Y-110219526D01*
X162221448Y-110207286D01*
X162246313Y-110197981D01*
X162263080Y-110192065D01*
X162268089Y-110190519D01*
X162270670Y-110189991D01*
X162264188Y-110197940D01*
X162240638Y-110223163D01*
X162149439Y-110317825D01*
X162011293Y-110458775D01*
X161840414Y-110630801D01*
X161840414Y-110634328D01*
X161639505Y-110835943D01*
X161562317Y-110914084D01*
X161500089Y-110977719D01*
X161452411Y-111027303D01*
X161418865Y-111063292D01*
X161407265Y-111076328D01*
X161399042Y-111086136D01*
X161394146Y-111092773D01*
X161392929Y-111094920D01*
X161392526Y-111096297D01*
X161391688Y-111099932D01*
X161391149Y-111103559D01*
X161390902Y-111107169D01*
X161269095Y-111107169D01*
X161269095Y-111107168D01*
X161269092Y-111106876D01*
X161269305Y-111095331D01*
X161269973Y-111084429D01*
X161271138Y-111074076D01*
X161272839Y-111064173D01*
X161275120Y-111054620D01*
X161278019Y-111045321D01*
X161281581Y-111036177D01*
X161285844Y-111027089D01*
X161290852Y-111017962D01*
X161296644Y-111008692D01*
X161303264Y-110999187D01*
X161310751Y-110989345D01*
X161319148Y-110979068D01*
X161328494Y-110968262D01*
X161338833Y-110956825D01*
X161350207Y-110944658D01*
X161367592Y-110926005D01*
X161374476Y-110918405D01*
X161380182Y-110911818D01*
X161382601Y-110908871D01*
X161384733Y-110906139D01*
X161386580Y-110903607D01*
X161388146Y-110901267D01*
X161389432Y-110899099D01*
X161390443Y-110897095D01*
X161391179Y-110895241D01*
X161391644Y-110893524D01*
X161391842Y-110891931D01*
X161391772Y-110890449D01*
X161391439Y-110889065D01*
X161390846Y-110887766D01*
X161389994Y-110886540D01*
X161388885Y-110885372D01*
X161387524Y-110884253D01*
X161385913Y-110883166D01*
X161384055Y-110882099D01*
X161381949Y-110881040D01*
X161379602Y-110879976D01*
X161377015Y-110878895D01*
X161371129Y-110876625D01*
X161364313Y-110874129D01*
X161358580Y-110872323D01*
X161353167Y-110870932D01*
X161347900Y-110870037D01*
X161342602Y-110869720D01*
X161337097Y-110870065D01*
X161331208Y-110871152D01*
X161324764Y-110873067D01*
X161317584Y-110875891D01*
X161309496Y-110879707D01*
X161300322Y-110884598D01*
X161289888Y-110890645D01*
X161278019Y-110897931D01*
X161249269Y-110916557D01*
X161212667Y-110941131D01*
X161169367Y-110969522D01*
X161150595Y-110981346D01*
X161133425Y-110991713D01*
X161117619Y-111000718D01*
X161102939Y-111008451D01*
X161089146Y-111015007D01*
X161076006Y-111020478D01*
X161063279Y-111024956D01*
X161050728Y-111028537D01*
X161038114Y-111031309D01*
X161025201Y-111033371D01*
X161011750Y-111034812D01*
X160997524Y-111035727D01*
X160982286Y-111036207D01*
X160965797Y-111036346D01*
X160946207Y-111036174D01*
X160937498Y-111035951D01*
X160929429Y-111035630D01*
X160921937Y-111035206D01*
X160914964Y-111034672D01*
X160908445Y-111034026D01*
X160902318Y-111033260D01*
X160896521Y-111032371D01*
X160890995Y-111031353D01*
X160885672Y-111030200D01*
X160880495Y-111028909D01*
X160875402Y-111027470D01*
X160870329Y-111025883D01*
X160865214Y-111024141D01*
X160859996Y-111022240D01*
X160856075Y-111020959D01*
X160852255Y-111019761D01*
X160848560Y-111018645D01*
X160845009Y-111017613D01*
X160838423Y-111015795D01*
X160832665Y-111014306D01*
X160827899Y-111013149D01*
X160824290Y-111012322D01*
X160821203Y-111011662D01*
X160688379Y-111011662D01*
X160581389Y-110606115D01*
X160581490Y-110603782D01*
X160581791Y-110601414D01*
X160582280Y-110599019D01*
X160582951Y-110596603D01*
X160583797Y-110594176D01*
X160584805Y-110591743D01*
X160585971Y-110589310D01*
X160587285Y-110586886D01*
X160588738Y-110584477D01*
X160590321Y-110582091D01*
X160593848Y-110577414D01*
X160597799Y-110572915D01*
X160602108Y-110568646D01*
X160606704Y-110564669D01*
X160611523Y-110561035D01*
X160616497Y-110557806D01*
X160621559Y-110555037D01*
X160624104Y-110553842D01*
X160626642Y-110552784D01*
X160629171Y-110551869D01*
X160631678Y-110551104D01*
X160634158Y-110550496D01*
X160636601Y-110550056D01*
X160638997Y-110549784D01*
X160641341Y-110549691D01*
X160643975Y-110549733D01*
X160646587Y-110549855D01*
X160649173Y-110550055D01*
X160651727Y-110550333D01*
X160654254Y-110550684D01*
X160656746Y-110551109D01*
X160659203Y-110551607D01*
X160661620Y-110552172D01*
X160663996Y-110552804D01*
X160666328Y-110553502D01*
X160668614Y-110554262D01*
X160670849Y-110555085D01*
X160673034Y-110555967D01*
X160675166Y-110556906D01*
X160677239Y-110557900D01*
X160679254Y-110558948D01*
X160681205Y-110560049D01*
X160683093Y-110561198D01*
X160684915Y-110562396D01*
X160686664Y-110563639D01*
X160688344Y-110564926D01*
X160689948Y-110566256D01*
X160691474Y-110567625D01*
X160692920Y-110569032D01*
X160694282Y-110570476D01*
X160695561Y-110571954D01*
X160696752Y-110573463D01*
X160697853Y-110575003D01*
X160698860Y-110576573D01*
X160699770Y-110578168D01*
X160700582Y-110579788D01*
X160701295Y-110581431D01*
X160705814Y-110597299D01*
X160713639Y-110626392D01*
X160724108Y-110664744D01*
X160736563Y-110708383D01*
X160743141Y-110730446D01*
X160749512Y-110751308D01*
X160760808Y-110787289D01*
X160771830Y-110821231D01*
X160771910Y-110821603D01*
X160772153Y-110822054D01*
X160773097Y-110823187D01*
X160774618Y-110824610D01*
X160776679Y-110826301D01*
X160782244Y-110830405D01*
X160789462Y-110835337D01*
X160798003Y-110840929D01*
X160807536Y-110847019D01*
X160828256Y-110860022D01*
X160839338Y-110867007D01*
X160850119Y-110873419D01*
X160860632Y-110879262D01*
X160870906Y-110884543D01*
X160880976Y-110889265D01*
X160890869Y-110893435D01*
X160900616Y-110897057D01*
X160910251Y-110900136D01*
X160919803Y-110902679D01*
X160929304Y-110904689D01*
X160938783Y-110906172D01*
X160948274Y-110907133D01*
X160957804Y-110907579D01*
X160967409Y-110907513D01*
X160977115Y-110906940D01*
X160986957Y-110905866D01*
X161002758Y-110903242D01*
X161009910Y-110901783D01*
X161016824Y-110900081D01*
X161023697Y-110898027D01*
X161030723Y-110895515D01*
X161038103Y-110892433D01*
X161046028Y-110888675D01*
X161054699Y-110884131D01*
X161064310Y-110878695D01*
X161075057Y-110872256D01*
X161087137Y-110864706D01*
X161116081Y-110845841D01*
X161152711Y-110821231D01*
X161191297Y-110796195D01*
X161208054Y-110785642D01*
X161223355Y-110776324D01*
X161237373Y-110768183D01*
X161250286Y-110761164D01*
X161262271Y-110755208D01*
X161273501Y-110750260D01*
X161284151Y-110746262D01*
X161289313Y-110744604D01*
X161294398Y-110743160D01*
X161299426Y-110741925D01*
X161304419Y-110740893D01*
X161309398Y-110740055D01*
X161314388Y-110739406D01*
X161324479Y-110738642D01*
X161334872Y-110738544D01*
X161345739Y-110739056D01*
X161357259Y-110740122D01*
X161364415Y-110740868D01*
X161371371Y-110741803D01*
X161378173Y-110742943D01*
X161384866Y-110744311D01*
X161391497Y-110745924D01*
X161398112Y-110747809D01*
X161404758Y-110749982D01*
X161411480Y-110752464D01*
X161418329Y-110755278D01*
X161425347Y-110758442D01*
X161432581Y-110761980D01*
X161440081Y-110765909D01*
X161447889Y-110770251D01*
X161456054Y-110775029D01*
X161464622Y-110780260D01*
X161473638Y-110785966D01*
X161476196Y-110787134D01*
X161478723Y-110787867D01*
X161481435Y-110787982D01*
X161484549Y-110787289D01*
X161488284Y-110785604D01*
X161492857Y-110782743D01*
X161498483Y-110778516D01*
X161505378Y-110772741D01*
X161523852Y-110755798D01*
X161550014Y-110730424D01*
X161632340Y-110648434D01*
X161776934Y-110500321D01*
X161738139Y-110500321D01*
X161729297Y-110499476D01*
X161720624Y-110498265D01*
X161712129Y-110496696D01*
X161703817Y-110494776D01*
X161695692Y-110492514D01*
X161687764Y-110489914D01*
X161680035Y-110486988D01*
X161672511Y-110483736D01*
X161665200Y-110480170D01*
X161658105Y-110476297D01*
X161651235Y-110472122D01*
X161644594Y-110467652D01*
X161638189Y-110462897D01*
X161632021Y-110457863D01*
X161626104Y-110452556D01*
X161620437Y-110446982D01*
X161615030Y-110441153D01*
X161609885Y-110435069D01*
X161605012Y-110428743D01*
X161600413Y-110422181D01*
X161596096Y-110415388D01*
X161592068Y-110408371D01*
X161588332Y-110401141D01*
X161584894Y-110393701D01*
X161581762Y-110386059D01*
X161578940Y-110378223D01*
X161576436Y-110370199D01*
X161574252Y-110361997D01*
X161572397Y-110353620D01*
X161570876Y-110345077D01*
X161569695Y-110336377D01*
X161568860Y-110327524D01*
X161568567Y-110315048D01*
X161569004Y-110302763D01*
X161570153Y-110290695D01*
X161572001Y-110278870D01*
X161574529Y-110267313D01*
X161577725Y-110256051D01*
X161581571Y-110245109D01*
X161586051Y-110234513D01*
X161591153Y-110224288D01*
X161596859Y-110214463D01*
X161603155Y-110205061D01*
X161610023Y-110196106D01*
X161617449Y-110187630D01*
X161625418Y-110179652D01*
X161633914Y-110172203D01*
X161642919Y-110165306D01*
X161692308Y-110142226D01*
X161803273Y-110094391D01*
X162129601Y-109957684D01*
X162461220Y-109821639D01*
X162637443Y-109752708D01*
X162646136Y-109749926D01*
X162656069Y-109746977D01*
X162666828Y-109744029D01*
X162678001Y-109741247D01*
X162689173Y-109738794D01*
X162699932Y-109736840D01*
X162705027Y-109736098D01*
X162709864Y-109735545D01*
X162714392Y-109735196D01*
X162718557Y-109735075D01*
X162739070Y-109732761D01*
X162756359Y-109731108D01*
X162771498Y-109730117D01*
X162778599Y-109729869D01*
X162785565Y-109729785D01*
X162792529Y-109729868D01*
D10*
X114974083Y-50888085D02*
X114707416Y-50507133D01*
X114516940Y-50888085D02*
X114516940Y-50088085D01*
X114821702Y-50088085D01*
X114897892Y-50126181D01*
X114935987Y-50164276D01*
X114974083Y-50240466D01*
X114974083Y-50354752D01*
X114935987Y-50430942D01*
X114897892Y-50469038D01*
X114821702Y-50507133D01*
X114516940Y-50507133D01*
X115316940Y-50469038D02*
X115583606Y-50469038D01*
X115697892Y-50888085D02*
X115316940Y-50888085D01*
X115316940Y-50088085D01*
X115697892Y-50088085D01*
X115926464Y-50088085D02*
X116193130Y-50888085D01*
X116459797Y-50088085D01*
X116726464Y-50888085D02*
X116726464Y-50088085D01*
X117069321Y-50849990D02*
X117183606Y-50888085D01*
X117374083Y-50888085D01*
X117450273Y-50849990D01*
X117488368Y-50811895D01*
X117526464Y-50735704D01*
X117526464Y-50659514D01*
X117488368Y-50583323D01*
X117450273Y-50545228D01*
X117374083Y-50507133D01*
X117221702Y-50469038D01*
X117145511Y-50430942D01*
X117107416Y-50392847D01*
X117069321Y-50316657D01*
X117069321Y-50240466D01*
X117107416Y-50164276D01*
X117145511Y-50126181D01*
X117221702Y-50088085D01*
X117412178Y-50088085D01*
X117526464Y-50126181D01*
X117869321Y-50888085D02*
X117869321Y-50088085D01*
X118402654Y-50088085D02*
X118555035Y-50088085D01*
X118631225Y-50126181D01*
X118707416Y-50202371D01*
X118745511Y-50354752D01*
X118745511Y-50621419D01*
X118707416Y-50773800D01*
X118631225Y-50849990D01*
X118555035Y-50888085D01*
X118402654Y-50888085D01*
X118326464Y-50849990D01*
X118250273Y-50773800D01*
X118212178Y-50621419D01*
X118212178Y-50354752D01*
X118250273Y-50202371D01*
X118326464Y-50126181D01*
X118402654Y-50088085D01*
X119088368Y-50888085D02*
X119088368Y-50088085D01*
X119545511Y-50888085D01*
X119545511Y-50088085D01*
X120955035Y-50888085D02*
X120497892Y-50888085D01*
X120726464Y-50888085D02*
X120726464Y-50088085D01*
X120650273Y-50202371D01*
X120574083Y-50278561D01*
X120497892Y-50316657D01*
X121297892Y-50811895D02*
X121335987Y-50849990D01*
X121297892Y-50888085D01*
X121259797Y-50849990D01*
X121297892Y-50811895D01*
X121297892Y-50888085D01*
X121602654Y-50088085D02*
X122097892Y-50088085D01*
X121831225Y-50392847D01*
X121945511Y-50392847D01*
X122021702Y-50430942D01*
X122059797Y-50469038D01*
X122097892Y-50545228D01*
X122097892Y-50735704D01*
X122059797Y-50811895D01*
X122021702Y-50849990D01*
X121945511Y-50888085D01*
X121716940Y-50888085D01*
X121640749Y-50849990D01*
X121602654Y-50811895D01*
X114783606Y-51757038D02*
X114897892Y-51795133D01*
X114935987Y-51833228D01*
X114974083Y-51909419D01*
X114974083Y-52023704D01*
X114935987Y-52099895D01*
X114897892Y-52137990D01*
X114821702Y-52176085D01*
X114516940Y-52176085D01*
X114516940Y-51376085D01*
X114783606Y-51376085D01*
X114859797Y-51414181D01*
X114897892Y-51452276D01*
X114935987Y-51528466D01*
X114935987Y-51604657D01*
X114897892Y-51680847D01*
X114859797Y-51718942D01*
X114783606Y-51757038D01*
X114516940Y-51757038D01*
X115469321Y-51795133D02*
X115469321Y-52176085D01*
X115202654Y-51376085D02*
X115469321Y-51795133D01*
X115735987Y-51376085D01*
X117031225Y-51414181D02*
X116955035Y-51376085D01*
X116840749Y-51376085D01*
X116726464Y-51414181D01*
X116650273Y-51490371D01*
X116612178Y-51566561D01*
X116574083Y-51718942D01*
X116574083Y-51833228D01*
X116612178Y-51985609D01*
X116650273Y-52061800D01*
X116726464Y-52137990D01*
X116840749Y-52176085D01*
X116916940Y-52176085D01*
X117031225Y-52137990D01*
X117069321Y-52099895D01*
X117069321Y-51833228D01*
X116916940Y-51833228D01*
X117412178Y-51757038D02*
X117678844Y-51757038D01*
X117793130Y-52176085D02*
X117412178Y-52176085D01*
X117412178Y-51376085D01*
X117793130Y-51376085D01*
X118135987Y-52176085D02*
X118135987Y-51376085D01*
X118478844Y-52137990D02*
X118593130Y-52176085D01*
X118783606Y-52176085D01*
X118859797Y-52137990D01*
X118897892Y-52099895D01*
X118935987Y-52023704D01*
X118935987Y-51947514D01*
X118897892Y-51871323D01*
X118859797Y-51833228D01*
X118783606Y-51795133D01*
X118631225Y-51757038D01*
X118555035Y-51718942D01*
X118516940Y-51680847D01*
X118478844Y-51604657D01*
X118478844Y-51528466D01*
X118516940Y-51452276D01*
X118555035Y-51414181D01*
X118631225Y-51376085D01*
X118821702Y-51376085D01*
X118935987Y-51414181D01*
X119164559Y-51376085D02*
X119621702Y-51376085D01*
X119393130Y-52176085D02*
X119393130Y-51376085D01*
D13*
X140765363Y-130818038D03*
X138965363Y-129768038D03*
X145965363Y-130818038D03*
X147765363Y-129768038D03*
D14*
X140965363Y-118693038D03*
X140965363Y-120443038D03*
X145765363Y-120443038D03*
X145765363Y-118693038D03*
D15*
X143365363Y-125068038D03*
D13*
X121227920Y-134176124D03*
X119217494Y-133627776D03*
X126250735Y-132830265D03*
X127717641Y-131350169D03*
D16*
X118282925Y-122412510D03*
X118735858Y-124102880D03*
X123372302Y-122860548D03*
X122919369Y-121170178D03*
D15*
X122251118Y-127949121D03*
D13*
X103224453Y-142481563D03*
X101140607Y-142472236D03*
X107727785Y-139881563D03*
X108761631Y-138072236D03*
D17*
X97335158Y-131881005D03*
X98210158Y-133396550D03*
X102367080Y-130996550D03*
X101492080Y-129481005D03*
D15*
X102601119Y-136201917D03*
D13*
X87953505Y-155168353D03*
X85938251Y-155698683D03*
X91630461Y-151491397D03*
X92160791Y-149476143D03*
D18*
X79521257Y-146453262D03*
X80758694Y-147690698D03*
X84152806Y-144296586D03*
X82915370Y-143059149D03*
D15*
X85726119Y-149264011D03*
D13*
X212477368Y-122051006D03*
X210887044Y-120704391D03*
X217598368Y-122953977D03*
X219553353Y-122232495D03*
D19*
X214779814Y-110144942D03*
X214475929Y-111868356D03*
X219203006Y-112701867D03*
X219506891Y-110978453D03*
D15*
X216036345Y-116839847D03*
D13*
X192875130Y-123671737D03*
X191284806Y-122325122D03*
X197996130Y-124574708D03*
X199951115Y-123853226D03*
D19*
X195177576Y-111765673D03*
X194873691Y-113489087D03*
X199600768Y-114322598D03*
X199904653Y-112599184D03*
D15*
X196434107Y-118460578D03*
D13*
X175581353Y-110003961D03*
X173858982Y-108830958D03*
X180768686Y-110366695D03*
X182637545Y-109444815D03*
D20*
X176626663Y-97922449D03*
X176504589Y-99668186D03*
X181292896Y-100003017D03*
X181414970Y-98257280D03*
D15*
X178576119Y-104449335D03*
D13*
X156865363Y-99868038D03*
X155065363Y-98818038D03*
X162065363Y-99868038D03*
X163865363Y-98818038D03*
D14*
X157065363Y-87743038D03*
X157065363Y-89493038D03*
X161865363Y-89493038D03*
X161865363Y-87743038D03*
D15*
X159465363Y-94118038D03*
D13*
X137815363Y-108868038D03*
X136015363Y-107818038D03*
X143015363Y-108868038D03*
X144815363Y-107818038D03*
D14*
X138015363Y-96743038D03*
X138015363Y-98493038D03*
X142815363Y-98493038D03*
X142815363Y-96743038D03*
D15*
X140415363Y-103118038D03*
D13*
X118821934Y-111868038D03*
X117021934Y-110818038D03*
X124021934Y-111868038D03*
X125821934Y-110818038D03*
D14*
X119021934Y-99743038D03*
X119021934Y-101493038D03*
X123821934Y-101493038D03*
X123821934Y-99743038D03*
D15*
X121421934Y-106118038D03*
D13*
X215789289Y-103268165D03*
X214198965Y-101921550D03*
X220910289Y-104171136D03*
X222865274Y-103449654D03*
D19*
X218091735Y-91362101D03*
X217787850Y-93085515D03*
X222514927Y-93919026D03*
X222818812Y-92195612D03*
D15*
X219348266Y-98057006D03*
D13*
X196187052Y-104888894D03*
X194596728Y-103542279D03*
X201308052Y-105791865D03*
X203263037Y-105070383D03*
D19*
X198489498Y-92982830D03*
X198185613Y-94706244D03*
X202912690Y-95539755D03*
X203216575Y-93816341D03*
D15*
X199746029Y-99677735D03*
D13*
X176911790Y-90977823D03*
X175189419Y-89804820D03*
X182099123Y-91340557D03*
X183967982Y-90418677D03*
D20*
X177957100Y-78896311D03*
X177835026Y-80642048D03*
X182623333Y-80976879D03*
X182745407Y-79231142D03*
D15*
X179906556Y-85423197D03*
D13*
X156865363Y-80795441D03*
X155065363Y-79745441D03*
X162065363Y-80795441D03*
X163865363Y-79745441D03*
D14*
X157065363Y-68670441D03*
X157065363Y-70420441D03*
X161865363Y-70420441D03*
X161865363Y-68670441D03*
D15*
X159465363Y-75045441D03*
D13*
X137815364Y-89795441D03*
X136015364Y-88745441D03*
X143015364Y-89795441D03*
X144815364Y-88745441D03*
D14*
X138015364Y-77670441D03*
X138015364Y-79420441D03*
X142815364Y-79420441D03*
X142815364Y-77670441D03*
D15*
X140415364Y-84045441D03*
D13*
X118821933Y-92795441D03*
X117021933Y-91745441D03*
X124021933Y-92795441D03*
X125821933Y-91745441D03*
D14*
X119021933Y-80670441D03*
X119021933Y-82420441D03*
X123821933Y-82420441D03*
X123821933Y-80670441D03*
D15*
X121421933Y-87045441D03*
D13*
X199498974Y-86106054D03*
X197908650Y-84759439D03*
X204619974Y-87009025D03*
X206574959Y-86287543D03*
D19*
X201801420Y-74199990D03*
X201497535Y-75923404D03*
X206224612Y-76756915D03*
X206528497Y-75033501D03*
D15*
X203057951Y-80894895D03*
D13*
X178242226Y-71951688D03*
X176519855Y-70778685D03*
X183429559Y-72314422D03*
X185298418Y-71392542D03*
D20*
X179287536Y-59870176D03*
X179165462Y-61615913D03*
X183953769Y-61950744D03*
X184075843Y-60205007D03*
D15*
X181236992Y-66397062D03*
D13*
X156865363Y-61722845D03*
X155065363Y-60672845D03*
X162065363Y-61722845D03*
X163865363Y-60672845D03*
D14*
X157065363Y-49597845D03*
X157065363Y-51347845D03*
X161865363Y-51347845D03*
X161865363Y-49597845D03*
D15*
X159465363Y-55972845D03*
D13*
X137815364Y-70722845D03*
X136015364Y-69672845D03*
X143015364Y-70722845D03*
X144815364Y-69672845D03*
D14*
X138015364Y-58597845D03*
X138015364Y-60347845D03*
X142815364Y-60347845D03*
X142815364Y-58597845D03*
D15*
X140415364Y-64972845D03*
D13*
X118821934Y-73722844D03*
X117021934Y-72672844D03*
X124021934Y-73722844D03*
X125821934Y-72672844D03*
D14*
X119021934Y-61597844D03*
X119021934Y-63347844D03*
X123821934Y-63347844D03*
X123821934Y-61597844D03*
D15*
X121421934Y-67972844D03*
D21*
X82253963Y-105370181D03*
X82253963Y-104369421D03*
D22*
X181913965Y-118840181D03*
D23*
X195653964Y-107670182D03*
X192305618Y-107079778D03*
D24*
X139050964Y-92567180D03*
X135650964Y-92567180D03*
D25*
X176645681Y-112807353D03*
X173253963Y-112570181D03*
D21*
X92974964Y-98672561D03*
X92974964Y-97671801D03*
D22*
X83673965Y-52090182D03*
D26*
X129896956Y-123233255D03*
X129016972Y-119949107D03*
D27*
X167063964Y-112660181D03*
X153863964Y-112660181D03*
D28*
X193603965Y-71420180D03*
D24*
X157053965Y-102670181D03*
X153653965Y-102670181D03*
D29*
X102943966Y-107820181D03*
X102943966Y-112820181D03*
D30*
X95943966Y-115920181D03*
X95943966Y-104720181D03*
D29*
X88443966Y-110320181D03*
X88443966Y-112820181D03*
X88443966Y-107820181D03*
D31*
X92983075Y-94825182D03*
X95523075Y-94825182D03*
X98063075Y-94825182D03*
X100603075Y-94825182D03*
D32*
X93053965Y-123395180D03*
X93053965Y-125845180D03*
X84553965Y-127595180D03*
X84553965Y-121645180D03*
X87553965Y-121645180D03*
X87553965Y-127595180D03*
X91553965Y-121645180D03*
X91553965Y-127595180D03*
D33*
X89753965Y-125495180D03*
X82753965Y-123745180D03*
X89753965Y-123745180D03*
X82753965Y-125495180D03*
D24*
X119053965Y-95570180D03*
X115653965Y-95570180D03*
D21*
X98013964Y-98672561D03*
X98013964Y-97671801D03*
D22*
X83673965Y-131520180D03*
D21*
X95519965Y-98672561D03*
X95519965Y-97671801D03*
D22*
X189343965Y-53100181D03*
D23*
X198953964Y-88870182D03*
X195605618Y-88279778D03*
D34*
X108725964Y-129742181D03*
X107025964Y-126797695D03*
D35*
X82703964Y-99170181D03*
X82703964Y-101170181D03*
D21*
X202878964Y-54219800D03*
X202878964Y-55220560D03*
D36*
X81613960Y-115180188D03*
X81613960Y-118880188D03*
D37*
X83563960Y-117030188D03*
D38*
X83563960Y-115805188D03*
X83563960Y-118255188D03*
D39*
X82663960Y-119155188D03*
X82663960Y-114905188D03*
D21*
X195278964Y-54219801D03*
X195278964Y-55220561D03*
D23*
X223902311Y-107560585D03*
X220553965Y-106970181D03*
D22*
X174503965Y-52090180D03*
D24*
X138053964Y-73470181D03*
X134653964Y-73470181D03*
X157153965Y-64470180D03*
X153753965Y-64470180D03*
X157132965Y-83555181D03*
X153732965Y-83555181D03*
D23*
X192328138Y-126365383D03*
X188979792Y-125774979D03*
D24*
X102933965Y-103330180D03*
X99533965Y-103330180D03*
D40*
X149952966Y-73720181D03*
X169002966Y-92770181D03*
X130902966Y-92770181D03*
D21*
X100558965Y-98672561D03*
X100558965Y-97671801D03*
D22*
X170303964Y-118080182D03*
D25*
X176653965Y-93770181D03*
X173262247Y-93533009D03*
D22*
X167653965Y-84420181D03*
D25*
X178045682Y-74707353D03*
X174653964Y-74470181D03*
D41*
X89828965Y-141250181D03*
X87424801Y-138846017D03*
D42*
X148553964Y-97870180D03*
X148553964Y-101270180D03*
D29*
X82853965Y-111370181D03*
D43*
X82853965Y-107770132D03*
D24*
X119053965Y-76470181D03*
X115653965Y-76470181D03*
D44*
X82555193Y-64396409D03*
X82555193Y-56446409D03*
D45*
X84455193Y-62546409D03*
X84455193Y-61046409D03*
X84455193Y-58046409D03*
D39*
X82605193Y-61796409D03*
X82655193Y-58796409D03*
D22*
X145753965Y-52090181D03*
D21*
X84028965Y-105370181D03*
X84028965Y-104369421D03*
X205453965Y-54219801D03*
X205453965Y-55220561D03*
D24*
X118853965Y-114660181D03*
X115453965Y-114660181D03*
D23*
X220553965Y-126170182D03*
X217205619Y-125579778D03*
D46*
X104373965Y-53210181D03*
X90432780Y-54405926D03*
X90432780Y-56945926D03*
X104373965Y-55750181D03*
X104373965Y-58290181D03*
X90432780Y-59485926D03*
X104373965Y-60830181D03*
X90432780Y-62025926D03*
X90432780Y-64565926D03*
X104373965Y-63370181D03*
X90432780Y-67105926D03*
X104373965Y-65910181D03*
X90432780Y-69645926D03*
X104373965Y-68450181D03*
X90432780Y-72185926D03*
X104373965Y-70990181D03*
X104373965Y-73530181D03*
X90432780Y-74725926D03*
X104373965Y-76070181D03*
X90432780Y-77265926D03*
X90432780Y-79805926D03*
X104373965Y-78610181D03*
X104373965Y-81150181D03*
X90432780Y-82345926D03*
X105672780Y-82345926D03*
X89133965Y-81150181D03*
X105672780Y-79805926D03*
X89133965Y-78610181D03*
X105672780Y-77265926D03*
X89133965Y-76070181D03*
X89133965Y-73530181D03*
X105672780Y-74725926D03*
X105672780Y-72185926D03*
X89133965Y-70990181D03*
X89133965Y-68450181D03*
X105672780Y-69645926D03*
X105672780Y-67105926D03*
X89133965Y-65910181D03*
X105672780Y-64565926D03*
X89133965Y-63370181D03*
X105672780Y-62025926D03*
X89133965Y-60830181D03*
X89133965Y-58290181D03*
X105672780Y-59485926D03*
X89133965Y-55750181D03*
X105672780Y-56945926D03*
X89133965Y-53210181D03*
X105672780Y-54405926D03*
D42*
X151957965Y-122375181D03*
X151957965Y-118975181D03*
D47*
X205433964Y-52020181D03*
X202893964Y-52020181D03*
X200353964Y-52020181D03*
X197813964Y-52020181D03*
D48*
X195273964Y-52020181D03*
M02*
