M48
; DRILL file {KiCad (6.0.8)} date Sun Nov 27 04:27:56 2022
; FORMAT={-:-/ absolute / inch / decimal}
; #@! TF.CreationDate,2022-11-27T04:27:56-08:00
; #@! TF.GenerationSoftware,Kicad,Pcbnew,(6.0.8)
; #@! TF.FileFunction,Plated,1,2,PTH
FMAT,2
INCH
; #@! TA.AperFunction,Plated,PTH,ComponentDrill
T1C0.0079
; #@! TA.AperFunction,Plated,PTH,ViaDrill
T2C0.0118
; #@! TA.AperFunction,Plated,PTH,ComponentDrill
T3C0.0157
; #@! TA.AperFunction,Plated,PTH,ComponentDrill
T4C0.0197
; #@! TA.AperFunction,Plated,PTH,ComponentDrill
T5C0.0295
; #@! TA.AperFunction,Plated,PTH,ComponentDrill
T6C0.0320
; #@! TA.AperFunction,Plated,PTH,ComponentDrill
T7C0.0394
; #@! TA.AperFunction,Plated,PTH,ComponentDrill
T8C0.0591
; #@! TA.AperFunction,Plated,PTH,ComponentDrill
T9C0.0866
%
G90
G05
T1
X3.2131Y-4.5347
X3.2131Y-4.6803
X3.2899Y-4.5593
X3.2899Y-4.6075
X3.2899Y-4.6557
T2
X2.9883Y-5.8748
X3.088Y-5.8103
X3.1287Y-5.817
X3.2102Y-2.3704
X3.2187Y-2.5854
X3.2315Y-2.3925
X3.2403Y-4.0382
X3.252Y-2.3728
X3.258Y-3.8532
X3.2668Y-4.8084
X3.2714Y-4.0789
X3.2863Y-2.3726
X3.3082Y-4.177
X3.3149Y-5.6305
X3.3525Y-5.5421
X3.395Y-2.3543
X3.4217Y-2.4138
X3.4244Y-4.7405
X3.4273Y-5.7626
X3.4274Y-2.7155
X3.4278Y-2.6858
X3.4322Y-5.6199
X3.4395Y-2.2746
X3.4431Y-2.0933
X3.4444Y-2.6675
X3.445Y-2.5992
X3.4602Y-2.2145
X3.4795Y-2.9467
X3.4824Y-4.5224
X3.5139Y-4.8036
X3.5413Y-4.803
X3.5592Y-4.9063
X3.57Y-3.7961
X3.6202Y-5.2941
X3.6281Y-4.9063
X3.7554Y-5.2686
X3.7619Y-5.2329
X3.8057Y-5.247
X3.8085Y-3.8971
X3.8092Y-5.3256
X3.8094Y-3.8723
X3.8131Y-3.7961
X3.8604Y-5.7193
X3.8899Y-3.7961
X3.9342Y-3.7961
X3.9602Y-3.9205
X3.9893Y-3.7961
X4.0353Y-2.3416
X4.0572Y-5.1028
X4.0654Y-2.541
X4.0656Y-2.7411
X4.0661Y-2.8417
X4.0665Y-2.6421
X4.0665Y-2.9421
X4.0667Y-3.2423
X4.0671Y-3.0427
X4.0681Y-3.1437
X4.0917Y-3.7961
X4.1005Y-5.1593
X4.1836Y-2.394
X4.1885Y-2.6059
X4.2596Y-2.9362
X4.2777Y-2.2626
X4.2817Y-2.1484
X4.2934Y-3.0043
X4.2957Y-3.2874
X4.3178Y-3.3682
X4.4628Y-3.1248
X4.4726Y-5.2724
X4.4841Y-3.0787
X4.495Y-4.4161
X4.5048Y-3.4696
X4.5368Y-3.8319
X4.5415Y-3.1248
X4.5533Y-2.9457
X4.5795Y-4.8417
X4.6124Y-4.7587
X4.6145Y-4.8644
X4.6202Y-3.7616
X4.6219Y-2.4256
X4.6245Y-3.9274
X4.6248Y-3.1758
X4.6465Y-2.4584
X4.6465Y-2.5273
X4.6486Y-3.9615
X4.6489Y-3.2105
X4.6859Y-3.2803
X4.6859Y-4.0312
X4.8748Y-3.8915
X4.8749Y-3.1406
X4.8985Y-4.7883
X4.9118Y-3.9613
X4.912Y-3.2104
X4.9139Y-2.4586
X4.9194Y-3.1169
X4.9194Y-3.865
X4.9194Y-2.3532
X4.9224Y-4.4683
X4.9403Y-3.7394
X4.9628Y-2.9555
X5.0563Y-4.2252
X5.0639Y-3.7717
X5.0966Y-2.861
X5.1685Y-2.8718
X5.1688Y-2.9133
X5.2045Y-4.2669
X5.2057Y-4.0583
X5.2108Y-2.8453
X5.2108Y-2.9506
X5.2108Y-3.0736
X5.2316Y-3.7875
X5.2318Y-2.8918
X5.2318Y-3.7577
X5.2318Y-3.9464
X5.2502Y-5.3138
X5.2541Y-4.865
X5.2733Y-3.7172
X5.2935Y-3.0146
X5.3057Y-3.8571
X5.321Y-3.5825
X5.3279Y-3.9467
X5.3407Y-4.5224
X5.3446Y-2.3965
X5.3482Y-2.3314
X5.3683Y-2.8807
X5.3714Y-2.3086
X5.3719Y-3.811
X5.3723Y-3.0578
X5.3752Y-3.736
X5.3961Y-2.3412
X5.3964Y-3.8434
X5.3966Y-3.0923
X5.4067Y-3.6612
X5.4076Y-4.0097
X5.447Y-4.7488
X5.4646Y-4.7076
X5.4883Y-4.673
X5.5125Y-4.7076
X5.5278Y-4.2939
X5.573Y-3.6209
X5.6002Y-2.8579
X5.6225Y-3.985
X5.66Y-3.8434
X5.6601Y-3.0926
X5.6604Y-2.3418
X5.6675Y-2.4201
X5.6773Y-3.9998
X5.6779Y-4.152
X5.7303Y-4.152
X5.7738Y-4.865
X5.7759Y-4.7075
X5.7797Y-3.7557
X5.8171Y-4.6465
X5.8171Y-4.7085
X5.8407Y-4.0608
X5.856Y-4.4447
X5.8643Y-5.1898
X5.8663Y-3.2557
X5.9155Y-3.9663
X5.9175Y-2.3747
X5.9175Y-2.177
X5.9313Y-4.4476
X5.9474Y-3.6484
X5.9568Y-5.1445
X5.9588Y-4.8886
X5.9588Y-4.0815
X5.9604Y-3.2563
X5.9628Y-2.3847
X5.9628Y-3.9173
X5.9667Y-4.4472
X5.9679Y-2.7425
X5.9818Y-3.385
X5.9824Y-2.6312
X6.01Y-4.3571
X6.0444Y-4.7147
X6.0454Y-2.6602
X6.0464Y-3.2291
X6.0702Y-2.7811
X6.0847Y-4.6997
X6.1193Y-3.2921
X6.1202Y-2.5382
X6.1212Y-1.9526
X6.1222Y-2.7032
X6.1224Y-3.4545
X6.1255Y-4.6827
X6.1453Y-1.9865
X6.1465Y-2.7381
X6.1466Y-3.4888
X6.1744Y-4.6649
X6.183Y-2.0645
X6.1837Y-2.8079
X6.1839Y-3.5588
X6.3726Y-2.6681
X6.3726Y-3.419
X6.384Y-2.6169
X6.388Y-3.3728
X6.3958Y-2.9083
X6.3958Y-3.6563
X6.3958Y-2.1602
X6.4097Y-2.7381
X6.4098Y-3.4888
X6.4113Y-1.9879
X6.4175Y-2.0726
X6.4362Y-1.9523
X6.5054Y-4.1603
X6.5149Y-2.0559
X6.5538Y-2.2085
X6.6586Y-3.8128
X6.6656Y-2.2376
X6.6785Y-4.4893
X6.7309Y-3.552
X6.7663Y-4.3717
X6.7684Y-2.8241
X6.8318Y-2.7616
X6.832Y-3.7843
X6.8446Y-3.0618
X6.8446Y-3.1524
X6.885Y-3.7016
X6.89Y-3.8555
X6.9141Y-3.8869
X6.9426Y-3.1058
X6.945Y-2.9358
X6.9669Y-3.1379
X6.9926Y-2.3563
X7.0172Y-2.3877
X7.0297Y-2.3089
X7.0297Y-4.424
X7.0454Y-2.4791
X7.0572Y-3.7784
X7.0809Y-2.928
X7.1124Y-3.6721
X7.1202Y-3.0303
X7.1635Y-2.928
X7.1778Y-3.9059
X7.2292Y-3.1563
X7.2853Y-2.4055
X7.2985Y-4.1786
X7.3131Y-2.3295
X7.3486Y-4.5658
X7.3506Y-3.4283
X7.3894Y-4.4828
X7.4035Y-2.6803
X7.4106Y-4.501
X7.4155Y-4.6209
X7.4391Y-4.8925
X7.5125Y-3.8484
X7.5149Y-3.1774
X7.5376Y-4.4713
X7.5425Y-3.0431
X7.5865Y-4.4065
X7.6157Y-4.4003
X7.632Y-4.3295
X7.6398Y-4.4264
X7.6399Y-4.9358
X7.7305Y-3.7862
X7.7473Y-3.6606
X7.7687Y-3.7597
X7.7716Y-3.688
X7.7866Y-2.2295
X7.8565Y-3.0461
X7.8604Y-4.5973
X7.8707Y-4.3972
X7.878Y-2.921
X7.8989Y-3.0191
X7.9013Y-4.4738
X7.902Y-2.9487
X7.9194Y-3.4555
X7.9872Y-4.755
X7.9903Y-3.8965
X7.9943Y-4.2362
X8.0003Y-3.6574
X8.0021Y-3.5421
X8.0313Y-3.7341
X8.0332Y-5.0799
X8.0799Y-2.2429
X8.1015Y-4.8246
X8.1507Y-4.0028
X8.1612Y-4.6264
X8.1619Y-2.9943
X8.1754Y-4.8226
X8.1754Y-4.2075
X8.347Y-4.0862
X8.3664Y-4.2461
X8.3886Y-4.3301
X8.3897Y-4.9378
X8.3998Y-4.1415
X8.413Y-4.3636
X8.4155Y-4.4595
X8.4234Y-4.2232
X8.4549Y-3.613
X8.5198Y-3.5969
X8.5438Y-3.6244
X8.5651Y-3.7272
X8.5651Y-4.1091
X8.632Y-4.5598
X8.6399Y-3.9673
X8.6729Y-4.4097
X8.6767Y-4.0158
X8.8037Y-3.6706
T3
X3.4419Y-5.4664
X3.5366Y-5.561
X3.9187Y-4.0681
X4.0525Y-4.0681
X4.2136Y-4.992
X4.2805Y-5.108
X4.5454Y-4.5142
X4.5533Y-3.0106
X4.5533Y-3.7626
X4.6793Y-4.5142
X4.6872Y-3.0106
X4.6872Y-3.7626
X5.0794Y-4.7224
X5.1141Y-4.8517
X5.3013Y-2.8925
X5.3406Y-3.6444
X5.4352Y-2.8925
X5.4744Y-3.6444
X5.8486Y-3.8532
X5.8486Y-3.987
X5.9826Y-4.6841
X5.9826Y-4.8179
X6.0494Y-4.0421
X6.0525Y-3.2896
X6.0533Y-2.5382
X6.1832Y-4.0421
X6.1863Y-3.2896
X6.1872Y-2.5382
X6.821Y-4.4319
X6.8213Y-3.6824
X6.8761Y-2.9319
X6.9546Y-4.4412
X6.9549Y-3.6917
X7.0097Y-2.9412
X7.4401Y-4.9518
X7.5711Y-4.2157
X7.572Y-4.975
X7.701Y-3.4756
X7.7029Y-4.239
X7.8328Y-3.4988
X8.5514Y-4.9441
X8.6832Y-4.2114
X8.6832Y-4.9673
X8.8151Y-4.2347
T4
X6.0576Y-4.4354
X6.5773Y-4.4354
T5
X3.2561Y-3.9043
X3.2561Y-3.9831
T6
X3.5092Y-2.0949
X3.5092Y-2.1949
X3.5092Y-2.2949
X3.5092Y-2.3949
X3.5092Y-2.4949
X3.5092Y-2.5949
X3.5092Y-2.6949
X3.5092Y-2.7949
X3.5092Y-2.8949
X3.5092Y-2.9949
X3.5092Y-3.0949
X3.5092Y-3.1949
X3.5603Y-2.142
X3.5603Y-2.242
X3.5603Y-2.342
X3.5603Y-2.442
X3.5603Y-2.542
X3.5603Y-2.642
X3.5603Y-2.742
X3.5603Y-2.842
X3.5603Y-2.942
X3.5603Y-3.042
X3.5603Y-3.142
X3.5603Y-3.242
X4.1092Y-2.0949
X4.1092Y-2.1949
X4.1092Y-2.2949
X4.1092Y-2.3949
X4.1092Y-2.4949
X4.1092Y-2.5949
X4.1092Y-2.6949
X4.1092Y-2.7949
X4.1092Y-2.8949
X4.1092Y-2.9949
X4.1092Y-3.0949
X4.1092Y-3.1949
X4.1603Y-2.142
X4.1603Y-2.242
X4.1603Y-2.342
X4.1603Y-2.442
X4.1603Y-2.542
X4.1603Y-2.642
X4.1603Y-2.742
X4.1603Y-2.842
X4.1603Y-2.942
X4.1603Y-3.042
X4.1603Y-3.142
X4.1603Y-3.242
T7
X3.262Y-4.2429
X3.262Y-4.3847
X3.482Y-4.2449
X3.482Y-4.3433
X3.482Y-4.4417
X3.6608Y-3.7333
X3.7608Y-3.7333
X3.8608Y-3.7333
X3.9608Y-3.7333
X4.0529Y-4.2449
X4.0529Y-4.4417
X7.688Y-2.048
X7.788Y-2.048
X7.888Y-2.048
X7.988Y-2.048
X8.088Y-2.048
T8
X3.3834Y-6.1299
X3.4627Y-6.109
X3.6075Y-5.9642
X3.6284Y-5.8849
X3.9819Y-5.6091
X4.064Y-5.6095
X4.2413Y-5.5071
X4.282Y-5.4359
X4.6072Y-3.612
X4.6072Y-2.8611
X4.6072Y-4.3629
X4.678Y-3.6534
X4.678Y-2.9025
X4.678Y-4.4043
X4.6936Y-5.2609
X4.7728Y-5.2825
X4.8828Y-3.6534
X4.8828Y-2.9025
X4.8828Y-4.4043
X4.9536Y-3.612
X4.9536Y-2.8611
X4.9536Y-4.3629
X4.9705Y-5.2295
X5.0283Y-5.1713
X5.3549Y-4.2448
X5.3549Y-2.743
X5.3549Y-3.4939
X5.4258Y-4.2861
X5.4258Y-2.7844
X5.4258Y-3.5353
X5.4711Y-5.109
X5.5419Y-5.1503
X5.6305Y-4.2861
X5.6305Y-2.7844
X5.6305Y-3.5353
X5.7014Y-4.2448
X5.7014Y-2.743
X5.7014Y-3.4939
X5.7467Y-5.1503
X5.8175Y-5.109
X6.1049Y-2.3887
X6.1049Y-3.1396
X6.1049Y-3.8905
X6.1758Y-2.43
X6.1758Y-3.1809
X6.1758Y-3.9318
X6.3805Y-2.43
X6.3805Y-3.1809
X6.3805Y-3.9318
X6.4514Y-2.3887
X6.4514Y-3.1396
X6.4514Y-3.8905
X6.8448Y-4.2847
X6.8972Y-3.5356
X6.9127Y-4.3309
X6.9496Y-2.7866
X6.965Y-3.5818
X7.0174Y-2.8327
X7.1169Y-4.3451
X7.1693Y-3.5961
X7.1905Y-4.3089
X7.2216Y-2.847
X7.2428Y-3.5598
X7.2952Y-2.8107
X7.5309Y-4.8159
X7.5935Y-4.869
X7.6613Y-4.0765
X7.7239Y-4.1295
X7.7917Y-3.337
X7.7951Y-4.9045
X7.8543Y-3.39
X7.8721Y-4.8761
X7.9255Y-4.165
X8.0025Y-4.1366
X8.0559Y-3.4256
X8.1329Y-3.3971
X8.3026Y-4.7521
X8.3653Y-4.8052
X8.433Y-4.0127
X8.4956Y-4.0657
X8.5669Y-4.8407
X8.6438Y-4.8123
X8.6973Y-4.1012
X8.7742Y-4.0728
T9
X5.1537Y-3.6524
X5.9037Y-2.9024
X6.6537Y-3.6524
T7
G00X3.3191Y-4.7892
M15
G01X3.3387Y-4.7892
M16
G05
G00X3.3191Y-5.0234
M15
G01X3.3387Y-5.0234
M16
G05
G00X3.4372Y-4.7892
M15
G01X3.4568Y-4.7892
M16
G05
G00X3.4372Y-5.0234
M15
G01X3.4568Y-5.0234
M16
G05
G00X3.5946Y-4.7892
M15
G01X3.6143Y-4.7892
M16
G05
G00X3.5946Y-5.0234
M15
G01X3.6143Y-5.0234
M16
G05
G00X3.6537Y-4.8581
M15
G01X3.6734Y-4.8581
M16
G05
G00X3.6537Y-4.9545
M15
G01X3.6734Y-4.9545
M16
G05
T8
G00X3.7517Y-4.1228
M15
G01X3.8029Y-4.1228
M16
G05
G00X3.7517Y-4.5638
M15
G01X3.8029Y-4.5638
M16
G05
T0
M30
